<?xml version="1.0" encoding="UTF-8" standalone="no"?><svg xmlns="http://www.w3.org/2000/svg" xmlns:xlink="http://www.w3.org/1999/xlink" contentStyleType="text/css" height="95.4px" preserveAspectRatio="none" style="width:564px;height:95px;background:#FFFFFF;" version="1.1" viewBox="0 0 564 95" width="564px" zoomAndPan="magnify"><defs/><g><!--MD5=[596a3fce02c22add433194d296df65d0]
class CSVConverter--><g id="elem_CSVConverter"><rect codeLine="6" fill="#F1F1F1" height="55.6969" id="CSVConverter" rx="1.5" ry="1.5" style="stroke:#181818;stroke-width:0.3;" width="83.4" x="331.8" y="20.1"/><ellipse cx="345.12" cy="29.7" fill="#ADD1B2" rx="6.6" ry="6.6" style="stroke:#181818;stroke-width:0.6;"/><path d="M346.32,27.6 Q346.4419,27.3 346.5825,27.15 Q346.7231,27 346.8825,27 Q347.1638,27 347.3419,27.1688 Q347.52,27.3375 347.52,27.7313 L347.52,28.6688 Q347.52,29.0625 347.3513,29.2313 Q347.1825,29.4 346.92,29.4 Q346.6856,29.4 346.5356,29.2969 Q346.3856,29.1937 346.32,28.9219 Q346.2919,28.7344 346.1888,28.6312 Q346.0013,28.4344 345.6638,28.3219 Q345.3263,28.2 344.9888,28.2 Q344.5669,28.2 344.2106,28.3688 Q343.8638,28.5375 343.5919,28.9125 Q343.32,29.2875 343.32,29.8031 L343.32,30.3563 Q343.32,30.975 343.8263,31.3875 Q344.3325,31.8 345.2325,31.8 Q345.7669,31.8 346.1419,31.6781 Q346.3575,31.6125 346.6013,31.3969 Q346.7606,31.275 346.845,31.2375 Q346.9294,31.2 347.0325,31.2 Q347.2294,31.2 347.37,31.3594 Q347.52,31.5094 347.52,31.725 Q347.52,31.9313 347.3138,32.175 Q347.0138,32.5313 346.5356,32.7281 Q345.9075,33 345.1388,33 Q344.2388,33 343.5169,32.6438 Q342.9356,32.3625 342.5231,31.7531 Q342.12,31.1437 342.12,30.4219 L342.12,29.7656 Q342.12,29.0156 342.4763,28.3594 Q342.8419,27.7031 343.47,27.3563 Q344.1075,27 344.82,27 Q345.2513,27 345.6263,27.15 Q346.0013,27.3 346.32,27.6 Z " fill="#000000"/><text fill="#000000" font-family="sans-serif" font-size="8.4" lengthAdjust="spacing" textLength="54.6" x="354.48" y="33.1371">CSVConverter</text><line style="stroke:#181818;stroke-width:0.3;" x1="332.4" x2="414.6" y1="39.3" y2="39.3"/><ellipse cx="338.4" cy="45.9" fill="none" rx="1.8" ry="1.8" style="stroke:#038048;stroke-width:0.6;"/><text fill="#000000" font-family="sans-serif" font-size="8.4" lengthAdjust="spacing" textLength="67.8" x="343.8" y="50.4199">readInfoFromCSV</text><ellipse cx="338.4" cy="56.4656" fill="none" rx="1.8" ry="1.8" style="stroke:#038048;stroke-width:0.6;"/><text fill="#000000" font-family="sans-serif" font-size="8.4" lengthAdjust="spacing" textLength="65.4" x="343.8" y="60.9855">arrayListToMatrix</text><ellipse cx="338.4" cy="67.0313" fill="none" rx="1.8" ry="1.8" style="stroke:#038048;stroke-width:0.6;"/><text fill="#000000" font-family="sans-serif" font-size="8.4" lengthAdjust="spacing" textLength="45" x="343.8" y="71.5512">isDateInSlot</text></g><!--MD5=[465365cd620d847ca8631866d6b5253e]
class DateParser--><g id="elem_DateParser"><rect codeLine="13" fill="#F1F1F1" height="55.6969" id="DateParser" rx="1.5" ry="1.5" style="stroke:#181818;stroke-width:0.3;" width="82.8" x="477" y="20.1"/><ellipse cx="495.18" cy="29.7" fill="#ADD1B2" rx="6.6" ry="6.6" style="stroke:#181818;stroke-width:0.6;"/><path d="M496.38,27.6 Q496.5019,27.3 496.6425,27.15 Q496.7831,27 496.9425,27 Q497.2237,27 497.4019,27.1688 Q497.58,27.3375 497.58,27.7313 L497.58,28.6688 Q497.58,29.0625 497.4112,29.2313 Q497.2425,29.4 496.98,29.4 Q496.7456,29.4 496.5956,29.2969 Q496.4456,29.1937 496.38,28.9219 Q496.3519,28.7344 496.2488,28.6312 Q496.0613,28.4344 495.7237,28.3219 Q495.3862,28.2 495.0487,28.2 Q494.6269,28.2 494.2706,28.3688 Q493.9237,28.5375 493.6519,28.9125 Q493.38,29.2875 493.38,29.8031 L493.38,30.3563 Q493.38,30.975 493.8862,31.3875 Q494.3925,31.8 495.2925,31.8 Q495.8269,31.8 496.2019,31.6781 Q496.4175,31.6125 496.6612,31.3969 Q496.8206,31.275 496.905,31.2375 Q496.9894,31.2 497.0925,31.2 Q497.2894,31.2 497.43,31.3594 Q497.58,31.5094 497.58,31.725 Q497.58,31.9313 497.3738,32.175 Q497.0737,32.5313 496.5956,32.7281 Q495.9675,33 495.1987,33 Q494.2987,33 493.5769,32.6438 Q492.9956,32.3625 492.5831,31.7531 Q492.18,31.1437 492.18,30.4219 L492.18,29.7656 Q492.18,29.0156 492.5362,28.3594 Q492.9019,27.7031 493.53,27.3563 Q494.1675,27 494.88,27 Q495.3113,27 495.6863,27.15 Q496.0613,27.3 496.38,27.6 Z " fill="#000000"/><text fill="#000000" font-family="sans-serif" font-size="8.4" lengthAdjust="spacing" textLength="43.2" x="505.62" y="33.1371">DateParser</text><line style="stroke:#181818;stroke-width:0.3;" x1="477.6" x2="559.2" y1="39.3" y2="39.3"/><rect fill="none" height="3.6" style="stroke:#C82930;stroke-width:0.6;" width="3.6" x="481.8" y="44.1"/><text fill="#000000" font-family="sans-serif" font-size="8.4" lengthAdjust="spacing" textLength="11.4" x="489" y="50.4199">sdf</text><ellipse cx="483.6" cy="56.4656" fill="none" rx="1.8" ry="1.8" style="stroke:#038048;stroke-width:0.6;"/><text fill="#000000" font-family="sans-serif" font-size="8.4" lengthAdjust="spacing" textLength="61.8" x="489" y="60.9855">dateToCalendar</text><ellipse cx="483.6" cy="67.0313" fill="none" rx="1.8" ry="1.8" style="stroke:#038048;stroke-width:0.6;"/><text fill="#000000" font-family="sans-serif" font-size="8.4" lengthAdjust="spacing" textLength="67.2" x="489" y="71.5512">StringToCalendar</text></g><!--MD5=[26f9beb458137f9fc2cf19f44bf4093d]
class CenterPerformanceUI--><g id="elem_CenterPerformanceUI"><rect codeLine="19" fill="#F1F1F1" height="87.3938" id="CenterPerformanceUI" rx="1.5" ry="1.5" style="stroke:#181818;stroke-width:0.3;" width="123.6" x="4.2" y="4.2"/><ellipse cx="23.46" cy="13.8" fill="#ADD1B2" rx="6.6" ry="6.6" style="stroke:#181818;stroke-width:0.6;"/><path d="M24.66,11.7 Q24.7819,11.4 24.9225,11.25 Q25.0631,11.1 25.2225,11.1 Q25.5038,11.1 25.6819,11.2687 Q25.86,11.4375 25.86,11.8312 L25.86,12.7687 Q25.86,13.1625 25.6913,13.3312 Q25.5225,13.5 25.26,13.5 Q25.0256,13.5 24.8756,13.3969 Q24.7256,13.2938 24.66,13.0219 Q24.6319,12.8344 24.5288,12.7313 Q24.3413,12.5344 24.0038,12.4219 Q23.6663,12.3 23.3288,12.3 Q22.9069,12.3 22.5506,12.4688 Q22.2038,12.6375 21.9319,13.0125 Q21.66,13.3875 21.66,13.9031 L21.66,14.4562 Q21.66,15.075 22.1663,15.4875 Q22.6725,15.9 23.5725,15.9 Q24.1069,15.9 24.4819,15.7781 Q24.6975,15.7125 24.9413,15.4969 Q25.1006,15.375 25.185,15.3375 Q25.2694,15.3 25.3725,15.3 Q25.5694,15.3 25.71,15.4594 Q25.86,15.6094 25.86,15.825 Q25.86,16.0313 25.6538,16.275 Q25.3538,16.6312 24.8756,16.8281 Q24.2475,17.1 23.4788,17.1 Q22.5788,17.1 21.8569,16.7438 Q21.2756,16.4625 20.8631,15.8531 Q20.46,15.2437 20.46,14.5219 L20.46,13.8656 Q20.46,13.1156 20.8163,12.4594 Q21.1819,11.8031 21.81,11.4562 Q22.4475,11.1 23.16,11.1 Q23.5913,11.1 23.9663,11.25 Q24.3413,11.4 24.66,11.7 Z " fill="#000000"/><text fill="#000000" font-family="sans-serif" font-size="8.4" lengthAdjust="spacing" textLength="81.6" x="34.14" y="17.2371">CenterPerformanceUI</text><line style="stroke:#181818;stroke-width:0.3;" x1="4.8" x2="127.2" y1="23.4" y2="23.4"/><rect fill="none" height="3.6" style="stroke:#C82930;stroke-width:0.6;" width="3.6" x="9" y="28.2"/><text fill="#000000" font-family="sans-serif" font-size="8.4" lengthAdjust="spacing" textLength="32.4" x="16.2" y="34.5199">fileName</text><rect fill="none" height="3.6" style="stroke:#C82930;stroke-width:0.6;" width="3.6" x="9" y="38.7656"/><text fill="#000000" font-family="sans-serif" font-size="8.4" lengthAdjust="spacing" textLength="6.6" x="16.2" y="45.0855">m</text><ellipse cx="10.8" cy="51.1313" fill="none" rx="1.8" ry="1.8" style="stroke:#038048;stroke-width:0.6;"/><text fill="#000000" font-family="sans-serif" font-size="8.4" lengthAdjust="spacing" textLength="108" x="16.2" y="55.6512">validateTimeIntervalDuration</text><ellipse cx="10.8" cy="61.6969" fill="none" rx="1.8" ry="1.8" style="stroke:#038048;stroke-width:0.6;"/><text fill="#000000" font-family="sans-serif" font-size="8.4" lengthAdjust="spacing" textLength="44.4" x="16.2" y="66.2168">askFilePath</text><ellipse cx="10.8" cy="72.2625" fill="none" rx="1.8" ry="1.8" style="stroke:#038048;stroke-width:0.6;"/><text fill="#000000" font-family="sans-serif" font-size="8.4" lengthAdjust="spacing" textLength="61.2" x="16.2" y="76.7824">askConfirmation</text><ellipse cx="10.8" cy="82.8281" fill="none" rx="1.8" ry="1.8" style="stroke:#038048;stroke-width:0.6;"/><text fill="#000000" font-family="sans-serif" font-size="8.4" lengthAdjust="spacing" textLength="108" x="16.2" y="87.348">validateTimeIntervalDuration</text></g><!--MD5=[6aadb29febf9004b2ba3a725a6d0a9fc]
class CenterPerformanceController--><g id="elem_CenterPerformanceController"><rect codeLine="29" fill="#F1F1F1" height="55.6969" id="CenterPerformanceController" rx="1.5" ry="1.5" style="stroke:#181818;stroke-width:0.3;" width="130.8" x="164.4" y="20.1"/><ellipse cx="173.4" cy="29.7" fill="#ADD1B2" rx="6.6" ry="6.6" style="stroke:#181818;stroke-width:0.6;"/><path d="M174.6,27.6 Q174.7219,27.3 174.8625,27.15 Q175.0031,27 175.1625,27 Q175.4438,27 175.6219,27.1688 Q175.8,27.3375 175.8,27.7313 L175.8,28.6688 Q175.8,29.0625 175.6313,29.2313 Q175.4625,29.4 175.2,29.4 Q174.9656,29.4 174.8156,29.2969 Q174.6656,29.1937 174.6,28.9219 Q174.5719,28.7344 174.4688,28.6312 Q174.2813,28.4344 173.9438,28.3219 Q173.6063,28.2 173.2687,28.2 Q172.8469,28.2 172.4906,28.3688 Q172.1437,28.5375 171.8719,28.9125 Q171.6,29.2875 171.6,29.8031 L171.6,30.3563 Q171.6,30.975 172.1063,31.3875 Q172.6125,31.8 173.5125,31.8 Q174.0469,31.8 174.4219,31.6781 Q174.6375,31.6125 174.8813,31.3969 Q175.0406,31.275 175.125,31.2375 Q175.2094,31.2 175.3125,31.2 Q175.5094,31.2 175.65,31.3594 Q175.8,31.5094 175.8,31.725 Q175.8,31.9313 175.5938,32.175 Q175.2938,32.5313 174.8156,32.7281 Q174.1875,33 173.4188,33 Q172.5187,33 171.7969,32.6438 Q171.2156,32.3625 170.8031,31.7531 Q170.4,31.1437 170.4,30.4219 L170.4,29.7656 Q170.4,29.0156 170.7563,28.3594 Q171.1219,27.7031 171.75,27.3563 Q172.3875,27 173.1,27 Q173.5313,27 173.9063,27.15 Q174.2813,27.3 174.6,27.6 Z " fill="#000000"/><text fill="#000000" font-family="sans-serif" font-size="8.4" lengthAdjust="spacing" textLength="111.6" x="181.8" y="33.1371">CenterPerformanceController</text><line style="stroke:#181818;stroke-width:0.3;" x1="165" x2="294.6" y1="39.3" y2="39.3"/><ellipse cx="171" cy="45.9" fill="none" rx="1.8" ry="1.8" style="stroke:#038048;stroke-width:0.6;"/><text fill="#000000" font-family="sans-serif" font-size="8.4" lengthAdjust="spacing" textLength="54.6" x="176.4" y="50.4199">maxsumsublist</text><ellipse cx="171" cy="56.4656" fill="none" rx="1.8" ry="1.8" style="stroke:#038048;stroke-width:0.6;"/><text fill="#000000" font-family="sans-serif" font-size="8.4" lengthAdjust="spacing" textLength="30.6" x="176.4" y="60.9855">maxsum</text><ellipse cx="171" cy="67.0313" fill="none" rx="1.8" ry="1.8" style="stroke:#038048;stroke-width:0.6;"/><text fill="#000000" font-family="sans-serif" font-size="8.4" lengthAdjust="spacing" textLength="67.8" x="176.4" y="71.5512">readInfoFromCSV</text></g><!--MD5=[7964989bdc8a33b148438c8722fce3e2]
link CenterPerformanceUI to CenterPerformanceController--><g id="link_CenterPerformanceUI_CenterPerformanceController"><path codeLine="37" d="M127.842,48 C138.702,48 150.072,48 161.112,48 " fill="none" id="CenterPerformanceUI-to-CenterPerformanceController" style="stroke:#181818;stroke-width:0.6;stroke-dasharray:7.0,7.0;"/><polygon fill="#181818" points="164.214,48,158.814,45.6,161.214,48,158.814,50.4,164.214,48" style="stroke:#181818;stroke-width:0.6;"/></g><!--MD5=[bed4fe30e3382c9e54dc054f4af3cdd2]
link CenterPerformanceController to CSVConverter--><g id="link_CenterPerformanceController_CSVConverter"><path codeLine="38" d="M295.392,48 C306.57,48 317.952,48 328.434,48 " fill="none" id="CenterPerformanceController-to-CSVConverter" style="stroke:#181818;stroke-width:0.6;stroke-dasharray:7.0,7.0;"/><polygon fill="#181818" points="331.656,48,326.256,45.6,328.656,48,326.256,50.4,331.656,48" style="stroke:#181818;stroke-width:0.6;"/><text fill="#000000" font-family="sans-serif" font-size="7.8" lengthAdjust="spacing" textLength="3" x="299.8997" y="56.4301">*</text><text fill="#000000" font-family="sans-serif" font-size="7.8" lengthAdjust="spacing" textLength="4.2" x="322.9243" y="56.6083">1</text></g><!--MD5=[e487b417b7aca6ba19343efe095402c3]
link CSVConverter to DateParser--><g id="link_CSVConverter_DateParser"><path codeLine="39" d="M415.278,48 C433.548,48 455.07,48 473.664,48 " fill="none" id="CSVConverter-to-DateParser" style="stroke:#181818;stroke-width:0.6;"/><polygon fill="#181818" points="476.862,48,471.462,45.6,473.862,48,471.462,50.4,476.862,48" style="stroke:#181818;stroke-width:0.6;"/><polygon fill="#000000" points="439.2,42.7055,433.7729,40.9421,433.7729,44.4688,439.2,42.7055" style="stroke:#000000;stroke-width:0.6;"/><text fill="#000000" font-family="sans-serif" font-size="7.8" lengthAdjust="spacing" textLength="16.8" x="441.6" y="45.8971">uses</text><text fill="#000000" font-family="sans-serif" font-size="7.8" lengthAdjust="spacing" textLength="3" x="420.0115" y="56.6392">*</text><text fill="#000000" font-family="sans-serif" font-size="7.8" lengthAdjust="spacing" textLength="4.2" x="467.8891" y="56.6392">1</text></g><!--MD5=[c2d00c18e3d16a23b50355297137da4c]
@startuml
'https://plantuml.com/sequence-diagram

hide empty members
left to right direction

 class CSVConverter{
 +readInfoFromCSV
 +arrayListToMatrix
 +isDateInSlot

 }

 class DateParser{
 -sdf
+dateToCalendar
+StringToCalendar
 }

 class CenterPerformanceUI{
 -fileName
 - m
 +validateTimeIntervalDuration
 +askFilePath
 +askConfirmation
 +validateTimeIntervalDuration
 }


 class CenterPerformanceController{
  +maxsumsublist
  +maxsum
  +readInfoFromCSV
  }



 CenterPerformanceUI ..> CenterPerformanceController
 CenterPerformanceController "*" ..> "1" CSVConverter
 CSVConverter "*" - -> "1" DateParser: uses >

@enduml

@startuml

hide empty members
left to right direction

 class CSVConverter{
 +readInfoFromCSV
 +arrayListToMatrix
 +isDateInSlot

 }

 class DateParser{
 -sdf
+dateToCalendar
+StringToCalendar
 }

 class CenterPerformanceUI{
 -fileName
 - m
 +validateTimeIntervalDuration
 +askFilePath
 +askConfirmation
 +validateTimeIntervalDuration
 }


 class CenterPerformanceController{
  +maxsumsublist
  +maxsum
  +readInfoFromCSV
  }



 CenterPerformanceUI ..> CenterPerformanceController
 CenterPerformanceController "*" ..> "1" CSVConverter
 CSVConverter "*" - -> "1" DateParser: uses >

@enduml

PlantUML version 1.2022.4(Sat Apr 09 14:29:17 BST 2022)
(GPL source distribution)
Java Runtime: OpenJDK Runtime Environment
JVM: OpenJDK 64-Bit Server VM
Default Encoding: Cp1252
Language: pt
Country: PT
--></g></svg>