<?xml version="1.0" encoding="UTF-8" standalone="no"?><svg xmlns="http://www.w3.org/2000/svg" xmlns:xlink="http://www.w3.org/1999/xlink" contentStyleType="text/css" height="159px" preserveAspectRatio="none" style="width:940px;height:159px;background:#FFFFFF;" version="1.1" viewBox="0 0 940 159" width="940px" zoomAndPan="magnify"><defs/><g><!--MD5=[596a3fce02c22add433194d296df65d0]
class CSVConverter--><g id="elem_CSVConverter"><rect codeLine="6" fill="#F1F1F1" height="110.4375" id="CSVConverter" rx="2.5" ry="2.5" style="stroke:#181818;stroke-width:0.5;" width="139" x="553" y="25"/><ellipse cx="575.2" cy="41" fill="#ADD1B2" rx="11" ry="11" style="stroke:#181818;stroke-width:1.0;"/><path d="M577.2,37.5 Q577.4031,37 577.6375,36.75 Q577.8719,36.5 578.1375,36.5 Q578.6063,36.5 578.9031,36.7813 Q579.2,37.0625 579.2,37.7188 L579.2,39.2813 Q579.2,39.9375 578.9188,40.2188 Q578.6375,40.5 578.2,40.5 Q577.8094,40.5 577.5594,40.3281 Q577.3094,40.1563 577.2,39.7031 Q577.1531,39.3906 576.9813,39.2188 Q576.6688,38.8906 576.1063,38.7031 Q575.5438,38.5 574.9813,38.5 Q574.2781,38.5 573.6844,38.7813 Q573.1063,39.0625 572.6531,39.6875 Q572.2,40.3125 572.2,41.1719 L572.2,42.0938 Q572.2,43.125 573.0438,43.8125 Q573.8875,44.5 575.3875,44.5 Q576.2781,44.5 576.9031,44.2969 Q577.2625,44.1875 577.6688,43.8281 Q577.9344,43.625 578.075,43.5625 Q578.2156,43.5 578.3875,43.5 Q578.7156,43.5 578.95,43.7656 Q579.2,44.0156 579.2,44.375 Q579.2,44.7188 578.8563,45.125 Q578.3563,45.7188 577.5594,46.0469 Q576.5125,46.5 575.2313,46.5 Q573.7313,46.5 572.5281,45.9063 Q571.5594,45.4375 570.8719,44.4219 Q570.2,43.4063 570.2,42.2031 L570.2,41.1094 Q570.2,39.8594 570.7938,38.7656 Q571.4031,37.6719 572.45,37.0938 Q573.5125,36.5 574.7,36.5 Q575.4188,36.5 576.0438,36.75 Q576.6688,37 577.2,37.5 Z " fill="#000000"/><text fill="#000000" font-family="sans-serif" font-size="14" lengthAdjust="spacing" textLength="91" x="590.8" y="46.7285">CSVConverter</text><line style="stroke:#181818;stroke-width:0.5;" x1="554" x2="691" y1="57" y2="57"/><ellipse cx="564" cy="68" fill="none" rx="3" ry="3" style="stroke:#038048;stroke-width:1.0;"/><text fill="#000000" font-family="sans-serif" font-size="14" lengthAdjust="spacing" textLength="113" x="573" y="75.5332">readInfoFromCSV</text><ellipse cx="564" cy="85.6094" fill="none" rx="3" ry="3" style="stroke:#038048;stroke-width:1.0;"/><text fill="#000000" font-family="sans-serif" font-size="14" lengthAdjust="spacing" textLength="109" x="573" y="93.1426">arrayListToMatrix</text><ellipse cx="564" cy="103.2188" fill="none" rx="3" ry="3" style="stroke:#038048;stroke-width:1.0;"/><text fill="#000000" font-family="sans-serif" font-size="14" lengthAdjust="spacing" textLength="75" x="573" y="110.752">isDateInSlot</text><ellipse cx="564" cy="120.8281" fill="none" rx="3" ry="3" style="stroke:#038048;stroke-width:1.0;"/><text fill="#000000" font-family="sans-serif" font-size="14" lengthAdjust="spacing" textLength="50" x="573" y="128.3613">timeSlot</text></g><!--MD5=[465365cd620d847ca8631866d6b5253e]
class DateParser--><g id="elem_DateParser"><rect codeLine="13" fill="#F1F1F1" height="92.8281" id="DateParser" rx="2.5" ry="2.5" style="stroke:#181818;stroke-width:0.5;" width="138" x="795" y="33.5"/><ellipse cx="825.3" cy="49.5" fill="#ADD1B2" rx="11" ry="11" style="stroke:#181818;stroke-width:1.0;"/><path d="M827.3,46 Q827.5031,45.5 827.7375,45.25 Q827.9719,45 828.2375,45 Q828.7063,45 829.0031,45.2813 Q829.3,45.5625 829.3,46.2188 L829.3,47.7813 Q829.3,48.4375 829.0188,48.7188 Q828.7375,49 828.3,49 Q827.9094,49 827.6594,48.8281 Q827.4094,48.6563 827.3,48.2031 Q827.2531,47.8906 827.0813,47.7188 Q826.7688,47.3906 826.2063,47.2031 Q825.6438,47 825.0813,47 Q824.3781,47 823.7844,47.2813 Q823.2063,47.5625 822.7531,48.1875 Q822.3,48.8125 822.3,49.6719 L822.3,50.5938 Q822.3,51.625 823.1438,52.3125 Q823.9875,53 825.4875,53 Q826.3781,53 827.0031,52.7969 Q827.3625,52.6875 827.7688,52.3281 Q828.0344,52.125 828.175,52.0625 Q828.3156,52 828.4875,52 Q828.8156,52 829.05,52.2656 Q829.3,52.5156 829.3,52.875 Q829.3,53.2188 828.9563,53.625 Q828.4563,54.2188 827.6594,54.5469 Q826.6125,55 825.3313,55 Q823.8313,55 822.6281,54.4063 Q821.6594,53.9375 820.9719,52.9219 Q820.3,51.9063 820.3,50.7031 L820.3,49.6094 Q820.3,48.3594 820.8938,47.2656 Q821.5031,46.1719 822.55,45.5938 Q823.6125,45 824.8,45 Q825.5188,45 826.1438,45.25 Q826.7688,45.5 827.3,46 Z " fill="#000000"/><text fill="#000000" font-family="sans-serif" font-size="14" lengthAdjust="spacing" textLength="72" x="842.7" y="55.2285">DateParser</text><line style="stroke:#181818;stroke-width:0.5;" x1="796" x2="932" y1="65.5" y2="65.5"/><rect fill="none" height="6" style="stroke:#C82930;stroke-width:1.0;" width="6" x="803" y="73.5"/><text fill="#000000" font-family="sans-serif" font-size="14" lengthAdjust="spacing" textLength="19" x="815" y="84.0332">sdf</text><ellipse cx="806" cy="94.1094" fill="none" rx="3" ry="3" style="stroke:#038048;stroke-width:1.0;"/><text fill="#000000" font-family="sans-serif" font-size="14" lengthAdjust="spacing" textLength="103" x="815" y="101.6426">dateToCalendar</text><ellipse cx="806" cy="111.7188" fill="none" rx="3" ry="3" style="stroke:#038048;stroke-width:1.0;"/><text fill="#000000" font-family="sans-serif" font-size="14" lengthAdjust="spacing" textLength="112" x="815" y="119.252">StringToCalendar</text></g><!--MD5=[26f9beb458137f9fc2cf19f44bf4093d]
class CenterPerformanceUI--><g id="elem_CenterPerformanceUI"><rect codeLine="19" fill="#F1F1F1" height="145.6563" id="CenterPerformanceUI" rx="2.5" ry="2.5" style="stroke:#181818;stroke-width:0.5;" width="206" x="7" y="7"/><ellipse cx="39.1" cy="23" fill="#ADD1B2" rx="11" ry="11" style="stroke:#181818;stroke-width:1.0;"/><path d="M41.1,19.5 Q41.3031,19 41.5375,18.75 Q41.7719,18.5 42.0375,18.5 Q42.5063,18.5 42.8031,18.7813 Q43.1,19.0625 43.1,19.7188 L43.1,21.2813 Q43.1,21.9375 42.8188,22.2188 Q42.5375,22.5 42.1,22.5 Q41.7094,22.5 41.4594,22.3281 Q41.2094,22.1563 41.1,21.7031 Q41.0531,21.3906 40.8813,21.2188 Q40.5688,20.8906 40.0063,20.7031 Q39.4438,20.5 38.8813,20.5 Q38.1781,20.5 37.5844,20.7813 Q37.0063,21.0625 36.5531,21.6875 Q36.1,22.3125 36.1,23.1719 L36.1,24.0938 Q36.1,25.125 36.9438,25.8125 Q37.7875,26.5 39.2875,26.5 Q40.1781,26.5 40.8031,26.2969 Q41.1625,26.1875 41.5688,25.8281 Q41.8344,25.625 41.975,25.5625 Q42.1156,25.5 42.2875,25.5 Q42.6156,25.5 42.85,25.7656 Q43.1,26.0156 43.1,26.375 Q43.1,26.7188 42.7563,27.125 Q42.2563,27.7188 41.4594,28.0469 Q40.4125,28.5 39.1313,28.5 Q37.6313,28.5 36.4281,27.9063 Q35.4594,27.4375 34.7719,26.4219 Q34.1,25.4063 34.1,24.2031 L34.1,23.1094 Q34.1,21.8594 34.6938,20.7656 Q35.3031,19.6719 36.35,19.0938 Q37.4125,18.5 38.6,18.5 Q39.3188,18.5 39.9438,18.75 Q40.5688,19 41.1,19.5 Z " fill="#000000"/><text fill="#000000" font-family="sans-serif" font-size="14" lengthAdjust="spacing" textLength="136" x="56.9" y="28.7285">CenterPerformanceUI</text><line style="stroke:#181818;stroke-width:0.5;" x1="8" x2="212" y1="39" y2="39"/><rect fill="none" height="6" style="stroke:#C82930;stroke-width:1.0;" width="6" x="15" y="47"/><text fill="#000000" font-family="sans-serif" font-size="14" lengthAdjust="spacing" textLength="54" x="27" y="57.5332">fileName</text><rect fill="none" height="6" style="stroke:#C82930;stroke-width:1.0;" width="6" x="15" y="64.6094"/><text fill="#000000" font-family="sans-serif" font-size="14" lengthAdjust="spacing" textLength="11" x="27" y="75.1426">m</text><ellipse cx="18" cy="85.2188" fill="none" rx="3" ry="3" style="stroke:#038048;stroke-width:1.0;"/><text fill="#000000" font-family="sans-serif" font-size="14" lengthAdjust="spacing" textLength="180" x="27" y="92.752">validateTimeIntervalDuration</text><ellipse cx="18" cy="102.8281" fill="none" rx="3" ry="3" style="stroke:#038048;stroke-width:1.0;"/><text fill="#000000" font-family="sans-serif" font-size="14" lengthAdjust="spacing" textLength="74" x="27" y="110.3613">askFilePath</text><ellipse cx="18" cy="120.4375" fill="none" rx="3" ry="3" style="stroke:#038048;stroke-width:1.0;"/><text fill="#000000" font-family="sans-serif" font-size="14" lengthAdjust="spacing" textLength="102" x="27" y="127.9707">askConfirmation</text><ellipse cx="18" cy="138.0469" fill="none" rx="3" ry="3" style="stroke:#038048;stroke-width:1.0;"/><text fill="#000000" font-family="sans-serif" font-size="14" lengthAdjust="spacing" textLength="180" x="27" y="145.5801">validateTimeIntervalDuration</text></g><!--MD5=[6aadb29febf9004b2ba3a725a6d0a9fc]
class CenterPerformanceController--><g id="elem_CenterPerformanceController"><rect codeLine="29" fill="#F1F1F1" height="110.4375" id="CenterPerformanceController" rx="2.5" ry="2.5" style="stroke:#181818;stroke-width:0.5;" width="218" x="274" y="25"/><ellipse cx="289" cy="41" fill="#ADD1B2" rx="11" ry="11" style="stroke:#181818;stroke-width:1.0;"/><path d="M291,37.5 Q291.2031,37 291.4375,36.75 Q291.6719,36.5 291.9375,36.5 Q292.4063,36.5 292.7031,36.7813 Q293,37.0625 293,37.7188 L293,39.2813 Q293,39.9375 292.7188,40.2188 Q292.4375,40.5 292,40.5 Q291.6094,40.5 291.3594,40.3281 Q291.1094,40.1563 291,39.7031 Q290.9531,39.3906 290.7813,39.2188 Q290.4688,38.8906 289.9063,38.7031 Q289.3438,38.5 288.7813,38.5 Q288.0781,38.5 287.4844,38.7813 Q286.9063,39.0625 286.4531,39.6875 Q286,40.3125 286,41.1719 L286,42.0938 Q286,43.125 286.8438,43.8125 Q287.6875,44.5 289.1875,44.5 Q290.0781,44.5 290.7031,44.2969 Q291.0625,44.1875 291.4688,43.8281 Q291.7344,43.625 291.875,43.5625 Q292.0156,43.5 292.1875,43.5 Q292.5156,43.5 292.75,43.7656 Q293,44.0156 293,44.375 Q293,44.7188 292.6563,45.125 Q292.1563,45.7188 291.3594,46.0469 Q290.3125,46.5 289.0313,46.5 Q287.5313,46.5 286.3281,45.9063 Q285.3594,45.4375 284.6719,44.4219 Q284,43.4063 284,42.2031 L284,41.1094 Q284,39.8594 284.5938,38.7656 Q285.2031,37.6719 286.25,37.0938 Q287.3125,36.5 288.5,36.5 Q289.2188,36.5 289.8438,36.75 Q290.4688,37 291,37.5 Z " fill="#000000"/><text fill="#000000" font-family="sans-serif" font-size="14" lengthAdjust="spacing" textLength="186" x="303" y="46.7285">CenterPerformanceController</text><line style="stroke:#181818;stroke-width:0.5;" x1="275" x2="491" y1="57" y2="57"/><ellipse cx="285" cy="68" fill="none" rx="3" ry="3" style="stroke:#038048;stroke-width:1.0;"/><text fill="#000000" font-family="sans-serif" font-size="14" lengthAdjust="spacing" textLength="91" x="294" y="75.5332">maxsumsublist</text><ellipse cx="285" cy="85.6094" fill="none" rx="3" ry="3" style="stroke:#038048;stroke-width:1.0;"/><text fill="#000000" font-family="sans-serif" font-size="14" lengthAdjust="spacing" textLength="51" x="294" y="93.1426">maxsum</text><ellipse cx="285" cy="103.2188" fill="none" rx="3" ry="3" style="stroke:#038048;stroke-width:1.0;"/><text fill="#000000" font-family="sans-serif" font-size="14" lengthAdjust="spacing" textLength="113" x="294" y="110.752">readInfoFromCSV</text><ellipse cx="285" cy="120.8281" fill="none" rx="3" ry="3" style="stroke:#038048;stroke-width:1.0;"/><text fill="#000000" font-family="sans-serif" font-size="14" lengthAdjust="spacing" textLength="129" x="294" y="128.3613">timeIntervalOfSublist</text></g><!--MD5=[3472b8f2fa33a24679a733c9b9bbf001]
reverse link CenterPerformanceUI to CenterPerformanceController--><g id="link_CenterPerformanceUI_CenterPerformanceController"><path codeLine="38" d="M218.19,80 C236.45,80 255.41,80 273.69,80 " fill="none" id="CenterPerformanceUI-backto-CenterPerformanceController" style="stroke:#181818;stroke-width:1.0;stroke-dasharray:7.0,7.0;"/><polygon fill="#181818" points="213.07,80,222.07,84,218.07,80,222.07,76,213.07,80" style="stroke:#181818;stroke-width:1.0;"/></g><!--MD5=[ab7f6a6a4ce6fd909f84b797cc4835c9]
reverse link CenterPerformanceController to CSVConverter--><g id="link_CenterPerformanceController_CSVConverter"><path codeLine="39" d="M497.63,80 C516.47,80 535.48,80 552.76,80 " fill="none" id="CenterPerformanceController-backto-CSVConverter" style="stroke:#181818;stroke-width:1.0;stroke-dasharray:7.0,7.0;"/><polygon fill="#181818" points="492.32,80,501.32,84,497.32,80,501.32,76,492.32,80" style="stroke:#181818;stroke-width:1.0;"/><text fill="#000000" font-family="sans-serif" font-size="13" lengthAdjust="spacing" textLength="5" x="499.8329" y="94.0297">*</text><text fill="#000000" font-family="sans-serif" font-size="13" lengthAdjust="spacing" textLength="7" x="538.2071" y="94.3157">1</text></g><!--MD5=[7ac3543585275a94db2dc7dd6a789a45]
reverse link CSVConverter to DateParser--><g id="link_CSVConverter_DateParser"><path codeLine="40" d="M697.47,80 C728.51,80 764.38,80 794.77,80 " fill="none" id="CSVConverter-backto-DateParser" style="stroke:#181818;stroke-width:1.0;"/><polygon fill="#181818" points="692.13,80,701.13,84,697.13,80,701.13,76,692.13,80" style="stroke:#181818;stroke-width:1.0;"/><polygon fill="#000000" points="732,71.1758,722.9549,68.2369,722.9549,74.1147,732,71.1758" style="stroke:#000000;stroke-width:1.0;"/><text fill="#000000" font-family="sans-serif" font-size="13" lengthAdjust="spacing" textLength="28" x="736" y="76.4951">uses</text><text fill="#000000" font-family="sans-serif" font-size="13" lengthAdjust="spacing" textLength="5" x="700.0192" y="94.3654">*</text><text fill="#000000" font-family="sans-serif" font-size="13" lengthAdjust="spacing" textLength="7" x="779.8152" y="94.3987">1</text></g><!--MD5=[4d21da150c65306673481cd570aaf703]
@startuml
'https://plantuml.com/sequence-diagram

hide empty members
left to right direction

 class CSVConverter{
 +readInfoFromCSV
 +arrayListToMatrix
 +isDateInSlot
+timeSlot
 }

 class DateParser{
 -sdf
+dateToCalendar
+StringToCalendar
 }

 class CenterPerformanceUI{
 -fileName
 - m
 +validateTimeIntervalDuration
 +askFilePath
 +askConfirmation
 +validateTimeIntervalDuration
 }


 class CenterPerformanceController{
  +maxsumsublist
  +maxsum
  +readInfoFromCSV
  +timeIntervalOfSublist
  }



 CenterPerformanceUI <.. CenterPerformanceController
 CenterPerformanceController "*" <.. "1" CSVConverter
 CSVConverter "*" <- - "1" DateParser: uses >

@enduml

@startuml

hide empty members
left to right direction

 class CSVConverter{
 +readInfoFromCSV
 +arrayListToMatrix
 +isDateInSlot
+timeSlot
 }

 class DateParser{
 -sdf
+dateToCalendar
+StringToCalendar
 }

 class CenterPerformanceUI{
 -fileName
 - m
 +validateTimeIntervalDuration
 +askFilePath
 +askConfirmation
 +validateTimeIntervalDuration
 }


 class CenterPerformanceController{
  +maxsumsublist
  +maxsum
  +readInfoFromCSV
  +timeIntervalOfSublist
  }



 CenterPerformanceUI <.. CenterPerformanceController
 CenterPerformanceController "*" <.. "1" CSVConverter
 CSVConverter "*" <- - "1" DateParser: uses >

@enduml

PlantUML version 1.2022.4(Sat Apr 09 14:29:17 BST 2022)
(GPL source distribution)
Java Runtime: OpenJDK Runtime Environment
JVM: OpenJDK 64-Bit Server VM
Default Encoding: Cp1252
Language: pt
Country: PT
--></g></svg>