<?xml version="1.0" encoding="UTF-8" standalone="no"?><svg xmlns="http://www.w3.org/2000/svg" xmlns:xlink="http://www.w3.org/1999/xlink" contentStyleType="text/css" height="292.8px" preserveAspectRatio="none" style="width:262px;height:292px;background:#FFFFFF;" version="1.1" viewBox="0 0 262 292" width="262.2px" zoomAndPan="magnify"><defs/><g><rect fill="#FFFFFF" height="182.7094" style="stroke:#181818;stroke-width:0.6;" width="6" x="37.2" y="55.5656"/><rect fill="#FFFFFF" height="18.2109" style="stroke:#181818;stroke-width:0.6;" width="6" x="236.4" y="68.9766"/><rect fill="#FFFFFF" height="18.2109" style="stroke:#181818;stroke-width:0.6;" width="6" x="236.4" y="105.3984"/><rect fill="#FFFFFF" height="18.2109" style="stroke:#181818;stroke-width:0.6;" width="6" x="236.4" y="141.8203"/><rect fill="#FFFFFF" height="60.0328" style="stroke:#181818;stroke-width:0.6;" width="6" x="236.4" y="178.2422"/><rect fill="#FFFFFF" height="23.6109" style="stroke:#181818;stroke-width:0.6;" width="6" x="239.4" y="214.6641"/><line style="stroke:#181818;stroke-width:0.3;stroke-dasharray:5.0,5.0;" x1="40.2" x2="40.2" y1="49.5656" y2="243.675"/><line style="stroke:#181818;stroke-width:0.3;stroke-dasharray:5.0,5.0;" x1="239.4" x2="239.4" y1="49.5656" y2="243.675"/><text fill="#000000" font-family="sans-serif" font-size="8.4" lengthAdjust="spacing" textLength="70.8" x="3" y="47.7199">CenterCoordinator</text><ellipse cx="40.2" cy="8.1" fill="#E2E2F0" rx="4.8" ry="4.8" style="stroke:#181818;stroke-width:0.3;"/><path d="M40.2,12.9 L40.2,29.1 M32.4,17.7 L48,17.7 M40.2,29.1 L32.4,38.1 M40.2,29.1 L48,38.1 " fill="none" style="stroke:#181818;stroke-width:0.3;"/><text fill="#000000" font-family="sans-serif" font-size="8.4" lengthAdjust="spacing" textLength="70.8" x="3" y="251.7949">CenterCoordinator</text><ellipse cx="40.2" cy="258.7406" fill="#E2E2F0" rx="4.8" ry="4.8" style="stroke:#181818;stroke-width:0.3;"/><path d="M40.2,263.5406 L40.2,279.7406 M32.4,268.3406 L48,268.3406 M40.2,279.7406 L32.4,288.7406 M40.2,279.7406 L48,288.7406 " fill="none" style="stroke:#181818;stroke-width:0.3;"/><rect fill="#E2E2F0" height="18.9656" rx="1.5" ry="1.5" style="stroke:#181818;stroke-width:0.3;" width="38.4" x="220.2" y="30"/><text fill="#000000" font-family="sans-serif" font-size="8.4" lengthAdjust="spacing" textLength="30" x="224.4" y="42.9199">:System</text><rect fill="#E2E2F0" height="18.9656" rx="1.5" ry="1.5" style="stroke:#181818;stroke-width:0.3;" width="38.4" x="220.2" y="243.075"/><text fill="#000000" font-family="sans-serif" font-size="8.4" lengthAdjust="spacing" textLength="30" x="224.4" y="255.9949">:System</text><rect fill="#FFFFFF" height="182.7094" style="stroke:#181818;stroke-width:0.6;" width="6" x="37.2" y="55.5656"/><rect fill="#FFFFFF" height="18.2109" style="stroke:#181818;stroke-width:0.6;" width="6" x="236.4" y="68.9766"/><rect fill="#FFFFFF" height="18.2109" style="stroke:#181818;stroke-width:0.6;" width="6" x="236.4" y="105.3984"/><rect fill="#FFFFFF" height="18.2109" style="stroke:#181818;stroke-width:0.6;" width="6" x="236.4" y="141.8203"/><rect fill="#FFFFFF" height="60.0328" style="stroke:#181818;stroke-width:0.6;" width="6" x="236.4" y="178.2422"/><rect fill="#FFFFFF" height="23.6109" style="stroke:#181818;stroke-width:0.6;" width="6" x="239.4" y="214.6641"/><polygon fill="#181818" points="229.2,66.5766,235.2,68.9766,229.2,71.3766,231.6,68.9766" style="stroke:#181818;stroke-width:0.6;"/><line style="stroke:#181818;stroke-width:0.6;" x1="43.2" x2="232.8" y1="68.9766" y2="68.9766"/><text fill="#000000" font-family="sans-serif" font-size="7.8" font-weight="bold" lengthAdjust="spacing" textLength="4.2" x="47.4" y="66.0627">1</text><text fill="#000000" font-family="sans-serif" font-size="7.8" lengthAdjust="spacing" textLength="143.4" x="54" y="66.0627">Loads a CSV file with center performance</text><polygon fill="#181818" points="49.8,84.7875,43.8,87.1875,49.8,89.5875,47.4,87.1875" style="stroke:#181818;stroke-width:0.6;"/><line style="stroke:#181818;stroke-width:0.6;stroke-dasharray:2.0,2.0;" x1="46.2" x2="238.8" y1="87.1875" y2="87.1875"/><text fill="#000000" font-family="sans-serif" font-size="7.8" font-weight="bold" lengthAdjust="spacing" textLength="4.2" x="53.4" y="84.2736">2</text><text fill="#000000" font-family="sans-serif" font-size="7.8" lengthAdjust="spacing" textLength="63.6" x="60" y="84.2736">requests File Path</text><polygon fill="#181818" points="229.2,102.9984,235.2,105.3984,229.2,107.7984,231.6,105.3984" style="stroke:#181818;stroke-width:0.6;"/><line style="stroke:#181818;stroke-width:0.6;" x1="43.2" x2="232.8" y1="105.3984" y2="105.3984"/><text fill="#000000" font-family="sans-serif" font-size="7.8" font-weight="bold" lengthAdjust="spacing" textLength="4.2" x="47.4" y="102.4846">3</text><text fill="#000000" font-family="sans-serif" font-size="7.8" lengthAdjust="spacing" textLength="90.6" x="54" y="102.4846">types File Path  (CSV file)</text><polygon fill="#181818" points="49.8,121.2094,43.8,123.6094,49.8,126.0094,47.4,123.6094" style="stroke:#181818;stroke-width:0.6;"/><line style="stroke:#181818;stroke-width:0.6;stroke-dasharray:2.0,2.0;" x1="46.2" x2="238.8" y1="123.6094" y2="123.6094"/><text fill="#000000" font-family="sans-serif" font-size="7.8" font-weight="bold" lengthAdjust="spacing" textLength="4.2" x="53.4" y="120.6955">4</text><text fill="#000000" font-family="sans-serif" font-size="7.8" lengthAdjust="spacing" textLength="172.2" x="60" y="120.6955">shows the file path and asks for confirmation(Y/N)</text><polygon fill="#181818" points="229.2,139.4203,235.2,141.8203,229.2,144.2203,231.6,141.8203" style="stroke:#181818;stroke-width:0.6;"/><line style="stroke:#181818;stroke-width:0.6;" x1="43.2" x2="232.8" y1="141.8203" y2="141.8203"/><text fill="#000000" font-family="sans-serif" font-size="7.8" font-weight="bold" lengthAdjust="spacing" textLength="4.2" x="47.4" y="138.9064">5</text><text fill="#000000" font-family="sans-serif" font-size="7.8" lengthAdjust="spacing" textLength="58.8" x="54" y="138.9064">confirms file path</text><polygon fill="#181818" points="49.8,157.6313,43.8,160.0313,49.8,162.4313,47.4,160.0313" style="stroke:#181818;stroke-width:0.6;"/><line style="stroke:#181818;stroke-width:0.6;stroke-dasharray:2.0,2.0;" x1="46.2" x2="238.8" y1="160.0313" y2="160.0313"/><text fill="#000000" font-family="sans-serif" font-size="7.8" font-weight="bold" lengthAdjust="spacing" textLength="4.2" x="53.4" y="157.1174">6</text><text fill="#000000" font-family="sans-serif" font-size="7.8" lengthAdjust="spacing" textLength="101.4" x="60" y="157.1174">asks for time interval duration</text><polygon fill="#181818" points="229.2,175.8422,235.2,178.2422,229.2,180.6422,231.6,178.2422" style="stroke:#181818;stroke-width:0.6;"/><line style="stroke:#181818;stroke-width:0.6;" x1="43.2" x2="232.8" y1="178.2422" y2="178.2422"/><text fill="#000000" font-family="sans-serif" font-size="7.8" font-weight="bold" lengthAdjust="spacing" textLength="4.2" x="47.4" y="175.3283">7</text><text fill="#000000" font-family="sans-serif" font-size="7.8" lengthAdjust="spacing" textLength="93" x="54" y="175.3283">types time interval duration</text><polygon fill="#181818" points="49.8,194.0531,43.8,196.4531,49.8,198.8531,47.4,196.4531" style="stroke:#181818;stroke-width:0.6;"/><line style="stroke:#181818;stroke-width:0.6;stroke-dasharray:2.0,2.0;" x1="46.2" x2="235.8" y1="196.4531" y2="196.4531"/><text fill="#000000" font-family="sans-serif" font-size="7.8" font-weight="bold" lengthAdjust="spacing" textLength="4.2" x="53.4" y="193.5393">8</text><text fill="#000000" font-family="sans-serif" font-size="7.8" lengthAdjust="spacing" textLength="129" x="60" y="193.5393">shows data and asks for confirmation</text><polygon fill="#181818" points="232.2,212.2641,238.2,214.6641,232.2,217.0641,234.6,214.6641" style="stroke:#181818;stroke-width:0.6;"/><line style="stroke:#181818;stroke-width:0.6;" x1="43.2" x2="235.8" y1="214.6641" y2="214.6641"/><text fill="#000000" font-family="sans-serif" font-size="7.8" font-weight="bold" lengthAdjust="spacing" textLength="4.2" x="47.4" y="211.7502">9</text><text fill="#000000" font-family="sans-serif" font-size="7.8" lengthAdjust="spacing" textLength="46.8" x="54" y="211.7502">confirms data</text><polygon fill="#181818" points="49.8,230.475,43.8,232.875,49.8,235.275,47.4,232.875" style="stroke:#181818;stroke-width:0.6;"/><line style="stroke:#181818;stroke-width:0.6;stroke-dasharray:2.0,2.0;" x1="46.2" x2="238.8" y1="232.875" y2="232.875"/><text fill="#000000" font-family="sans-serif" font-size="7.8" font-weight="bold" lengthAdjust="spacing" textLength="8.4" x="53.4" y="229.9611">10</text><text fill="#000000" font-family="sans-serif" font-size="7.8" lengthAdjust="spacing" textLength="64.2" x="64.2" y="229.9611">shows final results</text><!--MD5=[61115ac4224f8591d7a0754a5266c215]
@startuml
'https://plantuml.com/sequence-diagram

autonumber
actor CenterCoordinator as cc




activate cc
cc -> ":System" : Loads a CSV file with center performance
activate ":System"
":System" - -> cc : requests File Path
deactivate ":System"

cc -> ":System" : types File Path  (CSV file)
activate ":System"
":System" - -> cc : shows the file path and asks for confirmation(Y/N)
deactivate ":System"

cc -> ":System" : confirms file path
activate ":System"
":System" - -> cc : asks for time interval duration
deactivate ":System"

cc-> ":System" : types time interval duration
activate ":System"
":System" - -> cc : shows data and asks for confirmation

cc-> ":System" : confirms data
activate ":System"
":System" - -> cc : shows final results
@enduml

@startuml

autonumber
actor CenterCoordinator as cc




activate cc
cc -> ":System" : Loads a CSV file with center performance
activate ":System"
":System" - -> cc : requests File Path
deactivate ":System"

cc -> ":System" : types File Path  (CSV file)
activate ":System"
":System" - -> cc : shows the file path and asks for confirmation(Y/N)
deactivate ":System"

cc -> ":System" : confirms file path
activate ":System"
":System" - -> cc : asks for time interval duration
deactivate ":System"

cc-> ":System" : types time interval duration
activate ":System"
":System" - -> cc : shows data and asks for confirmation

cc-> ":System" : confirms data
activate ":System"
":System" - -> cc : shows final results
@enduml

PlantUML version 1.2022.4(Sat Apr 09 14:29:17 BST 2022)
(GPL source distribution)
Java Runtime: OpenJDK Runtime Environment
JVM: OpenJDK 64-Bit Server VM
Default Encoding: Cp1252
Language: pt
Country: PT
--></g></svg>