<?xml version="1.0" encoding="UTF-8" standalone="no"?><svg xmlns="http://www.w3.org/2000/svg" xmlns:xlink="http://www.w3.org/1999/xlink" contentStyleType="text/css" height="187px" preserveAspectRatio="none" style="width:1444px;height:187px;background:#FFFFFF;" version="1.1" viewBox="0 0 1444 187" width="1444px" zoomAndPan="magnify"><defs/><g><!--MD5=[d016f0d119c616841768ca7301f70660]
class VaccineTypeUI--><g id="elem_VaccineTypeUI"><rect codeLine="4" fill="#F1F1F1" height="65.6094" id="VaccineTypeUI" rx="2.5" ry="2.5" style="stroke:#181818;stroke-width:0.5;" width="251" x="7" y="71.5"/><ellipse cx="81.25" cy="87.5" fill="#ADD1B2" rx="11" ry="11" style="stroke:#181818;stroke-width:1.0;"/><path d="M83.25,84 Q83.4531,83.5 83.6875,83.25 Q83.9219,83 84.1875,83 Q84.6563,83 84.9531,83.2813 Q85.25,83.5625 85.25,84.2188 L85.25,85.7813 Q85.25,86.4375 84.9688,86.7188 Q84.6875,87 84.25,87 Q83.8594,87 83.6094,86.8281 Q83.3594,86.6563 83.25,86.2031 Q83.2031,85.8906 83.0313,85.7188 Q82.7188,85.3906 82.1563,85.2031 Q81.5938,85 81.0313,85 Q80.3281,85 79.7344,85.2813 Q79.1563,85.5625 78.7031,86.1875 Q78.25,86.8125 78.25,87.6719 L78.25,88.5938 Q78.25,89.625 79.0938,90.3125 Q79.9375,91 81.4375,91 Q82.3281,91 82.9531,90.7969 Q83.3125,90.6875 83.7188,90.3281 Q83.9844,90.125 84.125,90.0625 Q84.2656,90 84.4375,90 Q84.7656,90 85,90.2656 Q85.25,90.5156 85.25,90.875 Q85.25,91.2188 84.9063,91.625 Q84.4063,92.2188 83.6094,92.5469 Q82.5625,93 81.2813,93 Q79.7813,93 78.5781,92.4063 Q77.6094,91.9375 76.9219,90.9219 Q76.25,89.9063 76.25,88.7031 L76.25,87.6094 Q76.25,86.3594 76.8438,85.2656 Q77.4531,84.1719 78.5,83.5938 Q79.5625,83 80.75,83 Q81.4688,83 82.0938,83.25 Q82.7188,83.5 83.25,84 Z " fill="#000000"/><text fill="#000000" font-family="sans-serif" font-size="14" lengthAdjust="spacing" textLength="94" x="101.75" y="93.2285">VaccineTypeUI</text><line style="stroke:#181818;stroke-width:0.5;" x1="8" x2="257" y1="103.5" y2="103.5"/><text fill="#000000" font-family="sans-serif" font-size="14" lengthAdjust="spacing" textLength="239" x="13" y="122.0332">SpecifyNewVaccineTypeController ctrl</text><line style="stroke:#181818;stroke-width:0.5;" x1="8" x2="257" y1="129.1094" y2="129.1094"/></g><!--MD5=[654b6611eea81d902b04013993589538]
class SpecifyNewVaccineTypeController--><g id="elem_SpecifyNewVaccineTypeController"><rect codeLine="8" fill="#F1F1F1" height="118.4375" id="SpecifyNewVaccineTypeController" rx="2.5" ry="2.5" style="stroke:#181818;stroke-width:0.5;" width="308" x="319" y="45.5"/><ellipse cx="361" cy="61.5" fill="#ADD1B2" rx="11" ry="11" style="stroke:#181818;stroke-width:1.0;"/><path d="M363,58 Q363.2031,57.5 363.4375,57.25 Q363.6719,57 363.9375,57 Q364.4063,57 364.7031,57.2813 Q365,57.5625 365,58.2188 L365,59.7813 Q365,60.4375 364.7188,60.7188 Q364.4375,61 364,61 Q363.6094,61 363.3594,60.8281 Q363.1094,60.6563 363,60.2031 Q362.9531,59.8906 362.7813,59.7188 Q362.4688,59.3906 361.9063,59.2031 Q361.3438,59 360.7813,59 Q360.0781,59 359.4844,59.2813 Q358.9063,59.5625 358.4531,60.1875 Q358,60.8125 358,61.6719 L358,62.5938 Q358,63.625 358.8438,64.3125 Q359.6875,65 361.1875,65 Q362.0781,65 362.7031,64.7969 Q363.0625,64.6875 363.4688,64.3281 Q363.7344,64.125 363.875,64.0625 Q364.0156,64 364.1875,64 Q364.5156,64 364.75,64.2656 Q365,64.5156 365,64.875 Q365,65.2188 364.6563,65.625 Q364.1563,66.2188 363.3594,66.5469 Q362.3125,67 361.0313,67 Q359.5313,67 358.3281,66.4063 Q357.3594,65.9375 356.6719,64.9219 Q356,63.9063 356,62.7031 L356,61.6094 Q356,60.3594 356.5938,59.2656 Q357.2031,58.1719 358.25,57.5938 Q359.3125,57 360.5,57 Q361.2188,57 361.8438,57.25 Q362.4688,57.5 363,58 Z " fill="#000000"/><text fill="#000000" font-family="sans-serif" font-size="14" lengthAdjust="spacing" textLength="216" x="381" y="67.2285">SpecifyNewVaccineTypeController</text><line style="stroke:#181818;stroke-width:0.5;" x1="320" x2="626" y1="77.5" y2="77.5"/><text fill="#000000" font-family="sans-serif" font-size="14" lengthAdjust="spacing" textLength="121" x="325" y="96.0332">Company company</text><text fill="#000000" font-family="sans-serif" font-size="14" lengthAdjust="spacing" textLength="97" x="325" y="113.6426">VaccineType vt</text><line style="stroke:#181818;stroke-width:0.5;" x1="320" x2="626" y1="120.7188" y2="120.7188"/><text fill="#000000" font-family="sans-serif" font-size="14" lengthAdjust="spacing" textLength="296" x="325" y="139.252">+createVaccineType(code, designation, whoId)</text><text fill="#000000" font-family="sans-serif" font-size="14" lengthAdjust="spacing" textLength="160" x="325" y="156.8613">+validateVaccineType(vt)</text></g><!--MD5=[0e501da62322464167c8ec4d233a6b7e]
class VaccineType--><g id="elem_VaccineType"><rect codeLine="15" fill="#F1F1F1" height="100.8281" id="VaccineType" rx="2.5" ry="2.5" style="stroke:#181818;stroke-width:0.5;" width="114" x="1323" y="7"/><ellipse cx="1338" cy="23" fill="#ADD1B2" rx="11" ry="11" style="stroke:#181818;stroke-width:1.0;"/><path d="M1340,19.5 Q1340.2031,19 1340.4375,18.75 Q1340.6719,18.5 1340.9375,18.5 Q1341.4063,18.5 1341.7031,18.7813 Q1342,19.0625 1342,19.7188 L1342,21.2813 Q1342,21.9375 1341.7188,22.2188 Q1341.4375,22.5 1341,22.5 Q1340.6094,22.5 1340.3594,22.3281 Q1340.1094,22.1563 1340,21.7031 Q1339.9531,21.3906 1339.7813,21.2188 Q1339.4688,20.8906 1338.9063,20.7031 Q1338.3438,20.5 1337.7813,20.5 Q1337.0781,20.5 1336.4844,20.7813 Q1335.9063,21.0625 1335.4531,21.6875 Q1335,22.3125 1335,23.1719 L1335,24.0938 Q1335,25.125 1335.8438,25.8125 Q1336.6875,26.5 1338.1875,26.5 Q1339.0781,26.5 1339.7031,26.2969 Q1340.0625,26.1875 1340.4688,25.8281 Q1340.7344,25.625 1340.875,25.5625 Q1341.0156,25.5 1341.1875,25.5 Q1341.5156,25.5 1341.75,25.7656 Q1342,26.0156 1342,26.375 Q1342,26.7188 1341.6563,27.125 Q1341.1563,27.7188 1340.3594,28.0469 Q1339.3125,28.5 1338.0313,28.5 Q1336.5313,28.5 1335.3281,27.9063 Q1334.3594,27.4375 1333.6719,26.4219 Q1333,25.4063 1333,24.2031 L1333,23.1094 Q1333,21.8594 1333.5938,20.7656 Q1334.2031,19.6719 1335.25,19.0938 Q1336.3125,18.5 1337.5,18.5 Q1338.2188,18.5 1338.8438,18.75 Q1339.4688,19 1340,19.5 Z " fill="#000000"/><text fill="#000000" font-family="sans-serif" font-size="14" lengthAdjust="spacing" textLength="82" x="1352" y="28.7285">VaccineType</text><line style="stroke:#181818;stroke-width:0.5;" x1="1324" x2="1436" y1="39" y2="39"/><text fill="#000000" font-family="sans-serif" font-size="14" lengthAdjust="spacing" textLength="36" x="1329" y="57.5332">-code</text><text fill="#000000" font-family="sans-serif" font-size="14" lengthAdjust="spacing" textLength="78" x="1329" y="75.1426">-designation</text><text fill="#000000" font-family="sans-serif" font-size="14" lengthAdjust="spacing" textLength="41" x="1329" y="92.752">-whoId</text><line style="stroke:#181818;stroke-width:0.5;" x1="1324" x2="1436" y1="99.8281" y2="99.8281"/></g><!--MD5=[02e4b9b7573f1156f41e60aa5b4e25a4]
class Company--><g id="elem_Company"><rect codeLine="21" fill="#F1F1F1" height="83.2188" id="Company" rx="2.5" ry="2.5" style="stroke:#181818;stroke-width:0.5;" width="246" x="688" y="63"/><ellipse cx="776.75" cy="79" fill="#ADD1B2" rx="11" ry="11" style="stroke:#181818;stroke-width:1.0;"/><path d="M778.75,75.5 Q778.9531,75 779.1875,74.75 Q779.4219,74.5 779.6875,74.5 Q780.1563,74.5 780.4531,74.7813 Q780.75,75.0625 780.75,75.7188 L780.75,77.2813 Q780.75,77.9375 780.4688,78.2188 Q780.1875,78.5 779.75,78.5 Q779.3594,78.5 779.1094,78.3281 Q778.8594,78.1563 778.75,77.7031 Q778.7031,77.3906 778.5313,77.2188 Q778.2188,76.8906 777.6563,76.7031 Q777.0938,76.5 776.5313,76.5 Q775.8281,76.5 775.2344,76.7813 Q774.6563,77.0625 774.2031,77.6875 Q773.75,78.3125 773.75,79.1719 L773.75,80.0938 Q773.75,81.125 774.5938,81.8125 Q775.4375,82.5 776.9375,82.5 Q777.8281,82.5 778.4531,82.2969 Q778.8125,82.1875 779.2188,81.8281 Q779.4844,81.625 779.625,81.5625 Q779.7656,81.5 779.9375,81.5 Q780.2656,81.5 780.5,81.7656 Q780.75,82.0156 780.75,82.375 Q780.75,82.7188 780.4063,83.125 Q779.9063,83.7188 779.1094,84.0469 Q778.0625,84.5 776.7813,84.5 Q775.2813,84.5 774.0781,83.9063 Q773.1094,83.4375 772.4219,82.4219 Q771.75,81.4063 771.75,80.2031 L771.75,79.1094 Q771.75,77.8594 772.3438,76.7656 Q772.9531,75.6719 774,75.0938 Q775.0625,74.5 776.25,74.5 Q776.9688,74.5 777.5938,74.75 Q778.2188,75 778.75,75.5 Z " fill="#000000"/><text fill="#000000" font-family="sans-serif" font-size="14" lengthAdjust="spacing" textLength="60" x="797.25" y="84.7285">Company</text><line style="stroke:#181818;stroke-width:0.5;" x1="689" x2="933" y1="95" y2="95"/><text fill="#000000" font-family="sans-serif" font-size="14" lengthAdjust="spacing" textLength="234" x="694" y="113.5332">VaccineTypeStore vaccineTypeStore</text><line style="stroke:#181818;stroke-width:0.5;" x1="689" x2="933" y1="120.6094" y2="120.6094"/><text fill="#000000" font-family="sans-serif" font-size="14" lengthAdjust="spacing" textLength="135" x="694" y="139.1426">+addVaccineType(vt)</text></g><!--MD5=[9532c95099058dfe385d7270fd32fc0d]
class VaccineTypeStore--><g id="elem_VaccineTypeStore"><rect codeLine="26" fill="#F1F1F1" height="48" id="VaccineTypeStore" rx="2.5" ry="2.5" style="stroke:#181818;stroke-width:0.5;" width="148" x="1041" y="80.5"/><ellipse cx="1056" cy="96.5" fill="#ADD1B2" rx="11" ry="11" style="stroke:#181818;stroke-width:1.0;"/><path d="M1058,93 Q1058.2031,92.5 1058.4375,92.25 Q1058.6719,92 1058.9375,92 Q1059.4063,92 1059.7031,92.2813 Q1060,92.5625 1060,93.2188 L1060,94.7813 Q1060,95.4375 1059.7188,95.7188 Q1059.4375,96 1059,96 Q1058.6094,96 1058.3594,95.8281 Q1058.1094,95.6563 1058,95.2031 Q1057.9531,94.8906 1057.7813,94.7188 Q1057.4688,94.3906 1056.9063,94.2031 Q1056.3438,94 1055.7813,94 Q1055.0781,94 1054.4844,94.2813 Q1053.9063,94.5625 1053.4531,95.1875 Q1053,95.8125 1053,96.6719 L1053,97.5938 Q1053,98.625 1053.8438,99.3125 Q1054.6875,100 1056.1875,100 Q1057.0781,100 1057.7031,99.7969 Q1058.0625,99.6875 1058.4688,99.3281 Q1058.7344,99.125 1058.875,99.0625 Q1059.0156,99 1059.1875,99 Q1059.5156,99 1059.75,99.2656 Q1060,99.5156 1060,99.875 Q1060,100.2188 1059.6563,100.625 Q1059.1563,101.2188 1058.3594,101.5469 Q1057.3125,102 1056.0313,102 Q1054.5313,102 1053.3281,101.4063 Q1052.3594,100.9375 1051.6719,99.9219 Q1051,98.9063 1051,97.7031 L1051,96.6094 Q1051,95.3594 1051.5938,94.2656 Q1052.2031,93.1719 1053.25,92.5938 Q1054.3125,92 1055.5,92 Q1056.2188,92 1056.8438,92.25 Q1057.4688,92.5 1058,93 Z " fill="#000000"/><text fill="#000000" font-family="sans-serif" font-size="14" lengthAdjust="spacing" textLength="116" x="1070" y="102.2285">VaccineTypeStore</text><line style="stroke:#181818;stroke-width:0.5;" x1="1042" x2="1188" y1="112.5" y2="112.5"/><line style="stroke:#181818;stroke-width:0.5;" x1="1042" x2="1188" y1="120.5" y2="120.5"/></g><!--MD5=[5fc8a2837b428cf75eeefab7cab33491]
link VaccineTypeUI to SpecifyNewVaccineTypeController--><g id="link_VaccineTypeUI_SpecifyNewVaccineTypeController"><path codeLine="28" d="M258.1,104.5 C276.2,104.5 295.02,104.5 313.67,104.5 " fill="none" id="VaccineTypeUI-to-SpecifyNewVaccineTypeController" style="stroke:#181818;stroke-width:1.0;stroke-dasharray:7.0,7.0;"/><polygon fill="#181818" points="318.92,104.5,309.92,100.5,313.92,104.5,309.92,108.5,318.92,104.5" style="stroke:#181818;stroke-width:1.0;"/></g><!--MD5=[26b80dd60d3305f854b992ec0b603e2d]
link Company to VaccineTypeStore--><g id="link_Company_VaccineTypeStore"><path codeLine="29" d="M934.4,104.5 C970.53,104.5 1008.94,104.5 1040.92,104.5 " fill="none" id="Company-VaccineTypeStore" style="stroke:#181818;stroke-width:1.0;"/><polygon fill="#000000" points="974,95.6758,964.9549,92.7369,964.9549,98.6147,974,95.6758" style="stroke:#000000;stroke-width:1.0;"/><text fill="#000000" font-family="sans-serif" font-size="13" lengthAdjust="spacing" textLength="32" x="978" y="100.9951">has a</text><text fill="#000000" font-family="sans-serif" font-size="13" lengthAdjust="spacing" textLength="7" x="942.133" y="118.4867">1</text><text fill="#000000" font-family="sans-serif" font-size="13" lengthAdjust="spacing" textLength="5" x="1028.0227" y="118.8382">*</text></g><!--MD5=[d008df8d9f8e445f2ab98a1ffd9c1902]
link VaccineTypeStore to VaccineType--><g id="link_VaccineTypeStore_VaccineType"><path codeLine="30" d="M1189.26,91.41 C1231.51,83.86 1283.82,74.51 1322.81,67.55 " fill="none" id="VaccineTypeStore-VaccineType" style="stroke:#181818;stroke-width:1.0;"/><polygon fill="#000000" points="1228.9221,64.7964,1219.5011,63.4941,1220.5349,69.2803,1228.9221,64.7964" style="stroke:#000000;stroke-width:1.0;"/><text fill="#000000" font-family="sans-serif" font-size="13" lengthAdjust="spacing" textLength="59" x="1233" y="70.9951">keeps info</text><text fill="#000000" font-family="sans-serif" font-size="13" lengthAdjust="spacing" textLength="7" x="1196.9145" y="104.4214">1</text><text fill="#000000" font-family="sans-serif" font-size="13" lengthAdjust="spacing" textLength="5" x="1310.1622" y="83.3913">*</text></g><!--MD5=[2ecb384ece7ba683832533b79bd839c7]
link SpecifyNewVaccineTypeController to Company--><g id="link_SpecifyNewVaccineTypeController_Company"><path codeLine="31" d="M627.25,104.5 C645.84,104.5 664.67,104.5 682.83,104.5 " fill="none" id="SpecifyNewVaccineTypeController-to-Company" style="stroke:#181818;stroke-width:1.0;stroke-dasharray:7.0,7.0;"/><polygon fill="#181818" points="687.93,104.5,678.93,100.5,682.93,104.5,678.93,108.5,687.93,104.5" style="stroke:#181818;stroke-width:1.0;"/></g><!--MD5=[09d92d8960d4f74b3a351a289ae43cb9]
link SpecifyNewVaccineTypeController to VaccineTypeStore--><g id="link_SpecifyNewVaccineTypeController_VaccineTypeStore"><path codeLine="32" d="M627.27,152.07 C647.52,156.79 668.14,160.82 688,163.5 C796.35,178.17 826.03,180.75 934,163.5 C974.08,157.1 1017.36,143.16 1051.43,130.43 " fill="none" id="SpecifyNewVaccineTypeController-to-VaccineTypeStore" style="stroke:#181818;stroke-width:1.0;stroke-dasharray:7.0,7.0;"/><polygon fill="#181818" points="1056.39,128.57,1046.557,128.011,1051.7131,130.3381,1049.386,135.4942,1056.39,128.57" style="stroke:#181818;stroke-width:1.0;"/></g><!--MD5=[da9ecb8ca0785a59b02b4979cbf94715]
link SpecifyNewVaccineTypeController to VaccineType--><g id="link_SpecifyNewVaccineTypeController_VaccineType"><path codeLine="33" d="M627.27,56.94 C647.52,52.22 668.14,48.19 688,45.5 C918.51,14.31 1196.18,37.24 1317.38,50.21 " fill="none" id="SpecifyNewVaccineTypeController-to-VaccineType" style="stroke:#181818;stroke-width:1.0;stroke-dasharray:7.0,7.0;"/><polygon fill="#181818" points="1322.68,50.79,1314.1674,45.8367,1317.7095,50.2472,1313.299,53.7894,1322.68,50.79" style="stroke:#181818;stroke-width:1.0;"/></g><!--MD5=[38079efbaa72d0a856741d9237bb16e3]
@startuml
skinparam classAttributeIconSize 0
left to right direction

class VaccineTypeUI{
SpecifyNewVaccineTypeController ctrl
}

class SpecifyNewVaccineTypeController{
Company company
VaccineType vt
+createVaccineType(code, designation, whoId)
+validateVaccineType(vt)
}

class VaccineType{
 - code
 - designation
 - whoId
}

class Company{
VaccineTypeStore vaccineTypeStore
+addVaccineType(vt)
}

class VaccineTypeStore{}

VaccineTypeUI ..> SpecifyNewVaccineTypeController
Company "1"- -"*" VaccineTypeStore : has a >
VaccineTypeStore "1"- -"*" VaccineType : keeps info >
SpecifyNewVaccineTypeController ..> Company
SpecifyNewVaccineTypeController ..> VaccineTypeStore
SpecifyNewVaccineTypeController ..> VaccineType



@enduml

PlantUML version 1.2022.4(Sat Apr 09 14:29:17 BST 2022)
(GPL source distribution)
Java Runtime: OpenJDK Runtime Environment
JVM: OpenJDK 64-Bit Server VM
Default Encoding: Cp1252
Language: en
Country: US
--></g></svg>