<?xml version="1.0" encoding="UTF-8" standalone="no"?><svg xmlns="http://www.w3.org/2000/svg" xmlns:xlink="http://www.w3.org/1999/xlink" contentStyleType="text/css" height="207px" preserveAspectRatio="none" style="width:1274px;height:207px;background:#FFFFFF;" version="1.1" viewBox="0 0 1274 207" width="1274px" zoomAndPan="magnify"><defs/><g><!--MD5=[c83fedea286ad617fcddfa50cfbf3c46]
class ListEmployeesUI--><g id="elem_ListEmployeesUI"><rect codeLine="4" fill="#F1F1F1" height="65.6094" id="ListEmployeesUI" rx="2.5" ry="2.5" style="stroke:#181818;stroke-width:0.5;" width="188" x="7" y="90.5"/><ellipse cx="45.85" cy="106.5" fill="#ADD1B2" rx="11" ry="11" style="stroke:#181818;stroke-width:1.0;"/><path d="M47.85,103 Q48.0531,102.5 48.2875,102.25 Q48.5219,102 48.7875,102 Q49.2563,102 49.5531,102.2813 Q49.85,102.5625 49.85,103.2188 L49.85,104.7813 Q49.85,105.4375 49.5688,105.7188 Q49.2875,106 48.85,106 Q48.4594,106 48.2094,105.8281 Q47.9594,105.6563 47.85,105.2031 Q47.8031,104.8906 47.6313,104.7188 Q47.3188,104.3906 46.7563,104.2031 Q46.1938,104 45.6313,104 Q44.9281,104 44.3344,104.2813 Q43.7563,104.5625 43.3031,105.1875 Q42.85,105.8125 42.85,106.6719 L42.85,107.5938 Q42.85,108.625 43.6938,109.3125 Q44.5375,110 46.0375,110 Q46.9281,110 47.5531,109.7969 Q47.9125,109.6875 48.3188,109.3281 Q48.5844,109.125 48.725,109.0625 Q48.8656,109 49.0375,109 Q49.3656,109 49.6,109.2656 Q49.85,109.5156 49.85,109.875 Q49.85,110.2188 49.5063,110.625 Q49.0063,111.2188 48.2094,111.5469 Q47.1625,112 45.8813,112 Q44.3813,112 43.1781,111.4063 Q42.2094,110.9375 41.5219,109.9219 Q40.85,108.9063 40.85,107.7031 L40.85,106.6094 Q40.85,105.3594 41.4438,104.2656 Q42.0531,103.1719 43.1,102.5938 Q44.1625,102 45.35,102 Q46.0688,102 46.6938,102.25 Q47.3188,102.5 47.85,103 Z " fill="#000000"/><text fill="#000000" font-family="sans-serif" font-size="14" lengthAdjust="spacing" textLength="103" x="65.15" y="112.2285">ListEmployeesUI</text><line style="stroke:#181818;stroke-width:0.5;" x1="8" x2="194" y1="122.5" y2="122.5"/><text fill="#000000" font-family="sans-serif" font-size="14" lengthAdjust="spacing" textLength="176" x="13" y="141.0332">ListEmployeesController ctrl</text><line style="stroke:#181818;stroke-width:0.5;" x1="8" x2="194" y1="148.1094" y2="148.1094"/></g><!--MD5=[c965f96328c76f4a67994668cc18633e]
class ListEmployeesController--><g id="elem_ListEmployeesController"><rect codeLine="10" fill="#F1F1F1" height="153.6563" id="ListEmployeesController" rx="2.5" ry="2.5" style="stroke:#181818;stroke-width:0.5;" width="190" x="256" y="46.5"/><ellipse cx="273.25" cy="62.5" fill="#ADD1B2" rx="11" ry="11" style="stroke:#181818;stroke-width:1.0;"/><path d="M275.25,59 Q275.4531,58.5 275.6875,58.25 Q275.9219,58 276.1875,58 Q276.6563,58 276.9531,58.2813 Q277.25,58.5625 277.25,59.2188 L277.25,60.7813 Q277.25,61.4375 276.9688,61.7188 Q276.6875,62 276.25,62 Q275.8594,62 275.6094,61.8281 Q275.3594,61.6563 275.25,61.2031 Q275.2031,60.8906 275.0313,60.7188 Q274.7188,60.3906 274.1563,60.2031 Q273.5938,60 273.0313,60 Q272.3281,60 271.7344,60.2813 Q271.1563,60.5625 270.7031,61.1875 Q270.25,61.8125 270.25,62.6719 L270.25,63.5938 Q270.25,64.625 271.0938,65.3125 Q271.9375,66 273.4375,66 Q274.3281,66 274.9531,65.7969 Q275.3125,65.6875 275.7188,65.3281 Q275.9844,65.125 276.125,65.0625 Q276.2656,65 276.4375,65 Q276.7656,65 277,65.2656 Q277.25,65.5156 277.25,65.875 Q277.25,66.2188 276.9063,66.625 Q276.4063,67.2188 275.6094,67.5469 Q274.5625,68 273.2813,68 Q271.7813,68 270.5781,67.4063 Q269.6094,66.9375 268.9219,65.9219 Q268.25,64.9063 268.25,63.7031 L268.25,62.6094 Q268.25,61.3594 268.8438,60.2656 Q269.4531,59.1719 270.5,58.5938 Q271.5625,58 272.75,58 Q273.4688,58 274.0938,58.25 Q274.7188,58.5 275.25,59 Z " fill="#000000"/><text fill="#000000" font-family="sans-serif" font-size="14" lengthAdjust="spacing" textLength="153" x="287.75" y="68.2285">ListEmployeesController</text><line style="stroke:#181818;stroke-width:0.5;" x1="257" x2="445" y1="78.5" y2="78.5"/><text fill="#000000" font-family="sans-serif" font-size="14" lengthAdjust="spacing" textLength="121" x="262" y="97.0332">Company company</text><line style="stroke:#181818;stroke-width:0.5;" x1="257" x2="445" y1="104.1094" y2="104.1094"/><text fill="#000000" font-family="sans-serif" font-size="14" lengthAdjust="spacing" textLength="125" x="262" y="122.6426">+redirectToList(opt)</text><text fill="#000000" font-family="sans-serif" font-size="14" lengthAdjust="spacing" textLength="145" x="262" y="140.252">+getReceptionistsList()</text><text fill="#000000" font-family="sans-serif" font-size="14" lengthAdjust="spacing" textLength="97" x="262" y="157.8613">+getNurseList()</text><text fill="#000000" font-family="sans-serif" font-size="14" lengthAdjust="spacing" textLength="178" x="262" y="175.4707">+getCenterCoordinatorList()</text><text fill="#000000" font-family="sans-serif" font-size="14" lengthAdjust="spacing" textLength="53" x="262" y="193.0801">+getAll()</text></g><!--MD5=[02e4b9b7573f1156f41e60aa5b4e25a4]
class Company--><g id="elem_Company"><rect codeLine="21" fill="#F1F1F1" height="83.2188" id="Company" rx="2.5" ry="2.5" style="stroke:#181818;stroke-width:0.5;" width="207" x="507" y="7"/><ellipse cx="576.25" cy="23" fill="#ADD1B2" rx="11" ry="11" style="stroke:#181818;stroke-width:1.0;"/><path d="M578.25,19.5 Q578.4531,19 578.6875,18.75 Q578.9219,18.5 579.1875,18.5 Q579.6563,18.5 579.9531,18.7813 Q580.25,19.0625 580.25,19.7188 L580.25,21.2813 Q580.25,21.9375 579.9688,22.2188 Q579.6875,22.5 579.25,22.5 Q578.8594,22.5 578.6094,22.3281 Q578.3594,22.1563 578.25,21.7031 Q578.2031,21.3906 578.0313,21.2188 Q577.7188,20.8906 577.1563,20.7031 Q576.5938,20.5 576.0313,20.5 Q575.3281,20.5 574.7344,20.7813 Q574.1563,21.0625 573.7031,21.6875 Q573.25,22.3125 573.25,23.1719 L573.25,24.0938 Q573.25,25.125 574.0938,25.8125 Q574.9375,26.5 576.4375,26.5 Q577.3281,26.5 577.9531,26.2969 Q578.3125,26.1875 578.7188,25.8281 Q578.9844,25.625 579.125,25.5625 Q579.2656,25.5 579.4375,25.5 Q579.7656,25.5 580,25.7656 Q580.25,26.0156 580.25,26.375 Q580.25,26.7188 579.9063,27.125 Q579.4063,27.7188 578.6094,28.0469 Q577.5625,28.5 576.2813,28.5 Q574.7813,28.5 573.5781,27.9063 Q572.6094,27.4375 571.9219,26.4219 Q571.25,25.4063 571.25,24.2031 L571.25,23.1094 Q571.25,21.8594 571.8438,20.7656 Q572.4531,19.6719 573.5,19.0938 Q574.5625,18.5 575.75,18.5 Q576.4688,18.5 577.0938,18.75 Q577.7188,19 578.25,19.5 Z " fill="#000000"/><text fill="#000000" font-family="sans-serif" font-size="14" lengthAdjust="spacing" textLength="60" x="596.75" y="28.7285">Company</text><line style="stroke:#181818;stroke-width:0.5;" x1="508" x2="713" y1="39" y2="39"/><text fill="#000000" font-family="sans-serif" font-size="14" lengthAdjust="spacing" textLength="195" x="513" y="57.5332">EmployeeStore employeeStore</text><line style="stroke:#181818;stroke-width:0.5;" x1="508" x2="713" y1="64.6094" y2="64.6094"/><text fill="#000000" font-family="sans-serif" font-size="14" lengthAdjust="spacing" textLength="134" x="513" y="83.1426">+getEmployeeStore()</text></g><!--MD5=[829fb52c07ade3ad64ef85b99d1fca10]
class EmployeeStore--><g id="elem_EmployeeStore"><rect codeLine="28" fill="#F1F1F1" height="83.2188" id="EmployeeStore" rx="2.5" ry="2.5" style="stroke:#181818;stroke-width:0.5;" width="199" x="821" y="73"/><ellipse cx="868.25" cy="89" fill="#ADD1B2" rx="11" ry="11" style="stroke:#181818;stroke-width:1.0;"/><path d="M870.25,85.5 Q870.4531,85 870.6875,84.75 Q870.9219,84.5 871.1875,84.5 Q871.6563,84.5 871.9531,84.7813 Q872.25,85.0625 872.25,85.7188 L872.25,87.2813 Q872.25,87.9375 871.9688,88.2188 Q871.6875,88.5 871.25,88.5 Q870.8594,88.5 870.6094,88.3281 Q870.3594,88.1563 870.25,87.7031 Q870.2031,87.3906 870.0313,87.2188 Q869.7188,86.8906 869.1563,86.7031 Q868.5938,86.5 868.0313,86.5 Q867.3281,86.5 866.7344,86.7813 Q866.1563,87.0625 865.7031,87.6875 Q865.25,88.3125 865.25,89.1719 L865.25,90.0938 Q865.25,91.125 866.0938,91.8125 Q866.9375,92.5 868.4375,92.5 Q869.3281,92.5 869.9531,92.2969 Q870.3125,92.1875 870.7188,91.8281 Q870.9844,91.625 871.125,91.5625 Q871.2656,91.5 871.4375,91.5 Q871.7656,91.5 872,91.7656 Q872.25,92.0156 872.25,92.375 Q872.25,92.7188 871.9063,93.125 Q871.4063,93.7188 870.6094,94.0469 Q869.5625,94.5 868.2813,94.5 Q866.7813,94.5 865.5781,93.9063 Q864.6094,93.4375 863.9219,92.4219 Q863.25,91.4063 863.25,90.2031 L863.25,89.1094 Q863.25,87.8594 863.8438,86.7656 Q864.4531,85.6719 865.5,85.0938 Q866.5625,84.5 867.75,84.5 Q868.4688,84.5 869.0938,84.75 Q869.7188,85 870.25,85.5 Z " fill="#000000"/><text fill="#000000" font-family="sans-serif" font-size="14" lengthAdjust="spacing" textLength="96" x="888.75" y="94.7285">EmployeeStore</text><line style="stroke:#181818;stroke-width:0.5;" x1="822" x2="1019" y1="105" y2="105"/><text fill="#000000" font-family="sans-serif" font-size="14" lengthAdjust="spacing" textLength="187" x="827" y="123.5332">List&lt;Employee&gt; employeeList</text><line style="stroke:#181818;stroke-width:0.5;" x1="822" x2="1019" y1="130.6094" y2="130.6094"/><text fill="#000000" font-family="sans-serif" font-size="14" lengthAdjust="spacing" textLength="122" x="827" y="149.1426">+getEmployeeList()</text></g><!--MD5=[7421f545a0d8420c5bec41e74b387d9c]
class Employee--><g id="elem_Employee"><rect codeLine="35" fill="#F1F1F1" height="171.2656" id="Employee" rx="2.5" ry="2.5" style="stroke:#181818;stroke-width:0.5;" width="136" x="1131" y="29"/><ellipse cx="1164.9" cy="45" fill="#ADD1B2" rx="11" ry="11" style="stroke:#181818;stroke-width:1.0;"/><path d="M1166.9,41.5 Q1167.1031,41 1167.3375,40.75 Q1167.5719,40.5 1167.8375,40.5 Q1168.3063,40.5 1168.6031,40.7813 Q1168.9,41.0625 1168.9,41.7188 L1168.9,43.2813 Q1168.9,43.9375 1168.6188,44.2188 Q1168.3375,44.5 1167.9,44.5 Q1167.5094,44.5 1167.2594,44.3281 Q1167.0094,44.1563 1166.9,43.7031 Q1166.8531,43.3906 1166.6813,43.2188 Q1166.3688,42.8906 1165.8063,42.7031 Q1165.2438,42.5 1164.6813,42.5 Q1163.9781,42.5 1163.3844,42.7813 Q1162.8063,43.0625 1162.3531,43.6875 Q1161.9,44.3125 1161.9,45.1719 L1161.9,46.0938 Q1161.9,47.125 1162.7438,47.8125 Q1163.5875,48.5 1165.0875,48.5 Q1165.9781,48.5 1166.6031,48.2969 Q1166.9625,48.1875 1167.3688,47.8281 Q1167.6344,47.625 1167.775,47.5625 Q1167.9156,47.5 1168.0875,47.5 Q1168.4156,47.5 1168.65,47.7656 Q1168.9,48.0156 1168.9,48.375 Q1168.9,48.7188 1168.5563,49.125 Q1168.0563,49.7188 1167.2594,50.0469 Q1166.2125,50.5 1164.9313,50.5 Q1163.4313,50.5 1162.2281,49.9063 Q1161.2594,49.4375 1160.5719,48.4219 Q1159.9,47.4063 1159.9,46.2031 L1159.9,45.1094 Q1159.9,43.8594 1160.4938,42.7656 Q1161.1031,41.6719 1162.15,41.0938 Q1163.2125,40.5 1164.4,40.5 Q1165.1188,40.5 1165.7438,40.75 Q1166.3688,41 1166.9,41.5 Z " fill="#000000"/><text fill="#000000" font-family="sans-serif" font-size="14" lengthAdjust="spacing" textLength="62" x="1183.1" y="50.7285">Employee</text><line style="stroke:#181818;stroke-width:0.5;" x1="1132" x2="1266" y1="61" y2="61"/><text fill="#000000" font-family="sans-serif" font-size="14" lengthAdjust="spacing" textLength="40" x="1137" y="79.5332">-name</text><text fill="#000000" font-family="sans-serif" font-size="14" lengthAdjust="spacing" textLength="38" x="1137" y="97.1426">-email</text><text fill="#000000" font-family="sans-serif" font-size="14" lengthAdjust="spacing" textLength="56" x="1137" y="114.752">-address</text><text fill="#000000" font-family="sans-serif" font-size="14" lengthAdjust="spacing" textLength="94" x="1137" y="132.3613">-phoneNumber</text><text fill="#000000" font-family="sans-serif" font-size="14" lengthAdjust="spacing" textLength="124" x="1137" y="149.9707">-citizenCardNumber</text><text fill="#000000" font-family="sans-serif" font-size="14" lengthAdjust="spacing" textLength="79" x="1137" y="167.5801">-employeeID</text><text fill="#000000" font-family="sans-serif" font-size="14" lengthAdjust="spacing" textLength="29" x="1137" y="185.1895">-role</text><line style="stroke:#181818;stroke-width:0.5;" x1="1132" x2="1266" y1="192.2656" y2="192.2656"/></g><!--MD5=[94b983e2e44331786e92eb2608126439]
link ListEmployeesUI to ListEmployeesController--><g id="link_ListEmployeesUI_ListEmployeesController"><path codeLine="47" d="M195.05,123.5 C213.14,123.5 232.17,123.5 250.46,123.5 " fill="none" id="ListEmployeesUI-to-ListEmployeesController" style="stroke:#181818;stroke-width:1.0;stroke-dasharray:7.0,7.0;"/><polygon fill="#181818" points="255.6,123.5,246.6,119.5,250.6,123.5,246.6,127.5,255.6,123.5" style="stroke:#181818;stroke-width:1.0;"/></g><!--MD5=[bc740c97faaa3e7fa10bf0a9f3de37ef]
link ListEmployeesController to EmployeeStore--><g id="link_ListEmployeesController_EmployeeStore"><path codeLine="48" d="M446.03,122.01 C547.94,120.39 710.12,117.82 815.7,116.15 " fill="none" id="ListEmployeesController-to-EmployeeStore" style="stroke:#181818;stroke-width:1.0;stroke-dasharray:7.0,7.0;"/><polygon fill="#181818" points="821,116.06,811.9328,112.2149,816.0007,116.1457,812.0699,120.2137,821,116.06" style="stroke:#181818;stroke-width:1.0;"/></g><!--MD5=[a132349728275be400c8947f68dc1735]
link ListEmployeesController to Company--><g id="link_ListEmployeesController_Company"><path codeLine="49" d="M446.06,96.1 C464.05,90.86 483.02,85.34 501.41,79.98 " fill="none" id="ListEmployeesController-to-Company" style="stroke:#181818;stroke-width:1.0;stroke-dasharray:7.0,7.0;"/><polygon fill="#181818" points="506.58,78.48,496.82,77.16,501.78,79.88,499.06,84.84,506.58,78.48" style="stroke:#181818;stroke-width:1.0;"/></g><!--MD5=[ce859576cba61219b3cb4d2d23fdcd81]
link Company to EmployeeStore--><g id="link_Company_EmployeeStore"><path codeLine="50" d="M714.06,70.48 C748.45,77.85 786.7,86.04 820.78,93.35 " fill="none" id="Company-EmployeeStore" style="stroke:#181818;stroke-width:1.0;"/><polygon fill="#000000" points="753.889,70.7235,745.6605,65.9545,744.4289,71.7018,753.889,70.7235" style="stroke:#000000;stroke-width:1.0;"/><text fill="#000000" font-family="sans-serif" font-size="13" lengthAdjust="spacing" textLength="32" x="758" y="74.9951">has a</text><text fill="#000000" font-family="sans-serif" font-size="13" lengthAdjust="spacing" textLength="7" x="721.9222" y="86.1817">1</text><text fill="#000000" font-family="sans-serif" font-size="13" lengthAdjust="spacing" textLength="7" x="805.8772" y="105.8434">1</text></g><!--MD5=[2f3bac1bdf76f0b867b8cadb6fadb6bc]
link EmployeeStore to Employee--><g id="link_EmployeeStore_Employee"><path codeLine="51" d="M1020.15,114.5 C1056.75,114.5 1097.4,114.5 1130.58,114.5 " fill="none" id="EmployeeStore-Employee" style="stroke:#181818;stroke-width:1.0;"/><polygon fill="#000000" points="1060,105.6758,1050.9549,102.7369,1050.9549,108.6147,1060,105.6758" style="stroke:#000000;stroke-width:1.0;"/><text fill="#000000" font-family="sans-serif" font-size="13" lengthAdjust="spacing" textLength="36" x="1064" y="110.9951">stores</text><text fill="#000000" font-family="sans-serif" font-size="13" lengthAdjust="spacing" textLength="7" x="1028.0474" y="128.6127">1</text><text fill="#000000" font-family="sans-serif" font-size="13" lengthAdjust="spacing" textLength="5" x="1117.8231" y="128.8748">*</text></g><!--MD5=[6687288c94507a268b415570c36b6267]
@startuml
  skinparam classAttributeIconSize 0
  left to right direction

  class ListEmployeesUI{

    ListEmployeesController ctrl

  }

  class ListEmployeesController{

  Company company
  +redirectToList(opt)
  +getReceptionistsList()
  +getNurseList()
  +getCenterCoordinatorList()
  +getAll()

  }

  class Company{

  EmployeeStore employeeStore
  +getEmployeeStore()

  }

  class EmployeeStore{

  List<Employee> employeeList
  +getEmployeeList()

  }

  class Employee{

  -name
  -email
  -address
  -phoneNumber
  -citizenCardNumber
  -employeeID
  -role

  }

  ListEmployeesUI ..> ListEmployeesController
  ListEmployeesController ..> EmployeeStore
  ListEmployeesController ..> Company
  Company "1" - - "1" EmployeeStore : has a >
  EmployeeStore "1" - - "*" Employee : stores >


  @enduml

PlantUML version 1.2022.4(Sat Apr 09 14:29:17 BST 2022)
(GPL source distribution)
Java Runtime: OpenJDK Runtime Environment
JVM: OpenJDK 64-Bit Server VM
Default Encoding: Cp1252
Language: en
Country: US
--></g></svg>