<?xml version="1.0" encoding="UTF-8" standalone="no"?><svg xmlns="http://www.w3.org/2000/svg" xmlns:xlink="http://www.w3.org/1999/xlink" contentStyleType="text/css" height="608px" preserveAspectRatio="none" style="width:1629px;height:608px;background:#FFFFFF;" version="1.1" viewBox="0 0 1629 608" width="1629px" zoomAndPan="magnify"><defs/><g><rect fill="#FFFFFF" height="424.5156" style="stroke:#181818;stroke-width:1.0;" width="10" x="21.5" y="92.6094"/><rect fill="#FFFFFF" height="181.4063" style="stroke:#181818;stroke-width:1.0;" width="10" x="651.5" y="114.9609"/><rect fill="#FFFFFF" height="181.4063" style="stroke:#181818;stroke-width:1.0;" width="10" x="651.5" y="326.7188"/><rect fill="#FFFFFF" height="120.7031" style="stroke:#181818;stroke-width:1.0;" width="10" x="918.5" y="145.3125"/><rect fill="#FFFFFF" height="160.0547" style="stroke:#181818;stroke-width:1.0;" width="10" x="918.5" y="357.0703"/><rect fill="#FFFFFF" height="30" style="stroke:#181818;stroke-width:1.0;" width="10" x="1263.5" y="175.6641"/><rect fill="#FFFFFF" height="30" style="stroke:#181818;stroke-width:1.0;" width="10" x="1263.5" y="387.4219"/><rect fill="#FFFFFF" height="30" style="stroke:#181818;stroke-width:1.0;" width="10" x="1394.5" y="236.0156"/><rect fill="#FFFFFF" height="30" style="stroke:#181818;stroke-width:1.0;" width="10" x="1552.5" y="447.7734"/><line style="stroke:#181818;stroke-width:0.5;stroke-dasharray:5.0,5.0;" x1="26" x2="26" y1="82.6094" y2="526.125"/><line style="stroke:#181818;stroke-width:0.5;stroke-dasharray:5.0,5.0;" x1="656.5" x2="656.5" y1="82.6094" y2="526.125"/><line style="stroke:#181818;stroke-width:0.5;stroke-dasharray:5.0,5.0;" x1="923.5" x2="923.5" y1="82.6094" y2="526.125"/><line style="stroke:#181818;stroke-width:0.5;stroke-dasharray:5.0,5.0;" x1="1268.5" x2="1268.5" y1="82.6094" y2="526.125"/><line style="stroke:#181818;stroke-width:0.5;stroke-dasharray:5.0,5.0;" x1="1399.5" x2="1399.5" y1="82.6094" y2="526.125"/><line style="stroke:#181818;stroke-width:0.5;stroke-dasharray:5.0,5.0;" x1="1557.5" x2="1557.5" y1="82.6094" y2="526.125"/><text fill="#000000" font-family="sans-serif" font-size="14" lengthAdjust="spacing" textLength="37" x="5" y="79.5332">Nurse</text><ellipse cx="26.5" cy="13.5" fill="#E2E2F0" rx="8" ry="8" style="stroke:#181818;stroke-width:0.5;"/><path d="M26.5,21.5 L26.5,48.5 M13.5,29.5 L39.5,29.5 M26.5,48.5 L13.5,63.5 M26.5,48.5 L39.5,63.5 " fill="none" style="stroke:#181818;stroke-width:0.5;"/><text fill="#000000" font-family="sans-serif" font-size="14" lengthAdjust="spacing" textLength="37" x="5" y="539.6582">Nurse</text><ellipse cx="26.5" cy="551.2344" fill="#E2E2F0" rx="8" ry="8" style="stroke:#181818;stroke-width:0.5;"/><path d="M26.5,559.2344 L26.5,586.2344 M13.5,567.2344 L39.5,567.2344 M26.5,586.2344 L13.5,601.2344 M26.5,586.2344 L39.5,601.2344 " fill="none" style="stroke:#181818;stroke-width:0.5;"/><rect fill="#E2E2F0" height="31.6094" rx="2.5" ry="2.5" style="stroke:#181818;stroke-width:0.5;" width="92" x="610.5" y="50"/><text fill="#000000" font-family="sans-serif" font-size="14" lengthAdjust="spacing" textLength="78" x="617.5" y="71.5332">:ArrivalListUI</text><rect fill="#E2E2F0" height="31.6094" rx="2.5" ry="2.5" style="stroke:#181818;stroke-width:0.5;" width="92" x="610.5" y="525.125"/><text fill="#000000" font-family="sans-serif" font-size="14" lengthAdjust="spacing" textLength="78" x="617.5" y="546.6582">:ArrivalListUI</text><rect fill="#E2E2F0" height="31.6094" rx="2.5" ry="2.5" style="stroke:#181818;stroke-width:0.5;" width="142" x="852.5" y="50"/><text fill="#000000" font-family="sans-serif" font-size="14" lengthAdjust="spacing" textLength="128" x="859.5" y="71.5332">:ArrivalListController</text><rect fill="#E2E2F0" height="31.6094" rx="2.5" ry="2.5" style="stroke:#181818;stroke-width:0.5;" width="142" x="852.5" y="525.125"/><text fill="#000000" font-family="sans-serif" font-size="14" lengthAdjust="spacing" textLength="128" x="859.5" y="546.6582">:ArrivalListController</text><rect fill="#E2E2F0" height="31.6094" rx="2.5" ry="2.5" style="stroke:#181818;stroke-width:0.5;" width="78" x="1229.5" y="50"/><text fill="#000000" font-family="sans-serif" font-size="14" lengthAdjust="spacing" textLength="64" x="1236.5" y="71.5332">:Company</text><rect fill="#E2E2F0" height="31.6094" rx="2.5" ry="2.5" style="stroke:#181818;stroke-width:0.5;" width="78" x="1229.5" y="525.125"/><text fill="#000000" font-family="sans-serif" font-size="14" lengthAdjust="spacing" textLength="64" x="1236.5" y="546.6582">:Company</text><rect fill="#E2E2F0" height="31.6094" rx="2.5" ry="2.5" style="stroke:#181818;stroke-width:0.5;" width="164" x="1317.5" y="50"/><text fill="#000000" font-family="sans-serif" font-size="14" lengthAdjust="spacing" textLength="150" x="1324.5" y="71.5332">VaccinationCenterStore</text><rect fill="#E2E2F0" height="31.6094" rx="2.5" ry="2.5" style="stroke:#181818;stroke-width:0.5;" width="164" x="1317.5" y="525.125"/><text fill="#000000" font-family="sans-serif" font-size="14" lengthAdjust="spacing" textLength="150" x="1324.5" y="546.6582">VaccinationCenterStore</text><rect fill="#E2E2F0" height="31.6094" rx="2.5" ry="2.5" style="stroke:#181818;stroke-width:0.5;" width="132" x="1491.5" y="50"/><text fill="#000000" font-family="sans-serif" font-size="14" lengthAdjust="spacing" textLength="118" x="1498.5" y="71.5332">WaitingRoomStore</text><rect fill="#E2E2F0" height="31.6094" rx="2.5" ry="2.5" style="stroke:#181818;stroke-width:0.5;" width="132" x="1491.5" y="525.125"/><text fill="#000000" font-family="sans-serif" font-size="14" lengthAdjust="spacing" textLength="118" x="1498.5" y="546.6582">WaitingRoomStore</text><rect fill="#FFFFFF" height="424.5156" style="stroke:#181818;stroke-width:1.0;" width="10" x="21.5" y="92.6094"/><rect fill="#FFFFFF" height="181.4063" style="stroke:#181818;stroke-width:1.0;" width="10" x="651.5" y="114.9609"/><rect fill="#FFFFFF" height="181.4063" style="stroke:#181818;stroke-width:1.0;" width="10" x="651.5" y="326.7188"/><rect fill="#FFFFFF" height="120.7031" style="stroke:#181818;stroke-width:1.0;" width="10" x="918.5" y="145.3125"/><rect fill="#FFFFFF" height="160.0547" style="stroke:#181818;stroke-width:1.0;" width="10" x="918.5" y="357.0703"/><rect fill="#FFFFFF" height="30" style="stroke:#181818;stroke-width:1.0;" width="10" x="1263.5" y="175.6641"/><rect fill="#FFFFFF" height="30" style="stroke:#181818;stroke-width:1.0;" width="10" x="1263.5" y="387.4219"/><rect fill="#FFFFFF" height="30" style="stroke:#181818;stroke-width:1.0;" width="10" x="1394.5" y="236.0156"/><rect fill="#FFFFFF" height="30" style="stroke:#181818;stroke-width:1.0;" width="10" x="1552.5" y="447.7734"/><polygon fill="#181818" points="639.5,110.9609,649.5,114.9609,639.5,118.9609,643.5,114.9609" style="stroke:#181818;stroke-width:1.0;"/><line style="stroke:#181818;stroke-width:1.0;" x1="31.5" x2="645.5" y1="114.9609" y2="114.9609"/><text fill="#000000" font-family="sans-serif" font-size="13" lengthAdjust="spacing" textLength="305" x="38.5" y="110.1045">Chooses to consult list of SNS users in waiting room</text><polygon fill="#181818" points="906.5,141.3125,916.5,145.3125,906.5,149.3125,910.5,145.3125" style="stroke:#181818;stroke-width:1.0;"/><line style="stroke:#181818;stroke-width:1.0;" x1="661.5" x2="912.5" y1="145.3125" y2="145.3125"/><text fill="#000000" font-family="sans-serif" font-size="13" lengthAdjust="spacing" textLength="163" x="668.5" y="140.4561">getVaccinationCenterStore()</text><polygon fill="#181818" points="1251.5,171.6641,1261.5,175.6641,1251.5,179.6641,1255.5,175.6641" style="stroke:#181818;stroke-width:1.0;"/><line style="stroke:#181818;stroke-width:1.0;" x1="928.5" x2="1257.5" y1="175.6641" y2="175.6641"/><text fill="#000000" font-family="sans-serif" font-size="13" lengthAdjust="spacing" textLength="316" x="935.5" y="170.8076">VaccinationCenterStore = getVaccinationCenterStore()</text><polygon fill="#181818" points="1382.5,232.0156,1392.5,236.0156,1382.5,240.0156,1386.5,236.0156" style="stroke:#181818;stroke-width:1.0;"/><line style="stroke:#181818;stroke-width:1.0;" x1="928.5" x2="1388.5" y1="236.0156" y2="236.0156"/><text fill="#000000" font-family="sans-serif" font-size="13" lengthAdjust="spacing" textLength="281" x="935.5" y="231.1592">vaccinationCenter = getVaccinationCenterStore()</text><polygon fill="#181818" points="42.5,292.3672,32.5,296.3672,42.5,300.3672,38.5,296.3672" style="stroke:#181818;stroke-width:1.0;"/><line style="stroke:#181818;stroke-width:1.0;stroke-dasharray:2.0,2.0;" x1="36.5" x2="655.5" y1="296.3672" y2="296.3672"/><text fill="#000000" font-family="sans-serif" font-size="13" lengthAdjust="spacing" textLength="334" x="48.5" y="291.5107">Requests which vaccination center the nurse is working in</text><polygon fill="#181818" points="639.5,322.7188,649.5,326.7188,639.5,330.7188,643.5,326.7188" style="stroke:#181818;stroke-width:1.0;"/><line style="stroke:#181818;stroke-width:1.0;" x1="31.5" x2="645.5" y1="326.7188" y2="326.7188"/><text fill="#000000" font-family="sans-serif" font-size="13" lengthAdjust="spacing" textLength="224" x="38.5" y="321.8623">Selects the vaccination center from list</text><polygon fill="#181818" points="906.5,353.0703,916.5,357.0703,906.5,361.0703,910.5,357.0703" style="stroke:#181818;stroke-width:1.0;"/><line style="stroke:#181818;stroke-width:1.0;" x1="661.5" x2="912.5" y1="357.0703" y2="357.0703"/><text fill="#000000" font-family="sans-serif" font-size="13" lengthAdjust="spacing" textLength="238" x="668.5" y="352.2139">getListUsersForGivenVaccinationCenter()</text><polygon fill="#181818" points="1251.5,383.4219,1261.5,387.4219,1251.5,391.4219,1255.5,387.4219" style="stroke:#181818;stroke-width:1.0;"/><line style="stroke:#181818;stroke-width:1.0;" x1="928.5" x2="1257.5" y1="387.4219" y2="387.4219"/><text fill="#000000" font-family="sans-serif" font-size="13" lengthAdjust="spacing" textLength="260" x="935.5" y="382.5654">WaitingRoomStore = getWaitingRoomStore()</text><polygon fill="#181818" points="1540.5,443.7734,1550.5,447.7734,1540.5,451.7734,1544.5,447.7734" style="stroke:#181818;stroke-width:1.0;"/><line style="stroke:#181818;stroke-width:1.0;" x1="928.5" x2="1546.5" y1="447.7734" y2="447.7734"/><text fill="#000000" font-family="sans-serif" font-size="13" lengthAdjust="spacing" textLength="340" x="935.5" y="442.917">getListUsersForGivenVaccinationCenter(vaccinationCenter)</text><polygon fill="#181818" points="42.5,504.125,32.5,508.125,42.5,512.125,38.5,508.125" style="stroke:#181818;stroke-width:1.0;"/><line style="stroke:#181818;stroke-width:1.0;stroke-dasharray:2.0,2.0;" x1="36.5" x2="655.5" y1="508.125" y2="508.125"/><text fill="#000000" font-family="sans-serif" font-size="13" lengthAdjust="spacing" textLength="596" x="48.5" y="503.2686">Presents a list of SNS users that are in the waiting room of chosen vaccination center by order of arrival</text><!--MD5=[b1f5b664e452e9b27983e94a699e09b7]
@startuml

actor Nurse
participant ":ArrivalListUI" as UI
participant ":ArrivalListController" as Controller
participant ":Company" as Company

activate Nurse
Nurse -> UI: Chooses to consult list of SNS users in waiting room
activate UI
UI -> Controller : getVaccinationCenterStore()
activate Controller
Controller -> Company : VaccinationCenterStore = getVaccinationCenterStore()
activate Company
deactivate Company
Controller -> VaccinationCenterStore : vaccinationCenter = getVaccinationCenterStore()
activate VaccinationCenterStore
deactivate VaccinationCenterStore
deactivate Controller

UI - -> Nurse: Requests which vaccination center the nurse is working in
deactivate UI

Nurse -> UI: Selects the vaccination center from list
activate UI

UI -> Controller : getListUsersForGivenVaccinationCenter()
activate Controller

Controller -> Company : WaitingRoomStore = getWaitingRoomStore()
activate Company

deactivate Company

Controller -> WaitingRoomStore : getListUsersForGivenVaccinationCenter(vaccinationCenter)
activate WaitingRoomStore
deactivate WaitingRoomStore

UI - -> Nurse: Presents a list of SNS users that are in the waiting room of chosen vaccination center by order of arrival
deactivate UI

@end

PlantUML version 1.2022.4(Sat Apr 09 14:29:17 BST 2022)
(GPL source distribution)
Java Runtime: OpenJDK Runtime Environment
JVM: OpenJDK 64-Bit Server VM
Default Encoding: Cp1252
Language: pt
Country: PT
--></g></svg>