<?xml version="1.0" encoding="UTF-8" standalone="no"?><svg xmlns="http://www.w3.org/2000/svg" xmlns:xlink="http://www.w3.org/1999/xlink" contentStyleType="text/css" height="395px" preserveAspectRatio="none" style="width:800px;height:395px;background:#FFFFFF;" version="1.1" viewBox="0 0 800 395" width="800px" zoomAndPan="magnify"><defs/><g><!--MD5=[a059576e163b46f56762f12600c49258]
class Nurse--><g id="elem_Nurse"><rect codeLine="5" fill="#F1F1F1" height="40" id="Nurse" rx="2.5" ry="2.5" style="stroke:#181818;stroke-width:0.5;" width="69" x="27.5" y="15.3564"/><ellipse cx="42.5" cy="31.3564" fill="#ADD1B2" rx="11" ry="11" style="stroke:#181818;stroke-width:1.0;"/><path d="M44.5,27.8564 Q44.7031,27.3564 44.9375,27.1064 Q45.1719,26.8564 45.4375,26.8564 Q45.9063,26.8564 46.2031,27.1377 Q46.5,27.4189 46.5,28.0752 L46.5,29.6377 Q46.5,30.2939 46.2188,30.5752 Q45.9375,30.8564 45.5,30.8564 Q45.1094,30.8564 44.8594,30.6846 Q44.6094,30.5127 44.5,30.0596 Q44.4531,29.7471 44.2813,29.5752 Q43.9688,29.2471 43.4063,29.0596 Q42.8438,28.8564 42.2813,28.8564 Q41.5781,28.8564 40.9844,29.1377 Q40.4063,29.4189 39.9531,30.0439 Q39.5,30.6689 39.5,31.5283 L39.5,32.4502 Q39.5,33.4814 40.3438,34.1689 Q41.1875,34.8564 42.6875,34.8564 Q43.5781,34.8564 44.2031,34.6533 Q44.5625,34.5439 44.9688,34.1846 Q45.2344,33.9814 45.375,33.9189 Q45.5156,33.8564 45.6875,33.8564 Q46.0156,33.8564 46.25,34.1221 Q46.5,34.3721 46.5,34.7314 Q46.5,35.0752 46.1563,35.4814 Q45.6563,36.0752 44.8594,36.4033 Q43.8125,36.8564 42.5313,36.8564 Q41.0313,36.8564 39.8281,36.2627 Q38.8594,35.7939 38.1719,34.7783 Q37.5,33.7627 37.5,32.5596 L37.5,31.4658 Q37.5,30.2158 38.0938,29.1221 Q38.7031,28.0283 39.75,27.4502 Q40.8125,26.8564 42,26.8564 Q42.7188,26.8564 43.3438,27.1064 Q43.9688,27.3564 44.5,27.8564 Z " fill="#000000"/><text fill="#000000" font-family="sans-serif" font-size="14" lengthAdjust="spacing" textLength="37" x="56.5" y="37.085">Nurse</text><line style="stroke:#181818;stroke-width:0.5;" x1="28.5" x2="95.5" y1="47.3564" y2="47.3564"/></g><!--MD5=[03960189e81aa2c066c762ffabbee709]
class Receptionist--><g id="elem_Receptionist"><rect codeLine="8" fill="#F1F1F1" height="40" id="Receptionist" rx="2.5" ry="2.5" style="stroke:#181818;stroke-width:0.5;" width="110" x="7" y="207.3564"/><ellipse cx="22" cy="223.3564" fill="#ADD1B2" rx="11" ry="11" style="stroke:#181818;stroke-width:1.0;"/><path d="M24,219.8564 Q24.2031,219.3564 24.4375,219.1064 Q24.6719,218.8564 24.9375,218.8564 Q25.4063,218.8564 25.7031,219.1377 Q26,219.4189 26,220.0752 L26,221.6377 Q26,222.2939 25.7188,222.5752 Q25.4375,222.8564 25,222.8564 Q24.6094,222.8564 24.3594,222.6846 Q24.1094,222.5127 24,222.0596 Q23.9531,221.7471 23.7813,221.5752 Q23.4688,221.2471 22.9063,221.0596 Q22.3438,220.8564 21.7813,220.8564 Q21.0781,220.8564 20.4844,221.1377 Q19.9063,221.4189 19.4531,222.0439 Q19,222.6689 19,223.5283 L19,224.4502 Q19,225.4814 19.8438,226.1689 Q20.6875,226.8564 22.1875,226.8564 Q23.0781,226.8564 23.7031,226.6533 Q24.0625,226.5439 24.4688,226.1846 Q24.7344,225.9814 24.875,225.9189 Q25.0156,225.8564 25.1875,225.8564 Q25.5156,225.8564 25.75,226.1221 Q26,226.3721 26,226.7314 Q26,227.0752 25.6563,227.4814 Q25.1563,228.0752 24.3594,228.4033 Q23.3125,228.8564 22.0313,228.8564 Q20.5313,228.8564 19.3281,228.2627 Q18.3594,227.7939 17.6719,226.7783 Q17,225.7627 17,224.5596 L17,223.4658 Q17,222.2158 17.5938,221.1221 Q18.2031,220.0283 19.25,219.4502 Q20.3125,218.8564 21.5,218.8564 Q22.2188,218.8564 22.8438,219.1064 Q23.4688,219.3564 24,219.8564 Z " fill="#000000"/><text fill="#000000" font-family="sans-serif" font-size="14" lengthAdjust="spacing" textLength="78" x="36" y="229.085">Receptionist</text><line style="stroke:#181818;stroke-width:0.5;" x1="8" x2="116" y1="239.3564" y2="239.3564"/></g><!--MD5=[72be06cc7ae02ccc98efe28a50e62246]
class SNSUser--><g id="elem_SNSUser"><rect codeLine="11" fill="#F1F1F1" height="128.0469" id="SNSUser" rx="2.5" ry="2.5" style="stroke:#181818;stroke-width:0.5;" width="139" x="375" y="163.3564"/><ellipse cx="412.95" cy="179.3564" fill="#ADD1B2" rx="11" ry="11" style="stroke:#181818;stroke-width:1.0;"/><path d="M414.95,175.8564 Q415.1531,175.3564 415.3875,175.1064 Q415.6219,174.8564 415.8875,174.8564 Q416.3563,174.8564 416.6531,175.1377 Q416.95,175.4189 416.95,176.0752 L416.95,177.6377 Q416.95,178.2939 416.6688,178.5752 Q416.3875,178.8564 415.95,178.8564 Q415.5594,178.8564 415.3094,178.6846 Q415.0594,178.5127 414.95,178.0596 Q414.9031,177.7471 414.7313,177.5752 Q414.4188,177.2471 413.8563,177.0596 Q413.2938,176.8564 412.7313,176.8564 Q412.0281,176.8564 411.4344,177.1377 Q410.8563,177.4189 410.4031,178.0439 Q409.95,178.6689 409.95,179.5283 L409.95,180.4502 Q409.95,181.4814 410.7938,182.1689 Q411.6375,182.8564 413.1375,182.8564 Q414.0281,182.8564 414.6531,182.6533 Q415.0125,182.5439 415.4188,182.1846 Q415.6844,181.9814 415.825,181.9189 Q415.9656,181.8564 416.1375,181.8564 Q416.4656,181.8564 416.7,182.1221 Q416.95,182.3721 416.95,182.7314 Q416.95,183.0752 416.6063,183.4814 Q416.1063,184.0752 415.3094,184.4033 Q414.2625,184.8564 412.9813,184.8564 Q411.4813,184.8564 410.2781,184.2627 Q409.3094,183.7939 408.6219,182.7783 Q407.95,181.7627 407.95,180.5596 L407.95,179.4658 Q407.95,178.2158 408.5438,177.1221 Q409.1531,176.0283 410.2,175.4502 Q411.2625,174.8564 412.45,174.8564 Q413.1688,174.8564 413.7938,175.1064 Q414.4188,175.3564 414.95,175.8564 Z " fill="#000000"/><text fill="#000000" font-family="sans-serif" font-size="14" lengthAdjust="spacing" textLength="56" x="432.05" y="185.085">SNSUser</text><line style="stroke:#181818;stroke-width:0.5;" x1="376" x2="513" y1="195.3564" y2="195.3564"/><rect fill="none" height="6" style="stroke:#C82930;stroke-width:1.0;" width="6" x="383" y="203.3564"/><text fill="#000000" font-family="sans-serif" font-size="14" lengthAdjust="spacing" textLength="36" x="395" y="213.8896">Name</text><rect fill="none" height="6" style="stroke:#C82930;stroke-width:1.0;" width="6" x="383" y="220.9658"/><text fill="#000000" font-family="sans-serif" font-size="14" lengthAdjust="spacing" textLength="23" x="395" y="231.499">Sex</text><rect fill="none" height="6" style="stroke:#C82930;stroke-width:1.0;" width="6" x="383" y="238.5752"/><text fill="#000000" font-family="sans-serif" font-size="14" lengthAdjust="spacing" textLength="63" x="395" y="249.1084">Birth Date</text><rect fill="none" height="6" style="stroke:#C82930;stroke-width:1.0;" width="6" x="383" y="256.1846"/><text fill="#000000" font-family="sans-serif" font-size="14" lengthAdjust="spacing" textLength="113" x="395" y="266.7178">SNS User Number</text><rect fill="none" height="6" style="stroke:#C82930;stroke-width:1.0;" width="6" x="383" y="273.7939"/><text fill="#000000" font-family="sans-serif" font-size="14" lengthAdjust="spacing" textLength="94" x="395" y="284.3271">Phone Number</text></g><!--MD5=[de60e6d4f424ae4d0522096f76a59010]
class VaccinationCenter--><g id="elem_VaccinationCenter"><rect codeLine="19" fill="#F1F1F1" height="198.4844" id="VaccinationCenter" rx="2.5" ry="2.5" style="stroke:#181818;stroke-width:0.5;" width="154" x="639" y="32.3564"/><ellipse cx="656.7" cy="48.3564" fill="#ADD1B2" rx="11" ry="11" style="stroke:#181818;stroke-width:1.0;"/><path d="M658.7,44.8564 Q658.9031,44.3564 659.1375,44.1064 Q659.3719,43.8564 659.6375,43.8564 Q660.1063,43.8564 660.4031,44.1377 Q660.7,44.4189 660.7,45.0752 L660.7,46.6377 Q660.7,47.2939 660.4188,47.5752 Q660.1375,47.8564 659.7,47.8564 Q659.3094,47.8564 659.0594,47.6846 Q658.8094,47.5127 658.7,47.0596 Q658.6531,46.7471 658.4813,46.5752 Q658.1688,46.2471 657.6063,46.0596 Q657.0438,45.8564 656.4813,45.8564 Q655.7781,45.8564 655.1844,46.1377 Q654.6063,46.4189 654.1531,47.0439 Q653.7,47.6689 653.7,48.5283 L653.7,49.4502 Q653.7,50.4814 654.5438,51.1689 Q655.3875,51.8564 656.8875,51.8564 Q657.7781,51.8564 658.4031,51.6533 Q658.7625,51.5439 659.1688,51.1846 Q659.4344,50.9814 659.575,50.9189 Q659.7156,50.8564 659.8875,50.8564 Q660.2156,50.8564 660.45,51.1221 Q660.7,51.3721 660.7,51.7314 Q660.7,52.0752 660.3563,52.4814 Q659.8563,53.0752 659.0594,53.4033 Q658.0125,53.8564 656.7313,53.8564 Q655.2313,53.8564 654.0281,53.2627 Q653.0594,52.7939 652.3719,51.7783 Q651.7,50.7627 651.7,49.5596 L651.7,48.4658 Q651.7,47.2158 652.2938,46.1221 Q652.9031,45.0283 653.95,44.4502 Q655.0125,43.8564 656.2,43.8564 Q656.9188,43.8564 657.5438,44.1064 Q658.1688,44.3564 658.7,44.8564 Z " fill="#000000"/><text fill="#000000" font-family="sans-serif" font-size="14" lengthAdjust="spacing" textLength="116" x="671.3" y="54.085">VaccinationCenter</text><line style="stroke:#181818;stroke-width:0.5;" x1="640" x2="792" y1="64.3564" y2="64.3564"/><rect fill="none" height="6" style="stroke:#C82930;stroke-width:1.0;" width="6" x="647" y="72.3564"/><text fill="#000000" font-family="sans-serif" font-size="14" lengthAdjust="spacing" textLength="51" x="659" y="82.8896">address</text><rect fill="none" height="6" style="stroke:#C82930;stroke-width:1.0;" width="6" x="647" y="89.9658"/><text fill="#000000" font-family="sans-serif" font-size="14" lengthAdjust="spacing" textLength="89" x="659" y="100.499">phoneNumber</text><rect fill="none" height="6" style="stroke:#C82930;stroke-width:1.0;" width="6" x="647" y="107.5752"/><text fill="#000000" font-family="sans-serif" font-size="14" lengthAdjust="spacing" textLength="33" x="659" y="118.1084">email</text><rect fill="none" height="6" style="stroke:#C82930;stroke-width:1.0;" width="6" x="647" y="125.1846"/><text fill="#000000" font-family="sans-serif" font-size="14" lengthAdjust="spacing" textLength="67" x="659" y="135.7178">faxNumber</text><rect fill="none" height="6" style="stroke:#C82930;stroke-width:1.0;" width="6" x="647" y="142.7939"/><text fill="#000000" font-family="sans-serif" font-size="14" lengthAdjust="spacing" textLength="76" x="659" y="153.3271">slotDuration</text><rect fill="none" height="6" style="stroke:#C82930;stroke-width:1.0;" width="6" x="647" y="160.4033"/><text fill="#000000" font-family="sans-serif" font-size="14" lengthAdjust="spacing" textLength="128" x="659" y="170.9365">maxVaccinesPerSlot</text><rect fill="none" height="6" style="stroke:#C82930;stroke-width:1.0;" width="6" x="647" y="178.0127"/><text fill="#000000" font-family="sans-serif" font-size="14" lengthAdjust="spacing" textLength="81" x="659" y="188.5459">openingHour</text><rect fill="none" height="6" style="stroke:#C82930;stroke-width:1.0;" width="6" x="647" y="195.6221"/><text fill="#000000" font-family="sans-serif" font-size="14" lengthAdjust="spacing" textLength="74" x="659" y="206.1553">closingHour</text><rect fill="none" height="6" style="stroke:#C82930;stroke-width:1.0;" width="6" x="647" y="213.2314"/><text fill="#000000" font-family="sans-serif" font-size="14" lengthAdjust="spacing" textLength="95" x="659" y="223.7646">centerCapacity</text></g><!--MD5=[aaa7e27c4ec43917c82a021675d2c87a]
class WaitingRoom--><g id="elem_WaitingRoom"><rect codeLine="31" fill="#F1F1F1" height="57.6094" id="WaitingRoom" rx="2.5" ry="2.5" style="stroke:#181818;stroke-width:0.5;" width="116" x="386.5" y="70.3564"/><ellipse cx="401.5" cy="86.3564" fill="#ADD1B2" rx="11" ry="11" style="stroke:#181818;stroke-width:1.0;"/><path d="M403.5,82.8564 Q403.7031,82.3564 403.9375,82.1064 Q404.1719,81.8564 404.4375,81.8564 Q404.9063,81.8564 405.2031,82.1377 Q405.5,82.4189 405.5,83.0752 L405.5,84.6377 Q405.5,85.2939 405.2188,85.5752 Q404.9375,85.8564 404.5,85.8564 Q404.1094,85.8564 403.8594,85.6846 Q403.6094,85.5127 403.5,85.0596 Q403.4531,84.7471 403.2813,84.5752 Q402.9688,84.2471 402.4063,84.0596 Q401.8438,83.8564 401.2813,83.8564 Q400.5781,83.8564 399.9844,84.1377 Q399.4063,84.4189 398.9531,85.0439 Q398.5,85.6689 398.5,86.5283 L398.5,87.4502 Q398.5,88.4814 399.3438,89.1689 Q400.1875,89.8564 401.6875,89.8564 Q402.5781,89.8564 403.2031,89.6533 Q403.5625,89.5439 403.9688,89.1846 Q404.2344,88.9814 404.375,88.9189 Q404.5156,88.8564 404.6875,88.8564 Q405.0156,88.8564 405.25,89.1221 Q405.5,89.3721 405.5,89.7314 Q405.5,90.0752 405.1563,90.4814 Q404.6563,91.0752 403.8594,91.4033 Q402.8125,91.8564 401.5313,91.8564 Q400.0313,91.8564 398.8281,91.2627 Q397.8594,90.7939 397.1719,89.7783 Q396.5,88.7627 396.5,87.5596 L396.5,86.4658 Q396.5,85.2158 397.0938,84.1221 Q397.7031,83.0283 398.75,82.4502 Q399.8125,81.8564 401,81.8564 Q401.7188,81.8564 402.3438,82.1064 Q402.9688,82.3564 403.5,82.8564 Z " fill="#000000"/><text fill="#000000" font-family="sans-serif" font-size="14" lengthAdjust="spacing" textLength="84" x="415.5" y="92.085">WaitingRoom</text><line style="stroke:#181818;stroke-width:0.5;" x1="387.5" x2="501.5" y1="102.3564" y2="102.3564"/><rect fill="none" height="6" style="stroke:#C82930;stroke-width:1.0;" width="6" x="394.5" y="110.3564"/><text fill="#000000" font-family="sans-serif" font-size="14" lengthAdjust="spacing" textLength="69" x="406.5" y="120.8896">arrivalHour</text></g><!--MD5=[2bde3c2658e9820e0f62920496486001]
link Receptionist to VaccinationCenter--><g id="link_Receptionist_VaccinationCenter"><path codeLine="35" d="M95.55,247.4664 C171.33,291.5764 364.5,388.1864 514,327.3564 C563.55,307.1964 607.56,268.3064 641.67,230.4364 " fill="none" id="Receptionist-VaccinationCenter" style="stroke:#181818;stroke-width:1.0;"/><polygon fill="#000000" points="422.4976,318.3764,413.3653,315.7208,413.5485,321.5958,422.4976,318.3764" style="stroke:#000000;stroke-width:1.0;"/><text fill="#000000" font-family="sans-serif" font-size="13" lengthAdjust="spacing" textLength="49" x="426.5" y="323.8516">works at</text><text fill="#000000" font-family="sans-serif" font-size="13" lengthAdjust="spacing" textLength="5" x="99.2828" y="268.9169">*</text><text fill="#000000" font-family="sans-serif" font-size="13" lengthAdjust="spacing" textLength="5" x="630.5476" y="252.4592">*</text></g><!--MD5=[03efd8c9f90c050219bacdb83332548b]
link Nurse to VaccinationCenter--><g id="link_Nurse_VaccinationCenter"><path codeLine="36" d="M96.84,30.4064 C112.13,28.4064 130.43,26.3464 147,25.3564 C310.26,15.6764 355.58,11.7264 514,52.3564 C556.31,63.2064 601.74,80.5464 638.68,96.2164 " fill="none" id="Nurse-VaccinationCenter" style="stroke:#181818;stroke-width:1.0;"/><polygon fill="#000000" points="422.4635,16.1351,413.8388,12.127,413.1301,17.962,422.4635,16.1351" style="stroke:#000000;stroke-width:1.0;"/><text fill="#000000" font-family="sans-serif" font-size="13" lengthAdjust="spacing" textLength="49" x="426.5" y="20.8516">works at</text><text fill="#000000" font-family="sans-serif" font-size="13" lengthAdjust="spacing" textLength="5" x="104.5414" y="44.5669">*</text><text fill="#000000" font-family="sans-serif" font-size="13" lengthAdjust="spacing" textLength="5" x="626.0722" y="107.1185">*</text></g><!--MD5=[000da5e9a47c4032254e77330cd40e63]
link SNSUser to VaccinationCenter--><g id="link_SNSUser_VaccinationCenter"><path codeLine="37" d="M514.2,202.8864 C552.26,189.3364 599.64,172.4564 638.82,158.4964 " fill="none" id="SNSUser-VaccinationCenter" style="stroke:#181818;stroke-width:1.0;"/><polygon fill="#000000" points="563.2101,160.8545,553.7033,161.121,555.6756,166.6581,563.2101,160.8545" style="stroke:#000000;stroke-width:1.0;"/><text fill="#000000" font-family="sans-serif" font-size="13" lengthAdjust="spacing" textLength="31" x="567.5" y="167.8516">picks</text><text fill="#000000" font-family="sans-serif" font-size="13" lengthAdjust="spacing" textLength="7" x="522.2063" y="214.5968">1</text><text fill="#000000" font-family="sans-serif" font-size="13" lengthAdjust="spacing" textLength="7" x="623.8781" y="175.4441">1</text></g><!--MD5=[7690a4971bd8576b261a40a0340b8203]
link Receptionist to SNSUser--><g id="link_Receptionist_SNSUser"><path codeLine="38" d="M117.11,227.3564 C184.82,227.3564 300.84,227.3564 374.76,227.3564 " fill="none" id="Receptionist-SNSUser" style="stroke:#181818;stroke-width:1.0;"/><polygon fill="#000000" points="187,218.5322,177.9549,215.5933,177.9549,221.4712,187,218.5322" style="stroke:#000000;stroke-width:1.0;"/><text fill="#000000" font-family="sans-serif" font-size="13" lengthAdjust="spacing" textLength="123" x="191" y="223.8516">registers the arrival of</text><text fill="#000000" font-family="sans-serif" font-size="13" lengthAdjust="spacing" textLength="5" x="124.8513" y="241.9502">*</text><text fill="#000000" font-family="sans-serif" font-size="13" lengthAdjust="spacing" textLength="5" x="361.8588" y="241.7432">*</text></g><!--MD5=[120e6d7c8a557e6251338e72fb523695]
link Receptionist to WaitingRoom--><g id="link_Receptionist_WaitingRoom"><path codeLine="39" d="M117.11,209.1564 C188.51,185.1364 313.64,143.0464 386.47,118.5464 " fill="none" id="Receptionist-WaitingRoom" style="stroke:#181818;stroke-width:1.0;"/><polygon fill="#000000" points="156.7391,123.9381,147.229,124.0364,149.1031,129.6075,156.7391,123.9381" style="stroke:#000000;stroke-width:1.0;"/><text fill="#000000" font-family="sans-serif" font-size="13" lengthAdjust="spacing" textLength="183" x="161" y="130.8516">registers when SNSUser arrives</text><text fill="#000000" font-family="sans-serif" font-size="13" lengthAdjust="spacing" textLength="5" x="124.8513" y="221.3046">*</text><text fill="#000000" font-family="sans-serif" font-size="13" lengthAdjust="spacing" textLength="5" x="373.3363" y="135.7451">*</text></g><!--MD5=[aa988044c6ccb0a3eab3a4065e30c3e5]
link Nurse to WaitingRoom--><g id="link_Nurse_WaitingRoom"><path codeLine="40" d="M96.77,41.0364 C161.97,52.0064 305.86,76.2064 386.27,89.7364 " fill="none" id="Nurse-WaitingRoom" style="stroke:#181818;stroke-width:1.0;"/><polygon fill="#000000" points="182.4307,43.3617,173.9985,38.963,173.0234,44.7594,182.4307,43.3617" style="stroke:#000000;stroke-width:1.0;"/><text fill="#000000" font-family="sans-serif" font-size="13" lengthAdjust="spacing" textLength="132" x="186.5" y="47.8516">requests a list of users</text><text fill="#000000" font-family="sans-serif" font-size="13" lengthAdjust="spacing" textLength="5" x="104.4569" y="57.3893">*</text><text fill="#000000" font-family="sans-serif" font-size="13" lengthAdjust="spacing" textLength="5" x="373.489" y="103.0715">*</text></g><!--MD5=[acb5d1129714769191577de0c65a7622]
link WaitingRoom to VaccinationCenter--><g id="link_WaitingRoom_VaccinationCenter"><path codeLine="41" d="M502.65,106.1464 C542.36,110.8564 595.71,117.1964 639,122.3364 " fill="none" id="WaitingRoom-VaccinationCenter" style="stroke:#181818;stroke-width:1.0;"/><polygon fill="#000000" points="553.9651,104.1218,545.3297,100.1368,544.6366,105.9737,553.9651,104.1218" style="stroke:#000000;stroke-width:1.0;"/><text fill="#000000" font-family="sans-serif" font-size="13" lengthAdjust="spacing" textLength="50" x="558" y="108.8516">is part of</text><text fill="#000000" font-family="sans-serif" font-size="13" lengthAdjust="spacing" textLength="5" x="510.4208" y="121.5841">*</text><text fill="#000000" font-family="sans-serif" font-size="13" lengthAdjust="spacing" textLength="7" x="624.0758" y="135.7246">1</text></g><!--MD5=[a09af40bf8cc320c61da5ce04193d44c]
@startuml
hide methods
left to right direction


class Nurse {
}

class Receptionist {
}

class SNSUser{
- Name
- Sex
- Birth Date
- SNS User Number
- Phone Number
}

class VaccinationCenter {
- address
- phoneNumber
- email
- faxNumber
- slotDuration
- maxVaccinesPerSlot
- openingHour
- closingHour
- centerCapacity
}

class WaitingRoom {
- arrivalHour
}

Receptionist "*" - - "*" VaccinationCenter : works at >
Nurse "*" - - "*" VaccinationCenter : works at >
SNSUser "1" - - "1" VaccinationCenter : picks >
Receptionist "*" - - "*" SNSUser : registers the arrival of >
Receptionist "*" - - "*" WaitingRoom : registers when SNSUser arrives >
Nurse "*" - - "*" WaitingRoom : requests a list of users >
WaitingRoom "*" - - "1" VaccinationCenter : is part of >

@enduml

PlantUML version 1.2022.4(Sat Apr 09 14:29:17 BST 2022)
(GPL source distribution)
Java Runtime: OpenJDK Runtime Environment
JVM: OpenJDK 64-Bit Server VM
Default Encoding: Cp1252
Language: pt
Country: PT
--></g></svg>