<?xml version="1.0" encoding="UTF-8" standalone="no"?><svg xmlns="http://www.w3.org/2000/svg" xmlns:xlink="http://www.w3.org/1999/xlink" contentStyleType="text/css" height="808px" preserveAspectRatio="none" style="width:354px;height:808px;background:#FFFFFF;" version="1.1" viewBox="0 0 354 808" width="354px" zoomAndPan="magnify"><defs/><g><!--MD5=[25f9eaaa6de3536636f1049fb9631b68]
class ArrivalListUI--><g id="elem_ArrivalListUI"><rect codeLine="2" fill="#F1F1F1" height="48" id="ArrivalListUI" rx="2.5" ry="2.5" style="stroke:#181818;stroke-width:0.5;" width="106" x="147" y="7"/><ellipse cx="162" cy="23" fill="#ADD1B2" rx="11" ry="11" style="stroke:#181818;stroke-width:1.0;"/><path d="M164,19.5 Q164.2031,19 164.4375,18.75 Q164.6719,18.5 164.9375,18.5 Q165.4063,18.5 165.7031,18.7813 Q166,19.0625 166,19.7188 L166,21.2813 Q166,21.9375 165.7188,22.2188 Q165.4375,22.5 165,22.5 Q164.6094,22.5 164.3594,22.3281 Q164.1094,22.1563 164,21.7031 Q163.9531,21.3906 163.7813,21.2188 Q163.4688,20.8906 162.9063,20.7031 Q162.3438,20.5 161.7813,20.5 Q161.0781,20.5 160.4844,20.7813 Q159.9063,21.0625 159.4531,21.6875 Q159,22.3125 159,23.1719 L159,24.0938 Q159,25.125 159.8438,25.8125 Q160.6875,26.5 162.1875,26.5 Q163.0781,26.5 163.7031,26.2969 Q164.0625,26.1875 164.4688,25.8281 Q164.7344,25.625 164.875,25.5625 Q165.0156,25.5 165.1875,25.5 Q165.5156,25.5 165.75,25.7656 Q166,26.0156 166,26.375 Q166,26.7188 165.6563,27.125 Q165.1563,27.7188 164.3594,28.0469 Q163.3125,28.5 162.0313,28.5 Q160.5313,28.5 159.3281,27.9063 Q158.3594,27.4375 157.6719,26.4219 Q157,25.4063 157,24.2031 L157,23.1094 Q157,21.8594 157.5938,20.7656 Q158.2031,19.6719 159.25,19.0938 Q160.3125,18.5 161.5,18.5 Q162.2188,18.5 162.8438,18.75 Q163.4688,19 164,19.5 Z " fill="#000000"/><text fill="#000000" font-family="sans-serif" font-size="14" lengthAdjust="spacing" textLength="74" x="176" y="28.7285">ArrivalListUI</text><line style="stroke:#181818;stroke-width:0.5;" x1="148" x2="252" y1="39" y2="39"/><line style="stroke:#181818;stroke-width:0.5;" x1="148" x2="252" y1="47" y2="47"/></g><!--MD5=[888673be903605860ffda7ee37f9b77b]
class ArrivalListController--><g id="elem_ArrivalListController"><rect codeLine="5" fill="#F1F1F1" height="100.8281" id="ArrivalListController" rx="2.5" ry="2.5" style="stroke:#181818;stroke-width:0.5;" width="156" x="122" y="115"/><ellipse cx="137" cy="131" fill="#ADD1B2" rx="11" ry="11" style="stroke:#181818;stroke-width:1.0;"/><path d="M139,127.5 Q139.2031,127 139.4375,126.75 Q139.6719,126.5 139.9375,126.5 Q140.4063,126.5 140.7031,126.7813 Q141,127.0625 141,127.7188 L141,129.2813 Q141,129.9375 140.7188,130.2188 Q140.4375,130.5 140,130.5 Q139.6094,130.5 139.3594,130.3281 Q139.1094,130.1563 139,129.7031 Q138.9531,129.3906 138.7813,129.2188 Q138.4688,128.8906 137.9063,128.7031 Q137.3438,128.5 136.7813,128.5 Q136.0781,128.5 135.4844,128.7813 Q134.9063,129.0625 134.4531,129.6875 Q134,130.3125 134,131.1719 L134,132.0938 Q134,133.125 134.8438,133.8125 Q135.6875,134.5 137.1875,134.5 Q138.0781,134.5 138.7031,134.2969 Q139.0625,134.1875 139.4688,133.8281 Q139.7344,133.625 139.875,133.5625 Q140.0156,133.5 140.1875,133.5 Q140.5156,133.5 140.75,133.7656 Q141,134.0156 141,134.375 Q141,134.7188 140.6563,135.125 Q140.1563,135.7188 139.3594,136.0469 Q138.3125,136.5 137.0313,136.5 Q135.5313,136.5 134.3281,135.9063 Q133.3594,135.4375 132.6719,134.4219 Q132,133.4063 132,132.2031 L132,131.1094 Q132,129.8594 132.5938,128.7656 Q133.2031,127.6719 134.25,127.0938 Q135.3125,126.5 136.5,126.5 Q137.2188,126.5 137.8438,126.75 Q138.4688,127 139,127.5 Z " fill="#000000"/><text fill="#000000" font-family="sans-serif" font-size="14" lengthAdjust="spacing" textLength="124" x="151" y="136.7285">ArrivalListController</text><line style="stroke:#181818;stroke-width:0.5;" x1="123" x2="277" y1="147" y2="147"/><line style="stroke:#181818;stroke-width:0.5;" x1="123" x2="277" y1="155" y2="155"/><ellipse cx="133" cy="166" fill="#84BE84" rx="3" ry="3" style="stroke:#038048;stroke-width:1.0;"/><text fill="#000000" font-family="sans-serif" font-size="14" lengthAdjust="spacing" textLength="49" x="142" y="173.5332">arrival()</text><ellipse cx="133" cy="183.6094" fill="#84BE84" rx="3" ry="3" style="stroke:#038048;stroke-width:1.0;"/><text fill="#000000" font-family="sans-serif" font-size="14" lengthAdjust="spacing" textLength="73" x="142" y="191.1426">getCenter()</text><ellipse cx="133" cy="201.2188" fill="#84BE84" rx="3" ry="3" style="stroke:#038048;stroke-width:1.0;"/><text fill="#000000" font-family="sans-serif" font-size="14" lengthAdjust="spacing" textLength="66" x="142" y="208.752">getUsers()</text></g><!--MD5=[d7a366fe1cc5060c824a64e7c3fcb40b]
class WaitingRoomStore--><g id="elem_WaitingRoomStore"><rect codeLine="11" fill="#F1F1F1" height="206.4844" id="WaitingRoomStore" rx="2.5" ry="2.5" style="stroke:#181818;stroke-width:0.5;" width="150" x="7" y="560.5"/><ellipse cx="22" cy="576.5" fill="#ADD1B2" rx="11" ry="11" style="stroke:#181818;stroke-width:1.0;"/><path d="M24,573 Q24.2031,572.5 24.4375,572.25 Q24.6719,572 24.9375,572 Q25.4063,572 25.7031,572.2813 Q26,572.5625 26,573.2188 L26,574.7813 Q26,575.4375 25.7188,575.7188 Q25.4375,576 25,576 Q24.6094,576 24.3594,575.8281 Q24.1094,575.6563 24,575.2031 Q23.9531,574.8906 23.7813,574.7188 Q23.4688,574.3906 22.9063,574.2031 Q22.3438,574 21.7813,574 Q21.0781,574 20.4844,574.2813 Q19.9063,574.5625 19.4531,575.1875 Q19,575.8125 19,576.6719 L19,577.5938 Q19,578.625 19.8438,579.3125 Q20.6875,580 22.1875,580 Q23.0781,580 23.7031,579.7969 Q24.0625,579.6875 24.4688,579.3281 Q24.7344,579.125 24.875,579.0625 Q25.0156,579 25.1875,579 Q25.5156,579 25.75,579.2656 Q26,579.5156 26,579.875 Q26,580.2188 25.6563,580.625 Q25.1563,581.2188 24.3594,581.5469 Q23.3125,582 22.0313,582 Q20.5313,582 19.3281,581.4063 Q18.3594,580.9375 17.6719,579.9219 Q17,578.9063 17,577.7031 L17,576.6094 Q17,575.3594 17.5938,574.2656 Q18.2031,573.1719 19.25,572.5938 Q20.3125,572 21.5,572 Q22.2188,572 22.8438,572.25 Q23.4688,572.5 24,573 Z " fill="#000000"/><text fill="#000000" font-family="sans-serif" font-size="14" lengthAdjust="spacing" textLength="118" x="36" y="582.2285">WaitingRoomStore</text><line style="stroke:#181818;stroke-width:0.5;" x1="8" x2="156" y1="592.5" y2="592.5"/><rect fill="none" height="6" style="stroke:#C82930;stroke-width:1.0;" width="6" x="15" y="600.5"/><text fill="#000000" font-family="sans-serif" font-size="14" lengthAdjust="spacing" textLength="69" x="27" y="611.0332">arrivalDate</text><rect fill="none" height="6" style="stroke:#C82930;stroke-width:1.0;" width="6" x="15" y="618.1094"/><text fill="#000000" font-family="sans-serif" font-size="14" lengthAdjust="spacing" textLength="69" x="27" y="628.6426">arrivalHour</text><rect fill="none" height="6" style="stroke:#C82930;stroke-width:1.0;" width="6" x="15" y="635.7188"/><text fill="#000000" font-family="sans-serif" font-size="14" lengthAdjust="spacing" textLength="100" x="27" y="646.252">snsUserNumber</text><rect fill="none" height="6" style="stroke:#C82930;stroke-width:1.0;" width="6" x="15" y="653.3281"/><text fill="#000000" font-family="sans-serif" font-size="14" lengthAdjust="spacing" textLength="95" x="27" y="663.8613">scheduledHour</text><rect fill="none" height="6" style="stroke:#C82930;stroke-width:1.0;" width="6" x="15" y="670.9375"/><text fill="#000000" font-family="sans-serif" font-size="14" lengthAdjust="spacing" textLength="76" x="27" y="681.4707">centerName</text><rect fill="none" height="6" style="stroke:#C82930;stroke-width:1.0;" width="6" x="15" y="688.5469"/><text fill="#000000" font-family="sans-serif" font-size="14" lengthAdjust="spacing" textLength="84" x="27" y="699.0801">vaccineName</text><line style="stroke:#181818;stroke-width:0.5;" x1="8" x2="156" y1="706.1563" y2="706.1563"/><ellipse cx="18" cy="717.1563" fill="#84BE84" rx="3" ry="3" style="stroke:#038048;stroke-width:1.0;"/><text fill="#000000" font-family="sans-serif" font-size="14" lengthAdjust="spacing" textLength="114" x="27" y="724.6895">getWaitingRoom()</text><ellipse cx="18" cy="734.7656" fill="#84BE84" rx="3" ry="3" style="stroke:#038048;stroke-width:1.0;"/><text fill="#000000" font-family="sans-serif" font-size="14" lengthAdjust="spacing" textLength="106" x="27" y="742.2988">validateWaiting()</text><ellipse cx="18" cy="752.375" fill="#84BE84" rx="3" ry="3" style="stroke:#038048;stroke-width:1.0;"/><text fill="#000000" font-family="sans-serif" font-size="14" lengthAdjust="spacing" textLength="81" x="27" y="759.9082">addWaiting()</text></g><!--MD5=[02e4b9b7573f1156f41e60aa5b4e25a4]
class Company--><g id="elem_Company"><rect codeLine="23" fill="#F1F1F1" height="188.875" id="Company" rx="2.5" ry="2.5" style="stroke:#181818;stroke-width:0.5;" width="174" x="43" y="276"/><ellipse cx="95.75" cy="292" fill="#ADD1B2" rx="11" ry="11" style="stroke:#181818;stroke-width:1.0;"/><path d="M97.75,288.5 Q97.9531,288 98.1875,287.75 Q98.4219,287.5 98.6875,287.5 Q99.1563,287.5 99.4531,287.7813 Q99.75,288.0625 99.75,288.7188 L99.75,290.2813 Q99.75,290.9375 99.4688,291.2188 Q99.1875,291.5 98.75,291.5 Q98.3594,291.5 98.1094,291.3281 Q97.8594,291.1563 97.75,290.7031 Q97.7031,290.3906 97.5313,290.2188 Q97.2188,289.8906 96.6563,289.7031 Q96.0938,289.5 95.5313,289.5 Q94.8281,289.5 94.2344,289.7813 Q93.6563,290.0625 93.2031,290.6875 Q92.75,291.3125 92.75,292.1719 L92.75,293.0938 Q92.75,294.125 93.5938,294.8125 Q94.4375,295.5 95.9375,295.5 Q96.8281,295.5 97.4531,295.2969 Q97.8125,295.1875 98.2188,294.8281 Q98.4844,294.625 98.625,294.5625 Q98.7656,294.5 98.9375,294.5 Q99.2656,294.5 99.5,294.7656 Q99.75,295.0156 99.75,295.375 Q99.75,295.7188 99.4063,296.125 Q98.9063,296.7188 98.1094,297.0469 Q97.0625,297.5 95.7813,297.5 Q94.2813,297.5 93.0781,296.9063 Q92.1094,296.4375 91.4219,295.4219 Q90.75,294.4063 90.75,293.2031 L90.75,292.1094 Q90.75,290.8594 91.3438,289.7656 Q91.9531,288.6719 93,288.0938 Q94.0625,287.5 95.25,287.5 Q95.9688,287.5 96.5938,287.75 Q97.2188,288 97.75,288.5 Z " fill="#000000"/><text fill="#000000" font-family="sans-serif" font-size="14" lengthAdjust="spacing" textLength="60" x="116.25" y="297.7285">Company</text><line style="stroke:#181818;stroke-width:0.5;" x1="44" x2="216" y1="308" y2="308"/><rect fill="none" height="6" style="stroke:#C82930;stroke-width:1.0;" width="6" x="51" y="316"/><text fill="#000000" font-family="sans-serif" font-size="14" lengthAdjust="spacing" textLength="73" x="63" y="326.5332">designation</text><rect fill="none" height="6" style="stroke:#C82930;stroke-width:1.0;" width="6" x="51" y="333.6094"/><text fill="#000000" font-family="sans-serif" font-size="14" lengthAdjust="spacing" textLength="76" x="63" y="344.1426">authFacade</text><rect fill="none" height="6" style="stroke:#C82930;stroke-width:1.0;" width="6" x="51" y="351.2188"/><text fill="#000000" font-family="sans-serif" font-size="14" lengthAdjust="spacing" textLength="114" x="63" y="361.752">vaccineTypeStore</text><rect fill="none" height="6" style="stroke:#C82930;stroke-width:1.0;" width="6" x="51" y="368.8281"/><text fill="#000000" font-family="sans-serif" font-size="14" lengthAdjust="spacing" textLength="95" x="63" y="379.3613">employeeStore</text><rect fill="none" height="6" style="stroke:#C82930;stroke-width:1.0;" width="6" x="51" y="386.4375"/><text fill="#000000" font-family="sans-serif" font-size="14" lengthAdjust="spacing" textLength="90" x="63" y="396.9707">SNSUserStore</text><rect fill="none" height="6" style="stroke:#C82930;stroke-width:1.0;" width="6" x="51" y="404.0469"/><text fill="#000000" font-family="sans-serif" font-size="14" lengthAdjust="spacing" textLength="148" x="63" y="414.5801">vaccinationCenterStore</text><rect fill="none" height="6" style="stroke:#C82930;stroke-width:1.0;" width="6" x="51" y="421.6563"/><text fill="#000000" font-family="sans-serif" font-size="14" lengthAdjust="spacing" textLength="82" x="63" y="432.1895">vaccineStore</text><rect fill="none" height="6" style="stroke:#C82930;stroke-width:1.0;" width="6" x="51" y="439.2656"/><text fill="#000000" font-family="sans-serif" font-size="14" lengthAdjust="spacing" textLength="141" x="63" y="449.7988">scheduleVaccineStore</text><line style="stroke:#181818;stroke-width:0.5;" x1="44" x2="216" y1="456.875" y2="456.875"/></g><!--MD5=[aaa7e27c4ec43917c82a021675d2c87a]
class WaitingRoom--><g id="elem_WaitingRoom"><rect codeLine="34" fill="#F1F1F1" height="276.9219" id="WaitingRoom" rx="2.5" ry="2.5" style="stroke:#181818;stroke-width:0.5;" width="155" x="192.5" y="525"/><ellipse cx="225.05" cy="541" fill="#ADD1B2" rx="11" ry="11" style="stroke:#181818;stroke-width:1.0;"/><path d="M227.05,537.5 Q227.2531,537 227.4875,536.75 Q227.7219,536.5 227.9875,536.5 Q228.4563,536.5 228.7531,536.7813 Q229.05,537.0625 229.05,537.7188 L229.05,539.2813 Q229.05,539.9375 228.7688,540.2188 Q228.4875,540.5 228.05,540.5 Q227.6594,540.5 227.4094,540.3281 Q227.1594,540.1563 227.05,539.7031 Q227.0031,539.3906 226.8313,539.2188 Q226.5188,538.8906 225.9563,538.7031 Q225.3938,538.5 224.8313,538.5 Q224.1281,538.5 223.5344,538.7813 Q222.9563,539.0625 222.5031,539.6875 Q222.05,540.3125 222.05,541.1719 L222.05,542.0938 Q222.05,543.125 222.8938,543.8125 Q223.7375,544.5 225.2375,544.5 Q226.1281,544.5 226.7531,544.2969 Q227.1125,544.1875 227.5188,543.8281 Q227.7844,543.625 227.925,543.5625 Q228.0656,543.5 228.2375,543.5 Q228.5656,543.5 228.8,543.7656 Q229.05,544.0156 229.05,544.375 Q229.05,544.7188 228.7063,545.125 Q228.2063,545.7188 227.4094,546.0469 Q226.3625,546.5 225.0813,546.5 Q223.5813,546.5 222.3781,545.9063 Q221.4094,545.4375 220.7219,544.4219 Q220.05,543.4063 220.05,542.2031 L220.05,541.1094 Q220.05,539.8594 220.6438,538.7656 Q221.2531,537.6719 222.3,537.0938 Q223.3625,536.5 224.55,536.5 Q225.2688,536.5 225.8938,536.75 Q226.5188,537 227.05,537.5 Z " fill="#000000"/><text fill="#000000" font-family="sans-serif" font-size="14" lengthAdjust="spacing" textLength="84" x="242.95" y="546.7285">WaitingRoom</text><line style="stroke:#181818;stroke-width:0.5;" x1="193.5" x2="346.5" y1="557" y2="557"/><rect fill="none" height="6" style="stroke:#C82930;stroke-width:1.0;" width="6" x="200.5" y="565"/><text fill="#000000" font-family="sans-serif" font-size="14" lengthAdjust="spacing" textLength="69" x="212.5" y="575.5332">arrivalDate</text><rect fill="none" height="6" style="stroke:#C82930;stroke-width:1.0;" width="6" x="200.5" y="582.6094"/><text fill="#000000" font-family="sans-serif" font-size="14" lengthAdjust="spacing" textLength="69" x="212.5" y="593.1426">arrivalHour</text><rect fill="none" height="6" style="stroke:#C82930;stroke-width:1.0;" width="6" x="200.5" y="600.2188"/><text fill="#000000" font-family="sans-serif" font-size="14" lengthAdjust="spacing" textLength="100" x="212.5" y="610.752">snsUserNumber</text><rect fill="none" height="6" style="stroke:#C82930;stroke-width:1.0;" width="6" x="200.5" y="617.8281"/><text fill="#000000" font-family="sans-serif" font-size="14" lengthAdjust="spacing" textLength="95" x="212.5" y="628.3613">scheduledHour</text><rect fill="none" height="6" style="stroke:#C82930;stroke-width:1.0;" width="6" x="200.5" y="635.4375"/><text fill="#000000" font-family="sans-serif" font-size="14" lengthAdjust="spacing" textLength="76" x="212.5" y="645.9707">centerName</text><rect fill="none" height="6" style="stroke:#C82930;stroke-width:1.0;" width="6" x="200.5" y="653.0469"/><text fill="#000000" font-family="sans-serif" font-size="14" lengthAdjust="spacing" textLength="84" x="212.5" y="663.5801">vaccineName</text><ellipse cx="203.5" cy="673.6563" fill="none" rx="3" ry="3" style="stroke:#038048;stroke-width:1.0;"/><text fill="#000000" font-family="sans-serif" font-size="14" lengthAdjust="spacing" textLength="90" x="212.5" y="681.1895">getArrivalDate</text><ellipse cx="203.5" cy="691.2656" fill="none" rx="3" ry="3" style="stroke:#038048;stroke-width:1.0;"/><text fill="#000000" font-family="sans-serif" font-size="14" lengthAdjust="spacing" textLength="90" x="212.5" y="698.7988">getArrivalHour</text><ellipse cx="203.5" cy="708.875" fill="none" rx="3" ry="3" style="stroke:#038048;stroke-width:1.0;"/><text fill="#000000" font-family="sans-serif" font-size="14" lengthAdjust="spacing" textLength="129" x="212.5" y="716.4082">get SNSUserNumber</text><ellipse cx="203.5" cy="726.4844" fill="none" rx="3" ry="3" style="stroke:#038048;stroke-width:1.0;"/><text fill="#000000" font-family="sans-serif" font-size="14" lengthAdjust="spacing" textLength="121" x="212.5" y="734.0176">get ScheduledHour</text><ellipse cx="203.5" cy="744.0938" fill="none" rx="3" ry="3" style="stroke:#038048;stroke-width:1.0;"/><text fill="#000000" font-family="sans-serif" font-size="14" lengthAdjust="spacing" textLength="103" x="212.5" y="751.627">get CenterName</text><ellipse cx="203.5" cy="761.7031" fill="none" rx="3" ry="3" style="stroke:#038048;stroke-width:1.0;"/><text fill="#000000" font-family="sans-serif" font-size="14" lengthAdjust="spacing" textLength="110" x="212.5" y="769.2363">get VaccineName</text><ellipse cx="203.5" cy="779.3125" fill="none" rx="3" ry="3" style="stroke:#038048;stroke-width:1.0;"/><text fill="#000000" font-family="sans-serif" font-size="14" lengthAdjust="spacing" textLength="109" x="212.5" y="786.8457">set VaccineName</text><line style="stroke:#181818;stroke-width:0.5;" x1="193.5" x2="346.5" y1="793.9219" y2="793.9219"/></g><!--MD5=[f5a5984a19f00032049501875746a77d]
link ArrivalListUI to ArrivalListController--><g id="link_ArrivalListUI_ArrivalListController"><path codeLine="50" d="M200,55.08 C200,70.13 200,90.43 200,109.47 " fill="none" id="ArrivalListUI-to-ArrivalListController" style="stroke:#181818;stroke-width:1.0;"/><polygon fill="#181818" points="200,114.8,204,105.8,200,109.8,196,105.8,200,114.8" style="stroke:#181818;stroke-width:1.0;"/></g><!--MD5=[a26ba4d60c42528622d88dfc93fc3f3d]
link ArrivalListController to Company--><g id="link_ArrivalListController_Company"><path codeLine="51" d="M182.88,216.16 C177.13,232.82 170.5,252.04 163.93,271.1 " fill="none" id="ArrivalListController-to-Company" style="stroke:#181818;stroke-width:1.0;"/><polygon fill="#181818" points="162.26,275.94,168.9794,268.7394,163.8926,271.214,161.4179,266.1272,162.26,275.94" style="stroke:#181818;stroke-width:1.0;"/></g><!--MD5=[05962c0a9a70769946f1856d7942a74b]
link Company to WaitingRoomStore--><g id="link_Company_WaitingRoomStore"><path codeLine="52" d="M114.55,465.18 C109.81,493.92 104.55,525.76 99.68,555.34 " fill="none" id="Company-to-WaitingRoomStore" style="stroke:#181818;stroke-width:1.0;stroke-dasharray:7.0,7.0;"/><polygon fill="#181818" points="98.83,560.44,104.2436,552.2124,99.645,555.5069,96.3506,550.9083,98.83,560.44" style="stroke:#181818;stroke-width:1.0;"/></g><!--MD5=[8ad482539ea20abfa48219b16af2c2dc]
link Company to WaitingRoom--><g id="link_Company_WaitingRoom"><path codeLine="53" d="M175.07,465.18 C183.5,482.71 192.5,501.41 201.46,520.03 " fill="none" id="Company-to-WaitingRoom" style="stroke:#181818;stroke-width:1.0;stroke-dasharray:7.0,7.0;"/><polygon fill="#181818" points="203.74,524.77,203.4434,514.9256,201.5726,520.2642,196.2341,518.3934,203.74,524.77" style="stroke:#181818;stroke-width:1.0;"/></g><!--MD5=[1ba981bc6c44785d7009c49754155ac3]
link ArrivalListController to WaitingRoom--><g id="link_ArrivalListController_WaitingRoom"><path codeLine="54" d="M218.37,216.04 C224.58,234.61 230.96,256.05 235,276 C251.13,355.64 259.83,446.03 264.52,519.35 " fill="none" id="ArrivalListController-to-WaitingRoom" style="stroke:#181818;stroke-width:1.0;"/><polygon fill="#181818" points="264.85,524.6,268.2759,515.3662,264.5354,519.6099,260.2917,515.8695,264.85,524.6" style="stroke:#181818;stroke-width:1.0;"/></g><!--MD5=[803ae043dac8d4151c376303fdddf8d6]
@startuml

class ArrivalListUI{
}

class ArrivalListController{
+ arrival()
+ getCenter()
+ getUsers()
}

class WaitingRoomStore {
- arrivalDate
- arrivalHour
- snsUserNumber
- scheduledHour
- centerName
- vaccineName
+ getWaitingRoom()
+ validateWaiting()
+ addWaiting()
}

class Company {
- designation
- authFacade
- vaccineTypeStore
- employeeStore
- SNSUserStore
- vaccinationCenterStore
- vaccineStore
- scheduleVaccineStore
}

class WaitingRoom{
- arrivalDate
- arrivalHour
- snsUserNumber
- scheduledHour
- centerName
- vaccineName
+ getArrivalDate
+ getArrivalHour
+ get SNSUserNumber
+ get ScheduledHour
+ get CenterName
+ get VaccineName
+ set VaccineName
}

ArrivalListUI - -> ArrivalListController
ArrivalListController - -> Company
Company ..> WaitingRoomStore
Company ..> WaitingRoom
ArrivalListController - -> WaitingRoom

@enduml

PlantUML version 1.2022.4(Sat Apr 09 14:29:17 BST 2022)
(GPL source distribution)
Java Runtime: OpenJDK Runtime Environment
JVM: OpenJDK 64-Bit Server VM
Default Encoding: Cp1252
Language: pt
Country: PT
--></g></svg>