<?xml version="1.0" encoding="UTF-8" standalone="no"?><svg xmlns="http://www.w3.org/2000/svg" xmlns:xlink="http://www.w3.org/1999/xlink" contentStyleType="text/css" height="515px" preserveAspectRatio="none" style="width:618px;height:515px;background:#FFFFFF;" version="1.1" viewBox="0 0 618 515" width="618px" zoomAndPan="magnify"><defs/><g><!--MD5=[224fc7cd06c296ea19f58aadfe12825b]
class RegisterArrivalUI--><g id="elem_RegisterArrivalUI"><rect codeLine="4" fill="#F1F1F1" height="57.6094" id="RegisterArrivalUI" rx="2.5" ry="2.5" style="stroke:#181818;stroke-width:0.5;" width="321" x="168" y="7"/><ellipse cx="271.75" cy="23" fill="#ADD1B2" rx="11" ry="11" style="stroke:#181818;stroke-width:1.0;"/><path d="M273.75,19.5 Q273.9531,19 274.1875,18.75 Q274.4219,18.5 274.6875,18.5 Q275.1563,18.5 275.4531,18.7813 Q275.75,19.0625 275.75,19.7188 L275.75,21.2813 Q275.75,21.9375 275.4688,22.2188 Q275.1875,22.5 274.75,22.5 Q274.3594,22.5 274.1094,22.3281 Q273.8594,22.1563 273.75,21.7031 Q273.7031,21.3906 273.5313,21.2188 Q273.2188,20.8906 272.6563,20.7031 Q272.0938,20.5 271.5313,20.5 Q270.8281,20.5 270.2344,20.7813 Q269.6563,21.0625 269.2031,21.6875 Q268.75,22.3125 268.75,23.1719 L268.75,24.0938 Q268.75,25.125 269.5938,25.8125 Q270.4375,26.5 271.9375,26.5 Q272.8281,26.5 273.4531,26.2969 Q273.8125,26.1875 274.2188,25.8281 Q274.4844,25.625 274.625,25.5625 Q274.7656,25.5 274.9375,25.5 Q275.2656,25.5 275.5,25.7656 Q275.75,26.0156 275.75,26.375 Q275.75,26.7188 275.4063,27.125 Q274.9063,27.7188 274.1094,28.0469 Q273.0625,28.5 271.7813,28.5 Q270.2813,28.5 269.0781,27.9063 Q268.1094,27.4375 267.4219,26.4219 Q266.75,25.4063 266.75,24.2031 L266.75,23.1094 Q266.75,21.8594 267.3438,20.7656 Q267.9531,19.6719 269,19.0938 Q270.0625,18.5 271.25,18.5 Q271.9688,18.5 272.5938,18.75 Q273.2188,19 273.75,19.5 Z " fill="#000000"/><text fill="#000000" font-family="sans-serif" font-size="14" lengthAdjust="spacing" textLength="105" x="292.25" y="28.7285">RegisterArrivalUI</text><line style="stroke:#181818;stroke-width:0.5;" x1="169" x2="488" y1="39" y2="39"/><ellipse cx="179" cy="50" fill="#84BE84" rx="3" ry="3" style="stroke:#038048;stroke-width:1.0;"/><text fill="#000000" font-family="sans-serif" font-size="14" lengthAdjust="spacing" textLength="295" x="188" y="57.5332">getScheduledVaccinesForCenter(center, date)</text></g><!--MD5=[28d283a553aed6dce995d0e5b32dd5db]
class RegisterArrivalController--><g id="elem_RegisterArrivalController"><rect codeLine="8" fill="#F1F1F1" height="92.8281" id="RegisterArrivalController" rx="2.5" ry="2.5" style="stroke:#181818;stroke-width:0.5;" width="195" x="231" y="126"/><ellipse cx="249.6" cy="142" fill="#ADD1B2" rx="11" ry="11" style="stroke:#181818;stroke-width:1.0;"/><path d="M251.6,138.5 Q251.8031,138 252.0375,137.75 Q252.2719,137.5 252.5375,137.5 Q253.0063,137.5 253.3031,137.7813 Q253.6,138.0625 253.6,138.7188 L253.6,140.2813 Q253.6,140.9375 253.3188,141.2188 Q253.0375,141.5 252.6,141.5 Q252.2094,141.5 251.9594,141.3281 Q251.7094,141.1563 251.6,140.7031 Q251.5531,140.3906 251.3813,140.2188 Q251.0688,139.8906 250.5063,139.7031 Q249.9438,139.5 249.3813,139.5 Q248.6781,139.5 248.0844,139.7813 Q247.5063,140.0625 247.0531,140.6875 Q246.6,141.3125 246.6,142.1719 L246.6,143.0938 Q246.6,144.125 247.4438,144.8125 Q248.2875,145.5 249.7875,145.5 Q250.6781,145.5 251.3031,145.2969 Q251.6625,145.1875 252.0688,144.8281 Q252.3344,144.625 252.475,144.5625 Q252.6156,144.5 252.7875,144.5 Q253.1156,144.5 253.35,144.7656 Q253.6,145.0156 253.6,145.375 Q253.6,145.7188 253.2563,146.125 Q252.7563,146.7188 251.9594,147.0469 Q250.9125,147.5 249.6313,147.5 Q248.1313,147.5 246.9281,146.9063 Q245.9594,146.4375 245.2719,145.4219 Q244.6,144.4063 244.6,143.2031 L244.6,142.1094 Q244.6,140.8594 245.1938,139.7656 Q245.8031,138.6719 246.85,138.0938 Q247.9125,137.5 249.1,137.5 Q249.8188,137.5 250.4438,137.75 Q251.0688,138 251.6,138.5 Z " fill="#000000"/><text fill="#000000" font-family="sans-serif" font-size="14" lengthAdjust="spacing" textLength="155" x="264.4" y="147.7285">RegisterArrivalController</text><line style="stroke:#181818;stroke-width:0.5;" x1="232" x2="425" y1="158" y2="158"/><ellipse cx="242" cy="169" fill="#84BE84" rx="3" ry="3" style="stroke:#038048;stroke-width:1.0;"/><text fill="#000000" font-family="sans-serif" font-size="14" lengthAdjust="spacing" textLength="163" x="251" y="176.5332">getVaccinationCenterlist()</text><ellipse cx="242" cy="186.6094" fill="#84BE84" rx="3" ry="3" style="stroke:#038048;stroke-width:1.0;"/><text fill="#000000" font-family="sans-serif" font-size="14" lengthAdjust="spacing" textLength="169" x="251" y="194.1426">getScheduledVaccineList()</text><ellipse cx="242" cy="204.2188" fill="#84BE84" rx="3" ry="3" style="stroke:#038048;stroke-width:1.0;"/><text fill="#000000" font-family="sans-serif" font-size="14" lengthAdjust="spacing" textLength="81" x="251" y="211.752">addWaiting()</text></g><!--MD5=[02e4b9b7573f1156f41e60aa5b4e25a4]
class Company--><g id="elem_Company"><rect codeLine="14" fill="#F1F1F1" height="92.8281" id="Company" rx="2.5" ry="2.5" style="stroke:#181818;stroke-width:0.5;" width="195" x="231" y="280"/><ellipse cx="294.25" cy="296" fill="#ADD1B2" rx="11" ry="11" style="stroke:#181818;stroke-width:1.0;"/><path d="M296.25,292.5 Q296.4531,292 296.6875,291.75 Q296.9219,291.5 297.1875,291.5 Q297.6563,291.5 297.9531,291.7813 Q298.25,292.0625 298.25,292.7188 L298.25,294.2813 Q298.25,294.9375 297.9688,295.2188 Q297.6875,295.5 297.25,295.5 Q296.8594,295.5 296.6094,295.3281 Q296.3594,295.1563 296.25,294.7031 Q296.2031,294.3906 296.0313,294.2188 Q295.7188,293.8906 295.1563,293.7031 Q294.5938,293.5 294.0313,293.5 Q293.3281,293.5 292.7344,293.7813 Q292.1563,294.0625 291.7031,294.6875 Q291.25,295.3125 291.25,296.1719 L291.25,297.0938 Q291.25,298.125 292.0938,298.8125 Q292.9375,299.5 294.4375,299.5 Q295.3281,299.5 295.9531,299.2969 Q296.3125,299.1875 296.7188,298.8281 Q296.9844,298.625 297.125,298.5625 Q297.2656,298.5 297.4375,298.5 Q297.7656,298.5 298,298.7656 Q298.25,299.0156 298.25,299.375 Q298.25,299.7188 297.9063,300.125 Q297.4063,300.7188 296.6094,301.0469 Q295.5625,301.5 294.2813,301.5 Q292.7813,301.5 291.5781,300.9063 Q290.6094,300.4375 289.9219,299.4219 Q289.25,298.4063 289.25,297.2031 L289.25,296.1094 Q289.25,294.8594 289.8438,293.7656 Q290.4531,292.6719 291.5,292.0938 Q292.5625,291.5 293.75,291.5 Q294.4688,291.5 295.0938,291.75 Q295.7188,292 296.25,292.5 Z " fill="#000000"/><text fill="#000000" font-family="sans-serif" font-size="14" lengthAdjust="spacing" textLength="60" x="314.75" y="301.7285">Company</text><line style="stroke:#181818;stroke-width:0.5;" x1="232" x2="425" y1="312" y2="312"/><ellipse cx="242" cy="323" fill="#84BE84" rx="3" ry="3" style="stroke:#038048;stroke-width:1.0;"/><text fill="#000000" font-family="sans-serif" font-size="14" lengthAdjust="spacing" textLength="163" x="251" y="330.5332">getVaccinationCenterlist()</text><ellipse cx="242" cy="340.6094" fill="#84BE84" rx="3" ry="3" style="stroke:#038048;stroke-width:1.0;"/><text fill="#000000" font-family="sans-serif" font-size="14" lengthAdjust="spacing" textLength="169" x="251" y="348.1426">getScheduledVaccineList()</text><ellipse cx="242" cy="358.2188" fill="#84BE84" rx="3" ry="3" style="stroke:#038048;stroke-width:1.0;"/><text fill="#000000" font-family="sans-serif" font-size="14" lengthAdjust="spacing" textLength="81" x="251" y="365.752">addWaiting()</text></g><!--MD5=[a29876ea2f21a6ca48ea477740122fd8]
class VaccinationCenterStore--><g id="elem_VaccinationCenterStore"><rect codeLine="20" fill="#F1F1F1" height="57.6094" id="VaccinationCenterStore" rx="2.5" ry="2.5" style="stroke:#181818;stroke-width:0.5;" width="189" x="7" y="451"/><ellipse cx="25.15" cy="467" fill="#ADD1B2" rx="11" ry="11" style="stroke:#181818;stroke-width:1.0;"/><path d="M27.15,463.5 Q27.3531,463 27.5875,462.75 Q27.8219,462.5 28.0875,462.5 Q28.5563,462.5 28.8531,462.7813 Q29.15,463.0625 29.15,463.7188 L29.15,465.2813 Q29.15,465.9375 28.8688,466.2188 Q28.5875,466.5 28.15,466.5 Q27.7594,466.5 27.5094,466.3281 Q27.2594,466.1563 27.15,465.7031 Q27.1031,465.3906 26.9313,465.2188 Q26.6188,464.8906 26.0563,464.7031 Q25.4938,464.5 24.9313,464.5 Q24.2281,464.5 23.6344,464.7813 Q23.0563,465.0625 22.6031,465.6875 Q22.15,466.3125 22.15,467.1719 L22.15,468.0938 Q22.15,469.125 22.9938,469.8125 Q23.8375,470.5 25.3375,470.5 Q26.2281,470.5 26.8531,470.2969 Q27.2125,470.1875 27.6188,469.8281 Q27.8844,469.625 28.025,469.5625 Q28.1656,469.5 28.3375,469.5 Q28.6656,469.5 28.9,469.7656 Q29.15,470.0156 29.15,470.375 Q29.15,470.7188 28.8063,471.125 Q28.3063,471.7188 27.5094,472.0469 Q26.4625,472.5 25.1813,472.5 Q23.6813,472.5 22.4781,471.9063 Q21.5094,471.4375 20.8219,470.4219 Q20.15,469.4063 20.15,468.2031 L20.15,467.1094 Q20.15,465.8594 20.7438,464.7656 Q21.3531,463.6719 22.4,463.0938 Q23.4625,462.5 24.65,462.5 Q25.3688,462.5 25.9938,462.75 Q26.6188,463 27.15,463.5 Z " fill="#000000"/><text fill="#000000" font-family="sans-serif" font-size="14" lengthAdjust="spacing" textLength="150" x="39.85" y="472.7285">VaccinationCenterStore</text><line style="stroke:#181818;stroke-width:0.5;" x1="8" x2="195" y1="483" y2="483"/><ellipse cx="18" cy="494" fill="#84BE84" rx="3" ry="3" style="stroke:#038048;stroke-width:1.0;"/><text fill="#000000" font-family="sans-serif" font-size="14" lengthAdjust="spacing" textLength="163" x="27" y="501.5332">getVaccinationCenterlist()</text></g><!--MD5=[74755e9918097d06690ab17bc28763b5]
class ScheduledVaccineStore--><g id="elem_ScheduledVaccineStore"><rect codeLine="24" fill="#F1F1F1" height="57.6094" id="ScheduledVaccineStore" rx="2.5" ry="2.5" style="stroke:#181818;stroke-width:0.5;" width="195" x="231" y="451"/><ellipse cx="251.4" cy="467" fill="#ADD1B2" rx="11" ry="11" style="stroke:#181818;stroke-width:1.0;"/><path d="M253.4,463.5 Q253.6031,463 253.8375,462.75 Q254.0719,462.5 254.3375,462.5 Q254.8063,462.5 255.1031,462.7813 Q255.4,463.0625 255.4,463.7188 L255.4,465.2813 Q255.4,465.9375 255.1188,466.2188 Q254.8375,466.5 254.4,466.5 Q254.0094,466.5 253.7594,466.3281 Q253.5094,466.1563 253.4,465.7031 Q253.3531,465.3906 253.1813,465.2188 Q252.8688,464.8906 252.3063,464.7031 Q251.7438,464.5 251.1813,464.5 Q250.4781,464.5 249.8844,464.7813 Q249.3063,465.0625 248.8531,465.6875 Q248.4,466.3125 248.4,467.1719 L248.4,468.0938 Q248.4,469.125 249.2438,469.8125 Q250.0875,470.5 251.5875,470.5 Q252.4781,470.5 253.1031,470.2969 Q253.4625,470.1875 253.8688,469.8281 Q254.1344,469.625 254.275,469.5625 Q254.4156,469.5 254.5875,469.5 Q254.9156,469.5 255.15,469.7656 Q255.4,470.0156 255.4,470.375 Q255.4,470.7188 255.0563,471.125 Q254.5563,471.7188 253.7594,472.0469 Q252.7125,472.5 251.4313,472.5 Q249.9313,472.5 248.7281,471.9063 Q247.7594,471.4375 247.0719,470.4219 Q246.4,469.4063 246.4,468.2031 L246.4,467.1094 Q246.4,465.8594 246.9938,464.7656 Q247.6031,463.6719 248.65,463.0938 Q249.7125,462.5 250.9,462.5 Q251.6188,462.5 252.2438,462.75 Q252.8688,463 253.4,463.5 Z " fill="#000000"/><text fill="#000000" font-family="sans-serif" font-size="14" lengthAdjust="spacing" textLength="151" x="266.6" y="472.7285">ScheduledVaccineStore</text><line style="stroke:#181818;stroke-width:0.5;" x1="232" x2="425" y1="483" y2="483"/><ellipse cx="242" cy="494" fill="#84BE84" rx="3" ry="3" style="stroke:#038048;stroke-width:1.0;"/><text fill="#000000" font-family="sans-serif" font-size="14" lengthAdjust="spacing" textLength="169" x="251" y="501.5332">getScheduledVaccineList()</text></g><!--MD5=[d7a366fe1cc5060c824a64e7c3fcb40b]
class WaitingRoomStore--><g id="elem_WaitingRoomStore"><rect codeLine="28" fill="#F1F1F1" height="57.6094" id="WaitingRoomStore" rx="2.5" ry="2.5" style="stroke:#181818;stroke-width:0.5;" width="150" x="461.5" y="451"/><ellipse cx="476.5" cy="467" fill="#ADD1B2" rx="11" ry="11" style="stroke:#181818;stroke-width:1.0;"/><path d="M478.5,463.5 Q478.7031,463 478.9375,462.75 Q479.1719,462.5 479.4375,462.5 Q479.9063,462.5 480.2031,462.7813 Q480.5,463.0625 480.5,463.7188 L480.5,465.2813 Q480.5,465.9375 480.2188,466.2188 Q479.9375,466.5 479.5,466.5 Q479.1094,466.5 478.8594,466.3281 Q478.6094,466.1563 478.5,465.7031 Q478.4531,465.3906 478.2813,465.2188 Q477.9688,464.8906 477.4063,464.7031 Q476.8438,464.5 476.2813,464.5 Q475.5781,464.5 474.9844,464.7813 Q474.4063,465.0625 473.9531,465.6875 Q473.5,466.3125 473.5,467.1719 L473.5,468.0938 Q473.5,469.125 474.3438,469.8125 Q475.1875,470.5 476.6875,470.5 Q477.5781,470.5 478.2031,470.2969 Q478.5625,470.1875 478.9688,469.8281 Q479.2344,469.625 479.375,469.5625 Q479.5156,469.5 479.6875,469.5 Q480.0156,469.5 480.25,469.7656 Q480.5,470.0156 480.5,470.375 Q480.5,470.7188 480.1563,471.125 Q479.6563,471.7188 478.8594,472.0469 Q477.8125,472.5 476.5313,472.5 Q475.0313,472.5 473.8281,471.9063 Q472.8594,471.4375 472.1719,470.4219 Q471.5,469.4063 471.5,468.2031 L471.5,467.1094 Q471.5,465.8594 472.0938,464.7656 Q472.7031,463.6719 473.75,463.0938 Q474.8125,462.5 476,462.5 Q476.7188,462.5 477.3438,462.75 Q477.9688,463 478.5,463.5 Z " fill="#000000"/><text fill="#000000" font-family="sans-serif" font-size="14" lengthAdjust="spacing" textLength="118" x="490.5" y="472.7285">WaitingRoomStore</text><line style="stroke:#181818;stroke-width:0.5;" x1="462.5" x2="610.5" y1="483" y2="483"/><ellipse cx="472.5" cy="494" fill="#84BE84" rx="3" ry="3" style="stroke:#038048;stroke-width:1.0;"/><text fill="#000000" font-family="sans-serif" font-size="14" lengthAdjust="spacing" textLength="81" x="481.5" y="501.5332">addWaiting()</text></g><!--MD5=[bc254d63b41c5ef900e93dec7eea4530]
link RegisterArrivalUI to RegisterArrivalController--><g id="link_RegisterArrivalUI_RegisterArrivalController"><path codeLine="32" d="M328.5,65.2 C328.5,81.25 328.5,101.85 328.5,120.63 " fill="none" id="RegisterArrivalUI-to-RegisterArrivalController" style="stroke:#181818;stroke-width:1.0;stroke-dasharray:7.0,7.0;"/><polygon fill="#181818" points="328.5,125.87,332.5,116.87,328.5,120.87,324.5,116.87,328.5,125.87" style="stroke:#181818;stroke-width:1.0;"/></g><!--MD5=[d03166d4e5c7687a742efd8891e8e685]
link RegisterArrivalController to Company--><g id="link_RegisterArrivalController_Company"><path codeLine="33" d="M328.5,219.11 C328.5,236.69 328.5,256.87 328.5,274.9 " fill="none" id="RegisterArrivalController-to-Company" style="stroke:#181818;stroke-width:1.0;stroke-dasharray:7.0,7.0;"/><polygon fill="#181818" points="328.5,279.93,332.5,270.93,328.5,274.93,324.5,270.93,328.5,279.93" style="stroke:#181818;stroke-width:1.0;"/></g><!--MD5=[bc0d5b4bfe6e1bf0a8fced13bc4bdd47]
link Company to VaccinationCenterStore--><g id="link_Company_VaccinationCenterStore"><path codeLine="34" d="M260.08,373.16 C223.85,397.34 180.3,426.41 148.02,447.96 " fill="none" id="Company-to-VaccinationCenterStore" style="stroke:#181818;stroke-width:1.0;"/><polygon fill="#181818" points="143.74,450.81,153.4433,449.1228,147.8937,448.0266,148.9899,442.477,143.74,450.81" style="stroke:#181818;stroke-width:1.0;"/><polygon fill="#000000" points="216.3413,414.9517,225.4961,412.3744,222.2328,407.4856,216.3413,414.9517" style="stroke:#000000;stroke-width:1.0;"/><text fill="#000000" font-family="sans-serif" font-size="13" lengthAdjust="spacing" textLength="28" x="229.5" y="417.4951">uses</text><text fill="#000000" font-family="sans-serif" font-size="13" lengthAdjust="spacing" textLength="7" x="242.9663" y="394.3785">1</text><text fill="#000000" font-family="sans-serif" font-size="13" lengthAdjust="spacing" textLength="7" x="145.2144" y="440.251">1</text></g><!--MD5=[803cf34c9dd840cbbee3213c3f100e20]
link Company to ScheduledVaccineStore--><g id="link_Company_ScheduledVaccineStore"><path codeLine="35" d="M328.5,373.37 C328.5,396.65 328.5,424.42 328.5,445.64 " fill="none" id="Company-to-ScheduledVaccineStore" style="stroke:#181818;stroke-width:1.0;"/><polygon fill="#181818" points="328.5,450.89,332.5,441.89,328.5,445.89,324.5,441.89,328.5,450.89" style="stroke:#181818;stroke-width:1.0;"/><polygon fill="#000000" points="333.5,417.1758,336.4389,408.1307,330.5611,408.1307,333.5,417.1758" style="stroke:#000000;stroke-width:1.0;"/><text fill="#000000" font-family="sans-serif" font-size="13" lengthAdjust="spacing" textLength="28" x="342.5" y="417.4951">uses</text><text fill="#000000" font-family="sans-serif" font-size="13" lengthAdjust="spacing" textLength="7" x="321.0297" y="394.2734">1</text><text fill="#000000" font-family="sans-serif" font-size="13" lengthAdjust="spacing" textLength="7" x="320.7344" y="440.3485">1</text></g><!--MD5=[05962c0a9a70769946f1856d7942a74b]
link Company to WaitingRoomStore--><g id="link_Company_WaitingRoomStore"><path codeLine="36" d="M391.19,373.16 C424.25,397.24 463.97,426.17 493.51,447.69 " fill="none" id="Company-to-WaitingRoomStore" style="stroke:#181818;stroke-width:1.0;"/><polygon fill="#181818" points="497.8,450.81,492.8776,442.2794,493.7576,447.8674,488.1696,448.7474,497.8,450.81" style="stroke:#181818;stroke-width:1.0;"/><polygon fill="#000000" points="460.5415,415.1196,454.9607,407.4186,451.5,412.1697,460.5415,415.1196" style="stroke:#000000;stroke-width:1.0;"/><text fill="#000000" font-family="sans-serif" font-size="13" lengthAdjust="spacing" textLength="28" x="465.5" y="417.4951">uses</text><text fill="#000000" font-family="sans-serif" font-size="13" lengthAdjust="spacing" textLength="7" x="392.5136" y="394.3785">1</text><text fill="#000000" font-family="sans-serif" font-size="13" lengthAdjust="spacing" textLength="7" x="481.5688" y="440.251">1</text></g><!--MD5=[68348d5351f698859a74133732ffa642]
@startuml

hide empty members

class RegisterArrivalUI{
+getScheduledVaccinesForCenter(center, date)
}

class RegisterArrivalController{
+getVaccinationCenterlist()
+getScheduledVaccineList()
+addWaiting()
}

class Company{
+getVaccinationCenterlist()
+getScheduledVaccineList()
+addWaiting()
}

class VaccinationCenterStore{
+getVaccinationCenterlist()
}

class ScheduledVaccineStore{
+getScheduledVaccineList()
}

class WaitingRoomStore{
+addWaiting()
}

RegisterArrivalUI ..> RegisterArrivalController
RegisterArrivalController ..> Company
Company "1" - -> "1" VaccinationCenterStore: uses >
Company "1" - -> "1" ScheduledVaccineStore: uses >
Company "1" - -> "1" WaitingRoomStore: uses >

@enduml

PlantUML version 1.2022.5(Sat Apr 30 11:55:52 BST 2022)
(GPL source distribution)
Java Runtime: OpenJDK Runtime Environment
JVM: OpenJDK 64-Bit Server VM
Default Encoding: Cp1252
Language: en
Country: US
--></g></svg>