<?xml version="1.0" encoding="UTF-8" standalone="no"?><svg xmlns="http://www.w3.org/2000/svg" xmlns:xlink="http://www.w3.org/1999/xlink" contentStyleType="text/css" height="478.1px" preserveAspectRatio="none" style="width:993px;height:478px;background:#FFFFFF;" version="1.1" viewBox="0 0 993 478" width="993.3px" zoomAndPan="magnify"><defs/><g><rect fill="#FFFFFF" height="343.4375" style="stroke:#181818;stroke-width:0.6999999999999998;" width="7" x="29.4" y="64.8266"/><rect fill="#FFFFFF" height="84.9844" style="stroke:#181818;stroke-width:0.6999999999999998;" width="7" x="240.8" y="80.4727"/><rect fill="#FFFFFF" height="115.3305" style="stroke:#181818;stroke-width:0.6999999999999998;" width="7" x="240.8" y="186.7031"/><rect fill="#FFFFFF" height="84.9844" style="stroke:#181818;stroke-width:0.6999999999999998;" width="7" x="240.8" y="323.2797"/><rect fill="#FFFFFF" height="42.4922" style="stroke:#181818;stroke-width:0.6999999999999998;" width="7" x="452.2" y="101.7187"/><rect fill="#FFFFFF" height="42.4922" style="stroke:#181818;stroke-width:0.6999999999999998;" width="7" x="452.2" y="207.9492"/><rect fill="#FFFFFF" height="42.4922" style="stroke:#181818;stroke-width:0.6999999999999998;" width="7" x="452.2" y="344.5258"/><rect fill="#FFFFFF" height="21.2461" style="stroke:#181818;stroke-width:0.6999999999999998;" width="7" x="588" y="122.9648"/><rect fill="#FFFFFF" height="21.2461" style="stroke:#181818;stroke-width:0.6999999999999998;" width="7" x="588" y="229.1953"/><rect fill="#FFFFFF" height="21.2461" style="stroke:#181818;stroke-width:0.6999999999999998;" width="7" x="588" y="365.7719"/><line style="stroke:#181818;stroke-width:0.3499999999999999;stroke-dasharray:5.0,5.0;" x1="32.9" x2="32.9" y1="57.8266" y2="420.8641"/><line style="stroke:#181818;stroke-width:0.3499999999999999;stroke-dasharray:5.0,5.0;" x1="243.95" x2="243.95" y1="57.8266" y2="420.8641"/><line style="stroke:#181818;stroke-width:0.3499999999999999;stroke-dasharray:5.0,5.0;" x1="455.35" x2="455.35" y1="57.8266" y2="420.8641"/><line style="stroke:#181818;stroke-width:0.3499999999999999;stroke-dasharray:5.0,5.0;" x1="591.5" x2="591.5" y1="57.8266" y2="420.8641"/><line style="stroke:#181818;stroke-width:0.3499999999999999;stroke-dasharray:5.0,5.0;" x1="726.6" x2="726.6" y1="57.8266" y2="420.8641"/><line style="stroke:#181818;stroke-width:0.3499999999999999;stroke-dasharray:5.0,5.0;" x1="842.1" x2="842.1" y1="57.8266" y2="420.8641"/><line style="stroke:#181818;stroke-width:0.3499999999999999;stroke-dasharray:5.0,5.0;" x1="947.8" x2="947.8" y1="57.8266" y2="420.8641"/><text fill="#000000" font-family="sans-serif" font-size="9.8" lengthAdjust="spacing" textLength="54.6" x="3.5" y="55.6732">Receptionist</text><ellipse cx="32.9" cy="9.45" fill="#E2E2F0" rx="5.6" ry="5.6" style="stroke:#181818;stroke-width:0.3499999999999999;"/><path d="M32.9,15.05 L32.9,33.95 M23.8,20.65 L42,20.65 M32.9,33.95 L23.8,44.45 M32.9,33.95 L42,44.45 " fill="none" style="stroke:#181818;stroke-width:0.3499999999999999;"/><text fill="#000000" font-family="sans-serif" font-size="9.8" lengthAdjust="spacing" textLength="54.6" x="3.5" y="430.3373">Receptionist</text><ellipse cx="32.9" cy="438.4406" fill="#E2E2F0" rx="5.6" ry="5.6" style="stroke:#181818;stroke-width:0.3499999999999999;"/><path d="M32.9,444.0406 L32.9,462.9406 M23.8,449.6406 L42,449.6406 M32.9,462.9406 L23.8,473.4406 M32.9,462.9406 L42,473.4406 " fill="none" style="stroke:#181818;stroke-width:0.3499999999999999;"/><text fill="#000000" font-family="sans-serif" font-size="9.8" lengthAdjust="spacing" textLength="76.3" x="204.05" y="55.6732">:RegisterArrivalUI</text><ellipse cx="244.3" cy="9.45" fill="#E2E2F0" rx="5.6" ry="5.6" style="stroke:#181818;stroke-width:0.3499999999999999;"/><path d="M244.3,15.05 L244.3,33.95 M235.2,20.65 L253.4,20.65 M244.3,33.95 L235.2,44.45 M244.3,33.95 L253.4,44.45 " fill="none" style="stroke:#181818;stroke-width:0.3499999999999999;"/><text fill="#000000" font-family="sans-serif" font-size="9.8" lengthAdjust="spacing" textLength="76.3" x="204.05" y="430.3373">:RegisterArrivalUI</text><ellipse cx="244.3" cy="438.4406" fill="#E2E2F0" rx="5.6" ry="5.6" style="stroke:#181818;stroke-width:0.3499999999999999;"/><path d="M244.3,444.0406 L244.3,462.9406 M235.2,449.6406 L253.4,449.6406 M244.3,462.9406 L235.2,473.4406 M244.3,462.9406 L253.4,473.4406 " fill="none" style="stroke:#181818;stroke-width:0.3499999999999999;"/><text fill="#000000" font-family="sans-serif" font-size="9.8" lengthAdjust="spacing" textLength="111.3" x="397.95" y="55.6732">:RegisterArrivalController</text><ellipse cx="455.7" cy="9.45" fill="#E2E2F0" rx="5.6" ry="5.6" style="stroke:#181818;stroke-width:0.3499999999999999;"/><path d="M455.7,15.05 L455.7,33.95 M446.6,20.65 L464.8,20.65 M455.7,33.95 L446.6,44.45 M455.7,33.95 L464.8,44.45 " fill="none" style="stroke:#181818;stroke-width:0.3499999999999999;"/><text fill="#000000" font-family="sans-serif" font-size="9.8" lengthAdjust="spacing" textLength="111.3" x="397.95" y="430.3373">:RegisterArrivalController</text><ellipse cx="455.7" cy="438.4406" fill="#E2E2F0" rx="5.6" ry="5.6" style="stroke:#181818;stroke-width:0.3499999999999999;"/><path d="M455.7,444.0406 L455.7,462.9406 M446.6,449.6406 L464.8,449.6406 M455.7,462.9406 L446.6,473.4406 M455.7,462.9406 L464.8,473.4406 " fill="none" style="stroke:#181818;stroke-width:0.3499999999999999;"/><text fill="#000000" font-family="sans-serif" font-size="9.8" lengthAdjust="spacing" textLength="44.8" x="567" y="55.6732">:Company</text><ellipse cx="591.5" cy="9.45" fill="#E2E2F0" rx="5.6" ry="5.6" style="stroke:#181818;stroke-width:0.3499999999999999;"/><path d="M591.5,15.05 L591.5,33.95 M582.4,20.65 L600.6,20.65 M591.5,33.95 L582.4,44.45 M591.5,33.95 L600.6,44.45 " fill="none" style="stroke:#181818;stroke-width:0.3499999999999999;"/><text fill="#000000" font-family="sans-serif" font-size="9.8" lengthAdjust="spacing" textLength="44.8" x="567" y="430.3373">:Company</text><ellipse cx="591.5" cy="438.4406" fill="#E2E2F0" rx="5.6" ry="5.6" style="stroke:#181818;stroke-width:0.3499999999999999;"/><path d="M591.5,444.0406 L591.5,462.9406 M582.4,449.6406 L600.6,449.6406 M591.5,462.9406 L582.4,473.4406 M591.5,462.9406 L600.6,473.4406 " fill="none" style="stroke:#181818;stroke-width:0.3499999999999999;"/><text fill="#000000" font-family="sans-serif" font-size="9.8" lengthAdjust="spacing" textLength="106.4" x="671.3" y="55.6732">:vaccinationCenterStore</text><ellipse cx="726.6" cy="9.45" fill="#E2E2F0" rx="5.6" ry="5.6" style="stroke:#181818;stroke-width:0.3499999999999999;"/><path d="M726.6,15.05 L726.6,33.95 M717.5,20.65 L735.7,20.65 M726.6,33.95 L717.5,44.45 M726.6,33.95 L735.7,44.45 " fill="none" style="stroke:#181818;stroke-width:0.3499999999999999;"/><text fill="#000000" font-family="sans-serif" font-size="9.8" lengthAdjust="spacing" textLength="106.4" x="671.3" y="430.3373">:vaccinationCenterStore</text><ellipse cx="726.6" cy="438.4406" fill="#E2E2F0" rx="5.6" ry="5.6" style="stroke:#181818;stroke-width:0.3499999999999999;"/><path d="M726.6,444.0406 L726.6,462.9406 M717.5,449.6406 L735.7,449.6406 M726.6,462.9406 L717.5,473.4406 M726.6,462.9406 L735.7,473.4406 " fill="none" style="stroke:#181818;stroke-width:0.3499999999999999;"/><text fill="#000000" font-family="sans-serif" font-size="9.8" lengthAdjust="spacing" textLength="102.9" x="788.9" y="55.6732">:ScheduleVaccineStore</text><ellipse cx="842.45" cy="9.45" fill="#E2E2F0" rx="5.6" ry="5.6" style="stroke:#181818;stroke-width:0.3499999999999999;"/><path d="M842.45,15.05 L842.45,33.95 M833.35,20.65 L851.55,20.65 M842.45,33.95 L833.35,44.45 M842.45,33.95 L851.55,44.45 " fill="none" style="stroke:#181818;stroke-width:0.3499999999999999;"/><text fill="#000000" font-family="sans-serif" font-size="9.8" lengthAdjust="spacing" textLength="102.9" x="788.9" y="430.3373">:ScheduleVaccineStore</text><ellipse cx="842.45" cy="438.4406" fill="#E2E2F0" rx="5.6" ry="5.6" style="stroke:#181818;stroke-width:0.3499999999999999;"/><path d="M842.45,444.0406 L842.45,462.9406 M833.35,449.6406 L851.55,449.6406 M842.45,462.9406 L833.35,473.4406 M842.45,462.9406 L851.55,473.4406 " fill="none" style="stroke:#181818;stroke-width:0.3499999999999999;"/><text fill="#000000" font-family="sans-serif" font-size="9.8" lengthAdjust="spacing" textLength="85.4" x="903" y="55.6732">:WaitingRoomStore</text><ellipse cx="947.8" cy="9.45" fill="#E2E2F0" rx="5.6" ry="5.6" style="stroke:#181818;stroke-width:0.3499999999999999;"/><path d="M947.8,15.05 L947.8,33.95 M938.7,20.65 L956.9,20.65 M947.8,33.95 L938.7,44.45 M947.8,33.95 L956.9,44.45 " fill="none" style="stroke:#181818;stroke-width:0.3499999999999999;"/><text fill="#000000" font-family="sans-serif" font-size="9.8" lengthAdjust="spacing" textLength="85.4" x="903" y="430.3373">:WaitingRoomStore</text><ellipse cx="947.8" cy="438.4406" fill="#E2E2F0" rx="5.6" ry="5.6" style="stroke:#181818;stroke-width:0.3499999999999999;"/><path d="M947.8,444.0406 L947.8,462.9406 M938.7,449.6406 L956.9,449.6406 M947.8,462.9406 L938.7,473.4406 M947.8,462.9406 L956.9,473.4406 " fill="none" style="stroke:#181818;stroke-width:0.3499999999999999;"/><rect fill="#FFFFFF" height="343.4375" style="stroke:#181818;stroke-width:0.6999999999999998;" width="7" x="29.4" y="64.8266"/><rect fill="#FFFFFF" height="84.9844" style="stroke:#181818;stroke-width:0.6999999999999998;" width="7" x="240.8" y="80.4727"/><rect fill="#FFFFFF" height="115.3305" style="stroke:#181818;stroke-width:0.6999999999999998;" width="7" x="240.8" y="186.7031"/><rect fill="#FFFFFF" height="84.9844" style="stroke:#181818;stroke-width:0.6999999999999998;" width="7" x="240.8" y="323.2797"/><rect fill="#FFFFFF" height="42.4922" style="stroke:#181818;stroke-width:0.6999999999999998;" width="7" x="452.2" y="101.7187"/><rect fill="#FFFFFF" height="42.4922" style="stroke:#181818;stroke-width:0.6999999999999998;" width="7" x="452.2" y="207.9492"/><rect fill="#FFFFFF" height="42.4922" style="stroke:#181818;stroke-width:0.6999999999999998;" width="7" x="452.2" y="344.5258"/><rect fill="#FFFFFF" height="21.2461" style="stroke:#181818;stroke-width:0.6999999999999998;" width="7" x="588" y="122.9648"/><rect fill="#FFFFFF" height="21.2461" style="stroke:#181818;stroke-width:0.6999999999999998;" width="7" x="588" y="229.1953"/><rect fill="#FFFFFF" height="21.2461" style="stroke:#181818;stroke-width:0.6999999999999998;" width="7" x="588" y="365.7719"/><polygon fill="#181818" points="232.4,77.6727,239.4,80.4727,232.4,83.2727,235.2,80.4727" style="stroke:#181818;stroke-width:0.6999999999999998;"/><line style="stroke:#181818;stroke-width:0.6999999999999998;" x1="36.4" x2="236.6" y1="80.4727" y2="80.4727"/><text fill="#000000" font-family="sans-serif" font-size="9.1" font-weight="bold" lengthAdjust="spacing" textLength="4.9" x="41.3" y="77.0731">1</text><text fill="#000000" font-family="sans-serif" font-size="9.1" lengthAdjust="spacing" textLength="179.9" x="49" y="77.0731">asks to check the user into the waiting room</text><polygon fill="#181818" points="443.8,98.9187,450.8,101.7187,443.8,104.5187,446.6,101.7187" style="stroke:#181818;stroke-width:0.6999999999999998;"/><line style="stroke:#181818;stroke-width:0.6999999999999998;" x1="247.8" x2="448" y1="101.7187" y2="101.7187"/><text fill="#000000" font-family="sans-serif" font-size="9.1" font-weight="bold" lengthAdjust="spacing" textLength="4.9" x="252.7" y="98.3192">2</text><text fill="#000000" font-family="sans-serif" font-size="9.1" lengthAdjust="spacing" textLength="107.1" x="260.4" y="98.3192">getVaccinationCenterList()</text><polygon fill="#181818" points="579.6,120.1648,586.6,122.9648,579.6,125.7648,582.4,122.9648" style="stroke:#181818;stroke-width:0.6999999999999998;"/><line style="stroke:#181818;stroke-width:0.6999999999999998;" x1="459.2" x2="583.8" y1="122.9648" y2="122.9648"/><text fill="#000000" font-family="sans-serif" font-size="9.1" font-weight="bold" lengthAdjust="spacing" textLength="4.9" x="464.1" y="119.5653">3</text><text fill="#000000" font-family="sans-serif" font-size="9.1" lengthAdjust="spacing" textLength="107.1" x="471.8" y="119.5653">getVaccinationCenterList()</text><polygon fill="#181818" points="718.2,141.4109,725.2,144.2109,718.2,147.0109,721,144.2109" style="stroke:#181818;stroke-width:0.6999999999999998;"/><line style="stroke:#181818;stroke-width:0.6999999999999998;" x1="591.5" x2="722.4" y1="144.2109" y2="144.2109"/><text fill="#000000" font-family="sans-serif" font-size="9.1" font-weight="bold" lengthAdjust="spacing" textLength="4.9" x="596.4" y="140.8114">4</text><text fill="#000000" font-family="sans-serif" font-size="9.1" lengthAdjust="spacing" textLength="107.1" x="604.1" y="140.8114">getVaccinationCenterList()</text><polygon fill="#181818" points="44.1,162.657,37.1,165.457,44.1,168.257,41.3,165.457" style="stroke:#181818;stroke-width:0.6999999999999998;"/><line style="stroke:#181818;stroke-width:0.6999999999999998;stroke-dasharray:2.0,2.0;" x1="39.9" x2="243.6" y1="165.457" y2="165.457"/><text fill="#000000" font-family="sans-serif" font-size="9.1" font-weight="bold" lengthAdjust="spacing" textLength="4.9" x="48.3" y="162.0575">5</text><text fill="#000000" font-family="sans-serif" font-size="9.1" lengthAdjust="spacing" textLength="110.6" x="56" y="162.0575">shows centers for selection</text><polygon fill="#181818" points="232.4,183.9031,239.4,186.7031,232.4,189.5031,235.2,186.7031" style="stroke:#181818;stroke-width:0.6999999999999998;"/><line style="stroke:#181818;stroke-width:0.6999999999999998;" x1="36.4" x2="236.6" y1="186.7031" y2="186.7031"/><text fill="#000000" font-family="sans-serif" font-size="9.1" font-weight="bold" lengthAdjust="spacing" textLength="4.9" x="41.3" y="183.3036">6</text><text fill="#000000" font-family="sans-serif" font-size="9.1" lengthAdjust="spacing" textLength="105" x="49" y="183.3036">selects vaccination center</text><polygon fill="#181818" points="443.8,205.1492,450.8,207.9492,443.8,210.7492,446.6,207.9492" style="stroke:#181818;stroke-width:0.6999999999999998;"/><line style="stroke:#181818;stroke-width:0.6999999999999998;" x1="247.8" x2="448" y1="207.9492" y2="207.9492"/><text fill="#000000" font-family="sans-serif" font-size="9.1" font-weight="bold" lengthAdjust="spacing" textLength="4.9" x="252.7" y="204.5497">7</text><text fill="#000000" font-family="sans-serif" font-size="9.1" lengthAdjust="spacing" textLength="103.6" x="260.4" y="204.5497">getScheduleVaccineList()</text><polygon fill="#181818" points="579.6,226.3953,586.6,229.1953,579.6,231.9953,582.4,229.1953" style="stroke:#181818;stroke-width:0.6999999999999998;"/><line style="stroke:#181818;stroke-width:0.6999999999999998;" x1="459.2" x2="583.8" y1="229.1953" y2="229.1953"/><text fill="#000000" font-family="sans-serif" font-size="9.1" font-weight="bold" lengthAdjust="spacing" textLength="4.9" x="464.1" y="225.7958">8</text><text fill="#000000" font-family="sans-serif" font-size="9.1" lengthAdjust="spacing" textLength="103.6" x="471.8" y="225.7958">getScheduleVaccineList()</text><polygon fill="#181818" points="834.05,247.6414,841.05,250.4414,834.05,253.2414,836.85,250.4414" style="stroke:#181818;stroke-width:0.6999999999999998;"/><line style="stroke:#181818;stroke-width:0.6999999999999998;" x1="591.5" x2="838.25" y1="250.4414" y2="250.4414"/><text fill="#000000" font-family="sans-serif" font-size="9.1" font-weight="bold" lengthAdjust="spacing" textLength="4.9" x="596.4" y="247.0419">9</text><text fill="#000000" font-family="sans-serif" font-size="9.1" lengthAdjust="spacing" textLength="103.6" x="604.1" y="247.0419">getScheduleVaccineList()</text><line style="stroke:#181818;stroke-width:0.6999999999999998;" x1="247.8" x2="277.2" y1="271.6875" y2="271.6875"/><line style="stroke:#181818;stroke-width:0.6999999999999998;" x1="277.2" x2="277.2" y1="271.6875" y2="280.7875"/><line style="stroke:#181818;stroke-width:0.6999999999999998;" x1="248.5" x2="277.2" y1="280.7875" y2="280.7875"/><polygon fill="#181818" points="255.5,277.9875,248.5,280.7875,255.5,283.5875,252.7,280.7875" style="stroke:#181818;stroke-width:0.6999999999999998;"/><text fill="#000000" font-family="sans-serif" font-size="9.1" font-weight="bold" lengthAdjust="spacing" textLength="9.8" x="252.7" y="268.288">10</text><text fill="#000000" font-family="sans-serif" font-size="9.1" lengthAdjust="spacing" textLength="182" x="265.3" y="268.288">getScheduleVaccinesForCenter(center, date)</text><polygon fill="#181818" points="44.1,299.2336,37.1,302.0336,44.1,304.8336,41.3,302.0336" style="stroke:#181818;stroke-width:0.6999999999999998;"/><line style="stroke:#181818;stroke-width:0.6999999999999998;stroke-dasharray:2.0,2.0;" x1="39.9" x2="243.6" y1="302.0336" y2="302.0336"/><text fill="#000000" font-family="sans-serif" font-size="9.1" font-weight="bold" lengthAdjust="spacing" textLength="9.8" x="48.3" y="298.6341">11</text><text fill="#000000" font-family="sans-serif" font-size="9.1" lengthAdjust="spacing" textLength="175" x="60.9" y="298.6341">shows appointments for relevant time frame</text><polygon fill="#181818" points="232.4,320.4797,239.4,323.2797,232.4,326.0797,235.2,323.2797" style="stroke:#181818;stroke-width:0.6999999999999998;"/><line style="stroke:#181818;stroke-width:0.6999999999999998;" x1="36.4" x2="236.6" y1="323.2797" y2="323.2797"/><text fill="#000000" font-family="sans-serif" font-size="9.1" font-weight="bold" lengthAdjust="spacing" textLength="9.8" x="41.3" y="319.8802">12</text><text fill="#000000" font-family="sans-serif" font-size="9.1" lengthAdjust="spacing" textLength="142.1" x="53.9" y="319.8802">selects user to add to waiting room</text><polygon fill="#181818" points="443.8,341.7258,450.8,344.5258,443.8,347.3258,446.6,344.5258" style="stroke:#181818;stroke-width:0.6999999999999998;"/><line style="stroke:#181818;stroke-width:0.6999999999999998;" x1="247.8" x2="448" y1="344.5258" y2="344.5258"/><text fill="#000000" font-family="sans-serif" font-size="9.1" font-weight="bold" lengthAdjust="spacing" textLength="9.8" x="252.7" y="341.1263">13</text><text fill="#000000" font-family="sans-serif" font-size="9.1" lengthAdjust="spacing" textLength="51.1" x="265.3" y="341.1263">addWaiting()</text><polygon fill="#181818" points="579.6,362.9719,586.6,365.7719,579.6,368.5719,582.4,365.7719" style="stroke:#181818;stroke-width:0.6999999999999998;"/><line style="stroke:#181818;stroke-width:0.6999999999999998;" x1="459.2" x2="583.8" y1="365.7719" y2="365.7719"/><text fill="#000000" font-family="sans-serif" font-size="9.1" font-weight="bold" lengthAdjust="spacing" textLength="9.8" x="464.1" y="362.3724">14</text><text fill="#000000" font-family="sans-serif" font-size="9.1" lengthAdjust="spacing" textLength="102.9" x="476.7" y="362.3724">addWaiting(waitingRoom)</text><polygon fill="#181818" points="939.4,384.218,946.4,387.018,939.4,389.818,942.2,387.018" style="stroke:#181818;stroke-width:0.6999999999999998;"/><line style="stroke:#181818;stroke-width:0.6999999999999998;" x1="591.5" x2="943.6" y1="387.018" y2="387.018"/><text fill="#000000" font-family="sans-serif" font-size="9.1" font-weight="bold" lengthAdjust="spacing" textLength="9.8" x="596.4" y="383.6185">15</text><text fill="#000000" font-family="sans-serif" font-size="9.1" lengthAdjust="spacing" textLength="102.9" x="609" y="383.6185">addWaiting(waitingRoom)</text><polygon fill="#181818" points="40.6,405.4641,33.6,408.2641,40.6,411.0641,37.8,408.2641" style="stroke:#181818;stroke-width:0.6999999999999998;"/><line style="stroke:#181818;stroke-width:0.6999999999999998;stroke-dasharray:2.0,2.0;" x1="36.4" x2="243.6" y1="408.2641" y2="408.2641"/><text fill="#000000" font-family="sans-serif" font-size="9.1" font-weight="bold" lengthAdjust="spacing" textLength="9.8" x="44.8" y="404.8646">16</text><text fill="#000000" font-family="sans-serif" font-size="9.1" lengthAdjust="spacing" textLength="86.8" x="57.4" y="404.8646">informs user is added</text><!--MD5=[595f6058126b78ebbb090b1230be9f42]
@startuml
autonumber
actor "Receptionist" as rec
actor ":RegisterArrivalUI" as ui
actor ":RegisterArrivalController" as con
actor ":Company" as com
actor ":vaccinationCenterStore" as vcs
actor ":ScheduleVaccineStore" as svs
actor ":WaitingRoomStore" as wrs

activate rec
rec -> ui : asks to check the user into the waiting room
activate ui
ui -> con : getVaccinationCenterList()
activate con
con -> com : getVaccinationCenterList()
activate com
com ->vcs : getVaccinationCenterList()
deactivate com
deactivate con
ui - -> rec : shows centers for selection
deactivate ui

rec -> ui : selects vaccination center
activate ui
ui -> con : getScheduleVaccineList()
activate con
con -> com : getScheduleVaccineList()
activate com
com -> svs : getScheduleVaccineList()
deactivate com
deactivate con
ui ->ui : getScheduleVaccinesForCenter(center, date)
ui - -> rec : shows appointments for relevant time frame
deactivate ui

rec -> ui : selects user to add to waiting room
activate ui
ui -> con : addWaiting()
activate con
con -> com: addWaiting(waitingRoom)
activate com
com -> wrs : addWaiting(waitingRoom)
deactivate com
deactivate con 
ui - -> rec : informs user is added
deactivate ui


deactivate rec

@enduml

PlantUML version 1.2022.5(Sat Apr 30 11:55:52 BST 2022)
(GPL source distribution)
Java Runtime: OpenJDK Runtime Environment
JVM: OpenJDK 64-Bit Server VM
Default Encoding: Cp1252
Language: en
Country: US
--></g></svg>