<?xml version="1.0" encoding="UTF-8" standalone="no"?><svg xmlns="http://www.w3.org/2000/svg" xmlns:xlink="http://www.w3.org/1999/xlink" contentStyleType="text/css" height="334px" preserveAspectRatio="none" style="width:1712px;height:334px;background:#FFFFFF;" version="1.1" viewBox="0 0 1712 334" width="1712px" zoomAndPan="magnify"><defs/><g><!--MD5=[5aecfecce2893a859b853b099e7cb163]
class SNSUserUI--><g id="elem_SNSUserUI"><rect codeLine="4" fill="#F1F1F1" height="65.6094" id="SNSUserUI" rx="2.5" ry="2.5" style="stroke:#181818;stroke-width:0.5;" width="225" x="7" y="127.5"/><ellipse cx="81.25" cy="143.5" fill="#ADD1B2" rx="11" ry="11" style="stroke:#181818;stroke-width:1.0;"/><path d="M83.25,140 Q83.4531,139.5 83.6875,139.25 Q83.9219,139 84.1875,139 Q84.6563,139 84.9531,139.2813 Q85.25,139.5625 85.25,140.2188 L85.25,141.7813 Q85.25,142.4375 84.9688,142.7188 Q84.6875,143 84.25,143 Q83.8594,143 83.6094,142.8281 Q83.3594,142.6563 83.25,142.2031 Q83.2031,141.8906 83.0313,141.7188 Q82.7188,141.3906 82.1563,141.2031 Q81.5938,141 81.0313,141 Q80.3281,141 79.7344,141.2813 Q79.1563,141.5625 78.7031,142.1875 Q78.25,142.8125 78.25,143.6719 L78.25,144.5938 Q78.25,145.625 79.0938,146.3125 Q79.9375,147 81.4375,147 Q82.3281,147 82.9531,146.7969 Q83.3125,146.6875 83.7188,146.3281 Q83.9844,146.125 84.125,146.0625 Q84.2656,146 84.4375,146 Q84.7656,146 85,146.2656 Q85.25,146.5156 85.25,146.875 Q85.25,147.2188 84.9063,147.625 Q84.4063,148.2188 83.6094,148.5469 Q82.5625,149 81.2813,149 Q79.7813,149 78.5781,148.4063 Q77.6094,147.9375 76.9219,146.9219 Q76.25,145.9063 76.25,144.7031 L76.25,143.6094 Q76.25,142.3594 76.8438,141.2656 Q77.4531,140.1719 78.5,139.5938 Q79.5625,139 80.75,139 Q81.4688,139 82.0938,139.25 Q82.7188,139.5 83.25,140 Z " fill="#000000"/><text fill="#000000" font-family="sans-serif" font-size="14" lengthAdjust="spacing" textLength="68" x="101.75" y="149.2285">SNSUserUI</text><line style="stroke:#181818;stroke-width:0.5;" x1="8" x2="231" y1="159.5" y2="159.5"/><text fill="#000000" font-family="sans-serif" font-size="14" lengthAdjust="spacing" textLength="213" x="13" y="178.0332">SpecifyNewSNSUserController ctrl</text><line style="stroke:#181818;stroke-width:0.5;" x1="8" x2="231" y1="185.1094" y2="185.1094"/></g><!--MD5=[ef9007883e8308b904c8dd3f6418e3c0]
class SpecifyNewSNSUserController--><g id="elem_SpecifyNewSNSUserController"><rect codeLine="7" fill="#F1F1F1" height="136.0469" id="SpecifyNewSNSUserController" rx="2.5" ry="2.5" style="stroke:#181818;stroke-width:0.5;" width="415" x="293" y="92.5"/><ellipse cx="401.25" cy="108.5" fill="#ADD1B2" rx="11" ry="11" style="stroke:#181818;stroke-width:1.0;"/><path d="M403.25,105 Q403.4531,104.5 403.6875,104.25 Q403.9219,104 404.1875,104 Q404.6563,104 404.9531,104.2813 Q405.25,104.5625 405.25,105.2188 L405.25,106.7813 Q405.25,107.4375 404.9688,107.7188 Q404.6875,108 404.25,108 Q403.8594,108 403.6094,107.8281 Q403.3594,107.6563 403.25,107.2031 Q403.2031,106.8906 403.0313,106.7188 Q402.7188,106.3906 402.1563,106.2031 Q401.5938,106 401.0313,106 Q400.3281,106 399.7344,106.2813 Q399.1563,106.5625 398.7031,107.1875 Q398.25,107.8125 398.25,108.6719 L398.25,109.5938 Q398.25,110.625 399.0938,111.3125 Q399.9375,112 401.4375,112 Q402.3281,112 402.9531,111.7969 Q403.3125,111.6875 403.7188,111.3281 Q403.9844,111.125 404.125,111.0625 Q404.2656,111 404.4375,111 Q404.7656,111 405,111.2656 Q405.25,111.5156 405.25,111.875 Q405.25,112.2188 404.9063,112.625 Q404.4063,113.2188 403.6094,113.5469 Q402.5625,114 401.2813,114 Q399.7813,114 398.5781,113.4063 Q397.6094,112.9375 396.9219,111.9219 Q396.25,110.9063 396.25,109.7031 L396.25,108.6094 Q396.25,107.3594 396.8438,106.2656 Q397.4531,105.1719 398.5,104.5938 Q399.5625,104 400.75,104 Q401.4688,104 402.0938,104.25 Q402.7188,104.5 403.25,105 Z " fill="#000000"/><text fill="#000000" font-family="sans-serif" font-size="14" lengthAdjust="spacing" textLength="190" x="421.75" y="114.2285">SpecifyNewSNSUserController</text><line style="stroke:#181818;stroke-width:0.5;" x1="294" x2="707" y1="124.5" y2="124.5"/><text fill="#000000" font-family="sans-serif" font-size="14" lengthAdjust="spacing" textLength="121" x="299" y="143.0332">Company company</text><text fill="#000000" font-family="sans-serif" font-size="14" lengthAdjust="spacing" textLength="90" x="299" y="160.6426">SNSUser snsu</text><line style="stroke:#181818;stroke-width:0.5;" x1="294" x2="707" y1="167.7188" y2="167.7188"/><text fill="#000000" font-family="sans-serif" font-size="14" lengthAdjust="spacing" textLength="399" x="299" y="186.252">+createSNSUser(name, address, genderOption, phoneNumber,</text><text fill="#000000" font-family="sans-serif" font-size="14" lengthAdjust="spacing" textLength="315" x="299" y="203.8613">email, birthDate, SNSNumber, citizenCardNumber)</text><text fill="#000000" font-family="sans-serif" font-size="14" lengthAdjust="spacing" textLength="104" x="299" y="221.4707">+saveSNSUser()</text></g><!--MD5=[a5ad3856b0c65e07b10297b4477b22bb]
class SNSUserStore--><g id="elem_SNSUserStore"><rect codeLine="13" fill="#F1F1F1" height="100.8281" id="SNSUserStore" rx="2.5" ry="2.5" style="stroke:#181818;stroke-width:0.5;" width="201" x="1188.5" y="7"/><ellipse cx="1239.75" cy="23" fill="#ADD1B2" rx="11" ry="11" style="stroke:#181818;stroke-width:1.0;"/><path d="M1241.75,19.5 Q1241.9531,19 1242.1875,18.75 Q1242.4219,18.5 1242.6875,18.5 Q1243.1563,18.5 1243.4531,18.7813 Q1243.75,19.0625 1243.75,19.7188 L1243.75,21.2813 Q1243.75,21.9375 1243.4688,22.2188 Q1243.1875,22.5 1242.75,22.5 Q1242.3594,22.5 1242.1094,22.3281 Q1241.8594,22.1563 1241.75,21.7031 Q1241.7031,21.3906 1241.5313,21.2188 Q1241.2188,20.8906 1240.6563,20.7031 Q1240.0938,20.5 1239.5313,20.5 Q1238.8281,20.5 1238.2344,20.7813 Q1237.6563,21.0625 1237.2031,21.6875 Q1236.75,22.3125 1236.75,23.1719 L1236.75,24.0938 Q1236.75,25.125 1237.5938,25.8125 Q1238.4375,26.5 1239.9375,26.5 Q1240.8281,26.5 1241.4531,26.2969 Q1241.8125,26.1875 1242.2188,25.8281 Q1242.4844,25.625 1242.625,25.5625 Q1242.7656,25.5 1242.9375,25.5 Q1243.2656,25.5 1243.5,25.7656 Q1243.75,26.0156 1243.75,26.375 Q1243.75,26.7188 1243.4063,27.125 Q1242.9063,27.7188 1242.1094,28.0469 Q1241.0625,28.5 1239.7813,28.5 Q1238.2813,28.5 1237.0781,27.9063 Q1236.1094,27.4375 1235.4219,26.4219 Q1234.75,25.4063 1234.75,24.2031 L1234.75,23.1094 Q1234.75,21.8594 1235.3438,20.7656 Q1235.9531,19.6719 1237,19.0938 Q1238.0625,18.5 1239.25,18.5 Q1239.9688,18.5 1240.5938,18.75 Q1241.2188,19 1241.75,19.5 Z " fill="#000000"/><text fill="#000000" font-family="sans-serif" font-size="14" lengthAdjust="spacing" textLength="90" x="1260.25" y="28.7285">SNSUserStore</text><line style="stroke:#181818;stroke-width:0.5;" x1="1189.5" x2="1388.5" y1="39" y2="39"/><text fill="#000000" font-family="sans-serif" font-size="14" lengthAdjust="spacing" textLength="171" x="1194.5" y="57.5332">List&lt;SNSUser&gt; snsUserList</text><line style="stroke:#181818;stroke-width:0.5;" x1="1189.5" x2="1388.5" y1="64.6094" y2="64.6094"/><text fill="#000000" font-family="sans-serif" font-size="14" lengthAdjust="spacing" textLength="128" x="1194.5" y="83.1426">+addSNSUser(snsu)</text><text fill="#000000" font-family="sans-serif" font-size="14" lengthAdjust="spacing" textLength="189" x="1194.5" y="100.752">+generateRandomPassword()</text></g><!--MD5=[02e4b9b7573f1156f41e60aa5b4e25a4]
class Company--><g id="elem_Company"><rect codeLine="18" fill="#F1F1F1" height="83.2188" id="Company" rx="2.5" ry="2.5" style="stroke:#181818;stroke-width:0.5;" width="191" x="769" y="119"/><ellipse cx="830.25" cy="135" fill="#ADD1B2" rx="11" ry="11" style="stroke:#181818;stroke-width:1.0;"/><path d="M832.25,131.5 Q832.4531,131 832.6875,130.75 Q832.9219,130.5 833.1875,130.5 Q833.6563,130.5 833.9531,130.7813 Q834.25,131.0625 834.25,131.7188 L834.25,133.2813 Q834.25,133.9375 833.9688,134.2188 Q833.6875,134.5 833.25,134.5 Q832.8594,134.5 832.6094,134.3281 Q832.3594,134.1563 832.25,133.7031 Q832.2031,133.3906 832.0313,133.2188 Q831.7188,132.8906 831.1563,132.7031 Q830.5938,132.5 830.0313,132.5 Q829.3281,132.5 828.7344,132.7813 Q828.1563,133.0625 827.7031,133.6875 Q827.25,134.3125 827.25,135.1719 L827.25,136.0938 Q827.25,137.125 828.0938,137.8125 Q828.9375,138.5 830.4375,138.5 Q831.3281,138.5 831.9531,138.2969 Q832.3125,138.1875 832.7188,137.8281 Q832.9844,137.625 833.125,137.5625 Q833.2656,137.5 833.4375,137.5 Q833.7656,137.5 834,137.7656 Q834.25,138.0156 834.25,138.375 Q834.25,138.7188 833.9063,139.125 Q833.4063,139.7188 832.6094,140.0469 Q831.5625,140.5 830.2813,140.5 Q828.7813,140.5 827.5781,139.9063 Q826.6094,139.4375 825.9219,138.4219 Q825.25,137.4063 825.25,136.2031 L825.25,135.1094 Q825.25,133.8594 825.8438,132.7656 Q826.4531,131.6719 827.5,131.0938 Q828.5625,130.5 829.75,130.5 Q830.4688,130.5 831.0938,130.75 Q831.7188,131 832.25,131.5 Z " fill="#000000"/><text fill="#000000" font-family="sans-serif" font-size="14" lengthAdjust="spacing" textLength="60" x="850.75" y="140.7285">Company</text><line style="stroke:#181818;stroke-width:0.5;" x1="770" x2="959" y1="151" y2="151"/><text fill="#000000" font-family="sans-serif" font-size="14" lengthAdjust="spacing" textLength="179" x="775" y="169.5332">SNSUserStore snsUserStore</text><line style="stroke:#181818;stroke-width:0.5;" x1="770" x2="959" y1="176.6094" y2="176.6094"/><text fill="#000000" font-family="sans-serif" font-size="14" lengthAdjust="spacing" textLength="104" x="775" y="195.1426">+saveSNSUser()</text></g><!--MD5=[72be06cc7ae02ccc98efe28a50e62246]
class SNSUser--><g id="elem_SNSUser"><rect codeLine="23" fill="#F1F1F1" height="188.875" id="SNSUser" rx="2.5" ry="2.5" style="stroke:#181818;stroke-width:0.5;" width="136" x="1569" y="139"/><ellipse cx="1605.6" cy="155" fill="#ADD1B2" rx="11" ry="11" style="stroke:#181818;stroke-width:1.0;"/><path d="M1607.6,151.5 Q1607.8031,151 1608.0375,150.75 Q1608.2719,150.5 1608.5375,150.5 Q1609.0063,150.5 1609.3031,150.7813 Q1609.6,151.0625 1609.6,151.7188 L1609.6,153.2813 Q1609.6,153.9375 1609.3188,154.2188 Q1609.0375,154.5 1608.6,154.5 Q1608.2094,154.5 1607.9594,154.3281 Q1607.7094,154.1563 1607.6,153.7031 Q1607.5531,153.3906 1607.3813,153.2188 Q1607.0688,152.8906 1606.5063,152.7031 Q1605.9438,152.5 1605.3813,152.5 Q1604.6781,152.5 1604.0844,152.7813 Q1603.5063,153.0625 1603.0531,153.6875 Q1602.6,154.3125 1602.6,155.1719 L1602.6,156.0938 Q1602.6,157.125 1603.4438,157.8125 Q1604.2875,158.5 1605.7875,158.5 Q1606.6781,158.5 1607.3031,158.2969 Q1607.6625,158.1875 1608.0688,157.8281 Q1608.3344,157.625 1608.475,157.5625 Q1608.6156,157.5 1608.7875,157.5 Q1609.1156,157.5 1609.35,157.7656 Q1609.6,158.0156 1609.6,158.375 Q1609.6,158.7188 1609.2563,159.125 Q1608.7563,159.7188 1607.9594,160.0469 Q1606.9125,160.5 1605.6313,160.5 Q1604.1313,160.5 1602.9281,159.9063 Q1601.9594,159.4375 1601.2719,158.4219 Q1600.6,157.4063 1600.6,156.2031 L1600.6,155.1094 Q1600.6,153.8594 1601.1938,152.7656 Q1601.8031,151.6719 1602.85,151.0938 Q1603.9125,150.5 1605.1,150.5 Q1605.8188,150.5 1606.4438,150.75 Q1607.0688,151 1607.6,151.5 Z " fill="#000000"/><text fill="#000000" font-family="sans-serif" font-size="14" lengthAdjust="spacing" textLength="56" x="1624.4" y="160.7285">SNSUser</text><line style="stroke:#181818;stroke-width:0.5;" x1="1570" x2="1704" y1="171" y2="171"/><text fill="#000000" font-family="sans-serif" font-size="14" lengthAdjust="spacing" textLength="40" x="1575" y="189.5332">-name</text><text fill="#000000" font-family="sans-serif" font-size="14" lengthAdjust="spacing" textLength="38" x="1575" y="207.1426">-email</text><text fill="#000000" font-family="sans-serif" font-size="14" lengthAdjust="spacing" textLength="56" x="1575" y="224.752">-address</text><text fill="#000000" font-family="sans-serif" font-size="14" lengthAdjust="spacing" textLength="94" x="1575" y="242.3613">-phoneNumber</text><text fill="#000000" font-family="sans-serif" font-size="14" lengthAdjust="spacing" textLength="50" x="1575" y="259.9707">-gender</text><text fill="#000000" font-family="sans-serif" font-size="14" lengthAdjust="spacing" textLength="63" x="1575" y="277.5801">-birthDate</text><text fill="#000000" font-family="sans-serif" font-size="14" lengthAdjust="spacing" textLength="81" x="1575" y="295.1895">-SNSNumber</text><text fill="#000000" font-family="sans-serif" font-size="14" lengthAdjust="spacing" textLength="124" x="1575" y="312.7988">-citizenCardNumber</text><line style="stroke:#181818;stroke-width:0.5;" x1="1570" x2="1704" y1="319.875" y2="319.875"/></g><!--MD5=[8ae808d068a8995f06b9b3ec51357f0b]
class AuthFacade--><g id="elem_AuthFacade"><rect codeLine="34" fill="#F1F1F1" height="65.6094" id="AuthFacade" rx="2.5" ry="2.5" style="stroke:#181818;stroke-width:0.5;" width="292" x="1143" y="143.5"/><ellipse cx="1246.25" cy="159.5" fill="#ADD1B2" rx="11" ry="11" style="stroke:#181818;stroke-width:1.0;"/><path d="M1248.25,156 Q1248.4531,155.5 1248.6875,155.25 Q1248.9219,155 1249.1875,155 Q1249.6563,155 1249.9531,155.2813 Q1250.25,155.5625 1250.25,156.2188 L1250.25,157.7813 Q1250.25,158.4375 1249.9688,158.7188 Q1249.6875,159 1249.25,159 Q1248.8594,159 1248.6094,158.8281 Q1248.3594,158.6563 1248.25,158.2031 Q1248.2031,157.8906 1248.0313,157.7188 Q1247.7188,157.3906 1247.1563,157.2031 Q1246.5938,157 1246.0313,157 Q1245.3281,157 1244.7344,157.2813 Q1244.1563,157.5625 1243.7031,158.1875 Q1243.25,158.8125 1243.25,159.6719 L1243.25,160.5938 Q1243.25,161.625 1244.0938,162.3125 Q1244.9375,163 1246.4375,163 Q1247.3281,163 1247.9531,162.7969 Q1248.3125,162.6875 1248.7188,162.3281 Q1248.9844,162.125 1249.125,162.0625 Q1249.2656,162 1249.4375,162 Q1249.7656,162 1250,162.2656 Q1250.25,162.5156 1250.25,162.875 Q1250.25,163.2188 1249.9063,163.625 Q1249.4063,164.2188 1248.6094,164.5469 Q1247.5625,165 1246.2813,165 Q1244.7813,165 1243.5781,164.4063 Q1242.6094,163.9375 1241.9219,162.9219 Q1241.25,161.9063 1241.25,160.7031 L1241.25,159.6094 Q1241.25,158.3594 1241.8438,157.2656 Q1242.4531,156.1719 1243.5,155.5938 Q1244.5625,155 1245.75,155 Q1246.4688,155 1247.0938,155.25 Q1247.7188,155.5 1248.25,156 Z " fill="#000000"/><text fill="#000000" font-family="sans-serif" font-size="14" lengthAdjust="spacing" textLength="77" x="1266.75" y="165.2285">AuthFacade</text><line style="stroke:#181818;stroke-width:0.5;" x1="1144" x2="1434" y1="175.5" y2="175.5"/><line style="stroke:#181818;stroke-width:0.5;" x1="1144" x2="1434" y1="183.5" y2="183.5"/><text fill="#000000" font-family="sans-serif" font-size="14" lengthAdjust="spacing" textLength="280" x="1149" y="202.0332">+addUserWithRole(name, email, pwd, roleId)</text></g><!--MD5=[79e9dff59931c324a0be3859e56ca0c2]
link SNSUserUI to SpecifyNewSNSUserController--><g id="link_SNSUserUI_SpecifyNewSNSUserController"><path codeLine="39" d="M232.16,160.5 C249.73,160.5 268.37,160.5 287.32,160.5 " fill="none" id="SNSUserUI-to-SpecifyNewSNSUserController" style="stroke:#181818;stroke-width:1.0;stroke-dasharray:7.0,7.0;"/><polygon fill="#181818" points="292.67,160.5,283.67,156.5,287.67,160.5,283.67,164.5,292.67,160.5" style="stroke:#181818;stroke-width:1.0;"/></g><!--MD5=[1bd9080c7e199931e49bc5a1616681ac]
link Company to SNSUserStore--><g id="link_Company_SNSUserStore"><path codeLine="40" d="M960.07,140.62 C1006.3,130.62 1062.7,117.98 1113,105.5 C1135.84,99.83 1160.24,93.39 1183.36,87.1 " fill="none" id="Company-to-SNSUserStore" style="stroke:#181818;stroke-width:1.0;"/><polygon fill="#181818" points="1188.27,85.76,1178.5354,84.2641,1183.4455,87.0732,1180.6365,91.9833,1188.27,85.76" style="stroke:#181818;stroke-width:1.0;"/><polygon fill="#000000" points="1037.8623,95.5103,1028.3813,94.7607,1029.7514,100.4766,1037.8623,95.5103" style="stroke:#000000;stroke-width:1.0;"/><text fill="#000000" font-family="sans-serif" font-size="13" lengthAdjust="spacing" textLength="32" x="1042" y="101.9951">has a</text><text fill="#000000" font-family="sans-serif" font-size="13" lengthAdjust="spacing" textLength="7" x="967.9646" y="153.1737">1</text><text fill="#000000" font-family="sans-serif" font-size="13" lengthAdjust="spacing" textLength="5" x="1175.3665" y="102.0513">*</text></g><!--MD5=[b01d27099955aced792f1ce85db49798]
link SNSUserStore to SNSUser--><g id="link_SNSUserStore_SNSUser"><path codeLine="41" d="M1389.8,103.43 C1405,110.68 1420.47,118.19 1435,125.5 C1478.19,147.21 1525.88,172.77 1563.97,193.57 " fill="none" id="SNSUserStore-to-SNSUser" style="stroke:#181818;stroke-width:1.0;"/><polygon fill="#181818" points="1568.56,196.08,1562.5851,188.2506,1564.1738,193.6797,1558.7446,195.2685,1568.56,196.08" style="stroke:#181818;stroke-width:1.0;"/><polygon fill="#000000" points="1474.4405,135.9739,1467.7583,129.2064,1465.0567,134.4266,1474.4405,135.9739" style="stroke:#000000;stroke-width:1.0;"/><text fill="#000000" font-family="sans-serif" font-size="13" lengthAdjust="spacing" textLength="59" x="1479" y="138.9951">keeps info</text><text fill="#000000" font-family="sans-serif" font-size="13" lengthAdjust="spacing" textLength="7" x="1397.4595" y="120.9048">1</text><text fill="#000000" font-family="sans-serif" font-size="13" lengthAdjust="spacing" textLength="5" x="1555.8009" y="206.3834">*</text></g><!--MD5=[f9cdac24711892c79830af13cc2031b7]
link SpecifyNewSNSUserController to Company--><g id="link_SpecifyNewSNSUserController_Company"><path codeLine="42" d="M708.14,160.5 C727.25,160.5 745.98,160.5 763.44,160.5 " fill="none" id="SpecifyNewSNSUserController-to-Company" style="stroke:#181818;stroke-width:1.0;stroke-dasharray:7.0,7.0;"/><polygon fill="#181818" points="768.81,160.5,759.8215,156.4743,763.81,160.4857,759.7986,164.4743,768.81,160.5" style="stroke:#181818;stroke-width:1.0;"/></g><!--MD5=[d4a05fd00d8a645f4efadc9ca4772650]
link SpecifyNewSNSUserController to SNSUserStore--><g id="link_SpecifyNewSNSUserController_SNSUserStore"><path codeLine="43" d="M708.36,112.03 C728.78,108.11 749.25,104.5 769,101.5 C911.42,79.85 1077.58,68.11 1182.77,62.33 " fill="none" id="SpecifyNewSNSUserController-to-SNSUserStore" style="stroke:#181818;stroke-width:1.0;stroke-dasharray:7.0,7.0;"/><polygon fill="#181818" points="1188.04,62.04,1178.8364,58.5337,1183.0474,62.311,1179.2701,66.522,1188.04,62.04" style="stroke:#181818;stroke-width:1.0;"/></g><!--MD5=[6134efd207260bf120211f9f3ff9fab2]
link SpecifyNewSNSUserController to SNSUser--><g id="link_SpecifyNewSNSUserController_SNSUser"><path codeLine="44" d="M708.19,210.28 C728.64,213.94 749.17,217.12 769,219.5 C1061.85,254.59 1414.28,244.17 1563.56,237.35 " fill="none" id="SpecifyNewSNSUserController-to-SNSUser" style="stroke:#181818;stroke-width:1.0;stroke-dasharray:7.0,7.0;"/><polygon fill="#181818" points="1568.78,237.1,1559.6063,233.5164,1563.7852,237.329,1559.9726,241.508,1568.78,237.1" style="stroke:#181818;stroke-width:1.0;"/></g><!--MD5=[717d4b03d3c4372f4eafe5e342a0a7dd]
link Company to AuthFacade--><g id="link_Company_AuthFacade"><path codeLine="45" d="M960.33,164.34 C970.34,164.74 980.38,165.13 990,165.5 C1039.79,167.42 1094.27,169.45 1142.87,171.24 " fill="none" id="Company-AuthFacade" style="stroke:#181818;stroke-width:1.0;"/><polygon fill="#000000" points="999.9964,156.8646,991.0688,153.5862,990.8468,159.4598,999.9964,156.8646" style="stroke:#000000;stroke-width:1.0;"/><text fill="#000000" font-family="sans-serif" font-size="13" lengthAdjust="spacing" textLength="108" x="1004" y="161.9951">registers SNSUser</text></g><!--MD5=[bf9c6ea9d853fb7a7cf44901251ad9b7]
@startuml
skinparam classAttributeIconSize 0
left to right direction

class SNSUserUI{
SpecifyNewSNSUserController ctrl
}
class SpecifyNewSNSUserController{
 Company company
 SNSUser snsu
 +createSNSUser(name, address, genderOption, phoneNumber, \nemail, birthDate, SNSNumber, citizenCardNumber)
 +saveSNSUser()
}
class SNSUserStore{
List<SNSUser> snsUserList
+addSNSUser(snsu)
+generateRandomPassword()
}
class Company{
 SNSUserStore snsUserStore
 +saveSNSUser()
}

class SNSUser{
 - name
 - email
 - address
 - phoneNumber
 - gender
 - birthDate
 - SNSNumber
 - citizenCardNumber
}

class AuthFacade{
 +addUserWithRole(name, email, pwd, roleId)
}


SNSUserUI ..> SpecifyNewSNSUserController
Company "1"- ->"*" SNSUserStore : has a >
SNSUserStore "1"- ->"*" SNSUser : keeps info >
SpecifyNewSNSUserController ..> Company
SpecifyNewSNSUserController ..> SNSUserStore
SpecifyNewSNSUserController ..> SNSUser
Company - - AuthFacade : registers SNSUser >

@enduml

PlantUML version 1.2022.4(Sat Apr 09 14:29:17 BST 2022)
(GPL source distribution)
Java Runtime: OpenJDK Runtime Environment
JVM: OpenJDK 64-Bit Server VM
Default Encoding: Cp1252
Language: en
Country: US
--></g></svg>