<?xml version="1.0" encoding="UTF-8" standalone="no"?><svg xmlns="http://www.w3.org/2000/svg" xmlns:xlink="http://www.w3.org/1999/xlink" contentScriptType="application/ecmascript" contentStyleType="text/css" height="140px" preserveAspectRatio="none" style="width:820px;height:140px;background:#FFFFFF;" version="1.1" viewBox="0 0 820 140" width="820px" zoomAndPan="magnify"><defs><filter height="300%" id="fdxfssv9vo0cv" width="300%" x="-1" y="-1"><feGaussianBlur result="blurOut" stdDeviation="2.0"/><feColorMatrix in="blurOut" result="blurOut2" type="matrix" values="0 0 0 0 0 0 0 0 0 0 0 0 0 0 0 0 0 0 .4 0"/><feOffset dx="4.0" dy="4.0" in="blurOut2" result="blurOut3"/><feBlend in="SourceGraphic" in2="blurOut3" mode="normal"/></filter></defs><g><!--MD5=[02e4b9b7573f1156f41e60aa5b4e25a4]
class Company--><rect codeLine="6" fill="#FEFECE" filter="url(#fdxfssv9vo0cv)" height="53.8359" id="Company" style="stroke:#A80036;stroke-width:1.5;" width="85" x="7" y="58"/><ellipse cx="22" cy="74" fill="#ADD1B2" rx="11" ry="11" style="stroke:#A80036;stroke-width:1.0;"/><path d="M24,70.5 Q24.2031,70 24.4375,69.75 Q24.6719,69.5 24.9375,69.5 Q25.4063,69.5 25.7031,69.7813 Q26,70.0625 26,70.7188 L26,72.2813 Q26,72.9375 25.7188,73.2188 Q25.4375,73.5 25,73.5 Q24.6094,73.5 24.3594,73.3281 Q24.1094,73.1563 24,72.7031 Q23.9531,72.3906 23.7813,72.2188 Q23.4688,71.8906 22.9063,71.7031 Q22.3438,71.5 21.7813,71.5 Q21.0781,71.5 20.4844,71.7813 Q19.9063,72.0625 19.4531,72.6875 Q19,73.3125 19,74.1719 L19,75.0938 Q19,76.125 19.8438,76.8125 Q20.6875,77.5 22.1875,77.5 Q23.0781,77.5 23.7031,77.2969 Q24.0625,77.1875 24.4688,76.8281 Q24.7344,76.625 24.875,76.5625 Q25.0156,76.5 25.1875,76.5 Q25.5156,76.5 25.75,76.7656 Q26,77.0156 26,77.375 Q26,77.7188 25.6563,78.125 Q25.1563,78.7188 24.3594,79.0469 Q23.3125,79.5 22.0313,79.5 Q20.5313,79.5 19.3281,78.9063 Q18.3594,78.4375 17.6719,77.4219 Q17,76.4063 17,75.2031 L17,74.1094 Q17,72.8594 17.5938,71.7656 Q18.2031,70.6719 19.25,70.0938 Q20.3125,69.5 21.5,69.5 Q22.2188,69.5 22.8438,69.75 Q23.4688,70 24,70.5 Z " fill="#000000"/><text fill="#000000" font-family="sans-serif" font-size="12" lengthAdjust="spacing" textLength="53" x="36" y="78.9102">Company</text><line style="stroke:#A80036;stroke-width:1.5;" x1="8" x2="91" y1="90" y2="90"/><text fill="#000000" font-family="sans-serif" font-size="11" lengthAdjust="spacing" textLength="59" x="13" y="105.4189">-designation</text><!--MD5=[03960189e81aa2c066c762ffabbee709]
class Receptionist--><rect codeLine="10" fill="#FEFECE" filter="url(#fdxfssv9vo0cv)" height="67.6719" id="Receptionist" style="stroke:#A80036;stroke-width:1.5;" width="101" x="496" y="8"/><ellipse cx="511" cy="24" fill="#ADD1B2" rx="11" ry="11" style="stroke:#A80036;stroke-width:1.0;"/><path d="M513,20.5 Q513.2031,20 513.4375,19.75 Q513.6719,19.5 513.9375,19.5 Q514.4063,19.5 514.7031,19.7813 Q515,20.0625 515,20.7188 L515,22.2813 Q515,22.9375 514.7188,23.2188 Q514.4375,23.5 514,23.5 Q513.6094,23.5 513.3594,23.3281 Q513.1094,23.1563 513,22.7031 Q512.9531,22.3906 512.7813,22.2188 Q512.4688,21.8906 511.9063,21.7031 Q511.3438,21.5 510.7813,21.5 Q510.0781,21.5 509.4844,21.7813 Q508.9063,22.0625 508.4531,22.6875 Q508,23.3125 508,24.1719 L508,25.0938 Q508,26.125 508.8438,26.8125 Q509.6875,27.5 511.1875,27.5 Q512.0781,27.5 512.7031,27.2969 Q513.0625,27.1875 513.4688,26.8281 Q513.7344,26.625 513.875,26.5625 Q514.0156,26.5 514.1875,26.5 Q514.5156,26.5 514.75,26.7656 Q515,27.0156 515,27.375 Q515,27.7188 514.6563,28.125 Q514.1563,28.7188 513.3594,29.0469 Q512.3125,29.5 511.0313,29.5 Q509.5313,29.5 508.3281,28.9063 Q507.3594,28.4375 506.6719,27.4219 Q506,26.4063 506,25.2031 L506,24.1094 Q506,22.8594 506.5938,21.7656 Q507.2031,20.6719 508.25,20.0938 Q509.3125,19.5 510.5,19.5 Q511.2188,19.5 511.8438,19.75 Q512.4688,20 513,20.5 Z " fill="#000000"/><text fill="#000000" font-family="sans-serif" font-size="12" lengthAdjust="spacing" textLength="69" x="525" y="28.9102">Receptionist</text><line style="stroke:#A80036;stroke-width:1.5;" x1="497" x2="596" y1="40" y2="40"/><text fill="#000000" font-family="sans-serif" font-size="11" lengthAdjust="spacing" textLength="52" x="502" y="55.4189">-username</text><text fill="#000000" font-family="sans-serif" font-size="11" lengthAdjust="spacing" textLength="54" x="502" y="69.2549">-password</text><!--MD5=[72be06cc7ae02ccc98efe28a50e62246]
class SNSUser--><rect codeLine="15" fill="#FEFECE" filter="url(#fdxfssv9vo0cv)" height="53.8359" id="SNSUser" style="stroke:#A80036;stroke-width:1.5;" width="84" x="722" y="73"/><ellipse cx="737" cy="89" fill="#ADD1B2" rx="11" ry="11" style="stroke:#A80036;stroke-width:1.0;"/><path d="M739,85.5 Q739.2031,85 739.4375,84.75 Q739.6719,84.5 739.9375,84.5 Q740.4063,84.5 740.7031,84.7813 Q741,85.0625 741,85.7188 L741,87.2813 Q741,87.9375 740.7188,88.2188 Q740.4375,88.5 740,88.5 Q739.6094,88.5 739.3594,88.3281 Q739.1094,88.1563 739,87.7031 Q738.9531,87.3906 738.7813,87.2188 Q738.4688,86.8906 737.9063,86.7031 Q737.3438,86.5 736.7813,86.5 Q736.0781,86.5 735.4844,86.7813 Q734.9063,87.0625 734.4531,87.6875 Q734,88.3125 734,89.1719 L734,90.0938 Q734,91.125 734.8438,91.8125 Q735.6875,92.5 737.1875,92.5 Q738.0781,92.5 738.7031,92.2969 Q739.0625,92.1875 739.4688,91.8281 Q739.7344,91.625 739.875,91.5625 Q740.0156,91.5 740.1875,91.5 Q740.5156,91.5 740.75,91.7656 Q741,92.0156 741,92.375 Q741,92.7188 740.6563,93.125 Q740.1563,93.7188 739.3594,94.0469 Q738.3125,94.5 737.0313,94.5 Q735.5313,94.5 734.3281,93.9063 Q733.3594,93.4375 732.6719,92.4219 Q732,91.4063 732,90.2031 L732,89.1094 Q732,87.8594 732.5938,86.7656 Q733.2031,85.6719 734.25,85.0938 Q735.3125,84.5 736.5,84.5 Q737.2188,84.5 737.8438,84.75 Q738.4688,85 739,85.5 Z " fill="#000000"/><text fill="#000000" font-family="sans-serif" font-size="12" lengthAdjust="spacing" textLength="52" x="751" y="93.9102">SNSUser</text><line style="stroke:#A80036;stroke-width:1.5;" x1="723" x2="805" y1="105" y2="105"/><text fill="#000000" font-family="sans-serif" font-size="11" lengthAdjust="spacing" textLength="65" x="728" y="120.4189">-SNS Number</text><!--MD5=[da547346deef918ea16944ba046651ef]
class Administrator--><rect codeLine="19" fill="#FEFECE" filter="url(#fdxfssv9vo0cv)" height="67.6719" id="Administrator" style="stroke:#A80036;stroke-width:1.5;" width="105" x="266" y="7"/><ellipse cx="281" cy="23" fill="#ADD1B2" rx="11" ry="11" style="stroke:#A80036;stroke-width:1.0;"/><path d="M283,19.5 Q283.2031,19 283.4375,18.75 Q283.6719,18.5 283.9375,18.5 Q284.4063,18.5 284.7031,18.7813 Q285,19.0625 285,19.7188 L285,21.2813 Q285,21.9375 284.7188,22.2188 Q284.4375,22.5 284,22.5 Q283.6094,22.5 283.3594,22.3281 Q283.1094,22.1563 283,21.7031 Q282.9531,21.3906 282.7813,21.2188 Q282.4688,20.8906 281.9063,20.7031 Q281.3438,20.5 280.7813,20.5 Q280.0781,20.5 279.4844,20.7813 Q278.9063,21.0625 278.4531,21.6875 Q278,22.3125 278,23.1719 L278,24.0938 Q278,25.125 278.8438,25.8125 Q279.6875,26.5 281.1875,26.5 Q282.0781,26.5 282.7031,26.2969 Q283.0625,26.1875 283.4688,25.8281 Q283.7344,25.625 283.875,25.5625 Q284.0156,25.5 284.1875,25.5 Q284.5156,25.5 284.75,25.7656 Q285,26.0156 285,26.375 Q285,26.7188 284.6563,27.125 Q284.1563,27.7188 283.3594,28.0469 Q282.3125,28.5 281.0313,28.5 Q279.5313,28.5 278.3281,27.9063 Q277.3594,27.4375 276.6719,26.4219 Q276,25.4063 276,24.2031 L276,23.1094 Q276,21.8594 276.5938,20.7656 Q277.2031,19.6719 278.25,19.0938 Q279.3125,18.5 280.5,18.5 Q281.2188,18.5 281.8438,18.75 Q282.4688,19 283,19.5 Z " fill="#000000"/><text fill="#000000" font-family="sans-serif" font-size="12" lengthAdjust="spacing" textLength="73" x="295" y="27.9102">Administrator</text><line style="stroke:#A80036;stroke-width:1.5;" x1="267" x2="370" y1="39" y2="39"/><text fill="#000000" font-family="sans-serif" font-size="11" lengthAdjust="spacing" textLength="52" x="272" y="54.4189">-username</text><text fill="#000000" font-family="sans-serif" font-size="11" lengthAdjust="spacing" textLength="54" x="272" y="68.2549">-password</text><!--MD5=[3861bdece64e1cdd9c1d7c0b91465d40]
link SNSUser to Company--><path codeLine="24" d="M721.91,108.86 C678.71,117.39 608.66,129 547.5,129 C178,129 178,129 178,129 C148.14,129 116.4,118.09 92.06,107.13 " fill="none" id="SNSUser-Company" style="stroke:#A80036;stroke-width:1.0;"/><polygon fill="#000000" points="288.5,120.162,297.537,123.1258,297.5531,117.248,288.5,120.162" style="stroke:#000000;stroke-width:1.0;"/><text fill="#000000" font-family="sans-serif" font-size="13" lengthAdjust="spacing" textLength="45" x="302.5" y="125.4951">is client</text><text fill="#000000" font-family="sans-serif" font-size="13" lengthAdjust="spacing" textLength="5" x="708.9674" y="125.4042">*</text><text fill="#000000" font-family="sans-serif" font-size="13" lengthAdjust="spacing" textLength="7" x="99.9766" y="125.848">1</text><!--MD5=[eaea43e34e45c5b9d20b595fc78f1f20]
link Company to Administrator--><path codeLine="25" d="M92.22,78.12 C139.01,70.41 214.94,57.9 265.54,49.56 " fill="none" id="Company-Administrator" style="stroke:#A80036;stroke-width:1.0;"/><polygon fill="#000000" points="162.9335,50.3628,153.5309,48.9336,154.4866,54.7333,162.9335,50.3628" style="stroke:#000000;stroke-width:1.0;"/><text fill="#000000" font-family="sans-serif" font-size="13" lengthAdjust="spacing" textLength="37" x="167" y="56.4951">knows</text><text fill="#000000" font-family="sans-serif" font-size="13" lengthAdjust="spacing" textLength="7" x="99.8752" y="91.8433">1</text><text fill="#000000" font-family="sans-serif" font-size="13" lengthAdjust="spacing" textLength="5" x="253.0876" y="65.326">*</text><!--MD5=[7690a4971bd8576b261a40a0340b8203]
link Receptionist to SNSUser--><path codeLine="26" d="M597.21,55.38 C635,65.55 686.36,79.37 721.86,88.93 " fill="none" id="Receptionist-SNSUser" style="stroke:#A80036;stroke-width:1.0;"/><polygon fill="#000000" points="636.8282,57.4753,628.8578,52.2865,627.3301,57.9624,636.8282,57.4753" style="stroke:#000000;stroke-width:1.0;"/><text fill="#000000" font-family="sans-serif" font-size="13" lengthAdjust="spacing" textLength="50" x="641" y="61.4951">registers</text><text fill="#000000" font-family="sans-serif" font-size="13" lengthAdjust="spacing" textLength="7" x="604.8333" y="71.9295">1</text><text fill="#000000" font-family="sans-serif" font-size="13" lengthAdjust="spacing" textLength="5" x="708.9085" y="101.9242">*</text><!--MD5=[64c52275ea9d22bde431e3436d41be0c]
link Administrator to Receptionist--><path codeLine="27" d="M371.07,41.23 C408.46,41.39 458.74,41.62 495.71,41.78 " fill="none" id="Administrator-Receptionist" style="stroke:#A80036;stroke-width:1.0;"/><polygon fill="#000000" points="411,33.1978,401.9679,30.219,401.942,36.0968,411,33.1978" style="stroke:#000000;stroke-width:1.0;"/><text fill="#000000" font-family="sans-serif" font-size="13" lengthAdjust="spacing" textLength="50" x="415" y="38.4951">registers</text><text fill="#000000" font-family="sans-serif" font-size="13" lengthAdjust="spacing" textLength="7" x="378.9548" y="55.9303">1</text><text fill="#000000" font-family="sans-serif" font-size="13" lengthAdjust="spacing" textLength="5" x="482.883" y="56.4677">*</text><!--MD5=[37bbf108108debc33fdc60261dd28ce1]
@startuml
hide methods
left to right direction
skinparam classAttributeIconSize 0


class Company {
  -designation
}

class Receptionist {
  -username
  -password
}

class SNSUser {
  -SNS Number
}

class Administrator {
  -username
  -password
}

SNSUser "*"- - -"1" Company : is client >
Company "1"- - -"*" Administrator : knows >
Receptionist "1"- -"*" SNSUser : registers >
Administrator "1"- -"*" Receptionist : registers >






@enduml

PlantUML version 1.2022.1(Tue Feb 01 18:19:58 GMT 2022)
(GPL source distribution)
Java Runtime: OpenJDK Runtime Environment
JVM: OpenJDK 64-Bit Server VM
Default Encoding: Cp1252
Language: en
Country: US
--></g></svg>