<?xml version="1.0" encoding="UTF-8" standalone="no"?><svg xmlns="http://www.w3.org/2000/svg" xmlns:xlink="http://www.w3.org/1999/xlink" contentScriptType="application/ecmascript" contentStyleType="text/css" height="824.8px" preserveAspectRatio="none" style="width:1059px;height:824px;background:#FFFFFF;" version="1.1" viewBox="0 0 1059 824" width="1059.2px" zoomAndPan="magnify"><defs><filter height="300%" id="fkdjf781xllvd" width="300%" x="-1" y="-1"><feGaussianBlur result="blurOut" stdDeviation="1.6000000000000003"/><feColorMatrix in="blurOut" result="blurOut2" type="matrix" values="0 0 0 0 0 0 0 0 0 0 0 0 0 0 0 0 0 0 .4 0"/><feOffset dx="3.2000000000000006" dy="3.2000000000000006" in="blurOut2" result="blurOut3"/><feBlend in="SourceGraphic" in2="blurOut3" mode="normal"/></filter></defs><g><!--MD5=[da547346deef918ea16944ba046651ef]
class Administrator--><rect codeLine="4" fill="#FEFECE" filter="url(#fkdjf781xllvd)" height="32" id="Administrator" style="stroke:#A80036;stroke-width:1.2000000000000002;" width="84" x="618.4" y="5.6"/><ellipse cx="630.4" cy="18.4" fill="#ADD1B2" rx="8.8" ry="8.8" style="stroke:#A80036;stroke-width:0.8000000000000002;"/><path d="M632,15.6 Q632.1625,15.2 632.35,15 Q632.5375,14.8 632.75,14.8 Q633.125,14.8 633.3625,15.025 Q633.6,15.25 633.6,15.775 L633.6,17.025 Q633.6,17.55 633.375,17.775 Q633.15,18 632.8,18 Q632.4875,18 632.2875,17.8625 Q632.0875,17.725 632,17.3625 Q631.9625,17.1125 631.825,16.975 Q631.575,16.7125 631.125,16.5625 Q630.675,16.4 630.225,16.4 Q629.6625,16.4 629.1875,16.625 Q628.725,16.85 628.3625,17.35 Q628,17.85 628,18.5375 L628,19.275 Q628,20.1 628.675,20.65 Q629.35,21.2 630.55,21.2 Q631.2625,21.2 631.7625,21.0375 Q632.05,20.95 632.375,20.6625 Q632.5875,20.5 632.7,20.45 Q632.8125,20.4 632.95,20.4 Q633.2125,20.4 633.4,20.6125 Q633.6,20.8125 633.6,21.1 Q633.6,21.375 633.325,21.7 Q632.925,22.175 632.2875,22.4375 Q631.45,22.8 630.425,22.8 Q629.225,22.8 628.2625,22.325 Q627.4875,21.95 626.9375,21.1375 Q626.4,20.325 626.4,19.3625 L626.4,18.4875 Q626.4,17.4875 626.875,16.6125 Q627.3625,15.7375 628.2,15.275 Q629.05,14.8 630,14.8 Q630.575,14.8 631.075,15 Q631.575,15.2 632,15.6 Z " fill="#000000"/><text fill="#000000" font-family="sans-serif" font-size="9.6" lengthAdjust="spacing" textLength="58.4" x="641.6" y="22.3281">Administrator</text><line style="stroke:#A80036;stroke-width:1.2000000000000002;" x1="619.2" x2="701.6" y1="31.2" y2="31.2"/><!--MD5=[a059576e163b46f56762f12600c49258]
class Nurse--><rect codeLine="7" fill="#FEFECE" filter="url(#fkdjf781xllvd)" height="32" id="Nurse" style="stroke:#A80036;stroke-width:1.2000000000000002;" width="52.8" x="634" y="194.4"/><ellipse cx="646" cy="207.2" fill="#ADD1B2" rx="8.8" ry="8.8" style="stroke:#A80036;stroke-width:0.8000000000000002;"/><path d="M647.6,204.4 Q647.7625,204 647.95,203.8 Q648.1375,203.6 648.35,203.6 Q648.725,203.6 648.9625,203.825 Q649.2,204.05 649.2,204.575 L649.2,205.825 Q649.2,206.35 648.975,206.575 Q648.75,206.8 648.4,206.8 Q648.0875,206.8 647.8875,206.6625 Q647.6875,206.525 647.6,206.1625 Q647.5625,205.9125 647.425,205.775 Q647.175,205.5125 646.725,205.3625 Q646.275,205.2 645.825,205.2 Q645.2625,205.2 644.7875,205.425 Q644.325,205.65 643.9625,206.15 Q643.6,206.65 643.6,207.3375 L643.6,208.075 Q643.6,208.9 644.275,209.45 Q644.95,210 646.15,210 Q646.8625,210 647.3625,209.8375 Q647.65,209.75 647.975,209.4625 Q648.1875,209.3 648.3,209.25 Q648.4125,209.2 648.55,209.2 Q648.8125,209.2 649,209.4125 Q649.2,209.6125 649.2,209.9 Q649.2,210.175 648.925,210.5 Q648.525,210.975 647.8875,211.2375 Q647.05,211.6 646.025,211.6 Q644.825,211.6 643.8625,211.125 Q643.0875,210.75 642.5375,209.9375 Q642,209.125 642,208.1625 L642,207.2875 Q642,206.2875 642.475,205.4125 Q642.9625,204.5375 643.8,204.075 Q644.65,203.6 645.6,203.6 Q646.175,203.6 646.675,203.8 Q647.175,204 647.6,204.4 Z " fill="#000000"/><text fill="#000000" font-family="sans-serif" font-size="9.6" lengthAdjust="spacing" textLength="27.2" x="657.2" y="211.1281">Nurse</text><line style="stroke:#A80036;stroke-width:1.2000000000000002;" x1="634.8" x2="686" y1="220" y2="220"/><!--MD5=[72be06cc7ae02ccc98efe28a50e62246]
class SNSUser--><rect codeLine="10" fill="#FEFECE" filter="url(#fkdjf781xllvd)" height="32" id="SNSUser" style="stroke:#A80036;stroke-width:1.2000000000000002;" width="67.2" x="220.4" y="444"/><ellipse cx="232.4" cy="456.8" fill="#ADD1B2" rx="8.8" ry="8.8" style="stroke:#A80036;stroke-width:0.8000000000000002;"/><path d="M234,454 Q234.1625,453.6 234.35,453.4 Q234.5375,453.2 234.75,453.2 Q235.125,453.2 235.3625,453.425 Q235.6,453.65 235.6,454.175 L235.6,455.425 Q235.6,455.95 235.375,456.175 Q235.15,456.4 234.8,456.4 Q234.4875,456.4 234.2875,456.2625 Q234.0875,456.125 234,455.7625 Q233.9625,455.5125 233.825,455.375 Q233.575,455.1125 233.125,454.9625 Q232.675,454.8 232.225,454.8 Q231.6625,454.8 231.1875,455.025 Q230.725,455.25 230.3625,455.75 Q230,456.25 230,456.9375 L230,457.675 Q230,458.5 230.675,459.05 Q231.35,459.6 232.55,459.6 Q233.2625,459.6 233.7625,459.4375 Q234.05,459.35 234.375,459.0625 Q234.5875,458.9 234.7,458.85 Q234.8125,458.8 234.95,458.8 Q235.2125,458.8 235.4,459.0125 Q235.6,459.2125 235.6,459.5 Q235.6,459.775 235.325,460.1 Q234.925,460.575 234.2875,460.8375 Q233.45,461.2 232.425,461.2 Q231.225,461.2 230.2625,460.725 Q229.4875,460.35 228.9375,459.5375 Q228.4,458.725 228.4,457.7625 L228.4,456.8875 Q228.4,455.8875 228.875,455.0125 Q229.3625,454.1375 230.2,453.675 Q231.05,453.2 232,453.2 Q232.575,453.2 233.075,453.4 Q233.575,453.6 234,454 Z " fill="#000000"/><text fill="#000000" font-family="sans-serif" font-size="9.6" lengthAdjust="spacing" textLength="41.6" x="243.6" y="460.7281">SNSUser</text><line style="stroke:#A80036;stroke-width:1.2000000000000002;" x1="221.2" x2="286.8" y1="469.6" y2="469.6"/><!--MD5=[03960189e81aa2c066c762ffabbee709]
class Receptionist--><rect codeLine="13" fill="#FEFECE" filter="url(#fkdjf781xllvd)" height="32" id="Receptionist" style="stroke:#A80036;stroke-width:1.2000000000000002;" width="80.8" x="261.6" y="194.4"/><ellipse cx="273.6" cy="207.2" fill="#ADD1B2" rx="8.8" ry="8.8" style="stroke:#A80036;stroke-width:0.8000000000000002;"/><path d="M275.2,204.4 Q275.3625,204 275.55,203.8 Q275.7375,203.6 275.95,203.6 Q276.325,203.6 276.5625,203.825 Q276.8,204.05 276.8,204.575 L276.8,205.825 Q276.8,206.35 276.575,206.575 Q276.35,206.8 276,206.8 Q275.6875,206.8 275.4875,206.6625 Q275.2875,206.525 275.2,206.1625 Q275.1625,205.9125 275.025,205.775 Q274.775,205.5125 274.325,205.3625 Q273.875,205.2 273.425,205.2 Q272.8625,205.2 272.3875,205.425 Q271.925,205.65 271.5625,206.15 Q271.2,206.65 271.2,207.3375 L271.2,208.075 Q271.2,208.9 271.875,209.45 Q272.55,210 273.75,210 Q274.4625,210 274.9625,209.8375 Q275.25,209.75 275.575,209.4625 Q275.7875,209.3 275.9,209.25 Q276.0125,209.2 276.15,209.2 Q276.4125,209.2 276.6,209.4125 Q276.8,209.6125 276.8,209.9 Q276.8,210.175 276.525,210.5 Q276.125,210.975 275.4875,211.2375 Q274.65,211.6 273.625,211.6 Q272.425,211.6 271.4625,211.125 Q270.6875,210.75 270.1375,209.9375 Q269.6,209.125 269.6,208.1625 L269.6,207.2875 Q269.6,206.2875 270.075,205.4125 Q270.5625,204.5375 271.4,204.075 Q272.25,203.6 273.2,203.6 Q273.775,203.6 274.275,203.8 Q274.775,204 275.2,204.4 Z " fill="#000000"/><text fill="#000000" font-family="sans-serif" font-size="9.6" lengthAdjust="spacing" textLength="55.2" x="284.8" y="211.1281">Receptionist</text><line style="stroke:#A80036;stroke-width:1.2000000000000002;" x1="262.4" x2="341.6" y1="220" y2="220"/><!--MD5=[2d935fd2dd068a13da1ae531f9857c4f]
class CenterCoordinator--><rect codeLine="16" fill="#FEFECE" filter="url(#fkdjf781xllvd)" height="32" id="CenterCoordinator" style="stroke:#A80036;stroke-width:1.2000000000000002;" width="107.2" x="470.8" y="250.4"/><ellipse cx="482.8" cy="263.2" fill="#ADD1B2" rx="8.8" ry="8.8" style="stroke:#A80036;stroke-width:0.8000000000000002;"/><path d="M484.4,260.4 Q484.5625,260 484.75,259.8 Q484.9375,259.6 485.15,259.6 Q485.525,259.6 485.7625,259.825 Q486,260.05 486,260.575 L486,261.825 Q486,262.35 485.775,262.575 Q485.55,262.8 485.2,262.8 Q484.8875,262.8 484.6875,262.6625 Q484.4875,262.525 484.4,262.1625 Q484.3625,261.9125 484.225,261.775 Q483.975,261.5125 483.525,261.3625 Q483.075,261.2 482.625,261.2 Q482.0625,261.2 481.5875,261.425 Q481.125,261.65 480.7625,262.15 Q480.4,262.65 480.4,263.3375 L480.4,264.075 Q480.4,264.9 481.075,265.45 Q481.75,266 482.95,266 Q483.6625,266 484.1625,265.8375 Q484.45,265.75 484.775,265.4625 Q484.9875,265.3 485.1,265.25 Q485.2125,265.2 485.35,265.2 Q485.6125,265.2 485.8,265.4125 Q486,265.6125 486,265.9 Q486,266.175 485.725,266.5 Q485.325,266.975 484.6875,267.2375 Q483.85,267.6 482.825,267.6 Q481.625,267.6 480.6625,267.125 Q479.8875,266.75 479.3375,265.9375 Q478.8,265.125 478.8,264.1625 L478.8,263.2875 Q478.8,262.2875 479.275,261.4125 Q479.7625,260.5375 480.6,260.075 Q481.45,259.6 482.4,259.6 Q482.975,259.6 483.475,259.8 Q483.975,260 484.4,260.4 Z " fill="#000000"/><text fill="#000000" font-family="sans-serif" font-size="9.6" lengthAdjust="spacing" textLength="81.6" x="494" y="267.1281">CenterCoordinator</text><line style="stroke:#A80036;stroke-width:1.2000000000000002;" x1="471.6" x2="577.2" y1="276" y2="276"/><!--MD5=[1db03e903fe0a044a2ca0dcbef10799a]
class HealthCareCenter--><rect codeLine="19" fill="#FEFECE" filter="url(#fkdjf781xllvd)" height="32" id="HealthCareCenter" style="stroke:#A80036;stroke-width:1.2000000000000002;" width="105.6" x="791.6" y="138.4"/><ellipse cx="803.6" cy="151.2" fill="#ADD1B2" rx="8.8" ry="8.8" style="stroke:#A80036;stroke-width:0.8000000000000002;"/><path d="M805.2,148.4 Q805.3625,148 805.55,147.8 Q805.7375,147.6 805.95,147.6 Q806.325,147.6 806.5625,147.825 Q806.8,148.05 806.8,148.575 L806.8,149.825 Q806.8,150.35 806.575,150.575 Q806.35,150.8 806,150.8 Q805.6875,150.8 805.4875,150.6625 Q805.2875,150.525 805.2,150.1625 Q805.1625,149.9125 805.025,149.775 Q804.775,149.5125 804.325,149.3625 Q803.875,149.2 803.425,149.2 Q802.8625,149.2 802.3875,149.425 Q801.925,149.65 801.5625,150.15 Q801.2,150.65 801.2,151.3375 L801.2,152.075 Q801.2,152.9 801.875,153.45 Q802.55,154 803.75,154 Q804.4625,154 804.9625,153.8375 Q805.25,153.75 805.575,153.4625 Q805.7875,153.3 805.9,153.25 Q806.0125,153.2 806.15,153.2 Q806.4125,153.2 806.6,153.4125 Q806.8,153.6125 806.8,153.9 Q806.8,154.175 806.525,154.5 Q806.125,154.975 805.4875,155.2375 Q804.65,155.6 803.625,155.6 Q802.425,155.6 801.4625,155.125 Q800.6875,154.75 800.1375,153.9375 Q799.6,153.125 799.6,152.1625 L799.6,151.2875 Q799.6,150.2875 800.075,149.4125 Q800.5625,148.5375 801.4,148.075 Q802.25,147.6 803.2,147.6 Q803.775,147.6 804.275,147.8 Q804.775,148 805.2,148.4 Z " fill="#000000"/><text fill="#000000" font-family="sans-serif" font-size="9.6" lengthAdjust="spacing" textLength="80" x="814.8" y="155.1281">HealthCareCenter</text><line style="stroke:#A80036;stroke-width:1.2000000000000002;" x1="792.4" x2="896.4" y1="164" y2="164"/><!--MD5=[02e4b9b7573f1156f41e60aa5b4e25a4]
class Company--><rect codeLine="22" fill="#FEFECE" filter="url(#fkdjf781xllvd)" height="43.0688" id="Company" style="stroke:#A80036;stroke-width:1.2000000000000002;" width="68" x="475.2" y="760"/><ellipse cx="487.2" cy="772.8" fill="#ADD1B2" rx="8.8" ry="8.8" style="stroke:#A80036;stroke-width:0.8000000000000002;"/><path d="M488.8,770 Q488.9625,769.6 489.15,769.4 Q489.3375,769.2 489.55,769.2 Q489.925,769.2 490.1625,769.425 Q490.4,769.65 490.4,770.175 L490.4,771.425 Q490.4,771.95 490.175,772.175 Q489.95,772.4 489.6,772.4 Q489.2875,772.4 489.0875,772.2625 Q488.8875,772.125 488.8,771.7625 Q488.7625,771.5125 488.625,771.375 Q488.375,771.1125 487.925,770.9625 Q487.475,770.8 487.025,770.8 Q486.4625,770.8 485.9875,771.025 Q485.525,771.25 485.1625,771.75 Q484.8,772.25 484.8,772.9375 L484.8,773.675 Q484.8,774.5 485.475,775.05 Q486.15,775.6 487.35,775.6 Q488.0625,775.6 488.5625,775.4375 Q488.85,775.35 489.175,775.0625 Q489.3875,774.9 489.5,774.85 Q489.6125,774.8 489.75,774.8 Q490.0125,774.8 490.2,775.0125 Q490.4,775.2125 490.4,775.5 Q490.4,775.775 490.125,776.1 Q489.725,776.575 489.0875,776.8375 Q488.25,777.2 487.225,777.2 Q486.025,777.2 485.0625,776.725 Q484.2875,776.35 483.7375,775.5375 Q483.2,774.725 483.2,773.7625 L483.2,772.8875 Q483.2,771.8875 483.675,771.0125 Q484.1625,770.1375 485,769.675 Q485.85,769.2 486.8,769.2 Q487.375,769.2 487.875,769.4 Q488.375,769.6 488.8,770 Z " fill="#000000"/><text fill="#000000" font-family="sans-serif" font-size="9.6" lengthAdjust="spacing" textLength="42.4" x="498.4" y="776.7281">Company</text><line style="stroke:#A80036;stroke-width:1.2000000000000002;" x1="476" x2="542.4" y1="785.6" y2="785.6"/><text fill="#000000" font-family="sans-serif" font-size="8.8" lengthAdjust="spacing" textLength="47.2" x="480" y="797.9352">-designation</text><!--MD5=[35b584b1cc5a5643474015f373c930e7]
class SMSMessage--><rect codeLine="26" fill="#FEFECE" filter="url(#fkdjf781xllvd)" height="54.1375" id="SMSMessage" style="stroke:#A80036;stroke-width:1.2000000000000002;" width="103.2" x="5.6" y="754.4"/><ellipse cx="25.16" cy="767.2" fill="#ADD1B2" rx="8.8" ry="8.8" style="stroke:#A80036;stroke-width:0.8000000000000002;"/><path d="M26.76,764.4 Q26.9225,764 27.11,763.8 Q27.2975,763.6 27.51,763.6 Q27.885,763.6 28.1225,763.825 Q28.36,764.05 28.36,764.575 L28.36,765.825 Q28.36,766.35 28.135,766.575 Q27.91,766.8 27.56,766.8 Q27.2475,766.8 27.0475,766.6625 Q26.8475,766.525 26.76,766.1625 Q26.7225,765.9125 26.585,765.775 Q26.335,765.5125 25.885,765.3625 Q25.435,765.2 24.985,765.2 Q24.4225,765.2 23.9475,765.425 Q23.485,765.65 23.1225,766.15 Q22.76,766.65 22.76,767.3375 L22.76,768.075 Q22.76,768.9 23.435,769.45 Q24.11,770 25.31,770 Q26.0225,770 26.5225,769.8375 Q26.81,769.75 27.135,769.4625 Q27.3475,769.3 27.46,769.25 Q27.5725,769.2 27.71,769.2 Q27.9725,769.2 28.16,769.4125 Q28.36,769.6125 28.36,769.9 Q28.36,770.175 28.085,770.5 Q27.685,770.975 27.0475,771.2375 Q26.21,771.6 25.185,771.6 Q23.985,771.6 23.0225,771.125 Q22.2475,770.75 21.6975,769.9375 Q21.16,769.125 21.16,768.1625 L21.16,767.2875 Q21.16,766.2875 21.635,765.4125 Q22.1225,764.5375 22.96,764.075 Q23.81,763.6 24.76,763.6 Q25.335,763.6 25.835,763.8 Q26.335,764 26.76,764.4 Z " fill="#000000"/><text fill="#000000" font-family="sans-serif" font-size="9.6" lengthAdjust="spacing" textLength="60.8" x="38.04" y="771.1281">SMSMessage</text><line style="stroke:#A80036;stroke-width:1.2000000000000002;" x1="6.4" x2="108" y1="780" y2="780"/><text fill="#000000" font-family="sans-serif" font-size="8.8" lengthAdjust="spacing" textLength="93.6" x="10.4" y="792.3352">-informationAppointment</text><text fill="#000000" font-family="sans-serif" font-size="8.8" lengthAdjust="spacing" textLength="56" x="10.4" y="803.4039">-timeRecovery</text><!--MD5=[ff8178074f81ca799b3d9493f422ea40]
class EmailMessage--><rect codeLine="31" fill="#FEFECE" filter="url(#fkdjf781xllvd)" height="54.1375" id="EmailMessage" style="stroke:#A80036;stroke-width:1.2000000000000002;" width="103.2" x="136.8" y="754.4"/><ellipse cx="153.84" cy="767.2" fill="#ADD1B2" rx="8.8" ry="8.8" style="stroke:#A80036;stroke-width:0.8000000000000002;"/><path d="M155.44,764.4 Q155.6025,764 155.79,763.8 Q155.9775,763.6 156.19,763.6 Q156.565,763.6 156.8025,763.825 Q157.04,764.05 157.04,764.575 L157.04,765.825 Q157.04,766.35 156.815,766.575 Q156.59,766.8 156.24,766.8 Q155.9275,766.8 155.7275,766.6625 Q155.5275,766.525 155.44,766.1625 Q155.4025,765.9125 155.265,765.775 Q155.015,765.5125 154.565,765.3625 Q154.115,765.2 153.665,765.2 Q153.1025,765.2 152.6275,765.425 Q152.165,765.65 151.8025,766.15 Q151.44,766.65 151.44,767.3375 L151.44,768.075 Q151.44,768.9 152.115,769.45 Q152.79,770 153.99,770 Q154.7025,770 155.2025,769.8375 Q155.49,769.75 155.815,769.4625 Q156.0275,769.3 156.14,769.25 Q156.2525,769.2 156.39,769.2 Q156.6525,769.2 156.84,769.4125 Q157.04,769.6125 157.04,769.9 Q157.04,770.175 156.765,770.5 Q156.365,770.975 155.7275,771.2375 Q154.89,771.6 153.865,771.6 Q152.665,771.6 151.7025,771.125 Q150.9275,770.75 150.3775,769.9375 Q149.84,769.125 149.84,768.1625 L149.84,767.2875 Q149.84,766.2875 150.315,765.4125 Q150.8025,764.5375 151.64,764.075 Q152.49,763.6 153.44,763.6 Q154.015,763.6 154.515,763.8 Q155.015,764 155.44,764.4 Z " fill="#000000"/><text fill="#000000" font-family="sans-serif" font-size="9.6" lengthAdjust="spacing" textLength="66.4" x="166.16" y="771.1281">EmailMessage</text><line style="stroke:#A80036;stroke-width:1.2000000000000002;" x1="137.6" x2="239.2" y1="780" y2="780"/><text fill="#000000" font-family="sans-serif" font-size="8.8" lengthAdjust="spacing" textLength="93.6" x="141.6" y="792.3352">-informationAppointment</text><text fill="#000000" font-family="sans-serif" font-size="8.8" lengthAdjust="spacing" textLength="56" x="141.6" y="803.4039">-timeRecovery</text><!--MD5=[19e445fc4d3b48519cbe33da05496394]
class Vaccine--><rect codeLine="36" fill="#FEFECE" filter="url(#fkdjf781xllvd)" height="54.1375" id="Vaccine" style="stroke:#A80036;stroke-width:1.2000000000000002;" width="64.8" x="775.2" y="432.8"/><ellipse cx="789.36" cy="445.6" fill="#ADD1B2" rx="8.8" ry="8.8" style="stroke:#A80036;stroke-width:0.8000000000000002;"/><path d="M790.96,442.8 Q791.1225,442.4 791.31,442.2 Q791.4975,442 791.71,442 Q792.085,442 792.3225,442.225 Q792.56,442.45 792.56,442.975 L792.56,444.225 Q792.56,444.75 792.335,444.975 Q792.11,445.2 791.76,445.2 Q791.4475,445.2 791.2475,445.0625 Q791.0475,444.925 790.96,444.5625 Q790.9225,444.3125 790.785,444.175 Q790.535,443.9125 790.085,443.7625 Q789.635,443.6 789.185,443.6 Q788.6225,443.6 788.1475,443.825 Q787.685,444.05 787.3225,444.55 Q786.96,445.05 786.96,445.7375 L786.96,446.475 Q786.96,447.3 787.635,447.85 Q788.31,448.4 789.51,448.4 Q790.2225,448.4 790.7225,448.2375 Q791.01,448.15 791.335,447.8625 Q791.5475,447.7 791.66,447.65 Q791.7725,447.6 791.91,447.6 Q792.1725,447.6 792.36,447.8125 Q792.56,448.0125 792.56,448.3 Q792.56,448.575 792.285,448.9 Q791.885,449.375 791.2475,449.6375 Q790.41,450 789.385,450 Q788.185,450 787.2225,449.525 Q786.4475,449.15 785.8975,448.3375 Q785.36,447.525 785.36,446.5625 L785.36,445.6875 Q785.36,444.6875 785.835,443.8125 Q786.3225,442.9375 787.16,442.475 Q788.01,442 788.96,442 Q789.535,442 790.035,442.2 Q790.535,442.4 790.96,442.8 Z " fill="#000000"/><text fill="#000000" font-family="sans-serif" font-size="9.6" lengthAdjust="spacing" textLength="34.4" x="801.04" y="449.5281">Vaccine</text><line style="stroke:#A80036;stroke-width:1.2000000000000002;" x1="776" x2="839.2" y1="458.4" y2="458.4"/><text fill="#000000" font-family="sans-serif" font-size="8.8" lengthAdjust="spacing" textLength="55.2" x="780" y="470.7352">-vaccineName</text><text fill="#000000" font-family="sans-serif" font-size="8.8" lengthAdjust="spacing" textLength="12" x="780" y="481.8039">-lot</text><!--MD5=[0e501da62322464167c8ec4d233a6b7e]
class VaccineType--><rect codeLine="41" fill="#FEFECE" filter="url(#fkdjf781xllvd)" height="65.2063" id="VaccineType" style="stroke:#A80036;stroke-width:1.2000000000000002;" width="80.8" x="884.8" y="610"/><ellipse cx="896.8" cy="622.8" fill="#ADD1B2" rx="8.8" ry="8.8" style="stroke:#A80036;stroke-width:0.8000000000000002;"/><path d="M898.4,620 Q898.5625,619.6 898.75,619.4 Q898.9375,619.2 899.15,619.2 Q899.525,619.2 899.7625,619.425 Q900,619.65 900,620.175 L900,621.425 Q900,621.95 899.775,622.175 Q899.55,622.4 899.2,622.4 Q898.8875,622.4 898.6875,622.2625 Q898.4875,622.125 898.4,621.7625 Q898.3625,621.5125 898.225,621.375 Q897.975,621.1125 897.525,620.9625 Q897.075,620.8 896.625,620.8 Q896.0625,620.8 895.5875,621.025 Q895.125,621.25 894.7625,621.75 Q894.4,622.25 894.4,622.9375 L894.4,623.675 Q894.4,624.5 895.075,625.05 Q895.75,625.6 896.95,625.6 Q897.6625,625.6 898.1625,625.4375 Q898.45,625.35 898.775,625.0625 Q898.9875,624.9 899.1,624.85 Q899.2125,624.8 899.35,624.8 Q899.6125,624.8 899.8,625.0125 Q900,625.2125 900,625.5 Q900,625.775 899.725,626.1 Q899.325,626.575 898.6875,626.8375 Q897.85,627.2 896.825,627.2 Q895.625,627.2 894.6625,626.725 Q893.8875,626.35 893.3375,625.5375 Q892.8,624.725 892.8,623.7625 L892.8,622.8875 Q892.8,621.8875 893.275,621.0125 Q893.7625,620.1375 894.6,619.675 Q895.45,619.2 896.4,619.2 Q896.975,619.2 897.475,619.4 Q897.975,619.6 898.4,620 Z " fill="#000000"/><text fill="#000000" font-family="sans-serif" font-size="9.6" lengthAdjust="spacing" textLength="55.2" x="908" y="626.7281">VaccineType</text><line style="stroke:#A80036;stroke-width:1.2000000000000002;" x1="885.6" x2="964.8" y1="635.6" y2="635.6"/><text fill="#000000" font-family="sans-serif" font-size="8.8" lengthAdjust="spacing" textLength="41.6" x="889.6" y="647.9352">-ageGroup</text><text fill="#000000" font-family="sans-serif" font-size="8.8" lengthAdjust="spacing" textLength="22.4" x="889.6" y="659.0039">-dose</text><text fill="#000000" font-family="sans-serif" font-size="8.8" lengthAdjust="spacing" textLength="63.2" x="889.6" y="670.0727">-vaccineDosage</text><!--MD5=[8fdfefe237645151c947b814b3595f6b]
class VaccineTime--><rect codeLine="47" fill="#FEFECE" filter="url(#fkdjf781xllvd)" height="43.0688" id="VaccineTime" style="stroke:#A80036;stroke-width:1.2000000000000002;" width="83.2" x="766" y="621.2"/><ellipse cx="778.36" cy="634" fill="#ADD1B2" rx="8.8" ry="8.8" style="stroke:#A80036;stroke-width:0.8000000000000002;"/><path d="M779.96,631.2 Q780.1225,630.8 780.31,630.6 Q780.4975,630.4 780.71,630.4 Q781.085,630.4 781.3225,630.625 Q781.56,630.85 781.56,631.375 L781.56,632.625 Q781.56,633.15 781.335,633.375 Q781.11,633.6 780.76,633.6 Q780.4475,633.6 780.2475,633.4625 Q780.0475,633.325 779.96,632.9625 Q779.9225,632.7125 779.785,632.575 Q779.535,632.3125 779.085,632.1625 Q778.635,632 778.185,632 Q777.6225,632 777.1475,632.225 Q776.685,632.45 776.3225,632.95 Q775.96,633.45 775.96,634.1375 L775.96,634.875 Q775.96,635.7 776.635,636.25 Q777.31,636.8 778.51,636.8 Q779.2225,636.8 779.7225,636.6375 Q780.01,636.55 780.335,636.2625 Q780.5475,636.1 780.66,636.05 Q780.7725,636 780.91,636 Q781.1725,636 781.36,636.2125 Q781.56,636.4125 781.56,636.7 Q781.56,636.975 781.285,637.3 Q780.885,637.775 780.2475,638.0375 Q779.41,638.4 778.385,638.4 Q777.185,638.4 776.2225,637.925 Q775.4475,637.55 774.8975,636.7375 Q774.36,635.925 774.36,634.9625 L774.36,634.0875 Q774.36,633.0875 774.835,632.2125 Q775.3225,631.3375 776.16,630.875 Q777.01,630.4 777.96,630.4 Q778.535,630.4 779.035,630.6 Q779.535,630.8 779.96,631.2 Z " fill="#000000"/><text fill="#000000" font-family="sans-serif" font-size="9.6" lengthAdjust="spacing" textLength="56.8" x="789.64" y="637.9281">VaccineTime</text><line style="stroke:#A80036;stroke-width:1.2000000000000002;" x1="766.8" x2="848.4" y1="646.8" y2="646.8"/><text fill="#000000" font-family="sans-serif" font-size="8.8" lengthAdjust="spacing" textLength="73.6" x="770.8" y="659.1352">-timeBetweenDose</text><!--MD5=[d7022902071f40c2412e2b7c9d78fdd8]
class CheckCenterCapacity--><rect codeLine="51" fill="#FEFECE" filter="url(#fkdjf781xllvd)" height="65.2063" id="CheckCenterCapacity" style="stroke:#A80036;stroke-width:1.2000000000000002;" width="120.8" x="268" y="748.8"/><ellipse cx="280" cy="761.6" fill="#ADD1B2" rx="8.8" ry="8.8" style="stroke:#A80036;stroke-width:0.8000000000000002;"/><path d="M281.6,758.8 Q281.7625,758.4 281.95,758.2 Q282.1375,758 282.35,758 Q282.725,758 282.9625,758.225 Q283.2,758.45 283.2,758.975 L283.2,760.225 Q283.2,760.75 282.975,760.975 Q282.75,761.2 282.4,761.2 Q282.0875,761.2 281.8875,761.0625 Q281.6875,760.925 281.6,760.5625 Q281.5625,760.3125 281.425,760.175 Q281.175,759.9125 280.725,759.7625 Q280.275,759.6 279.825,759.6 Q279.2625,759.6 278.7875,759.825 Q278.325,760.05 277.9625,760.55 Q277.6,761.05 277.6,761.7375 L277.6,762.475 Q277.6,763.3 278.275,763.85 Q278.95,764.4 280.15,764.4 Q280.8625,764.4 281.3625,764.2375 Q281.65,764.15 281.975,763.8625 Q282.1875,763.7 282.3,763.65 Q282.4125,763.6 282.55,763.6 Q282.8125,763.6 283,763.8125 Q283.2,764.0125 283.2,764.3 Q283.2,764.575 282.925,764.9 Q282.525,765.375 281.8875,765.6375 Q281.05,766 280.025,766 Q278.825,766 277.8625,765.525 Q277.0875,765.15 276.5375,764.3375 Q276,763.525 276,762.5625 L276,761.6875 Q276,760.6875 276.475,759.8125 Q276.9625,758.9375 277.8,758.475 Q278.65,758 279.6,758 Q280.175,758 280.675,758.2 Q281.175,758.4 281.6,758.8 Z " fill="#000000"/><text fill="#000000" font-family="sans-serif" font-size="9.6" lengthAdjust="spacing" textLength="95.2" x="291.2" y="765.5281">CheckCenterCapacity</text><line style="stroke:#A80036;stroke-width:1.2000000000000002;" x1="268.8" x2="388" y1="774.4" y2="774.4"/><text fill="#000000" font-family="sans-serif" font-size="8.8" lengthAdjust="spacing" textLength="61.6" x="272.8" y="786.7352">-centerCapacity</text><text fill="#000000" font-family="sans-serif" font-size="8.8" lengthAdjust="spacing" textLength="20" x="272.8" y="797.8039">-date</text><text fill="#000000" font-family="sans-serif" font-size="8.8" lengthAdjust="spacing" textLength="18.4" x="272.8" y="808.8727">-time</text><!--MD5=[8d21a970f1bd1e0e0584d0ecf91221be]
class ScheduleVaccine--><rect codeLine="57" fill="#FEFECE" filter="url(#fkdjf781xllvd)" height="87.3438" id="ScheduleVaccine" style="stroke:#A80036;stroke-width:1.2000000000000002;" width="101.6" x="137.6" y="599.2"/><ellipse cx="149.6" cy="612" fill="#ADD1B2" rx="8.8" ry="8.8" style="stroke:#A80036;stroke-width:0.8000000000000002;"/><path d="M151.2,609.2 Q151.3625,608.8 151.55,608.6 Q151.7375,608.4 151.95,608.4 Q152.325,608.4 152.5625,608.625 Q152.8,608.85 152.8,609.375 L152.8,610.625 Q152.8,611.15 152.575,611.375 Q152.35,611.6 152,611.6 Q151.6875,611.6 151.4875,611.4625 Q151.2875,611.325 151.2,610.9625 Q151.1625,610.7125 151.025,610.575 Q150.775,610.3125 150.325,610.1625 Q149.875,610 149.425,610 Q148.8625,610 148.3875,610.225 Q147.925,610.45 147.5625,610.95 Q147.2,611.45 147.2,612.1375 L147.2,612.875 Q147.2,613.7 147.875,614.25 Q148.55,614.8 149.75,614.8 Q150.4625,614.8 150.9625,614.6375 Q151.25,614.55 151.575,614.2625 Q151.7875,614.1 151.9,614.05 Q152.0125,614 152.15,614 Q152.4125,614 152.6,614.2125 Q152.8,614.4125 152.8,614.7 Q152.8,614.975 152.525,615.3 Q152.125,615.775 151.4875,616.0375 Q150.65,616.4 149.625,616.4 Q148.425,616.4 147.4625,615.925 Q146.6875,615.55 146.1375,614.7375 Q145.6,613.925 145.6,612.9625 L145.6,612.0875 Q145.6,611.0875 146.075,610.2125 Q146.5625,609.3375 147.4,608.875 Q148.25,608.4 149.2,608.4 Q149.775,608.4 150.275,608.6 Q150.775,608.8 151.2,609.2 Z " fill="#000000"/><text fill="#000000" font-family="sans-serif" font-size="9.6" lengthAdjust="spacing" textLength="76" x="160.8" y="615.9281">ScheduleVaccine</text><line style="stroke:#A80036;stroke-width:1.2000000000000002;" x1="138.4" x2="238.4" y1="624.8" y2="624.8"/><text fill="#000000" font-family="sans-serif" font-size="8.8" lengthAdjust="spacing" textLength="67.2" x="142.4" y="637.1352">-userNumberSNS</text><text fill="#000000" font-family="sans-serif" font-size="8.8" lengthAdjust="spacing" textLength="72.8" x="142.4" y="648.2039">-vaccinationCenter</text><text fill="#000000" font-family="sans-serif" font-size="8.8" lengthAdjust="spacing" textLength="20" x="142.4" y="659.2727">-date</text><text fill="#000000" font-family="sans-serif" font-size="8.8" lengthAdjust="spacing" textLength="18.4" x="142.4" y="670.3414">-time</text><text fill="#000000" font-family="sans-serif" font-size="8.8" lengthAdjust="spacing" textLength="61.6" x="142.4" y="681.4102">-typeOfVaccine</text><!--MD5=[de60e6d4f424ae4d0522096f76a59010]
class VaccinationCenter--><rect codeLine="65" fill="#FEFECE" filter="url(#fkdjf781xllvd)" height="153.7563" id="VaccinationCenter" style="stroke:#A80036;stroke-width:1.2000000000000002;" width="105.6" x="347.6" y="383.2"/><ellipse cx="359.6" cy="396" fill="#ADD1B2" rx="8.8" ry="8.8" style="stroke:#A80036;stroke-width:0.8000000000000002;"/><path d="M361.2,393.2 Q361.3625,392.8 361.55,392.6 Q361.7375,392.4 361.95,392.4 Q362.325,392.4 362.5625,392.625 Q362.8,392.85 362.8,393.375 L362.8,394.625 Q362.8,395.15 362.575,395.375 Q362.35,395.6 362,395.6 Q361.6875,395.6 361.4875,395.4625 Q361.2875,395.325 361.2,394.9625 Q361.1625,394.7125 361.025,394.575 Q360.775,394.3125 360.325,394.1625 Q359.875,394 359.425,394 Q358.8625,394 358.3875,394.225 Q357.925,394.45 357.5625,394.95 Q357.2,395.45 357.2,396.1375 L357.2,396.875 Q357.2,397.7 357.875,398.25 Q358.55,398.8 359.75,398.8 Q360.4625,398.8 360.9625,398.6375 Q361.25,398.55 361.575,398.2625 Q361.7875,398.1 361.9,398.05 Q362.0125,398 362.15,398 Q362.4125,398 362.6,398.2125 Q362.8,398.4125 362.8,398.7 Q362.8,398.975 362.525,399.3 Q362.125,399.775 361.4875,400.0375 Q360.65,400.4 359.625,400.4 Q358.425,400.4 357.4625,399.925 Q356.6875,399.55 356.1375,398.7375 Q355.6,397.925 355.6,396.9625 L355.6,396.0875 Q355.6,395.0875 356.075,394.2125 Q356.5625,393.3375 357.4,392.875 Q358.25,392.4 359.2,392.4 Q359.775,392.4 360.275,392.6 Q360.775,392.8 361.2,393.2 Z " fill="#000000"/><text fill="#000000" font-family="sans-serif" font-size="9.6" lengthAdjust="spacing" textLength="80" x="370.8" y="399.9281">VaccinationCenter</text><line style="stroke:#A80036;stroke-width:1.2000000000000002;" x1="348.4" x2="452.4" y1="408.8" y2="408.8"/><text fill="#000000" font-family="sans-serif" font-size="8.8" lengthAdjust="spacing" textLength="24" x="352.4" y="421.1352">-name</text><text fill="#000000" font-family="sans-serif" font-size="8.8" lengthAdjust="spacing" textLength="35.2" x="352.4" y="432.2039">-address</text><text fill="#000000" font-family="sans-serif" font-size="8.8" lengthAdjust="spacing" textLength="56" x="352.4" y="443.2727">-emailAddress</text><text fill="#000000" font-family="sans-serif" font-size="8.8" lengthAdjust="spacing" textLength="56.8" x="352.4" y="454.3414">-phoneNumber</text><text fill="#000000" font-family="sans-serif" font-size="8.8" lengthAdjust="spacing" textLength="45.6" x="352.4" y="465.4102">-faxNumber</text><text fill="#000000" font-family="sans-serif" font-size="8.8" lengthAdjust="spacing" textLength="68" x="352.4" y="476.4789">-websiteAddress</text><text fill="#000000" font-family="sans-serif" font-size="8.8" lengthAdjust="spacing" textLength="56.8" x="352.4" y="487.5477">-openingHours</text><text fill="#000000" font-family="sans-serif" font-size="8.8" lengthAdjust="spacing" textLength="53.6" x="352.4" y="498.6164">-closingHours</text><text fill="#000000" font-family="sans-serif" font-size="8.8" lengthAdjust="spacing" textLength="48.8" x="352.4" y="509.6852">-slotDuration</text><text fill="#000000" font-family="sans-serif" font-size="8.8" lengthAdjust="spacing" textLength="56" x="352.4" y="520.7539">-maxVaccines</text><text fill="#000000" font-family="sans-serif" font-size="8.8" lengthAdjust="spacing" textLength="47.2" x="352.4" y="531.8227">-coordinator</text><!--MD5=[e2ddcc32583ff1a2f6fdd8d9fe473f71]
link Administrator to Nurse--><path codeLine="79" d="M660.4,37.72 C660.4,72.912 660.4,159.192 660.4,194.328 " fill="none" id="Administrator-Nurse" style="stroke:#A80036;stroke-width:0.8000000000000002;"/><polygon fill="#000000" points="664.4,111.3406,666.7511,104.1046,662.0489,104.1046,664.4,111.3406" style="stroke:#000000;stroke-width:0.8000000000000002;"/><text fill="#000000" font-family="sans-serif" font-size="10.4" lengthAdjust="spacing" textLength="40" x="671.6" y="111.5961">registers</text><text fill="#000000" font-family="sans-serif" font-size="10.4" lengthAdjust="spacing" textLength="4" x="655.8375" y="54.8894">*</text><text fill="#000000" font-family="sans-serif" font-size="10.4" lengthAdjust="spacing" textLength="4" x="655.8125" y="185.7643">*</text><!--MD5=[e7c2f1214fae8a9df196b8270f12b77f]
link Administrator to CenterCoordinator--><path codeLine="80" d="M647.32,37.776 C634.76,52.96 615.736,77.176 602,100 C570.328,152.64 542.2,220.312 530.352,250.224 " fill="none" id="Administrator-CenterCoordinator" style="stroke:#A80036;stroke-width:0.8000000000000002;"/><polygon fill="#000000" points="604.0708,110.8446,609.6204,105.6398,605.5012,103.3719,604.0708,110.8446" style="stroke:#000000;stroke-width:0.8000000000000002;"/><text fill="#000000" font-family="sans-serif" font-size="10.4" lengthAdjust="spacing" textLength="40" x="613.2" y="111.5961">registers</text><text fill="#000000" font-family="sans-serif" font-size="10.4" lengthAdjust="spacing" textLength="4" x="639.2673" y="54.6772">*</text><text fill="#000000" font-family="sans-serif" font-size="10.4" lengthAdjust="spacing" textLength="4" x="527.5129" y="241.6297">*</text><!--MD5=[64c52275ea9d22bde431e3436d41be0c]
link Administrator to Receptionist--><path codeLine="81" d="M618.264,23.8 C571.08,26.672 493.144,35.368 431.6,61.6 C369.392,88.112 325.88,162.152 309.36,194.336 " fill="none" id="Administrator-Receptionist" style="stroke:#A80036;stroke-width:0.8000000000000002;"/><polygon fill="#000000" points="376.0982,109.2739,383.5693,107.8349,381.2967,103.7183,376.0982,109.2739" style="stroke:#000000;stroke-width:0.8000000000000002;"/><text fill="#000000" font-family="sans-serif" font-size="10.4" lengthAdjust="spacing" textLength="40" x="386.8" y="111.5961">registers</text><text fill="#000000" font-family="sans-serif" font-size="10.4" lengthAdjust="spacing" textLength="4" x="608.0574" y="35.8252">*</text><text fill="#000000" font-family="sans-serif" font-size="10.4" lengthAdjust="spacing" textLength="4" x="306.9345" y="185.7746">*</text><!--MD5=[2b5fc2dce8eec1aafb1a3721aa50d3a4]
link Administrator to SNSUser--><path codeLine="82" d="M618.312,24.528 C491.416,31.504 121.2,56.16 121.2,106.4 C121.2,106.4 121.2,106.4 121.2,314.4 C121.2,375.12 185.4,421.408 224.528,443.976 " fill="none" id="Administrator-SNSUser" style="stroke:#A80036;stroke-width:0.8000000000000002;"/><polygon fill="#000000" points="122.4622,213.4569,129.1291,209.7906,125.7008,206.5721,122.4622,213.4569" style="stroke:#000000;stroke-width:0.8000000000000002;"/><text fill="#000000" font-family="sans-serif" font-size="10.4" lengthAdjust="spacing" textLength="40" x="132.4" y="214.7961">registers</text><text fill="#000000" font-family="sans-serif" font-size="10.4" lengthAdjust="spacing" textLength="4" x="608.1121" y="22.0556">*</text><text fill="#000000" font-family="sans-serif" font-size="10.4" lengthAdjust="spacing" textLength="4" x="211.2831" y="435.4264">*</text><!--MD5=[d497e8607f1e7b3d570c70d67196006d]
link Administrator to VaccinationCenter--><path codeLine="83" d="M618.312,30.512 C557.528,43.456 452.4,70.96 452.4,106.4 C452.4,106.4 452.4,106.4 452.4,314.4 C452.4,337.368 446.528,361.248 438.736,382.832 " fill="none" id="Administrator-VaccinationCenter" style="stroke:#A80036;stroke-width:0.8000000000000002;"/><polygon fill="#000000" points="454.5836,214.1044,459.9643,208.7251,455.7748,206.5898,454.5836,214.1044" style="stroke:#000000;stroke-width:0.8000000000000002;"/><text fill="#000000" font-family="sans-serif" font-size="10.4" lengthAdjust="spacing" textLength="40" x="463.6" y="214.7961">registers</text><text fill="#000000" font-family="sans-serif" font-size="10.4" lengthAdjust="spacing" textLength="4" x="608.1121" y="43.4811">*</text><text fill="#000000" font-family="sans-serif" font-size="10.4" lengthAdjust="spacing" textLength="4" x="437.518" y="374.4347">*</text><!--MD5=[eaea43e34e45c5b9d20b595fc78f1f20]
link Company to Administrator--><path codeLine="86" d="M543.392,778.888 C656.648,771.624 1012.4,741.056 1012.4,643.6 C1012.4,106.4 1012.4,106.4 1012.4,106.4 C1012.4,43.336 795.944,27.528 702.512,23.64 " fill="none" id="Company-Administrator" style="stroke:#A80036;stroke-width:0.8000000000000002;"/><polygon fill="#000000" points="1017.2246,309.8266,1013.4322,316.4225,1018.0335,317.3919,1017.2246,309.8266" style="stroke:#000000;stroke-width:0.8000000000000002;"/><text fill="#000000" font-family="sans-serif" font-size="10.4" lengthAdjust="spacing" textLength="29.6" x="1023.6" y="317.9961">knows</text><text fill="#000000" font-family="sans-serif" font-size="10.4" lengthAdjust="spacing" textLength="5.6" x="549.5188" y="775.4091">1</text><text fill="#000000" font-family="sans-serif" font-size="10.4" lengthAdjust="spacing" textLength="4" x="708.7153" y="21.0427">*</text><!--MD5=[3861bdece64e1cdd9c1d7c0b91465d40]
link SNSUser to Company--><path codeLine="87" d="M266.136,476.016 C307.744,528.184 444.648,699.856 492.504,759.864 " fill="none" id="SNSUser-Company" style="stroke:#A80036;stroke-width:0.8000000000000002;"/><polygon fill="#000000" points="437.294,646.0679,434.6205,638.9447,430.9441,641.8765,437.294,646.0679" style="stroke:#000000;stroke-width:0.8000000000000002;"/><text fill="#000000" font-family="sans-serif" font-size="10.4" lengthAdjust="spacing" textLength="36" x="442" y="647.1961">is client</text><text fill="#000000" font-family="sans-serif" font-size="10.4" lengthAdjust="spacing" textLength="4" x="264.9868" y="493.1561">*</text><text fill="#000000" font-family="sans-serif" font-size="10.4" lengthAdjust="spacing" textLength="5.6" x="482.3956" y="751.4013">1</text><!--MD5=[49bdc4f43c0486f86f6744f0a65b0571]
link Nurse to Vaccine--><path codeLine="91" d="M665.96,226.576 C674.048,248.232 690.112,288.664 708.4,320.8 C731.792,361.912 764.696,405.696 786.08,432.752 " fill="none" id="Nurse-Vaccine" style="stroke:#A80036;stroke-width:0.8000000000000002;"/><polygon fill="#000000" points="714.4136,317.1968,712.8025,309.7609,708.7394,312.1281,714.4136,317.1968" style="stroke:#000000;stroke-width:0.8000000000000002;"/><text fill="#000000" font-family="sans-serif" font-size="10.4" lengthAdjust="spacing" textLength="62.4" x="719.6" y="317.9961">administrates</text><text fill="#000000" font-family="sans-serif" font-size="10.4" lengthAdjust="spacing" textLength="4" x="662.9168" y="243.4772">*</text><text fill="#000000" font-family="sans-serif" font-size="10.4" lengthAdjust="spacing" textLength="4" x="777.4495" y="424.1772">*</text><!--MD5=[03efd8c9f90c050219bacdb83332548b]
link Nurse to VaccinationCenter--><path codeLine="92" d="M643.256,226.584 C610.2,256.336 535.568,324.072 474.8,383.2 C467.784,390.024 460.488,397.28 453.32,404.496 " fill="none" id="Nurse-VaccinationCenter" style="stroke:#A80036;stroke-width:0.8000000000000002;"/><polygon fill="#000000" points="554.2807,316.4751,561.1691,313.2443,557.9545,309.8124,554.2807,316.4751" style="stroke:#000000;stroke-width:0.8000000000000002;"/><text fill="#000000" font-family="sans-serif" font-size="10.4" lengthAdjust="spacing" textLength="39.2" x="564.4" y="317.9961">works at</text><text fill="#000000" font-family="sans-serif" font-size="10.4" lengthAdjust="spacing" textLength="4" x="634.1111" y="243.4873">*</text><text fill="#000000" font-family="sans-serif" font-size="10.4" lengthAdjust="spacing" textLength="5.6" x="459.7626" y="395.3417">1</text><!--MD5=[7690a4971bd8576b261a40a0340b8203]
link Receptionist to SNSUser--><path codeLine="94" d="M295.728,226.408 C288.344,244.96 276.304,277.432 270,306.4 C259.224,355.92 255.632,416.104 254.496,443.84 " fill="none" id="Receptionist-SNSUser" style="stroke:#A80036;stroke-width:0.8000000000000002;"/><polygon fill="#000000" points="273.2548,317.6706,276.9129,310.9993,272.2929,310.1232,273.2548,317.6706" style="stroke:#000000;stroke-width:0.8000000000000002;"/><text fill="#000000" font-family="sans-serif" font-size="10.4" lengthAdjust="spacing" textLength="42.4" x="281.2" y="317.9961">gives info</text><text fill="#000000" font-family="sans-serif" font-size="10.4" lengthAdjust="spacing" textLength="4" x="289.4015" y="243.5459">*</text><text fill="#000000" font-family="sans-serif" font-size="10.4" lengthAdjust="spacing" textLength="4" x="250.0542" y="435.2504">*</text><!--MD5=[2bde3c2658e9820e0f62920496486001]
link Receptionist to VaccinationCenter--><path codeLine="95" d="M308.152,226.712 C320.336,257.416 348.232,327.72 370.184,383.04 " fill="none" id="Receptionist-VaccinationCenter" style="stroke:#A80036;stroke-width:0.8000000000000002;"/><polygon fill="#000000" points="349.8753,317.4586,349.3918,309.8655,345.0211,311.5999,349.8753,317.4586" style="stroke:#000000;stroke-width:0.8000000000000002;"/><text fill="#000000" font-family="sans-serif" font-size="10.4" lengthAdjust="spacing" textLength="39.2" x="355.6" y="317.9961">works at</text><text fill="#000000" font-family="sans-serif" font-size="10.4" lengthAdjust="spacing" textLength="4" x="305.2679" y="243.6497">*</text><text fill="#000000" font-family="sans-serif" font-size="10.4" lengthAdjust="spacing" textLength="5.6" x="361.953" y="374.3983">1</text><!--MD5=[96b780800fd67c3bd7a45a9497409787]
link CenterCoordinator to Company--><path codeLine="97" d="M519.92,282.528 C515.44,299.256 509.2,326.896 509.2,351.2 C509.2,351.2 509.2,351.2 509.2,643.6 C509.2,684.808 509.2,732.976 509.2,759.88 " fill="none" id="CenterCoordinator-Company" style="stroke:#A80036;stroke-width:0.8000000000000002;"/><polygon fill="#000000" points="513.1102,464.1396,515.6232,456.9582,510.9221,456.8526,513.1102,464.1396" style="stroke:#000000;stroke-width:0.8000000000000002;"/><text fill="#000000" font-family="sans-serif" font-size="10.4" lengthAdjust="spacing" textLength="41.6" x="520.4" y="464.3961">works for</text><text fill="#000000" font-family="sans-serif" font-size="10.4" lengthAdjust="spacing" textLength="4" x="514.0975" y="299.6996">*</text><text fill="#000000" font-family="sans-serif" font-size="10.4" lengthAdjust="spacing" textLength="5.6" x="502.9525" y="751.421">1</text><!--MD5=[3568623adf67b2630dce9e60c05bd02a]
link Vaccine to VaccineType--><path codeLine="98" d="M824.472,487.208 C839.344,510.424 861.616,545.12 881.2,575.2 C888.552,586.488 896.648,598.816 903.872,609.768 " fill="none" id="Vaccine-VaccineType" style="stroke:#A80036;stroke-width:0.8000000000000002;"/><polygon fill="#000000" points="887.3749,571.4977,885.4137,564.1463,881.4673,566.703,887.3749,571.4977" style="stroke:#000000;stroke-width:0.8000000000000002;"/><text fill="#000000" font-family="sans-serif" font-size="10.4" lengthAdjust="spacing" textLength="19.2" x="892.4" y="572.3961">is of</text><text fill="#000000" font-family="sans-serif" font-size="10.4" lengthAdjust="spacing" textLength="5.6" x="821.3786" y="504.0389">1</text><text fill="#000000" font-family="sans-serif" font-size="10.4" lengthAdjust="spacing" textLength="5.6" x="894.2758" y="601.2891">1</text><!--MD5=[11cbd578e9513a40800c84f06387e69f]
link Vaccine to VaccineTime--><path codeLine="99" d="M807.216,487.384 C806.936,510.568 806.616,545.112 806.8,575.2 C806.888,590.512 807.104,607.792 807.28,620.944 " fill="none" id="Vaccine-VaccineTime" style="stroke:#A80036;stroke-width:0.8000000000000002;"/><polygon fill="#000000" points="810.8019,572.1406,813.1496,564.9034,808.4473,564.9057,810.8019,572.1406" style="stroke:#000000;stroke-width:0.8000000000000002;"/><text fill="#000000" font-family="sans-serif" font-size="10.4" lengthAdjust="spacing" textLength="16.8" x="818" y="572.3961">has</text><text fill="#000000" font-family="sans-serif" font-size="10.4" lengthAdjust="spacing" textLength="4" x="802.8063" y="504.0334">*</text><text fill="#000000" font-family="sans-serif" font-size="10.4" lengthAdjust="spacing" textLength="5.6" x="800.9585" y="612.4536">1</text><!--MD5=[b7c01a66225ccbbe0e647cfd8fd1a74c]
link ScheduleVaccine to CheckCenterCapacity--><path codeLine="101" d="M232.312,686.632 C252.76,706.672 276.672,730.112 295.528,748.592 " fill="none" id="ScheduleVaccine-CheckCenterCapacity" style="stroke:#A80036;stroke-width:0.8000000000000002;"/><polygon fill="#000000" points="278.4567,720.5405,274.9347,713.7963,271.6432,717.1546,278.4567,720.5405" style="stroke:#000000;stroke-width:0.8000000000000002;"/><text fill="#000000" font-family="sans-serif" font-size="10.4" lengthAdjust="spacing" textLength="31.2" x="282.8" y="721.9961">verifies</text><text fill="#000000" font-family="sans-serif" font-size="10.4" lengthAdjust="spacing" textLength="5.6" x="231.9795" y="703.8729">1</text><text fill="#000000" font-family="sans-serif" font-size="10.4" lengthAdjust="spacing" textLength="4" x="285.7523" y="740.117">*</text><!--MD5=[ef8d911c79d99175ffefd054f3ff1973]
link HealthCareCenter to Vaccine--><path codeLine="102" d="M843.256,170.6 C840.64,204.672 833.728,289 824.4,359.2 C821.072,384.24 816.2,412.632 812.552,432.744 " fill="none" id="HealthCareCenter-Vaccine" style="stroke:#A80036;stroke-width:0.8000000000000002;"/><polygon fill="#000000" points="839.1347,270.5135,842.3116,263.6,837.6413,263.053,839.1347,270.5135" style="stroke:#000000;stroke-width:0.8000000000000002;"/><text fill="#000000" font-family="sans-serif" font-size="10.4" lengthAdjust="spacing" textLength="28.8" x="846.8" y="270.7961">stores</text><text fill="#000000" font-family="sans-serif" font-size="10.4" lengthAdjust="spacing" textLength="4" x="838.4111" y="187.5076">*</text><text fill="#000000" font-family="sans-serif" font-size="10.4" lengthAdjust="spacing" textLength="4" x="809.1332" y="424.1676">*</text><!--MD5=[f0553939d664499c8c3e148c02d4348e]
link VaccineType to Administrator--><path codeLine="103" d="M927.472,609.944 C929.84,573.744 933.2,513.072 933.2,460.8 C933.2,106.4 933.2,106.4 933.2,106.4 C933.2,58.704 778.952,35.24 702.424,26.536 " fill="none" id="VaccineType-Administrator" style="stroke:#A80036;stroke-width:0.8000000000000002;"/><polygon fill="#000000" points="935.7604,262.8087,936.1711,270.406,940.5583,268.7137,935.7604,262.8087" style="stroke:#000000;stroke-width:0.8000000000000002;"/><text fill="#000000" font-family="sans-serif" font-size="10.4" lengthAdjust="spacing" textLength="48.8" x="944.4" y="270.7961">created by</text><text fill="#000000" font-family="sans-serif" font-size="10.4" lengthAdjust="spacing" textLength="4" x="923.5188" y="601.251">*</text><text fill="#000000" font-family="sans-serif" font-size="10.4" lengthAdjust="spacing" textLength="5.6" x="708.7274" y="38.946">1</text><!--MD5=[c3dd7d5a27b29f54641ada6fcfd9df12]
link Vaccine to Administrator--><path codeLine="104" d="M805.344,432.672 C799.208,371.04 778.496,214.672 718.8,100 C706.576,76.52 687.384,52.656 674.36,37.704 " fill="none" id="Vaccine-Administrator" style="stroke:#A80036;stroke-width:0.8000000000000002;"/><polygon fill="#000000" points="768.7409,206.744,768.787,214.3523,773.2503,212.8721,768.7409,206.744" style="stroke:#000000;stroke-width:0.8000000000000002;"/><text fill="#000000" font-family="sans-serif" font-size="10.4" lengthAdjust="spacing" textLength="48.8" x="777.2" y="214.7961">created by</text><text fill="#000000" font-family="sans-serif" font-size="10.4" lengthAdjust="spacing" textLength="4" x="800.5061" y="424.0814">*</text><text fill="#000000" font-family="sans-serif" font-size="10.4" lengthAdjust="spacing" textLength="5.6" x="671.8988" y="54.8689">1</text><!--MD5=[d7626ca624fb3224570ce4b41bf1056d]
link Receptionist to ScheduleVaccine--><path codeLine="106" d="M288.544,226.712 C282.76,233.72 276.12,242.24 270.8,250.4 C244.904,290.096 240.976,301.728 221.2,344.8 C213.544,361.48 210.048,365.296 206,383.2 C189.136,457.76 186.896,547.232 187.304,599.056 " fill="none" id="Receptionist-ScheduleVaccine" style="stroke:#A80036;stroke-width:0.8000000000000002;"/><polygon fill="#000000" points="224.1505,356.0005,228.3178,349.6348,223.7803,348.4011,224.1505,356.0005" style="stroke:#000000;stroke-width:0.8000000000000002;"/><text fill="#000000" font-family="sans-serif" font-size="10.4" lengthAdjust="spacing" textLength="22.4" x="232.4" y="356.3961">does</text><text fill="#000000" font-family="sans-serif" font-size="10.4" lengthAdjust="spacing" textLength="5.6" x="278.5752" y="243.6497">1</text><text fill="#000000" font-family="sans-serif" font-size="10.4" lengthAdjust="spacing" textLength="4" x="182.9073" y="590.6362">*</text><!--MD5=[60d863184c66d594f97a000cf528eace]
link ScheduleVaccine to EmailMessage--><path codeLine="107" d="M188.4,686.632 C188.4,708.792 188.4,735.112 188.4,754.28 " fill="none" id="ScheduleVaccine-EmailMessage" style="stroke:#A80036;stroke-width:0.8000000000000002;"/><polygon fill="#000000" points="192.4,721.7406,194.7511,714.5046,190.0489,714.5046,192.4,721.7406" style="stroke:#000000;stroke-width:0.8000000000000002;"/><text fill="#000000" font-family="sans-serif" font-size="10.4" lengthAdjust="spacing" textLength="25.6" x="199.6" y="721.9961">emits</text><text fill="#000000" font-family="sans-serif" font-size="10.4" lengthAdjust="spacing" textLength="5.6" x="182.4413" y="703.8729">1</text><text fill="#000000" font-family="sans-serif" font-size="10.4" lengthAdjust="spacing" textLength="5.6" x="182.2488" y="745.691">1</text><!--MD5=[839adc2eaf10dc62e92e17f753e2b717]
link ScheduleVaccine to SMSMessage--><path codeLine="108" d="M147.248,686.632 C126.056,708.792 100.888,735.112 82.56,754.28 " fill="none" id="ScheduleVaccine-SMSMessage" style="stroke:#A80036;stroke-width:0.8000000000000002;"/><polygon fill="#000000" points="124.0355,720.6316,130.7358,717.0267,127.3372,713.7769,124.0355,720.6316" style="stroke:#000000;stroke-width:0.8000000000000002;"/><text fill="#000000" font-family="sans-serif" font-size="10.4" lengthAdjust="spacing" textLength="25.6" x="134" y="721.9961">emits</text><text fill="#000000" font-family="sans-serif" font-size="10.4" lengthAdjust="spacing" textLength="5.6" x="136.0167" y="703.8729">1</text><text fill="#000000" font-family="sans-serif" font-size="10.4" lengthAdjust="spacing" textLength="5.6" x="81.4015" y="745.691">1</text><!--MD5=[64d67b2370fffc59724a2aa203ca612d]
link SNSUser to ScheduleVaccine--><path codeLine="109" d="M248.408,476.248 C238.68,503.12 218.312,559.376 204.016,598.864 " fill="none" id="SNSUser-ScheduleVaccine" style="stroke:#A80036;stroke-width:0.8000000000000002;"/><polygon fill="#000000" points="220.6383,571.9017,225.3123,565.8982,220.8909,564.2975,220.6383,571.9017" style="stroke:#000000;stroke-width:0.8000000000000002;"/><text fill="#000000" font-family="sans-serif" font-size="10.4" lengthAdjust="spacing" textLength="22.4" x="229.2" y="572.3961">does</text><text fill="#000000" font-family="sans-serif" font-size="10.4" lengthAdjust="spacing" textLength="5.6" x="240.5527" y="493.1685">1</text><text fill="#000000" font-family="sans-serif" font-size="10.4" lengthAdjust="spacing" textLength="4" x="201.7606" y="590.4196">*</text><!--MD5=[9ea8b573625e56d0f43533b021429bfd]
link Administrator to HealthCareCenter--><path codeLine="110" d="M702.552,29.768 C726.4,35.488 755.8,45.288 778,61.6 C805.936,82.128 826.848,117.912 837.184,138.28 " fill="none" id="Administrator-HealthCareCenter" style="stroke:#A80036;stroke-width:0.8000000000000002;"/><polygon fill="#000000" points="799.5144,71.4508,795.3559,65.0793,792.405,68.7405,799.5144,71.4508" style="stroke:#000000;stroke-width:0.8000000000000002;"/><text fill="#000000" font-family="sans-serif" font-size="10.4" lengthAdjust="spacing" textLength="40" x="803.6" y="73.1961">registers</text><text fill="#000000" font-family="sans-serif" font-size="10.4" lengthAdjust="spacing" textLength="5.6" x="708.8734" y="28.0325">1</text><text fill="#000000" font-family="sans-serif" font-size="10.4" lengthAdjust="spacing" textLength="4" x="830.4768" y="129.7022">*</text><!--MD5=[9d4416648a909b7c1fd6e2cf655720cc]
@startuml
skinparam classAttributeIconSize 0
hide methods

class Administrator{
}

class Nurse{
}

class SNSUser{
}

class Receptionist{
}

class CenterCoordinator{
}

class HealthCareCenter {
}

class Company {
- designation
}

class SMSMessage {
- informationAppointment
- timeRecovery
}

class EmailMessage {
- informationAppointment
- timeRecovery
}

class Vaccine {
- vaccineName
- lot
}

class VaccineType {
- ageGroup
- dose
- vaccineDosage
}

class VaccineTime {
- timeBetweenDose
}

class CheckCenterCapacity {
- centerCapacity
- date
- time
}

class ScheduleVaccine {
- userNumberSNS
- vaccinationCenter
- date
- time
- typeOfVaccine
}

class VaccinationCenter {
  - name
  - address
  - emailAddress
  - phoneNumber
  - faxNumber
  - websiteAddress
  - openingHours
  - closingHours
  - slotDuration
  - maxVaccines
  - coordinator
}

Administrator "*"- - -"*" Nurse : registers >
Administrator "*"- - -"*" CenterCoordinator : registers >
Administrator "*"- - -"*" Receptionist : registers >
Administrator "*"- - -"*" SNSUser : registers >
Administrator "*"- - -"*" VaccinationCenter : registers >


Company "1"- - -"*" Administrator : knows >
SNSUser "*"- - -"1" Company : is client >



Nurse "*"- - -"*" Vaccine : administrates >
Nurse "*"- - -"1" VaccinationCenter : works at >

Receptionist "*"- - -"*" SNSUser : gives info >
Receptionist "*"- - -"1" VaccinationCenter : works at >

CenterCoordinator "*"- -"1" Company : works for >
Vaccine "1"- -"1" VaccineType : is of >
Vaccine "*"- -"1" VaccineTime : has >

ScheduleVaccine "1"- -"*" CheckCenterCapacity : verifies >
HealthCareCenter "*"- - -"*" Vaccine : stores >
VaccineType "*"- -"1" Administrator : created by >
Vaccine "*"- -"1" Administrator : created by >

Receptionist "1"- -"*" ScheduleVaccine : does >
ScheduleVaccine "1"- -"1" EmailMessage : emits >
ScheduleVaccine "1"- -"1" SMSMessage : emits >
SNSUser "1"- -"*" ScheduleVaccine : does >
Administrator "1"- -"*" HealthCareCenter : registers >



@endum

PlantUML version 1.2022.1(Tue Feb 01 18:19:58 GMT 2022)
(GPL source distribution)
Java Runtime: OpenJDK Runtime Environment
JVM: OpenJDK 64-Bit Server VM
Default Encoding: Cp1252
Language: en
Country: US
--></g></svg>