<?xml version="1.0" encoding="UTF-8" standalone="no"?><svg xmlns="http://www.w3.org/2000/svg" xmlns:xlink="http://www.w3.org/1999/xlink" contentScriptType="application/ecmascript" contentStyleType="text/css" height="1483px" preserveAspectRatio="none" style="width:1370px;height:1483px;background:#FFFFFF;" version="1.1" viewBox="0 0 1370 1483" width="1370px" zoomAndPan="magnify"><defs><filter height="300%" id="f1i1bvqz7giwgr" width="300%" x="-1" y="-1"><feGaussianBlur result="blurOut" stdDeviation="2.0"/><feColorMatrix in="blurOut" result="blurOut2" type="matrix" values="0 0 0 0 0 0 0 0 0 0 0 0 0 0 0 0 0 0 .4 0"/><feOffset dx="4.0" dy="4.0" in="blurOut2" result="blurOut3"/><feBlend in="SourceGraphic" in2="blurOut3" mode="normal"/></filter></defs><g><!--MD5=[da547346deef918ea16944ba046651ef]
class Administrator--><rect codeLine="4" fill="#FEFECE" filter="url(#f1i1bvqz7giwgr)" height="40" id="Administrator" style="stroke:#A80036;stroke-width:1.5;" width="105" x="485.5" y="7"/><ellipse cx="500.5" cy="23" fill="#ADD1B2" rx="11" ry="11" style="stroke:#A80036;stroke-width:1.0;"/><path d="M502.5,19.5 Q502.7031,19 502.9375,18.75 Q503.1719,18.5 503.4375,18.5 Q503.9063,18.5 504.2031,18.7813 Q504.5,19.0625 504.5,19.7188 L504.5,21.2813 Q504.5,21.9375 504.2188,22.2188 Q503.9375,22.5 503.5,22.5 Q503.1094,22.5 502.8594,22.3281 Q502.6094,22.1563 502.5,21.7031 Q502.4531,21.3906 502.2813,21.2188 Q501.9688,20.8906 501.4063,20.7031 Q500.8438,20.5 500.2813,20.5 Q499.5781,20.5 498.9844,20.7813 Q498.4063,21.0625 497.9531,21.6875 Q497.5,22.3125 497.5,23.1719 L497.5,24.0938 Q497.5,25.125 498.3438,25.8125 Q499.1875,26.5 500.6875,26.5 Q501.5781,26.5 502.2031,26.2969 Q502.5625,26.1875 502.9688,25.8281 Q503.2344,25.625 503.375,25.5625 Q503.5156,25.5 503.6875,25.5 Q504.0156,25.5 504.25,25.7656 Q504.5,26.0156 504.5,26.375 Q504.5,26.7188 504.1563,27.125 Q503.6563,27.7188 502.8594,28.0469 Q501.8125,28.5 500.5313,28.5 Q499.0313,28.5 497.8281,27.9063 Q496.8594,27.4375 496.1719,26.4219 Q495.5,25.4063 495.5,24.2031 L495.5,23.1094 Q495.5,21.8594 496.0938,20.7656 Q496.7031,19.6719 497.75,19.0938 Q498.8125,18.5 500,18.5 Q500.7188,18.5 501.3438,18.75 Q501.9688,19 502.5,19.5 Z " fill="#000000"/><text fill="#000000" font-family="sans-serif" font-size="12" lengthAdjust="spacing" textLength="73" x="514.5" y="27.9102">Administrator</text><line style="stroke:#A80036;stroke-width:1.5;" x1="486.5" x2="589.5" y1="39" y2="39"/><!--MD5=[a059576e163b46f56762f12600c49258]
class Nurse--><rect codeLine="7" fill="#FEFECE" filter="url(#f1i1bvqz7giwgr)" height="40" id="Nurse" style="stroke:#A80036;stroke-width:1.5;" width="66" x="710" y="187"/><ellipse cx="725" cy="203" fill="#ADD1B2" rx="11" ry="11" style="stroke:#A80036;stroke-width:1.0;"/><path d="M727,199.5 Q727.2031,199 727.4375,198.75 Q727.6719,198.5 727.9375,198.5 Q728.4063,198.5 728.7031,198.7813 Q729,199.0625 729,199.7188 L729,201.2813 Q729,201.9375 728.7188,202.2188 Q728.4375,202.5 728,202.5 Q727.6094,202.5 727.3594,202.3281 Q727.1094,202.1563 727,201.7031 Q726.9531,201.3906 726.7813,201.2188 Q726.4688,200.8906 725.9063,200.7031 Q725.3438,200.5 724.7813,200.5 Q724.0781,200.5 723.4844,200.7813 Q722.9063,201.0625 722.4531,201.6875 Q722,202.3125 722,203.1719 L722,204.0938 Q722,205.125 722.8438,205.8125 Q723.6875,206.5 725.1875,206.5 Q726.0781,206.5 726.7031,206.2969 Q727.0625,206.1875 727.4688,205.8281 Q727.7344,205.625 727.875,205.5625 Q728.0156,205.5 728.1875,205.5 Q728.5156,205.5 728.75,205.7656 Q729,206.0156 729,206.375 Q729,206.7188 728.6563,207.125 Q728.1563,207.7188 727.3594,208.0469 Q726.3125,208.5 725.0313,208.5 Q723.5313,208.5 722.3281,207.9063 Q721.3594,207.4375 720.6719,206.4219 Q720,205.4063 720,204.2031 L720,203.1094 Q720,201.8594 720.5938,200.7656 Q721.2031,199.6719 722.25,199.0938 Q723.3125,198.5 724.5,198.5 Q725.2188,198.5 725.8438,198.75 Q726.4688,199 727,199.5 Z " fill="#000000"/><text fill="#000000" font-family="sans-serif" font-size="12" lengthAdjust="spacing" textLength="34" x="739" y="207.9102">Nurse</text><line style="stroke:#A80036;stroke-width:1.5;" x1="711" x2="775" y1="219" y2="219"/><!--MD5=[72be06cc7ae02ccc98efe28a50e62246]
class SNSUser--><rect codeLine="10" fill="#FEFECE" filter="url(#f1i1bvqz7giwgr)" height="40" id="SNSUser" style="stroke:#A80036;stroke-width:1.5;" width="84" x="7" y="482"/><ellipse cx="22" cy="498" fill="#ADD1B2" rx="11" ry="11" style="stroke:#A80036;stroke-width:1.0;"/><path d="M24,494.5 Q24.2031,494 24.4375,493.75 Q24.6719,493.5 24.9375,493.5 Q25.4063,493.5 25.7031,493.7813 Q26,494.0625 26,494.7188 L26,496.2813 Q26,496.9375 25.7188,497.2188 Q25.4375,497.5 25,497.5 Q24.6094,497.5 24.3594,497.3281 Q24.1094,497.1563 24,496.7031 Q23.9531,496.3906 23.7813,496.2188 Q23.4688,495.8906 22.9063,495.7031 Q22.3438,495.5 21.7813,495.5 Q21.0781,495.5 20.4844,495.7813 Q19.9063,496.0625 19.4531,496.6875 Q19,497.3125 19,498.1719 L19,499.0938 Q19,500.125 19.8438,500.8125 Q20.6875,501.5 22.1875,501.5 Q23.0781,501.5 23.7031,501.2969 Q24.0625,501.1875 24.4688,500.8281 Q24.7344,500.625 24.875,500.5625 Q25.0156,500.5 25.1875,500.5 Q25.5156,500.5 25.75,500.7656 Q26,501.0156 26,501.375 Q26,501.7188 25.6563,502.125 Q25.1563,502.7188 24.3594,503.0469 Q23.3125,503.5 22.0313,503.5 Q20.5313,503.5 19.3281,502.9063 Q18.3594,502.4375 17.6719,501.4219 Q17,500.4063 17,499.2031 L17,498.1094 Q17,496.8594 17.5938,495.7656 Q18.2031,494.6719 19.25,494.0938 Q20.3125,493.5 21.5,493.5 Q22.2188,493.5 22.8438,493.75 Q23.4688,494 24,494.5 Z " fill="#000000"/><text fill="#000000" font-family="sans-serif" font-size="12" lengthAdjust="spacing" textLength="52" x="36" y="502.9102">SNSUser</text><line style="stroke:#A80036;stroke-width:1.5;" x1="8" x2="90" y1="514" y2="514"/><!--MD5=[03960189e81aa2c066c762ffabbee709]
class Receptionist--><rect codeLine="13" fill="#FEFECE" filter="url(#f1i1bvqz7giwgr)" height="40" id="Receptionist" style="stroke:#A80036;stroke-width:1.5;" width="101" x="366.5" y="187"/><ellipse cx="381.5" cy="203" fill="#ADD1B2" rx="11" ry="11" style="stroke:#A80036;stroke-width:1.0;"/><path d="M383.5,199.5 Q383.7031,199 383.9375,198.75 Q384.1719,198.5 384.4375,198.5 Q384.9063,198.5 385.2031,198.7813 Q385.5,199.0625 385.5,199.7188 L385.5,201.2813 Q385.5,201.9375 385.2188,202.2188 Q384.9375,202.5 384.5,202.5 Q384.1094,202.5 383.8594,202.3281 Q383.6094,202.1563 383.5,201.7031 Q383.4531,201.3906 383.2813,201.2188 Q382.9688,200.8906 382.4063,200.7031 Q381.8438,200.5 381.2813,200.5 Q380.5781,200.5 379.9844,200.7813 Q379.4063,201.0625 378.9531,201.6875 Q378.5,202.3125 378.5,203.1719 L378.5,204.0938 Q378.5,205.125 379.3438,205.8125 Q380.1875,206.5 381.6875,206.5 Q382.5781,206.5 383.2031,206.2969 Q383.5625,206.1875 383.9688,205.8281 Q384.2344,205.625 384.375,205.5625 Q384.5156,205.5 384.6875,205.5 Q385.0156,205.5 385.25,205.7656 Q385.5,206.0156 385.5,206.375 Q385.5,206.7188 385.1563,207.125 Q384.6563,207.7188 383.8594,208.0469 Q382.8125,208.5 381.5313,208.5 Q380.0313,208.5 378.8281,207.9063 Q377.8594,207.4375 377.1719,206.4219 Q376.5,205.4063 376.5,204.2031 L376.5,203.1094 Q376.5,201.8594 377.0938,200.7656 Q377.7031,199.6719 378.75,199.0938 Q379.8125,198.5 381,198.5 Q381.7188,198.5 382.3438,198.75 Q382.9688,199 383.5,199.5 Z " fill="#000000"/><text fill="#000000" font-family="sans-serif" font-size="12" lengthAdjust="spacing" textLength="69" x="395.5" y="207.9102">Receptionist</text><line style="stroke:#A80036;stroke-width:1.5;" x1="367.5" x2="466.5" y1="219" y2="219"/><!--MD5=[2d935fd2dd068a13da1ae531f9857c4f]
class CenterCoordinator--><rect codeLine="16" fill="#FEFECE" filter="url(#f1i1bvqz7giwgr)" height="40" id="CenterCoordinator" style="stroke:#A80036;stroke-width:1.5;" width="134" x="1086" y="257"/><ellipse cx="1101" cy="273" fill="#ADD1B2" rx="11" ry="11" style="stroke:#A80036;stroke-width:1.0;"/><path d="M1103,269.5 Q1103.2031,269 1103.4375,268.75 Q1103.6719,268.5 1103.9375,268.5 Q1104.4063,268.5 1104.7031,268.7813 Q1105,269.0625 1105,269.7188 L1105,271.2813 Q1105,271.9375 1104.7188,272.2188 Q1104.4375,272.5 1104,272.5 Q1103.6094,272.5 1103.3594,272.3281 Q1103.1094,272.1563 1103,271.7031 Q1102.9531,271.3906 1102.7813,271.2188 Q1102.4688,270.8906 1101.9063,270.7031 Q1101.3438,270.5 1100.7813,270.5 Q1100.0781,270.5 1099.4844,270.7813 Q1098.9063,271.0625 1098.4531,271.6875 Q1098,272.3125 1098,273.1719 L1098,274.0938 Q1098,275.125 1098.8438,275.8125 Q1099.6875,276.5 1101.1875,276.5 Q1102.0781,276.5 1102.7031,276.2969 Q1103.0625,276.1875 1103.4688,275.8281 Q1103.7344,275.625 1103.875,275.5625 Q1104.0156,275.5 1104.1875,275.5 Q1104.5156,275.5 1104.75,275.7656 Q1105,276.0156 1105,276.375 Q1105,276.7188 1104.6563,277.125 Q1104.1563,277.7188 1103.3594,278.0469 Q1102.3125,278.5 1101.0313,278.5 Q1099.5313,278.5 1098.3281,277.9063 Q1097.3594,277.4375 1096.6719,276.4219 Q1096,275.4063 1096,274.2031 L1096,273.1094 Q1096,271.8594 1096.5938,270.7656 Q1097.2031,269.6719 1098.25,269.0938 Q1099.3125,268.5 1100.5,268.5 Q1101.2188,268.5 1101.8438,268.75 Q1102.4688,269 1103,269.5 Z " fill="#000000"/><text fill="#000000" font-family="sans-serif" font-size="12" lengthAdjust="spacing" textLength="102" x="1115" y="277.9102">CenterCoordinator</text><line style="stroke:#A80036;stroke-width:1.5;" x1="1087" x2="1219" y1="289" y2="289"/><!--MD5=[1db03e903fe0a044a2ca0dcbef10799a]
class HealthCareCenter--><rect codeLine="19" fill="#FEFECE" filter="url(#f1i1bvqz7giwgr)" height="40" id="HealthCareCenter" style="stroke:#A80036;stroke-width:1.5;" width="132" x="413" y="946.5"/><ellipse cx="428" cy="962.5" fill="#ADD1B2" rx="11" ry="11" style="stroke:#A80036;stroke-width:1.0;"/><path d="M430,959 Q430.2031,958.5 430.4375,958.25 Q430.6719,958 430.9375,958 Q431.4063,958 431.7031,958.2813 Q432,958.5625 432,959.2188 L432,960.7813 Q432,961.4375 431.7188,961.7188 Q431.4375,962 431,962 Q430.6094,962 430.3594,961.8281 Q430.1094,961.6563 430,961.2031 Q429.9531,960.8906 429.7813,960.7188 Q429.4688,960.3906 428.9063,960.2031 Q428.3438,960 427.7813,960 Q427.0781,960 426.4844,960.2813 Q425.9063,960.5625 425.4531,961.1875 Q425,961.8125 425,962.6719 L425,963.5938 Q425,964.625 425.8438,965.3125 Q426.6875,966 428.1875,966 Q429.0781,966 429.7031,965.7969 Q430.0625,965.6875 430.4688,965.3281 Q430.7344,965.125 430.875,965.0625 Q431.0156,965 431.1875,965 Q431.5156,965 431.75,965.2656 Q432,965.5156 432,965.875 Q432,966.2188 431.6563,966.625 Q431.1563,967.2188 430.3594,967.5469 Q429.3125,968 428.0313,968 Q426.5313,968 425.3281,967.4063 Q424.3594,966.9375 423.6719,965.9219 Q423,964.9063 423,963.7031 L423,962.6094 Q423,961.3594 423.5938,960.2656 Q424.2031,959.1719 425.25,958.5938 Q426.3125,958 427.5,958 Q428.2188,958 428.8438,958.25 Q429.4688,958.5 430,959 Z " fill="#000000"/><text fill="#000000" font-family="sans-serif" font-size="12" lengthAdjust="spacing" textLength="100" x="442" y="967.4102">HealthCareCenter</text><line style="stroke:#A80036;stroke-width:1.5;" x1="414" x2="544" y1="978.5" y2="978.5"/><!--MD5=[9dec31851c9c504cad5b41bb142d96c3]
class DGS--><rect codeLine="22" fill="#FEFECE" filter="url(#f1i1bvqz7giwgr)" height="40" id="DGS" style="stroke:#A80036;stroke-width:1.5;" width="58" x="1105" y="482"/><ellipse cx="1120" cy="498" fill="#ADD1B2" rx="11" ry="11" style="stroke:#A80036;stroke-width:1.0;"/><path d="M1122,494.5 Q1122.2031,494 1122.4375,493.75 Q1122.6719,493.5 1122.9375,493.5 Q1123.4063,493.5 1123.7031,493.7813 Q1124,494.0625 1124,494.7188 L1124,496.2813 Q1124,496.9375 1123.7188,497.2188 Q1123.4375,497.5 1123,497.5 Q1122.6094,497.5 1122.3594,497.3281 Q1122.1094,497.1563 1122,496.7031 Q1121.9531,496.3906 1121.7813,496.2188 Q1121.4688,495.8906 1120.9063,495.7031 Q1120.3438,495.5 1119.7813,495.5 Q1119.0781,495.5 1118.4844,495.7813 Q1117.9063,496.0625 1117.4531,496.6875 Q1117,497.3125 1117,498.1719 L1117,499.0938 Q1117,500.125 1117.8438,500.8125 Q1118.6875,501.5 1120.1875,501.5 Q1121.0781,501.5 1121.7031,501.2969 Q1122.0625,501.1875 1122.4688,500.8281 Q1122.7344,500.625 1122.875,500.5625 Q1123.0156,500.5 1123.1875,500.5 Q1123.5156,500.5 1123.75,500.7656 Q1124,501.0156 1124,501.375 Q1124,501.7188 1123.6563,502.125 Q1123.1563,502.7188 1122.3594,503.0469 Q1121.3125,503.5 1120.0313,503.5 Q1118.5313,503.5 1117.3281,502.9063 Q1116.3594,502.4375 1115.6719,501.4219 Q1115,500.4063 1115,499.2031 L1115,498.1094 Q1115,496.8594 1115.5938,495.7656 Q1116.2031,494.6719 1117.25,494.0938 Q1118.3125,493.5 1119.5,493.5 Q1120.2188,493.5 1120.8438,493.75 Q1121.4688,494 1122,494.5 Z " fill="#000000"/><text fill="#000000" font-family="sans-serif" font-size="12" lengthAdjust="spacing" textLength="26" x="1134" y="502.9102">DGS</text><line style="stroke:#A80036;stroke-width:1.5;" x1="1106" x2="1162" y1="514" y2="514"/><!--MD5=[9ea49a1aeafb47670c552d4be8173f86]
class MassiveVaccinationCenter--><rect codeLine="25" fill="#FEFECE" filter="url(#f1i1bvqz7giwgr)" height="40" id="MassiveVaccinationCenter" style="stroke:#A80036;stroke-width:1.5;" width="177" x="1045.5" y="676"/><ellipse cx="1060.5" cy="692" fill="#ADD1B2" rx="11" ry="11" style="stroke:#A80036;stroke-width:1.0;"/><path d="M1062.5,688.5 Q1062.7031,688 1062.9375,687.75 Q1063.1719,687.5 1063.4375,687.5 Q1063.9063,687.5 1064.2031,687.7813 Q1064.5,688.0625 1064.5,688.7188 L1064.5,690.2813 Q1064.5,690.9375 1064.2188,691.2188 Q1063.9375,691.5 1063.5,691.5 Q1063.1094,691.5 1062.8594,691.3281 Q1062.6094,691.1563 1062.5,690.7031 Q1062.4531,690.3906 1062.2813,690.2188 Q1061.9688,689.8906 1061.4063,689.7031 Q1060.8438,689.5 1060.2813,689.5 Q1059.5781,689.5 1058.9844,689.7813 Q1058.4063,690.0625 1057.9531,690.6875 Q1057.5,691.3125 1057.5,692.1719 L1057.5,693.0938 Q1057.5,694.125 1058.3438,694.8125 Q1059.1875,695.5 1060.6875,695.5 Q1061.5781,695.5 1062.2031,695.2969 Q1062.5625,695.1875 1062.9688,694.8281 Q1063.2344,694.625 1063.375,694.5625 Q1063.5156,694.5 1063.6875,694.5 Q1064.0156,694.5 1064.25,694.7656 Q1064.5,695.0156 1064.5,695.375 Q1064.5,695.7188 1064.1563,696.125 Q1063.6563,696.7188 1062.8594,697.0469 Q1061.8125,697.5 1060.5313,697.5 Q1059.0313,697.5 1057.8281,696.9063 Q1056.8594,696.4375 1056.1719,695.4219 Q1055.5,694.4063 1055.5,693.2031 L1055.5,692.1094 Q1055.5,690.8594 1056.0938,689.7656 Q1056.7031,688.6719 1057.75,688.0938 Q1058.8125,687.5 1060,687.5 Q1060.7188,687.5 1061.3438,687.75 Q1061.9688,688 1062.5,688.5 Z " fill="#000000"/><text fill="#000000" font-family="sans-serif" font-size="12" lengthAdjust="spacing" textLength="145" x="1074.5" y="696.9102">MassiveVaccinationCenter</text><line style="stroke:#A80036;stroke-width:1.5;" x1="1046.5" x2="1221.5" y1="708" y2="708"/><!--MD5=[ae27ab334c9ca5f6a013ce0b55b99b8c]
class CovidDigitalCertificate--><rect codeLine="28" fill="#FEFECE" filter="url(#f1i1bvqz7giwgr)" height="40" id="CovidDigitalCertificate" style="stroke:#A80036;stroke-width:1.5;" width="153" x="580.5" y="946.5"/><ellipse cx="595.5" cy="962.5" fill="#ADD1B2" rx="11" ry="11" style="stroke:#A80036;stroke-width:1.0;"/><path d="M597.5,959 Q597.7031,958.5 597.9375,958.25 Q598.1719,958 598.4375,958 Q598.9063,958 599.2031,958.2813 Q599.5,958.5625 599.5,959.2188 L599.5,960.7813 Q599.5,961.4375 599.2188,961.7188 Q598.9375,962 598.5,962 Q598.1094,962 597.8594,961.8281 Q597.6094,961.6563 597.5,961.2031 Q597.4531,960.8906 597.2813,960.7188 Q596.9688,960.3906 596.4063,960.2031 Q595.8438,960 595.2813,960 Q594.5781,960 593.9844,960.2813 Q593.4063,960.5625 592.9531,961.1875 Q592.5,961.8125 592.5,962.6719 L592.5,963.5938 Q592.5,964.625 593.3438,965.3125 Q594.1875,966 595.6875,966 Q596.5781,966 597.2031,965.7969 Q597.5625,965.6875 597.9688,965.3281 Q598.2344,965.125 598.375,965.0625 Q598.5156,965 598.6875,965 Q599.0156,965 599.25,965.2656 Q599.5,965.5156 599.5,965.875 Q599.5,966.2188 599.1563,966.625 Q598.6563,967.2188 597.8594,967.5469 Q596.8125,968 595.5313,968 Q594.0313,968 592.8281,967.4063 Q591.8594,966.9375 591.1719,965.9219 Q590.5,964.9063 590.5,963.7031 L590.5,962.6094 Q590.5,961.3594 591.0938,960.2656 Q591.7031,959.1719 592.75,958.5938 Q593.8125,958 595,958 Q595.7188,958 596.3438,958.25 Q596.9688,958.5 597.5,959 Z " fill="#000000"/><text fill="#000000" font-family="sans-serif" font-size="12" lengthAdjust="spacing" textLength="121" x="609.5" y="967.4102">CovidDigitalCertificate</text><line style="stroke:#A80036;stroke-width:1.5;" x1="581.5" x2="732.5" y1="978.5" y2="978.5"/><!--MD5=[335f4d9be48430461c68bf6d6fdba145]
class App--><rect codeLine="31" fill="#FEFECE" filter="url(#f1i1bvqz7giwgr)" height="40" id="App" style="stroke:#A80036;stroke-width:1.5;" width="53" x="452.5" y="794"/><ellipse cx="467.5" cy="810" fill="#ADD1B2" rx="11" ry="11" style="stroke:#A80036;stroke-width:1.0;"/><path d="M469.5,806.5 Q469.7031,806 469.9375,805.75 Q470.1719,805.5 470.4375,805.5 Q470.9063,805.5 471.2031,805.7813 Q471.5,806.0625 471.5,806.7188 L471.5,808.2813 Q471.5,808.9375 471.2188,809.2188 Q470.9375,809.5 470.5,809.5 Q470.1094,809.5 469.8594,809.3281 Q469.6094,809.1563 469.5,808.7031 Q469.4531,808.3906 469.2813,808.2188 Q468.9688,807.8906 468.4063,807.7031 Q467.8438,807.5 467.2813,807.5 Q466.5781,807.5 465.9844,807.7813 Q465.4063,808.0625 464.9531,808.6875 Q464.5,809.3125 464.5,810.1719 L464.5,811.0938 Q464.5,812.125 465.3438,812.8125 Q466.1875,813.5 467.6875,813.5 Q468.5781,813.5 469.2031,813.2969 Q469.5625,813.1875 469.9688,812.8281 Q470.2344,812.625 470.375,812.5625 Q470.5156,812.5 470.6875,812.5 Q471.0156,812.5 471.25,812.7656 Q471.5,813.0156 471.5,813.375 Q471.5,813.7188 471.1563,814.125 Q470.6563,814.7188 469.8594,815.0469 Q468.8125,815.5 467.5313,815.5 Q466.0313,815.5 464.8281,814.9063 Q463.8594,814.4375 463.1719,813.4219 Q462.5,812.4063 462.5,811.2031 L462.5,810.1094 Q462.5,808.8594 463.0938,807.7656 Q463.7031,806.6719 464.75,806.0938 Q465.8125,805.5 467,805.5 Q467.7188,805.5 468.3438,805.75 Q468.9688,806 469.5,806.5 Z " fill="#000000"/><text fill="#000000" font-family="sans-serif" font-size="12" lengthAdjust="spacing" textLength="21" x="481.5" y="814.9102">App</text><line style="stroke:#A80036;stroke-width:1.5;" x1="453.5" x2="504.5" y1="826" y2="826"/><!--MD5=[35b584b1cc5a5643474015f373c930e7]
class SMSMessage--><rect codeLine="34" fill="#FEFECE" filter="url(#f1i1bvqz7giwgr)" height="67.6719" id="SMSMessage" style="stroke:#A80036;stroke-width:1.5;" width="129" x="768.5" y="932.5"/><ellipse cx="792.95" cy="948.5" fill="#ADD1B2" rx="11" ry="11" style="stroke:#A80036;stroke-width:1.0;"/><path d="M794.95,945 Q795.1531,944.5 795.3875,944.25 Q795.6219,944 795.8875,944 Q796.3563,944 796.6531,944.2813 Q796.95,944.5625 796.95,945.2188 L796.95,946.7813 Q796.95,947.4375 796.6688,947.7188 Q796.3875,948 795.95,948 Q795.5594,948 795.3094,947.8281 Q795.0594,947.6563 794.95,947.2031 Q794.9031,946.8906 794.7313,946.7188 Q794.4188,946.3906 793.8563,946.2031 Q793.2938,946 792.7313,946 Q792.0281,946 791.4344,946.2813 Q790.8563,946.5625 790.4031,947.1875 Q789.95,947.8125 789.95,948.6719 L789.95,949.5938 Q789.95,950.625 790.7938,951.3125 Q791.6375,952 793.1375,952 Q794.0281,952 794.6531,951.7969 Q795.0125,951.6875 795.4188,951.3281 Q795.6844,951.125 795.825,951.0625 Q795.9656,951 796.1375,951 Q796.4656,951 796.7,951.2656 Q796.95,951.5156 796.95,951.875 Q796.95,952.2188 796.6063,952.625 Q796.1063,953.2188 795.3094,953.5469 Q794.2625,954 792.9813,954 Q791.4813,954 790.2781,953.4063 Q789.3094,952.9375 788.6219,951.9219 Q787.95,950.9063 787.95,949.7031 L787.95,948.6094 Q787.95,947.3594 788.5438,946.2656 Q789.1531,945.1719 790.2,944.5938 Q791.2625,944 792.45,944 Q793.1688,944 793.7938,944.25 Q794.4188,944.5 794.95,945 Z " fill="#000000"/><text fill="#000000" font-family="sans-serif" font-size="12" lengthAdjust="spacing" textLength="76" x="809.05" y="953.4102">SMSMessage</text><line style="stroke:#A80036;stroke-width:1.5;" x1="769.5" x2="896.5" y1="964.5" y2="964.5"/><text fill="#000000" font-family="sans-serif" font-size="11" lengthAdjust="spacing" textLength="117" x="774.5" y="979.9189">-informationAppointment</text><text fill="#000000" font-family="sans-serif" font-size="11" lengthAdjust="spacing" textLength="70" x="774.5" y="993.7549">-timeRecovery</text><!--MD5=[ff8178074f81ca799b3d9493f422ea40]
class EmailMessage--><rect codeLine="39" fill="#FEFECE" filter="url(#f1i1bvqz7giwgr)" height="67.6719" id="EmailMessage" style="stroke:#A80036;stroke-width:1.5;" width="129" x="86.5" y="932.5"/><ellipse cx="107.8" cy="948.5" fill="#ADD1B2" rx="11" ry="11" style="stroke:#A80036;stroke-width:1.0;"/><path d="M109.8,945 Q110.0031,944.5 110.2375,944.25 Q110.4719,944 110.7375,944 Q111.2063,944 111.5031,944.2813 Q111.8,944.5625 111.8,945.2188 L111.8,946.7813 Q111.8,947.4375 111.5188,947.7188 Q111.2375,948 110.8,948 Q110.4094,948 110.1594,947.8281 Q109.9094,947.6563 109.8,947.2031 Q109.7531,946.8906 109.5813,946.7188 Q109.2688,946.3906 108.7063,946.2031 Q108.1438,946 107.5813,946 Q106.8781,946 106.2844,946.2813 Q105.7063,946.5625 105.2531,947.1875 Q104.8,947.8125 104.8,948.6719 L104.8,949.5938 Q104.8,950.625 105.6438,951.3125 Q106.4875,952 107.9875,952 Q108.8781,952 109.5031,951.7969 Q109.8625,951.6875 110.2688,951.3281 Q110.5344,951.125 110.675,951.0625 Q110.8156,951 110.9875,951 Q111.3156,951 111.55,951.2656 Q111.8,951.5156 111.8,951.875 Q111.8,952.2188 111.4563,952.625 Q110.9563,953.2188 110.1594,953.5469 Q109.1125,954 107.8313,954 Q106.3313,954 105.1281,953.4063 Q104.1594,952.9375 103.4719,951.9219 Q102.8,950.9063 102.8,949.7031 L102.8,948.6094 Q102.8,947.3594 103.3938,946.2656 Q104.0031,945.1719 105.05,944.5938 Q106.1125,944 107.3,944 Q108.0188,944 108.6438,944.25 Q109.2688,944.5 109.8,945 Z " fill="#000000"/><text fill="#000000" font-family="sans-serif" font-size="12" lengthAdjust="spacing" textLength="83" x="123.2" y="953.4102">EmailMessage</text><line style="stroke:#A80036;stroke-width:1.5;" x1="87.5" x2="214.5" y1="964.5" y2="964.5"/><text fill="#000000" font-family="sans-serif" font-size="11" lengthAdjust="spacing" textLength="117" x="92.5" y="979.9189">-informationAppointment</text><text fill="#000000" font-family="sans-serif" font-size="11" lengthAdjust="spacing" textLength="70" x="92.5" y="993.7549">-timeRecovery</text><!--MD5=[19e445fc4d3b48519cbe33da05496394]
class Vaccine--><rect codeLine="44" fill="#FEFECE" filter="url(#f1i1bvqz7giwgr)" height="67.6719" id="Vaccine" style="stroke:#A80036;stroke-width:1.5;" width="81" x="792.5" y="1242"/><ellipse cx="810.2" cy="1258" fill="#ADD1B2" rx="11" ry="11" style="stroke:#A80036;stroke-width:1.0;"/><path d="M812.2,1254.5 Q812.4031,1254 812.6375,1253.75 Q812.8719,1253.5 813.1375,1253.5 Q813.6063,1253.5 813.9031,1253.7813 Q814.2,1254.0625 814.2,1254.7188 L814.2,1256.2813 Q814.2,1256.9375 813.9188,1257.2188 Q813.6375,1257.5 813.2,1257.5 Q812.8094,1257.5 812.5594,1257.3281 Q812.3094,1257.1563 812.2,1256.7031 Q812.1531,1256.3906 811.9813,1256.2188 Q811.6688,1255.8906 811.1063,1255.7031 Q810.5438,1255.5 809.9813,1255.5 Q809.2781,1255.5 808.6844,1255.7813 Q808.1063,1256.0625 807.6531,1256.6875 Q807.2,1257.3125 807.2,1258.1719 L807.2,1259.0938 Q807.2,1260.125 808.0438,1260.8125 Q808.8875,1261.5 810.3875,1261.5 Q811.2781,1261.5 811.9031,1261.2969 Q812.2625,1261.1875 812.6688,1260.8281 Q812.9344,1260.625 813.075,1260.5625 Q813.2156,1260.5 813.3875,1260.5 Q813.7156,1260.5 813.95,1260.7656 Q814.2,1261.0156 814.2,1261.375 Q814.2,1261.7188 813.8563,1262.125 Q813.3563,1262.7188 812.5594,1263.0469 Q811.5125,1263.5 810.2313,1263.5 Q808.7313,1263.5 807.5281,1262.9063 Q806.5594,1262.4375 805.8719,1261.4219 Q805.2,1260.4063 805.2,1259.2031 L805.2,1258.1094 Q805.2,1256.8594 805.7938,1255.7656 Q806.4031,1254.6719 807.45,1254.0938 Q808.5125,1253.5 809.7,1253.5 Q810.4188,1253.5 811.0438,1253.75 Q811.6688,1254 812.2,1254.5 Z " fill="#000000"/><text fill="#000000" font-family="sans-serif" font-size="12" lengthAdjust="spacing" textLength="43" x="824.8" y="1262.9102">Vaccine</text><line style="stroke:#A80036;stroke-width:1.5;" x1="793.5" x2="872.5" y1="1274" y2="1274"/><text fill="#000000" font-family="sans-serif" font-size="11" lengthAdjust="spacing" textLength="69" x="798.5" y="1289.4189">-vaccineName</text><text fill="#000000" font-family="sans-serif" font-size="11" lengthAdjust="spacing" textLength="15" x="798.5" y="1303.2549">-lot</text><!--MD5=[0e501da62322464167c8ec4d233a6b7e]
class VaccineType--><rect codeLine="49" fill="#FEFECE" filter="url(#f1i1bvqz7giwgr)" height="81.5078" id="VaccineType" style="stroke:#A80036;stroke-width:1.5;" width="101" x="713.5" y="1388"/><ellipse cx="728.5" cy="1404" fill="#ADD1B2" rx="11" ry="11" style="stroke:#A80036;stroke-width:1.0;"/><path d="M730.5,1400.5 Q730.7031,1400 730.9375,1399.75 Q731.1719,1399.5 731.4375,1399.5 Q731.9063,1399.5 732.2031,1399.7813 Q732.5,1400.0625 732.5,1400.7188 L732.5,1402.2813 Q732.5,1402.9375 732.2188,1403.2188 Q731.9375,1403.5 731.5,1403.5 Q731.1094,1403.5 730.8594,1403.3281 Q730.6094,1403.1563 730.5,1402.7031 Q730.4531,1402.3906 730.2813,1402.2188 Q729.9688,1401.8906 729.4063,1401.7031 Q728.8438,1401.5 728.2813,1401.5 Q727.5781,1401.5 726.9844,1401.7813 Q726.4063,1402.0625 725.9531,1402.6875 Q725.5,1403.3125 725.5,1404.1719 L725.5,1405.0938 Q725.5,1406.125 726.3438,1406.8125 Q727.1875,1407.5 728.6875,1407.5 Q729.5781,1407.5 730.2031,1407.2969 Q730.5625,1407.1875 730.9688,1406.8281 Q731.2344,1406.625 731.375,1406.5625 Q731.5156,1406.5 731.6875,1406.5 Q732.0156,1406.5 732.25,1406.7656 Q732.5,1407.0156 732.5,1407.375 Q732.5,1407.7188 732.1563,1408.125 Q731.6563,1408.7188 730.8594,1409.0469 Q729.8125,1409.5 728.5313,1409.5 Q727.0313,1409.5 725.8281,1408.9063 Q724.8594,1408.4375 724.1719,1407.4219 Q723.5,1406.4063 723.5,1405.2031 L723.5,1404.1094 Q723.5,1402.8594 724.0938,1401.7656 Q724.7031,1400.6719 725.75,1400.0938 Q726.8125,1399.5 728,1399.5 Q728.7188,1399.5 729.3438,1399.75 Q729.9688,1400 730.5,1400.5 Z " fill="#000000"/><text fill="#000000" font-family="sans-serif" font-size="12" lengthAdjust="spacing" textLength="69" x="742.5" y="1408.9102">VaccineType</text><line style="stroke:#A80036;stroke-width:1.5;" x1="714.5" x2="813.5" y1="1420" y2="1420"/><text fill="#000000" font-family="sans-serif" font-size="11" lengthAdjust="spacing" textLength="52" x="719.5" y="1435.4189">-ageGroup</text><text fill="#000000" font-family="sans-serif" font-size="11" lengthAdjust="spacing" textLength="28" x="719.5" y="1449.2549">-dose</text><text fill="#000000" font-family="sans-serif" font-size="11" lengthAdjust="spacing" textLength="79" x="719.5" y="1463.0908">-vaccineDosage</text><!--MD5=[8fdfefe237645151c947b814b3595f6b]
class VaccineTime--><rect codeLine="55" fill="#FEFECE" filter="url(#f1i1bvqz7giwgr)" height="53.8359" id="VaccineTime" style="stroke:#A80036;stroke-width:1.5;" width="104" x="850" y="1402"/><ellipse cx="865.45" cy="1418" fill="#ADD1B2" rx="11" ry="11" style="stroke:#A80036;stroke-width:1.0;"/><path d="M867.45,1414.5 Q867.6531,1414 867.8875,1413.75 Q868.1219,1413.5 868.3875,1413.5 Q868.8563,1413.5 869.1531,1413.7813 Q869.45,1414.0625 869.45,1414.7188 L869.45,1416.2813 Q869.45,1416.9375 869.1688,1417.2188 Q868.8875,1417.5 868.45,1417.5 Q868.0594,1417.5 867.8094,1417.3281 Q867.5594,1417.1563 867.45,1416.7031 Q867.4031,1416.3906 867.2313,1416.2188 Q866.9188,1415.8906 866.3563,1415.7031 Q865.7938,1415.5 865.2313,1415.5 Q864.5281,1415.5 863.9344,1415.7813 Q863.3563,1416.0625 862.9031,1416.6875 Q862.45,1417.3125 862.45,1418.1719 L862.45,1419.0938 Q862.45,1420.125 863.2938,1420.8125 Q864.1375,1421.5 865.6375,1421.5 Q866.5281,1421.5 867.1531,1421.2969 Q867.5125,1421.1875 867.9188,1420.8281 Q868.1844,1420.625 868.325,1420.5625 Q868.4656,1420.5 868.6375,1420.5 Q868.9656,1420.5 869.2,1420.7656 Q869.45,1421.0156 869.45,1421.375 Q869.45,1421.7188 869.1063,1422.125 Q868.6063,1422.7188 867.8094,1423.0469 Q866.7625,1423.5 865.4813,1423.5 Q863.9813,1423.5 862.7781,1422.9063 Q861.8094,1422.4375 861.1219,1421.4219 Q860.45,1420.4063 860.45,1419.2031 L860.45,1418.1094 Q860.45,1416.8594 861.0438,1415.7656 Q861.6531,1414.6719 862.7,1414.0938 Q863.7625,1413.5 864.95,1413.5 Q865.6688,1413.5 866.2938,1413.75 Q866.9188,1414 867.45,1414.5 Z " fill="#000000"/><text fill="#000000" font-family="sans-serif" font-size="12" lengthAdjust="spacing" textLength="71" x="879.55" y="1422.9102">VaccineTime</text><line style="stroke:#A80036;stroke-width:1.5;" x1="851" x2="953" y1="1434" y2="1434"/><text fill="#000000" font-family="sans-serif" font-size="11" lengthAdjust="spacing" textLength="92" x="856" y="1449.4189">-timeBetweenDose</text><!--MD5=[d7022902071f40c2412e2b7c9d78fdd8]
class CheckCenterCapacity--><rect codeLine="59" fill="#FEFECE" filter="url(#f1i1bvqz7giwgr)" height="81.5078" id="CheckCenterCapacity" style="stroke:#A80036;stroke-width:1.5;" width="151" x="238.5" y="1099"/><ellipse cx="253.5" cy="1115" fill="#ADD1B2" rx="11" ry="11" style="stroke:#A80036;stroke-width:1.0;"/><path d="M255.5,1111.5 Q255.7031,1111 255.9375,1110.75 Q256.1719,1110.5 256.4375,1110.5 Q256.9063,1110.5 257.2031,1110.7813 Q257.5,1111.0625 257.5,1111.7188 L257.5,1113.2813 Q257.5,1113.9375 257.2188,1114.2188 Q256.9375,1114.5 256.5,1114.5 Q256.1094,1114.5 255.8594,1114.3281 Q255.6094,1114.1563 255.5,1113.7031 Q255.4531,1113.3906 255.2813,1113.2188 Q254.9688,1112.8906 254.4063,1112.7031 Q253.8438,1112.5 253.2813,1112.5 Q252.5781,1112.5 251.9844,1112.7813 Q251.4063,1113.0625 250.9531,1113.6875 Q250.5,1114.3125 250.5,1115.1719 L250.5,1116.0938 Q250.5,1117.125 251.3438,1117.8125 Q252.1875,1118.5 253.6875,1118.5 Q254.5781,1118.5 255.2031,1118.2969 Q255.5625,1118.1875 255.9688,1117.8281 Q256.2344,1117.625 256.375,1117.5625 Q256.5156,1117.5 256.6875,1117.5 Q257.0156,1117.5 257.25,1117.7656 Q257.5,1118.0156 257.5,1118.375 Q257.5,1118.7188 257.1563,1119.125 Q256.6563,1119.7188 255.8594,1120.0469 Q254.8125,1120.5 253.5313,1120.5 Q252.0313,1120.5 250.8281,1119.9063 Q249.8594,1119.4375 249.1719,1118.4219 Q248.5,1117.4063 248.5,1116.2031 L248.5,1115.1094 Q248.5,1113.8594 249.0938,1112.7656 Q249.7031,1111.6719 250.75,1111.0938 Q251.8125,1110.5 253,1110.5 Q253.7188,1110.5 254.3438,1110.75 Q254.9688,1111 255.5,1111.5 Z " fill="#000000"/><text fill="#000000" font-family="sans-serif" font-size="12" lengthAdjust="spacing" textLength="119" x="267.5" y="1119.9102">CheckCenterCapacity</text><line style="stroke:#A80036;stroke-width:1.5;" x1="239.5" x2="388.5" y1="1131" y2="1131"/><text fill="#000000" font-family="sans-serif" font-size="11" lengthAdjust="spacing" textLength="77" x="244.5" y="1146.4189">-centerCapacity</text><text fill="#000000" font-family="sans-serif" font-size="11" lengthAdjust="spacing" textLength="25" x="244.5" y="1160.2549">-date</text><text fill="#000000" font-family="sans-serif" font-size="11" lengthAdjust="spacing" textLength="23" x="244.5" y="1174.0908">-time</text><!--MD5=[8d21a970f1bd1e0e0584d0ecf91221be]
class ScheduleVaccine--><rect codeLine="65" fill="#FEFECE" filter="url(#f1i1bvqz7giwgr)" height="109.1797" id="ScheduleVaccine" style="stroke:#A80036;stroke-width:1.5;" width="127" x="250.5" y="912"/><ellipse cx="265.5" cy="928" fill="#ADD1B2" rx="11" ry="11" style="stroke:#A80036;stroke-width:1.0;"/><path d="M267.5,924.5 Q267.7031,924 267.9375,923.75 Q268.1719,923.5 268.4375,923.5 Q268.9063,923.5 269.2031,923.7813 Q269.5,924.0625 269.5,924.7188 L269.5,926.2813 Q269.5,926.9375 269.2188,927.2188 Q268.9375,927.5 268.5,927.5 Q268.1094,927.5 267.8594,927.3281 Q267.6094,927.1563 267.5,926.7031 Q267.4531,926.3906 267.2813,926.2188 Q266.9688,925.8906 266.4063,925.7031 Q265.8438,925.5 265.2813,925.5 Q264.5781,925.5 263.9844,925.7813 Q263.4063,926.0625 262.9531,926.6875 Q262.5,927.3125 262.5,928.1719 L262.5,929.0938 Q262.5,930.125 263.3438,930.8125 Q264.1875,931.5 265.6875,931.5 Q266.5781,931.5 267.2031,931.2969 Q267.5625,931.1875 267.9688,930.8281 Q268.2344,930.625 268.375,930.5625 Q268.5156,930.5 268.6875,930.5 Q269.0156,930.5 269.25,930.7656 Q269.5,931.0156 269.5,931.375 Q269.5,931.7188 269.1563,932.125 Q268.6563,932.7188 267.8594,933.0469 Q266.8125,933.5 265.5313,933.5 Q264.0313,933.5 262.8281,932.9063 Q261.8594,932.4375 261.1719,931.4219 Q260.5,930.4063 260.5,929.2031 L260.5,928.1094 Q260.5,926.8594 261.0938,925.7656 Q261.7031,924.6719 262.75,924.0938 Q263.8125,923.5 265,923.5 Q265.7188,923.5 266.3438,923.75 Q266.9688,924 267.5,924.5 Z " fill="#000000"/><text fill="#000000" font-family="sans-serif" font-size="12" lengthAdjust="spacing" textLength="95" x="279.5" y="932.9102">ScheduleVaccine</text><line style="stroke:#A80036;stroke-width:1.5;" x1="251.5" x2="376.5" y1="944" y2="944"/><text fill="#000000" font-family="sans-serif" font-size="11" lengthAdjust="spacing" textLength="84" x="256.5" y="959.4189">-userNumberSNS</text><text fill="#000000" font-family="sans-serif" font-size="11" lengthAdjust="spacing" textLength="91" x="256.5" y="973.2549">-vaccinationCenter</text><text fill="#000000" font-family="sans-serif" font-size="11" lengthAdjust="spacing" textLength="25" x="256.5" y="987.0908">-date</text><text fill="#000000" font-family="sans-serif" font-size="11" lengthAdjust="spacing" textLength="23" x="256.5" y="1000.9268">-time</text><text fill="#000000" font-family="sans-serif" font-size="11" lengthAdjust="spacing" textLength="77" x="256.5" y="1014.7627">-typeOfVaccine</text><!--MD5=[de60e6d4f424ae4d0522096f76a59010]
class VaccinationCenter--><rect codeLine="73" fill="#FEFECE" filter="url(#f1i1bvqz7giwgr)" height="192.1953" id="VaccinationCenter" style="stroke:#A80036;stroke-width:1.5;" width="132" x="457" y="406"/><ellipse cx="472" cy="422" fill="#ADD1B2" rx="11" ry="11" style="stroke:#A80036;stroke-width:1.0;"/><path d="M474,418.5 Q474.2031,418 474.4375,417.75 Q474.6719,417.5 474.9375,417.5 Q475.4063,417.5 475.7031,417.7813 Q476,418.0625 476,418.7188 L476,420.2813 Q476,420.9375 475.7188,421.2188 Q475.4375,421.5 475,421.5 Q474.6094,421.5 474.3594,421.3281 Q474.1094,421.1563 474,420.7031 Q473.9531,420.3906 473.7813,420.2188 Q473.4688,419.8906 472.9063,419.7031 Q472.3438,419.5 471.7813,419.5 Q471.0781,419.5 470.4844,419.7813 Q469.9063,420.0625 469.4531,420.6875 Q469,421.3125 469,422.1719 L469,423.0938 Q469,424.125 469.8438,424.8125 Q470.6875,425.5 472.1875,425.5 Q473.0781,425.5 473.7031,425.2969 Q474.0625,425.1875 474.4688,424.8281 Q474.7344,424.625 474.875,424.5625 Q475.0156,424.5 475.1875,424.5 Q475.5156,424.5 475.75,424.7656 Q476,425.0156 476,425.375 Q476,425.7188 475.6563,426.125 Q475.1563,426.7188 474.3594,427.0469 Q473.3125,427.5 472.0313,427.5 Q470.5313,427.5 469.3281,426.9063 Q468.3594,426.4375 467.6719,425.4219 Q467,424.4063 467,423.2031 L467,422.1094 Q467,420.8594 467.5938,419.7656 Q468.2031,418.6719 469.25,418.0938 Q470.3125,417.5 471.5,417.5 Q472.2188,417.5 472.8438,417.75 Q473.4688,418 474,418.5 Z " fill="#000000"/><text fill="#000000" font-family="sans-serif" font-size="12" lengthAdjust="spacing" textLength="100" x="486" y="426.9102">VaccinationCenter</text><line style="stroke:#A80036;stroke-width:1.5;" x1="458" x2="588" y1="438" y2="438"/><text fill="#000000" font-family="sans-serif" font-size="11" lengthAdjust="spacing" textLength="30" x="463" y="453.4189">-name</text><text fill="#000000" font-family="sans-serif" font-size="11" lengthAdjust="spacing" textLength="44" x="463" y="467.2549">-address</text><text fill="#000000" font-family="sans-serif" font-size="11" lengthAdjust="spacing" textLength="70" x="463" y="481.0908">-emailAddress</text><text fill="#000000" font-family="sans-serif" font-size="11" lengthAdjust="spacing" textLength="71" x="463" y="494.9268">-phoneNumber</text><text fill="#000000" font-family="sans-serif" font-size="11" lengthAdjust="spacing" textLength="57" x="463" y="508.7627">-faxNumber</text><text fill="#000000" font-family="sans-serif" font-size="11" lengthAdjust="spacing" textLength="85" x="463" y="522.5986">-websiteAddress</text><text fill="#000000" font-family="sans-serif" font-size="11" lengthAdjust="spacing" textLength="71" x="463" y="536.4346">-openingHours</text><text fill="#000000" font-family="sans-serif" font-size="11" lengthAdjust="spacing" textLength="67" x="463" y="550.2705">-closingHours</text><text fill="#000000" font-family="sans-serif" font-size="11" lengthAdjust="spacing" textLength="61" x="463" y="564.1064">-slotDuration</text><text fill="#000000" font-family="sans-serif" font-size="11" lengthAdjust="spacing" textLength="70" x="463" y="577.9424">-maxVaccines</text><text fill="#000000" font-family="sans-serif" font-size="11" lengthAdjust="spacing" textLength="59" x="463" y="591.7783">-coordinator</text><!--MD5=[e2ddcc32583ff1a2f6fdd8d9fe473f71]
link Administrator to Nurse--><path codeLine="87" d="M559.94,47.05 C599.29,81.22 681.45,152.55 720.91,186.82 " fill="none" id="Administrator-Nurse" style="stroke:#A80036;stroke-width:1.0;"/><polygon fill="#000000" points="659.7754,120.454,654.8725,112.3046,651.0188,116.7428,659.7754,120.454" style="stroke:#000000;stroke-width:1.0;"/><text fill="#000000" font-family="sans-serif" font-size="13" lengthAdjust="spacing" textLength="50" x="665" y="122.4951">registers</text><text fill="#000000" font-family="sans-serif" font-size="13" lengthAdjust="spacing" textLength="5" x="560.4075" y="68.4836">*</text><text fill="#000000" font-family="sans-serif" font-size="13" lengthAdjust="spacing" textLength="5" x="708.6867" y="176.0889">*</text><!--MD5=[e7c2f1214fae8a9df196b8270f12b77f]
link Administrator to CenterCoordinator--><path codeLine="88" d="M585.24,47.05 C699.71,93.21 990.96,210.66 1105.6,256.89 " fill="none" id="Administrator-CenterCoordinator" style="stroke:#A80036;stroke-width:1.0;"/><polygon fill="#000000" points="790.6372,119.0458,783.3476,112.9373,781.1493,118.3886,790.6372,119.0458" style="stroke:#000000;stroke-width:1.0;"/><text fill="#000000" font-family="sans-serif" font-size="13" lengthAdjust="spacing" textLength="50" x="795" y="122.4951">registers</text><text fill="#000000" font-family="sans-serif" font-size="13" lengthAdjust="spacing" textLength="5" x="592.8231" y="68.4836">*</text><text fill="#000000" font-family="sans-serif" font-size="13" lengthAdjust="spacing" textLength="5" x="1085.9419" y="246.1794">*</text><!--MD5=[64c52275ea9d22bde431e3436d41be0c]
link Administrator to Receptionist--><path codeLine="89" d="M508.72,47.15 C488.69,61.65 462.98,83.26 447,108 C431.17,132.51 423.31,165.84 419.71,186.62 " fill="none" id="Administrator-Receptionist" style="stroke:#A80036;stroke-width:1.0;"/><polygon fill="#000000" points="449.3101,121.3906,456.6536,115.347,451.6988,112.1849,449.3101,121.3906" style="stroke:#000000;stroke-width:1.0;"/><text fill="#000000" font-family="sans-serif" font-size="13" lengthAdjust="spacing" textLength="50" x="461" y="122.4951">registers</text><text fill="#000000" font-family="sans-serif" font-size="13" lengthAdjust="spacing" textLength="5" x="494.7819" y="68.6117">*</text><text fill="#000000" font-family="sans-serif" font-size="13" lengthAdjust="spacing" textLength="5" x="414.7691" y="176.1827">*</text><!--MD5=[2b5fc2dce8eec1aafb1a3721aa50d3a4]
link Administrator to SNSUser--><path codeLine="90" d="M485.24,31.59 C354.68,41.19 27,69.86 27,116 C27,116 27,116 27,337 C27,389.86 38.37,451.46 44.76,481.92 " fill="none" id="Administrator-SNSUser" style="stroke:#A80036;stroke-width:1.0;"/><polygon fill="#000000" points="28.5038,210.7502,36.9295,206.3391,32.7275,202.229,28.5038,210.7502" style="stroke:#000000;stroke-width:1.0;"/><text fill="#000000" font-family="sans-serif" font-size="13" lengthAdjust="spacing" textLength="50" x="41" y="212.4951">registers</text><text fill="#000000" font-family="sans-serif" font-size="13" lengthAdjust="spacing" textLength="5" x="472.4691" y="28.6303">*</text><text fill="#000000" font-family="sans-serif" font-size="13" lengthAdjust="spacing" textLength="5" x="37.7801" y="471.2183">*</text><!--MD5=[d497e8607f1e7b3d570c70d67196006d]
link Administrator to VaccinationCenter--><path codeLine="91" d="M538,47.23 C538,65.05 538,92.32 538,116 C538,116 538,116 538,337 C538,359.3 536.61,383.24 534.67,405.74 " fill="none" id="Administrator-VaccinationCenter" style="stroke:#A80036;stroke-width:1.0;"/><polygon fill="#000000" points="542.9536,212.1756,545.9764,203.1582,540.0988,203.1036,542.9536,212.1756" style="stroke:#000000;stroke-width:1.0;"/><text fill="#000000" font-family="sans-serif" font-size="13" lengthAdjust="spacing" textLength="50" x="552" y="212.4951">registers</text><text fill="#000000" font-family="sans-serif" font-size="13" lengthAdjust="spacing" textLength="5" x="532.3281" y="68.3592">*</text><text fill="#000000" font-family="sans-serif" font-size="13" lengthAdjust="spacing" textLength="5" x="530.3721" y="395.2587">*</text><!--MD5=[073b08a5da471012f630c095a16c2281]
link Administrator to App--><path codeLine="92" d="M485.41,28.88 C378.32,32.11 145,47.04 145,116 C145,116 145,116 145,697 C145,761.91 372.98,798.74 452.23,809.59 " fill="none" id="Administrator-App" style="stroke:#A80036;stroke-width:1.0;"/><polygon fill="#000000" points="149.7877,341.1713,153.108,332.2591,147.2355,332.0096,149.7877,341.1713" style="stroke:#000000;stroke-width:1.0;"/><text fill="#000000" font-family="sans-serif" font-size="13" lengthAdjust="spacing" textLength="53" x="159" y="341.4951">manages</text><text fill="#000000" font-family="sans-serif" font-size="13" lengthAdjust="spacing" textLength="5" x="472.663" y="43.7892">*</text><text fill="#000000" font-family="sans-serif" font-size="13" lengthAdjust="spacing" textLength="7" x="437.4733" y="803.9501">1</text><!--MD5=[33a136e83c8f98efdf09349b1be92bf9]
link Administrator to DGS--><path codeLine="93" d="M590.7,28.58 C762.6,31.15 1296,44.87 1296,116 C1296,116 1296,116 1296,337 C1296,411.64 1210.02,464.57 1163.34,487.8 " fill="none" id="Administrator-DGS" style="stroke:#A80036;stroke-width:1.0;"/><polygon fill="#000000" points="1304.9007,210.3039,1299.6829,202.3524,1296.0057,206.9379,1304.9007,210.3039" style="stroke:#000000;stroke-width:1.0;"/><text fill="#000000" font-family="sans-serif" font-size="13" lengthAdjust="spacing" textLength="52" x="1310" y="212.4951">works for</text><text fill="#000000" font-family="sans-serif" font-size="13" lengthAdjust="spacing" textLength="5" x="598.4625" y="25.197">*</text><text fill="#000000" font-family="sans-serif" font-size="13" lengthAdjust="spacing" textLength="7" x="1170.9342" y="480.202">1</text><!--MD5=[7a8562503c59f9cdcfdb69fd3e5d1073]
link SNSUser to App--><path codeLine="94" d="M46.37,522.26 C40.46,574.55 32.8,718.27 119,764 C177.09,794.82 379.36,807.94 452.42,811.75 " fill="none" id="SNSUser-App" style="stroke:#A80036;stroke-width:1.0;"/><polygon fill="#000000" points="80.0713,699.0783,74.4124,691.4345,71.0002,696.2206,80.0713,699.0783" style="stroke:#000000;stroke-width:1.0;"/><text fill="#000000" font-family="sans-serif" font-size="13" lengthAdjust="spacing" textLength="28" x="85" y="701.4951">uses</text><text fill="#000000" font-family="sans-serif" font-size="13" lengthAdjust="spacing" textLength="5" x="39.9913" y="543.3972">*</text><text fill="#000000" font-family="sans-serif" font-size="13" lengthAdjust="spacing" textLength="7" x="437.336" y="826.8377">1</text><!--MD5=[1f1feade3c115a92670a2014798a2697]
link VaccinationCenter to App--><path codeLine="95" d="M509.5,598.12 C499.67,667.35 487.17,755.42 481.73,793.74 " fill="none" id="VaccinationCenter-App" style="stroke:#A80036;stroke-width:1.0;"/><text fill="#000000" font-family="sans-serif" font-size="13" lengthAdjust="spacing" textLength="5" x="503.275" y="619.5928">*</text><text fill="#000000" font-family="sans-serif" font-size="13" lengthAdjust="spacing" textLength="7" x="474.5038" y="782.9854">1</text><!--MD5=[5bb496728aeb136b5cac2afdd096809d]
link Nurse to App--><path codeLine="96" d="M743,227.36 C743,252.27 743,296.86 743,335 C743,335 743,335 743,697 C743,799.88 572.88,812.34 505.77,813.25 " fill="none" id="Nurse-App" style="stroke:#A80036;stroke-width:1.0;"/><text fill="#000000" font-family="sans-serif" font-size="13" lengthAdjust="spacing" textLength="5" x="737.3281" y="248.5241">*</text><text fill="#000000" font-family="sans-serif" font-size="13" lengthAdjust="spacing" textLength="7" x="513.5267" y="808.548">1</text><!--MD5=[76cad79529e5c8976f35d520d0aef16e]
link Nurse to DGS--><path codeLine="97" d="M776.35,207.19 C824.77,207.63 915.45,214.65 977,257 C1061.45,315.11 1110.84,435.02 1127.55,481.76 " fill="none" id="Nurse-DGS" style="stroke:#A80036;stroke-width:1.0;"/><polygon fill="#000000" points="1067.9391,339.2554,1062.6234,331.369,1059.0031,335.9997,1067.9391,339.2554" style="stroke:#000000;stroke-width:1.0;"/><text fill="#000000" font-family="sans-serif" font-size="13" lengthAdjust="spacing" textLength="52" x="1073" y="341.4951">works for</text><text fill="#000000" font-family="sans-serif" font-size="13" lengthAdjust="spacing" textLength="5" x="784.1922" y="203.0151">*</text><text fill="#000000" font-family="sans-serif" font-size="13" lengthAdjust="spacing" textLength="7" x="1117.6272" y="471.0113">1</text><!--MD5=[49bdc4f43c0486f86f6744f0a65b0571]
link Nurse to Vaccine--><path codeLine="98" d="M776.42,212.78 C835.22,223.27 951,254.19 951,335 C951,335 951,335 951,1141 C951,1189.05 907.74,1228.04 873.61,1251.32 " fill="none" id="Nurse-Vaccine" style="stroke:#A80036;stroke-width:1.0;"/><polygon fill="#000000" points="956.4659,760.154,958.5492,750.8745,952.697,751.4221,956.4659,760.154" style="stroke:#000000;stroke-width:1.0;"/><text fill="#000000" font-family="sans-serif" font-size="13" lengthAdjust="spacing" textLength="78" x="965" y="760.4951">administrates</text><text fill="#000000" font-family="sans-serif" font-size="13" lengthAdjust="spacing" textLength="5" x="783.8285" y="229.1535">*</text><text fill="#000000" font-family="sans-serif" font-size="13" lengthAdjust="spacing" textLength="5" x="881.5584" y="1242.8524">*</text><!--MD5=[03efd8c9f90c050219bacdb83332548b]
link Nurse to VaccinationCenter--><path codeLine="99" d="M728.31,227.35 C710.47,250.87 679.46,291.8 653,327 C632.15,354.73 609.5,385 589.03,412.41 " fill="none" id="Nurse-VaccinationCenter" style="stroke:#A80036;stroke-width:1.0;"/><polygon fill="#000000" points="654.9933,340.1708,662.7807,334.7111,658.0843,331.1765,654.9933,340.1708" style="stroke:#000000;stroke-width:1.0;"/><text fill="#000000" font-family="sans-serif" font-size="13" lengthAdjust="spacing" textLength="49" x="667" y="341.4951">works at</text><text fill="#000000" font-family="sans-serif" font-size="13" lengthAdjust="spacing" textLength="5" x="718.6902" y="248.5114">*</text><text fill="#000000" font-family="sans-serif" font-size="13" lengthAdjust="spacing" textLength="7" x="597.0694" y="398.6303">1</text><!--MD5=[7690a4971bd8576b261a40a0340b8203]
link Receptionist to SNSUser--><path codeLine="100" d="M392.85,227.22 C326.18,280.31 140.02,428.53 73.23,481.7 " fill="none" id="Receptionist-SNSUser" style="stroke:#A80036;stroke-width:1.0;"/><polygon fill="#000000" points="268.0884,339.2902,276.9951,335.9554,273.334,331.357,268.0884,339.2902" style="stroke:#000000;stroke-width:1.0;"/><text fill="#000000" font-family="sans-serif" font-size="13" lengthAdjust="spacing" textLength="53" x="281" y="341.4951">gives info</text><text fill="#000000" font-family="sans-serif" font-size="13" lengthAdjust="spacing" textLength="5" x="380.6878" y="248.3465">*</text><text fill="#000000" font-family="sans-serif" font-size="13" lengthAdjust="spacing" textLength="5" x="74.3416" y="471.2852">*</text><!--MD5=[2bde3c2658e9820e0f62920496486001]
link Receptionist to VaccinationCenter--><path codeLine="101" d="M419.98,227.44 C424.41,254.35 433.8,304.24 448,345 C455.02,365.15 463.92,386.12 473.11,405.91 " fill="none" id="Receptionist-VaccinationCenter" style="stroke:#A80036;stroke-width:1.0;"/><polygon fill="#000000" points="454.4266,340.9679,454.6626,331.4603,449.0291,333.1374,454.4266,340.9679" style="stroke:#000000;stroke-width:1.0;"/><text fill="#000000" font-family="sans-serif" font-size="13" lengthAdjust="spacing" textLength="49" x="462" y="341.4951">works at</text><text fill="#000000" font-family="sans-serif" font-size="13" lengthAdjust="spacing" textLength="5" x="415.109" y="248.6256">*</text><text fill="#000000" font-family="sans-serif" font-size="13" lengthAdjust="spacing" textLength="7" x="461.8555" y="395.1167">1</text><!--MD5=[a2b34777cb48a2a30fe6d124791cb83b]
link Receptionist to DGS--><path codeLine="102" d="M467.62,226.96 C528.82,250.02 634.83,290.41 725,327 C868.36,385.17 1038.05,458.96 1104.88,488.21 " fill="none" id="Receptionist-DGS" style="stroke:#A80036;stroke-width:1.0;"/><polygon fill="#000000" points="778.6263,338.0724,771.372,331.9221,769.1424,337.3607,778.6263,338.0724" style="stroke:#000000;stroke-width:1.0;"/><text fill="#000000" font-family="sans-serif" font-size="13" lengthAdjust="spacing" textLength="52" x="783" y="341.4951">works for</text><text fill="#000000" font-family="sans-serif" font-size="13" lengthAdjust="spacing" textLength="5" x="475.5523" y="248.0166">*</text><text fill="#000000" font-family="sans-serif" font-size="13" lengthAdjust="spacing" textLength="7" x="1089.9289" y="480.4367">1</text><!--MD5=[c4fe4d361f0497dda5cfbcd228aa1a8b]
link CenterCoordinator to DGS--><path codeLine="103" d="M1151.38,297.01 C1147.8,339.04 1139.24,439.45 1135.64,481.72 " fill="none" id="CenterCoordinator-DGS" style="stroke:#A80036;stroke-width:1.0;"/><polygon fill="#000000" points="1152.5755,341.1577,1156.2718,332.3948,1150.4151,331.8958,1152.5755,341.1577" style="stroke:#000000;stroke-width:1.0;"/><text fill="#000000" font-family="sans-serif" font-size="13" lengthAdjust="spacing" textLength="52" x="1162" y="341.4951">works for</text><text fill="#000000" font-family="sans-serif" font-size="13" lengthAdjust="spacing" textLength="5" x="1145.2213" y="318.4324">*</text><text fill="#000000" font-family="sans-serif" font-size="13" lengthAdjust="spacing" textLength="7" x="1128.1169" y="471.3108">1</text><!--MD5=[a3ad22d849ef3fa5e17f421533a8fb22]
link DGS to MassiveVaccinationCenter--><path codeLine="104" d="M1134,522.11 C1134,558.91 1134,639.22 1134,675.97 " fill="none" id="DGS-MassiveVaccinationCenter" style="stroke:#A80036;stroke-width:1.0;"/><polygon fill="#000000" points="1139,642.1758,1141.9389,633.1307,1136.0611,633.1307,1139,642.1758" style="stroke:#000000;stroke-width:1.0;"/><text fill="#000000" font-family="sans-serif" font-size="13" lengthAdjust="spacing" textLength="30" x="1148" y="642.4951">owns</text><text fill="#000000" font-family="sans-serif" font-size="13" lengthAdjust="spacing" textLength="7" x="1126.0156" y="543.5605">1</text><text fill="#000000" font-family="sans-serif" font-size="13" lengthAdjust="spacing" textLength="5" x="1128.2656" y="665.2829">*</text><!--MD5=[3568623adf67b2630dce9e60c05bd02a]
link Vaccine to VaccineType--><path codeLine="105" d="M817.86,1310.14 C807.38,1333.06 793.39,1363.68 782.3,1387.96 " fill="none" id="Vaccine-VaccineType" style="stroke:#A80036;stroke-width:1.0;"/><polygon fill="#000000" points="805.9219,1353.7235,812.3543,1346.7181,807.0081,1344.2751,805.9219,1353.7235" style="stroke:#000000;stroke-width:1.0;"/><text fill="#000000" font-family="sans-serif" font-size="13" lengthAdjust="spacing" textLength="21" x="817" y="1354.4951">has</text><text fill="#000000" font-family="sans-serif" font-size="13" lengthAdjust="spacing" textLength="7" x="807.5398" y="1331.2018">1</text><text fill="#000000" font-family="sans-serif" font-size="13" lengthAdjust="spacing" textLength="7" x="777.8438" y="1377.0989">1</text><!--MD5=[11cbd578e9513a40800c84f06387e69f]
link Vaccine to VaccineTime--><path codeLine="106" d="M848.14,1310.14 C860.76,1337.74 878.48,1376.52 890.1,1401.95 " fill="none" id="Vaccine-VaccineTime" style="stroke:#A80036;stroke-width:1.0;"/><polygon fill="#000000" points="877.0784,1353.7233,875.9915,1344.2751,870.6456,1346.7184,877.0784,1353.7233" style="stroke:#000000;stroke-width:1.0;"/><text fill="#000000" font-family="sans-serif" font-size="13" lengthAdjust="spacing" textLength="21" x="884" y="1354.4951">has</text><text fill="#000000" font-family="sans-serif" font-size="13" lengthAdjust="spacing" textLength="5" x="845.3915" y="1331.2018">*</text><text fill="#000000" font-family="sans-serif" font-size="13" lengthAdjust="spacing" textLength="7" x="879.3463" y="1390.9645">1</text><!--MD5=[1ad0888398876d0a5b5813418ce026e2]
link App to ScheduleVaccine--><path codeLine="107" d="M458.1,834.06 C436.77,853.52 402.67,884.62 373,911.69 " fill="none" id="App-ScheduleVaccine" style="stroke:#A80036;stroke-width:1.0;"/><polygon fill="#000000" points="422.3061,876.5455,430.9691,872.6209,427.0078,868.2784,422.3061,876.5455" style="stroke:#000000;stroke-width:1.0;"/><text fill="#000000" font-family="sans-serif" font-size="13" lengthAdjust="spacing" textLength="28" x="435" y="878.4951">does</text><text fill="#000000" font-family="sans-serif" font-size="13" lengthAdjust="spacing" textLength="7" x="453.2063" y="855.4964">1</text><text fill="#000000" font-family="sans-serif" font-size="13" lengthAdjust="spacing" textLength="5" x="375.2391" y="901.1486">*</text><!--MD5=[79fee4e4425ae6f4d5189b57381ed9d9]
link App to SMSMessage--><path codeLine="108" d="M505.88,821.94 C555.87,835.41 665.81,867.72 751,912 C762.61,918.04 774.66,925.28 785.83,932.46 " fill="none" id="App-SMSMessage" style="stroke:#A80036;stroke-width:1.0;"/><polygon fill="#000000" points="688.6507,875.0118,681.3167,868.9568,679.1583,874.424,688.6507,875.0118" style="stroke:#000000;stroke-width:1.0;"/><text fill="#000000" font-family="sans-serif" font-size="13" lengthAdjust="spacing" textLength="35" x="693" y="878.4951">sends</text><text fill="#000000" font-family="sans-serif" font-size="13" lengthAdjust="spacing" textLength="7" x="513.6649" y="839.5648">1</text><text fill="#000000" font-family="sans-serif" font-size="13" lengthAdjust="spacing" textLength="5" x="771.0512" y="921.7454">*</text><!--MD5=[7fee5725fcf01d264d66f094ee978f3d]
link App to HealthCareCenter--><path codeLine="109" d="M479,834.06 C479,862.85 479,917.14 479,946.12 " fill="none" id="App-HealthCareCenter" style="stroke:#A80036;stroke-width:1.0;"/><polygon fill="#000000" points="484,878.1758,486.9389,869.1307,481.0611,869.1307,484,878.1758" style="stroke:#000000;stroke-width:1.0;"/><text fill="#000000" font-family="sans-serif" font-size="13" lengthAdjust="spacing" textLength="53" x="493" y="878.4951">manages</text><text fill="#000000" font-family="sans-serif" font-size="13" lengthAdjust="spacing" textLength="7" x="471.0156" y="855.4964">1</text><text fill="#000000" font-family="sans-serif" font-size="13" lengthAdjust="spacing" textLength="5" x="473.2969" y="935.6827">*</text><!--MD5=[597d738fae5f831986acf37647c298db]
link App to CovidDigitalCertificate--><path codeLine="110" d="M505.61,830.26 C520.64,839.34 539.47,851.5 555,864 C587.3,890.01 620.6,924.96 640.02,946.33 " fill="none" id="App-CovidDigitalCertificate" style="stroke:#A80036;stroke-width:1.0;"/><polygon fill="#000000" points="584.7843,876.4437,579.8593,868.3076,576.0176,872.7563,584.7843,876.4437" style="stroke:#000000;stroke-width:1.0;"/><text fill="#000000" font-family="sans-serif" font-size="13" lengthAdjust="spacing" textLength="32" x="590" y="878.4951">emits</text><text fill="#000000" font-family="sans-serif" font-size="13" lengthAdjust="spacing" textLength="7" x="513.3257" y="850.0168">1</text><text fill="#000000" font-family="sans-serif" font-size="13" lengthAdjust="spacing" textLength="5" x="629.2978" y="935.6018">*</text><!--MD5=[d3fd356048560b185ca2c645d98d91bb]
link App to EmailMessage--><path codeLine="111" d="M452.31,823.38 C406.23,838.3 309.35,871.75 233,912 C221.57,918.03 209.7,925.19 198.66,932.28 " fill="none" id="App-EmailMessage" style="stroke:#A80036;stroke-width:1.0;"/><polygon fill="#000000" points="339.4055,875.1483,348.8764,874.2805,346.5576,868.8794,339.4055,875.1483" style="stroke:#000000;stroke-width:1.0;"/><text fill="#000000" font-family="sans-serif" font-size="13" lengthAdjust="spacing" textLength="35" x="353" y="878.4951">sends</text><text fill="#000000" font-family="sans-serif" font-size="13" lengthAdjust="spacing" textLength="7" x="437.5738" y="841.3738">1</text><text fill="#000000" font-family="sans-serif" font-size="13" lengthAdjust="spacing" textLength="5" x="202.5509" y="921.53">*</text><!--MD5=[b7c01a66225ccbbe0e647cfd8fd1a74c]
link ScheduleVaccine to CheckCenterCapacity--><path codeLine="112" d="M314,1021.29 C314,1046.34 314,1075.64 314,1098.74 " fill="none" id="ScheduleVaccine-CheckCenterCapacity" style="stroke:#A80036;stroke-width:1.0;"/><polygon fill="#000000" points="319,1065.1758,321.9389,1056.1307,316.0611,1056.1307,319,1065.1758" style="stroke:#000000;stroke-width:1.0;"/><text fill="#000000" font-family="sans-serif" font-size="13" lengthAdjust="spacing" textLength="39" x="328" y="1065.4951">verifies</text><text fill="#000000" font-family="sans-serif" font-size="13" lengthAdjust="spacing" textLength="7" x="306.5516" y="1042.8411">1</text><text fill="#000000" font-family="sans-serif" font-size="13" lengthAdjust="spacing" textLength="5" x="308.5859" y="1088.1463">*</text><!--MD5=[ef8d911c79d99175ffefd054f3ff1973]
link HealthCareCenter to Vaccine--><path codeLine="113" d="M500.88,986.5 C559.52,1037.44 720.77,1177.51 794.86,1241.87 " fill="none" id="HealthCareCenter-Vaccine" style="stroke:#A80036;stroke-width:1.0;"/><polygon fill="#000000" points="732.7747,1143.4547,727.8735,1135.3043,724.0189,1139.7418,732.7747,1143.4547" style="stroke:#000000;stroke-width:1.0;"/><text fill="#000000" font-family="sans-serif" font-size="13" lengthAdjust="spacing" textLength="36" x="738" y="1145.4951">stores</text><text fill="#000000" font-family="sans-serif" font-size="13" lengthAdjust="spacing" textLength="5" x="501.3306" y="1007.9196">*</text><text fill="#000000" font-family="sans-serif" font-size="13" lengthAdjust="spacing" textLength="5" x="781.859" y="1231.1377">*</text><!--MD5=[db388e9d1d2019433ad888057277c716]
@startuml
skinparam classAttributeIconSize 0
hide methods

class Administrator{
}

class Nurse{
}

class SNSUser{
}

class Receptionist{
}

class CenterCoordinator{
}

class HealthCareCenter {
}

class DGS {
}

class MassiveVaccinationCenter {
}

class CovidDigitalCertificate {
}

class App{
}

class SMSMessage {
- informationAppointment
- timeRecovery
}

class EmailMessage {
- informationAppointment
- timeRecovery
}

class Vaccine {
- vaccineName
- lot
}

class VaccineType {
- ageGroup
- dose
- vaccineDosage
}

class VaccineTime {
- timeBetweenDose
}

class CheckCenterCapacity {
- centerCapacity
- date
- time
}

class ScheduleVaccine {
- userNumberSNS
- vaccinationCenter
- date
- time
- typeOfVaccine
}

class VaccinationCenter {
  - name
  - address
  - emailAddress
  - phoneNumber
  - faxNumber
  - websiteAddress
  - openingHours
  - closingHours
  - slotDuration
  - maxVaccines
  - coordinator
}

Administrator "*"- - -"*" Nurse : registers >
Administrator "*"- - -"*" CenterCoordinator : registers >
Administrator "*"- - -"*" Receptionist : registers >
Administrator "*"- - -"*" SNSUser : registers >
Administrator "*"- - -"*" VaccinationCenter : registers >
Administrator "*"- - -"1" App : manages >
Administrator "*"- - -"1" DGS : works for >
SNSUser "*"- - -"1" App : uses >
VaccinationCenter "*"- - -"1" App
Nurse "*"- - -"1" App
Nurse "*"- - -"1" DGS : works for >
Nurse "*"- - -"*" Vaccine : administrates >
Nurse "*"- - -"1" VaccinationCenter : works at >
Receptionist "*"- - -"*" SNSUser : gives info >
Receptionist "*"- - -"1" VaccinationCenter : works at >
Receptionist "*"- - -"1" DGS : works for >
CenterCoordinator "*"- -"1" DGS : works for >
DGS "1"- -"*" MassiveVaccinationCenter : owns >
Vaccine "1"- -"1" VaccineType : has >
Vaccine "*"- -"1" VaccineTime : has >
App "1"- -"*" ScheduleVaccine : does >
App "1"- -"*" SMSMessage : sends >
App "1"- -"*" HealthCareCenter : manages >
App "1"- -"*" CovidDigitalCertificate : emits >
App "1"- -"*" EmailMessage : sends >
ScheduleVaccine "1"- -"*" CheckCenterCapacity : verifies >
HealthCareCenter "*"- - -"*" Vaccine : stores >



@endum

PlantUML version 1.2022.1(Tue Feb 01 18:19:58 GMT 2022)
(GPL source distribution)
Java Runtime: OpenJDK Runtime Environment
JVM: OpenJDK 64-Bit Server VM
Default Encoding: Cp1252
Language: en
Country: US
--></g></svg>