<?xml version="1.0" encoding="UTF-8" standalone="no"?><svg xmlns="http://www.w3.org/2000/svg" xmlns:xlink="http://www.w3.org/1999/xlink" contentScriptType="application/ecmascript" contentStyleType="text/css" height="1202px" preserveAspectRatio="none" style="width:1392px;height:1202px;background:#FFFFFF;" version="1.1" viewBox="0 0 1392 1202" width="1392px" zoomAndPan="magnify"><defs><filter height="300%" id="fokftv5jwqsk7" width="300%" x="-1" y="-1"><feGaussianBlur result="blurOut" stdDeviation="2.0"/><feColorMatrix in="blurOut" result="blurOut2" type="matrix" values="0 0 0 0 0 0 0 0 0 0 0 0 0 0 0 0 0 0 .4 0"/><feOffset dx="4.0" dy="4.0" in="blurOut2" result="blurOut3"/><feBlend in="SourceGraphic" in2="blurOut3" mode="normal"/></filter></defs><g><!--MD5=[da547346deef918ea16944ba046651ef]
class Administrator--><rect codeLine="4" fill="#FEFECE" filter="url(#fokftv5jwqsk7)" height="40" id="Administrator" style="stroke:#A80036;stroke-width:1.5;" width="105" x="666.5" y="7"/><ellipse cx="681.5" cy="23" fill="#ADD1B2" rx="11" ry="11" style="stroke:#A80036;stroke-width:1.0;"/><path d="M683.5,19.5 Q683.7031,19 683.9375,18.75 Q684.1719,18.5 684.4375,18.5 Q684.9063,18.5 685.2031,18.7813 Q685.5,19.0625 685.5,19.7188 L685.5,21.2813 Q685.5,21.9375 685.2188,22.2188 Q684.9375,22.5 684.5,22.5 Q684.1094,22.5 683.8594,22.3281 Q683.6094,22.1563 683.5,21.7031 Q683.4531,21.3906 683.2813,21.2188 Q682.9688,20.8906 682.4063,20.7031 Q681.8438,20.5 681.2813,20.5 Q680.5781,20.5 679.9844,20.7813 Q679.4063,21.0625 678.9531,21.6875 Q678.5,22.3125 678.5,23.1719 L678.5,24.0938 Q678.5,25.125 679.3438,25.8125 Q680.1875,26.5 681.6875,26.5 Q682.5781,26.5 683.2031,26.2969 Q683.5625,26.1875 683.9688,25.8281 Q684.2344,25.625 684.375,25.5625 Q684.5156,25.5 684.6875,25.5 Q685.0156,25.5 685.25,25.7656 Q685.5,26.0156 685.5,26.375 Q685.5,26.7188 685.1563,27.125 Q684.6563,27.7188 683.8594,28.0469 Q682.8125,28.5 681.5313,28.5 Q680.0313,28.5 678.8281,27.9063 Q677.8594,27.4375 677.1719,26.4219 Q676.5,25.4063 676.5,24.2031 L676.5,23.1094 Q676.5,21.8594 677.0938,20.7656 Q677.7031,19.6719 678.75,19.0938 Q679.8125,18.5 681,18.5 Q681.7188,18.5 682.3438,18.75 Q682.9688,19 683.5,19.5 Z " fill="#000000"/><text fill="#000000" font-family="sans-serif" font-size="12" lengthAdjust="spacing" textLength="73" x="695.5" y="27.9102">Administrator</text><line style="stroke:#A80036;stroke-width:1.5;" x1="667.5" x2="770.5" y1="39" y2="39"/><!--MD5=[a059576e163b46f56762f12600c49258]
class Nurse--><rect codeLine="7" fill="#FEFECE" filter="url(#fokftv5jwqsk7)" height="40" id="Nurse" style="stroke:#A80036;stroke-width:1.5;" width="66" x="223" y="187"/><ellipse cx="238" cy="203" fill="#ADD1B2" rx="11" ry="11" style="stroke:#A80036;stroke-width:1.0;"/><path d="M240,199.5 Q240.2031,199 240.4375,198.75 Q240.6719,198.5 240.9375,198.5 Q241.4063,198.5 241.7031,198.7813 Q242,199.0625 242,199.7188 L242,201.2813 Q242,201.9375 241.7188,202.2188 Q241.4375,202.5 241,202.5 Q240.6094,202.5 240.3594,202.3281 Q240.1094,202.1563 240,201.7031 Q239.9531,201.3906 239.7813,201.2188 Q239.4688,200.8906 238.9063,200.7031 Q238.3438,200.5 237.7813,200.5 Q237.0781,200.5 236.4844,200.7813 Q235.9063,201.0625 235.4531,201.6875 Q235,202.3125 235,203.1719 L235,204.0938 Q235,205.125 235.8438,205.8125 Q236.6875,206.5 238.1875,206.5 Q239.0781,206.5 239.7031,206.2969 Q240.0625,206.1875 240.4688,205.8281 Q240.7344,205.625 240.875,205.5625 Q241.0156,205.5 241.1875,205.5 Q241.5156,205.5 241.75,205.7656 Q242,206.0156 242,206.375 Q242,206.7188 241.6563,207.125 Q241.1563,207.7188 240.3594,208.0469 Q239.3125,208.5 238.0313,208.5 Q236.5313,208.5 235.3281,207.9063 Q234.3594,207.4375 233.6719,206.4219 Q233,205.4063 233,204.2031 L233,203.1094 Q233,201.8594 233.5938,200.7656 Q234.2031,199.6719 235.25,199.0938 Q236.3125,198.5 237.5,198.5 Q238.2188,198.5 238.8438,198.75 Q239.4688,199 240,199.5 Z " fill="#000000"/><text fill="#000000" font-family="sans-serif" font-size="12" lengthAdjust="spacing" textLength="34" x="252" y="207.9102">Nurse</text><line style="stroke:#A80036;stroke-width:1.5;" x1="224" x2="288" y1="219" y2="219"/><!--MD5=[72be06cc7ae02ccc98efe28a50e62246]
class SNSUser--><rect codeLine="10" fill="#FEFECE" filter="url(#fokftv5jwqsk7)" height="40" id="SNSUser" style="stroke:#A80036;stroke-width:1.5;" width="84" x="1036" y="482"/><ellipse cx="1051" cy="498" fill="#ADD1B2" rx="11" ry="11" style="stroke:#A80036;stroke-width:1.0;"/><path d="M1053,494.5 Q1053.2031,494 1053.4375,493.75 Q1053.6719,493.5 1053.9375,493.5 Q1054.4063,493.5 1054.7031,493.7813 Q1055,494.0625 1055,494.7188 L1055,496.2813 Q1055,496.9375 1054.7188,497.2188 Q1054.4375,497.5 1054,497.5 Q1053.6094,497.5 1053.3594,497.3281 Q1053.1094,497.1563 1053,496.7031 Q1052.9531,496.3906 1052.7813,496.2188 Q1052.4688,495.8906 1051.9063,495.7031 Q1051.3438,495.5 1050.7813,495.5 Q1050.0781,495.5 1049.4844,495.7813 Q1048.9063,496.0625 1048.4531,496.6875 Q1048,497.3125 1048,498.1719 L1048,499.0938 Q1048,500.125 1048.8438,500.8125 Q1049.6875,501.5 1051.1875,501.5 Q1052.0781,501.5 1052.7031,501.2969 Q1053.0625,501.1875 1053.4688,500.8281 Q1053.7344,500.625 1053.875,500.5625 Q1054.0156,500.5 1054.1875,500.5 Q1054.5156,500.5 1054.75,500.7656 Q1055,501.0156 1055,501.375 Q1055,501.7188 1054.6563,502.125 Q1054.1563,502.7188 1053.3594,503.0469 Q1052.3125,503.5 1051.0313,503.5 Q1049.5313,503.5 1048.3281,502.9063 Q1047.3594,502.4375 1046.6719,501.4219 Q1046,500.4063 1046,499.2031 L1046,498.1094 Q1046,496.8594 1046.5938,495.7656 Q1047.2031,494.6719 1048.25,494.0938 Q1049.3125,493.5 1050.5,493.5 Q1051.2188,493.5 1051.8438,493.75 Q1052.4688,494 1053,494.5 Z " fill="#000000"/><text fill="#000000" font-family="sans-serif" font-size="12" lengthAdjust="spacing" textLength="52" x="1065" y="502.9102">SNSUser</text><line style="stroke:#A80036;stroke-width:1.5;" x1="1037" x2="1119" y1="514" y2="514"/><!--MD5=[03960189e81aa2c066c762ffabbee709]
class Receptionist--><rect codeLine="13" fill="#FEFECE" filter="url(#fokftv5jwqsk7)" height="40" id="Receptionist" style="stroke:#A80036;stroke-width:1.5;" width="101" x="857.5" y="187"/><ellipse cx="872.5" cy="203" fill="#ADD1B2" rx="11" ry="11" style="stroke:#A80036;stroke-width:1.0;"/><path d="M874.5,199.5 Q874.7031,199 874.9375,198.75 Q875.1719,198.5 875.4375,198.5 Q875.9063,198.5 876.2031,198.7813 Q876.5,199.0625 876.5,199.7188 L876.5,201.2813 Q876.5,201.9375 876.2188,202.2188 Q875.9375,202.5 875.5,202.5 Q875.1094,202.5 874.8594,202.3281 Q874.6094,202.1563 874.5,201.7031 Q874.4531,201.3906 874.2813,201.2188 Q873.9688,200.8906 873.4063,200.7031 Q872.8438,200.5 872.2813,200.5 Q871.5781,200.5 870.9844,200.7813 Q870.4063,201.0625 869.9531,201.6875 Q869.5,202.3125 869.5,203.1719 L869.5,204.0938 Q869.5,205.125 870.3438,205.8125 Q871.1875,206.5 872.6875,206.5 Q873.5781,206.5 874.2031,206.2969 Q874.5625,206.1875 874.9688,205.8281 Q875.2344,205.625 875.375,205.5625 Q875.5156,205.5 875.6875,205.5 Q876.0156,205.5 876.25,205.7656 Q876.5,206.0156 876.5,206.375 Q876.5,206.7188 876.1563,207.125 Q875.6563,207.7188 874.8594,208.0469 Q873.8125,208.5 872.5313,208.5 Q871.0313,208.5 869.8281,207.9063 Q868.8594,207.4375 868.1719,206.4219 Q867.5,205.4063 867.5,204.2031 L867.5,203.1094 Q867.5,201.8594 868.0938,200.7656 Q868.7031,199.6719 869.75,199.0938 Q870.8125,198.5 872,198.5 Q872.7188,198.5 873.3438,198.75 Q873.9688,199 874.5,199.5 Z " fill="#000000"/><text fill="#000000" font-family="sans-serif" font-size="12" lengthAdjust="spacing" textLength="69" x="886.5" y="207.9102">Receptionist</text><line style="stroke:#A80036;stroke-width:1.5;" x1="858.5" x2="957.5" y1="219" y2="219"/><!--MD5=[2d935fd2dd068a13da1ae531f9857c4f]
class CenterCoordinator--><rect codeLine="16" fill="#FEFECE" filter="url(#fokftv5jwqsk7)" height="40" id="CenterCoordinator" style="stroke:#A80036;stroke-width:1.5;" width="134" x="533" y="257"/><ellipse cx="548" cy="273" fill="#ADD1B2" rx="11" ry="11" style="stroke:#A80036;stroke-width:1.0;"/><path d="M550,269.5 Q550.2031,269 550.4375,268.75 Q550.6719,268.5 550.9375,268.5 Q551.4063,268.5 551.7031,268.7813 Q552,269.0625 552,269.7188 L552,271.2813 Q552,271.9375 551.7188,272.2188 Q551.4375,272.5 551,272.5 Q550.6094,272.5 550.3594,272.3281 Q550.1094,272.1563 550,271.7031 Q549.9531,271.3906 549.7813,271.2188 Q549.4688,270.8906 548.9063,270.7031 Q548.3438,270.5 547.7813,270.5 Q547.0781,270.5 546.4844,270.7813 Q545.9063,271.0625 545.4531,271.6875 Q545,272.3125 545,273.1719 L545,274.0938 Q545,275.125 545.8438,275.8125 Q546.6875,276.5 548.1875,276.5 Q549.0781,276.5 549.7031,276.2969 Q550.0625,276.1875 550.4688,275.8281 Q550.7344,275.625 550.875,275.5625 Q551.0156,275.5 551.1875,275.5 Q551.5156,275.5 551.75,275.7656 Q552,276.0156 552,276.375 Q552,276.7188 551.6563,277.125 Q551.1563,277.7188 550.3594,278.0469 Q549.3125,278.5 548.0313,278.5 Q546.5313,278.5 545.3281,277.9063 Q544.3594,277.4375 543.6719,276.4219 Q543,275.4063 543,274.2031 L543,273.1094 Q543,271.8594 543.5938,270.7656 Q544.2031,269.6719 545.25,269.0938 Q546.3125,268.5 547.5,268.5 Q548.2188,268.5 548.8438,268.75 Q549.4688,269 550,269.5 Z " fill="#000000"/><text fill="#000000" font-family="sans-serif" font-size="12" lengthAdjust="spacing" textLength="102" x="562" y="277.9102">CenterCoordinator</text><line style="stroke:#A80036;stroke-width:1.5;" x1="534" x2="666" y1="289" y2="289"/><!--MD5=[1db03e903fe0a044a2ca0dcbef10799a]
class HealthCareCenter--><rect codeLine="19" fill="#FEFECE" filter="url(#fokftv5jwqsk7)" height="40" id="HealthCareCenter" style="stroke:#A80036;stroke-width:1.5;" width="132" x="413" y="971.5"/><ellipse cx="428" cy="987.5" fill="#ADD1B2" rx="11" ry="11" style="stroke:#A80036;stroke-width:1.0;"/><path d="M430,984 Q430.2031,983.5 430.4375,983.25 Q430.6719,983 430.9375,983 Q431.4063,983 431.7031,983.2813 Q432,983.5625 432,984.2188 L432,985.7813 Q432,986.4375 431.7188,986.7188 Q431.4375,987 431,987 Q430.6094,987 430.3594,986.8281 Q430.1094,986.6563 430,986.2031 Q429.9531,985.8906 429.7813,985.7188 Q429.4688,985.3906 428.9063,985.2031 Q428.3438,985 427.7813,985 Q427.0781,985 426.4844,985.2813 Q425.9063,985.5625 425.4531,986.1875 Q425,986.8125 425,987.6719 L425,988.5938 Q425,989.625 425.8438,990.3125 Q426.6875,991 428.1875,991 Q429.0781,991 429.7031,990.7969 Q430.0625,990.6875 430.4688,990.3281 Q430.7344,990.125 430.875,990.0625 Q431.0156,990 431.1875,990 Q431.5156,990 431.75,990.2656 Q432,990.5156 432,990.875 Q432,991.2188 431.6563,991.625 Q431.1563,992.2188 430.3594,992.5469 Q429.3125,993 428.0313,993 Q426.5313,993 425.3281,992.4063 Q424.3594,991.9375 423.6719,990.9219 Q423,989.9063 423,988.7031 L423,987.6094 Q423,986.3594 423.5938,985.2656 Q424.2031,984.1719 425.25,983.5938 Q426.3125,983 427.5,983 Q428.2188,983 428.8438,983.25 Q429.4688,983.5 430,984 Z " fill="#000000"/><text fill="#000000" font-family="sans-serif" font-size="12" lengthAdjust="spacing" textLength="100" x="442" y="992.4102">HealthCareCenter</text><line style="stroke:#A80036;stroke-width:1.5;" x1="414" x2="544" y1="1003.5" y2="1003.5"/><!--MD5=[9dec31851c9c504cad5b41bb142d96c3]
class DGS--><rect codeLine="22" fill="#FEFECE" filter="url(#fokftv5jwqsk7)" height="40" id="DGS" style="stroke:#A80036;stroke-width:1.5;" width="58" x="630" y="482"/><ellipse cx="645" cy="498" fill="#ADD1B2" rx="11" ry="11" style="stroke:#A80036;stroke-width:1.0;"/><path d="M647,494.5 Q647.2031,494 647.4375,493.75 Q647.6719,493.5 647.9375,493.5 Q648.4063,493.5 648.7031,493.7813 Q649,494.0625 649,494.7188 L649,496.2813 Q649,496.9375 648.7188,497.2188 Q648.4375,497.5 648,497.5 Q647.6094,497.5 647.3594,497.3281 Q647.1094,497.1563 647,496.7031 Q646.9531,496.3906 646.7813,496.2188 Q646.4688,495.8906 645.9063,495.7031 Q645.3438,495.5 644.7813,495.5 Q644.0781,495.5 643.4844,495.7813 Q642.9063,496.0625 642.4531,496.6875 Q642,497.3125 642,498.1719 L642,499.0938 Q642,500.125 642.8438,500.8125 Q643.6875,501.5 645.1875,501.5 Q646.0781,501.5 646.7031,501.2969 Q647.0625,501.1875 647.4688,500.8281 Q647.7344,500.625 647.875,500.5625 Q648.0156,500.5 648.1875,500.5 Q648.5156,500.5 648.75,500.7656 Q649,501.0156 649,501.375 Q649,501.7188 648.6563,502.125 Q648.1563,502.7188 647.3594,503.0469 Q646.3125,503.5 645.0313,503.5 Q643.5313,503.5 642.3281,502.9063 Q641.3594,502.4375 640.6719,501.4219 Q640,500.4063 640,499.2031 L640,498.1094 Q640,496.8594 640.5938,495.7656 Q641.2031,494.6719 642.25,494.0938 Q643.3125,493.5 644.5,493.5 Q645.2188,493.5 645.8438,493.75 Q646.4688,494 647,494.5 Z " fill="#000000"/><text fill="#000000" font-family="sans-serif" font-size="12" lengthAdjust="spacing" textLength="26" x="659" y="502.9102">DGS</text><line style="stroke:#A80036;stroke-width:1.5;" x1="631" x2="687" y1="514" y2="514"/><!--MD5=[9ea49a1aeafb47670c552d4be8173f86]
class MassiveVaccinationCenter--><rect codeLine="25" fill="#FEFECE" filter="url(#fokftv5jwqsk7)" height="40" id="MassiveVaccinationCenter" style="stroke:#A80036;stroke-width:1.5;" width="177" x="570.5" y="697"/><ellipse cx="585.5" cy="713" fill="#ADD1B2" rx="11" ry="11" style="stroke:#A80036;stroke-width:1.0;"/><path d="M587.5,709.5 Q587.7031,709 587.9375,708.75 Q588.1719,708.5 588.4375,708.5 Q588.9063,708.5 589.2031,708.7813 Q589.5,709.0625 589.5,709.7188 L589.5,711.2813 Q589.5,711.9375 589.2188,712.2188 Q588.9375,712.5 588.5,712.5 Q588.1094,712.5 587.8594,712.3281 Q587.6094,712.1563 587.5,711.7031 Q587.4531,711.3906 587.2813,711.2188 Q586.9688,710.8906 586.4063,710.7031 Q585.8438,710.5 585.2813,710.5 Q584.5781,710.5 583.9844,710.7813 Q583.4063,711.0625 582.9531,711.6875 Q582.5,712.3125 582.5,713.1719 L582.5,714.0938 Q582.5,715.125 583.3438,715.8125 Q584.1875,716.5 585.6875,716.5 Q586.5781,716.5 587.2031,716.2969 Q587.5625,716.1875 587.9688,715.8281 Q588.2344,715.625 588.375,715.5625 Q588.5156,715.5 588.6875,715.5 Q589.0156,715.5 589.25,715.7656 Q589.5,716.0156 589.5,716.375 Q589.5,716.7188 589.1563,717.125 Q588.6563,717.7188 587.8594,718.0469 Q586.8125,718.5 585.5313,718.5 Q584.0313,718.5 582.8281,717.9063 Q581.8594,717.4375 581.1719,716.4219 Q580.5,715.4063 580.5,714.2031 L580.5,713.1094 Q580.5,711.8594 581.0938,710.7656 Q581.7031,709.6719 582.75,709.0938 Q583.8125,708.5 585,708.5 Q585.7188,708.5 586.3438,708.75 Q586.9688,709 587.5,709.5 Z " fill="#000000"/><text fill="#000000" font-family="sans-serif" font-size="12" lengthAdjust="spacing" textLength="145" x="599.5" y="717.9102">MassiveVaccinationCenter</text><line style="stroke:#A80036;stroke-width:1.5;" x1="571.5" x2="746.5" y1="729" y2="729"/><!--MD5=[ae27ab334c9ca5f6a013ce0b55b99b8c]
class CovidDigitalCertificate--><rect codeLine="28" fill="#FEFECE" filter="url(#fokftv5jwqsk7)" height="40" id="CovidDigitalCertificate" style="stroke:#A80036;stroke-width:1.5;" width="153" x="580.5" y="971.5"/><ellipse cx="595.5" cy="987.5" fill="#ADD1B2" rx="11" ry="11" style="stroke:#A80036;stroke-width:1.0;"/><path d="M597.5,984 Q597.7031,983.5 597.9375,983.25 Q598.1719,983 598.4375,983 Q598.9063,983 599.2031,983.2813 Q599.5,983.5625 599.5,984.2188 L599.5,985.7813 Q599.5,986.4375 599.2188,986.7188 Q598.9375,987 598.5,987 Q598.1094,987 597.8594,986.8281 Q597.6094,986.6563 597.5,986.2031 Q597.4531,985.8906 597.2813,985.7188 Q596.9688,985.3906 596.4063,985.2031 Q595.8438,985 595.2813,985 Q594.5781,985 593.9844,985.2813 Q593.4063,985.5625 592.9531,986.1875 Q592.5,986.8125 592.5,987.6719 L592.5,988.5938 Q592.5,989.625 593.3438,990.3125 Q594.1875,991 595.6875,991 Q596.5781,991 597.2031,990.7969 Q597.5625,990.6875 597.9688,990.3281 Q598.2344,990.125 598.375,990.0625 Q598.5156,990 598.6875,990 Q599.0156,990 599.25,990.2656 Q599.5,990.5156 599.5,990.875 Q599.5,991.2188 599.1563,991.625 Q598.6563,992.2188 597.8594,992.5469 Q596.8125,993 595.5313,993 Q594.0313,993 592.8281,992.4063 Q591.8594,991.9375 591.1719,990.9219 Q590.5,989.9063 590.5,988.7031 L590.5,987.6094 Q590.5,986.3594 591.0938,985.2656 Q591.7031,984.1719 592.75,983.5938 Q593.8125,983 595,983 Q595.7188,983 596.3438,983.25 Q596.9688,983.5 597.5,984 Z " fill="#000000"/><text fill="#000000" font-family="sans-serif" font-size="12" lengthAdjust="spacing" textLength="121" x="609.5" y="992.4102">CovidDigitalCertificate</text><line style="stroke:#A80036;stroke-width:1.5;" x1="581.5" x2="732.5" y1="1003.5" y2="1003.5"/><!--MD5=[335f4d9be48430461c68bf6d6fdba145]
class App--><rect codeLine="31" fill="#FEFECE" filter="url(#fokftv5jwqsk7)" height="40" id="App" style="stroke:#A80036;stroke-width:1.5;" width="53" x="806.5" y="819"/><ellipse cx="821.5" cy="835" fill="#ADD1B2" rx="11" ry="11" style="stroke:#A80036;stroke-width:1.0;"/><path d="M823.5,831.5 Q823.7031,831 823.9375,830.75 Q824.1719,830.5 824.4375,830.5 Q824.9063,830.5 825.2031,830.7813 Q825.5,831.0625 825.5,831.7188 L825.5,833.2813 Q825.5,833.9375 825.2188,834.2188 Q824.9375,834.5 824.5,834.5 Q824.1094,834.5 823.8594,834.3281 Q823.6094,834.1563 823.5,833.7031 Q823.4531,833.3906 823.2813,833.2188 Q822.9688,832.8906 822.4063,832.7031 Q821.8438,832.5 821.2813,832.5 Q820.5781,832.5 819.9844,832.7813 Q819.4063,833.0625 818.9531,833.6875 Q818.5,834.3125 818.5,835.1719 L818.5,836.0938 Q818.5,837.125 819.3438,837.8125 Q820.1875,838.5 821.6875,838.5 Q822.5781,838.5 823.2031,838.2969 Q823.5625,838.1875 823.9688,837.8281 Q824.2344,837.625 824.375,837.5625 Q824.5156,837.5 824.6875,837.5 Q825.0156,837.5 825.25,837.7656 Q825.5,838.0156 825.5,838.375 Q825.5,838.7188 825.1563,839.125 Q824.6563,839.7188 823.8594,840.0469 Q822.8125,840.5 821.5313,840.5 Q820.0313,840.5 818.8281,839.9063 Q817.8594,839.4375 817.1719,838.4219 Q816.5,837.4063 816.5,836.2031 L816.5,835.1094 Q816.5,833.8594 817.0938,832.7656 Q817.7031,831.6719 818.75,831.0938 Q819.8125,830.5 821,830.5 Q821.7188,830.5 822.3438,830.75 Q822.9688,831 823.5,831.5 Z " fill="#000000"/><text fill="#000000" font-family="sans-serif" font-size="12" lengthAdjust="spacing" textLength="21" x="835.5" y="839.9102">App</text><line style="stroke:#A80036;stroke-width:1.5;" x1="807.5" x2="858.5" y1="851" y2="851"/><!--MD5=[35b584b1cc5a5643474015f373c930e7]
class SMSMessage--><rect codeLine="34" fill="#FEFECE" filter="url(#fokftv5jwqsk7)" height="67.6719" id="SMSMessage" style="stroke:#A80036;stroke-width:1.5;" width="129" x="768.5" y="957.5"/><ellipse cx="792.95" cy="973.5" fill="#ADD1B2" rx="11" ry="11" style="stroke:#A80036;stroke-width:1.0;"/><path d="M794.95,970 Q795.1531,969.5 795.3875,969.25 Q795.6219,969 795.8875,969 Q796.3563,969 796.6531,969.2813 Q796.95,969.5625 796.95,970.2188 L796.95,971.7813 Q796.95,972.4375 796.6688,972.7188 Q796.3875,973 795.95,973 Q795.5594,973 795.3094,972.8281 Q795.0594,972.6563 794.95,972.2031 Q794.9031,971.8906 794.7313,971.7188 Q794.4188,971.3906 793.8563,971.2031 Q793.2938,971 792.7313,971 Q792.0281,971 791.4344,971.2813 Q790.8563,971.5625 790.4031,972.1875 Q789.95,972.8125 789.95,973.6719 L789.95,974.5938 Q789.95,975.625 790.7938,976.3125 Q791.6375,977 793.1375,977 Q794.0281,977 794.6531,976.7969 Q795.0125,976.6875 795.4188,976.3281 Q795.6844,976.125 795.825,976.0625 Q795.9656,976 796.1375,976 Q796.4656,976 796.7,976.2656 Q796.95,976.5156 796.95,976.875 Q796.95,977.2188 796.6063,977.625 Q796.1063,978.2188 795.3094,978.5469 Q794.2625,979 792.9813,979 Q791.4813,979 790.2781,978.4063 Q789.3094,977.9375 788.6219,976.9219 Q787.95,975.9063 787.95,974.7031 L787.95,973.6094 Q787.95,972.3594 788.5438,971.2656 Q789.1531,970.1719 790.2,969.5938 Q791.2625,969 792.45,969 Q793.1688,969 793.7938,969.25 Q794.4188,969.5 794.95,970 Z " fill="#000000"/><text fill="#000000" font-family="sans-serif" font-size="12" lengthAdjust="spacing" textLength="76" x="809.05" y="978.4102">SMSMessage</text><line style="stroke:#A80036;stroke-width:1.5;" x1="769.5" x2="896.5" y1="989.5" y2="989.5"/><text fill="#000000" font-family="sans-serif" font-size="11" lengthAdjust="spacing" textLength="117" x="774.5" y="1004.9189">-informationAppointment</text><text fill="#000000" font-family="sans-serif" font-size="11" lengthAdjust="spacing" textLength="70" x="774.5" y="1018.7549">-timeRecovery</text><!--MD5=[ff8178074f81ca799b3d9493f422ea40]
class EmailMessage--><rect codeLine="39" fill="#FEFECE" filter="url(#fokftv5jwqsk7)" height="67.6719" id="EmailMessage" style="stroke:#A80036;stroke-width:1.5;" width="129" x="932.5" y="957.5"/><ellipse cx="953.8" cy="973.5" fill="#ADD1B2" rx="11" ry="11" style="stroke:#A80036;stroke-width:1.0;"/><path d="M955.8,970 Q956.0031,969.5 956.2375,969.25 Q956.4719,969 956.7375,969 Q957.2063,969 957.5031,969.2813 Q957.8,969.5625 957.8,970.2188 L957.8,971.7813 Q957.8,972.4375 957.5188,972.7188 Q957.2375,973 956.8,973 Q956.4094,973 956.1594,972.8281 Q955.9094,972.6563 955.8,972.2031 Q955.7531,971.8906 955.5813,971.7188 Q955.2688,971.3906 954.7063,971.2031 Q954.1438,971 953.5813,971 Q952.8781,971 952.2844,971.2813 Q951.7063,971.5625 951.2531,972.1875 Q950.8,972.8125 950.8,973.6719 L950.8,974.5938 Q950.8,975.625 951.6438,976.3125 Q952.4875,977 953.9875,977 Q954.8781,977 955.5031,976.7969 Q955.8625,976.6875 956.2688,976.3281 Q956.5344,976.125 956.675,976.0625 Q956.8156,976 956.9875,976 Q957.3156,976 957.55,976.2656 Q957.8,976.5156 957.8,976.875 Q957.8,977.2188 957.4563,977.625 Q956.9563,978.2188 956.1594,978.5469 Q955.1125,979 953.8313,979 Q952.3313,979 951.1281,978.4063 Q950.1594,977.9375 949.4719,976.9219 Q948.8,975.9063 948.8,974.7031 L948.8,973.6094 Q948.8,972.3594 949.3938,971.2656 Q950.0031,970.1719 951.05,969.5938 Q952.1125,969 953.3,969 Q954.0188,969 954.6438,969.25 Q955.2688,969.5 955.8,970 Z " fill="#000000"/><text fill="#000000" font-family="sans-serif" font-size="12" lengthAdjust="spacing" textLength="83" x="969.2" y="978.4102">EmailMessage</text><line style="stroke:#A80036;stroke-width:1.5;" x1="933.5" x2="1060.5" y1="989.5" y2="989.5"/><text fill="#000000" font-family="sans-serif" font-size="11" lengthAdjust="spacing" textLength="117" x="938.5" y="1004.9189">-informationAppointment</text><text fill="#000000" font-family="sans-serif" font-size="11" lengthAdjust="spacing" textLength="70" x="938.5" y="1018.7549">-timeRecovery</text><!--MD5=[19e445fc4d3b48519cbe33da05496394]
class Vaccine--><rect codeLine="44" fill="#FEFECE" filter="url(#fokftv5jwqsk7)" height="67.6719" id="Vaccine" style="stroke:#A80036;stroke-width:1.5;" width="81" x="69.5" y="468"/><ellipse cx="87.2" cy="484" fill="#ADD1B2" rx="11" ry="11" style="stroke:#A80036;stroke-width:1.0;"/><path d="M89.2,480.5 Q89.4031,480 89.6375,479.75 Q89.8719,479.5 90.1375,479.5 Q90.6063,479.5 90.9031,479.7813 Q91.2,480.0625 91.2,480.7188 L91.2,482.2813 Q91.2,482.9375 90.9188,483.2188 Q90.6375,483.5 90.2,483.5 Q89.8094,483.5 89.5594,483.3281 Q89.3094,483.1563 89.2,482.7031 Q89.1531,482.3906 88.9813,482.2188 Q88.6688,481.8906 88.1063,481.7031 Q87.5438,481.5 86.9813,481.5 Q86.2781,481.5 85.6844,481.7813 Q85.1063,482.0625 84.6531,482.6875 Q84.2,483.3125 84.2,484.1719 L84.2,485.0938 Q84.2,486.125 85.0438,486.8125 Q85.8875,487.5 87.3875,487.5 Q88.2781,487.5 88.9031,487.2969 Q89.2625,487.1875 89.6688,486.8281 Q89.9344,486.625 90.075,486.5625 Q90.2156,486.5 90.3875,486.5 Q90.7156,486.5 90.95,486.7656 Q91.2,487.0156 91.2,487.375 Q91.2,487.7188 90.8563,488.125 Q90.3563,488.7188 89.5594,489.0469 Q88.5125,489.5 87.2313,489.5 Q85.7313,489.5 84.5281,488.9063 Q83.5594,488.4375 82.8719,487.4219 Q82.2,486.4063 82.2,485.2031 L82.2,484.1094 Q82.2,482.8594 82.7938,481.7656 Q83.4031,480.6719 84.45,480.0938 Q85.5125,479.5 86.7,479.5 Q87.4188,479.5 88.0438,479.75 Q88.6688,480 89.2,480.5 Z " fill="#000000"/><text fill="#000000" font-family="sans-serif" font-size="12" lengthAdjust="spacing" textLength="43" x="101.8" y="488.9102">Vaccine</text><line style="stroke:#A80036;stroke-width:1.5;" x1="70.5" x2="149.5" y1="500" y2="500"/><text fill="#000000" font-family="sans-serif" font-size="11" lengthAdjust="spacing" textLength="69" x="75.5" y="515.4189">-vaccineName</text><text fill="#000000" font-family="sans-serif" font-size="11" lengthAdjust="spacing" textLength="15" x="75.5" y="529.2549">-lot</text><!--MD5=[0e501da62322464167c8ec4d233a6b7e]
class VaccineType--><rect codeLine="49" fill="#FEFECE" filter="url(#fokftv5jwqsk7)" height="81.5078" id="VaccineType" style="stroke:#A80036;stroke-width:1.5;" width="101" x="59.5" y="676"/><ellipse cx="74.5" cy="692" fill="#ADD1B2" rx="11" ry="11" style="stroke:#A80036;stroke-width:1.0;"/><path d="M76.5,688.5 Q76.7031,688 76.9375,687.75 Q77.1719,687.5 77.4375,687.5 Q77.9063,687.5 78.2031,687.7813 Q78.5,688.0625 78.5,688.7188 L78.5,690.2813 Q78.5,690.9375 78.2188,691.2188 Q77.9375,691.5 77.5,691.5 Q77.1094,691.5 76.8594,691.3281 Q76.6094,691.1563 76.5,690.7031 Q76.4531,690.3906 76.2813,690.2188 Q75.9688,689.8906 75.4063,689.7031 Q74.8438,689.5 74.2813,689.5 Q73.5781,689.5 72.9844,689.7813 Q72.4063,690.0625 71.9531,690.6875 Q71.5,691.3125 71.5,692.1719 L71.5,693.0938 Q71.5,694.125 72.3438,694.8125 Q73.1875,695.5 74.6875,695.5 Q75.5781,695.5 76.2031,695.2969 Q76.5625,695.1875 76.9688,694.8281 Q77.2344,694.625 77.375,694.5625 Q77.5156,694.5 77.6875,694.5 Q78.0156,694.5 78.25,694.7656 Q78.5,695.0156 78.5,695.375 Q78.5,695.7188 78.1563,696.125 Q77.6563,696.7188 76.8594,697.0469 Q75.8125,697.5 74.5313,697.5 Q73.0313,697.5 71.8281,696.9063 Q70.8594,696.4375 70.1719,695.4219 Q69.5,694.4063 69.5,693.2031 L69.5,692.1094 Q69.5,690.8594 70.0938,689.7656 Q70.7031,688.6719 71.75,688.0938 Q72.8125,687.5 74,687.5 Q74.7188,687.5 75.3438,687.75 Q75.9688,688 76.5,688.5 Z " fill="#000000"/><text fill="#000000" font-family="sans-serif" font-size="12" lengthAdjust="spacing" textLength="69" x="88.5" y="696.9102">VaccineType</text><line style="stroke:#A80036;stroke-width:1.5;" x1="60.5" x2="159.5" y1="708" y2="708"/><text fill="#000000" font-family="sans-serif" font-size="11" lengthAdjust="spacing" textLength="52" x="65.5" y="723.4189">-ageGroup</text><text fill="#000000" font-family="sans-serif" font-size="11" lengthAdjust="spacing" textLength="28" x="65.5" y="737.2549">-dose</text><text fill="#000000" font-family="sans-serif" font-size="11" lengthAdjust="spacing" textLength="79" x="65.5" y="751.0908">-vaccineDosage</text><!--MD5=[8fdfefe237645151c947b814b3595f6b]
class VaccineTime--><rect codeLine="55" fill="#FEFECE" filter="url(#fokftv5jwqsk7)" height="53.8359" id="VaccineTime" style="stroke:#A80036;stroke-width:1.5;" width="104" x="196" y="690"/><ellipse cx="211.45" cy="706" fill="#ADD1B2" rx="11" ry="11" style="stroke:#A80036;stroke-width:1.0;"/><path d="M213.45,702.5 Q213.6531,702 213.8875,701.75 Q214.1219,701.5 214.3875,701.5 Q214.8563,701.5 215.1531,701.7813 Q215.45,702.0625 215.45,702.7188 L215.45,704.2813 Q215.45,704.9375 215.1688,705.2188 Q214.8875,705.5 214.45,705.5 Q214.0594,705.5 213.8094,705.3281 Q213.5594,705.1563 213.45,704.7031 Q213.4031,704.3906 213.2313,704.2188 Q212.9188,703.8906 212.3563,703.7031 Q211.7938,703.5 211.2313,703.5 Q210.5281,703.5 209.9344,703.7813 Q209.3563,704.0625 208.9031,704.6875 Q208.45,705.3125 208.45,706.1719 L208.45,707.0938 Q208.45,708.125 209.2938,708.8125 Q210.1375,709.5 211.6375,709.5 Q212.5281,709.5 213.1531,709.2969 Q213.5125,709.1875 213.9188,708.8281 Q214.1844,708.625 214.325,708.5625 Q214.4656,708.5 214.6375,708.5 Q214.9656,708.5 215.2,708.7656 Q215.45,709.0156 215.45,709.375 Q215.45,709.7188 215.1063,710.125 Q214.6063,710.7188 213.8094,711.0469 Q212.7625,711.5 211.4813,711.5 Q209.9813,711.5 208.7781,710.9063 Q207.8094,710.4375 207.1219,709.4219 Q206.45,708.4063 206.45,707.2031 L206.45,706.1094 Q206.45,704.8594 207.0438,703.7656 Q207.6531,702.6719 208.7,702.0938 Q209.7625,701.5 210.95,701.5 Q211.6688,701.5 212.2938,701.75 Q212.9188,702 213.45,702.5 Z " fill="#000000"/><text fill="#000000" font-family="sans-serif" font-size="12" lengthAdjust="spacing" textLength="71" x="225.55" y="710.9102">VaccineTime</text><line style="stroke:#A80036;stroke-width:1.5;" x1="197" x2="299" y1="722" y2="722"/><text fill="#000000" font-family="sans-serif" font-size="11" lengthAdjust="spacing" textLength="92" x="202" y="737.4189">-timeBetweenDose</text><!--MD5=[d7022902071f40c2412e2b7c9d78fdd8]
class CheckCenterCapacity--><rect codeLine="59" fill="#FEFECE" filter="url(#fokftv5jwqsk7)" height="81.5078" id="CheckCenterCapacity" style="stroke:#A80036;stroke-width:1.5;" width="151" x="1084.5" y="1107"/><ellipse cx="1099.5" cy="1123" fill="#ADD1B2" rx="11" ry="11" style="stroke:#A80036;stroke-width:1.0;"/><path d="M1101.5,1119.5 Q1101.7031,1119 1101.9375,1118.75 Q1102.1719,1118.5 1102.4375,1118.5 Q1102.9063,1118.5 1103.2031,1118.7813 Q1103.5,1119.0625 1103.5,1119.7188 L1103.5,1121.2813 Q1103.5,1121.9375 1103.2188,1122.2188 Q1102.9375,1122.5 1102.5,1122.5 Q1102.1094,1122.5 1101.8594,1122.3281 Q1101.6094,1122.1563 1101.5,1121.7031 Q1101.4531,1121.3906 1101.2813,1121.2188 Q1100.9688,1120.8906 1100.4063,1120.7031 Q1099.8438,1120.5 1099.2813,1120.5 Q1098.5781,1120.5 1097.9844,1120.7813 Q1097.4063,1121.0625 1096.9531,1121.6875 Q1096.5,1122.3125 1096.5,1123.1719 L1096.5,1124.0938 Q1096.5,1125.125 1097.3438,1125.8125 Q1098.1875,1126.5 1099.6875,1126.5 Q1100.5781,1126.5 1101.2031,1126.2969 Q1101.5625,1126.1875 1101.9688,1125.8281 Q1102.2344,1125.625 1102.375,1125.5625 Q1102.5156,1125.5 1102.6875,1125.5 Q1103.0156,1125.5 1103.25,1125.7656 Q1103.5,1126.0156 1103.5,1126.375 Q1103.5,1126.7188 1103.1563,1127.125 Q1102.6563,1127.7188 1101.8594,1128.0469 Q1100.8125,1128.5 1099.5313,1128.5 Q1098.0313,1128.5 1096.8281,1127.9063 Q1095.8594,1127.4375 1095.1719,1126.4219 Q1094.5,1125.4063 1094.5,1124.2031 L1094.5,1123.1094 Q1094.5,1121.8594 1095.0938,1120.7656 Q1095.7031,1119.6719 1096.75,1119.0938 Q1097.8125,1118.5 1099,1118.5 Q1099.7188,1118.5 1100.3438,1118.75 Q1100.9688,1119 1101.5,1119.5 Z " fill="#000000"/><text fill="#000000" font-family="sans-serif" font-size="12" lengthAdjust="spacing" textLength="119" x="1113.5" y="1127.9102">CheckCenterCapacity</text><line style="stroke:#A80036;stroke-width:1.5;" x1="1085.5" x2="1234.5" y1="1139" y2="1139"/><text fill="#000000" font-family="sans-serif" font-size="11" lengthAdjust="spacing" textLength="77" x="1090.5" y="1154.4189">-centerCapacity</text><text fill="#000000" font-family="sans-serif" font-size="11" lengthAdjust="spacing" textLength="25" x="1090.5" y="1168.2549">-date</text><text fill="#000000" font-family="sans-serif" font-size="11" lengthAdjust="spacing" textLength="23" x="1090.5" y="1182.0908">-time</text><!--MD5=[8d21a970f1bd1e0e0584d0ecf91221be]
class ScheduleVaccine--><rect codeLine="65" fill="#FEFECE" filter="url(#fokftv5jwqsk7)" height="109.1797" id="ScheduleVaccine" style="stroke:#A80036;stroke-width:1.5;" width="127" x="1096.5" y="937"/><ellipse cx="1111.5" cy="953" fill="#ADD1B2" rx="11" ry="11" style="stroke:#A80036;stroke-width:1.0;"/><path d="M1113.5,949.5 Q1113.7031,949 1113.9375,948.75 Q1114.1719,948.5 1114.4375,948.5 Q1114.9063,948.5 1115.2031,948.7813 Q1115.5,949.0625 1115.5,949.7188 L1115.5,951.2813 Q1115.5,951.9375 1115.2188,952.2188 Q1114.9375,952.5 1114.5,952.5 Q1114.1094,952.5 1113.8594,952.3281 Q1113.6094,952.1563 1113.5,951.7031 Q1113.4531,951.3906 1113.2813,951.2188 Q1112.9688,950.8906 1112.4063,950.7031 Q1111.8438,950.5 1111.2813,950.5 Q1110.5781,950.5 1109.9844,950.7813 Q1109.4063,951.0625 1108.9531,951.6875 Q1108.5,952.3125 1108.5,953.1719 L1108.5,954.0938 Q1108.5,955.125 1109.3438,955.8125 Q1110.1875,956.5 1111.6875,956.5 Q1112.5781,956.5 1113.2031,956.2969 Q1113.5625,956.1875 1113.9688,955.8281 Q1114.2344,955.625 1114.375,955.5625 Q1114.5156,955.5 1114.6875,955.5 Q1115.0156,955.5 1115.25,955.7656 Q1115.5,956.0156 1115.5,956.375 Q1115.5,956.7188 1115.1563,957.125 Q1114.6563,957.7188 1113.8594,958.0469 Q1112.8125,958.5 1111.5313,958.5 Q1110.0313,958.5 1108.8281,957.9063 Q1107.8594,957.4375 1107.1719,956.4219 Q1106.5,955.4063 1106.5,954.2031 L1106.5,953.1094 Q1106.5,951.8594 1107.0938,950.7656 Q1107.7031,949.6719 1108.75,949.0938 Q1109.8125,948.5 1111,948.5 Q1111.7188,948.5 1112.3438,948.75 Q1112.9688,949 1113.5,949.5 Z " fill="#000000"/><text fill="#000000" font-family="sans-serif" font-size="12" lengthAdjust="spacing" textLength="95" x="1125.5" y="957.9102">ScheduleVaccine</text><line style="stroke:#A80036;stroke-width:1.5;" x1="1097.5" x2="1222.5" y1="969" y2="969"/><text fill="#000000" font-family="sans-serif" font-size="11" lengthAdjust="spacing" textLength="84" x="1102.5" y="984.4189">-userNumberSNS</text><text fill="#000000" font-family="sans-serif" font-size="11" lengthAdjust="spacing" textLength="91" x="1102.5" y="998.2549">-vaccinationCenter</text><text fill="#000000" font-family="sans-serif" font-size="11" lengthAdjust="spacing" textLength="25" x="1102.5" y="1012.0908">-date</text><text fill="#000000" font-family="sans-serif" font-size="11" lengthAdjust="spacing" textLength="23" x="1102.5" y="1025.9268">-time</text><text fill="#000000" font-family="sans-serif" font-size="11" lengthAdjust="spacing" textLength="77" x="1102.5" y="1039.7627">-typeOfVaccine</text><!--MD5=[de60e6d4f424ae4d0522096f76a59010]
class VaccinationCenter--><rect codeLine="73" fill="#FEFECE" filter="url(#fokftv5jwqsk7)" height="192.1953" id="VaccinationCenter" style="stroke:#A80036;stroke-width:1.5;" width="132" x="379" y="406"/><ellipse cx="394" cy="422" fill="#ADD1B2" rx="11" ry="11" style="stroke:#A80036;stroke-width:1.0;"/><path d="M396,418.5 Q396.2031,418 396.4375,417.75 Q396.6719,417.5 396.9375,417.5 Q397.4063,417.5 397.7031,417.7813 Q398,418.0625 398,418.7188 L398,420.2813 Q398,420.9375 397.7188,421.2188 Q397.4375,421.5 397,421.5 Q396.6094,421.5 396.3594,421.3281 Q396.1094,421.1563 396,420.7031 Q395.9531,420.3906 395.7813,420.2188 Q395.4688,419.8906 394.9063,419.7031 Q394.3438,419.5 393.7813,419.5 Q393.0781,419.5 392.4844,419.7813 Q391.9063,420.0625 391.4531,420.6875 Q391,421.3125 391,422.1719 L391,423.0938 Q391,424.125 391.8438,424.8125 Q392.6875,425.5 394.1875,425.5 Q395.0781,425.5 395.7031,425.2969 Q396.0625,425.1875 396.4688,424.8281 Q396.7344,424.625 396.875,424.5625 Q397.0156,424.5 397.1875,424.5 Q397.5156,424.5 397.75,424.7656 Q398,425.0156 398,425.375 Q398,425.7188 397.6563,426.125 Q397.1563,426.7188 396.3594,427.0469 Q395.3125,427.5 394.0313,427.5 Q392.5313,427.5 391.3281,426.9063 Q390.3594,426.4375 389.6719,425.4219 Q389,424.4063 389,423.2031 L389,422.1094 Q389,420.8594 389.5938,419.7656 Q390.2031,418.6719 391.25,418.0938 Q392.3125,417.5 393.5,417.5 Q394.2188,417.5 394.8438,417.75 Q395.4688,418 396,418.5 Z " fill="#000000"/><text fill="#000000" font-family="sans-serif" font-size="12" lengthAdjust="spacing" textLength="100" x="408" y="426.9102">VaccinationCenter</text><line style="stroke:#A80036;stroke-width:1.5;" x1="380" x2="510" y1="438" y2="438"/><text fill="#000000" font-family="sans-serif" font-size="11" lengthAdjust="spacing" textLength="30" x="385" y="453.4189">-name</text><text fill="#000000" font-family="sans-serif" font-size="11" lengthAdjust="spacing" textLength="44" x="385" y="467.2549">-address</text><text fill="#000000" font-family="sans-serif" font-size="11" lengthAdjust="spacing" textLength="70" x="385" y="481.0908">-emailAddress</text><text fill="#000000" font-family="sans-serif" font-size="11" lengthAdjust="spacing" textLength="71" x="385" y="494.9268">-phoneNumber</text><text fill="#000000" font-family="sans-serif" font-size="11" lengthAdjust="spacing" textLength="57" x="385" y="508.7627">-faxNumber</text><text fill="#000000" font-family="sans-serif" font-size="11" lengthAdjust="spacing" textLength="85" x="385" y="522.5986">-websiteAddress</text><text fill="#000000" font-family="sans-serif" font-size="11" lengthAdjust="spacing" textLength="71" x="385" y="536.4346">-openingHours</text><text fill="#000000" font-family="sans-serif" font-size="11" lengthAdjust="spacing" textLength="67" x="385" y="550.2705">-closingHours</text><text fill="#000000" font-family="sans-serif" font-size="11" lengthAdjust="spacing" textLength="61" x="385" y="564.1064">-slotDuration</text><text fill="#000000" font-family="sans-serif" font-size="11" lengthAdjust="spacing" textLength="70" x="385" y="577.9424">-maxVaccines</text><text fill="#000000" font-family="sans-serif" font-size="11" lengthAdjust="spacing" textLength="59" x="385" y="591.7783">-coordinator</text><!--MD5=[e2ddcc32583ff1a2f6fdd8d9fe473f71]
link Administrator to Nurse--><path codeLine="87" d="M666.31,29.78 C593.4,33.41 458.25,44.32 348,77 C317.31,86.1 303.55,83.46 283,108 C264.07,130.59 258.35,165.41 256.66,186.89 " fill="none" id="Administrator-Nurse" style="stroke:#A80036;stroke-width:1.0;"/><polygon fill="#000000" points="283.3316,118.9662,292.8292,118.4713,290.7244,112.9832,283.3316,118.9662" style="stroke:#000000;stroke-width:1.0;"/><text fill="#000000" font-family="sans-serif" font-size="13" lengthAdjust="spacing" textLength="50" x="297" y="122.4951">registers</text><text fill="#000000" font-family="sans-serif" font-size="13" lengthAdjust="spacing" textLength="5" x="653.5489" y="26.5658">*</text><text fill="#000000" font-family="sans-serif" font-size="13" lengthAdjust="spacing" textLength="5" x="251.1195" y="176.1794">*</text><!--MD5=[e7c2f1214fae8a9df196b8270f12b77f]
link Administrator to CenterCoordinator--><path codeLine="88" d="M687.81,47.15 C667.45,61.36 642.11,82.63 628,108 C601.06,156.46 598.56,224.05 599.15,256.76 " fill="none" id="Administrator-CenterCoordinator" style="stroke:#A80036;stroke-width:1.0;"/><polygon fill="#000000" points="631.0522,121.7808,637.2826,114.5951,631.8691,112.3054,631.0522,121.7808" style="stroke:#000000;stroke-width:1.0;"/><text fill="#000000" font-family="sans-serif" font-size="13" lengthAdjust="spacing" textLength="50" x="642" y="122.4951">registers</text><text fill="#000000" font-family="sans-serif" font-size="13" lengthAdjust="spacing" textLength="5" x="673.3347" y="68.6117">*</text><text fill="#000000" font-family="sans-serif" font-size="13" lengthAdjust="spacing" textLength="7" x="590.8722" y="246.0113">1</text><!--MD5=[64c52275ea9d22bde431e3436d41be0c]
link Administrator to Receptionist--><path codeLine="89" d="M739.23,47.05 C775.51,81.22 851.25,152.55 887.63,186.82 " fill="none" id="Administrator-Receptionist" style="stroke:#A80036;stroke-width:1.0;"/><polygon fill="#000000" points="830.6398,120.6039,826.0703,112.263,822.0404,116.5418,830.6398,120.6039" style="stroke:#000000;stroke-width:1.0;"/><text fill="#000000" font-family="sans-serif" font-size="13" lengthAdjust="spacing" textLength="50" x="836" y="122.4951">registers</text><text fill="#000000" font-family="sans-serif" font-size="13" lengthAdjust="spacing" textLength="5" x="739.2166" y="68.4836">*</text><text fill="#000000" font-family="sans-serif" font-size="13" lengthAdjust="spacing" textLength="7" x="873.6182" y="176.0889">1</text><!--MD5=[2b5fc2dce8eec1aafb1a3721aa50d3a4]
link Administrator to SNSUser--><path codeLine="90" d="M771.74,32.19 C896.43,42.79 1199,72.95 1199,116 C1199,116 1199,116 1199,337 C1199,399.8 1140.83,454.36 1105.15,481.91 " fill="none" id="Administrator-SNSUser" style="stroke:#A80036;stroke-width:1.0;"/><polygon fill="#000000" points="1206.9778,211.1924,1203.9518,202.176,1199.23,205.6766,1206.9778,211.1924" style="stroke:#000000;stroke-width:1.0;"/><text fill="#000000" font-family="sans-serif" font-size="13" lengthAdjust="spacing" textLength="50" x="1213" y="212.4951">registers</text><text fill="#000000" font-family="sans-serif" font-size="13" lengthAdjust="spacing" textLength="5" x="779.5081" y="29.3147">*</text><text fill="#000000" font-family="sans-serif" font-size="13" lengthAdjust="spacing" textLength="5" x="1107.3909" y="471.2053">*</text><!--MD5=[d497e8607f1e7b3d570c70d67196006d]
link Administrator to VaccinationCenter--><path codeLine="91" d="M666.23,30.55 C569.58,36.68 374,56.43 374,116 C374,116 374,116 374,337 C374,360.27 380.09,383.98 388.71,405.88 " fill="none" id="Administrator-VaccinationCenter" style="stroke:#A80036;stroke-width:1.0;"/><polygon fill="#000000" points="376.0273,211.1961,383.768,205.6705,379.0418,202.176,376.0273,211.1961" style="stroke:#000000;stroke-width:1.0;"/><text fill="#000000" font-family="sans-serif" font-size="13" lengthAdjust="spacing" textLength="50" x="388" y="212.4951">registers</text><text fill="#000000" font-family="sans-serif" font-size="13" lengthAdjust="spacing" textLength="5" x="653.4577" y="45.6941">*</text><text fill="#000000" font-family="sans-serif" font-size="13" lengthAdjust="spacing" textLength="5" x="379.0252" y="395.0843">*</text><!--MD5=[073b08a5da471012f630c095a16c2281]
link Administrator to App--><path codeLine="92" d="M771.54,30.24 C917.47,37.16 1317,61.1 1317,116 C1317,116 1317,116 1317,718 C1317,813.01 961.18,833.31 859.71,837.17 " fill="none" id="Administrator-App" style="stroke:#A80036;stroke-width:1.0;"/><polygon fill="#000000" points="1322.5431,341.1462,1324.4822,331.8354,1318.6391,332.4739,1322.5431,341.1462" style="stroke:#000000;stroke-width:1.0;"/><text fill="#000000" font-family="sans-serif" font-size="13" lengthAdjust="spacing" textLength="53" x="1331" y="341.4951">manages</text><text fill="#000000" font-family="sans-serif" font-size="13" lengthAdjust="spacing" textLength="5" x="779.624" y="45.4118">*</text><text fill="#000000" font-family="sans-serif" font-size="13" lengthAdjust="spacing" textLength="5" x="867.5602" y="832.0705">*</text><!--MD5=[33a136e83c8f98efdf09349b1be92bf9]
link Administrator to DGS--><path codeLine="93" d="M719,47.23 C719,65.05 719,92.32 719,116 C719,116 719,116 719,337 C719,392.18 688.67,451.79 671.14,481.64 " fill="none" id="Administrator-DGS" style="stroke:#A80036;stroke-width:1.0;"/><polygon fill="#000000" points="723.4525,212.1457,727.3642,203.4769,721.5217,202.8332,723.4525,212.1457" style="stroke:#000000;stroke-width:1.0;"/><text fill="#000000" font-family="sans-serif" font-size="13" lengthAdjust="spacing" textLength="52" x="733" y="212.4951">works for</text><text fill="#000000" font-family="sans-serif" font-size="13" lengthAdjust="spacing" textLength="5" x="713.3281" y="68.3592">*</text><text fill="#000000" font-family="sans-serif" font-size="13" lengthAdjust="spacing" textLength="5" x="668.8512" y="471.2083">*</text><!--MD5=[7a8562503c59f9cdcfdb69fd3e5d1073]
link SNSUser to App--><path codeLine="94" d="M1063.77,522.46 C1020.36,581.81 890.01,760.05 846.97,818.9 " fill="none" id="SNSUser-App" style="stroke:#A80036;stroke-width:1.0;"/><polygon fill="#000000" points="953.0484,721.2116,960.7601,715.6456,956.0157,712.1758,953.0484,721.2116" style="stroke:#000000;stroke-width:1.0;"/><text fill="#000000" font-family="sans-serif" font-size="13" lengthAdjust="spacing" textLength="28" x="965" y="722.4951">uses</text><text fill="#000000" font-family="sans-serif" font-size="13" lengthAdjust="spacing" textLength="7" x="1052.0051" y="543.651">1</text><text fill="#000000" font-family="sans-serif" font-size="13" lengthAdjust="spacing" textLength="5" x="845.3393" y="808.1924">*</text><!--MD5=[1f1feade3c115a92670a2014798a2697]
link VaccinationCenter to App--><path codeLine="95" d="M463.89,598.04 C479.28,651.98 506.37,716.75 553,758 C627.22,823.65 751.92,835.67 806.3,837.7 " fill="none" id="VaccinationCenter-App" style="stroke:#A80036;stroke-width:1.0;"/><text fill="#000000" font-family="sans-serif" font-size="13" lengthAdjust="spacing" textLength="7" x="458.1164" y="619.832">1</text><text fill="#000000" font-family="sans-serif" font-size="13" lengthAdjust="spacing" textLength="5" x="793.4525" y="853.043">*</text><!--MD5=[5bb496728aeb136b5cac2afdd096809d]
link Nurse to App--><path codeLine="96" d="M222.8,209.8 C154.8,215.47 6,238.85 6,335 C6,335 6,335 6,718 C6,741.92 20.67,747.18 42,758 C180.18,828.08 684.32,836.77 806.3,837.85 " fill="none" id="Nurse-App" style="stroke:#A80036;stroke-width:1.0;"/><text fill="#000000" font-family="sans-serif" font-size="13" lengthAdjust="spacing" textLength="5" x="209.9906" y="206.1961">*</text><text fill="#000000" font-family="sans-serif" font-size="13" lengthAdjust="spacing" textLength="5" x="793.4525" y="832.9333">*</text><!--MD5=[76cad79529e5c8976f35d520d0aef16e]
link Nurse to DGS--><path codeLine="97" d="M282.38,227.08 C331.12,262.36 438.59,340.18 529,406 C564.93,432.16 606.38,462.47 632.63,481.69 " fill="none" id="Nurse-DGS" style="stroke:#A80036;stroke-width:1.0;"/><polygon fill="#000000" points="450.0443,339.1158,444.4561,331.4201,441,336.1745,450.0443,339.1158" style="stroke:#000000;stroke-width:1.0;"/><text fill="#000000" font-family="sans-serif" font-size="13" lengthAdjust="spacing" textLength="52" x="455" y="341.4951">works for</text><text fill="#000000" font-family="sans-serif" font-size="13" lengthAdjust="spacing" textLength="5" x="284.0963" y="248.5221">*</text><text fill="#000000" font-family="sans-serif" font-size="13" lengthAdjust="spacing" textLength="5" x="619.5103" y="471.2724">*</text><!--MD5=[49bdc4f43c0486f86f6744f0a65b0571]
link Nurse to Vaccine--><path codeLine="98" d="M222.87,226.53 C190.53,246.63 143.07,281.97 121,327 C99.02,371.85 100.8,431.17 104.85,467.67 " fill="none" id="Nurse-Vaccine" style="stroke:#A80036;stroke-width:1.0;"/><polygon fill="#000000" points="123.802,340.6668,130.4179,333.8345,125.1385,331.2506,123.802,340.6668" style="stroke:#000000;stroke-width:1.0;"/><text fill="#000000" font-family="sans-serif" font-size="13" lengthAdjust="spacing" textLength="78" x="135" y="341.4951">administrates</text><text fill="#000000" font-family="sans-serif" font-size="13" lengthAdjust="spacing" textLength="5" x="210.0759" y="226.5858">*</text><text fill="#000000" font-family="sans-serif" font-size="13" lengthAdjust="spacing" textLength="7" x="96.2011" y="457.1607">1</text><!--MD5=[03efd8c9f90c050219bacdb83332548b]
link Nurse to VaccinationCenter--><path codeLine="99" d="M256.41,227.38 C257.75,255.1 263.11,306.89 284,345 C307.1,387.15 345.38,424.94 378.82,452.76 " fill="none" id="Nurse-VaccinationCenter" style="stroke:#A80036;stroke-width:1.0;"/><polygon fill="#000000" points="291.3864,340.5696,289.652,331.2185,284.4868,334.0238,291.3864,340.5696" style="stroke:#000000;stroke-width:1.0;"/><text fill="#000000" font-family="sans-serif" font-size="13" lengthAdjust="spacing" textLength="49" x="298" y="341.4951">works at</text><text fill="#000000" font-family="sans-serif" font-size="13" lengthAdjust="spacing" textLength="5" x="250.8483" y="248.5495">*</text><text fill="#000000" font-family="sans-serif" font-size="13" lengthAdjust="spacing" textLength="5" x="365.8789" y="443.6458">*</text><!--MD5=[7690a4971bd8576b261a40a0340b8203]
link Receptionist to SNSUser--><path codeLine="100" d="M934,227.12 C944.79,235.66 957.08,246.23 967,257 C992.73,284.94 998.58,293.25 1016,327 C1043.58,380.43 1064.02,448.93 1072.98,481.77 " fill="none" id="Receptionist-SNSUser" style="stroke:#A80036;stroke-width:1.0;"/><polygon fill="#000000" points="1031.3953,340.5647,1029.6419,331.2172,1024.4824,334.033,1031.3953,340.5647" style="stroke:#000000;stroke-width:1.0;"/><text fill="#000000" font-family="sans-serif" font-size="13" lengthAdjust="spacing" textLength="53" x="1038" y="341.4951">gives info</text><text fill="#000000" font-family="sans-serif" font-size="13" lengthAdjust="spacing" textLength="5" x="935.6094" y="248.5733">*</text><text fill="#000000" font-family="sans-serif" font-size="13" lengthAdjust="spacing" textLength="5" x="1065.771" y="471.0242">*</text><!--MD5=[2bde3c2658e9820e0f62920496486001]
link Receptionist to VaccinationCenter--><path codeLine="101" d="M877.96,227.08 C836.25,253.56 758.42,302.96 692,345 C630.72,383.79 560.83,427.92 511.07,459.32 " fill="none" id="Receptionist-VaccinationCenter" style="stroke:#A80036;stroke-width:1.0;"/><polygon fill="#000000" points="718.7753,338.85,727.9898,336.4955,724.846,331.529,718.7753,338.85" style="stroke:#000000;stroke-width:1.0;"/><text fill="#000000" font-family="sans-serif" font-size="13" lengthAdjust="spacing" textLength="49" x="732" y="341.4951">works at</text><text fill="#000000" font-family="sans-serif" font-size="13" lengthAdjust="spacing" textLength="5" x="863.8081" y="248.5221">*</text><text fill="#000000" font-family="sans-serif" font-size="13" lengthAdjust="spacing" textLength="5" x="518.9984" y="450.9643">*</text><!--MD5=[a2b34777cb48a2a30fe6d124791cb83b]
link Receptionist to DGS--><path codeLine="102" d="M908.2,227.38 C907.6,255.55 903.03,308.43 879,345 C831.05,417.98 736.2,467.42 688.24,488.89 " fill="none" id="Receptionist-DGS" style="stroke:#A80036;stroke-width:1.0;"/><polygon fill="#000000" points="889.7815,340.0022,897.8529,334.9719,893.3547,331.1884,889.7815,340.0022" style="stroke:#000000;stroke-width:1.0;"/><text fill="#000000" font-family="sans-serif" font-size="13" lengthAdjust="spacing" textLength="52" x="902" y="341.4951">works for</text><text fill="#000000" font-family="sans-serif" font-size="13" lengthAdjust="spacing" textLength="5" x="902.5819" y="248.5495">*</text><text fill="#000000" font-family="sans-serif" font-size="13" lengthAdjust="spacing" textLength="5" x="695.9766" y="481.2824">*</text><!--MD5=[c4fe4d361f0497dda5cfbcd228aa1a8b]
link CenterCoordinator to DGS--><path codeLine="103" d="M605.03,297.01 C616.15,339.04 642.71,439.45 653.9,481.72 " fill="none" id="CenterCoordinator-DGS" style="stroke:#A80036;stroke-width:1.0;"/><polygon fill="#000000" points="623.2789,341.0095,623.8065,331.5135,618.1242,333.017,623.2789,341.0095" style="stroke:#000000;stroke-width:1.0;"/><text fill="#000000" font-family="sans-serif" font-size="13" lengthAdjust="spacing" textLength="52" x="631" y="341.4951">works for</text><text fill="#000000" font-family="sans-serif" font-size="13" lengthAdjust="spacing" textLength="7" x="598.4603" y="318.4324">1</text><text fill="#000000" font-family="sans-serif" font-size="13" lengthAdjust="spacing" textLength="5" x="646.7625" y="471.3108">*</text><!--MD5=[a3ad22d849ef3fa5e17f421533a8fb22]
link DGS to MassiveVaccinationCenter--><path codeLine="104" d="M659,522.28 C659,562.83 659,656.54 659,696.92 " fill="none" id="DGS-MassiveVaccinationCenter" style="stroke:#A80036;stroke-width:1.0;"/><text fill="#000000" font-family="sans-serif" font-size="13" lengthAdjust="spacing" textLength="7" x="651.0594" y="543.4226">1</text><text fill="#000000" font-family="sans-serif" font-size="13" lengthAdjust="spacing" textLength="7" x="650.9719" y="686.2183">1</text><!--MD5=[3568623adf67b2630dce9e60c05bd02a]
link Vaccine to VaccineType--><path codeLine="105" d="M110,536.28 C110,573.96 110,635.33 110,675.69 " fill="none" id="Vaccine-VaccineType" style="stroke:#A80036;stroke-width:1.0;"/><polygon fill="#000000" points="115,642.1758,117.9389,633.1307,112.0611,633.1307,115,642.1758" style="stroke:#000000;stroke-width:1.0;"/><text fill="#000000" font-family="sans-serif" font-size="13" lengthAdjust="spacing" textLength="21" x="124" y="642.4951">has</text><text fill="#000000" font-family="sans-serif" font-size="13" lengthAdjust="spacing" textLength="5" x="104.5703" y="557.1004">*</text><text fill="#000000" font-family="sans-serif" font-size="13" lengthAdjust="spacing" textLength="7" x="102.4203" y="665.088">1</text><!--MD5=[11cbd578e9513a40800c84f06387e69f]
link Vaccine to VaccineTime--><path codeLine="106" d="M131.56,536.28 C159.08,578.75 206.11,651.34 231.15,689.99 " fill="none" id="Vaccine-VaccineTime" style="stroke:#A80036;stroke-width:1.0;"/><polygon fill="#000000" points="206.7188,641.372,204.2669,632.1829,199.334,635.379,206.7188,641.372" style="stroke:#000000;stroke-width:1.0;"/><text fill="#000000" font-family="sans-serif" font-size="13" lengthAdjust="spacing" textLength="21" x="213" y="642.4951">has</text><text fill="#000000" font-family="sans-serif" font-size="13" lengthAdjust="spacing" textLength="5" x="129.8359" y="557.1004">*</text><text fill="#000000" font-family="sans-serif" font-size="13" lengthAdjust="spacing" textLength="7" x="219.1897" y="679.0143">1</text><!--MD5=[1ad0888398876d0a5b5813418ce026e2]
link App to ScheduleVaccine--><path codeLine="107" d="M859.75,848.25 C905.93,863 1002.96,896.18 1079,937 C1084.64,940.03 1090.39,943.34 1096.1,946.78 " fill="none" id="App-ScheduleVaccine" style="stroke:#A80036;stroke-width:1.0;"/><polygon fill="#000000" points="1022.615,900.0997,1015.3972,893.9066,1013.1355,899.3319,1022.615,900.0997" style="stroke:#000000;stroke-width:1.0;"/><text fill="#000000" font-family="sans-serif" font-size="13" lengthAdjust="spacing" textLength="28" x="1027" y="903.4951">does</text><text fill="#000000" font-family="sans-serif" font-size="13" lengthAdjust="spacing" textLength="5" x="867.6109" y="866.4283">*</text><text fill="#000000" font-family="sans-serif" font-size="13" lengthAdjust="spacing" textLength="7" x="1081.3069" y="938.1893">1</text><!--MD5=[79fee4e4425ae6f4d5189b57381ed9d9]
link App to SMSMessage--><path codeLine="108" d="M833,859.06 C833,883.74 833,927.15 833,957.3 " fill="none" id="App-SMSMessage" style="stroke:#A80036;stroke-width:1.0;"/><polygon fill="#000000" points="838,903.1758,840.9389,894.1307,835.0611,894.1307,838,903.1758" style="stroke:#000000;stroke-width:1.0;"/><text fill="#000000" font-family="sans-serif" font-size="13" lengthAdjust="spacing" textLength="35" x="847" y="903.4951">sends</text><text fill="#000000" font-family="sans-serif" font-size="13" lengthAdjust="spacing" textLength="5" x="827.2969" y="880.4964">*</text><text fill="#000000" font-family="sans-serif" font-size="13" lengthAdjust="spacing" textLength="7" x="825.3109" y="946.5539">1</text><!--MD5=[7fee5725fcf01d264d66f094ee978f3d]
link App to HealthCareCenter--><path codeLine="109" d="M806.14,847.48 C756.67,861.73 648.41,895.11 563,937 C542.97,946.82 521.8,960.33 505.72,971.32 " fill="none" id="App-HealthCareCenter" style="stroke:#A80036;stroke-width:1.0;"/><text fill="#000000" font-family="sans-serif" font-size="13" lengthAdjust="spacing" textLength="5" x="793.6165" y="865.2432">*</text><text fill="#000000" font-family="sans-serif" font-size="13" lengthAdjust="spacing" textLength="7" x="505.5409" y="960.5889">1</text><!--MD5=[597d738fae5f831986acf37647c298db]
link App to CovidDigitalCertificate--><path codeLine="110" d="M810.71,859.06 C776.95,887.93 713.21,942.44 679.39,971.36 " fill="none" id="App-CovidDigitalCertificate" style="stroke:#A80036;stroke-width:1.0;"/><polygon fill="#000000" points="772.2,901.4254,780.9843,897.7804,777.1642,893.3132,772.2,901.4254" style="stroke:#000000;stroke-width:1.0;"/><text fill="#000000" font-family="sans-serif" font-size="13" lengthAdjust="spacing" textLength="32" x="785" y="903.4951">emits</text><text fill="#000000" font-family="sans-serif" font-size="13" lengthAdjust="spacing" textLength="5" x="805.1441" y="880.4964">*</text><text fill="#000000" font-family="sans-serif" font-size="13" lengthAdjust="spacing" textLength="7" x="677.9389" y="960.6406">1</text><!--MD5=[d3fd356048560b185ca2c645d98d91bb]
link App to EmailMessage--><path codeLine="111" d="M856.43,859.23 C867.1,868.13 879.83,878.95 891,889 C915.62,911.15 942.57,936.98 963.14,957.04 " fill="none" id="App-EmailMessage" style="stroke:#A80036;stroke-width:1.0;"/><polygon fill="#000000" points="916.6859,901.5543,912.0039,893.276,908.0322,897.609,916.6859,901.5543" style="stroke:#000000;stroke-width:1.0;"/><text fill="#000000" font-family="sans-serif" font-size="13" lengthAdjust="spacing" textLength="35" x="922" y="903.4951">sends</text><text fill="#000000" font-family="sans-serif" font-size="13" lengthAdjust="spacing" textLength="5" x="857.0549" y="880.3592">*</text><text fill="#000000" font-family="sans-serif" font-size="13" lengthAdjust="spacing" textLength="7" x="949.2518" y="946.7692">1</text><!--MD5=[b7c01a66225ccbbe0e647cfd8fd1a74c]
link ScheduleVaccine to CheckCenterCapacity--><path codeLine="112" d="M1160,1046.1 C1160,1065.97 1160,1088.16 1160,1106.65 " fill="none" id="ScheduleVaccine-CheckCenterCapacity" style="stroke:#A80036;stroke-width:1.0;"/><text fill="#000000" font-family="sans-serif" font-size="13" lengthAdjust="spacing" textLength="7" x="1152.5516" y="1067.6268">1</text><text fill="#000000" font-family="sans-serif" font-size="13" lengthAdjust="spacing" textLength="7" x="1152.4203" y="1096.0414">1</text><!--MD5=[65143400d30f67ece97295d3fd274e84]
@startuml
skinparam classAttributeIconSize 0
hide methods

class Administrator{
}

class Nurse{
}

class SNSUser{
}

class Receptionist{
}

class CenterCoordinator{
}

class HealthCareCenter {
}

class DGS {
}

class MassiveVaccinationCenter {
}

class CovidDigitalCertificate {
}

class App{
}

class SMSMessage {
- informationAppointment
- timeRecovery
}

class EmailMessage {
- informationAppointment
- timeRecovery
}

class Vaccine {
- vaccineName
- lot
}

class VaccineType {
- ageGroup
- dose
- vaccineDosage
}

class VaccineTime {
- timeBetweenDose
}

class CheckCenterCapacity {
- centerCapacity
- date
- time
}

class ScheduleVaccine {
- userNumberSNS
- vaccinationCenter
- date
- time
- typeOfVaccine
}

class VaccinationCenter {
  - name
  - address
  - emailAddress
  - phoneNumber
  - faxNumber
  - websiteAddress
  - openingHours
  - closingHours
  - slotDuration
  - maxVaccines
  - coordinator
}

Administrator "*"- - -"*" Nurse : registers >
Administrator "*"- - -"1" CenterCoordinator : registers >
Administrator "*"- - -"1" Receptionist : registers >
Administrator "*"- - -"*" SNSUser : registers >
Administrator "*"- - -"*" VaccinationCenter : registers >
Administrator "*"- - -"*" App : manages >
Administrator "*"- - -"*" DGS : works for >
SNSUser "1"- - -"*" App : uses >
VaccinationCenter "1"- - -"*" App
Nurse "*"- - -"*" App
Nurse "*"- - -"*" DGS : works for >
Nurse "*"- - -"1" Vaccine : administrates >
Nurse "*"- - -"*" VaccinationCenter : works at >
Receptionist "*"- - -"*" SNSUser : gives info >
Receptionist "*"- - -"*" VaccinationCenter : works at >
Receptionist "*"- - -"*" DGS : works for >
CenterCoordinator "1"- -"*" DGS : works for >
DGS "1"- -"1" MassiveVaccinationCenter
Vaccine "*"- -"1" VaccineType : has >
Vaccine "*"- -"1" VaccineTime : has >
App "*"- -"1" ScheduleVaccine : does >
App "*"- -"1" SMSMessage : sends >
App "*"- -"1" HealthCareCenter
App "*"- -"1" CovidDigitalCertificate : emits >
App "*"- -"1" EmailMessage : sends >
ScheduleVaccine "1"- -"1" CheckCenterCapacity



@endum

PlantUML version 1.2022.1(Tue Feb 01 18:19:58 GMT 2022)
(GPL source distribution)
Java Runtime: OpenJDK Runtime Environment
JVM: OpenJDK 64-Bit Server VM
Default Encoding: Cp1252
Language: en
Country: US
--></g></svg>