<?xml version="1.0" encoding="UTF-8" standalone="no"?><svg xmlns="http://www.w3.org/2000/svg" xmlns:xlink="http://www.w3.org/1999/xlink" contentStyleType="text/css" height="1090px" preserveAspectRatio="none" style="width:2194px;height:1090px;background:#FFFFFF;" version="1.1" viewBox="0 0 2194 1090" width="2194px" zoomAndPan="magnify"><defs/><g><rect fill="#FFFFFF" height="907.1953" style="stroke:#181818;stroke-width:1.0;" width="10" x="62.5" y="92.6094"/><rect fill="#FFFFFF" height="30.3516" style="stroke:#181818;stroke-width:1.0;" width="10" x="347.5" y="114.9609"/><rect fill="#FFFFFF" height="824.1406" style="stroke:#181818;stroke-width:1.0;" width="10" x="347.5" y="175.6641"/><rect fill="#FFFFFF" height="30.3516" style="stroke:#181818;stroke-width:1.0;" width="10" x="352.5" y="492.1797"/><rect fill="#FFFFFF" height="30.3516" style="stroke:#181818;stroke-width:1.0;" width="10" x="352.5" y="552.8828"/><rect fill="#FFFFFF" height="30.3516" style="stroke:#181818;stroke-width:1.0;" width="10" x="352.5" y="613.5859"/><rect fill="#FFFFFF" height="824.1406" style="stroke:#181818;stroke-width:1.0;" width="10" x="623.5" y="175.6641"/><rect fill="#FFFFFF" height="121.4063" style="stroke:#181818;stroke-width:1.0;" width="10" x="1210.5" y="236.3672"/><rect fill="#FFFFFF" height="60.7031" style="stroke:#181818;stroke-width:1.0;" width="10" x="1443.5" y="266.7188"/><line style="stroke:#181818;stroke-width:0.5;stroke-dasharray:5.0,5.0;" x1="67" x2="67" y1="82.6094" y2="1008.8047"/><line style="stroke:#181818;stroke-width:0.5;stroke-dasharray:5.0,5.0;" x1="352.5" x2="352.5" y1="82.6094" y2="1008.8047"/><line style="stroke:#181818;stroke-width:0.5;stroke-dasharray:5.0,5.0;" x1="628.5" x2="628.5" y1="82.6094" y2="1008.8047"/><line style="stroke:#181818;stroke-width:0.5;stroke-dasharray:5.0,5.0;" x1="1215" x2="1215" y1="82.6094" y2="1008.8047"/><line style="stroke:#181818;stroke-width:0.5;stroke-dasharray:5.0,5.0;" x1="1448.5" x2="1448.5" y1="82.6094" y2="1008.8047"/><line style="stroke:#181818;stroke-width:0.5;stroke-dasharray:5.0,5.0;" x1="1538.5" x2="1538.5" y1="82.6094" y2="1008.8047"/><line style="stroke:#181818;stroke-width:0.5;stroke-dasharray:5.0,5.0;" x1="1630.5" x2="1630.5" y1="82.6094" y2="1008.8047"/><line style="stroke:#181818;stroke-width:0.5;stroke-dasharray:5.0,5.0;" x1="1784.5" x2="1784.5" y1="82.6094" y2="1008.8047"/><line style="stroke:#181818;stroke-width:0.5;stroke-dasharray:5.0,5.0;" x1="1896.5" x2="1896.5" y1="82.6094" y2="1008.8047"/><line style="stroke:#181818;stroke-width:0.5;stroke-dasharray:5.0,5.0;" x1="2088" x2="2088" y1="82.6094" y2="1008.8047"/><line style="stroke:#181818;stroke-width:0.5;stroke-dasharray:5.0,5.0;" x1="2160" x2="2160" y1="82.6094" y2="1008.8047"/><text fill="#000000" font-family="sans-serif" font-size="14" lengthAdjust="spacing" textLength="119" x="5" y="79.5332">Center coordinator</text><ellipse cx="67.5" cy="13.5" fill="#E2E2F0" rx="8" ry="8" style="stroke:#181818;stroke-width:0.5;"/><path d="M67.5,21.5 L67.5,48.5 M54.5,29.5 L80.5,29.5 M67.5,48.5 L54.5,63.5 M67.5,48.5 L80.5,63.5 " fill="none" style="stroke:#181818;stroke-width:0.5;"/><text fill="#000000" font-family="sans-serif" font-size="14" lengthAdjust="spacing" textLength="119" x="5" y="1022.3379">Center coordinator</text><ellipse cx="67.5" cy="1033.9141" fill="#E2E2F0" rx="8" ry="8" style="stroke:#181818;stroke-width:0.5;"/><path d="M67.5,1041.9141 L67.5,1068.9141 M54.5,1049.9141 L80.5,1049.9141 M67.5,1068.9141 L54.5,1083.9141 M67.5,1068.9141 L80.5,1083.9141 " fill="none" style="stroke:#181818;stroke-width:0.5;"/><rect fill="#E2E2F0" height="49.2188" rx="2.5" ry="2.5" style="stroke:#181818;stroke-width:0.5;" width="114" x="295.5" y="32.3906"/><text fill="#000000" font-family="sans-serif" font-size="14" lengthAdjust="spacing" textLength="4" x="350.5" y="53.9238">:</text><text fill="#000000" font-family="sans-serif" font-size="14" lengthAdjust="spacing" textLength="100" x="302.5" y="71.5332">LegacyDataUIUI</text><rect fill="#E2E2F0" height="49.2188" rx="2.5" ry="2.5" style="stroke:#181818;stroke-width:0.5;" width="114" x="295.5" y="1007.8047"/><text fill="#000000" font-family="sans-serif" font-size="14" lengthAdjust="spacing" textLength="4" x="350.5" y="1029.3379">:</text><text fill="#000000" font-family="sans-serif" font-size="14" lengthAdjust="spacing" textLength="100" x="302.5" y="1046.9473">LegacyDataUIUI</text><rect fill="#E2E2F0" height="49.2188" rx="2.5" ry="2.5" style="stroke:#181818;stroke-width:0.5;" width="152" x="552.5" y="32.3906"/><text fill="#000000" font-family="sans-serif" font-size="14" lengthAdjust="spacing" textLength="4" x="626.5" y="53.9238">:</text><text fill="#000000" font-family="sans-serif" font-size="14" lengthAdjust="spacing" textLength="138" x="559.5" y="71.5332">LegacyDataController</text><rect fill="#E2E2F0" height="49.2188" rx="2.5" ry="2.5" style="stroke:#181818;stroke-width:0.5;" width="152" x="552.5" y="1007.8047"/><text fill="#000000" font-family="sans-serif" font-size="14" lengthAdjust="spacing" textLength="4" x="626.5" y="1029.3379">:</text><text fill="#000000" font-family="sans-serif" font-size="14" lengthAdjust="spacing" textLength="138" x="559.5" y="1046.9473">LegacyDataController</text><rect fill="#E2E2F0" height="49.2188" rx="2.5" ry="2.5" style="stroke:#181818;stroke-width:0.5;" width="105" x="1163" y="32.3906"/><text fill="#000000" font-family="sans-serif" font-size="14" lengthAdjust="spacing" textLength="4" x="1213.5" y="53.9238">:</text><text fill="#000000" font-family="sans-serif" font-size="14" lengthAdjust="spacing" textLength="91" x="1170" y="71.5332">CSVConverter</text><rect fill="#E2E2F0" height="49.2188" rx="2.5" ry="2.5" style="stroke:#181818;stroke-width:0.5;" width="105" x="1163" y="1007.8047"/><text fill="#000000" font-family="sans-serif" font-size="14" lengthAdjust="spacing" textLength="4" x="1213.5" y="1029.3379">:</text><text fill="#000000" font-family="sans-serif" font-size="14" lengthAdjust="spacing" textLength="91" x="1170" y="1046.9473">CSVConverter</text><rect fill="#E2E2F0" height="49.2188" rx="2.5" ry="2.5" style="stroke:#181818;stroke-width:0.5;" width="86" x="1405.5" y="32.3906"/><text fill="#000000" font-family="sans-serif" font-size="14" lengthAdjust="spacing" textLength="4" x="1446.5" y="53.9238">:</text><text fill="#000000" font-family="sans-serif" font-size="14" lengthAdjust="spacing" textLength="72" x="1412.5" y="71.5332">DateParser</text><rect fill="#E2E2F0" height="49.2188" rx="2.5" ry="2.5" style="stroke:#181818;stroke-width:0.5;" width="86" x="1405.5" y="1007.8047"/><text fill="#000000" font-family="sans-serif" font-size="14" lengthAdjust="spacing" textLength="4" x="1446.5" y="1029.3379">:</text><text fill="#000000" font-family="sans-serif" font-size="14" lengthAdjust="spacing" textLength="72" x="1412.5" y="1046.9473">DateParser</text><rect fill="#E2E2F0" height="49.2188" rx="2.5" ry="2.5" style="stroke:#181818;stroke-width:0.5;" width="74" x="1501.5" y="32.3906"/><text fill="#000000" font-family="sans-serif" font-size="14" lengthAdjust="spacing" textLength="4" x="1536.5" y="53.9238">:</text><text fill="#000000" font-family="sans-serif" font-size="14" lengthAdjust="spacing" textLength="60" x="1508.5" y="71.5332">Company</text><rect fill="#E2E2F0" height="49.2188" rx="2.5" ry="2.5" style="stroke:#181818;stroke-width:0.5;" width="74" x="1501.5" y="1007.8047"/><text fill="#000000" font-family="sans-serif" font-size="14" lengthAdjust="spacing" textLength="4" x="1536.5" y="1029.3379">:</text><text fill="#000000" font-family="sans-serif" font-size="14" lengthAdjust="spacing" textLength="60" x="1508.5" y="1046.9473">Company</text><rect fill="#E2E2F0" height="49.2188" rx="2.5" ry="2.5" style="stroke:#181818;stroke-width:0.5;" width="90" x="1585.5" y="32.3906"/><text fill="#000000" font-family="sans-serif" font-size="14" lengthAdjust="spacing" textLength="4" x="1628.5" y="53.9238">:</text><text fill="#000000" font-family="sans-serif" font-size="14" lengthAdjust="spacing" textLength="76" x="1592.5" y="71.5332">LegacyData</text><rect fill="#E2E2F0" height="49.2188" rx="2.5" ry="2.5" style="stroke:#181818;stroke-width:0.5;" width="90" x="1585.5" y="1007.8047"/><text fill="#000000" font-family="sans-serif" font-size="14" lengthAdjust="spacing" textLength="4" x="1628.5" y="1029.3379">:</text><text fill="#000000" font-family="sans-serif" font-size="14" lengthAdjust="spacing" textLength="76" x="1592.5" y="1046.9473">LegacyData</text><rect fill="#E2E2F0" height="49.2188" rx="2.5" ry="2.5" style="stroke:#181818;stroke-width:0.5;" width="124" x="1722.5" y="32.3906"/><text fill="#000000" font-family="sans-serif" font-size="14" lengthAdjust="spacing" textLength="4" x="1782.5" y="53.9238">:</text><text fill="#000000" font-family="sans-serif" font-size="14" lengthAdjust="spacing" textLength="110" x="1729.5" y="71.5332">LegacyDataStore</text><rect fill="#E2E2F0" height="49.2188" rx="2.5" ry="2.5" style="stroke:#181818;stroke-width:0.5;" width="124" x="1722.5" y="1007.8047"/><text fill="#000000" font-family="sans-serif" font-size="14" lengthAdjust="spacing" textLength="4" x="1782.5" y="1029.3379">:</text><text fill="#000000" font-family="sans-serif" font-size="14" lengthAdjust="spacing" textLength="110" x="1729.5" y="1046.9473">LegacyDataStore</text><rect fill="#E2E2F0" height="49.2188" rx="2.5" ry="2.5" style="stroke:#181818;stroke-width:0.5;" width="40" x="1876.5" y="32.3906"/><text fill="#000000" font-family="sans-serif" font-size="14" lengthAdjust="spacing" textLength="4" x="1894.5" y="53.9238">:</text><text fill="#000000" font-family="sans-serif" font-size="14" lengthAdjust="spacing" textLength="26" x="1883.5" y="71.5332">Sort</text><rect fill="#E2E2F0" height="49.2188" rx="2.5" ry="2.5" style="stroke:#181818;stroke-width:0.5;" width="40" x="1876.5" y="1007.8047"/><text fill="#000000" font-family="sans-serif" font-size="14" lengthAdjust="spacing" textLength="4" x="1894.5" y="1029.3379">:</text><text fill="#000000" font-family="sans-serif" font-size="14" lengthAdjust="spacing" textLength="26" x="1883.5" y="1046.9473">Sort</text><rect fill="#E2E2F0" height="31.6094" rx="2.5" ry="2.5" style="stroke:#181818;stroke-width:0.5;" width="67" x="2055" y="50"/><text fill="#000000" font-family="sans-serif" font-size="14" lengthAdjust="spacing" textLength="53" x="2062" y="71.5332">BUBBLE</text><rect fill="#E2E2F0" height="31.6094" rx="2.5" ry="2.5" style="stroke:#181818;stroke-width:0.5;" width="67" x="2055" y="1007.8047"/><text fill="#000000" font-family="sans-serif" font-size="14" lengthAdjust="spacing" textLength="53" x="2062" y="1029.3379">BUBBLE</text><rect fill="#E2E2F0" height="31.6094" rx="2.5" ry="2.5" style="stroke:#181818;stroke-width:0.5;" width="56" x="2132" y="50"/><text fill="#000000" font-family="sans-serif" font-size="14" lengthAdjust="spacing" textLength="42" x="2139" y="71.5332">QUICK</text><rect fill="#E2E2F0" height="31.6094" rx="2.5" ry="2.5" style="stroke:#181818;stroke-width:0.5;" width="56" x="2132" y="1007.8047"/><text fill="#000000" font-family="sans-serif" font-size="14" lengthAdjust="spacing" textLength="42" x="2139" y="1029.3379">QUICK</text><rect fill="#FFFFFF" height="907.1953" style="stroke:#181818;stroke-width:1.0;" width="10" x="62.5" y="92.6094"/><rect fill="#FFFFFF" height="30.3516" style="stroke:#181818;stroke-width:1.0;" width="10" x="347.5" y="114.9609"/><rect fill="#FFFFFF" height="824.1406" style="stroke:#181818;stroke-width:1.0;" width="10" x="347.5" y="175.6641"/><rect fill="#FFFFFF" height="30.3516" style="stroke:#181818;stroke-width:1.0;" width="10" x="352.5" y="492.1797"/><rect fill="#FFFFFF" height="30.3516" style="stroke:#181818;stroke-width:1.0;" width="10" x="352.5" y="552.8828"/><rect fill="#FFFFFF" height="30.3516" style="stroke:#181818;stroke-width:1.0;" width="10" x="352.5" y="613.5859"/><rect fill="#FFFFFF" height="824.1406" style="stroke:#181818;stroke-width:1.0;" width="10" x="623.5" y="175.6641"/><rect fill="#FFFFFF" height="121.4063" style="stroke:#181818;stroke-width:1.0;" width="10" x="1210.5" y="236.3672"/><rect fill="#FFFFFF" height="60.7031" style="stroke:#181818;stroke-width:1.0;" width="10" x="1443.5" y="266.7188"/><polygon fill="#181818" points="335.5,110.9609,345.5,114.9609,335.5,118.9609,339.5,114.9609" style="stroke:#181818;stroke-width:1.0;"/><line style="stroke:#181818;stroke-width:1.0;" x1="72.5" x2="341.5" y1="114.9609" y2="114.9609"/><text fill="#000000" font-family="sans-serif" font-size="13" font-weight="bold" lengthAdjust="spacing" textLength="7" x="79.5" y="110.1045">1</text><text fill="#000000" font-family="sans-serif" font-size="13" lengthAdjust="spacing" textLength="149" x="90.5" y="110.1045">starts loading legacy data</text><polygon fill="#181818" points="83.5,141.3125,73.5,145.3125,83.5,149.3125,79.5,145.3125" style="stroke:#181818;stroke-width:1.0;"/><line style="stroke:#181818;stroke-width:1.0;stroke-dasharray:2.0,2.0;" x1="77.5" x2="351.5" y1="145.3125" y2="145.3125"/><text fill="#000000" font-family="sans-serif" font-size="13" font-weight="bold" lengthAdjust="spacing" textLength="7" x="89.5" y="140.4561">2</text><text fill="#000000" font-family="sans-serif" font-size="13" lengthAdjust="spacing" textLength="106" x="100.5" y="140.4561">requests File Path</text><polygon fill="#181818" points="335.5,171.6641,345.5,175.6641,335.5,179.6641,339.5,175.6641" style="stroke:#181818;stroke-width:1.0;"/><line style="stroke:#181818;stroke-width:1.0;" x1="72.5" x2="341.5" y1="175.6641" y2="175.6641"/><text fill="#000000" font-family="sans-serif" font-size="13" font-weight="bold" lengthAdjust="spacing" textLength="7" x="79.5" y="170.8076">3</text><text fill="#000000" font-family="sans-serif" font-size="13" lengthAdjust="spacing" textLength="151" x="90.5" y="170.8076">types File Path  (CSV file)</text><polygon fill="#181818" points="611.5,202.0156,621.5,206.0156,611.5,210.0156,615.5,206.0156" style="stroke:#181818;stroke-width:1.0;"/><line style="stroke:#181818;stroke-width:1.0;" x1="357.5" x2="617.5" y1="206.0156" y2="206.0156"/><text fill="#000000" font-family="sans-serif" font-size="13" font-weight="bold" lengthAdjust="spacing" textLength="7" x="364.5" y="201.1592">4</text><text fill="#000000" font-family="sans-serif" font-size="13" lengthAdjust="spacing" textLength="158" x="375.5" y="201.1592">regex = returnregex(filepath</text><polygon fill="#181818" points="611.5,232.3672,621.5,236.3672,611.5,240.3672,615.5,236.3672" style="stroke:#181818;stroke-width:1.0;"/><line style="stroke:#181818;stroke-width:1.0;" x1="357.5" x2="617.5" y1="236.3672" y2="236.3672"/><text fill="#000000" font-family="sans-serif" font-size="13" font-weight="bold" lengthAdjust="spacing" textLength="7" x="364.5" y="231.5107">5</text><text fill="#000000" font-family="sans-serif" font-size="13" lengthAdjust="spacing" textLength="140" x="375.5" y="231.5107">loadData(filepath, regex)</text><polygon fill="#181818" points="1198.5,262.7188,1208.5,266.7188,1198.5,270.7188,1202.5,266.7188" style="stroke:#181818;stroke-width:1.0;"/><line style="stroke:#181818;stroke-width:1.0;" x1="633.5" x2="1204.5" y1="266.7188" y2="266.7188"/><text fill="#000000" font-family="sans-serif" font-size="13" font-weight="bold" lengthAdjust="spacing" textLength="7" x="640.5" y="261.8623">6</text><text fill="#000000" font-family="sans-serif" font-size="13" lengthAdjust="spacing" textLength="140" x="651.5" y="261.8623">loadData(filepath, regex)</text><polygon fill="#181818" points="1431.5,293.0703,1441.5,297.0703,1431.5,301.0703,1435.5,297.0703" style="stroke:#181818;stroke-width:1.0;"/><line style="stroke:#181818;stroke-width:1.0;" x1="1220.5" x2="1437.5" y1="297.0703" y2="297.0703"/><text fill="#000000" font-family="sans-serif" font-size="13" font-weight="bold" lengthAdjust="spacing" textLength="7" x="1227.5" y="292.2139">7</text><text fill="#000000" font-family="sans-serif" font-size="13" lengthAdjust="spacing" textLength="167" x="1238.5" y="292.2139">StringToCalendar(arrivalDate)</text><polygon fill="#181818" points="1436.5,323.4219,1446.5,327.4219,1436.5,331.4219,1440.5,327.4219" style="stroke:#181818;stroke-width:1.0;"/><line style="stroke:#181818;stroke-width:1.0;" x1="1220.5" x2="1442.5" y1="327.4219" y2="327.4219"/><text fill="#000000" font-family="sans-serif" font-size="13" font-weight="bold" lengthAdjust="spacing" textLength="7" x="1227.5" y="322.5654">8</text><text fill="#000000" font-family="sans-serif" font-size="13" lengthAdjust="spacing" textLength="188" x="1238.5" y="322.5654">StringToCalendar(departureDate)</text><polygon fill="#181818" points="644.5,353.7734,634.5,357.7734,644.5,361.7734,640.5,357.7734" style="stroke:#181818;stroke-width:1.0;"/><line style="stroke:#181818;stroke-width:1.0;stroke-dasharray:2.0,2.0;" x1="638.5" x2="1214.5" y1="357.7734" y2="357.7734"/><text fill="#000000" font-family="sans-serif" font-size="13" font-weight="bold" lengthAdjust="spacing" textLength="7" x="650.5" y="352.917">9</text><text fill="#000000" font-family="sans-serif" font-size="13" lengthAdjust="spacing" textLength="542" x="661.5" y="352.917">arrayListToMatrix(ArrayList&lt;Calendar&gt; arrivalTime, ArrayList&lt;Calendar&gt; departureTime, int m)</text><polygon fill="#181818" points="1618.5,384.125,1628.5,388.125,1618.5,392.125,1622.5,388.125" style="stroke:#181818;stroke-width:1.0;"/><line style="stroke:#181818;stroke-width:1.0;" x1="633.5" x2="1624.5" y1="388.125" y2="388.125"/><text fill="#000000" font-family="sans-serif" font-size="13" font-weight="bold" lengthAdjust="spacing" textLength="14" x="640.5" y="383.2686">10</text><text fill="#000000" font-family="sans-serif" font-size="13" lengthAdjust="spacing" textLength="901" x="658.5" y="383.2686">legacydata = new LegacyData( SNSNumber,  VaccineName,  Dose,  LotNumber,  ScheduleDateTime,ArrivalDateTime,AdministrationDateTime,LeavingTime)</text><line style="stroke:#181818;stroke-width:1.0;" x1="633.5" x2="675.5" y1="418.4766" y2="418.4766"/><line style="stroke:#181818;stroke-width:1.0;" x1="675.5" x2="675.5" y1="418.4766" y2="431.4766"/><line style="stroke:#181818;stroke-width:1.0;" x1="634.5" x2="675.5" y1="431.4766" y2="431.4766"/><polygon fill="#181818" points="644.5,427.4766,634.5,431.4766,644.5,435.4766,640.5,431.4766" style="stroke:#181818;stroke-width:1.0;"/><text fill="#000000" font-family="sans-serif" font-size="13" font-weight="bold" lengthAdjust="spacing" textLength="14" x="640.5" y="413.6201">11</text><text fill="#000000" font-family="sans-serif" font-size="13" lengthAdjust="spacing" textLength="120" x="658.5" y="413.6201">validateLegacyData()</text><polygon fill="#181818" points="1526.5,457.8281,1536.5,461.8281,1526.5,465.8281,1530.5,461.8281" style="stroke:#181818;stroke-width:1.0;"/><line style="stroke:#181818;stroke-width:1.0;" x1="633.5" x2="1532.5" y1="461.8281" y2="461.8281"/><text fill="#000000" font-family="sans-serif" font-size="13" font-weight="bold" lengthAdjust="spacing" textLength="14" x="640.5" y="456.9717">12</text><text fill="#000000" font-family="sans-serif" font-size="13" lengthAdjust="spacing" textLength="166" x="658.5" y="456.9717">saveLegacyData(legacydata)</text><polygon fill="#181818" points="1772.5,488.1797,1782.5,492.1797,1772.5,496.1797,1776.5,492.1797" style="stroke:#181818;stroke-width:1.0;"/><line style="stroke:#181818;stroke-width:1.0;" x1="1538.5" x2="1778.5" y1="492.1797" y2="492.1797"/><text fill="#000000" font-family="sans-serif" font-size="13" font-weight="bold" lengthAdjust="spacing" textLength="14" x="1545.5" y="487.3232">13</text><text fill="#000000" font-family="sans-serif" font-size="13" lengthAdjust="spacing" textLength="187" x="1563.5" y="487.3232">saveLegacyDataList(legacydata)</text><polygon fill="#181818" points="83.5,518.5313,73.5,522.5313,83.5,526.5313,79.5,522.5313" style="stroke:#181818;stroke-width:1.0;"/><line style="stroke:#181818;stroke-width:1.0;stroke-dasharray:2.0,2.0;" x1="77.5" x2="346.5" y1="522.5313" y2="522.5313"/><text fill="#000000" font-family="sans-serif" font-size="13" font-weight="bold" lengthAdjust="spacing" textLength="14" x="89.5" y="517.6748">14</text><text fill="#000000" font-family="sans-serif" font-size="13" lengthAdjust="spacing" textLength="215" x="107.5" y="517.6748">shows data and asks for confirmation</text><polygon fill="#181818" points="340.5,548.8828,350.5,552.8828,340.5,556.8828,344.5,552.8828" style="stroke:#181818;stroke-width:1.0;"/><line style="stroke:#181818;stroke-width:1.0;" x1="72.5" x2="346.5" y1="552.8828" y2="552.8828"/><text fill="#000000" font-family="sans-serif" font-size="13" font-weight="bold" lengthAdjust="spacing" textLength="14" x="79.5" y="548.0264">15</text><text fill="#000000" font-family="sans-serif" font-size="13" lengthAdjust="spacing" textLength="78" x="97.5" y="548.0264">confirms data</text><polygon fill="#181818" points="83.5,579.2344,73.5,583.2344,83.5,587.2344,79.5,583.2344" style="stroke:#181818;stroke-width:1.0;"/><line style="stroke:#181818;stroke-width:1.0;stroke-dasharray:2.0,2.0;" x1="77.5" x2="346.5" y1="583.2344" y2="583.2344"/><text fill="#000000" font-family="sans-serif" font-size="13" font-weight="bold" lengthAdjust="spacing" textLength="14" x="89.5" y="578.3779">16</text><text fill="#000000" font-family="sans-serif" font-size="13" lengthAdjust="spacing" textLength="140" x="107.5" y="578.3779">requests sorting method</text><polygon fill="#181818" points="340.5,609.5859,350.5,613.5859,340.5,617.5859,344.5,613.5859" style="stroke:#181818;stroke-width:1.0;"/><line style="stroke:#181818;stroke-width:1.0;" x1="72.5" x2="346.5" y1="613.5859" y2="613.5859"/><text fill="#000000" font-family="sans-serif" font-size="13" font-weight="bold" lengthAdjust="spacing" textLength="14" x="79.5" y="608.7295">17</text><text fill="#000000" font-family="sans-serif" font-size="13" lengthAdjust="spacing" textLength="96" x="97.5" y="608.7295">chooses method</text><polygon fill="#181818" points="83.5,639.9375,73.5,643.9375,83.5,647.9375,79.5,643.9375" style="stroke:#181818;stroke-width:1.0;"/><line style="stroke:#181818;stroke-width:1.0;stroke-dasharray:2.0,2.0;" x1="77.5" x2="346.5" y1="643.9375" y2="643.9375"/><text fill="#000000" font-family="sans-serif" font-size="13" font-weight="bold" lengthAdjust="spacing" textLength="14" x="89.5" y="639.0811">18</text><text fill="#000000" font-family="sans-serif" font-size="13" lengthAdjust="spacing" textLength="193" x="107.5" y="639.0811">requests date by which to sort by</text><polygon fill="#181818" points="611.5,670.2891,621.5,674.2891,611.5,678.2891,615.5,674.2891" style="stroke:#181818;stroke-width:1.0;"/><line style="stroke:#181818;stroke-width:1.0;stroke-dasharray:2.0,2.0;" x1="357.5" x2="617.5" y1="674.2891" y2="674.2891"/><text fill="#000000" font-family="sans-serif" font-size="13" font-weight="bold" lengthAdjust="spacing" textLength="14" x="364.5" y="669.4326">19</text><text fill="#000000" font-family="sans-serif" font-size="13" lengthAdjust="spacing" textLength="224" x="382.5" y="669.4326">legacydatalist = ctrl.getlegacydatalist()</text><polygon fill="#181818" points="1526.5,700.6406,1536.5,704.6406,1526.5,708.6406,1530.5,704.6406" style="stroke:#181818;stroke-width:1.0;"/><line style="stroke:#181818;stroke-width:1.0;" x1="633.5" x2="1532.5" y1="704.6406" y2="704.6406"/><text fill="#000000" font-family="sans-serif" font-size="13" font-weight="bold" lengthAdjust="spacing" textLength="14" x="640.5" y="699.7842">20</text><text fill="#000000" font-family="sans-serif" font-size="13" lengthAdjust="spacing" textLength="106" x="658.5" y="699.7842">getlegacydatalist()</text><polygon fill="#181818" points="1772.5,730.9922,1782.5,734.9922,1772.5,738.9922,1776.5,734.9922" style="stroke:#181818;stroke-width:1.0;"/><line style="stroke:#181818;stroke-width:1.0;" x1="1538.5" x2="1778.5" y1="734.9922" y2="734.9922"/><text fill="#000000" font-family="sans-serif" font-size="13" font-weight="bold" lengthAdjust="spacing" textLength="14" x="1545.5" y="730.1357">21</text><text fill="#000000" font-family="sans-serif" font-size="13" lengthAdjust="spacing" textLength="204" x="1563.5" y="730.1357">saveLegacyDataList(legacydatalist)</text><polygon fill="#181818" points="1772.5,761.3438,1782.5,765.3438,1772.5,769.3438,1776.5,765.3438" style="stroke:#181818;stroke-width:1.0;"/><line style="stroke:#181818;stroke-width:1.0;" x1="1538.5" x2="1778.5" y1="765.3438" y2="765.3438"/><text fill="#000000" font-family="sans-serif" font-size="13" font-weight="bold" lengthAdjust="spacing" textLength="14" x="1545.5" y="760.4873">22</text><text fill="#000000" font-family="sans-serif" font-size="13" lengthAdjust="spacing" textLength="80" x="1563.5" y="760.4873">legacydatalist</text><line style="stroke:#181818;stroke-width:1.0;" x1="1784.5" x2="1826.5" y1="795.6953" y2="795.6953"/><line style="stroke:#181818;stroke-width:1.0;" x1="1826.5" x2="1826.5" y1="795.6953" y2="808.6953"/><line style="stroke:#181818;stroke-width:1.0;" x1="1785.5" x2="1826.5" y1="808.6953" y2="808.6953"/><polygon fill="#181818" points="1795.5,804.6953,1785.5,808.6953,1795.5,812.6953,1791.5,808.6953" style="stroke:#181818;stroke-width:1.0;"/><text fill="#000000" font-family="sans-serif" font-size="13" font-weight="bold" lengthAdjust="spacing" textLength="14" x="1791.5" y="790.8389">23</text><text fill="#000000" font-family="sans-serif" font-size="13" lengthAdjust="spacing" textLength="80" x="1809.5" y="790.8389">legacydatalist</text><polygon fill="#181818" points="1884.5,835.0469,1894.5,839.0469,1884.5,843.0469,1888.5,839.0469" style="stroke:#181818;stroke-width:1.0;"/><line style="stroke:#181818;stroke-width:1.0;" x1="633.5" x2="1890.5" y1="839.0469" y2="839.0469"/><text fill="#000000" font-family="sans-serif" font-size="13" font-weight="bold" lengthAdjust="spacing" textLength="14" x="640.5" y="834.1904">24</text><text fill="#000000" font-family="sans-serif" font-size="13" lengthAdjust="spacing" textLength="110" x="658.5" y="834.1904">sort(legacydatalist)</text><polygon fill="#181818" points="2076.5,865.3984,2086.5,869.3984,2076.5,873.3984,2080.5,869.3984" style="stroke:#181818;stroke-width:1.0;"/><line style="stroke:#181818;stroke-width:1.0;" x1="1896.5" x2="2082.5" y1="869.3984" y2="869.3984"/><text fill="#000000" font-family="sans-serif" font-size="13" font-weight="bold" lengthAdjust="spacing" textLength="14" x="1903.5" y="864.542">25</text><text fill="#000000" font-family="sans-serif" font-size="13" lengthAdjust="spacing" textLength="150" x="1921.5" y="864.542">bubbleSort(legacydatalist)</text><polygon fill="#181818" points="2148,895.75,2158,899.75,2148,903.75,2152,899.75" style="stroke:#181818;stroke-width:1.0;"/><line style="stroke:#181818;stroke-width:1.0;" x1="1896.5" x2="2154" y1="899.75" y2="899.75"/><text fill="#000000" font-family="sans-serif" font-size="13" font-weight="bold" lengthAdjust="spacing" textLength="14" x="1903.5" y="894.8936">26</text><text fill="#000000" font-family="sans-serif" font-size="13" lengthAdjust="spacing" textLength="143" x="1921.5" y="894.8936">quickSort(legacydatalist)</text><polygon fill="#181818" points="644.5,926.1016,634.5,930.1016,644.5,934.1016,640.5,930.1016" style="stroke:#181818;stroke-width:1.0;"/><line style="stroke:#181818;stroke-width:1.0;" x1="638.5" x2="1895.5" y1="930.1016" y2="930.1016"/><text fill="#000000" font-family="sans-serif" font-size="13" font-weight="bold" lengthAdjust="spacing" textLength="14" x="650.5" y="925.2451">27</text><text fill="#000000" font-family="sans-serif" font-size="13" lengthAdjust="spacing" textLength="80" x="668.5" y="925.2451">legacydatalist</text><polygon fill="#181818" points="368.5,956.4531,358.5,960.4531,368.5,964.4531,364.5,960.4531" style="stroke:#181818;stroke-width:1.0;"/><line style="stroke:#181818;stroke-width:1.0;" x1="362.5" x2="622.5" y1="960.4531" y2="960.4531"/><text fill="#000000" font-family="sans-serif" font-size="13" font-weight="bold" lengthAdjust="spacing" textLength="14" x="374.5" y="955.5967">28</text><text fill="#000000" font-family="sans-serif" font-size="13" lengthAdjust="spacing" textLength="182" x="392.5" y="955.5967">printLegacyData(legacydatalist)</text><polygon fill="#181818" points="83.5,986.8047,73.5,990.8047,83.5,994.8047,79.5,990.8047" style="stroke:#181818;stroke-width:1.0;"/><line style="stroke:#181818;stroke-width:1.0;stroke-dasharray:2.0,2.0;" x1="77.5" x2="346.5" y1="990.8047" y2="990.8047"/><text fill="#000000" font-family="sans-serif" font-size="13" font-weight="bold" lengthAdjust="spacing" textLength="14" x="89.5" y="985.9482">29</text><text fill="#000000" font-family="sans-serif" font-size="13" lengthAdjust="spacing" textLength="233" x="107.5" y="985.9482">shows data and informs user of success</text><!--MD5=[80f292c96171dafb52c88b6eab7a0b4d]
@startuml
'https://plantuml.com/sequence-diagram

autonumber
actor "Center coordinator" as CC

participant ":\nLegacyDataUIUI" as UI
participant ":\nLegacyDataController" as CTRL
participant ":\nCSVConverter" as FILE
participant ":\nDateParser" as DATE
participant ":\nCompany" as COM
participant ":\nLegacyData" as LEG
participant ":\nLegacyDataStore" as STORE
participant ":\nSort" as SORT

activate CC
CC -> UI : starts loading legacy data
activate UI
UI - -> CC : requests File Path
deactivate UI
CC-> UI : types File Path  (CSV file)

activate UI
activate CTRL
UI -> CTRL : regex = returnregex(filepath
UI -> CTRL : loadData(filepath, regex)
activate FILE
CTRL -> FILE : loadData(filepath, regex)
activate  DATE
FILE-> DATE : StringToCalendar(arrivalDate)
FILE-> DATE : StringToCalendar(departureDate)
deactivate DATE
FILE - -> CTRL :arrayListToMatrix(ArrayList<Calendar> arrivalTime, ArrayList<Calendar> departureTime, int m)
deactivate FILE
CTRL -> LEG : legacydata = new LegacyData( SNSNumber,  VaccineName,  Dose,  LotNumber,  ScheduleDateTime,ArrivalDateTime,AdministrationDateTime,LeavingTime)
CTRL -> CTRL : validateLegacyData()
CTRL -> COM : saveLegacyData(legacydata)
COM -> STORE : saveLegacyDataList(legacydata)
activate UI
UI - -> CC : shows data and asks for confirmation
deactivate UI
CC -> UI : confirms data
activate UI
UI - -> CC: requests sorting method
deactivate UI
CC -> UI : chooses method
activate UI
UI - -> CC : requests date by which to sort by
deactivate UI
UI - -> CTRL : legacydatalist = ctrl.getlegacydatalist()
CTRL -> COM :getlegacydatalist()
COM -> STORE : saveLegacyDataList(legacydatalist)
COM -> STORE : legacydatalist
STORE -> STORE : legacydatalist
CTRL -> SORT : sort(legacydatalist)
SORT -> BUBBLE : bubbleSort(legacydatalist)
SORT -> QUICK : quickSort(legacydatalist)
SORT -> CTRL : legacydatalist
CTRL -> UI : printLegacyData(legacydatalist)
UI - -> CC : shows data and informs user of success

@enduml

@startuml

autonumber
actor "Center coordinator" as CC

participant ":\nLegacyDataUIUI" as UI
participant ":\nLegacyDataController" as CTRL
participant ":\nCSVConverter" as FILE
participant ":\nDateParser" as DATE
participant ":\nCompany" as COM
participant ":\nLegacyData" as LEG
participant ":\nLegacyDataStore" as STORE
participant ":\nSort" as SORT

activate CC
CC -> UI : starts loading legacy data
activate UI
UI - -> CC : requests File Path
deactivate UI
CC-> UI : types File Path  (CSV file)

activate UI
activate CTRL
UI -> CTRL : regex = returnregex(filepath
UI -> CTRL : loadData(filepath, regex)
activate FILE
CTRL -> FILE : loadData(filepath, regex)
activate  DATE
FILE-> DATE : StringToCalendar(arrivalDate)
FILE-> DATE : StringToCalendar(departureDate)
deactivate DATE
FILE - -> CTRL :arrayListToMatrix(ArrayList<Calendar> arrivalTime, ArrayList<Calendar> departureTime, int m)
deactivate FILE
CTRL -> LEG : legacydata = new LegacyData( SNSNumber,  VaccineName,  Dose,  LotNumber,  ScheduleDateTime,ArrivalDateTime,AdministrationDateTime,LeavingTime)
CTRL -> CTRL : validateLegacyData()
CTRL -> COM : saveLegacyData(legacydata)
COM -> STORE : saveLegacyDataList(legacydata)
activate UI
UI - -> CC : shows data and asks for confirmation
deactivate UI
CC -> UI : confirms data
activate UI
UI - -> CC: requests sorting method
deactivate UI
CC -> UI : chooses method
activate UI
UI - -> CC : requests date by which to sort by
deactivate UI
UI - -> CTRL : legacydatalist = ctrl.getlegacydatalist()
CTRL -> COM :getlegacydatalist()
COM -> STORE : saveLegacyDataList(legacydatalist)
COM -> STORE : legacydatalist
STORE -> STORE : legacydatalist
CTRL -> SORT : sort(legacydatalist)
SORT -> BUBBLE : bubbleSort(legacydatalist)
SORT -> QUICK : quickSort(legacydatalist)
SORT -> CTRL : legacydatalist
CTRL -> UI : printLegacyData(legacydatalist)
UI - -> CC : shows data and informs user of success

@enduml

PlantUML version 1.2022.5(Sat Apr 30 11:55:52 BST 2022)
(GPL source distribution)
Java Runtime: OpenJDK Runtime Environment
JVM: OpenJDK 64-Bit Server VM
Default Encoding: Cp1252
Language: pt
Country: PT
--></g></svg>