<?xml version="1.0" encoding="UTF-8" standalone="no"?><svg xmlns="http://www.w3.org/2000/svg" xmlns:xlink="http://www.w3.org/1999/xlink" contentStyleType="text/css" height="255px" preserveAspectRatio="none" style="width:603px;height:255px;background:#FFFFFF;" version="1.1" viewBox="0 0 603 255" width="603px" zoomAndPan="magnify"><defs/><g><!--MD5=[02e4b9b7573f1156f41e60aa5b4e25a4]
class Company--><g id="elem_Company"><rect codeLine="4" fill="#F1F1F1" height="65.6094" id="Company" rx="2.5" ry="2.5" style="stroke:#181818;stroke-width:0.5;" width="99" x="7" y="95"/><ellipse cx="25.15" cy="111" fill="#ADD1B2" rx="11" ry="11" style="stroke:#181818;stroke-width:1.0;"/><path d="M27.15,107.5 Q27.3531,107 27.5875,106.75 Q27.8219,106.5 28.0875,106.5 Q28.5563,106.5 28.8531,106.7813 Q29.15,107.0625 29.15,107.7188 L29.15,109.2813 Q29.15,109.9375 28.8688,110.2188 Q28.5875,110.5 28.15,110.5 Q27.7594,110.5 27.5094,110.3281 Q27.2594,110.1563 27.15,109.7031 Q27.1031,109.3906 26.9313,109.2188 Q26.6188,108.8906 26.0563,108.7031 Q25.4938,108.5 24.9313,108.5 Q24.2281,108.5 23.6344,108.7813 Q23.0563,109.0625 22.6031,109.6875 Q22.15,110.3125 22.15,111.1719 L22.15,112.0938 Q22.15,113.125 22.9938,113.8125 Q23.8375,114.5 25.3375,114.5 Q26.2281,114.5 26.8531,114.2969 Q27.2125,114.1875 27.6188,113.8281 Q27.8844,113.625 28.025,113.5625 Q28.1656,113.5 28.3375,113.5 Q28.6656,113.5 28.9,113.7656 Q29.15,114.0156 29.15,114.375 Q29.15,114.7188 28.8063,115.125 Q28.3063,115.7188 27.5094,116.0469 Q26.4625,116.5 25.1813,116.5 Q23.6813,116.5 22.4781,115.9063 Q21.5094,115.4375 20.8219,114.4219 Q20.15,113.4063 20.15,112.2031 L20.15,111.1094 Q20.15,109.8594 20.7438,108.7656 Q21.3531,107.6719 22.4,107.0938 Q23.4625,106.5 24.65,106.5 Q25.3688,106.5 25.9938,106.75 Q26.6188,107 27.15,107.5 Z " fill="#000000"/><text fill="#000000" font-family="sans-serif" font-size="14" lengthAdjust="spacing" textLength="60" x="39.85" y="116.7285">Company</text><line style="stroke:#181818;stroke-width:0.5;" x1="8" x2="105" y1="127" y2="127"/><rect fill="none" height="6" style="stroke:#C82930;stroke-width:1.0;" width="6" x="15" y="135"/><text fill="#000000" font-family="sans-serif" font-size="14" lengthAdjust="spacing" textLength="73" x="27" y="145.5332">designation</text><line style="stroke:#181818;stroke-width:0.5;" x1="8" x2="105" y1="152.6094" y2="152.6094"/></g><!--MD5=[de60e6d4f424ae4d0522096f76a59010]
class VaccinationCenter--><g id="elem_VaccinationCenter"><rect codeLine="8" fill="#F1F1F1" height="241.7031" id="VaccinationCenter" rx="2.5" ry="2.5" style="stroke:#181818;stroke-width:0.5;" width="148" x="189" y="7"/><ellipse cx="204" cy="23" fill="#ADD1B2" rx="11" ry="11" style="stroke:#181818;stroke-width:1.0;"/><path d="M206,19.5 Q206.2031,19 206.4375,18.75 Q206.6719,18.5 206.9375,18.5 Q207.4063,18.5 207.7031,18.7813 Q208,19.0625 208,19.7188 L208,21.2813 Q208,21.9375 207.7188,22.2188 Q207.4375,22.5 207,22.5 Q206.6094,22.5 206.3594,22.3281 Q206.1094,22.1563 206,21.7031 Q205.9531,21.3906 205.7813,21.2188 Q205.4688,20.8906 204.9063,20.7031 Q204.3438,20.5 203.7813,20.5 Q203.0781,20.5 202.4844,20.7813 Q201.9063,21.0625 201.4531,21.6875 Q201,22.3125 201,23.1719 L201,24.0938 Q201,25.125 201.8438,25.8125 Q202.6875,26.5 204.1875,26.5 Q205.0781,26.5 205.7031,26.2969 Q206.0625,26.1875 206.4688,25.8281 Q206.7344,25.625 206.875,25.5625 Q207.0156,25.5 207.1875,25.5 Q207.5156,25.5 207.75,25.7656 Q208,26.0156 208,26.375 Q208,26.7188 207.6563,27.125 Q207.1563,27.7188 206.3594,28.0469 Q205.3125,28.5 204.0313,28.5 Q202.5313,28.5 201.3281,27.9063 Q200.3594,27.4375 199.6719,26.4219 Q199,25.4063 199,24.2031 L199,23.1094 Q199,21.8594 199.5938,20.7656 Q200.2031,19.6719 201.25,19.0938 Q202.3125,18.5 203.5,18.5 Q204.2188,18.5 204.8438,18.75 Q205.4688,19 206,19.5 Z " fill="#000000"/><text fill="#000000" font-family="sans-serif" font-size="14" lengthAdjust="spacing" textLength="116" x="218" y="28.7285">VaccinationCenter</text><line style="stroke:#181818;stroke-width:0.5;" x1="190" x2="336" y1="39" y2="39"/><rect fill="none" height="6" style="stroke:#C82930;stroke-width:1.0;" width="6" x="197" y="47"/><text fill="#000000" font-family="sans-serif" font-size="14" lengthAdjust="spacing" textLength="35" x="209" y="57.5332">name</text><rect fill="none" height="6" style="stroke:#C82930;stroke-width:1.0;" width="6" x="197" y="64.6094"/><text fill="#000000" font-family="sans-serif" font-size="14" lengthAdjust="spacing" textLength="51" x="209" y="75.1426">address</text><rect fill="none" height="6" style="stroke:#C82930;stroke-width:1.0;" width="6" x="197" y="82.2188"/><text fill="#000000" font-family="sans-serif" font-size="14" lengthAdjust="spacing" textLength="85" x="209" y="92.752">emailAddress</text><rect fill="none" height="6" style="stroke:#C82930;stroke-width:1.0;" width="6" x="197" y="99.8281"/><text fill="#000000" font-family="sans-serif" font-size="14" lengthAdjust="spacing" textLength="89" x="209" y="110.3613">phoneNumber</text><rect fill="none" height="6" style="stroke:#C82930;stroke-width:1.0;" width="6" x="197" y="117.4375"/><text fill="#000000" font-family="sans-serif" font-size="14" lengthAdjust="spacing" textLength="67" x="209" y="127.9707">faxNumber</text><rect fill="none" height="6" style="stroke:#C82930;stroke-width:1.0;" width="6" x="197" y="135.0469"/><text fill="#000000" font-family="sans-serif" font-size="14" lengthAdjust="spacing" textLength="99" x="209" y="145.5801">websiteAddress</text><rect fill="none" height="6" style="stroke:#C82930;stroke-width:1.0;" width="6" x="197" y="152.6563"/><text fill="#000000" font-family="sans-serif" font-size="14" lengthAdjust="spacing" textLength="88" x="209" y="163.1895">openingHours</text><rect fill="none" height="6" style="stroke:#C82930;stroke-width:1.0;" width="6" x="197" y="170.2656"/><text fill="#000000" font-family="sans-serif" font-size="14" lengthAdjust="spacing" textLength="81" x="209" y="180.7988">closingHours</text><rect fill="none" height="6" style="stroke:#C82930;stroke-width:1.0;" width="6" x="197" y="187.875"/><text fill="#000000" font-family="sans-serif" font-size="14" lengthAdjust="spacing" textLength="76" x="209" y="198.4082">slotDuration</text><rect fill="none" height="6" style="stroke:#C82930;stroke-width:1.0;" width="6" x="197" y="205.4844"/><text fill="#000000" font-family="sans-serif" font-size="14" lengthAdjust="spacing" textLength="82" x="209" y="216.0176">maxVaccines</text><rect fill="none" height="6" style="stroke:#C82930;stroke-width:1.0;" width="6" x="197" y="223.0938"/><text fill="#000000" font-family="sans-serif" font-size="14" lengthAdjust="spacing" textLength="72" x="209" y="233.627">coordinator</text><line style="stroke:#181818;stroke-width:0.5;" x1="190" x2="336" y1="240.7031" y2="240.7031"/></g><!--MD5=[aaa7e27c4ec43917c82a021675d2c87a]
class WaitingRoom--><g id="elem_WaitingRoom"><rect codeLine="21" fill="#F1F1F1" height="153.6563" id="WaitingRoom" rx="2.5" ry="2.5" style="stroke:#181818;stroke-width:0.5;" width="176" x="420" y="51"/><ellipse cx="462" cy="67" fill="#ADD1B2" rx="11" ry="11" style="stroke:#181818;stroke-width:1.0;"/><path d="M464,63.5 Q464.2031,63 464.4375,62.75 Q464.6719,62.5 464.9375,62.5 Q465.4063,62.5 465.7031,62.7813 Q466,63.0625 466,63.7188 L466,65.2813 Q466,65.9375 465.7188,66.2188 Q465.4375,66.5 465,66.5 Q464.6094,66.5 464.3594,66.3281 Q464.1094,66.1563 464,65.7031 Q463.9531,65.3906 463.7813,65.2188 Q463.4688,64.8906 462.9063,64.7031 Q462.3438,64.5 461.7813,64.5 Q461.0781,64.5 460.4844,64.7813 Q459.9063,65.0625 459.4531,65.6875 Q459,66.3125 459,67.1719 L459,68.0938 Q459,69.125 459.8438,69.8125 Q460.6875,70.5 462.1875,70.5 Q463.0781,70.5 463.7031,70.2969 Q464.0625,70.1875 464.4688,69.8281 Q464.7344,69.625 464.875,69.5625 Q465.0156,69.5 465.1875,69.5 Q465.5156,69.5 465.75,69.7656 Q466,70.0156 466,70.375 Q466,70.7188 465.6563,71.125 Q465.1563,71.7188 464.3594,72.0469 Q463.3125,72.5 462.0313,72.5 Q460.5313,72.5 459.3281,71.9063 Q458.3594,71.4375 457.6719,70.4219 Q457,69.4063 457,68.2031 L457,67.1094 Q457,65.8594 457.5938,64.7656 Q458.2031,63.6719 459.25,63.0938 Q460.3125,62.5 461.5,62.5 Q462.2188,62.5 462.8438,62.75 Q463.4688,63 464,63.5 Z " fill="#000000"/><text fill="#000000" font-family="sans-serif" font-size="14" lengthAdjust="spacing" textLength="84" x="482" y="72.7285">WaitingRoom</text><line style="stroke:#181818;stroke-width:0.5;" x1="421" x2="595" y1="83" y2="83"/><rect fill="none" height="6" style="stroke:#C82930;stroke-width:1.0;" width="6" x="428" y="91"/><text fill="#000000" font-family="sans-serif" font-size="14" lengthAdjust="spacing" textLength="69" x="440" y="101.5332">arrivalDate</text><rect fill="none" height="6" style="stroke:#C82930;stroke-width:1.0;" width="6" x="428" y="108.6094"/><text fill="#000000" font-family="sans-serif" font-size="14" lengthAdjust="spacing" textLength="69" x="440" y="119.1426">arrivalHour</text><rect fill="none" height="6" style="stroke:#C82930;stroke-width:1.0;" width="6" x="428" y="126.2188"/><text fill="#000000" font-family="sans-serif" font-size="14" lengthAdjust="spacing" textLength="100" x="440" y="136.752">snsUserNumber</text><rect fill="none" height="6" style="stroke:#C82930;stroke-width:1.0;" width="6" x="428" y="143.8281"/><text fill="#000000" font-family="sans-serif" font-size="14" lengthAdjust="spacing" textLength="95" x="440" y="154.3613">scheduledHour</text><rect fill="none" height="6" style="stroke:#C82930;stroke-width:1.0;" width="6" x="428" y="161.4375"/><text fill="#000000" font-family="sans-serif" font-size="14" lengthAdjust="spacing" textLength="150" x="440" y="171.9707">vaccinationCenterName</text><rect fill="none" height="6" style="stroke:#C82930;stroke-width:1.0;" width="6" x="428" y="179.0469"/><text fill="#000000" font-family="sans-serif" font-size="14" lengthAdjust="spacing" textLength="84" x="440" y="189.5801">vaccineName</text><line style="stroke:#181818;stroke-width:0.5;" x1="421" x2="595" y1="196.6563" y2="196.6563"/></g><!--MD5=[eebe9b198877275d05dd12630ed9e401]
link Company to VaccinationCenter--><g id="link_Company_VaccinationCenter"><path codeLine="31" d="M106.22,128 C129.37,128 157.62,128 183.67,128 " fill="none" id="Company-to-VaccinationCenter" style="stroke:#181818;stroke-width:1.0;"/><polygon fill="#181818" points="188.84,128,179.84,124,183.84,128,179.84,132,188.84,128" style="stroke:#181818;stroke-width:1.0;"/><text fill="#000000" font-family="sans-serif" font-size="13" lengthAdjust="spacing" textLength="21" x="137" y="124.4951">has</text><text fill="#000000" font-family="sans-serif" font-size="13" lengthAdjust="spacing" textLength="7" x="114.0367" y="142.7246">1</text><text fill="#000000" font-family="sans-serif" font-size="13" lengthAdjust="spacing" textLength="5" x="175.9344" y="142.3536">*</text></g><!--MD5=[de78e1efbcb885042a1719c3cec87a53]
link VaccinationCenter to WaitingRoom--><g id="link_VaccinationCenter_WaitingRoom"><path codeLine="32" d="M337.24,128 C361.61,128 389.07,128 414.69,128 " fill="none" id="VaccinationCenter-to-WaitingRoom" style="stroke:#181818;stroke-width:1.0;"/><polygon fill="#181818" points="419.78,128,410.78,124,414.78,128,410.78,132,419.78,128" style="stroke:#181818;stroke-width:1.0;"/><text fill="#000000" font-family="sans-serif" font-size="13" lengthAdjust="spacing" textLength="21" x="368" y="124.4951">has</text><text fill="#000000" font-family="sans-serif" font-size="13" lengthAdjust="spacing" textLength="7" x="344.8925" y="142.3145">1</text><text fill="#000000" font-family="sans-serif" font-size="13" lengthAdjust="spacing" textLength="7" x="404.8978" y="142.2125">1</text></g><!--MD5=[cb9f6343eddeee6e324d41b1da5fb9e2]
@startuml
'https://plantuml.com/class-diagram
left to right direction

class Company{
-designation
}

class VaccinationCenter{
  - name
  - address
  - emailAddress
  - phoneNumber
  - faxNumber
  - websiteAddress
  - openingHours
  - closingHours
  - slotDuration
  - maxVaccines
  - coordinator
}
class WaitingRoom{
  -arrivalDate
  -arrivalHour
  -snsUserNumber
  -scheduledHour
  -vaccinationCenterName
  -vaccineName
 }
  

Company "1" - -> "*" VaccinationCenter : has
VaccinationCenter "1" - -> "1" WaitingRoom : has

@enduml

@startuml
left to right direction

class Company{
-designation
}

class VaccinationCenter{
  - name
  - address
  - emailAddress
  - phoneNumber
  - faxNumber
  - websiteAddress
  - openingHours
  - closingHours
  - slotDuration
  - maxVaccines
  - coordinator
}
class WaitingRoom{
  -arrivalDate
  -arrivalHour
  -snsUserNumber
  -scheduledHour
  -vaccinationCenterName
  -vaccineName
 }
  

Company "1" - -> "*" VaccinationCenter : has
VaccinationCenter "1" - -> "1" WaitingRoom : has

@enduml

PlantUML version 1.2022.5(Sat Apr 30 11:55:52 BST 2022)
(GPL source distribution)
Java Runtime: OpenJDK Runtime Environment
JVM: OpenJDK 64-Bit Server VM
Default Encoding: Cp1252
Language: en
Country: US
--></g></svg>