<?xml version="1.0" encoding="UTF-8" standalone="no"?><svg xmlns="http://www.w3.org/2000/svg" xmlns:xlink="http://www.w3.org/1999/xlink" contentStyleType="text/css" height="570px" preserveAspectRatio="none" style="width:995px;height:570px;background:#FFFFFF;" version="1.1" viewBox="0 0 995 570" width="995px" zoomAndPan="magnify"><defs/><g><rect fill="#FFFFFF" height="386.8672" style="stroke:#181818;stroke-width:1.0;" width="10" x="22.5" y="92.6094"/><rect fill="#FFFFFF" height="30.3516" style="stroke:#181818;stroke-width:1.0;" width="10" x="424.5" y="114.9609"/><rect fill="#FFFFFF" height="294.8125" style="stroke:#181818;stroke-width:1.0;" width="10" x="424.5" y="175.6641"/><rect fill="#FFFFFF" height="264.4609" style="stroke:#181818;stroke-width:1.0;" width="10" x="664.5" y="206.0156"/><line style="stroke:#181818;stroke-width:0.5;stroke-dasharray:5.0,5.0;" x1="27" x2="27" y1="82.6094" y2="488.4766"/><line style="stroke:#181818;stroke-width:0.5;stroke-dasharray:5.0,5.0;" x1="429" x2="429" y1="82.6094" y2="488.4766"/><line style="stroke:#181818;stroke-width:0.5;stroke-dasharray:5.0,5.0;" x1="669" x2="669" y1="82.6094" y2="488.4766"/><line style="stroke:#181818;stroke-width:0.5;stroke-dasharray:5.0,5.0;" x1="926" x2="926" y1="82.6094" y2="488.4766"/><text fill="#000000" font-family="sans-serif" font-size="14" lengthAdjust="spacing" textLength="39" x="5" y="79.5332">Admin</text><ellipse cx="27.5" cy="13.5" fill="#E2E2F0" rx="8" ry="8" style="stroke:#181818;stroke-width:0.5;"/><path d="M27.5,21.5 L27.5,48.5 M14.5,29.5 L40.5,29.5 M27.5,48.5 L14.5,63.5 M27.5,48.5 L40.5,63.5 " fill="none" style="stroke:#181818;stroke-width:0.5;"/><text fill="#000000" font-family="sans-serif" font-size="14" lengthAdjust="spacing" textLength="39" x="5" y="502.0098">Admin</text><ellipse cx="27.5" cy="513.5859" fill="#E2E2F0" rx="8" ry="8" style="stroke:#181818;stroke-width:0.5;"/><path d="M27.5,521.5859 L27.5,548.5859 M14.5,529.5859 L40.5,529.5859 M27.5,548.5859 L14.5,563.5859 M27.5,548.5859 L40.5,563.5859 " fill="none" style="stroke:#181818;stroke-width:0.5;"/><rect fill="#E2E2F0" height="31.6094" rx="2.5" ry="2.5" style="stroke:#181818;stroke-width:0.5;" width="125" x="367" y="50"/><text fill="#000000" font-family="sans-serif" font-size="14" lengthAdjust="spacing" textLength="111" x="374" y="71.5332">: ListEmployeesUI</text><rect fill="#E2E2F0" height="31.6094" rx="2.5" ry="2.5" style="stroke:#181818;stroke-width:0.5;" width="125" x="367" y="487.4766"/><text fill="#000000" font-family="sans-serif" font-size="14" lengthAdjust="spacing" textLength="111" x="374" y="509.0098">: ListEmployeesUI</text><rect fill="#E2E2F0" height="31.6094" rx="2.5" ry="2.5" style="stroke:#181818;stroke-width:0.5;" width="175" x="582" y="50"/><text fill="#000000" font-family="sans-serif" font-size="14" lengthAdjust="spacing" textLength="161" x="589" y="71.5332">: ListEmployeesController</text><rect fill="#E2E2F0" height="31.6094" rx="2.5" ry="2.5" style="stroke:#181818;stroke-width:0.5;" width="175" x="582" y="487.4766"/><text fill="#000000" font-family="sans-serif" font-size="14" lengthAdjust="spacing" textLength="161" x="589" y="509.0098">: ListEmployeesController</text><rect fill="#E2E2F0" height="31.6094" rx="2.5" ry="2.5" style="stroke:#181818;stroke-width:0.5;" width="125" x="864" y="50"/><text fill="#000000" font-family="sans-serif" font-size="14" lengthAdjust="spacing" textLength="111" x="871" y="71.5332">: EmployeesStore</text><rect fill="#E2E2F0" height="31.6094" rx="2.5" ry="2.5" style="stroke:#181818;stroke-width:0.5;" width="125" x="864" y="487.4766"/><text fill="#000000" font-family="sans-serif" font-size="14" lengthAdjust="spacing" textLength="111" x="871" y="509.0098">: EmployeesStore</text><rect fill="#FFFFFF" height="386.8672" style="stroke:#181818;stroke-width:1.0;" width="10" x="22.5" y="92.6094"/><rect fill="#FFFFFF" height="30.3516" style="stroke:#181818;stroke-width:1.0;" width="10" x="424.5" y="114.9609"/><rect fill="#FFFFFF" height="294.8125" style="stroke:#181818;stroke-width:1.0;" width="10" x="424.5" y="175.6641"/><rect fill="#FFFFFF" height="264.4609" style="stroke:#181818;stroke-width:1.0;" width="10" x="664.5" y="206.0156"/><polygon fill="#181818" points="412.5,110.9609,422.5,114.9609,412.5,118.9609,416.5,114.9609" style="stroke:#181818;stroke-width:1.0;"/><line style="stroke:#181818;stroke-width:1.0;" x1="32.5" x2="418.5" y1="114.9609" y2="114.9609"/><text fill="#000000" font-family="sans-serif" font-size="13" font-weight="bold" lengthAdjust="spacing" textLength="7" x="39.5" y="110.1045">1</text><text fill="#000000" font-family="sans-serif" font-size="13" lengthAdjust="spacing" textLength="362" x="50.5" y="110.1045">starts operation of asking for list of employees with a given role</text><polygon fill="#181818" points="43.5,141.3125,33.5,145.3125,43.5,149.3125,39.5,145.3125" style="stroke:#181818;stroke-width:1.0;"/><line style="stroke:#181818;stroke-width:1.0;stroke-dasharray:2.0,2.0;" x1="37.5" x2="428.5" y1="145.3125" y2="145.3125"/><text fill="#000000" font-family="sans-serif" font-size="13" font-weight="bold" lengthAdjust="spacing" textLength="7" x="49.5" y="140.4561">2</text><text fill="#000000" font-family="sans-serif" font-size="13" lengthAdjust="spacing" textLength="127" x="60.5" y="140.4561">requests role (opt :int)</text><polygon fill="#181818" points="412.5,171.6641,422.5,175.6641,412.5,179.6641,416.5,175.6641" style="stroke:#181818;stroke-width:1.0;"/><line style="stroke:#181818;stroke-width:1.0;" x1="32.5" x2="418.5" y1="175.6641" y2="175.6641"/><text fill="#000000" font-family="sans-serif" font-size="13" font-weight="bold" lengthAdjust="spacing" textLength="7" x="39.5" y="170.8076">3</text><text fill="#000000" font-family="sans-serif" font-size="13" lengthAdjust="spacing" textLength="122" x="50.5" y="170.8076">types requested data</text><polygon fill="#181818" points="652.5,202.0156,662.5,206.0156,652.5,210.0156,656.5,206.0156" style="stroke:#181818;stroke-width:1.0;"/><line style="stroke:#181818;stroke-width:1.0;" x1="434.5" x2="658.5" y1="206.0156" y2="206.0156"/><text fill="#000000" font-family="sans-serif" font-size="13" font-weight="bold" lengthAdjust="spacing" textLength="7" x="441.5" y="201.1592">4</text><text fill="#000000" font-family="sans-serif" font-size="13" lengthAdjust="spacing" textLength="148" x="452.5" y="201.1592">ctrl.redirectToList(opt :int)</text><line style="stroke:#181818;stroke-width:1.0;" x1="674.5" x2="716.5" y1="236.3672" y2="236.3672"/><line style="stroke:#181818;stroke-width:1.0;" x1="716.5" x2="716.5" y1="236.3672" y2="249.3672"/><line style="stroke:#181818;stroke-width:1.0;" x1="675.5" x2="716.5" y1="249.3672" y2="249.3672"/><polygon fill="#181818" points="685.5,245.3672,675.5,249.3672,685.5,253.3672,681.5,249.3672" style="stroke:#181818;stroke-width:1.0;"/><text fill="#000000" font-family="sans-serif" font-size="13" font-weight="bold" lengthAdjust="spacing" textLength="7" x="681.5" y="231.5107">5</text><text fill="#000000" font-family="sans-serif" font-size="13" lengthAdjust="spacing" textLength="126" x="692.5" y="231.5107">getReceptionistsList()</text><line style="stroke:#181818;stroke-width:1.0;" x1="674.5" x2="716.5" y1="279.7188" y2="279.7188"/><line style="stroke:#181818;stroke-width:1.0;" x1="716.5" x2="716.5" y1="279.7188" y2="292.7188"/><line style="stroke:#181818;stroke-width:1.0;" x1="675.5" x2="716.5" y1="292.7188" y2="292.7188"/><polygon fill="#181818" points="685.5,288.7188,675.5,292.7188,685.5,296.7188,681.5,292.7188" style="stroke:#181818;stroke-width:1.0;"/><text fill="#000000" font-family="sans-serif" font-size="13" font-weight="bold" lengthAdjust="spacing" textLength="7" x="681.5" y="274.8623">6</text><text fill="#000000" font-family="sans-serif" font-size="13" lengthAdjust="spacing" textLength="81" x="692.5" y="274.8623">getNurseList()</text><line style="stroke:#181818;stroke-width:1.0;" x1="674.5" x2="716.5" y1="323.0703" y2="323.0703"/><line style="stroke:#181818;stroke-width:1.0;" x1="716.5" x2="716.5" y1="323.0703" y2="336.0703"/><line style="stroke:#181818;stroke-width:1.0;" x1="675.5" x2="716.5" y1="336.0703" y2="336.0703"/><polygon fill="#181818" points="685.5,332.0703,675.5,336.0703,685.5,340.0703,681.5,336.0703" style="stroke:#181818;stroke-width:1.0;"/><text fill="#000000" font-family="sans-serif" font-size="13" font-weight="bold" lengthAdjust="spacing" textLength="7" x="681.5" y="318.2139">7</text><text fill="#000000" font-family="sans-serif" font-size="13" lengthAdjust="spacing" textLength="151" x="692.5" y="318.2139">getCenterCoordinatorList()</text><line style="stroke:#181818;stroke-width:1.0;" x1="674.5" x2="716.5" y1="366.4219" y2="366.4219"/><line style="stroke:#181818;stroke-width:1.0;" x1="716.5" x2="716.5" y1="366.4219" y2="379.4219"/><line style="stroke:#181818;stroke-width:1.0;" x1="675.5" x2="716.5" y1="379.4219" y2="379.4219"/><polygon fill="#181818" points="685.5,375.4219,675.5,379.4219,685.5,383.4219,681.5,379.4219" style="stroke:#181818;stroke-width:1.0;"/><text fill="#000000" font-family="sans-serif" font-size="13" font-weight="bold" lengthAdjust="spacing" textLength="7" x="681.5" y="361.5654">8</text><text fill="#000000" font-family="sans-serif" font-size="13" lengthAdjust="spacing" textLength="41" x="692.5" y="361.5654">getAll()</text><polygon fill="#181818" points="685.5,405.7734,675.5,409.7734,685.5,413.7734,681.5,409.7734" style="stroke:#181818;stroke-width:1.0;"/><line style="stroke:#181818;stroke-width:1.0;stroke-dasharray:2.0,2.0;" x1="679.5" x2="925.5" y1="409.7734" y2="409.7734"/><text fill="#000000" font-family="sans-serif" font-size="13" font-weight="bold" lengthAdjust="spacing" textLength="7" x="691.5" y="404.917">9</text><text fill="#000000" font-family="sans-serif" font-size="13" lengthAdjust="spacing" textLength="217" x="702.5" y="404.917">returns list of employees to be filtered</text><polygon fill="#181818" points="445.5,436.125,435.5,440.125,445.5,444.125,441.5,440.125" style="stroke:#181818;stroke-width:1.0;"/><line style="stroke:#181818;stroke-width:1.0;stroke-dasharray:2.0,2.0;" x1="439.5" x2="663.5" y1="440.125" y2="440.125"/><text fill="#000000" font-family="sans-serif" font-size="13" font-weight="bold" lengthAdjust="spacing" textLength="14" x="451.5" y="435.2686">10</text><text fill="#000000" font-family="sans-serif" font-size="13" lengthAdjust="spacing" textLength="188" x="469.5" y="435.2686">returns list of employees desired</text><polygon fill="#181818" points="43.5,466.4766,33.5,470.4766,43.5,474.4766,39.5,470.4766" style="stroke:#181818;stroke-width:1.0;"/><line style="stroke:#181818;stroke-width:1.0;stroke-dasharray:2.0,2.0;" x1="37.5" x2="428.5" y1="470.4766" y2="470.4766"/><text fill="#000000" font-family="sans-serif" font-size="13" font-weight="bold" lengthAdjust="spacing" textLength="14" x="49.5" y="465.6201">11</text><text fill="#000000" font-family="sans-serif" font-size="13" lengthAdjust="spacing" textLength="189" x="67.5" y="465.6201">Shows list of Employees desired</text><!--MD5=[046cb3285dbdbf105f7e90e09846b9b7]
@startuml
autonumber
actor "Admin" as admin

participant ": ListEmployeesUI" as UI
participant ": ListEmployeesController" as Controller
participant ": EmployeesStore" as store

activate admin
admin -> UI :  starts operation of asking for list of employees with a given role
activate UI
UI - -> admin : requests role (opt :int)
deactivate UI

admin -> UI : types requested data
activate UI

UI -> Controller : ctrl.redirectToList(opt :int)
activate Controller


Controller -> Controller : getReceptionistsList()
Controller -> Controller : getNurseList()
Controller -> Controller : getCenterCoordinatorList()
Controller -> Controller : getAll()
store - -> Controller : returns list of employees to be filtered
Controller - -> UI : returns list of employees desired
UI - -> admin : Shows list of Employees desired


deactivate UI
deactivate Controller

@enduml

PlantUML version 1.2022.4(Sat Apr 09 14:29:17 BST 2022)
(GPL source distribution)
Java Runtime: OpenJDK Runtime Environment
JVM: OpenJDK 64-Bit Server VM
Default Encoding: Cp1252
Language: en
Country: US
--></g></svg>