<?xml version="1.0" encoding="UTF-8" standalone="no"?><svg xmlns="http://www.w3.org/2000/svg" xmlns:xlink="http://www.w3.org/1999/xlink" contentScriptType="application/ecmascript" contentStyleType="text/css" height="310px" preserveAspectRatio="none" style="width:522px;height:310px;background:#FFFFFF;" version="1.1" viewBox="0 0 522 310" width="522px" zoomAndPan="magnify"><defs><filter height="300%" id="f1l7qafgh2tgn" width="300%" x="-1" y="-1"><feGaussianBlur result="blurOut" stdDeviation="2.0"/><feColorMatrix in="blurOut" result="blurOut2" type="matrix" values="0 0 0 0 0 0 0 0 0 0 0 0 0 0 0 0 0 0 .4 0"/><feOffset dx="4.0" dy="4.0" in="blurOut2" result="blurOut3"/><feBlend in="SourceGraphic" in2="blurOut3" mode="normal"/></filter></defs><g><rect fill="#FFFFFF" filter="url(#f1l7qafgh2tgn)" height="109.2422" style="stroke:#A80036;stroke-width:1.0;" width="10" x="25.5" y="98.4883"/><rect fill="#FFFFFF" filter="url(#f1l7qafgh2tgn)" height="29.3105" style="stroke:#A80036;stroke-width:1.0;" width="10" x="472.5" y="119.7988"/><rect fill="#FFFFFF" filter="url(#f1l7qafgh2tgn)" height="29.3105" style="stroke:#A80036;stroke-width:1.0;" width="10" x="472.5" y="178.4199"/><line style="stroke:#A80036;stroke-width:1.0;stroke-dasharray:5.0,5.0;" x1="30" x2="30" y1="88.4883" y2="225.7305"/><line style="stroke:#A80036;stroke-width:1.0;stroke-dasharray:5.0,5.0;" x1="477.5" x2="477.5" y1="88.4883" y2="225.7305"/><text fill="#000000" font-family="sans-serif" font-size="14" lengthAdjust="spacing" textLength="45" x="5" y="85.5352">Admin</text><ellipse cx="30.5" cy="15" fill="#FEFECE" filter="url(#f1l7qafgh2tgn)" rx="8" ry="8" style="stroke:#A80036;stroke-width:2.0;"/><path d="M30.5,23 L30.5,50 M17.5,31 L43.5,31 M30.5,50 L17.5,65 M30.5,50 L43.5,65 " fill="none" filter="url(#f1l7qafgh2tgn)" style="stroke:#A80036;stroke-width:2.0;"/><text fill="#000000" font-family="sans-serif" font-size="14" lengthAdjust="spacing" textLength="45" x="5" y="238.2656">Admin</text><ellipse cx="30.5" cy="251.2188" fill="#FEFECE" filter="url(#f1l7qafgh2tgn)" rx="8" ry="8" style="stroke:#A80036;stroke-width:2.0;"/><path d="M30.5,259.2188 L30.5,286.2188 M17.5,267.2188 L43.5,267.2188 M30.5,286.2188 L17.5,301.2188 M30.5,286.2188 L43.5,301.2188 " fill="none" filter="url(#f1l7qafgh2tgn)" style="stroke:#A80036;stroke-width:2.0;"/><rect fill="#FEFECE" filter="url(#f1l7qafgh2tgn)" height="30.4883" style="stroke:#A80036;stroke-width:1.5;" width="66" x="442.5" y="53"/><text fill="#000000" font-family="sans-serif" font-size="14" lengthAdjust="spacing" textLength="52" x="449.5" y="73.5352">:System</text><rect fill="#FEFECE" filter="url(#f1l7qafgh2tgn)" height="30.4883" style="stroke:#A80036;stroke-width:1.5;" width="66" x="442.5" y="224.7305"/><text fill="#000000" font-family="sans-serif" font-size="14" lengthAdjust="spacing" textLength="52" x="449.5" y="245.2656">:System</text><rect fill="#FFFFFF" filter="url(#f1l7qafgh2tgn)" height="109.2422" style="stroke:#A80036;stroke-width:1.0;" width="10" x="25.5" y="98.4883"/><rect fill="#FFFFFF" filter="url(#f1l7qafgh2tgn)" height="29.3105" style="stroke:#A80036;stroke-width:1.0;" width="10" x="472.5" y="119.7988"/><rect fill="#FFFFFF" filter="url(#f1l7qafgh2tgn)" height="29.3105" style="stroke:#A80036;stroke-width:1.0;" width="10" x="472.5" y="178.4199"/><polygon fill="#A80036" points="460.5,115.7988,470.5,119.7988,460.5,123.7988,464.5,119.7988" style="stroke:#A80036;stroke-width:1.0;"/><line style="stroke:#A80036;stroke-width:1.0;" x1="35.5" x2="466.5" y1="119.7988" y2="119.7988"/><text fill="#000000" font-family="sans-serif" font-size="13" font-weight="bold" lengthAdjust="spacing" textLength="9" x="42.5" y="115.0566">1</text><text fill="#000000" font-family="sans-serif" font-size="13" lengthAdjust="spacing" textLength="405" x="55.5" y="115.0566">starts operation of asking for list of employees with a given role</text><polygon fill="#A80036" points="46.5,145.1094,36.5,149.1094,46.5,153.1094,42.5,149.1094" style="stroke:#A80036;stroke-width:1.0;"/><line style="stroke:#A80036;stroke-width:1.0;stroke-dasharray:2.0,2.0;" x1="40.5" x2="476.5" y1="149.1094" y2="149.1094"/><text fill="#000000" font-family="sans-serif" font-size="13" font-weight="bold" lengthAdjust="spacing" textLength="9" x="52.5" y="144.3672">2</text><text fill="#000000" font-family="sans-serif" font-size="13" lengthAdjust="spacing" textLength="345" x="65.5" y="144.3672">requests role (Nurse, Receptionist, Center Coordinator)</text><polygon fill="#A80036" points="460.5,174.4199,470.5,178.4199,460.5,182.4199,464.5,178.4199" style="stroke:#A80036;stroke-width:1.0;"/><line style="stroke:#A80036;stroke-width:1.0;" x1="35.5" x2="466.5" y1="178.4199" y2="178.4199"/><text fill="#000000" font-family="sans-serif" font-size="13" font-weight="bold" lengthAdjust="spacing" textLength="9" x="42.5" y="173.6777">3</text><text fill="#000000" font-family="sans-serif" font-size="13" lengthAdjust="spacing" textLength="131" x="55.5" y="173.6777">types requested data</text><polygon fill="#A80036" points="41.5,203.7305,31.5,207.7305,41.5,211.7305,37.5,207.7305" style="stroke:#A80036;stroke-width:1.0;"/><line style="stroke:#A80036;stroke-width:1.0;stroke-dasharray:2.0,2.0;" x1="35.5" x2="476.5" y1="207.7305" y2="207.7305"/><text fill="#000000" font-family="sans-serif" font-size="13" font-weight="bold" lengthAdjust="spacing" textLength="9" x="47.5" y="202.9883">4</text><text fill="#000000" font-family="sans-serif" font-size="13" lengthAdjust="spacing" textLength="284" x="60.5" y="202.9883">shows the list of employees with chosen role</text><!--MD5=[995c84322decf95069b69dc03f094211]
@startuml
autonumber
actor "Admin" as rcp

activate rcp
rcp -> ":System" : starts operation of asking for list of employees with a given role
activate ":System"
":System" - -> rcp : requests role (Nurse, Receptionist, Center Coordinator)
deactivate ":System"

rcp -> ":System" : types requested data
activate ":System"
":System" - -> rcp : shows the list of employees with chosen role
deactivate ":System"

deactivate rcp

@endum

PlantUML version 1.2022.1(Tue Feb 01 18:19:58 WET 2022)
(GPL source distribution)
Java Runtime: OpenJDK Runtime Environment
JVM: OpenJDK 64-Bit Server VM
Default Encoding: UTF-8
Language: pt
Country: PT
--></g></svg>