<?xml version="1.0" encoding="UTF-8" standalone="no"?><svg xmlns="http://www.w3.org/2000/svg" xmlns:xlink="http://www.w3.org/1999/xlink" contentStyleType="text/css" height="297px" preserveAspectRatio="none" style="width:2501px;height:297px;background:#FFFFFF;" version="1.1" viewBox="0 0 2501 297" width="2501px" zoomAndPan="magnify"><defs/><g><!--MD5=[0949c93bb2ceac2c9377da7237d80f71]
class VaccinationCenterUI--><g id="elem_VaccinationCenterUI"><rect codeLine="4" fill="#F1F1F1" height="65.6094" id="VaccinationCenterUI" rx="2.5" ry="2.5" style="stroke:#181818;stroke-width:0.5;" width="285" x="7" y="53.5"/><ellipse cx="81.25" cy="69.5" fill="#ADD1B2" rx="11" ry="11" style="stroke:#181818;stroke-width:1.0;"/><path d="M83.25,66 Q83.4531,65.5 83.6875,65.25 Q83.9219,65 84.1875,65 Q84.6563,65 84.9531,65.2813 Q85.25,65.5625 85.25,66.2188 L85.25,67.7813 Q85.25,68.4375 84.9688,68.7188 Q84.6875,69 84.25,69 Q83.8594,69 83.6094,68.8281 Q83.3594,68.6563 83.25,68.2031 Q83.2031,67.8906 83.0313,67.7188 Q82.7188,67.3906 82.1563,67.2031 Q81.5938,67 81.0313,67 Q80.3281,67 79.7344,67.2813 Q79.1563,67.5625 78.7031,68.1875 Q78.25,68.8125 78.25,69.6719 L78.25,70.5938 Q78.25,71.625 79.0938,72.3125 Q79.9375,73 81.4375,73 Q82.3281,73 82.9531,72.7969 Q83.3125,72.6875 83.7188,72.3281 Q83.9844,72.125 84.125,72.0625 Q84.2656,72 84.4375,72 Q84.7656,72 85,72.2656 Q85.25,72.5156 85.25,72.875 Q85.25,73.2188 84.9063,73.625 Q84.4063,74.2188 83.6094,74.5469 Q82.5625,75 81.2813,75 Q79.7813,75 78.5781,74.4063 Q77.6094,73.9375 76.9219,72.9219 Q76.25,71.9063 76.25,70.7031 L76.25,69.6094 Q76.25,68.3594 76.8438,67.2656 Q77.4531,66.1719 78.5,65.5938 Q79.5625,65 80.75,65 Q81.4688,65 82.0938,65.25 Q82.7188,65.5 83.25,66 Z " fill="#000000"/><text fill="#000000" font-family="sans-serif" font-size="14" lengthAdjust="spacing" textLength="128" x="101.75" y="75.2285">VaccinationCenterUI</text><line style="stroke:#181818;stroke-width:0.5;" x1="8" x2="291" y1="85.5" y2="85.5"/><text fill="#000000" font-family="sans-serif" font-size="14" lengthAdjust="spacing" textLength="273" x="13" y="104.0332">SpecifyNewVaccinationCenterController ctrl</text><line style="stroke:#181818;stroke-width:0.5;" x1="8" x2="291" y1="111.1094" y2="111.1094"/></g><!--MD5=[437d6bc2c1df33360273bc3b5a48347c]
class SpecifyNewVaccinationCenterController--><g id="elem_SpecifyNewVaccinationCenterController"><rect codeLine="7" fill="#F1F1F1" height="118.4375" id="SpecifyNewVaccinationCenterController" rx="2.5" ry="2.5" style="stroke:#181818;stroke-width:0.5;" width="1125" x="353" y="27.5"/><ellipse cx="786.25" cy="43.5" fill="#ADD1B2" rx="11" ry="11" style="stroke:#181818;stroke-width:1.0;"/><path d="M788.25,40 Q788.4531,39.5 788.6875,39.25 Q788.9219,39 789.1875,39 Q789.6563,39 789.9531,39.2813 Q790.25,39.5625 790.25,40.2188 L790.25,41.7813 Q790.25,42.4375 789.9688,42.7188 Q789.6875,43 789.25,43 Q788.8594,43 788.6094,42.8281 Q788.3594,42.6563 788.25,42.2031 Q788.2031,41.8906 788.0313,41.7188 Q787.7188,41.3906 787.1563,41.2031 Q786.5938,41 786.0313,41 Q785.3281,41 784.7344,41.2813 Q784.1563,41.5625 783.7031,42.1875 Q783.25,42.8125 783.25,43.6719 L783.25,44.5938 Q783.25,45.625 784.0938,46.3125 Q784.9375,47 786.4375,47 Q787.3281,47 787.9531,46.7969 Q788.3125,46.6875 788.7188,46.3281 Q788.9844,46.125 789.125,46.0625 Q789.2656,46 789.4375,46 Q789.7656,46 790,46.2656 Q790.25,46.5156 790.25,46.875 Q790.25,47.2188 789.9063,47.625 Q789.4063,48.2188 788.6094,48.5469 Q787.5625,49 786.2813,49 Q784.7813,49 783.5781,48.4063 Q782.6094,47.9375 781.9219,46.9219 Q781.25,45.9063 781.25,44.7031 L781.25,43.6094 Q781.25,42.3594 781.8438,41.2656 Q782.4531,40.1719 783.5,39.5938 Q784.5625,39 785.75,39 Q786.4688,39 787.0938,39.25 Q787.7188,39.5 788.25,40 Z " fill="#000000"/><text fill="#000000" font-family="sans-serif" font-size="14" lengthAdjust="spacing" textLength="250" x="806.75" y="49.2285">SpecifyNewVaccinationCenterController</text><line style="stroke:#181818;stroke-width:0.5;" x1="354" x2="1477" y1="59.5" y2="59.5"/><text fill="#000000" font-family="sans-serif" font-size="14" lengthAdjust="spacing" textLength="121" x="359" y="78.0332">Company company</text><text fill="#000000" font-family="sans-serif" font-size="14" lengthAdjust="spacing" textLength="247" x="359" y="95.6426">VaccinationCenterController vacCenter</text><line style="stroke:#181818;stroke-width:0.5;" x1="354" x2="1477" y1="102.7188" y2="102.7188"/><text fill="#000000" font-family="sans-serif" font-size="14" lengthAdjust="spacing" textLength="1113" x="359" y="121.252">+createVaccinationCenter(name,address,emailAddress,phoneNumber,faxNumber,websiteAddress,openingHours,closingHours,slotDuration,maxVaccines,coordinator,AGES,ARS)</text><text fill="#000000" font-family="sans-serif" font-size="14" lengthAdjust="spacing" textLength="164" x="359" y="138.8613">+saveVaccinationCenter()</text></g><!--MD5=[a29876ea2f21a6ca48ea477740122fd8]
class VaccinationCenterStore--><g id="elem_VaccinationCenterStore"><rect codeLine="13" fill="#F1F1F1" height="83.2188" id="VaccinationCenterStore" rx="2.5" ry="2.5" style="stroke:#181818;stroke-width:0.5;" width="252" x="1960" y="45"/><ellipse cx="2006.75" cy="61" fill="#ADD1B2" rx="11" ry="11" style="stroke:#181818;stroke-width:1.0;"/><path d="M2008.75,57.5 Q2008.9531,57 2009.1875,56.75 Q2009.4219,56.5 2009.6875,56.5 Q2010.1563,56.5 2010.4531,56.7813 Q2010.75,57.0625 2010.75,57.7188 L2010.75,59.2813 Q2010.75,59.9375 2010.4688,60.2188 Q2010.1875,60.5 2009.75,60.5 Q2009.3594,60.5 2009.1094,60.3281 Q2008.8594,60.1563 2008.75,59.7031 Q2008.7031,59.3906 2008.5313,59.2188 Q2008.2188,58.8906 2007.6563,58.7031 Q2007.0938,58.5 2006.5313,58.5 Q2005.8281,58.5 2005.2344,58.7813 Q2004.6563,59.0625 2004.2031,59.6875 Q2003.75,60.3125 2003.75,61.1719 L2003.75,62.0938 Q2003.75,63.125 2004.5938,63.8125 Q2005.4375,64.5 2006.9375,64.5 Q2007.8281,64.5 2008.4531,64.2969 Q2008.8125,64.1875 2009.2188,63.8281 Q2009.4844,63.625 2009.625,63.5625 Q2009.7656,63.5 2009.9375,63.5 Q2010.2656,63.5 2010.5,63.7656 Q2010.75,64.0156 2010.75,64.375 Q2010.75,64.7188 2010.4063,65.125 Q2009.9063,65.7188 2009.1094,66.0469 Q2008.0625,66.5 2006.7813,66.5 Q2005.2813,66.5 2004.0781,65.9063 Q2003.1094,65.4375 2002.4219,64.4219 Q2001.75,63.4063 2001.75,62.2031 L2001.75,61.1094 Q2001.75,59.8594 2002.3438,58.7656 Q2002.9531,57.6719 2004,57.0938 Q2005.0625,56.5 2006.25,56.5 Q2006.9688,56.5 2007.5938,56.75 Q2008.2188,57 2008.75,57.5 Z " fill="#000000"/><text fill="#000000" font-family="sans-serif" font-size="14" lengthAdjust="spacing" textLength="150" x="2027.25" y="66.7285">VaccinationCenterStore</text><line style="stroke:#181818;stroke-width:0.5;" x1="1961" x2="2211" y1="77" y2="77"/><text fill="#000000" font-family="sans-serif" font-size="14" lengthAdjust="spacing" textLength="240" x="1966" y="95.5332">List&lt;VaccinationCenter&gt; vacCenteList</text><line style="stroke:#181818;stroke-width:0.5;" x1="1961" x2="2211" y1="102.6094" y2="102.6094"/><text fill="#000000" font-family="sans-serif" font-size="14" lengthAdjust="spacing" textLength="223" x="1966" y="121.1426">+addVaccinationCenter(vacCenter)</text></g><!--MD5=[02e4b9b7573f1156f41e60aa5b4e25a4]
class Company--><g id="elem_Company"><rect codeLine="17" fill="#F1F1F1" height="83.2188" id="Company" rx="2.5" ry="2.5" style="stroke:#181818;stroke-width:0.5;" width="314" x="1539" y="45"/><ellipse cx="1661.75" cy="61" fill="#ADD1B2" rx="11" ry="11" style="stroke:#181818;stroke-width:1.0;"/><path d="M1663.75,57.5 Q1663.9531,57 1664.1875,56.75 Q1664.4219,56.5 1664.6875,56.5 Q1665.1563,56.5 1665.4531,56.7813 Q1665.75,57.0625 1665.75,57.7188 L1665.75,59.2813 Q1665.75,59.9375 1665.4688,60.2188 Q1665.1875,60.5 1664.75,60.5 Q1664.3594,60.5 1664.1094,60.3281 Q1663.8594,60.1563 1663.75,59.7031 Q1663.7031,59.3906 1663.5313,59.2188 Q1663.2188,58.8906 1662.6563,58.7031 Q1662.0938,58.5 1661.5313,58.5 Q1660.8281,58.5 1660.2344,58.7813 Q1659.6563,59.0625 1659.2031,59.6875 Q1658.75,60.3125 1658.75,61.1719 L1658.75,62.0938 Q1658.75,63.125 1659.5938,63.8125 Q1660.4375,64.5 1661.9375,64.5 Q1662.8281,64.5 1663.4531,64.2969 Q1663.8125,64.1875 1664.2188,63.8281 Q1664.4844,63.625 1664.625,63.5625 Q1664.7656,63.5 1664.9375,63.5 Q1665.2656,63.5 1665.5,63.7656 Q1665.75,64.0156 1665.75,64.375 Q1665.75,64.7188 1665.4063,65.125 Q1664.9063,65.7188 1664.1094,66.0469 Q1663.0625,66.5 1661.7813,66.5 Q1660.2813,66.5 1659.0781,65.9063 Q1658.1094,65.4375 1657.4219,64.4219 Q1656.75,63.4063 1656.75,62.2031 L1656.75,61.1094 Q1656.75,59.8594 1657.3438,58.7656 Q1657.9531,57.6719 1659,57.0938 Q1660.0625,56.5 1661.25,56.5 Q1661.9688,56.5 1662.5938,56.75 Q1663.2188,57 1663.75,57.5 Z " fill="#000000"/><text fill="#000000" font-family="sans-serif" font-size="14" lengthAdjust="spacing" textLength="60" x="1682.25" y="66.7285">Company</text><line style="stroke:#181818;stroke-width:0.5;" x1="1540" x2="1852" y1="77" y2="77"/><text fill="#000000" font-family="sans-serif" font-size="14" lengthAdjust="spacing" textLength="302" x="1545" y="95.5332">VaccinationCenterStore vaccinationCenterStore</text><line style="stroke:#181818;stroke-width:0.5;" x1="1540" x2="1852" y1="102.6094" y2="102.6094"/><text fill="#000000" font-family="sans-serif" font-size="14" lengthAdjust="spacing" textLength="164" x="1545" y="121.1426">+saveVaccinationCenter()</text></g><!--MD5=[de60e6d4f424ae4d0522096f76a59010]
class VaccinationCenter--><g id="elem_VaccinationCenter"><rect codeLine="21" fill="#F1F1F1" height="276.9219" id="VaccinationCenter" rx="2.5" ry="2.5" style="stroke:#181818;stroke-width:0.5;" width="148" x="2346" y="14"/><ellipse cx="2361" cy="30" fill="#ADD1B2" rx="11" ry="11" style="stroke:#181818;stroke-width:1.0;"/><path d="M2363,26.5 Q2363.2031,26 2363.4375,25.75 Q2363.6719,25.5 2363.9375,25.5 Q2364.4063,25.5 2364.7031,25.7813 Q2365,26.0625 2365,26.7188 L2365,28.2813 Q2365,28.9375 2364.7188,29.2188 Q2364.4375,29.5 2364,29.5 Q2363.6094,29.5 2363.3594,29.3281 Q2363.1094,29.1563 2363,28.7031 Q2362.9531,28.3906 2362.7813,28.2188 Q2362.4688,27.8906 2361.9063,27.7031 Q2361.3438,27.5 2360.7813,27.5 Q2360.0781,27.5 2359.4844,27.7813 Q2358.9063,28.0625 2358.4531,28.6875 Q2358,29.3125 2358,30.1719 L2358,31.0938 Q2358,32.125 2358.8438,32.8125 Q2359.6875,33.5 2361.1875,33.5 Q2362.0781,33.5 2362.7031,33.2969 Q2363.0625,33.1875 2363.4688,32.8281 Q2363.7344,32.625 2363.875,32.5625 Q2364.0156,32.5 2364.1875,32.5 Q2364.5156,32.5 2364.75,32.7656 Q2365,33.0156 2365,33.375 Q2365,33.7188 2364.6563,34.125 Q2364.1563,34.7188 2363.3594,35.0469 Q2362.3125,35.5 2361.0313,35.5 Q2359.5313,35.5 2358.3281,34.9063 Q2357.3594,34.4375 2356.6719,33.4219 Q2356,32.4063 2356,31.2031 L2356,30.1094 Q2356,28.8594 2356.5938,27.7656 Q2357.2031,26.6719 2358.25,26.0938 Q2359.3125,25.5 2360.5,25.5 Q2361.2188,25.5 2361.8438,25.75 Q2362.4688,26 2363,26.5 Z " fill="#000000"/><text fill="#000000" font-family="sans-serif" font-size="14" lengthAdjust="spacing" textLength="116" x="2375" y="35.7285">VaccinationCenter</text><line style="stroke:#181818;stroke-width:0.5;" x1="2347" x2="2493" y1="46" y2="46"/><text fill="#000000" font-family="sans-serif" font-size="14" lengthAdjust="spacing" textLength="92" x="2352" y="64.5332">-type of center</text><text fill="#000000" font-family="sans-serif" font-size="14" lengthAdjust="spacing" textLength="56" x="2352" y="82.1426">-address</text><text fill="#000000" font-family="sans-serif" font-size="14" lengthAdjust="spacing" textLength="90" x="2352" y="99.752">-emailAddress</text><text fill="#000000" font-family="sans-serif" font-size="14" lengthAdjust="spacing" textLength="94" x="2352" y="117.3613">-phoneNumber</text><text fill="#000000" font-family="sans-serif" font-size="14" lengthAdjust="spacing" textLength="72" x="2352" y="134.9707">-faxNumber</text><text fill="#000000" font-family="sans-serif" font-size="14" lengthAdjust="spacing" textLength="104" x="2352" y="152.5801">-websiteAddress</text><text fill="#000000" font-family="sans-serif" font-size="14" lengthAdjust="spacing" textLength="93" x="2352" y="170.1895">-openingHours</text><text fill="#000000" font-family="sans-serif" font-size="14" lengthAdjust="spacing" textLength="86" x="2352" y="187.7988">-closingHours</text><text fill="#000000" font-family="sans-serif" font-size="14" lengthAdjust="spacing" textLength="81" x="2352" y="205.4082">-slotDuration</text><text fill="#000000" font-family="sans-serif" font-size="14" lengthAdjust="spacing" textLength="87" x="2352" y="223.0176">-maxVaccines</text><text fill="#000000" font-family="sans-serif" font-size="14" lengthAdjust="spacing" textLength="77" x="2352" y="240.627">-coordinator</text><text fill="#000000" font-family="sans-serif" font-size="14" lengthAdjust="spacing" textLength="43" x="2352" y="258.2363">-AGES</text><text fill="#000000" font-family="sans-serif" font-size="14" lengthAdjust="spacing" textLength="33" x="2352" y="275.8457">-ARS</text><line style="stroke:#181818;stroke-width:0.5;" x1="2347" x2="2493" y1="282.9219" y2="282.9219"/></g><!--MD5=[2005b08bfacbc48c4580277156edaa2f]
link VaccinationCenterUI to SpecifyNewVaccinationCenterController--><g id="link_VaccinationCenterUI_SpecifyNewVaccinationCenterController"><path codeLine="38" d="M292.41,86.5 C309.77,86.5 328.24,86.5 347.53,86.5 " fill="none" id="VaccinationCenterUI-to-SpecifyNewVaccinationCenterController" style="stroke:#181818;stroke-width:1.0;stroke-dasharray:7.0,7.0;"/><polygon fill="#181818" points="353,86.5,344,82.5,348,86.5,344,90.5,353,86.5" style="stroke:#181818;stroke-width:1.0;"/></g><!--MD5=[bc0d5b4bfe6e1bf0a8fced13bc4bdd47]
link Company to VaccinationCenterStore--><g id="link_Company_VaccinationCenterStore"><path codeLine="39" d="M1853.14,86.5 C1886.82,86.5 1922.08,86.5 1954.65,86.5 " fill="none" id="Company-to-VaccinationCenterStore" style="stroke:#181818;stroke-width:1.0;"/><polygon fill="#181818" points="1959.86,86.5,1950.86,82.5,1954.86,86.5,1950.86,90.5,1959.86,86.5" style="stroke:#181818;stroke-width:1.0;"/><polygon fill="#000000" points="1893,77.6758,1883.9549,74.7369,1883.9549,80.6147,1893,77.6758" style="stroke:#000000;stroke-width:1.0;"/><text fill="#000000" font-family="sans-serif" font-size="13" lengthAdjust="spacing" textLength="32" x="1897" y="82.9951">has a</text><text fill="#000000" font-family="sans-serif" font-size="13" lengthAdjust="spacing" textLength="7" x="1860.921" y="100.3858">1</text><text fill="#000000" font-family="sans-serif" font-size="13" lengthAdjust="spacing" textLength="5" x="1947.021" y="100.4867">*</text></g><!--MD5=[8c304936b446fd8cea914e03fbadd4b7]
link VaccinationCenterStore to VaccinationCenter--><g id="link_VaccinationCenterStore_VaccinationCenter"><path codeLine="40" d="M2212.04,111.36 C2255.14,119.93 2302.17,129.27 2340.49,136.89 " fill="none" id="VaccinationCenterStore-to-VaccinationCenter" style="stroke:#181818;stroke-width:1.0;"/><polygon fill="#181818" points="2345.6,137.91,2337.5497,132.2362,2340.6955,136.9377,2335.994,140.0834,2345.6,137.91" style="stroke:#181818;stroke-width:1.0;"/><polygon fill="#000000" points="2251.9041,109.6505,2243.6054,105.0047,2242.4596,110.7698,2251.9041,109.6505" style="stroke:#000000;stroke-width:1.0;"/><text fill="#000000" font-family="sans-serif" font-size="13" lengthAdjust="spacing" textLength="59" x="2256" y="113.9951">keeps info</text><text fill="#000000" font-family="sans-serif" font-size="13" lengthAdjust="spacing" textLength="7" x="2219.9338" y="126.8616">1</text><text fill="#000000" font-family="sans-serif" font-size="13" lengthAdjust="spacing" textLength="5" x="2333.0302" y="150.7776">*</text></g><!--MD5=[87f97915b1a05852f6a9f6b1338455e4]
link SpecifyNewVaccinationCenterController to Company--><g id="link_SpecifyNewVaccinationCenterController_Company"><path codeLine="41" d="M1478.14,86.5 C1497.37,86.5 1515.9,86.5 1533.47,86.5 " fill="none" id="SpecifyNewVaccinationCenterController-to-Company" style="stroke:#181818;stroke-width:1.0;stroke-dasharray:7.0,7.0;"/><polygon fill="#181818" points="1538.9,86.5,1529.9,82.5,1533.9,86.5,1529.9,90.5,1538.9,86.5" style="stroke:#181818;stroke-width:1.0;"/></g><!--MD5=[58cadca031087cfafbefc26382ef21ad]
link SpecifyNewVaccinationCenterController to VaccinationCenterStore--><g id="link_SpecifyNewVaccinationCenterController_VaccinationCenterStore"><path codeLine="42" d="M1326.64,27.49 C1490.75,12.51 1681.25,6 1853,27.5 C1886.51,31.69 1922.12,39.17 1955.12,47.42 " fill="none" id="SpecifyNewVaccinationCenterController-to-VaccinationCenterStore" style="stroke:#181818;stroke-width:1.0;stroke-dasharray:7.0,7.0;"/><polygon fill="#181818" points="1959.97,48.64,1952.2257,42.5552,1955.1227,47.4139,1950.2639,50.3109,1959.97,48.64" style="stroke:#181818;stroke-width:1.0;"/></g><!--MD5=[8cd5bf80725ebbb3ddf698c536e77172]
link SpecifyNewVaccinationCenterController to VaccinationCenter--><g id="link_SpecifyNewVaccinationCenterController_VaccinationCenter"><path codeLine="43" d="M1478.35,141.99 C1498.81,143.3 1519.08,144.48 1539,145.5 C1834.56,160.65 2186.67,156.88 2340.53,154.15 " fill="none" id="SpecifyNewVaccinationCenterController-to-VaccinationCenter" style="stroke:#181818;stroke-width:1.0;stroke-dasharray:7.0,7.0;"/><polygon fill="#181818" points="2345.92,154.05,2336.8418,150.2308,2340.921,154.15,2337.0018,158.2292,2345.92,154.05" style="stroke:#181818;stroke-width:1.0;"/></g><!--MD5=[1493ba2981e878d2f7a5184472bafd9e]
@startuml
skinparam classAttributeIconSize 0
left to right direction

class VaccinationCenterUI{
SpecifyNewVaccinationCenterController ctrl
}
class SpecifyNewVaccinationCenterController{
Company company
 VaccinationCenterController vacCenter
 +createVaccinationCenter(name,address,emailAddress,phoneNumber,faxNumber,websiteAddress,openingHours,closingHours,slotDuration,maxVaccines,coordinator,AGES,ARS)
 +saveVaccinationCenter()
 }
class VaccinationCenterStore{
List<VaccinationCenter> vacCenteList
+addVaccinationCenter(vacCenter)
}
class Company{
VaccinationCenterStore vaccinationCenterStore
 +saveVaccinationCenter()
 }
class VaccinationCenter {
-type of center
-address
-emailAddress
-phoneNumber
-faxNumber
-websiteAddress
-openingHours
-closingHours
-slotDuration
-maxVaccines
-coordinator
-AGES
-ARS
}


VaccinationCenterUI ..> SpecifyNewVaccinationCenterController
Company "1"- ->"*" VaccinationCenterStore : has a >
VaccinationCenterStore "1"- ->"*" VaccinationCenter : keeps info >
SpecifyNewVaccinationCenterController ..> Company
SpecifyNewVaccinationCenterController ..> VaccinationCenterStore
SpecifyNewVaccinationCenterController ..> VaccinationCenter


@enduml

PlantUML version 1.2022.4(Sat Apr 09 14:29:17 BST 2022)
(GPL source distribution)
Java Runtime: OpenJDK Runtime Environment
JVM: OpenJDK 64-Bit Server VM
Default Encoding: Cp1252
Language: en
Country: US
--></g></svg>