<?xml version="1.0" encoding="UTF-8" standalone="no"?><svg xmlns="http://www.w3.org/2000/svg" xmlns:xlink="http://www.w3.org/1999/xlink" contentStyleType="text/css" height="444px" preserveAspectRatio="none" style="width:561px;height:444px;background:#FFFFFF;" version="1.1" viewBox="0 0 561 444" width="561px" zoomAndPan="magnify"><defs/><g><rect fill="#FFFFFF" height="342.2188" style="stroke:#181818;stroke-width:1.0;" width="10" x="93" y="47.6094"/><line style="stroke:#181818;stroke-width:0.5;stroke-dasharray:5.0,5.0;" x1="98" x2="98" y1="37.6094" y2="407.8281"/><line style="stroke:#181818;stroke-width:0.5;stroke-dasharray:5.0,5.0;" x1="265" x2="265" y1="37.6094" y2="407.8281"/><line style="stroke:#181818;stroke-width:0.5;stroke-dasharray:5.0,5.0;" x1="503" x2="503" y1="354.125" y2="407.8281"/><rect fill="#E2E2F0" height="31.6094" rx="2.5" ry="2.5" style="stroke:#181818;stroke-width:0.5;" width="122" x="37" y="5"/><text fill="#000000" font-family="sans-serif" font-size="14" lengthAdjust="spacing" textLength="108" x="44" y="26.5332">:SNSUserMapper</text><rect fill="#E2E2F0" height="31.6094" rx="2.5" ry="2.5" style="stroke:#181818;stroke-width:0.5;" width="122" x="37" y="406.8281"/><text fill="#000000" font-family="sans-serif" font-size="14" lengthAdjust="spacing" textLength="108" x="44" y="428.3613">:SNSUserMapper</text><rect fill="#E2E2F0" height="31.6094" rx="2.5" ry="2.5" style="stroke:#181818;stroke-width:0.5;" width="74" x="228" y="5"/><text fill="#000000" font-family="sans-serif" font-size="14" lengthAdjust="spacing" textLength="60" x="235" y="26.5332">:SNSUser</text><rect fill="#E2E2F0" height="31.6094" rx="2.5" ry="2.5" style="stroke:#181818;stroke-width:0.5;" width="74" x="228" y="406.8281"/><text fill="#000000" font-family="sans-serif" font-size="14" lengthAdjust="spacing" textLength="60" x="235" y="428.3613">:SNSUser</text><rect fill="#E2E2F0" height="31.6094" rx="2.5" ry="2.5" style="stroke:#181818;stroke-width:0.5;" width="104" x="451" y="406.8281"/><text fill="#000000" font-family="sans-serif" font-size="14" lengthAdjust="spacing" textLength="90" x="458" y="428.3613">:SNSUserDTO</text><rect fill="#FFFFFF" height="342.2188" style="stroke:#181818;stroke-width:1.0;" width="10" x="93" y="47.6094"/><polygon fill="#181818" points="81,65.9609,91,69.9609,81,73.9609,85,69.9609" style="stroke:#181818;stroke-width:1.0;"/><line style="stroke:#181818;stroke-width:1.0;" x1="0" x2="87" y1="69.9609" y2="69.9609"/><text fill="#000000" font-family="sans-serif" font-size="13" lengthAdjust="spacing" textLength="73" x="7" y="65.1045">toDTO(snsu)</text><polygon fill="#181818" points="253,96.3125,263,100.3125,253,104.3125,257,100.3125" style="stroke:#181818;stroke-width:1.0;"/><line style="stroke:#181818;stroke-width:1.0;" x1="103" x2="259" y1="100.3125" y2="100.3125"/><text fill="#000000" font-family="sans-serif" font-size="13" lengthAdjust="spacing" textLength="60" x="110" y="95.4561">getName()</text><polygon fill="#181818" points="253,126.6641,263,130.6641,253,134.6641,257,130.6641" style="stroke:#181818;stroke-width:1.0;"/><line style="stroke:#181818;stroke-width:1.0;" x1="103" x2="259" y1="130.6641" y2="130.6641"/><text fill="#000000" font-family="sans-serif" font-size="13" lengthAdjust="spacing" textLength="74" x="110" y="125.8076">getAddress()</text><polygon fill="#181818" points="253,157.0156,263,161.0156,253,165.0156,257,161.0156" style="stroke:#181818;stroke-width:1.0;"/><line style="stroke:#181818;stroke-width:1.0;" x1="103" x2="259" y1="161.0156" y2="161.0156"/><text fill="#000000" font-family="sans-serif" font-size="13" lengthAdjust="spacing" textLength="49" x="110" y="156.1592">getSex()</text><polygon fill="#181818" points="253,187.3672,263,191.3672,253,195.3672,257,191.3672" style="stroke:#181818;stroke-width:1.0;"/><line style="stroke:#181818;stroke-width:1.0;" x1="103" x2="259" y1="191.3672" y2="191.3672"/><text fill="#000000" font-family="sans-serif" font-size="13" lengthAdjust="spacing" textLength="108" x="110" y="186.5107">getPhoneNumber()</text><polygon fill="#181818" points="253,217.7188,263,221.7188,253,225.7188,257,221.7188" style="stroke:#181818;stroke-width:1.0;"/><line style="stroke:#181818;stroke-width:1.0;" x1="103" x2="259" y1="221.7188" y2="221.7188"/><text fill="#000000" font-family="sans-serif" font-size="13" lengthAdjust="spacing" textLength="59" x="110" y="216.8623">getEmail()</text><polygon fill="#181818" points="253,248.0703,263,252.0703,253,256.0703,257,252.0703" style="stroke:#181818;stroke-width:1.0;"/><line style="stroke:#181818;stroke-width:1.0;" x1="103" x2="259" y1="252.0703" y2="252.0703"/><text fill="#000000" font-family="sans-serif" font-size="13" lengthAdjust="spacing" textLength="80" x="110" y="247.2139">getBirthDate()</text><polygon fill="#181818" points="253,278.4219,263,282.4219,253,286.4219,257,282.4219" style="stroke:#181818;stroke-width:1.0;"/><line style="stroke:#181818;stroke-width:1.0;" x1="103" x2="259" y1="282.4219" y2="282.4219"/><text fill="#000000" font-family="sans-serif" font-size="13" lengthAdjust="spacing" textLength="125" x="110" y="277.5654">getSNSUserNumber()</text><polygon fill="#181818" points="253,308.7734,263,312.7734,253,316.7734,257,312.7734" style="stroke:#181818;stroke-width:1.0;"/><line style="stroke:#181818;stroke-width:1.0;" x1="103" x2="259" y1="312.7734" y2="312.7734"/><text fill="#000000" font-family="sans-serif" font-size="13" lengthAdjust="spacing" textLength="138" x="110" y="307.917">getCitizenCardNumber()</text><polygon fill="#181818" points="439,355.4766,449,359.4766,439,363.4766,443,359.4766" style="stroke:#181818;stroke-width:1.0;"/><line style="stroke:#181818;stroke-width:1.0;stroke-dasharray:2.0,2.0;" x1="103" x2="445" y1="359.4766" y2="359.4766"/><text fill="#000000" font-family="sans-serif" font-size="13" lengthAdjust="spacing" textLength="247" x="110" y="338.2686">create(name, address, sex, phoneNumber,</text><text fill="#000000" font-family="sans-serif" font-size="13" lengthAdjust="spacing" textLength="320" x="114" y="354.6201">email, birthDate, SNSUserNumber, citizenCardNumber)</text><rect fill="#E2E2F0" height="31.6094" rx="2.5" ry="2.5" style="stroke:#181818;stroke-width:0.5;" width="104" x="451" y="324.8672"/><text fill="#000000" font-family="sans-serif" font-size="14" lengthAdjust="spacing" textLength="90" x="458" y="346.4004">:SNSUserDTO</text><polygon fill="#181818" points="11,385.8281,1,389.8281,11,393.8281,7,389.8281" style="stroke:#181818;stroke-width:1.0;"/><line style="stroke:#181818;stroke-width:1.0;stroke-dasharray:2.0,2.0;" x1="5" x2="97" y1="389.8281" y2="389.8281"/><text fill="#000000" font-family="sans-serif" font-size="13" lengthAdjust="spacing" textLength="74" x="17" y="384.9717">snsUserDTO</text><!--MD5=[29c30cbe420f4e6944ee5c1ef62271d3]
@startuml

participant ":SNSUserMapper" as mapper
participant ":SNSUser" as user
participant ":SNSUserDTO" as dto
activate mapper
 -> mapper : toDTO(snsu)
mapper -> user : getName()
mapper -> user : getAddress()
mapper -> user : getSex()
mapper -> user : getPhoneNumber()
mapper -> user : getEmail()
mapper -> user : getBirthDate()
mapper -> user : getSNSUserNumber()
mapper -> user : getCitizenCardNumber()
mapper - -> dto** : create(name, address, sex, phoneNumber, \n email, birthDate, SNSUserNumber, citizenCardNumber)
<- - mapper: snsUserDTO
deactivate mapper

@enduml

PlantUML version 1.2022.4(Sat Apr 09 14:29:17 BST 2022)
(GPL source distribution)
Java Runtime: OpenJDK Runtime Environment
JVM: OpenJDK 64-Bit Server VM
Default Encoding: Cp1252
Language: en
Country: US
--></g></svg>