<?xml version="1.0" encoding="UTF-8" standalone="no"?><svg xmlns="http://www.w3.org/2000/svg" xmlns:xlink="http://www.w3.org/1999/xlink" contentStyleType="text/css" height="340px" preserveAspectRatio="none" style="width:1180px;height:340px;background:#FFFFFF;" version="1.1" viewBox="0 0 1180 340" width="1180px" zoomAndPan="magnify"><defs/><g><!--MD5=[02e4b9b7573f1156f41e60aa5b4e25a4]
class Company--><g id="elem_Company"><rect codeLine="6" fill="#F1F1F1" height="57.6094" id="Company" rx="2.5" ry="2.5" style="stroke:#181818;stroke-width:0.5;" width="92" x="7" y="170.5"/><ellipse cx="22" cy="186.5" fill="#ADD1B2" rx="11" ry="11" style="stroke:#181818;stroke-width:1.0;"/><path d="M24,183 Q24.2031,182.5 24.4375,182.25 Q24.6719,182 24.9375,182 Q25.4063,182 25.7031,182.2813 Q26,182.5625 26,183.2188 L26,184.7813 Q26,185.4375 25.7188,185.7188 Q25.4375,186 25,186 Q24.6094,186 24.3594,185.8281 Q24.1094,185.6563 24,185.2031 Q23.9531,184.8906 23.7813,184.7188 Q23.4688,184.3906 22.9063,184.2031 Q22.3438,184 21.7813,184 Q21.0781,184 20.4844,184.2813 Q19.9063,184.5625 19.4531,185.1875 Q19,185.8125 19,186.6719 L19,187.5938 Q19,188.625 19.8438,189.3125 Q20.6875,190 22.1875,190 Q23.0781,190 23.7031,189.7969 Q24.0625,189.6875 24.4688,189.3281 Q24.7344,189.125 24.875,189.0625 Q25.0156,189 25.1875,189 Q25.5156,189 25.75,189.2656 Q26,189.5156 26,189.875 Q26,190.2188 25.6563,190.625 Q25.1563,191.2188 24.3594,191.5469 Q23.3125,192 22.0313,192 Q20.5313,192 19.3281,191.4063 Q18.3594,190.9375 17.6719,189.9219 Q17,188.9063 17,187.7031 L17,186.6094 Q17,185.3594 17.5938,184.2656 Q18.2031,183.1719 19.25,182.5938 Q20.3125,182 21.5,182 Q22.2188,182 22.8438,182.25 Q23.4688,182.5 24,183 Z " fill="#000000"/><text fill="#000000" font-family="sans-serif" font-size="14" lengthAdjust="spacing" textLength="60" x="36" y="192.2285">Company</text><line style="stroke:#181818;stroke-width:0.5;" x1="8" x2="98" y1="202.5" y2="202.5"/><text fill="#000000" font-family="sans-serif" font-size="14" lengthAdjust="spacing" textLength="78" x="13" y="221.0332">-designation</text></g><!--MD5=[03960189e81aa2c066c762ffabbee709]
class Receptionist--><g id="elem_Receptionist"><rect codeLine="10" fill="#F1F1F1" height="75.2188" id="Receptionist" rx="2.5" ry="2.5" style="stroke:#181818;stroke-width:0.5;" width="110" x="332" y="115"/><ellipse cx="347" cy="131" fill="#ADD1B2" rx="11" ry="11" style="stroke:#181818;stroke-width:1.0;"/><path d="M349,127.5 Q349.2031,127 349.4375,126.75 Q349.6719,126.5 349.9375,126.5 Q350.4063,126.5 350.7031,126.7813 Q351,127.0625 351,127.7188 L351,129.2813 Q351,129.9375 350.7188,130.2188 Q350.4375,130.5 350,130.5 Q349.6094,130.5 349.3594,130.3281 Q349.1094,130.1563 349,129.7031 Q348.9531,129.3906 348.7813,129.2188 Q348.4688,128.8906 347.9063,128.7031 Q347.3438,128.5 346.7813,128.5 Q346.0781,128.5 345.4844,128.7813 Q344.9063,129.0625 344.4531,129.6875 Q344,130.3125 344,131.1719 L344,132.0938 Q344,133.125 344.8438,133.8125 Q345.6875,134.5 347.1875,134.5 Q348.0781,134.5 348.7031,134.2969 Q349.0625,134.1875 349.4688,133.8281 Q349.7344,133.625 349.875,133.5625 Q350.0156,133.5 350.1875,133.5 Q350.5156,133.5 350.75,133.7656 Q351,134.0156 351,134.375 Q351,134.7188 350.6563,135.125 Q350.1563,135.7188 349.3594,136.0469 Q348.3125,136.5 347.0313,136.5 Q345.5313,136.5 344.3281,135.9063 Q343.3594,135.4375 342.6719,134.4219 Q342,133.4063 342,132.2031 L342,131.1094 Q342,129.8594 342.5938,128.7656 Q343.2031,127.6719 344.25,127.0938 Q345.3125,126.5 346.5,126.5 Q347.2188,126.5 347.8438,126.75 Q348.4688,127 349,127.5 Z " fill="#000000"/><text fill="#000000" font-family="sans-serif" font-size="14" lengthAdjust="spacing" textLength="78" x="361" y="136.7285">Receptionist</text><line style="stroke:#181818;stroke-width:0.5;" x1="333" x2="441" y1="147" y2="147"/><text fill="#000000" font-family="sans-serif" font-size="14" lengthAdjust="spacing" textLength="68" x="338" y="165.5332">-username</text><text fill="#000000" font-family="sans-serif" font-size="14" lengthAdjust="spacing" textLength="65" x="338" y="183.1426">-password</text></g><!--MD5=[72be06cc7ae02ccc98efe28a50e62246]
class SNSUser--><g id="elem_SNSUser"><rect codeLine="15" fill="#F1F1F1" height="180.875" id="SNSUser" rx="2.5" ry="2.5" style="stroke:#181818;stroke-width:0.5;" width="136" x="567" y="153"/><ellipse cx="603.6" cy="169" fill="#ADD1B2" rx="11" ry="11" style="stroke:#181818;stroke-width:1.0;"/><path d="M605.6,165.5 Q605.8031,165 606.0375,164.75 Q606.2719,164.5 606.5375,164.5 Q607.0063,164.5 607.3031,164.7813 Q607.6,165.0625 607.6,165.7188 L607.6,167.2813 Q607.6,167.9375 607.3188,168.2188 Q607.0375,168.5 606.6,168.5 Q606.2094,168.5 605.9594,168.3281 Q605.7094,168.1563 605.6,167.7031 Q605.5531,167.3906 605.3813,167.2188 Q605.0688,166.8906 604.5063,166.7031 Q603.9438,166.5 603.3813,166.5 Q602.6781,166.5 602.0844,166.7813 Q601.5063,167.0625 601.0531,167.6875 Q600.6,168.3125 600.6,169.1719 L600.6,170.0938 Q600.6,171.125 601.4438,171.8125 Q602.2875,172.5 603.7875,172.5 Q604.6781,172.5 605.3031,172.2969 Q605.6625,172.1875 606.0688,171.8281 Q606.3344,171.625 606.475,171.5625 Q606.6156,171.5 606.7875,171.5 Q607.1156,171.5 607.35,171.7656 Q607.6,172.0156 607.6,172.375 Q607.6,172.7188 607.2563,173.125 Q606.7563,173.7188 605.9594,174.0469 Q604.9125,174.5 603.6313,174.5 Q602.1313,174.5 600.9281,173.9063 Q599.9594,173.4375 599.2719,172.4219 Q598.6,171.4063 598.6,170.2031 L598.6,169.1094 Q598.6,167.8594 599.1938,166.7656 Q599.8031,165.6719 600.85,165.0938 Q601.9125,164.5 603.1,164.5 Q603.8188,164.5 604.4438,164.75 Q605.0688,165 605.6,165.5 Z " fill="#000000"/><text fill="#000000" font-family="sans-serif" font-size="14" lengthAdjust="spacing" textLength="56" x="622.4" y="174.7285">SNSUser</text><line style="stroke:#181818;stroke-width:0.5;" x1="568" x2="702" y1="185" y2="185"/><text fill="#000000" font-family="sans-serif" font-size="14" lengthAdjust="spacing" textLength="40" x="573" y="203.5332">-name</text><text fill="#000000" font-family="sans-serif" font-size="14" lengthAdjust="spacing" textLength="56" x="573" y="221.1426">-address</text><text fill="#000000" font-family="sans-serif" font-size="14" lengthAdjust="spacing" textLength="26" x="573" y="238.752">-sex</text><text fill="#000000" font-family="sans-serif" font-size="14" lengthAdjust="spacing" textLength="94" x="573" y="256.3613">-phoneNumber</text><text fill="#000000" font-family="sans-serif" font-size="14" lengthAdjust="spacing" textLength="38" x="573" y="273.9707">-email</text><text fill="#000000" font-family="sans-serif" font-size="14" lengthAdjust="spacing" textLength="63" x="573" y="291.5801">-birthDate</text><text fill="#000000" font-family="sans-serif" font-size="14" lengthAdjust="spacing" textLength="81" x="573" y="309.1895">-SNSNumber</text><text fill="#000000" font-family="sans-serif" font-size="14" lengthAdjust="spacing" textLength="124" x="573" y="326.7988">-citizenCardNumber</text></g><!--MD5=[3fd616f346a44cd59a91eb10b19e157c]
class User--><g id="elem_User"><rect codeLine="26" fill="#F1F1F1" height="92.8281" id="User" rx="2.5" ry="2.5" style="stroke:#181818;stroke-width:0.5;" width="80" x="1093" y="146"/><ellipse cx="1116.55" cy="162" fill="#ADD1B2" rx="11" ry="11" style="stroke:#181818;stroke-width:1.0;"/><path d="M1118.55,158.5 Q1118.7531,158 1118.9875,157.75 Q1119.2219,157.5 1119.4875,157.5 Q1119.9563,157.5 1120.2531,157.7813 Q1120.55,158.0625 1120.55,158.7188 L1120.55,160.2813 Q1120.55,160.9375 1120.2688,161.2188 Q1119.9875,161.5 1119.55,161.5 Q1119.1594,161.5 1118.9094,161.3281 Q1118.6594,161.1563 1118.55,160.7031 Q1118.5031,160.3906 1118.3313,160.2188 Q1118.0188,159.8906 1117.4563,159.7031 Q1116.8938,159.5 1116.3313,159.5 Q1115.6281,159.5 1115.0344,159.7813 Q1114.4563,160.0625 1114.0031,160.6875 Q1113.55,161.3125 1113.55,162.1719 L1113.55,163.0938 Q1113.55,164.125 1114.3938,164.8125 Q1115.2375,165.5 1116.7375,165.5 Q1117.6281,165.5 1118.2531,165.2969 Q1118.6125,165.1875 1119.0188,164.8281 Q1119.2844,164.625 1119.425,164.5625 Q1119.5656,164.5 1119.7375,164.5 Q1120.0656,164.5 1120.3,164.7656 Q1120.55,165.0156 1120.55,165.375 Q1120.55,165.7188 1120.2063,166.125 Q1119.7063,166.7188 1118.9094,167.0469 Q1117.8625,167.5 1116.5813,167.5 Q1115.0813,167.5 1113.8781,166.9063 Q1112.9094,166.4375 1112.2219,165.4219 Q1111.55,164.4063 1111.55,163.2031 L1111.55,162.1094 Q1111.55,160.8594 1112.1438,159.7656 Q1112.7531,158.6719 1113.8,158.0938 Q1114.8625,157.5 1116.05,157.5 Q1116.7688,157.5 1117.3938,157.75 Q1118.0188,158 1118.55,158.5 Z " fill="#000000"/><text fill="#000000" font-family="sans-serif" font-size="14" lengthAdjust="spacing" textLength="29" x="1132.45" y="167.7285">User</text><line style="stroke:#181818;stroke-width:0.5;" x1="1094" x2="1172" y1="178" y2="178"/><text fill="#000000" font-family="sans-serif" font-size="14" lengthAdjust="spacing" textLength="68" x="1099" y="196.5332">-username</text><text fill="#000000" font-family="sans-serif" font-size="14" lengthAdjust="spacing" textLength="65" x="1099" y="214.1426">-password</text><text fill="#000000" font-family="sans-serif" font-size="14" lengthAdjust="spacing" textLength="38" x="1099" y="231.752">-email</text></g><!--MD5=[7421f545a0d8420c5bec41e74b387d9c]
class Employee--><g id="elem_Employee"><rect codeLine="32" fill="#F1F1F1" height="163.2656" id="Employee" rx="2.5" ry="2.5" style="stroke:#181818;stroke-width:0.5;" width="136" x="764" y="7"/><ellipse cx="797.9" cy="23" fill="#ADD1B2" rx="11" ry="11" style="stroke:#181818;stroke-width:1.0;"/><path d="M799.9,19.5 Q800.1031,19 800.3375,18.75 Q800.5719,18.5 800.8375,18.5 Q801.3063,18.5 801.6031,18.7813 Q801.9,19.0625 801.9,19.7188 L801.9,21.2813 Q801.9,21.9375 801.6188,22.2188 Q801.3375,22.5 800.9,22.5 Q800.5094,22.5 800.2594,22.3281 Q800.0094,22.1563 799.9,21.7031 Q799.8531,21.3906 799.6813,21.2188 Q799.3688,20.8906 798.8063,20.7031 Q798.2438,20.5 797.6813,20.5 Q796.9781,20.5 796.3844,20.7813 Q795.8063,21.0625 795.3531,21.6875 Q794.9,22.3125 794.9,23.1719 L794.9,24.0938 Q794.9,25.125 795.7438,25.8125 Q796.5875,26.5 798.0875,26.5 Q798.9781,26.5 799.6031,26.2969 Q799.9625,26.1875 800.3688,25.8281 Q800.6344,25.625 800.775,25.5625 Q800.9156,25.5 801.0875,25.5 Q801.4156,25.5 801.65,25.7656 Q801.9,26.0156 801.9,26.375 Q801.9,26.7188 801.5563,27.125 Q801.0563,27.7188 800.2594,28.0469 Q799.2125,28.5 797.9313,28.5 Q796.4313,28.5 795.2281,27.9063 Q794.2594,27.4375 793.5719,26.4219 Q792.9,25.4063 792.9,24.2031 L792.9,23.1094 Q792.9,21.8594 793.4938,20.7656 Q794.1031,19.6719 795.15,19.0938 Q796.2125,18.5 797.4,18.5 Q798.1188,18.5 798.7438,18.75 Q799.3688,19 799.9,19.5 Z " fill="#000000"/><text fill="#000000" font-family="sans-serif" font-size="14" lengthAdjust="spacing" textLength="62" x="816.1" y="28.7285">Employee</text><line style="stroke:#181818;stroke-width:0.5;" x1="765" x2="899" y1="39" y2="39"/><text fill="#000000" font-family="sans-serif" font-size="14" lengthAdjust="spacing" textLength="40" x="770" y="57.5332">-name</text><text fill="#000000" font-family="sans-serif" font-size="14" lengthAdjust="spacing" textLength="38" x="770" y="75.1426">-email</text><text fill="#000000" font-family="sans-serif" font-size="14" lengthAdjust="spacing" textLength="56" x="770" y="92.752">-address</text><text fill="#000000" font-family="sans-serif" font-size="14" lengthAdjust="spacing" textLength="94" x="770" y="110.3613">-phoneNumber</text><text fill="#000000" font-family="sans-serif" font-size="14" lengthAdjust="spacing" textLength="124" x="770" y="127.9707">-citizenCardNumber</text><text fill="#000000" font-family="sans-serif" font-size="14" lengthAdjust="spacing" textLength="79" x="770" y="145.5801">-employeeID</text><text fill="#000000" font-family="sans-serif" font-size="14" lengthAdjust="spacing" textLength="34" x="770" y="163.1895">-Role</text></g><!--MD5=[f51b69263ffc056cc84c9ec54d5aea1b]
link SNSUser to User--><g id="link_SNSUser_User"><path codeLine="43" d="M703.15,236.6 C808.22,225.79 1008.19,205.23 1092.72,196.54 " fill="none" id="SNSUser-User" style="stroke:#181818;stroke-width:1.0;"/><polygon fill="#000000" points="939.9738,200.1643,930.6755,198.1661,931.2768,204.0131,939.9738,200.1643" style="stroke:#000000;stroke-width:1.0;"/><text fill="#000000" font-family="sans-serif" font-size="13" lengthAdjust="spacing" textLength="21" x="944" y="205.9951">is a</text><text fill="#000000" font-family="sans-serif" font-size="13" lengthAdjust="spacing" textLength="5" x="710.8773" y="250.2415">*</text><text fill="#000000" font-family="sans-serif" font-size="13" lengthAdjust="spacing" textLength="7" x="1077.9217" y="212.2264">1</text></g><!--MD5=[06bb7d2a85a007b79d10922b2d5e4cdd]
link Receptionist to Employee--><g id="link_Receptionist_Employee"><path codeLine="44" d="M442.32,144.65 C523.42,132.94 675.99,110.89 763.93,98.19 " fill="none" id="Receptionist-Employee" style="stroke:#181818;stroke-width:1.0;"/><polygon fill="#000000" points="626.9486,97.9609,617.5763,96.3454,618.4167,102.1629,626.9486,97.9609" style="stroke:#000000;stroke-width:1.0;"/><text fill="#000000" font-family="sans-serif" font-size="13" lengthAdjust="spacing" textLength="21" x="631" y="103.9951">is a</text><text fill="#000000" font-family="sans-serif" font-size="13" lengthAdjust="spacing" textLength="5" x="450.0896" y="158.1742">*</text><text fill="#000000" font-family="sans-serif" font-size="13" lengthAdjust="spacing" textLength="7" x="749.102" y="113.6247">1</text></g><!--MD5=[22fb9506fac029fc1d2ae00f0eb8d606]
link Employee to User--><g id="link_Employee_User"><path codeLine="45" d="M900.1,111.84 C959.33,132.44 1043.65,161.77 1092.61,178.8 " fill="none" id="Employee-User" style="stroke:#181818;stroke-width:1.0;"/><polygon fill="#000000" points="1005.7225,138.3184,998.1449,132.5711,996.2139,138.1227,1005.7225,138.3184" style="stroke:#000000;stroke-width:1.0;"/><text fill="#000000" font-family="sans-serif" font-size="13" lengthAdjust="spacing" textLength="21" x="1010" y="141.9951">is a</text><text fill="#000000" font-family="sans-serif" font-size="13" lengthAdjust="spacing" textLength="5" x="907.8219" y="128.7676">*</text><text fill="#000000" font-family="sans-serif" font-size="13" lengthAdjust="spacing" textLength="7" x="1078.0664" y="191.3604">1</text></g><!--MD5=[3861bdece64e1cdd9c1d7c0b91465d40]
link SNSUser to Company--><g id="link_SNSUser_Company"><path codeLine="48" d="M566.77,238.4 C447.16,229.33 200.44,210.61 99.03,202.92 " fill="none" id="SNSUser-Company" style="stroke:#181818;stroke-width:1.0;"/><polygon fill="#000000" points="242.0143,204.2976,250.8112,207.9122,251.2558,202.0512,242.0143,204.2976" style="stroke:#000000;stroke-width:1.0;"/><text fill="#000000" font-family="sans-serif" font-size="13" lengthAdjust="spacing" textLength="45" x="256" y="209.9951">is client</text><text fill="#000000" font-family="sans-serif" font-size="13" lengthAdjust="spacing" textLength="5" x="554.0339" y="252.2384">*</text><text fill="#000000" font-family="sans-serif" font-size="13" lengthAdjust="spacing" textLength="7" x="106.9238" y="218.2943">1</text></g><!--MD5=[5448e79142bdfcbfebd9929e0faf45a6]
link Company to Receptionist--><g id="link_Company_Receptionist"><path codeLine="49" d="M99.12,193.11 C159.67,184.54 267.07,169.34 331.89,160.16 " fill="none" id="Company-Receptionist" style="stroke:#181818;stroke-width:1.0;"/><polygon fill="#000000" points="169.9506,166.975,160.5829,165.3328,161.4068,171.1527,169.9506,166.975" style="stroke:#000000;stroke-width:1.0;"/><text fill="#000000" font-family="sans-serif" font-size="13" lengthAdjust="spacing" textLength="37" x="174" y="172.9951">knows</text><text fill="#000000" font-family="sans-serif" font-size="13" lengthAdjust="spacing" textLength="7" x="107.0282" y="206.9209">1</text><text fill="#000000" font-family="sans-serif" font-size="13" lengthAdjust="spacing" textLength="5" x="319.1487" y="175.7684">*</text></g><!--MD5=[7690a4971bd8576b261a40a0340b8203]
link Receptionist to SNSUser--><g id="link_Receptionist_SNSUser"><path codeLine="52" d="M442.29,172.58 C478.94,186.14 527.56,204.13 566.67,218.6 " fill="none" id="Receptionist-SNSUser" style="stroke:#181818;stroke-width:1.0;"/><polygon fill="#000000" points="481.6893,177.4108,474.2261,171.5158,472.1864,177.0284,481.6893,177.4108" style="stroke:#000000;stroke-width:1.0;"/><text fill="#000000" font-family="sans-serif" font-size="13" lengthAdjust="spacing" textLength="50" x="486" y="180.9951">registers</text><text fill="#000000" font-family="sans-serif" font-size="13" lengthAdjust="spacing" textLength="7" x="449.8225" y="189.6814">1</text><text fill="#000000" font-family="sans-serif" font-size="13" lengthAdjust="spacing" textLength="5" x="553.923" y="230.2727">*</text></g><!--MD5=[33410d3ff0bc10a77232ba803e3de7f6]
@startuml
hide methods
left to right direction
skinparam classAttributeIconSize 0


class Company {
  -designation
}

class Receptionist {
  -username
  -password
}

class SNSUser {
  -name
  -address
  -sex
  -phoneNumber
  -email
  -birthDate
  -SNSNumber
  -citizenCardNumber
}

class User{
-username
-password
-email
}

class Employee{
 -name
 -email
 -address
 -phoneNumber
 -citizenCardNumber
 -employeeID
 -Role
}


SNSUser "*"- - -"1" User : is a >
Receptionist "*"- - -"1"  Employee : is a >
Employee "*"- - -"1" User : is a >


SNSUser "*"- - -"1" Company : is client >
Company "1"- - -"*" Receptionist : knows >


Receptionist "1"- -"*" SNSUser : registers >







@enduml

PlantUML version 1.2022.4(Sat Apr 09 14:29:17 BST 2022)
(GPL source distribution)
Java Runtime: OpenJDK Runtime Environment
JVM: OpenJDK 64-Bit Server VM
Default Encoding: Cp1252
Language: en
Country: US
--></g></svg>