<?xml version="1.0" encoding="UTF-8" standalone="no"?><svg xmlns="http://www.w3.org/2000/svg" xmlns:xlink="http://www.w3.org/1999/xlink" contentStyleType="text/css" height="635px" preserveAspectRatio="none" style="width:1703px;height:635px;background:#FFFFFF;" version="1.1" viewBox="0 0 1703 635" width="1703px" zoomAndPan="magnify"><defs/><g><!--MD5=[e51f1aa3cba897edd46f2fedbd5a5cd6]
class RegisterSNSUserUI--><g id="elem_RegisterSNSUserUI"><rect codeLine="4" fill="#F1F1F1" height="65.6094" id="RegisterSNSUserUI" rx="2.5" ry="2.5" style="stroke:#181818;stroke-width:0.5;" width="225" x="7" y="282"/><ellipse cx="54.75" cy="298" fill="#ADD1B2" rx="11" ry="11" style="stroke:#181818;stroke-width:1.0;"/><path d="M56.75,294.5 Q56.9531,294 57.1875,293.75 Q57.4219,293.5 57.6875,293.5 Q58.1563,293.5 58.4531,293.7813 Q58.75,294.0625 58.75,294.7188 L58.75,296.2813 Q58.75,296.9375 58.4688,297.2188 Q58.1875,297.5 57.75,297.5 Q57.3594,297.5 57.1094,297.3281 Q56.8594,297.1563 56.75,296.7031 Q56.7031,296.3906 56.5313,296.2188 Q56.2188,295.8906 55.6563,295.7031 Q55.0938,295.5 54.5313,295.5 Q53.8281,295.5 53.2344,295.7813 Q52.6563,296.0625 52.2031,296.6875 Q51.75,297.3125 51.75,298.1719 L51.75,299.0938 Q51.75,300.125 52.5938,300.8125 Q53.4375,301.5 54.9375,301.5 Q55.8281,301.5 56.4531,301.2969 Q56.8125,301.1875 57.2188,300.8281 Q57.4844,300.625 57.625,300.5625 Q57.7656,300.5 57.9375,300.5 Q58.2656,300.5 58.5,300.7656 Q58.75,301.0156 58.75,301.375 Q58.75,301.7188 58.4063,302.125 Q57.9063,302.7188 57.1094,303.0469 Q56.0625,303.5 54.7813,303.5 Q53.2813,303.5 52.0781,302.9063 Q51.1094,302.4375 50.4219,301.4219 Q49.75,300.4063 49.75,299.2031 L49.75,298.1094 Q49.75,296.8594 50.3438,295.7656 Q50.9531,294.6719 52,294.0938 Q53.0625,293.5 54.25,293.5 Q54.9688,293.5 55.5938,293.75 Q56.2188,294 56.75,294.5 Z " fill="#000000"/><text fill="#000000" font-family="sans-serif" font-size="14" lengthAdjust="spacing" textLength="121" x="75.25" y="303.7285">RegisterSNSUserUI</text><line style="stroke:#181818;stroke-width:0.5;" x1="8" x2="231" y1="314" y2="314"/><text fill="#000000" font-family="sans-serif" font-size="14" lengthAdjust="spacing" textLength="213" x="13" y="332.5332">SpecifyNewSNSUserController ctrl</text><line style="stroke:#181818;stroke-width:0.5;" x1="8" x2="231" y1="339.6094" y2="339.6094"/></g><!--MD5=[be89e96fded54ba83d4eaa5710b97d82]
class RegisterSNSUserController--><g id="elem_RegisterSNSUserController"><rect codeLine="7" fill="#F1F1F1" height="153.6563" id="RegisterSNSUserController" rx="2.5" ry="2.5" style="stroke:#181818;stroke-width:0.5;" width="349" x="293" y="238"/><ellipse cx="377.75" cy="254" fill="#ADD1B2" rx="11" ry="11" style="stroke:#181818;stroke-width:1.0;"/><path d="M379.75,250.5 Q379.9531,250 380.1875,249.75 Q380.4219,249.5 380.6875,249.5 Q381.1563,249.5 381.4531,249.7813 Q381.75,250.0625 381.75,250.7188 L381.75,252.2813 Q381.75,252.9375 381.4688,253.2188 Q381.1875,253.5 380.75,253.5 Q380.3594,253.5 380.1094,253.3281 Q379.8594,253.1563 379.75,252.7031 Q379.7031,252.3906 379.5313,252.2188 Q379.2188,251.8906 378.6563,251.7031 Q378.0938,251.5 377.5313,251.5 Q376.8281,251.5 376.2344,251.7813 Q375.6563,252.0625 375.2031,252.6875 Q374.75,253.3125 374.75,254.1719 L374.75,255.0938 Q374.75,256.125 375.5938,256.8125 Q376.4375,257.5 377.9375,257.5 Q378.8281,257.5 379.4531,257.2969 Q379.8125,257.1875 380.2188,256.8281 Q380.4844,256.625 380.625,256.5625 Q380.7656,256.5 380.9375,256.5 Q381.2656,256.5 381.5,256.7656 Q381.75,257.0156 381.75,257.375 Q381.75,257.7188 381.4063,258.125 Q380.9063,258.7188 380.1094,259.0469 Q379.0625,259.5 377.7813,259.5 Q376.2813,259.5 375.0781,258.9063 Q374.1094,258.4375 373.4219,257.4219 Q372.75,256.4063 372.75,255.2031 L372.75,254.1094 Q372.75,252.8594 373.3438,251.7656 Q373.9531,250.6719 375,250.0938 Q376.0625,249.5 377.25,249.5 Q377.9688,249.5 378.5938,249.75 Q379.2188,250 379.75,250.5 Z " fill="#000000"/><text fill="#000000" font-family="sans-serif" font-size="14" lengthAdjust="spacing" textLength="171" x="398.25" y="259.7285">RegisterSNSUserController</text><line style="stroke:#181818;stroke-width:0.5;" x1="294" x2="641" y1="270" y2="270"/><text fill="#000000" font-family="sans-serif" font-size="14" lengthAdjust="spacing" textLength="121" x="299" y="288.5332">Company company</text><text fill="#000000" font-family="sans-serif" font-size="14" lengthAdjust="spacing" textLength="90" x="299" y="306.1426">SNSUser snsu</text><line style="stroke:#181818;stroke-width:0.5;" x1="294" x2="641" y1="313.2188" y2="313.2188"/><text fill="#000000" font-family="sans-serif" font-size="14" lengthAdjust="spacing" textLength="333" x="299" y="331.752">+createSNSUser(name, address, sex, phoneNumber,</text><text fill="#000000" font-family="sans-serif" font-size="14" lengthAdjust="spacing" textLength="315" x="299" y="349.3613">email, birthDate, SNSNumber, citizenCardNumber)</text><text fill="#000000" font-family="sans-serif" font-size="14" lengthAdjust="spacing" textLength="104" x="299" y="366.9707">+saveSNSUser()</text><text fill="#000000" font-family="sans-serif" font-size="14" lengthAdjust="spacing" textLength="106" x="299" y="384.5801">+showSNSUser()</text></g><!--MD5=[a5ad3856b0c65e07b10297b4477b22bb]
class SNSUserStore--><g id="elem_SNSUserStore"><rect codeLine="14" fill="#F1F1F1" height="153.6563" id="SNSUserStore" rx="2.5" ry="2.5" style="stroke:#181818;stroke-width:0.5;" width="349" x="1077" y="7"/><ellipse cx="1202.25" cy="23" fill="#ADD1B2" rx="11" ry="11" style="stroke:#181818;stroke-width:1.0;"/><path d="M1204.25,19.5 Q1204.4531,19 1204.6875,18.75 Q1204.9219,18.5 1205.1875,18.5 Q1205.6563,18.5 1205.9531,18.7813 Q1206.25,19.0625 1206.25,19.7188 L1206.25,21.2813 Q1206.25,21.9375 1205.9688,22.2188 Q1205.6875,22.5 1205.25,22.5 Q1204.8594,22.5 1204.6094,22.3281 Q1204.3594,22.1563 1204.25,21.7031 Q1204.2031,21.3906 1204.0313,21.2188 Q1203.7188,20.8906 1203.1563,20.7031 Q1202.5938,20.5 1202.0313,20.5 Q1201.3281,20.5 1200.7344,20.7813 Q1200.1563,21.0625 1199.7031,21.6875 Q1199.25,22.3125 1199.25,23.1719 L1199.25,24.0938 Q1199.25,25.125 1200.0938,25.8125 Q1200.9375,26.5 1202.4375,26.5 Q1203.3281,26.5 1203.9531,26.2969 Q1204.3125,26.1875 1204.7188,25.8281 Q1204.9844,25.625 1205.125,25.5625 Q1205.2656,25.5 1205.4375,25.5 Q1205.7656,25.5 1206,25.7656 Q1206.25,26.0156 1206.25,26.375 Q1206.25,26.7188 1205.9063,27.125 Q1205.4063,27.7188 1204.6094,28.0469 Q1203.5625,28.5 1202.2813,28.5 Q1200.7813,28.5 1199.5781,27.9063 Q1198.6094,27.4375 1197.9219,26.4219 Q1197.25,25.4063 1197.25,24.2031 L1197.25,23.1094 Q1197.25,21.8594 1197.8438,20.7656 Q1198.4531,19.6719 1199.5,19.0938 Q1200.5625,18.5 1201.75,18.5 Q1202.4688,18.5 1203.0938,18.75 Q1203.7188,19 1204.25,19.5 Z " fill="#000000"/><text fill="#000000" font-family="sans-serif" font-size="14" lengthAdjust="spacing" textLength="90" x="1222.75" y="28.7285">SNSUserStore</text><line style="stroke:#181818;stroke-width:0.5;" x1="1078" x2="1425" y1="39" y2="39"/><text fill="#000000" font-family="sans-serif" font-size="14" lengthAdjust="spacing" textLength="171" x="1083" y="57.5332">List&lt;SNSUser&gt; snsUserList</text><line style="stroke:#181818;stroke-width:0.5;" x1="1078" x2="1425" y1="64.6094" y2="64.6094"/><text fill="#000000" font-family="sans-serif" font-size="14" lengthAdjust="spacing" textLength="333" x="1083" y="83.1426">+createSNSUser(name, address, sex, phoneNumber,</text><text fill="#000000" font-family="sans-serif" font-size="14" lengthAdjust="spacing" textLength="315" x="1083" y="100.752">email, birthDate, SNSNumber, citizenCardNumber)</text><text fill="#000000" font-family="sans-serif" font-size="14" lengthAdjust="spacing" textLength="134" x="1083" y="118.3613">+saveSNSUser(snsu)</text><text fill="#000000" font-family="sans-serif" font-size="14" lengthAdjust="spacing" textLength="153" x="1083" y="135.9707">+validateSNSUser(snsu)</text><text fill="#000000" font-family="sans-serif" font-size="14" lengthAdjust="spacing" textLength="116" x="1083" y="153.5801">+getSNSUserList()</text></g><!--MD5=[02e4b9b7573f1156f41e60aa5b4e25a4]
class Company--><g id="elem_Company"><rect codeLine="22" fill="#F1F1F1" height="118.4375" id="Company" rx="2.5" ry="2.5" style="stroke:#181818;stroke-width:0.5;" width="191" x="703" y="144"/><ellipse cx="764.25" cy="160" fill="#ADD1B2" rx="11" ry="11" style="stroke:#181818;stroke-width:1.0;"/><path d="M766.25,156.5 Q766.4531,156 766.6875,155.75 Q766.9219,155.5 767.1875,155.5 Q767.6563,155.5 767.9531,155.7813 Q768.25,156.0625 768.25,156.7188 L768.25,158.2813 Q768.25,158.9375 767.9688,159.2188 Q767.6875,159.5 767.25,159.5 Q766.8594,159.5 766.6094,159.3281 Q766.3594,159.1563 766.25,158.7031 Q766.2031,158.3906 766.0313,158.2188 Q765.7188,157.8906 765.1563,157.7031 Q764.5938,157.5 764.0313,157.5 Q763.3281,157.5 762.7344,157.7813 Q762.1563,158.0625 761.7031,158.6875 Q761.25,159.3125 761.25,160.1719 L761.25,161.0938 Q761.25,162.125 762.0938,162.8125 Q762.9375,163.5 764.4375,163.5 Q765.3281,163.5 765.9531,163.2969 Q766.3125,163.1875 766.7188,162.8281 Q766.9844,162.625 767.125,162.5625 Q767.2656,162.5 767.4375,162.5 Q767.7656,162.5 768,162.7656 Q768.25,163.0156 768.25,163.375 Q768.25,163.7188 767.9063,164.125 Q767.4063,164.7188 766.6094,165.0469 Q765.5625,165.5 764.2813,165.5 Q762.7813,165.5 761.5781,164.9063 Q760.6094,164.4375 759.9219,163.4219 Q759.25,162.4063 759.25,161.2031 L759.25,160.1094 Q759.25,158.8594 759.8438,157.7656 Q760.4531,156.6719 761.5,156.0938 Q762.5625,155.5 763.75,155.5 Q764.4688,155.5 765.0938,155.75 Q765.7188,156 766.25,156.5 Z " fill="#000000"/><text fill="#000000" font-family="sans-serif" font-size="14" lengthAdjust="spacing" textLength="60" x="784.75" y="165.7285">Company</text><line style="stroke:#181818;stroke-width:0.5;" x1="704" x2="893" y1="176" y2="176"/><text fill="#000000" font-family="sans-serif" font-size="14" lengthAdjust="spacing" textLength="179" x="709" y="194.5332">SNSUserStore snsUserStore</text><text fill="#000000" font-family="sans-serif" font-size="14" lengthAdjust="spacing" textLength="157" x="709" y="212.1426">AuthFacade authFacade</text><line style="stroke:#181818;stroke-width:0.5;" x1="704" x2="893" y1="219.2188" y2="219.2188"/><text fill="#000000" font-family="sans-serif" font-size="14" lengthAdjust="spacing" textLength="128" x="709" y="237.752">+getSNSUserStore()</text><text fill="#000000" font-family="sans-serif" font-size="14" lengthAdjust="spacing" textLength="115" x="709" y="255.3613">+getAuthFacade()</text></g><!--MD5=[72be06cc7ae02ccc98efe28a50e62246]
class SNSUser--><g id="elem_SNSUser"><rect codeLine="29" fill="#F1F1F1" height="188.875" id="SNSUser" rx="2.5" ry="2.5" style="stroke:#181818;stroke-width:0.5;" width="136" x="1560" y="220.5"/><ellipse cx="1596.6" cy="236.5" fill="#ADD1B2" rx="11" ry="11" style="stroke:#181818;stroke-width:1.0;"/><path d="M1598.6,233 Q1598.8031,232.5 1599.0375,232.25 Q1599.2719,232 1599.5375,232 Q1600.0063,232 1600.3031,232.2813 Q1600.6,232.5625 1600.6,233.2188 L1600.6,234.7813 Q1600.6,235.4375 1600.3188,235.7188 Q1600.0375,236 1599.6,236 Q1599.2094,236 1598.9594,235.8281 Q1598.7094,235.6563 1598.6,235.2031 Q1598.5531,234.8906 1598.3813,234.7188 Q1598.0688,234.3906 1597.5063,234.2031 Q1596.9438,234 1596.3813,234 Q1595.6781,234 1595.0844,234.2813 Q1594.5063,234.5625 1594.0531,235.1875 Q1593.6,235.8125 1593.6,236.6719 L1593.6,237.5938 Q1593.6,238.625 1594.4438,239.3125 Q1595.2875,240 1596.7875,240 Q1597.6781,240 1598.3031,239.7969 Q1598.6625,239.6875 1599.0688,239.3281 Q1599.3344,239.125 1599.475,239.0625 Q1599.6156,239 1599.7875,239 Q1600.1156,239 1600.35,239.2656 Q1600.6,239.5156 1600.6,239.875 Q1600.6,240.2188 1600.2563,240.625 Q1599.7563,241.2188 1598.9594,241.5469 Q1597.9125,242 1596.6313,242 Q1595.1313,242 1593.9281,241.4063 Q1592.9594,240.9375 1592.2719,239.9219 Q1591.6,238.9063 1591.6,237.7031 L1591.6,236.6094 Q1591.6,235.3594 1592.1938,234.2656 Q1592.8031,233.1719 1593.85,232.5938 Q1594.9125,232 1596.1,232 Q1596.8188,232 1597.4438,232.25 Q1598.0688,232.5 1598.6,233 Z " fill="#000000"/><text fill="#000000" font-family="sans-serif" font-size="14" lengthAdjust="spacing" textLength="56" x="1615.4" y="242.2285">SNSUser</text><line style="stroke:#181818;stroke-width:0.5;" x1="1561" x2="1695" y1="252.5" y2="252.5"/><text fill="#000000" font-family="sans-serif" font-size="14" lengthAdjust="spacing" textLength="40" x="1566" y="271.0332">-name</text><text fill="#000000" font-family="sans-serif" font-size="14" lengthAdjust="spacing" textLength="38" x="1566" y="288.6426">-email</text><text fill="#000000" font-family="sans-serif" font-size="14" lengthAdjust="spacing" textLength="56" x="1566" y="306.252">-address</text><text fill="#000000" font-family="sans-serif" font-size="14" lengthAdjust="spacing" textLength="94" x="1566" y="323.8613">-phoneNumber</text><text fill="#000000" font-family="sans-serif" font-size="14" lengthAdjust="spacing" textLength="50" x="1566" y="341.4707">-gender</text><text fill="#000000" font-family="sans-serif" font-size="14" lengthAdjust="spacing" textLength="63" x="1566" y="359.0801">-birthDate</text><text fill="#000000" font-family="sans-serif" font-size="14" lengthAdjust="spacing" textLength="81" x="1566" y="376.6895">-SNSNumber</text><text fill="#000000" font-family="sans-serif" font-size="14" lengthAdjust="spacing" textLength="124" x="1566" y="394.2988">-citizenCardNumber</text><line style="stroke:#181818;stroke-width:0.5;" x1="1561" x2="1695" y1="401.375" y2="401.375"/></g><!--MD5=[8ae808d068a8995f06b9b3ec51357f0b]
class AuthFacade--><g id="elem_AuthFacade"><rect codeLine="40" fill="#F1F1F1" height="65.6094" id="AuthFacade" rx="2.5" ry="2.5" style="stroke:#181818;stroke-width:0.5;" width="292" x="1105.5" y="196"/><ellipse cx="1208.75" cy="212" fill="#ADD1B2" rx="11" ry="11" style="stroke:#181818;stroke-width:1.0;"/><path d="M1210.75,208.5 Q1210.9531,208 1211.1875,207.75 Q1211.4219,207.5 1211.6875,207.5 Q1212.1563,207.5 1212.4531,207.7813 Q1212.75,208.0625 1212.75,208.7188 L1212.75,210.2813 Q1212.75,210.9375 1212.4688,211.2188 Q1212.1875,211.5 1211.75,211.5 Q1211.3594,211.5 1211.1094,211.3281 Q1210.8594,211.1563 1210.75,210.7031 Q1210.7031,210.3906 1210.5313,210.2188 Q1210.2188,209.8906 1209.6563,209.7031 Q1209.0938,209.5 1208.5313,209.5 Q1207.8281,209.5 1207.2344,209.7813 Q1206.6563,210.0625 1206.2031,210.6875 Q1205.75,211.3125 1205.75,212.1719 L1205.75,213.0938 Q1205.75,214.125 1206.5938,214.8125 Q1207.4375,215.5 1208.9375,215.5 Q1209.8281,215.5 1210.4531,215.2969 Q1210.8125,215.1875 1211.2188,214.8281 Q1211.4844,214.625 1211.625,214.5625 Q1211.7656,214.5 1211.9375,214.5 Q1212.2656,214.5 1212.5,214.7656 Q1212.75,215.0156 1212.75,215.375 Q1212.75,215.7188 1212.4063,216.125 Q1211.9063,216.7188 1211.1094,217.0469 Q1210.0625,217.5 1208.7813,217.5 Q1207.2813,217.5 1206.0781,216.9063 Q1205.1094,216.4375 1204.4219,215.4219 Q1203.75,214.4063 1203.75,213.2031 L1203.75,212.1094 Q1203.75,210.8594 1204.3438,209.7656 Q1204.9531,208.6719 1206,208.0938 Q1207.0625,207.5 1208.25,207.5 Q1208.9688,207.5 1209.5938,207.75 Q1210.2188,208 1210.75,208.5 Z " fill="#000000"/><text fill="#000000" font-family="sans-serif" font-size="14" lengthAdjust="spacing" textLength="77" x="1229.25" y="217.7285">AuthFacade</text><line style="stroke:#181818;stroke-width:0.5;" x1="1106.5" x2="1396.5" y1="228" y2="228"/><line style="stroke:#181818;stroke-width:0.5;" x1="1106.5" x2="1396.5" y1="236" y2="236"/><text fill="#000000" font-family="sans-serif" font-size="14" lengthAdjust="spacing" textLength="280" x="1111.5" y="254.5332">+addUserWithRole(name, email, pwd, roleId)</text></g><!--MD5=[ca97d4c77a459a6783a95679b9821773]
class SNSUserMapper--><g id="elem_SNSUserMapper"><rect codeLine="44" fill="#F1F1F1" height="83.2188" id="SNSUserMapper" rx="2.5" ry="2.5" style="stroke:#181818;stroke-width:0.5;" width="136" x="730.5" y="368.5"/><ellipse cx="745.5" cy="384.5" fill="#ADD1B2" rx="11" ry="11" style="stroke:#181818;stroke-width:1.0;"/><path d="M747.5,381 Q747.7031,380.5 747.9375,380.25 Q748.1719,380 748.4375,380 Q748.9063,380 749.2031,380.2813 Q749.5,380.5625 749.5,381.2188 L749.5,382.7813 Q749.5,383.4375 749.2188,383.7188 Q748.9375,384 748.5,384 Q748.1094,384 747.8594,383.8281 Q747.6094,383.6563 747.5,383.2031 Q747.4531,382.8906 747.2813,382.7188 Q746.9688,382.3906 746.4063,382.2031 Q745.8438,382 745.2813,382 Q744.5781,382 743.9844,382.2813 Q743.4063,382.5625 742.9531,383.1875 Q742.5,383.8125 742.5,384.6719 L742.5,385.5938 Q742.5,386.625 743.3438,387.3125 Q744.1875,388 745.6875,388 Q746.5781,388 747.2031,387.7969 Q747.5625,387.6875 747.9688,387.3281 Q748.2344,387.125 748.375,387.0625 Q748.5156,387 748.6875,387 Q749.0156,387 749.25,387.2656 Q749.5,387.5156 749.5,387.875 Q749.5,388.2188 749.1563,388.625 Q748.6563,389.2188 747.8594,389.5469 Q746.8125,390 745.5313,390 Q744.0313,390 742.8281,389.4063 Q741.8594,388.9375 741.1719,387.9219 Q740.5,386.9063 740.5,385.7031 L740.5,384.6094 Q740.5,383.3594 741.0938,382.2656 Q741.7031,381.1719 742.75,380.5938 Q743.8125,380 745,380 Q745.7188,380 746.3438,380.25 Q746.9688,380.5 747.5,381 Z " fill="#000000"/><text fill="#000000" font-family="sans-serif" font-size="14" lengthAdjust="spacing" textLength="104" x="759.5" y="390.2285">SNSUserMapper</text><line style="stroke:#181818;stroke-width:0.5;" x1="731.5" x2="865.5" y1="400.5" y2="400.5"/><line style="stroke:#181818;stroke-width:0.5;" x1="731.5" x2="865.5" y1="408.5" y2="408.5"/><text fill="#000000" font-family="sans-serif" font-size="14" lengthAdjust="spacing" textLength="90" x="736.5" y="427.0332">+toDTO(snsu)</text><text fill="#000000" font-family="sans-serif" font-size="14" lengthAdjust="spacing" textLength="115" x="736.5" y="444.6426">+toDTOList(snsul)</text></g><!--MD5=[4765fcf5d6db66eebf98d526c81910ad]
class SNSUserDTO--><g id="elem_SNSUserDTO"><rect codeLine="49" fill="#F1F1F1" height="188.875" id="SNSUserDTO" rx="2.5" ry="2.5" style="stroke:#181818;stroke-width:0.5;" width="136" x="1183.5" y="439.5"/><ellipse cx="1206.6" cy="455.5" fill="#ADD1B2" rx="11" ry="11" style="stroke:#181818;stroke-width:1.0;"/><path d="M1208.6,452 Q1208.8031,451.5 1209.0375,451.25 Q1209.2719,451 1209.5375,451 Q1210.0063,451 1210.3031,451.2813 Q1210.6,451.5625 1210.6,452.2188 L1210.6,453.7813 Q1210.6,454.4375 1210.3188,454.7188 Q1210.0375,455 1209.6,455 Q1209.2094,455 1208.9594,454.8281 Q1208.7094,454.6563 1208.6,454.2031 Q1208.5531,453.8906 1208.3813,453.7188 Q1208.0688,453.3906 1207.5063,453.2031 Q1206.9438,453 1206.3813,453 Q1205.6781,453 1205.0844,453.2813 Q1204.5063,453.5625 1204.0531,454.1875 Q1203.6,454.8125 1203.6,455.6719 L1203.6,456.5938 Q1203.6,457.625 1204.4438,458.3125 Q1205.2875,459 1206.7875,459 Q1207.6781,459 1208.3031,458.7969 Q1208.6625,458.6875 1209.0688,458.3281 Q1209.3344,458.125 1209.475,458.0625 Q1209.6156,458 1209.7875,458 Q1210.1156,458 1210.35,458.2656 Q1210.6,458.5156 1210.6,458.875 Q1210.6,459.2188 1210.2563,459.625 Q1209.7563,460.2188 1208.9594,460.5469 Q1207.9125,461 1206.6313,461 Q1205.1313,461 1203.9281,460.4063 Q1202.9594,459.9375 1202.2719,458.9219 Q1201.6,457.9063 1201.6,456.7031 L1201.6,455.6094 Q1201.6,454.3594 1202.1938,453.2656 Q1202.8031,452.1719 1203.85,451.5938 Q1204.9125,451 1206.1,451 Q1206.8188,451 1207.4438,451.25 Q1208.0688,451.5 1208.6,452 Z " fill="#000000"/><text fill="#000000" font-family="sans-serif" font-size="14" lengthAdjust="spacing" textLength="86" x="1222.4" y="461.2285">SNSUserDTO</text><line style="stroke:#181818;stroke-width:0.5;" x1="1184.5" x2="1318.5" y1="471.5" y2="471.5"/><text fill="#000000" font-family="sans-serif" font-size="14" lengthAdjust="spacing" textLength="40" x="1189.5" y="490.0332">-name</text><text fill="#000000" font-family="sans-serif" font-size="14" lengthAdjust="spacing" textLength="38" x="1189.5" y="507.6426">-email</text><text fill="#000000" font-family="sans-serif" font-size="14" lengthAdjust="spacing" textLength="56" x="1189.5" y="525.252">-address</text><text fill="#000000" font-family="sans-serif" font-size="14" lengthAdjust="spacing" textLength="94" x="1189.5" y="542.8613">-phoneNumber</text><text fill="#000000" font-family="sans-serif" font-size="14" lengthAdjust="spacing" textLength="50" x="1189.5" y="560.4707">-gender</text><text fill="#000000" font-family="sans-serif" font-size="14" lengthAdjust="spacing" textLength="63" x="1189.5" y="578.0801">-birthDate</text><text fill="#000000" font-family="sans-serif" font-size="14" lengthAdjust="spacing" textLength="81" x="1189.5" y="595.6895">-SNSNumber</text><text fill="#000000" font-family="sans-serif" font-size="14" lengthAdjust="spacing" textLength="124" x="1189.5" y="613.2988">-citizenCardNumber</text><line style="stroke:#181818;stroke-width:0.5;" x1="1184.5" x2="1318.5" y1="620.375" y2="620.375"/></g><!--MD5=[7bf6f1c174ef2382ab748189587a16d6]
link RegisterSNSUserUI to RegisterSNSUserController--><g id="link_RegisterSNSUserUI_RegisterSNSUserController"><path codeLine="61" d="M232.36,315 C250.04,315 268.71,315 287.47,315 " fill="none" id="RegisterSNSUserUI-to-RegisterSNSUserController" style="stroke:#181818;stroke-width:1.0;stroke-dasharray:7.0,7.0;"/><polygon fill="#181818" points="292.76,315,283.76,311,287.76,315,283.76,319,292.76,315" style="stroke:#181818;stroke-width:1.0;"/></g><!--MD5=[1bd9080c7e199931e49bc5a1616681ac]
link Company to SNSUserStore--><g id="link_Company_SNSUserStore"><path codeLine="62" d="M894.04,178.05 C945.55,164.46 1011,147.19 1071.72,131.17 " fill="none" id="Company-to-SNSUserStore" style="stroke:#181818;stroke-width:1.0;"/><polygon fill="#181818" points="1076.83,129.82,1067.1081,128.2436,1071.9948,131.0932,1069.1452,135.9799,1076.83,129.82" style="stroke:#181818;stroke-width:1.0;"/><polygon fill="#000000" points="971.8346,129.9002,962.339,129.3661,963.8385,135.0494,971.8346,129.9002" style="stroke:#000000;stroke-width:1.0;"/><text fill="#000000" font-family="sans-serif" font-size="13" lengthAdjust="spacing" textLength="32" x="976" y="136.4951">has a</text><text fill="#000000" font-family="sans-serif" font-size="13" lengthAdjust="spacing" textLength="7" x="901.9323" y="190.191">1</text><text fill="#000000" font-family="sans-serif" font-size="13" lengthAdjust="spacing" textLength="5" x="1063.802" y="145.7696">*</text></g><!--MD5=[b01d27099955aced792f1ce85db49798]
link SNSUserStore to SNSUser--><g id="link_SNSUserStore_SNSUser"><path codeLine="63" d="M1397.51,161.12 C1407.21,166.73 1416.79,172.38 1426,178 C1471.62,205.8 1521.23,239.58 1559.75,266.64 " fill="none" id="SNSUserStore-SNSUser" style="stroke:#181818;stroke-width:1.0;"/><polygon fill="#000000" points="1465.1915,192.9019,1459.2114,185.5066,1456.0067,190.434,1465.1915,192.9019" style="stroke:#000000;stroke-width:1.0;"/><text fill="#000000" font-family="sans-serif" font-size="13" lengthAdjust="spacing" textLength="59" x="1470" y="195.4951">keeps info</text><text fill="#000000" font-family="sans-serif" font-size="13" lengthAdjust="spacing" textLength="7" x="1403.2023" y="182.2271">1</text><text fill="#000000" font-family="sans-serif" font-size="13" lengthAdjust="spacing" textLength="5" x="1547.0117" y="275.7468">*</text></g><!--MD5=[438f3eafa26f7112fe5a933ad6336f95]
link RegisterSNSUserController to Company--><g id="link_RegisterSNSUserController_Company"><path codeLine="64" d="M642.15,255.88 C661.21,249.4 680.11,242.96 697.82,236.94 " fill="none" id="RegisterSNSUserController-to-Company" style="stroke:#181818;stroke-width:1.0;stroke-dasharray:7.0,7.0;"/><polygon fill="#181818" points="702.78,235.25,692.9703,234.3722,698.0481,236.8654,695.555,241.9432,702.78,235.25" style="stroke:#181818;stroke-width:1.0;"/></g><!--MD5=[3e53dccb38f5e648ed41d4593a3f8aa6]
link RegisterSNSUserController to SNSUserStore--><g id="link_RegisterSNSUserController_SNSUserStore"><path codeLine="65" d="M540.35,237.8 C583.3,197 641.39,150.43 703,126 C819.9,79.65 961.68,69.92 1071.68,71.37 " fill="none" id="RegisterSNSUserController-to-SNSUserStore" style="stroke:#181818;stroke-width:1.0;stroke-dasharray:7.0,7.0;"/><polygon fill="#181818" points="1076.89,71.45,1067.9481,67.3218,1071.8905,71.3786,1067.8338,75.321,1076.89,71.45" style="stroke:#181818;stroke-width:1.0;"/></g><!--MD5=[b863452b465c122da136545eb0fe4494]
link RegisterSNSUserController to SNSUser--><g id="link_RegisterSNSUserController_SNSUser"><path codeLine="66" d="M642.25,315 C900.33,315 1373.9,315 1554.46,315 " fill="none" id="RegisterSNSUserController-to-SNSUser" style="stroke:#181818;stroke-width:1.0;stroke-dasharray:7.0,7.0;"/><polygon fill="#181818" points="1559.72,315,1550.72,311,1554.72,315,1550.72,319,1559.72,315" style="stroke:#181818;stroke-width:1.0;"/></g><!--MD5=[717d4b03d3c4372f4eafe5e342a0a7dd]
link Company to AuthFacade--><g id="link_Company_AuthFacade"><path codeLine="67" d="M894.04,208.45 C955.26,211.98 1036.18,216.64 1105.45,220.64 " fill="none" id="Company-AuthFacade" style="stroke:#181818;stroke-width:1.0;"/><polygon fill="#000000" points="933.9917,201.4636,925.1308,198.0089,924.7924,203.877,933.9917,201.4636" style="stroke:#000000;stroke-width:1.0;"/><text fill="#000000" font-family="sans-serif" font-size="13" lengthAdjust="spacing" textLength="108" x="938" y="206.4951">registers SNSUser</text></g><!--MD5=[b02d249e85c031020b500319b5799e6b]
link RegisterSNSUserController to SNSUserMapper--><g id="link_RegisterSNSUserController_SNSUserMapper"><path codeLine="68" d="M642.15,365.14 C671.55,373.63 700.56,382.01 725.4,389.18 " fill="none" id="RegisterSNSUserController-to-SNSUserMapper" style="stroke:#181818;stroke-width:1.0;stroke-dasharray:7.0,7.0;"/><polygon fill="#181818" points="730.31,390.6,722.79,384.24,725.51,389.2,720.55,391.92,730.31,390.6" style="stroke:#181818;stroke-width:1.0;"/></g><!--MD5=[fa2e584a1dcb1e7a0256fca694ac5408]
link RegisterSNSUserController to SNSUserDTO--><g id="link_RegisterSNSUserController_SNSUserDTO"><path codeLine="69" d="M563.74,392.03 C604.35,420.9 653.69,451.02 703,469 C865.44,528.23 1071.23,536.23 1178.32,535.82 " fill="none" id="RegisterSNSUserController-to-SNSUserDTO" style="stroke:#181818;stroke-width:1.0;stroke-dasharray:7.0,7.0;"/><polygon fill="#181818" points="1183.34,535.79,1174.3173,531.8415,1178.3401,535.8186,1174.363,539.8414,1183.34,535.79" style="stroke:#181818;stroke-width:1.0;"/></g><!--MD5=[ae916cb482fc4c7c1d4ca903972b92f5]
link SNSUserMapper to SNSUserDTO--><g id="link_SNSUserMapper_SNSUserDTO"><path codeLine="70" d="M866.53,428.43 C950.14,451.42 1092.5,490.56 1178.4,514.18 " fill="none" id="SNSUserMapper-to-SNSUserDTO" style="stroke:#181818;stroke-width:1.0;stroke-dasharray:7.0,7.0;"/><polygon fill="#181818" points="1183.47,515.57,1175.8584,509.3199,1178.6502,514.2399,1173.7302,517.0317,1183.47,515.57" style="stroke:#181818;stroke-width:1.0;"/></g><!--MD5=[24c2fd327ed292dae31da7e02ad85038]
link SNSUserMapper to SNSUser--><g id="link_SNSUserMapper_SNSUser"><path codeLine="71" d="M866.74,407.42 C996.09,401.63 1288.18,384.51 1530,341 C1538.03,339.56 1546.36,337.77 1554.62,335.82 " fill="none" id="SNSUserMapper-to-SNSUser" style="stroke:#181818;stroke-width:1.0;stroke-dasharray:7.0,7.0;"/><polygon fill="#181818" points="1559.75,334.58,1550.063,332.8016,1554.8894,335.7523,1551.9387,340.5786,1559.75,334.58" style="stroke:#181818;stroke-width:1.0;"/></g><!--MD5=[21cdf898731a871b86b011af04fc0919]
@startuml
skinparam classAttributeIconSize 0
left to right direction

class RegisterSNSUserUI{
SpecifyNewSNSUserController ctrl
}
class RegisterSNSUserController{
 Company company
 SNSUser snsu
 +createSNSUser(name, address, sex, phoneNumber, \nemail, birthDate, SNSNumber, citizenCardNumber)
 +saveSNSUser()
 +showSNSUser()
}
class SNSUserStore{
List<SNSUser> snsUserList
+createSNSUser(name, address, sex, phoneNumber, \nemail, birthDate, SNSNumber, citizenCardNumber)
+saveSNSUser(snsu)
+validateSNSUser(snsu)
+getSNSUserList()

}
class Company{
 SNSUserStore snsUserStore
 AuthFacade authFacade
 +getSNSUserStore()
 +getAuthFacade()
}

class SNSUser{
 - name
 - email
 - address
 - phoneNumber
 - gender
 - birthDate
 - SNSNumber
 - citizenCardNumber
}

class AuthFacade{
 +addUserWithRole(name, email, pwd, roleId)
}

class SNSUserMapper{
 +toDTO(snsu)
 +toDTOList(snsul)
}

class SNSUserDTO{
   - name
   - email
   - address
   - phoneNumber
   - gender
   - birthDate
   - SNSNumber
   - citizenCardNumber
}


RegisterSNSUserUI ..> RegisterSNSUserController
Company "1"- ->"*" SNSUserStore : has a >
SNSUserStore "1"- -"*" SNSUser : keeps info >
RegisterSNSUserController ..> Company
RegisterSNSUserController ..> SNSUserStore
RegisterSNSUserController ..> SNSUser
Company - - AuthFacade : registers SNSUser >
RegisterSNSUserController ..> SNSUserMapper
RegisterSNSUserController ..> SNSUserDTO
SNSUserMapper ..> SNSUserDTO
SNSUserMapper ..> SNSUser

@enduml

PlantUML version 1.2022.4(Sat Apr 09 14:29:17 BST 2022)
(GPL source distribution)
Java Runtime: OpenJDK Runtime Environment
JVM: OpenJDK 64-Bit Server VM
Default Encoding: Cp1252
Language: en
Country: US
--></g></svg>