<?xml version="1.0" encoding="UTF-8" standalone="no"?><svg xmlns="http://www.w3.org/2000/svg" xmlns:xlink="http://www.w3.org/1999/xlink" contentStyleType="text/css" height="213px" preserveAspectRatio="none" style="width:903px;height:213px;background:#FFFFFF;" version="1.1" viewBox="0 0 903 213" width="903px" zoomAndPan="magnify"><defs/><g><!--MD5=[02e4b9b7573f1156f41e60aa5b4e25a4]
class Company--><g id="elem_Company"><rect codeLine="6" fill="#F1F1F1" height="57.6094" id="Company" rx="2.5" ry="2.5" style="stroke:#181818;stroke-width:0.5;" width="92" x="7" y="106.5"/><ellipse cx="22" cy="122.5" fill="#ADD1B2" rx="11" ry="11" style="stroke:#181818;stroke-width:1.0;"/><path d="M24,119 Q24.2031,118.5 24.4375,118.25 Q24.6719,118 24.9375,118 Q25.4063,118 25.7031,118.2813 Q26,118.5625 26,119.2188 L26,120.7813 Q26,121.4375 25.7188,121.7188 Q25.4375,122 25,122 Q24.6094,122 24.3594,121.8281 Q24.1094,121.6563 24,121.2031 Q23.9531,120.8906 23.7813,120.7188 Q23.4688,120.3906 22.9063,120.2031 Q22.3438,120 21.7813,120 Q21.0781,120 20.4844,120.2813 Q19.9063,120.5625 19.4531,121.1875 Q19,121.8125 19,122.6719 L19,123.5938 Q19,124.625 19.8438,125.3125 Q20.6875,126 22.1875,126 Q23.0781,126 23.7031,125.7969 Q24.0625,125.6875 24.4688,125.3281 Q24.7344,125.125 24.875,125.0625 Q25.0156,125 25.1875,125 Q25.5156,125 25.75,125.2656 Q26,125.5156 26,125.875 Q26,126.2188 25.6563,126.625 Q25.1563,127.2188 24.3594,127.5469 Q23.3125,128 22.0313,128 Q20.5313,128 19.3281,127.4063 Q18.3594,126.9375 17.6719,125.9219 Q17,124.9063 17,123.7031 L17,122.6094 Q17,121.3594 17.5938,120.2656 Q18.2031,119.1719 19.25,118.5938 Q20.3125,118 21.5,118 Q22.2188,118 22.8438,118.25 Q23.4688,118.5 24,119 Z " fill="#000000"/><text fill="#000000" font-family="sans-serif" font-size="14" lengthAdjust="spacing" textLength="60" x="36" y="128.2285">Company</text><line style="stroke:#181818;stroke-width:0.5;" x1="8" x2="98" y1="138.5" y2="138.5"/><text fill="#000000" font-family="sans-serif" font-size="14" lengthAdjust="spacing" textLength="78" x="13" y="157.0332">-designation</text></g><!--MD5=[03960189e81aa2c066c762ffabbee709]
class Receptionist--><g id="elem_Receptionist"><rect codeLine="10" fill="#F1F1F1" height="75.2188" id="Receptionist" rx="2.5" ry="2.5" style="stroke:#181818;stroke-width:0.5;" width="110" x="564" y="78"/><ellipse cx="579" cy="94" fill="#ADD1B2" rx="11" ry="11" style="stroke:#181818;stroke-width:1.0;"/><path d="M581,90.5 Q581.2031,90 581.4375,89.75 Q581.6719,89.5 581.9375,89.5 Q582.4063,89.5 582.7031,89.7813 Q583,90.0625 583,90.7188 L583,92.2813 Q583,92.9375 582.7188,93.2188 Q582.4375,93.5 582,93.5 Q581.6094,93.5 581.3594,93.3281 Q581.1094,93.1563 581,92.7031 Q580.9531,92.3906 580.7813,92.2188 Q580.4688,91.8906 579.9063,91.7031 Q579.3438,91.5 578.7813,91.5 Q578.0781,91.5 577.4844,91.7813 Q576.9063,92.0625 576.4531,92.6875 Q576,93.3125 576,94.1719 L576,95.0938 Q576,96.125 576.8438,96.8125 Q577.6875,97.5 579.1875,97.5 Q580.0781,97.5 580.7031,97.2969 Q581.0625,97.1875 581.4688,96.8281 Q581.7344,96.625 581.875,96.5625 Q582.0156,96.5 582.1875,96.5 Q582.5156,96.5 582.75,96.7656 Q583,97.0156 583,97.375 Q583,97.7188 582.6563,98.125 Q582.1563,98.7188 581.3594,99.0469 Q580.3125,99.5 579.0313,99.5 Q577.5313,99.5 576.3281,98.9063 Q575.3594,98.4375 574.6719,97.4219 Q574,96.4063 574,95.2031 L574,94.1094 Q574,92.8594 574.5938,91.7656 Q575.2031,90.6719 576.25,90.0938 Q577.3125,89.5 578.5,89.5 Q579.2188,89.5 579.8438,89.75 Q580.4688,90 581,90.5 Z " fill="#000000"/><text fill="#000000" font-family="sans-serif" font-size="14" lengthAdjust="spacing" textLength="78" x="593" y="99.7285">Receptionist</text><line style="stroke:#181818;stroke-width:0.5;" x1="565" x2="673" y1="110" y2="110"/><text fill="#000000" font-family="sans-serif" font-size="14" lengthAdjust="spacing" textLength="68" x="570" y="128.5332">-username</text><text fill="#000000" font-family="sans-serif" font-size="14" lengthAdjust="spacing" textLength="65" x="570" y="146.1426">-password</text></g><!--MD5=[72be06cc7ae02ccc98efe28a50e62246]
class SNSUser--><g id="elem_SNSUser"><rect codeLine="15" fill="#F1F1F1" height="57.6094" id="SNSUser" rx="2.5" ry="2.5" style="stroke:#181818;stroke-width:0.5;" width="97" x="799" y="148.5"/><ellipse cx="818.05" cy="164.5" fill="#ADD1B2" rx="11" ry="11" style="stroke:#181818;stroke-width:1.0;"/><path d="M820.05,161 Q820.2531,160.5 820.4875,160.25 Q820.7219,160 820.9875,160 Q821.4563,160 821.7531,160.2813 Q822.05,160.5625 822.05,161.2188 L822.05,162.7813 Q822.05,163.4375 821.7688,163.7188 Q821.4875,164 821.05,164 Q820.6594,164 820.4094,163.8281 Q820.1594,163.6563 820.05,163.2031 Q820.0031,162.8906 819.8313,162.7188 Q819.5188,162.3906 818.9563,162.2031 Q818.3938,162 817.8313,162 Q817.1281,162 816.5344,162.2813 Q815.9563,162.5625 815.5031,163.1875 Q815.05,163.8125 815.05,164.6719 L815.05,165.5938 Q815.05,166.625 815.8938,167.3125 Q816.7375,168 818.2375,168 Q819.1281,168 819.7531,167.7969 Q820.1125,167.6875 820.5188,167.3281 Q820.7844,167.125 820.925,167.0625 Q821.0656,167 821.2375,167 Q821.5656,167 821.8,167.2656 Q822.05,167.5156 822.05,167.875 Q822.05,168.2188 821.7063,168.625 Q821.2063,169.2188 820.4094,169.5469 Q819.3625,170 818.0813,170 Q816.5813,170 815.3781,169.4063 Q814.4094,168.9375 813.7219,167.9219 Q813.05,166.9063 813.05,165.7031 L813.05,164.6094 Q813.05,163.3594 813.6438,162.2656 Q814.2531,161.1719 815.3,160.5938 Q816.3625,160 817.55,160 Q818.2688,160 818.8938,160.25 Q819.5188,160.5 820.05,161 Z " fill="#000000"/><text fill="#000000" font-family="sans-serif" font-size="14" lengthAdjust="spacing" textLength="56" x="832.95" y="170.2285">SNSUser</text><line style="stroke:#181818;stroke-width:0.5;" x1="800" x2="895" y1="180.5" y2="180.5"/><text fill="#000000" font-family="sans-serif" font-size="14" lengthAdjust="spacing" textLength="85" x="805" y="199.0332">-SNS Number</text></g><!--MD5=[da547346deef918ea16944ba046651ef]
class Administrator--><g id="elem_Administrator"><rect codeLine="19" fill="#F1F1F1" height="75.2188" id="Administrator" rx="2.5" ry="2.5" style="stroke:#181818;stroke-width:0.5;" width="115" x="324" y="7"/><ellipse cx="339" cy="23" fill="#ADD1B2" rx="11" ry="11" style="stroke:#181818;stroke-width:1.0;"/><path d="M341,19.5 Q341.2031,19 341.4375,18.75 Q341.6719,18.5 341.9375,18.5 Q342.4063,18.5 342.7031,18.7813 Q343,19.0625 343,19.7188 L343,21.2813 Q343,21.9375 342.7188,22.2188 Q342.4375,22.5 342,22.5 Q341.6094,22.5 341.3594,22.3281 Q341.1094,22.1563 341,21.7031 Q340.9531,21.3906 340.7813,21.2188 Q340.4688,20.8906 339.9063,20.7031 Q339.3438,20.5 338.7813,20.5 Q338.0781,20.5 337.4844,20.7813 Q336.9063,21.0625 336.4531,21.6875 Q336,22.3125 336,23.1719 L336,24.0938 Q336,25.125 336.8438,25.8125 Q337.6875,26.5 339.1875,26.5 Q340.0781,26.5 340.7031,26.2969 Q341.0625,26.1875 341.4688,25.8281 Q341.7344,25.625 341.875,25.5625 Q342.0156,25.5 342.1875,25.5 Q342.5156,25.5 342.75,25.7656 Q343,26.0156 343,26.375 Q343,26.7188 342.6563,27.125 Q342.1563,27.7188 341.3594,28.0469 Q340.3125,28.5 339.0313,28.5 Q337.5313,28.5 336.3281,27.9063 Q335.3594,27.4375 334.6719,26.4219 Q334,25.4063 334,24.2031 L334,23.1094 Q334,21.8594 334.5938,20.7656 Q335.2031,19.6719 336.25,19.0938 Q337.3125,18.5 338.5,18.5 Q339.2188,18.5 339.8438,18.75 Q340.4688,19 341,19.5 Z " fill="#000000"/><text fill="#000000" font-family="sans-serif" font-size="14" lengthAdjust="spacing" textLength="83" x="353" y="28.7285">Administrator</text><line style="stroke:#181818;stroke-width:0.5;" x1="325" x2="438" y1="39" y2="39"/><text fill="#000000" font-family="sans-serif" font-size="14" lengthAdjust="spacing" textLength="68" x="330" y="57.5332">-username</text><text fill="#000000" font-family="sans-serif" font-size="14" lengthAdjust="spacing" textLength="65" x="330" y="75.1426">-password</text></g><!--MD5=[5448e79142bdfcbfebd9929e0faf45a6]
link Company to Receptionist--><g id="link_Company_Receptionist"><path codeLine="24" d="M99.2,133.9 C201.93,130.25 452.62,121.36 563.6,117.43 " fill="none" id="Company-Receptionist" style="stroke:#181818;stroke-width:1.0;"/><polygon fill="#000000" points="251.9969,117.4986,242.8533,114.8821,243.0616,120.7562,251.9969,117.4986" style="stroke:#000000;stroke-width:1.0;"/><text fill="#000000" font-family="sans-serif" font-size="13" lengthAdjust="spacing" textLength="37" x="256" y="122.9951">knows</text><text fill="#000000" font-family="sans-serif" font-size="13" lengthAdjust="spacing" textLength="7" x="107.1209" y="148.4743">1</text><text fill="#000000" font-family="sans-serif" font-size="13" lengthAdjust="spacing" textLength="5" x="550.8197" y="132.2684">*</text></g><!--MD5=[1a8aa2b864b87f860d28abceaa28b7a5]
link Company to SNSUser--><g id="link_Company_SNSUser"><path codeLine="25" d="M86.15,164.58 C111.21,184.19 147.88,206.5 185,206.5 C185,206.5 185,206.5 620,206.5 C682.04,206.5 752.88,195.66 798.57,187.24 " fill="none" id="Company-SNSUser" style="stroke:#181818;stroke-width:1.0;"/><polygon fill="#000000" points="365.4975,197.8347,356.5504,194.6097,356.3635,200.4846,365.4975,197.8347" style="stroke:#000000;stroke-width:1.0;"/><text fill="#000000" font-family="sans-serif" font-size="13" lengthAdjust="spacing" textLength="37" x="369.5" y="202.9951">knows</text><text fill="#000000" font-family="sans-serif" font-size="13" lengthAdjust="spacing" textLength="7" x="85.2653" y="185.7994">1</text><text fill="#000000" font-family="sans-serif" font-size="13" lengthAdjust="spacing" textLength="5" x="786.0162" y="203.3952">*</text></g><!--MD5=[eaea43e34e45c5b9d20b595fc78f1f20]
link Company to Administrator--><g id="link_Company_Administrator"><path codeLine="26" d="M99.02,119.23 C108.85,115.86 119.24,112.45 129,109.5 C195.38,89.45 272.74,70.04 323.95,57.73 " fill="none" id="Company-Administrator" style="stroke:#181818;stroke-width:1.0;"/><polygon fill="#000000" points="169.823,76.3571,160.323,75.9078,161.8732,81.5775,169.823,76.3571" style="stroke:#000000;stroke-width:1.0;"/><text fill="#000000" font-family="sans-serif" font-size="13" lengthAdjust="spacing" textLength="37" x="174" y="82.9951">knows</text><text fill="#000000" font-family="sans-serif" font-size="13" lengthAdjust="spacing" textLength="7" x="106.9123" y="112.9162">1</text><text fill="#000000" font-family="sans-serif" font-size="13" lengthAdjust="spacing" textLength="5" x="310.8808" y="74.0868">*</text></g><!--MD5=[7690a4971bd8576b261a40a0340b8203]
link Receptionist to SNSUser--><g id="link_Receptionist_SNSUser"><path codeLine="27" d="M674.25,130.35 C712.21,140.74 762.43,154.49 798.84,164.45 " fill="none" id="Receptionist-SNSUser" style="stroke:#181818;stroke-width:1.0;"/><polygon fill="#000000" points="713.8226,130.9957,705.8743,125.7733,704.3226,131.4426,713.8226,130.9957" style="stroke:#000000;stroke-width:1.0;"/><text fill="#000000" font-family="sans-serif" font-size="13" lengthAdjust="spacing" textLength="50" x="718" y="134.9951">registers</text><text fill="#000000" font-family="sans-serif" font-size="13" lengthAdjust="spacing" textLength="7" x="682.1445" y="146.9245">1</text><text fill="#000000" font-family="sans-serif" font-size="13" lengthAdjust="spacing" textLength="5" x="786.0061" y="177.2287">*</text></g><!--MD5=[64c52275ea9d22bde431e3436d41be0c]
link Administrator to Receptionist--><g id="link_Administrator_Receptionist"><path codeLine="28" d="M439.21,61.6 C477.04,73 526.5,87.91 563.81,99.16 " fill="none" id="Administrator-Receptionist" style="stroke:#181818;stroke-width:1.0;"/><polygon fill="#000000" points="478.7872,64.1189,470.9753,58.6944,469.2788,64.3222,478.7872,64.1189" style="stroke:#000000;stroke-width:1.0;"/><text fill="#000000" font-family="sans-serif" font-size="13" lengthAdjust="spacing" textLength="50" x="483" y="67.9951">registers</text><text fill="#000000" font-family="sans-serif" font-size="13" lengthAdjust="spacing" textLength="7" x="447.0525" y="78.3196">1</text><text fill="#000000" font-family="sans-serif" font-size="13" lengthAdjust="spacing" textLength="5" x="551.0579" y="111.5434">*</text></g><!--MD5=[960b78bf9cb3c20c2417a98a6eb49408]
@startuml
hide methods
left to right direction
skinparam classAttributeIconSize 0


class Company {
  -designation
}

class Receptionist {
  -username
  -password
}

class SNSUser {
  -SNS Number
}

class Administrator {
  -username
  -password
}

Company "1"- -"*" Receptionist : knows >
Company "1"- - -"*" SNSUser : knows >
Company "1"- - -"*" Administrator : knows >
Receptionist "1"- -"*" SNSUser : registers >
Administrator "1"- -"*" Receptionist : registers >






@enduml

PlantUML version 1.2022.4(Sat Apr 09 14:29:17 BST 2022)
(GPL source distribution)
Java Runtime: OpenJDK Runtime Environment
JVM: OpenJDK 64-Bit Server VM
Default Encoding: Cp1252
Language: en
Country: US
--></g></svg>