<?xml version="1.0" encoding="UTF-8" standalone="no"?><svg xmlns="http://www.w3.org/2000/svg" xmlns:xlink="http://www.w3.org/1999/xlink" contentScriptType="application/ecmascript" contentStyleType="text/css" height="454px" preserveAspectRatio="none" style="width:500px;height:454px;background:#FFFFFF;" version="1.1" viewBox="0 0 500 454" width="500px" zoomAndPan="magnify"><defs><filter height="300%" id="f159iiixda3mij" width="300%" x="-1" y="-1"><feGaussianBlur result="blurOut" stdDeviation="2.0"/><feColorMatrix in="blurOut" result="blurOut2" type="matrix" values="0 0 0 0 0 0 0 0 0 0 0 0 0 0 0 0 0 0 .4 0"/><feOffset dx="4.0" dy="4.0" in="blurOut2" result="blurOut3"/><feBlend in="SourceGraphic" in2="blurOut3" mode="normal"/></filter></defs><g><rect fill="#FFFFFF" filter="url(#f159iiixda3mij)" height="251.1641" style="stroke:#A80036;stroke-width:1.0;" width="10" x="42" y="99.6094"/><rect fill="#FFFFFF" filter="url(#f159iiixda3mij)" height="30.3516" style="stroke:#A80036;stroke-width:1.0;" width="10" x="451" y="121.9609"/><rect fill="#FFFFFF" filter="url(#f159iiixda3mij)" height="46.7031" style="stroke:#A80036;stroke-width:1.0;" width="10" x="451" y="182.6641"/><rect fill="#FFFFFF" filter="url(#f159iiixda3mij)" height="30.3516" style="stroke:#A80036;stroke-width:1.0;" width="10" x="451" y="259.7188"/><rect fill="#FFFFFF" filter="url(#f159iiixda3mij)" height="30.3516" style="stroke:#A80036;stroke-width:1.0;" width="10" x="451" y="320.4219"/><line style="stroke:#A80036;stroke-width:1.0;stroke-dasharray:5.0,5.0;" x1="47" x2="47" y1="89.6094" y2="368.7734"/><line style="stroke:#A80036;stroke-width:1.0;stroke-dasharray:5.0,5.0;" x1="456" x2="456" y1="89.6094" y2="368.7734"/><text fill="#000000" font-family="sans-serif" font-size="14" lengthAdjust="spacing" textLength="78" x="5" y="86.5332">Receptionist</text><ellipse cx="47" cy="15" fill="#FEFECE" filter="url(#f159iiixda3mij)" rx="8" ry="8" style="stroke:#A80036;stroke-width:2.0;"/><path d="M47,23 L47,50 M34,31 L60,31 M47,50 L34,65 M47,50 L60,65 " fill="none" filter="url(#f159iiixda3mij)" style="stroke:#A80036;stroke-width:2.0;"/><text fill="#000000" font-family="sans-serif" font-size="14" lengthAdjust="spacing" textLength="78" x="5" y="382.3066">Receptionist</text><ellipse cx="47" cy="395.3828" fill="#FEFECE" filter="url(#f159iiixda3mij)" rx="8" ry="8" style="stroke:#A80036;stroke-width:2.0;"/><path d="M47,403.3828 L47,430.3828 M34,411.3828 L60,411.3828 M47,430.3828 L34,445.3828 M47,430.3828 L60,445.3828 " fill="none" filter="url(#f159iiixda3mij)" style="stroke:#A80036;stroke-width:2.0;"/><rect fill="#FEFECE" filter="url(#f159iiixda3mij)" height="31.6094" style="stroke:#A80036;stroke-width:1.5;" width="64" x="422" y="53"/><text fill="#000000" font-family="sans-serif" font-size="14" lengthAdjust="spacing" textLength="50" x="429" y="74.5332">:System</text><rect fill="#FEFECE" filter="url(#f159iiixda3mij)" height="31.6094" style="stroke:#A80036;stroke-width:1.5;" width="64" x="422" y="367.7734"/><text fill="#000000" font-family="sans-serif" font-size="14" lengthAdjust="spacing" textLength="50" x="429" y="389.3066">:System</text><rect fill="#FFFFFF" filter="url(#f159iiixda3mij)" height="251.1641" style="stroke:#A80036;stroke-width:1.0;" width="10" x="42" y="99.6094"/><rect fill="#FFFFFF" filter="url(#f159iiixda3mij)" height="30.3516" style="stroke:#A80036;stroke-width:1.0;" width="10" x="451" y="121.9609"/><rect fill="#FFFFFF" filter="url(#f159iiixda3mij)" height="46.7031" style="stroke:#A80036;stroke-width:1.0;" width="10" x="451" y="182.6641"/><rect fill="#FFFFFF" filter="url(#f159iiixda3mij)" height="30.3516" style="stroke:#A80036;stroke-width:1.0;" width="10" x="451" y="259.7188"/><rect fill="#FFFFFF" filter="url(#f159iiixda3mij)" height="30.3516" style="stroke:#A80036;stroke-width:1.0;" width="10" x="451" y="320.4219"/><polygon fill="#A80036" points="439,117.9609,449,121.9609,439,125.9609,443,121.9609" style="stroke:#A80036;stroke-width:1.0;"/><line style="stroke:#A80036;stroke-width:1.0;" x1="52" x2="445" y1="121.9609" y2="121.9609"/><text fill="#000000" font-family="sans-serif" font-size="13" font-weight="bold" lengthAdjust="spacing" textLength="7" x="59" y="117.1045">1</text><text fill="#000000" font-family="sans-serif" font-size="13" lengthAdjust="spacing" textLength="122" x="70" y="117.1045">Logs into the system</text><polygon fill="#A80036" points="63,148.3125,53,152.3125,63,156.3125,59,152.3125" style="stroke:#A80036;stroke-width:1.0;"/><line style="stroke:#A80036;stroke-width:1.0;stroke-dasharray:2.0,2.0;" x1="57" x2="455" y1="152.3125" y2="152.3125"/><text fill="#000000" font-family="sans-serif" font-size="13" font-weight="bold" lengthAdjust="spacing" textLength="7" x="69" y="147.4561">2</text><text fill="#000000" font-family="sans-serif" font-size="13" lengthAdjust="spacing" textLength="364" x="80" y="147.4561">confirms that the receptionist used the correct login credentials</text><polygon fill="#A80036" points="439,178.6641,449,182.6641,439,186.6641,443,182.6641" style="stroke:#A80036;stroke-width:1.0;"/><line style="stroke:#A80036;stroke-width:1.0;" x1="52" x2="445" y1="182.6641" y2="182.6641"/><text fill="#000000" font-family="sans-serif" font-size="13" font-weight="bold" lengthAdjust="spacing" textLength="7" x="59" y="177.8076">3</text><text fill="#000000" font-family="sans-serif" font-size="13" lengthAdjust="spacing" textLength="197" x="70" y="177.8076">starts registering a new SNS User</text><polygon fill="#A80036" points="63,225.3672,53,229.3672,63,233.3672,59,229.3672" style="stroke:#A80036;stroke-width:1.0;"/><line style="stroke:#A80036;stroke-width:1.0;stroke-dasharray:2.0,2.0;" x1="57" x2="455" y1="229.3672" y2="229.3672"/><text fill="#000000" font-family="sans-serif" font-size="13" font-weight="bold" lengthAdjust="spacing" textLength="7" x="69" y="216.335">4</text><text fill="#000000" font-family="sans-serif" font-size="13" lengthAdjust="spacing" textLength="354" x="80" y="208.1592">requests data (SNS Number, Phone Number, Email Address,</text><text fill="#000000" font-family="sans-serif" font-size="13" lengthAdjust="spacing" textLength="128" x="84" y="224.5107">Username, Password)</text><polygon fill="#A80036" points="439,255.7188,449,259.7188,439,263.7188,443,259.7188" style="stroke:#A80036;stroke-width:1.0;"/><line style="stroke:#A80036;stroke-width:1.0;" x1="52" x2="445" y1="259.7188" y2="259.7188"/><text fill="#000000" font-family="sans-serif" font-size="13" font-weight="bold" lengthAdjust="spacing" textLength="7" x="59" y="254.8623">5</text><text fill="#000000" font-family="sans-serif" font-size="13" lengthAdjust="spacing" textLength="122" x="70" y="254.8623">types requested data</text><polygon fill="#A80036" points="63,286.0703,53,290.0703,63,294.0703,59,290.0703" style="stroke:#A80036;stroke-width:1.0;"/><line style="stroke:#A80036;stroke-width:1.0;stroke-dasharray:2.0,2.0;" x1="57" x2="455" y1="290.0703" y2="290.0703"/><text fill="#000000" font-family="sans-serif" font-size="13" font-weight="bold" lengthAdjust="spacing" textLength="7" x="69" y="285.2139">6</text><text fill="#000000" font-family="sans-serif" font-size="13" lengthAdjust="spacing" textLength="252" x="80" y="285.2139">shows the data and requests a confirmation</text><polygon fill="#A80036" points="439,316.4219,449,320.4219,439,324.4219,443,320.4219" style="stroke:#A80036;stroke-width:1.0;"/><line style="stroke:#A80036;stroke-width:1.0;" x1="52" x2="445" y1="320.4219" y2="320.4219"/><text fill="#000000" font-family="sans-serif" font-size="13" font-weight="bold" lengthAdjust="spacing" textLength="7" x="59" y="315.5654">7</text><text fill="#000000" font-family="sans-serif" font-size="13" lengthAdjust="spacing" textLength="100" x="70" y="315.5654">confirms the data</text><polygon fill="#A80036" points="58,346.7734,48,350.7734,58,354.7734,54,350.7734" style="stroke:#A80036;stroke-width:1.0;"/><line style="stroke:#A80036;stroke-width:1.0;stroke-dasharray:2.0,2.0;" x1="52" x2="455" y1="350.7734" y2="350.7734"/><text fill="#000000" font-family="sans-serif" font-size="13" font-weight="bold" lengthAdjust="spacing" textLength="7" x="64" y="345.917">8</text><text fill="#000000" font-family="sans-serif" font-size="13" lengthAdjust="spacing" textLength="152" x="75" y="345.917">informs operation success</text><!--MD5=[780512554142e24e08647cf8c3250b48]
@startuml
autonumber
actor "Receptionist" as rcp

activate rcp
rcp -> ":System" : Logs into the system
activate ":System"
":System" - -> rcp : confirms that the receptionist used the correct login credentials
deactivate ":System"

rcp -> ":System" : starts registering a new SNS User
activate ":System"
":System" - -> rcp : requests data (SNS Number, Phone Number, Email Address, \n Username, Password)
deactivate ":System"

rcp -> ":System" : types requested data
activate ":System"
":System" - -> rcp : shows the data and requests a confirmation
deactivate ":System"

rcp -> ":System" : confirms the data
activate ":System"
":System" - -> rcp : informs operation success
deactivate ":System"

deactivate rcp

@enduml

PlantUML version 1.2022.1(Tue Feb 01 18:19:58 GMT 2022)
(GPL source distribution)
Java Runtime: OpenJDK Runtime Environment
JVM: OpenJDK 64-Bit Server VM
Default Encoding: Cp1252
Language: en
Country: US
--></g></svg>