<?xml version="1.0" encoding="UTF-8" standalone="no"?><svg xmlns="http://www.w3.org/2000/svg" xmlns:xlink="http://www.w3.org/1999/xlink" contentScriptType="application/ecmascript" contentStyleType="text/css" height="393px" preserveAspectRatio="none" style="width:494px;height:393px;background:#FFFFFF;" version="1.1" viewBox="0 0 494 393" width="494px" zoomAndPan="magnify"><defs><filter height="300%" id="fp2qvkxr3z0gc" width="300%" x="-1" y="-1"><feGaussianBlur result="blurOut" stdDeviation="2.0"/><feColorMatrix in="blurOut" result="blurOut2" type="matrix" values="0 0 0 0 0 0 0 0 0 0 0 0 0 0 0 0 0 0 .4 0"/><feOffset dx="4.0" dy="4.0" in="blurOut2" result="blurOut3"/><feBlend in="SourceGraphic" in2="blurOut3" mode="normal"/></filter></defs><g><rect fill="#FFFFFF" filter="url(#fp2qvkxr3z0gc)" height="190.4609" style="stroke:#A80036;stroke-width:1.0;" width="10" x="42" y="99.6094"/><rect fill="#FFFFFF" filter="url(#fp2qvkxr3z0gc)" height="46.7031" style="stroke:#A80036;stroke-width:1.0;" width="10" x="445" y="121.9609"/><rect fill="#FFFFFF" filter="url(#fp2qvkxr3z0gc)" height="30.3516" style="stroke:#A80036;stroke-width:1.0;" width="10" x="445" y="199.0156"/><rect fill="#FFFFFF" filter="url(#fp2qvkxr3z0gc)" height="30.3516" style="stroke:#A80036;stroke-width:1.0;" width="10" x="445" y="259.7188"/><line style="stroke:#A80036;stroke-width:1.0;stroke-dasharray:5.0,5.0;" x1="47" x2="47" y1="89.6094" y2="308.0703"/><line style="stroke:#A80036;stroke-width:1.0;stroke-dasharray:5.0,5.0;" x1="450" x2="450" y1="89.6094" y2="308.0703"/><text fill="#000000" font-family="sans-serif" font-size="14" lengthAdjust="spacing" textLength="78" x="5" y="86.5332">Receptionist</text><ellipse cx="47" cy="15" fill="#FEFECE" filter="url(#fp2qvkxr3z0gc)" rx="8" ry="8" style="stroke:#A80036;stroke-width:2.0;"/><path d="M47,23 L47,50 M34,31 L60,31 M47,50 L34,65 M47,50 L60,65 " fill="none" filter="url(#fp2qvkxr3z0gc)" style="stroke:#A80036;stroke-width:2.0;"/><text fill="#000000" font-family="sans-serif" font-size="14" lengthAdjust="spacing" textLength="78" x="5" y="321.6035">Receptionist</text><ellipse cx="47" cy="334.6797" fill="#FEFECE" filter="url(#fp2qvkxr3z0gc)" rx="8" ry="8" style="stroke:#A80036;stroke-width:2.0;"/><path d="M47,342.6797 L47,369.6797 M34,350.6797 L60,350.6797 M47,369.6797 L34,384.6797 M47,369.6797 L60,384.6797 " fill="none" filter="url(#fp2qvkxr3z0gc)" style="stroke:#A80036;stroke-width:2.0;"/><rect fill="#FEFECE" filter="url(#fp2qvkxr3z0gc)" height="31.6094" style="stroke:#A80036;stroke-width:1.5;" width="64" x="416" y="53"/><text fill="#000000" font-family="sans-serif" font-size="14" lengthAdjust="spacing" textLength="50" x="423" y="74.5332">:System</text><rect fill="#FEFECE" filter="url(#fp2qvkxr3z0gc)" height="31.6094" style="stroke:#A80036;stroke-width:1.5;" width="64" x="416" y="307.0703"/><text fill="#000000" font-family="sans-serif" font-size="14" lengthAdjust="spacing" textLength="50" x="423" y="328.6035">:System</text><rect fill="#FFFFFF" filter="url(#fp2qvkxr3z0gc)" height="190.4609" style="stroke:#A80036;stroke-width:1.0;" width="10" x="42" y="99.6094"/><rect fill="#FFFFFF" filter="url(#fp2qvkxr3z0gc)" height="46.7031" style="stroke:#A80036;stroke-width:1.0;" width="10" x="445" y="121.9609"/><rect fill="#FFFFFF" filter="url(#fp2qvkxr3z0gc)" height="30.3516" style="stroke:#A80036;stroke-width:1.0;" width="10" x="445" y="199.0156"/><rect fill="#FFFFFF" filter="url(#fp2qvkxr3z0gc)" height="30.3516" style="stroke:#A80036;stroke-width:1.0;" width="10" x="445" y="259.7188"/><polygon fill="#A80036" points="433,117.9609,443,121.9609,433,125.9609,437,121.9609" style="stroke:#A80036;stroke-width:1.0;"/><line style="stroke:#A80036;stroke-width:1.0;" x1="52" x2="439" y1="121.9609" y2="121.9609"/><text fill="#000000" font-family="sans-serif" font-size="13" font-weight="bold" lengthAdjust="spacing" textLength="7" x="59" y="117.1045">1</text><text fill="#000000" font-family="sans-serif" font-size="13" lengthAdjust="spacing" textLength="197" x="70" y="117.1045">starts registering a new SNS User</text><polygon fill="#A80036" points="63,164.6641,53,168.6641,63,172.6641,59,168.6641" style="stroke:#A80036;stroke-width:1.0;"/><line style="stroke:#A80036;stroke-width:1.0;stroke-dasharray:2.0,2.0;" x1="57" x2="449" y1="168.6641" y2="168.6641"/><text fill="#000000" font-family="sans-serif" font-size="13" font-weight="bold" lengthAdjust="spacing" textLength="7" x="69" y="155.6318">2</text><text fill="#000000" font-family="sans-serif" font-size="13" lengthAdjust="spacing" textLength="354" x="80" y="147.4561">requests data (SNS Number, Phone Number, Email Address,</text><text fill="#000000" font-family="sans-serif" font-size="13" lengthAdjust="spacing" textLength="128" x="84" y="163.8076">Username, Password)</text><polygon fill="#A80036" points="433,195.0156,443,199.0156,433,203.0156,437,199.0156" style="stroke:#A80036;stroke-width:1.0;"/><line style="stroke:#A80036;stroke-width:1.0;" x1="52" x2="439" y1="199.0156" y2="199.0156"/><text fill="#000000" font-family="sans-serif" font-size="13" font-weight="bold" lengthAdjust="spacing" textLength="7" x="59" y="194.1592">3</text><text fill="#000000" font-family="sans-serif" font-size="13" lengthAdjust="spacing" textLength="122" x="70" y="194.1592">types requested data</text><polygon fill="#A80036" points="63,225.3672,53,229.3672,63,233.3672,59,229.3672" style="stroke:#A80036;stroke-width:1.0;"/><line style="stroke:#A80036;stroke-width:1.0;stroke-dasharray:2.0,2.0;" x1="57" x2="449" y1="229.3672" y2="229.3672"/><text fill="#000000" font-family="sans-serif" font-size="13" font-weight="bold" lengthAdjust="spacing" textLength="7" x="69" y="224.5107">4</text><text fill="#000000" font-family="sans-serif" font-size="13" lengthAdjust="spacing" textLength="252" x="80" y="224.5107">shows the data and requests a confirmation</text><polygon fill="#A80036" points="433,255.7188,443,259.7188,433,263.7188,437,259.7188" style="stroke:#A80036;stroke-width:1.0;"/><line style="stroke:#A80036;stroke-width:1.0;" x1="52" x2="439" y1="259.7188" y2="259.7188"/><text fill="#000000" font-family="sans-serif" font-size="13" font-weight="bold" lengthAdjust="spacing" textLength="7" x="59" y="254.8623">5</text><text fill="#000000" font-family="sans-serif" font-size="13" lengthAdjust="spacing" textLength="100" x="70" y="254.8623">confirms the data</text><polygon fill="#A80036" points="58,286.0703,48,290.0703,58,294.0703,54,290.0703" style="stroke:#A80036;stroke-width:1.0;"/><line style="stroke:#A80036;stroke-width:1.0;stroke-dasharray:2.0,2.0;" x1="52" x2="449" y1="290.0703" y2="290.0703"/><text fill="#000000" font-family="sans-serif" font-size="13" font-weight="bold" lengthAdjust="spacing" textLength="7" x="64" y="285.2139">6</text><text fill="#000000" font-family="sans-serif" font-size="13" lengthAdjust="spacing" textLength="152" x="75" y="285.2139">informs operation success</text><!--MD5=[5965b5d22f323dfc804bd9653163a50a]
@startuml
autonumber
actor "Receptionist" as rcp

activate rcp
rcp -> ":System" : starts registering a new SNS User
activate ":System"
":System" - -> rcp : requests data (SNS Number, Phone Number, Email Address, \n Username, Password)
deactivate ":System"

rcp -> ":System" : types requested data
activate ":System"
":System" - -> rcp : shows the data and requests a confirmation
deactivate ":System"

rcp -> ":System" : confirms the data
activate ":System"
":System" - -> rcp : informs operation success
deactivate ":System"

deactivate rcp

@enduml

PlantUML version 1.2022.1(Tue Feb 01 18:19:58 GMT 2022)
(GPL source distribution)
Java Runtime: OpenJDK Runtime Environment
JVM: OpenJDK 64-Bit Server VM
Default Encoding: Cp1252
Language: en
Country: US
--></g></svg>