<?xml version="1.0" encoding="UTF-8" standalone="no"?><svg xmlns="http://www.w3.org/2000/svg" xmlns:xlink="http://www.w3.org/1999/xlink" contentStyleType="text/css" height="173.7px" preserveAspectRatio="none" style="width:969px;height:173px;background:#FFFFFF;" version="1.1" viewBox="0 0 969 173" width="969.3px" zoomAndPan="magnify"><defs/><g><!--MD5=[5aecfecce2893a859b853b099e7cb163]
class SNSUserUI--><g id="elem_SNSUserUI"><rect codeLine="4" fill="#F1F1F1" height="43.2" id="SNSUserUI" rx="2.25" ry="2.25" style="stroke:#181818;stroke-width:0.45;" width="90" x="6.3" y="71.1"/><ellipse cx="19.8" cy="85.5" fill="#ADD1B2" rx="9.9" ry="9.9" style="stroke:#181818;stroke-width:0.9;"/><path d="M21.6,82.35 Q21.7828,81.9 21.9938,81.675 Q22.2047,81.45 22.4438,81.45 Q22.8656,81.45 23.1328,81.7031 Q23.4,81.9563 23.4,82.5469 L23.4,83.9531 Q23.4,84.5438 23.1469,84.7969 Q22.8938,85.05 22.5,85.05 Q22.1484,85.05 21.9234,84.8953 Q21.6984,84.7406 21.6,84.3328 Q21.5578,84.0516 21.4031,83.8969 Q21.1219,83.6016 20.6156,83.4328 Q20.1094,83.25 19.6031,83.25 Q18.9703,83.25 18.4359,83.5031 Q17.9156,83.7563 17.5078,84.3188 Q17.1,84.8813 17.1,85.6547 L17.1,86.4844 Q17.1,87.4125 17.8594,88.0313 Q18.6188,88.65 19.9688,88.65 Q20.7703,88.65 21.3328,88.4672 Q21.6563,88.3688 22.0219,88.0453 Q22.2609,87.8625 22.3875,87.8063 Q22.5141,87.75 22.6688,87.75 Q22.9641,87.75 23.175,87.9891 Q23.4,88.2141 23.4,88.5375 Q23.4,88.8469 23.0906,89.2125 Q22.6406,89.7469 21.9234,90.0422 Q20.9813,90.45 19.8281,90.45 Q18.4781,90.45 17.3953,89.9156 Q16.5234,89.4938 15.9047,88.5797 Q15.3,87.6656 15.3,86.5828 L15.3,85.5984 Q15.3,84.4734 15.8344,83.4891 Q16.3828,82.5047 17.325,81.9844 Q18.2813,81.45 19.35,81.45 Q19.9969,81.45 20.5594,81.675 Q21.1219,81.9 21.6,82.35 Z " fill="#000000"/><text fill="#000000" font-family="sans-serif" font-size="12.6" lengthAdjust="spacing" textLength="61.2" x="32.4" y="90.6557">SNSUserUI</text><line style="stroke:#181818;stroke-width:0.45;" x1="7.2" x2="95.4" y1="99.9" y2="99.9"/><line style="stroke:#181818;stroke-width:0.45;" x1="7.2" x2="95.4" y1="107.1" y2="107.1"/></g><!--MD5=[ef9007883e8308b904c8dd3f6418e3c0]
class SpecifyNewSNSUserController--><g id="elem_SpecifyNewSNSUserController"><rect codeLine="5" fill="#F1F1F1" height="43.2" id="SpecifyNewSNSUserController" rx="2.25" ry="2.25" style="stroke:#181818;stroke-width:0.45;" width="199.8" x="151.2" y="71.1"/><ellipse cx="164.7" cy="85.5" fill="#ADD1B2" rx="9.9" ry="9.9" style="stroke:#181818;stroke-width:0.9;"/><path d="M166.5,82.35 Q166.6828,81.9 166.8938,81.675 Q167.1047,81.45 167.3438,81.45 Q167.7656,81.45 168.0328,81.7031 Q168.3,81.9563 168.3,82.5469 L168.3,83.9531 Q168.3,84.5438 168.0469,84.7969 Q167.7938,85.05 167.4,85.05 Q167.0484,85.05 166.8234,84.8953 Q166.5984,84.7406 166.5,84.3328 Q166.4578,84.0516 166.3031,83.8969 Q166.0219,83.6016 165.5156,83.4328 Q165.0094,83.25 164.5031,83.25 Q163.8703,83.25 163.3359,83.5031 Q162.8156,83.7563 162.4078,84.3188 Q162,84.8813 162,85.6547 L162,86.4844 Q162,87.4125 162.7594,88.0313 Q163.5188,88.65 164.8688,88.65 Q165.6703,88.65 166.2328,88.4672 Q166.5563,88.3688 166.9219,88.0453 Q167.1609,87.8625 167.2875,87.8063 Q167.4141,87.75 167.5688,87.75 Q167.8641,87.75 168.075,87.9891 Q168.3,88.2141 168.3,88.5375 Q168.3,88.8469 167.9906,89.2125 Q167.5406,89.7469 166.8234,90.0422 Q165.8813,90.45 164.7281,90.45 Q163.3781,90.45 162.2953,89.9156 Q161.4234,89.4938 160.8047,88.5797 Q160.2,87.6656 160.2,86.5828 L160.2,85.5984 Q160.2,84.4734 160.7344,83.4891 Q161.2828,82.5047 162.225,81.9844 Q163.1813,81.45 164.25,81.45 Q164.8969,81.45 165.4594,81.675 Q166.0219,81.9 166.5,82.35 Z " fill="#000000"/><text fill="#000000" font-family="sans-serif" font-size="12.6" lengthAdjust="spacing" textLength="171" x="177.3" y="90.6557">SpecifyNewSNSUserController</text><line style="stroke:#181818;stroke-width:0.45;" x1="152.1" x2="350.1" y1="99.9" y2="99.9"/><line style="stroke:#181818;stroke-width:0.45;" x1="152.1" x2="350.1" y1="107.1" y2="107.1"/></g><!--MD5=[a5ad3856b0c65e07b10297b4477b22bb]
class SNSUserStore--><g id="elem_SNSUserStore"><rect codeLine="6" fill="#F1F1F1" height="43.2" id="SNSUserStore" rx="2.25" ry="2.25" style="stroke:#181818;stroke-width:0.45;" width="109.8" x="653.4" y="6.3"/><ellipse cx="666.9" cy="20.7" fill="#ADD1B2" rx="9.9" ry="9.9" style="stroke:#181818;stroke-width:0.9;"/><path d="M668.7,17.55 Q668.8828,17.1 669.0938,16.875 Q669.3047,16.65 669.5438,16.65 Q669.9656,16.65 670.2328,16.9031 Q670.5,17.1563 670.5,17.7469 L670.5,19.1531 Q670.5,19.7438 670.2469,19.9969 Q669.9938,20.25 669.6,20.25 Q669.2484,20.25 669.0234,20.0953 Q668.7984,19.9406 668.7,19.5328 Q668.6578,19.2516 668.5031,19.0969 Q668.2219,18.8016 667.7156,18.6328 Q667.2094,18.45 666.7031,18.45 Q666.0703,18.45 665.5359,18.7031 Q665.0156,18.9563 664.6078,19.5188 Q664.2,20.0813 664.2,20.8547 L664.2,21.6844 Q664.2,22.6125 664.9594,23.2313 Q665.7188,23.85 667.0688,23.85 Q667.8703,23.85 668.4328,23.6672 Q668.7563,23.5688 669.1219,23.2453 Q669.3609,23.0625 669.4875,23.0063 Q669.6141,22.95 669.7688,22.95 Q670.0641,22.95 670.275,23.1891 Q670.5,23.4141 670.5,23.7375 Q670.5,24.0469 670.1906,24.4125 Q669.7406,24.9469 669.0234,25.2422 Q668.0813,25.65 666.9281,25.65 Q665.5781,25.65 664.4953,25.1156 Q663.6234,24.6938 663.0047,23.7797 Q662.4,22.8656 662.4,21.7828 L662.4,20.7984 Q662.4,19.6734 662.9344,18.6891 Q663.4828,17.7047 664.425,17.1844 Q665.3813,16.65 666.45,16.65 Q667.0969,16.65 667.6594,16.875 Q668.2219,17.1 668.7,17.55 Z " fill="#000000"/><text fill="#000000" font-family="sans-serif" font-size="12.6" lengthAdjust="spacing" textLength="81" x="679.5" y="25.8557">SNSUserStore</text><line style="stroke:#181818;stroke-width:0.45;" x1="654.3" x2="762.3" y1="35.1" y2="35.1"/><line style="stroke:#181818;stroke-width:0.45;" x1="654.3" x2="762.3" y1="42.3" y2="42.3"/></g><!--MD5=[02e4b9b7573f1156f41e60aa5b4e25a4]
class Company--><g id="elem_Company"><rect codeLine="7" fill="#F1F1F1" height="43.2" id="Company" rx="2.25" ry="2.25" style="stroke:#181818;stroke-width:0.45;" width="82.8" x="405.9" y="71.1"/><ellipse cx="419.4" cy="85.5" fill="#ADD1B2" rx="9.9" ry="9.9" style="stroke:#181818;stroke-width:0.9;"/><path d="M421.2,82.35 Q421.3828,81.9 421.5938,81.675 Q421.8047,81.45 422.0438,81.45 Q422.4656,81.45 422.7328,81.7031 Q423,81.9563 423,82.5469 L423,83.9531 Q423,84.5438 422.7469,84.7969 Q422.4938,85.05 422.1,85.05 Q421.7484,85.05 421.5234,84.8953 Q421.2984,84.7406 421.2,84.3328 Q421.1578,84.0516 421.0031,83.8969 Q420.7219,83.6016 420.2156,83.4328 Q419.7094,83.25 419.2031,83.25 Q418.5703,83.25 418.0359,83.5031 Q417.5156,83.7563 417.1078,84.3188 Q416.7,84.8813 416.7,85.6547 L416.7,86.4844 Q416.7,87.4125 417.4594,88.0313 Q418.2188,88.65 419.5688,88.65 Q420.3703,88.65 420.9328,88.4672 Q421.2563,88.3688 421.6219,88.0453 Q421.8609,87.8625 421.9875,87.8063 Q422.1141,87.75 422.2688,87.75 Q422.5641,87.75 422.775,87.9891 Q423,88.2141 423,88.5375 Q423,88.8469 422.6906,89.2125 Q422.2406,89.7469 421.5234,90.0422 Q420.5813,90.45 419.4281,90.45 Q418.0781,90.45 416.9953,89.9156 Q416.1234,89.4938 415.5047,88.5797 Q414.9,87.6656 414.9,86.5828 L414.9,85.5984 Q414.9,84.4734 415.4344,83.4891 Q415.9828,82.5047 416.925,81.9844 Q417.8813,81.45 418.95,81.45 Q419.5969,81.45 420.1594,81.675 Q420.7219,81.9 421.2,82.35 Z " fill="#000000"/><text fill="#000000" font-family="sans-serif" font-size="12.6" lengthAdjust="spacing" textLength="54" x="432" y="90.6557">Company</text><line style="stroke:#181818;stroke-width:0.45;" x1="406.8" x2="487.8" y1="99.9" y2="99.9"/><line style="stroke:#181818;stroke-width:0.45;" x1="406.8" x2="487.8" y1="107.1" y2="107.1"/></g><!--MD5=[72be06cc7ae02ccc98efe28a50e62246]
class SNSUser--><g id="elem_SNSUser"><rect codeLine="8" fill="#F1F1F1" height="43.2" id="SNSUser" rx="2.25" ry="2.25" style="stroke:#181818;stroke-width:0.45;" width="79.2" x="883.8" y="124.2"/><ellipse cx="897.3" cy="138.6" fill="#ADD1B2" rx="9.9" ry="9.9" style="stroke:#181818;stroke-width:0.9;"/><path d="M899.1,135.45 Q899.2828,135 899.4938,134.775 Q899.7047,134.55 899.9438,134.55 Q900.3656,134.55 900.6328,134.8031 Q900.9,135.0563 900.9,135.6469 L900.9,137.0531 Q900.9,137.6438 900.6469,137.8969 Q900.3938,138.15 900,138.15 Q899.6484,138.15 899.4234,137.9953 Q899.1984,137.8406 899.1,137.4328 Q899.0578,137.1516 898.9031,136.9969 Q898.6219,136.7016 898.1156,136.5328 Q897.6094,136.35 897.1031,136.35 Q896.4703,136.35 895.9359,136.6031 Q895.4156,136.8563 895.0078,137.4188 Q894.6,137.9813 894.6,138.7547 L894.6,139.5844 Q894.6,140.5125 895.3594,141.1313 Q896.1188,141.75 897.4688,141.75 Q898.2703,141.75 898.8328,141.5672 Q899.1563,141.4688 899.5219,141.1453 Q899.7609,140.9625 899.8875,140.9063 Q900.0141,140.85 900.1688,140.85 Q900.4641,140.85 900.675,141.0891 Q900.9,141.3141 900.9,141.6375 Q900.9,141.9469 900.5906,142.3125 Q900.1406,142.8469 899.4234,143.1422 Q898.4813,143.55 897.3281,143.55 Q895.9781,143.55 894.8953,143.0156 Q894.0234,142.5938 893.4047,141.6797 Q892.8,140.7656 892.8,139.6828 L892.8,138.6984 Q892.8,137.5734 893.3344,136.5891 Q893.8828,135.6047 894.825,135.0844 Q895.7813,134.55 896.85,134.55 Q897.4969,134.55 898.0594,134.775 Q898.6219,135 899.1,135.45 Z " fill="#000000"/><text fill="#000000" font-family="sans-serif" font-size="12.6" lengthAdjust="spacing" textLength="50.4" x="909.9" y="143.7557">SNSUser</text><line style="stroke:#181818;stroke-width:0.45;" x1="884.7" x2="962.1" y1="153" y2="153"/><line style="stroke:#181818;stroke-width:0.45;" x1="884.7" x2="962.1" y1="160.2" y2="160.2"/></g><!--MD5=[8ae808d068a8995f06b9b3ec51357f0b]
class AuthFacade--><g id="elem_AuthFacade"><rect codeLine="9" fill="#F1F1F1" height="43.2" id="AuthFacade" rx="2.25" ry="2.25" style="stroke:#181818;stroke-width:0.45;" width="98.1" x="659.25" y="81"/><ellipse cx="672.75" cy="95.4" fill="#ADD1B2" rx="9.9" ry="9.9" style="stroke:#181818;stroke-width:0.9;"/><path d="M674.55,92.25 Q674.7328,91.8 674.9438,91.575 Q675.1547,91.35 675.3938,91.35 Q675.8156,91.35 676.0828,91.6031 Q676.35,91.8563 676.35,92.4469 L676.35,93.8531 Q676.35,94.4438 676.0969,94.6969 Q675.8438,94.95 675.45,94.95 Q675.0984,94.95 674.8734,94.7953 Q674.6484,94.6406 674.55,94.2328 Q674.5078,93.9516 674.3531,93.7969 Q674.0719,93.5016 673.5656,93.3328 Q673.0594,93.15 672.5531,93.15 Q671.9203,93.15 671.3859,93.4031 Q670.8656,93.6563 670.4578,94.2188 Q670.05,94.7813 670.05,95.5547 L670.05,96.3844 Q670.05,97.3125 670.8094,97.9313 Q671.5688,98.55 672.9188,98.55 Q673.7203,98.55 674.2828,98.3672 Q674.6063,98.2688 674.9719,97.9453 Q675.2109,97.7625 675.3375,97.7063 Q675.4641,97.65 675.6188,97.65 Q675.9141,97.65 676.125,97.8891 Q676.35,98.1141 676.35,98.4375 Q676.35,98.7469 676.0406,99.1125 Q675.5906,99.6469 674.8734,99.9422 Q673.9313,100.35 672.7781,100.35 Q671.4281,100.35 670.3453,99.8156 Q669.4734,99.3938 668.8547,98.4797 Q668.25,97.5656 668.25,96.4828 L668.25,95.4984 Q668.25,94.3734 668.7844,93.3891 Q669.3328,92.4047 670.275,91.8844 Q671.2313,91.35 672.3,91.35 Q672.9469,91.35 673.5094,91.575 Q674.0719,91.8 674.55,92.25 Z " fill="#000000"/><text fill="#000000" font-family="sans-serif" font-size="12.6" lengthAdjust="spacing" textLength="69.3" x="685.35" y="100.5557">AuthFacade</text><line style="stroke:#181818;stroke-width:0.45;" x1="660.15" x2="756.45" y1="109.8" y2="109.8"/><line style="stroke:#181818;stroke-width:0.45;" x1="660.15" x2="756.45" y1="117" y2="117"/></g><!--MD5=[79e9dff59931c324a0be3859e56ca0c2]
link SNSUserUI to SpecifyNewSNSUserController--><g id="link_SNSUserUI_SpecifyNewSNSUserController"><path codeLine="12" d="M96.39,92.7 C111.285,92.7 128.601,92.7 146.133,92.7 " fill="none" id="SNSUserUI-to-SpecifyNewSNSUserController" style="stroke:#181818;stroke-width:0.9;stroke-dasharray:7.0,7.0;"/><polygon fill="#181818" points="151.074,92.7,142.974,89.1,146.574,92.7,142.974,96.3,151.074,92.7" style="stroke:#181818;stroke-width:0.9;"/></g><!--MD5=[1bd9080c7e199931e49bc5a1616681ac]
link Company to SNSUserStore--><g id="link_Company_SNSUserStore"><path codeLine="13" d="M488.772,84.681 C525.042,77.283 579.546,65.574 626.4,53.1 C633.591,51.183 641.097,49.05 648.513,46.845 " fill="none" id="Company-to-SNSUserStore" style="stroke:#181818;stroke-width:0.9;"/><polygon fill="#181818" points="653.121,45.468,644.3266,44.3594,648.8126,46.767,646.405,51.2529,653.121,45.468" style="stroke:#181818;stroke-width:0.9;"/><polygon fill="#000000" points="558.7788,44.121,550.2478,43.4235,551.4671,48.5711,558.7788,44.121" style="stroke:#000000;stroke-width:0.9;"/><text fill="#000000" font-family="sans-serif" font-size="11.7" lengthAdjust="spacing" textLength="28.8" x="562.5" y="49.9456">has a</text><text fill="#000000" font-family="sans-serif" font-size="11.7" lengthAdjust="spacing" textLength="6.3" x="495.8836" y="96.7213">1</text><text fill="#000000" font-family="sans-serif" font-size="11.7" lengthAdjust="spacing" textLength="4.5" x="641.6218" y="60.6515">*</text></g><!--MD5=[b01d27099955aced792f1ce85db49798]
link SNSUserStore to SNSUser--><g id="link_SNSUserStore_SNSUser"><path codeLine="14" d="M748.323,49.527 C785.457,70.047 841.14,100.827 879.507,122.031 " fill="none" id="SNSUserStore-to-SNSUser" style="stroke:#181818;stroke-width:0.9;"/><polygon fill="#181818" points="883.629,124.308,878.2868,117.2347,879.6923,122.1281,874.7989,123.5335,883.629,124.308" style="stroke:#181818;stroke-width:0.9;"/><polygon fill="#000000" points="798.6385,67.135,792.7932,60.8822,790.2342,65.5122,798.6385,67.135" style="stroke:#000000;stroke-width:0.9;"/><text fill="#000000" font-family="sans-serif" font-size="11.7" lengthAdjust="spacing" textLength="53.1" x="802.8" y="69.7456">keeps info</text><text fill="#000000" font-family="sans-serif" font-size="11.7" lengthAdjust="spacing" textLength="6.3" x="751.0108" y="68.7377">1</text><text fill="#000000" font-family="sans-serif" font-size="11.7" lengthAdjust="spacing" textLength="4.5" x="872.1693" y="134.1127">*</text></g><!--MD5=[f9cdac24711892c79830af13cc2031b7]
link SpecifyNewSNSUserController to Company--><g id="link_SpecifyNewSNSUserController_Company"><path codeLine="15" d="M351.189,92.7 C368.667,92.7 386.055,92.7 401.103,92.7 " fill="none" id="SpecifyNewSNSUserController-to-Company" style="stroke:#181818;stroke-width:0.9;stroke-dasharray:7.0,7.0;"/><polygon fill="#181818" points="405.693,92.7,397.593,89.1,401.193,92.7,397.593,96.3,405.693,92.7" style="stroke:#181818;stroke-width:0.9;"/></g><!--MD5=[d4a05fd00d8a645f4efadc9ca4772650]
link SpecifyNewSNSUserController to SNSUserStore--><g id="link_SpecifyNewSNSUserController_SNSUserStore"><path codeLine="16" d="M336.906,71.091 C359.298,65.601 383.472,59.859 405.9,54.9 C454.464,44.163 466.272,38.817 515.7,33.3 C560.052,28.35 610.524,27.099 648.54,27.036 " fill="none" id="SpecifyNewSNSUserController-to-SNSUserStore" style="stroke:#181818;stroke-width:0.9;stroke-dasharray:7.0,7.0;"/><polygon fill="#181818" points="653.112,27.036,645.012,23.436,648.612,27.036,645.012,30.636,653.112,27.036" style="stroke:#181818;stroke-width:0.9;"/></g><!--MD5=[6134efd207260bf120211f9f3ff9fab2]
link SpecifyNewSNSUserController to SNSUser--><g id="link_SpecifyNewSNSUserController_SNSUser"><path codeLine="17" d="M326.952,114.309 C351.864,120.627 379.881,126.819 405.9,130.5 C579.807,155.079 789.804,151.02 879.021,147.744 " fill="none" id="SpecifyNewSNSUserController-to-SNSUser" style="stroke:#181818;stroke-width:0.9;stroke-dasharray:7.0,7.0;"/><polygon fill="#181818" points="883.692,147.564,875.464,144.2671,879.1951,147.731,875.7312,151.4622,883.692,147.564" style="stroke:#181818;stroke-width:0.9;"/></g><!--MD5=[717d4b03d3c4372f4eafe5e342a0a7dd]
link Company to AuthFacade--><g id="link_Company_AuthFacade"><path codeLine="18" d="M488.718,101.52 C497.574,103.095 506.916,104.49 515.7,105.3 C564.417,109.809 620.397,108.252 659.232,106.101 " fill="none" id="Company-AuthFacade" style="stroke:#181818;stroke-width:0.9;"/><polygon fill="#000000" points="524.6984,97.4791,516.6318,94.6164,516.4897,99.9045,524.6984,97.4791" style="stroke:#000000;stroke-width:0.9;"/><text fill="#000000" font-family="sans-serif" font-size="11.7" lengthAdjust="spacing" textLength="97.2" x="528.3" y="102.1456">registers SNSUser</text></g><!--MD5=[0e92646b2ab239cee09c8ed13899920d]
@startuml
skinparam classAttributeIconSize 0
left to right direction

class SNSUserUI{}
class SpecifyNewSNSUserController{}
class SNSUserStore{}
class Company{}
class SNSUser{}
class AuthFacade{}


SNSUserUI ..> SpecifyNewSNSUserController
Company "1"- ->"*" SNSUserStore : has a >
SNSUserStore "1"- ->"*" SNSUser : keeps info >
SpecifyNewSNSUserController ..> Company
SpecifyNewSNSUserController ..> SNSUserStore
SpecifyNewSNSUserController ..> SNSUser
Company - - AuthFacade : registers SNSUser >

@enduml

PlantUML version 1.2022.4(Sat Apr 09 14:29:17 BST 2022)
(GPL source distribution)
Java Runtime: OpenJDK Runtime Environment
JVM: OpenJDK 64-Bit Server VM
Default Encoding: Cp1252
Language: en
Country: US
--></g></svg>