<?xml version="1.0" encoding="UTF-8" standalone="no"?><svg xmlns="http://www.w3.org/2000/svg" xmlns:xlink="http://www.w3.org/1999/xlink" contentStyleType="text/css" height="404px" preserveAspectRatio="none" style="width:1743px;height:404px;background:#FFFFFF;" version="1.1" viewBox="0 0 1743 404" width="1743px" zoomAndPan="magnify"><defs/><g><!--MD5=[f569afd9272271957300b6d3f7825f41]
class NewVaccineUI--><g id="elem_NewVaccineUI"><rect codeLine="4" fill="#F1F1F1" height="65.6094" id="NewVaccineUI" rx="2.5" ry="2.5" style="stroke:#181818;stroke-width:0.5;" width="251" x="7" y="248.5"/><ellipse cx="84.25" cy="264.5" fill="#ADD1B2" rx="11" ry="11" style="stroke:#181818;stroke-width:1.0;"/><path d="M86.25,261 Q86.4531,260.5 86.6875,260.25 Q86.9219,260 87.1875,260 Q87.6563,260 87.9531,260.2813 Q88.25,260.5625 88.25,261.2188 L88.25,262.7813 Q88.25,263.4375 87.9688,263.7188 Q87.6875,264 87.25,264 Q86.8594,264 86.6094,263.8281 Q86.3594,263.6563 86.25,263.2031 Q86.2031,262.8906 86.0313,262.7188 Q85.7188,262.3906 85.1563,262.2031 Q84.5938,262 84.0313,262 Q83.3281,262 82.7344,262.2813 Q82.1563,262.5625 81.7031,263.1875 Q81.25,263.8125 81.25,264.6719 L81.25,265.5938 Q81.25,266.625 82.0938,267.3125 Q82.9375,268 84.4375,268 Q85.3281,268 85.9531,267.7969 Q86.3125,267.6875 86.7188,267.3281 Q86.9844,267.125 87.125,267.0625 Q87.2656,267 87.4375,267 Q87.7656,267 88,267.2656 Q88.25,267.5156 88.25,267.875 Q88.25,268.2188 87.9063,268.625 Q87.4063,269.2188 86.6094,269.5469 Q85.5625,270 84.2813,270 Q82.7813,270 81.5781,269.4063 Q80.6094,268.9375 79.9219,267.9219 Q79.25,266.9063 79.25,265.7031 L79.25,264.6094 Q79.25,263.3594 79.8438,262.2656 Q80.4531,261.1719 81.5,260.5938 Q82.5625,260 83.75,260 Q84.4688,260 85.0938,260.25 Q85.7188,260.5 86.25,261 Z " fill="#000000"/><text fill="#000000" font-family="sans-serif" font-size="14" lengthAdjust="spacing" textLength="88" x="104.75" y="270.2285">NewVaccineUI</text><line style="stroke:#181818;stroke-width:0.5;" x1="8" x2="257" y1="280.5" y2="280.5"/><text fill="#000000" font-family="sans-serif" font-size="14" lengthAdjust="spacing" textLength="239" x="13" y="299.0332">SpecifyNewVaccineTypeController ctrl</text><line style="stroke:#181818;stroke-width:0.5;" x1="8" x2="257" y1="306.1094" y2="306.1094"/></g><!--MD5=[b544bdeb8009592daad59703134949fe]
class NewVaccineController--><g id="elem_NewVaccineController"><rect codeLine="8" fill="#F1F1F1" height="118.4375" id="NewVaccineController" rx="2.5" ry="2.5" style="stroke:#181818;stroke-width:0.5;" width="607" x="319" y="222.5"/><ellipse cx="549.25" cy="238.5" fill="#ADD1B2" rx="11" ry="11" style="stroke:#181818;stroke-width:1.0;"/><path d="M551.25,235 Q551.4531,234.5 551.6875,234.25 Q551.9219,234 552.1875,234 Q552.6563,234 552.9531,234.2813 Q553.25,234.5625 553.25,235.2188 L553.25,236.7813 Q553.25,237.4375 552.9688,237.7188 Q552.6875,238 552.25,238 Q551.8594,238 551.6094,237.8281 Q551.3594,237.6563 551.25,237.2031 Q551.2031,236.8906 551.0313,236.7188 Q550.7188,236.3906 550.1563,236.2031 Q549.5938,236 549.0313,236 Q548.3281,236 547.7344,236.2813 Q547.1563,236.5625 546.7031,237.1875 Q546.25,237.8125 546.25,238.6719 L546.25,239.5938 Q546.25,240.625 547.0938,241.3125 Q547.9375,242 549.4375,242 Q550.3281,242 550.9531,241.7969 Q551.3125,241.6875 551.7188,241.3281 Q551.9844,241.125 552.125,241.0625 Q552.2656,241 552.4375,241 Q552.7656,241 553,241.2656 Q553.25,241.5156 553.25,241.875 Q553.25,242.2188 552.9063,242.625 Q552.4063,243.2188 551.6094,243.5469 Q550.5625,244 549.2813,244 Q547.7813,244 546.5781,243.4063 Q545.6094,242.9375 544.9219,241.9219 Q544.25,240.9063 544.25,239.7031 L544.25,238.6094 Q544.25,237.3594 544.8438,236.2656 Q545.4531,235.1719 546.5,234.5938 Q547.5625,234 548.75,234 Q549.4688,234 550.0938,234.25 Q550.7188,234.5 551.25,235 Z " fill="#000000"/><text fill="#000000" font-family="sans-serif" font-size="14" lengthAdjust="spacing" textLength="138" x="569.75" y="244.2285">NewVaccineController</text><line style="stroke:#181818;stroke-width:0.5;" x1="320" x2="925" y1="254.5" y2="254.5"/><text fill="#000000" font-family="sans-serif" font-size="14" lengthAdjust="spacing" textLength="121" x="325" y="273.0332">Company company</text><text fill="#000000" font-family="sans-serif" font-size="14" lengthAdjust="spacing" textLength="75" x="325" y="290.6426">Vaccine vcc</text><line style="stroke:#181818;stroke-width:0.5;" x1="320" x2="925" y1="297.7188" y2="297.7188"/><text fill="#000000" font-family="sans-serif" font-size="14" lengthAdjust="spacing" textLength="595" x="325" y="316.252">+createVaccine(name, id, brand, numDoses, dosage, recoveryPeriod, doseInterval, typeCode)</text><text fill="#000000" font-family="sans-serif" font-size="14" lengthAdjust="spacing" textLength="138" x="325" y="333.8613">+validateVaccine(vcc)</text></g><!--MD5=[19e445fc4d3b48519cbe33da05496394]
class Vaccine--><g id="elem_Vaccine"><rect codeLine="15" fill="#F1F1F1" height="188.875" id="Vaccine" rx="2.5" ry="2.5" style="stroke:#181818;stroke-width:0.5;" width="132" x="1044" y="7"/><ellipse cx="1081.5" cy="23" fill="#ADD1B2" rx="11" ry="11" style="stroke:#181818;stroke-width:1.0;"/><path d="M1083.5,19.5 Q1083.7031,19 1083.9375,18.75 Q1084.1719,18.5 1084.4375,18.5 Q1084.9063,18.5 1085.2031,18.7813 Q1085.5,19.0625 1085.5,19.7188 L1085.5,21.2813 Q1085.5,21.9375 1085.2188,22.2188 Q1084.9375,22.5 1084.5,22.5 Q1084.1094,22.5 1083.8594,22.3281 Q1083.6094,22.1563 1083.5,21.7031 Q1083.4531,21.3906 1083.2813,21.2188 Q1082.9688,20.8906 1082.4063,20.7031 Q1081.8438,20.5 1081.2813,20.5 Q1080.5781,20.5 1079.9844,20.7813 Q1079.4063,21.0625 1078.9531,21.6875 Q1078.5,22.3125 1078.5,23.1719 L1078.5,24.0938 Q1078.5,25.125 1079.3438,25.8125 Q1080.1875,26.5 1081.6875,26.5 Q1082.5781,26.5 1083.2031,26.2969 Q1083.5625,26.1875 1083.9688,25.8281 Q1084.2344,25.625 1084.375,25.5625 Q1084.5156,25.5 1084.6875,25.5 Q1085.0156,25.5 1085.25,25.7656 Q1085.5,26.0156 1085.5,26.375 Q1085.5,26.7188 1085.1563,27.125 Q1084.6563,27.7188 1083.8594,28.0469 Q1082.8125,28.5 1081.5313,28.5 Q1080.0313,28.5 1078.8281,27.9063 Q1077.8594,27.4375 1077.1719,26.4219 Q1076.5,25.4063 1076.5,24.2031 L1076.5,23.1094 Q1076.5,21.8594 1077.0938,20.7656 Q1077.7031,19.6719 1078.75,19.0938 Q1079.8125,18.5 1081,18.5 Q1081.7188,18.5 1082.3438,18.75 Q1082.9688,19 1083.5,19.5 Z " fill="#000000"/><text fill="#000000" font-family="sans-serif" font-size="14" lengthAdjust="spacing" textLength="50" x="1100.5" y="28.7285">Vaccine</text><line style="stroke:#181818;stroke-width:0.5;" x1="1045" x2="1175" y1="39" y2="39"/><text fill="#000000" font-family="sans-serif" font-size="14" lengthAdjust="spacing" textLength="81" x="1050" y="57.5332">-String name</text><text fill="#000000" font-family="sans-serif" font-size="14" lengthAdjust="spacing" textLength="57" x="1050" y="75.1426">-String id</text><text fill="#000000" font-family="sans-serif" font-size="14" lengthAdjust="spacing" textLength="83" x="1050" y="92.752">-String brand</text><text fill="#000000" font-family="sans-serif" font-size="14" lengthAdjust="spacing" textLength="91" x="1050" y="110.3613">-int numDoses</text><text fill="#000000" font-family="sans-serif" font-size="14" lengthAdjust="spacing" textLength="99" x="1050" y="127.9707">-double dosage</text><text fill="#000000" font-family="sans-serif" font-size="14" lengthAdjust="spacing" textLength="120" x="1050" y="145.5801">-int recoveryPeriod</text><text fill="#000000" font-family="sans-serif" font-size="14" lengthAdjust="spacing" textLength="101" x="1050" y="163.1895">-int doseInterval</text><text fill="#000000" font-family="sans-serif" font-size="14" lengthAdjust="spacing" textLength="107" x="1050" y="180.7988">-String typeCode</text><line style="stroke:#181818;stroke-width:0.5;" x1="1045" x2="1175" y1="187.875" y2="187.875"/></g><!--MD5=[02e4b9b7573f1156f41e60aa5b4e25a4]
class Company--><g id="elem_Company"><rect codeLine="27" fill="#F1F1F1" height="100.8281" id="Company" rx="2.5" ry="2.5" style="stroke:#181818;stroke-width:0.5;" width="246" x="987" y="231"/><ellipse cx="1075.75" cy="247" fill="#ADD1B2" rx="11" ry="11" style="stroke:#181818;stroke-width:1.0;"/><path d="M1077.75,243.5 Q1077.9531,243 1078.1875,242.75 Q1078.4219,242.5 1078.6875,242.5 Q1079.1563,242.5 1079.4531,242.7813 Q1079.75,243.0625 1079.75,243.7188 L1079.75,245.2813 Q1079.75,245.9375 1079.4688,246.2188 Q1079.1875,246.5 1078.75,246.5 Q1078.3594,246.5 1078.1094,246.3281 Q1077.8594,246.1563 1077.75,245.7031 Q1077.7031,245.3906 1077.5313,245.2188 Q1077.2188,244.8906 1076.6563,244.7031 Q1076.0938,244.5 1075.5313,244.5 Q1074.8281,244.5 1074.2344,244.7813 Q1073.6563,245.0625 1073.2031,245.6875 Q1072.75,246.3125 1072.75,247.1719 L1072.75,248.0938 Q1072.75,249.125 1073.5938,249.8125 Q1074.4375,250.5 1075.9375,250.5 Q1076.8281,250.5 1077.4531,250.2969 Q1077.8125,250.1875 1078.2188,249.8281 Q1078.4844,249.625 1078.625,249.5625 Q1078.7656,249.5 1078.9375,249.5 Q1079.2656,249.5 1079.5,249.7656 Q1079.75,250.0156 1079.75,250.375 Q1079.75,250.7188 1079.4063,251.125 Q1078.9063,251.7188 1078.1094,252.0469 Q1077.0625,252.5 1075.7813,252.5 Q1074.2813,252.5 1073.0781,251.9063 Q1072.1094,251.4375 1071.4219,250.4219 Q1070.75,249.4063 1070.75,248.2031 L1070.75,247.1094 Q1070.75,245.8594 1071.3438,244.7656 Q1071.9531,243.6719 1073,243.0938 Q1074.0625,242.5 1075.25,242.5 Q1075.9688,242.5 1076.5938,242.75 Q1077.2188,243 1077.75,243.5 Z " fill="#000000"/><text fill="#000000" font-family="sans-serif" font-size="14" lengthAdjust="spacing" textLength="60" x="1096.25" y="252.7285">Company</text><line style="stroke:#181818;stroke-width:0.5;" x1="988" x2="1232" y1="263" y2="263"/><text fill="#000000" font-family="sans-serif" font-size="14" lengthAdjust="spacing" textLength="234" x="993" y="281.5332">VaccineTypeStore vaccineTypeStore</text><text fill="#000000" font-family="sans-serif" font-size="14" lengthAdjust="spacing" textLength="170" x="993" y="299.1426">VaccineStore vaccineStore</text><line style="stroke:#181818;stroke-width:0.5;" x1="988" x2="1232" y1="306.2188" y2="306.2188"/><text fill="#000000" font-family="sans-serif" font-size="14" lengthAdjust="spacing" textLength="113" x="993" y="324.752">+addVaccine(vcc)</text></g><!--MD5=[9532c95099058dfe385d7270fd32fc0d]
class VaccineTypeStore--><g id="elem_VaccineTypeStore"><rect codeLine="33" fill="#F1F1F1" height="65.6094" id="VaccineTypeStore" rx="2.5" ry="2.5" style="stroke:#181818;stroke-width:0.5;" width="148" x="1340" y="236.5"/><ellipse cx="1355" cy="252.5" fill="#ADD1B2" rx="11" ry="11" style="stroke:#181818;stroke-width:1.0;"/><path d="M1357,249 Q1357.2031,248.5 1357.4375,248.25 Q1357.6719,248 1357.9375,248 Q1358.4063,248 1358.7031,248.2813 Q1359,248.5625 1359,249.2188 L1359,250.7813 Q1359,251.4375 1358.7188,251.7188 Q1358.4375,252 1358,252 Q1357.6094,252 1357.3594,251.8281 Q1357.1094,251.6563 1357,251.2031 Q1356.9531,250.8906 1356.7813,250.7188 Q1356.4688,250.3906 1355.9063,250.2031 Q1355.3438,250 1354.7813,250 Q1354.0781,250 1353.4844,250.2813 Q1352.9063,250.5625 1352.4531,251.1875 Q1352,251.8125 1352,252.6719 L1352,253.5938 Q1352,254.625 1352.8438,255.3125 Q1353.6875,256 1355.1875,256 Q1356.0781,256 1356.7031,255.7969 Q1357.0625,255.6875 1357.4688,255.3281 Q1357.7344,255.125 1357.875,255.0625 Q1358.0156,255 1358.1875,255 Q1358.5156,255 1358.75,255.2656 Q1359,255.5156 1359,255.875 Q1359,256.2188 1358.6563,256.625 Q1358.1563,257.2188 1357.3594,257.5469 Q1356.3125,258 1355.0313,258 Q1353.5313,258 1352.3281,257.4063 Q1351.3594,256.9375 1350.6719,255.9219 Q1350,254.9063 1350,253.7031 L1350,252.6094 Q1350,251.3594 1350.5938,250.2656 Q1351.2031,249.1719 1352.25,248.5938 Q1353.3125,248 1354.5,248 Q1355.2188,248 1355.8438,248.25 Q1356.4688,248.5 1357,249 Z " fill="#000000"/><text fill="#000000" font-family="sans-serif" font-size="14" lengthAdjust="spacing" textLength="116" x="1369" y="258.2285">VaccineTypeStore</text><line style="stroke:#181818;stroke-width:0.5;" x1="1341" x2="1487" y1="268.5" y2="268.5"/><line style="stroke:#181818;stroke-width:0.5;" x1="1341" x2="1487" y1="276.5" y2="276.5"/><text fill="#000000" font-family="sans-serif" font-size="14" lengthAdjust="spacing" textLength="92" x="1346" y="295.0332">+getTypeList()</text></g><!--MD5=[16e898dea44373438d7a6991ca77efa0]
class VaccineStore--><g id="elem_VaccineStore"><rect fill="#F1F1F1" height="48" id="VaccineStore" rx="2.5" ry="2.5" style="stroke:#181818;stroke-width:0.5;" width="116" x="1356" y="349.5"/><ellipse cx="1371" cy="365.5" fill="#ADD1B2" rx="11" ry="11" style="stroke:#181818;stroke-width:1.0;"/><path d="M1373,362 Q1373.2031,361.5 1373.4375,361.25 Q1373.6719,361 1373.9375,361 Q1374.4063,361 1374.7031,361.2813 Q1375,361.5625 1375,362.2188 L1375,363.7813 Q1375,364.4375 1374.7188,364.7188 Q1374.4375,365 1374,365 Q1373.6094,365 1373.3594,364.8281 Q1373.1094,364.6563 1373,364.2031 Q1372.9531,363.8906 1372.7813,363.7188 Q1372.4688,363.3906 1371.9063,363.2031 Q1371.3438,363 1370.7813,363 Q1370.0781,363 1369.4844,363.2813 Q1368.9063,363.5625 1368.4531,364.1875 Q1368,364.8125 1368,365.6719 L1368,366.5938 Q1368,367.625 1368.8438,368.3125 Q1369.6875,369 1371.1875,369 Q1372.0781,369 1372.7031,368.7969 Q1373.0625,368.6875 1373.4688,368.3281 Q1373.7344,368.125 1373.875,368.0625 Q1374.0156,368 1374.1875,368 Q1374.5156,368 1374.75,368.2656 Q1375,368.5156 1375,368.875 Q1375,369.2188 1374.6563,369.625 Q1374.1563,370.2188 1373.3594,370.5469 Q1372.3125,371 1371.0313,371 Q1369.5313,371 1368.3281,370.4063 Q1367.3594,369.9375 1366.6719,368.9219 Q1366,367.9063 1366,366.7031 L1366,365.6094 Q1366,364.3594 1366.5938,363.2656 Q1367.2031,362.1719 1368.25,361.5938 Q1369.3125,361 1370.5,361 Q1371.2188,361 1371.8438,361.25 Q1372.4688,361.5 1373,362 Z " fill="#000000"/><text fill="#000000" font-family="sans-serif" font-size="14" lengthAdjust="spacing" textLength="84" x="1385" y="371.2285">VaccineStore</text><line style="stroke:#181818;stroke-width:0.5;" x1="1357" x2="1471" y1="381.5" y2="381.5"/><line style="stroke:#181818;stroke-width:0.5;" x1="1357" x2="1471" y1="389.5" y2="389.5"/></g><!--MD5=[0e501da62322464167c8ec4d233a6b7e]
class VaccineType--><g id="elem_VaccineType"><rect fill="#F1F1F1" height="48" id="VaccineType" rx="2.5" ry="2.5" style="stroke:#181818;stroke-width:0.5;" width="114" x="1622" y="245.5"/><ellipse cx="1637" cy="261.5" fill="#ADD1B2" rx="11" ry="11" style="stroke:#181818;stroke-width:1.0;"/><path d="M1639,258 Q1639.2031,257.5 1639.4375,257.25 Q1639.6719,257 1639.9375,257 Q1640.4063,257 1640.7031,257.2813 Q1641,257.5625 1641,258.2188 L1641,259.7813 Q1641,260.4375 1640.7188,260.7188 Q1640.4375,261 1640,261 Q1639.6094,261 1639.3594,260.8281 Q1639.1094,260.6563 1639,260.2031 Q1638.9531,259.8906 1638.7813,259.7188 Q1638.4688,259.3906 1637.9063,259.2031 Q1637.3438,259 1636.7813,259 Q1636.0781,259 1635.4844,259.2813 Q1634.9063,259.5625 1634.4531,260.1875 Q1634,260.8125 1634,261.6719 L1634,262.5938 Q1634,263.625 1634.8438,264.3125 Q1635.6875,265 1637.1875,265 Q1638.0781,265 1638.7031,264.7969 Q1639.0625,264.6875 1639.4688,264.3281 Q1639.7344,264.125 1639.875,264.0625 Q1640.0156,264 1640.1875,264 Q1640.5156,264 1640.75,264.2656 Q1641,264.5156 1641,264.875 Q1641,265.2188 1640.6563,265.625 Q1640.1563,266.2188 1639.3594,266.5469 Q1638.3125,267 1637.0313,267 Q1635.5313,267 1634.3281,266.4063 Q1633.3594,265.9375 1632.6719,264.9219 Q1632,263.9063 1632,262.7031 L1632,261.6094 Q1632,260.3594 1632.5938,259.2656 Q1633.2031,258.1719 1634.25,257.5938 Q1635.3125,257 1636.5,257 Q1637.2188,257 1637.8438,257.25 Q1638.4688,257.5 1639,258 Z " fill="#000000"/><text fill="#000000" font-family="sans-serif" font-size="14" lengthAdjust="spacing" textLength="82" x="1651" y="267.2285">VaccineType</text><line style="stroke:#181818;stroke-width:0.5;" x1="1623" x2="1735" y1="277.5" y2="277.5"/><line style="stroke:#181818;stroke-width:0.5;" x1="1623" x2="1735" y1="285.5" y2="285.5"/></g><!--MD5=[dfc247278aac100883c76934d392fa3c]
link NewVaccineUI to NewVaccineController--><g id="link_NewVaccineUI_NewVaccineController"><path codeLine="37" d="M258.22,281.5 C275.65,281.5 294.14,281.5 313.21,281.5 " fill="none" id="NewVaccineUI-to-NewVaccineController" style="stroke:#181818;stroke-width:1.0;stroke-dasharray:7.0,7.0;"/><polygon fill="#181818" points="318.6,281.5,309.6,277.5,313.6,281.5,309.6,285.5,318.6,281.5" style="stroke:#181818;stroke-width:1.0;"/></g><!--MD5=[26b80dd60d3305f854b992ec0b603e2d]
link Company to VaccineTypeStore--><g id="link_Company_VaccineTypeStore"><path codeLine="38" d="M1233.4,276.64 C1269.53,275.2 1307.94,273.67 1339.92,272.4 " fill="none" id="Company-VaccineTypeStore" style="stroke:#181818;stroke-width:1.0;"/><polygon fill="#000000" points="1272.996,265.4769,1263.8412,262.9001,1264.075,268.7733,1272.996,265.4769" style="stroke:#000000;stroke-width:1.0;"/><text fill="#000000" font-family="sans-serif" font-size="13" lengthAdjust="spacing" textLength="32" x="1277" y="270.9951">has a</text><text fill="#000000" font-family="sans-serif" font-size="13" lengthAdjust="spacing" textLength="7" x="1241.133" y="290.3424">1</text><text fill="#000000" font-family="sans-serif" font-size="13" lengthAdjust="spacing" textLength="5" x="1327.0227" y="287.0574">*</text></g><!--MD5=[f2e0045a3c67c0696cf082af1b4c8493]
link Company to VaccineStore--><g id="link_Company_VaccineStore"><path codeLine="39" d="M1233.4,318.79 C1275.75,331.69 1321.21,345.54 1355.8,356.07 " fill="none" id="Company-VaccineStore" style="stroke:#181818;stroke-width:1.0;"/><polygon fill="#000000" points="1272.7831,322.1326,1264.9867,316.6858,1263.2741,322.3086,1272.7831,322.1326" style="stroke:#000000;stroke-width:1.0;"/><text fill="#000000" font-family="sans-serif" font-size="13" lengthAdjust="spacing" textLength="32" x="1277" y="325.9951">has a</text><text fill="#000000" font-family="sans-serif" font-size="13" lengthAdjust="spacing" textLength="7" x="1241.133" y="335.0609">1</text><text fill="#000000" font-family="sans-serif" font-size="13" lengthAdjust="spacing" textLength="5" x="1343.0228" y="368.3794">*</text></g><!--MD5=[d008df8d9f8e445f2ab98a1ffd9c1902]
link VaccineTypeStore to VaccineType--><g id="link_VaccineTypeStore_VaccineType"><path codeLine="40" d="M1488.26,269.5 C1530.51,269.5 1582.82,269.5 1621.81,269.5 " fill="none" id="VaccineTypeStore-VaccineType" style="stroke:#181818;stroke-width:1.0;"/><polygon fill="#000000" points="1528,260.6758,1518.9549,257.7369,1518.9549,263.6147,1528,260.6758" style="stroke:#000000;stroke-width:1.0;"/><text fill="#000000" font-family="sans-serif" font-size="13" lengthAdjust="spacing" textLength="59" x="1532" y="265.9951">keeps info</text><text fill="#000000" font-family="sans-serif" font-size="13" lengthAdjust="spacing" textLength="7" x="1495.9145" y="283.8191">1</text><text fill="#000000" font-family="sans-serif" font-size="13" lengthAdjust="spacing" textLength="5" x="1609.1622" y="284.0426">*</text></g><!--MD5=[ef8bee665db2d6680aaae8921349e302]
link NewVaccineController to Company--><g id="link_NewVaccineController_Company"><path codeLine="41" d="M926.15,281.5 C945.31,281.5 963.94,281.5 981.53,281.5 " fill="none" id="NewVaccineController-to-Company" style="stroke:#181818;stroke-width:1.0;stroke-dasharray:7.0,7.0;"/><polygon fill="#181818" points="986.95,281.5,977.95,277.5,981.95,281.5,977.95,285.5,986.95,281.5" style="stroke:#181818;stroke-width:1.0;"/></g><!--MD5=[132939099aec1834c15937ca37ce4cfe]
link NewVaccineController to VaccineStore--><g id="link_NewVaccineController_VaccineStore"><path codeLine="42" d="M922.06,340.52 C943.99,343.88 965.81,346.93 987,349.5 C1115.62,365.09 1267.35,370.58 1350.57,372.49 " fill="none" id="NewVaccineController-to-VaccineStore" style="stroke:#181818;stroke-width:1.0;stroke-dasharray:7.0,7.0;"/><polygon fill="#181818" points="1355.95,372.61,1347.0438,368.4054,1350.9513,372.4957,1346.8609,376.4033,1355.95,372.61" style="stroke:#181818;stroke-width:1.0;"/></g><!--MD5=[dafc3ad0e179f3897c7ab7578eee9ba7]
link NewVaccineController to Vaccine--><g id="link_NewVaccineController_Vaccine"><path codeLine="43" d="M782.81,222.44 C869.47,190.31 972.29,152.19 1039,127.45 " fill="none" id="NewVaccineController-to-Vaccine" style="stroke:#181818;stroke-width:1.0;stroke-dasharray:7.0,7.0;"/><polygon fill="#181818" points="1043.74,125.7,1033.9108,125.0787,1039.0519,127.4384,1036.6922,132.5796,1043.74,125.7" style="stroke:#181818;stroke-width:1.0;"/></g><!--MD5=[88766e6484a1ca8ccc1bd053118d4595]
@startuml
skinparam classAttributeIconSize 0
left to right direction

class NewVaccineUI{
SpecifyNewVaccineTypeController ctrl
}

class NewVaccineController{
Company company
Vaccine vcc
+createVaccine(name, id, brand, numDoses, dosage, recoveryPeriod, doseInterval, typeCode)
+validateVaccine(vcc)
}

class Vaccine{
 - String name
 - String id
 - String brand
 - int numDoses
 - double dosage
 - int recoveryPeriod
 - int doseInterval
 - String typeCode

}

class Company{
VaccineTypeStore vaccineTypeStore
VaccineStore vaccineStore
+addVaccine(vcc)
}

class VaccineTypeStore{
+getTypeList()
}

NewVaccineUI ..> NewVaccineController
Company "1"- -"*" VaccineTypeStore : has a >
Company "1"- -"*" VaccineStore : has a >
VaccineTypeStore "1"- -"*" VaccineType : keeps info >
NewVaccineController ..> Company
NewVaccineController ..> VaccineStore
NewVaccineController ..> Vaccine



@enduml

PlantUML version 1.2022.4(Sat Apr 09 14:29:17 BST 2022)
(GPL source distribution)
Java Runtime: OpenJDK Runtime Environment
JVM: OpenJDK 64-Bit Server VM
Default Encoding: Cp1252
Language: pt
Country: PT
--></g></svg>