<?xml version="1.0" encoding="UTF-8" standalone="no"?><svg xmlns="http://www.w3.org/2000/svg" xmlns:xlink="http://www.w3.org/1999/xlink" contentStyleType="text/css" height="213px" preserveAspectRatio="none" style="width:1002px;height:213px;background:#FFFFFF;" version="1.1" viewBox="0 0 1002 213" width="1002px" zoomAndPan="magnify"><defs/><g><!--MD5=[02e4b9b7573f1156f41e60aa5b4e25a4]
class Company--><g id="elem_Company"><rect codeLine="6" fill="#F1F1F1" height="57.6094" id="Company" rx="2.5" ry="2.5" style="stroke:#181818;stroke-width:0.5;" width="92" x="7" y="106.5"/><ellipse cx="22" cy="122.5" fill="#ADD1B2" rx="11" ry="11" style="stroke:#181818;stroke-width:1.0;"/><path d="M24,119 Q24.2031,118.5 24.4375,118.25 Q24.6719,118 24.9375,118 Q25.4063,118 25.7031,118.2813 Q26,118.5625 26,119.2188 L26,120.7813 Q26,121.4375 25.7188,121.7188 Q25.4375,122 25,122 Q24.6094,122 24.3594,121.8281 Q24.1094,121.6563 24,121.2031 Q23.9531,120.8906 23.7813,120.7188 Q23.4688,120.3906 22.9063,120.2031 Q22.3438,120 21.7813,120 Q21.0781,120 20.4844,120.2813 Q19.9063,120.5625 19.4531,121.1875 Q19,121.8125 19,122.6719 L19,123.5938 Q19,124.625 19.8438,125.3125 Q20.6875,126 22.1875,126 Q23.0781,126 23.7031,125.7969 Q24.0625,125.6875 24.4688,125.3281 Q24.7344,125.125 24.875,125.0625 Q25.0156,125 25.1875,125 Q25.5156,125 25.75,125.2656 Q26,125.5156 26,125.875 Q26,126.2188 25.6563,126.625 Q25.1563,127.2188 24.3594,127.5469 Q23.3125,128 22.0313,128 Q20.5313,128 19.3281,127.4063 Q18.3594,126.9375 17.6719,125.9219 Q17,124.9063 17,123.7031 L17,122.6094 Q17,121.3594 17.5938,120.2656 Q18.2031,119.1719 19.25,118.5938 Q20.3125,118 21.5,118 Q22.2188,118 22.8438,118.25 Q23.4688,118.5 24,119 Z " fill="#000000"/><text fill="#000000" font-family="sans-serif" font-size="14" lengthAdjust="spacing" textLength="60" x="36" y="128.2285">Company</text><line style="stroke:#181818;stroke-width:0.5;" x1="8" x2="98" y1="138.5" y2="138.5"/><text fill="#000000" font-family="sans-serif" font-size="14" lengthAdjust="spacing" textLength="78" x="13" y="157.0332">-designation</text></g><!--MD5=[19e445fc4d3b48519cbe33da05496394]
class Vaccine--><g id="elem_Vaccine"><rect codeLine="10" fill="#F1F1F1" height="75.2188" id="Vaccine" rx="2.5" ry="2.5" style="stroke:#181818;stroke-width:0.5;" width="101" x="430" y="7"/><ellipse cx="453.55" cy="23" fill="#ADD1B2" rx="11" ry="11" style="stroke:#181818;stroke-width:1.0;"/><path d="M455.55,19.5 Q455.7531,19 455.9875,18.75 Q456.2219,18.5 456.4875,18.5 Q456.9563,18.5 457.2531,18.7813 Q457.55,19.0625 457.55,19.7188 L457.55,21.2813 Q457.55,21.9375 457.2688,22.2188 Q456.9875,22.5 456.55,22.5 Q456.1594,22.5 455.9094,22.3281 Q455.6594,22.1563 455.55,21.7031 Q455.5031,21.3906 455.3313,21.2188 Q455.0188,20.8906 454.4563,20.7031 Q453.8938,20.5 453.3313,20.5 Q452.6281,20.5 452.0344,20.7813 Q451.4563,21.0625 451.0031,21.6875 Q450.55,22.3125 450.55,23.1719 L450.55,24.0938 Q450.55,25.125 451.3938,25.8125 Q452.2375,26.5 453.7375,26.5 Q454.6281,26.5 455.2531,26.2969 Q455.6125,26.1875 456.0188,25.8281 Q456.2844,25.625 456.425,25.5625 Q456.5656,25.5 456.7375,25.5 Q457.0656,25.5 457.3,25.7656 Q457.55,26.0156 457.55,26.375 Q457.55,26.7188 457.2063,27.125 Q456.7063,27.7188 455.9094,28.0469 Q454.8625,28.5 453.5813,28.5 Q452.0813,28.5 450.8781,27.9063 Q449.9094,27.4375 449.2219,26.4219 Q448.55,25.4063 448.55,24.2031 L448.55,23.1094 Q448.55,21.8594 449.1438,20.7656 Q449.7531,19.6719 450.8,19.0938 Q451.8625,18.5 453.05,18.5 Q453.7688,18.5 454.3938,18.75 Q455.0188,19 455.55,19.5 Z " fill="#000000"/><text fill="#000000" font-family="sans-serif" font-size="14" lengthAdjust="spacing" textLength="50" x="469.45" y="28.7285">Vaccine</text><line style="stroke:#181818;stroke-width:0.5;" x1="431" x2="530" y1="39" y2="39"/><text fill="#000000" font-family="sans-serif" font-size="14" lengthAdjust="spacing" textLength="89" x="436" y="57.5332">-vaccineName</text><text fill="#000000" font-family="sans-serif" font-size="14" lengthAdjust="spacing" textLength="20" x="436" y="75.1426">-lot</text></g><!--MD5=[0e501da62322464167c8ec4d233a6b7e]
class VaccineType--><g id="elem_VaccineType"><rect codeLine="15" fill="#F1F1F1" height="75.2188" id="VaccineType" rx="2.5" ry="2.5" style="stroke:#181818;stroke-width:0.5;" width="114" x="630" y="78"/><ellipse cx="645" cy="94" fill="#ADD1B2" rx="11" ry="11" style="stroke:#181818;stroke-width:1.0;"/><path d="M647,90.5 Q647.2031,90 647.4375,89.75 Q647.6719,89.5 647.9375,89.5 Q648.4063,89.5 648.7031,89.7813 Q649,90.0625 649,90.7188 L649,92.2813 Q649,92.9375 648.7188,93.2188 Q648.4375,93.5 648,93.5 Q647.6094,93.5 647.3594,93.3281 Q647.1094,93.1563 647,92.7031 Q646.9531,92.3906 646.7813,92.2188 Q646.4688,91.8906 645.9063,91.7031 Q645.3438,91.5 644.7813,91.5 Q644.0781,91.5 643.4844,91.7813 Q642.9063,92.0625 642.4531,92.6875 Q642,93.3125 642,94.1719 L642,95.0938 Q642,96.125 642.8438,96.8125 Q643.6875,97.5 645.1875,97.5 Q646.0781,97.5 646.7031,97.2969 Q647.0625,97.1875 647.4688,96.8281 Q647.7344,96.625 647.875,96.5625 Q648.0156,96.5 648.1875,96.5 Q648.5156,96.5 648.75,96.7656 Q649,97.0156 649,97.375 Q649,97.7188 648.6563,98.125 Q648.1563,98.7188 647.3594,99.0469 Q646.3125,99.5 645.0313,99.5 Q643.5313,99.5 642.3281,98.9063 Q641.3594,98.4375 640.6719,97.4219 Q640,96.4063 640,95.2031 L640,94.1094 Q640,92.8594 640.5938,91.7656 Q641.2031,90.6719 642.25,90.0938 Q643.3125,89.5 644.5,89.5 Q645.2188,89.5 645.8438,89.75 Q646.4688,90 647,90.5 Z " fill="#000000"/><text fill="#000000" font-family="sans-serif" font-size="14" lengthAdjust="spacing" textLength="82" x="659" y="99.7285">VaccineType</text><line style="stroke:#181818;stroke-width:0.5;" x1="631" x2="743" y1="110" y2="110"/><text fill="#000000" font-family="sans-serif" font-size="14" lengthAdjust="spacing" textLength="16" x="636" y="128.5332">-id</text><text fill="#000000" font-family="sans-serif" font-size="14" lengthAdjust="spacing" textLength="74" x="636" y="146.1426">-description</text></g><!--MD5=[da547346deef918ea16944ba046651ef]
class Administrator--><g id="elem_Administrator"><rect codeLine="20" fill="#F1F1F1" height="40" id="Administrator" rx="2.5" ry="2.5" style="stroke:#181818;stroke-width:0.5;" width="115" x="880" y="157.5"/><ellipse cx="895" cy="173.5" fill="#ADD1B2" rx="11" ry="11" style="stroke:#181818;stroke-width:1.0;"/><path d="M897,170 Q897.2031,169.5 897.4375,169.25 Q897.6719,169 897.9375,169 Q898.4063,169 898.7031,169.2813 Q899,169.5625 899,170.2188 L899,171.7813 Q899,172.4375 898.7188,172.7188 Q898.4375,173 898,173 Q897.6094,173 897.3594,172.8281 Q897.1094,172.6563 897,172.2031 Q896.9531,171.8906 896.7813,171.7188 Q896.4688,171.3906 895.9063,171.2031 Q895.3438,171 894.7813,171 Q894.0781,171 893.4844,171.2813 Q892.9063,171.5625 892.4531,172.1875 Q892,172.8125 892,173.6719 L892,174.5938 Q892,175.625 892.8438,176.3125 Q893.6875,177 895.1875,177 Q896.0781,177 896.7031,176.7969 Q897.0625,176.6875 897.4688,176.3281 Q897.7344,176.125 897.875,176.0625 Q898.0156,176 898.1875,176 Q898.5156,176 898.75,176.2656 Q899,176.5156 899,176.875 Q899,177.2188 898.6563,177.625 Q898.1563,178.2188 897.3594,178.5469 Q896.3125,179 895.0313,179 Q893.5313,179 892.3281,178.4063 Q891.3594,177.9375 890.6719,176.9219 Q890,175.9063 890,174.7031 L890,173.6094 Q890,172.3594 890.5938,171.2656 Q891.2031,170.1719 892.25,169.5938 Q893.3125,169 894.5,169 Q895.2188,169 895.8438,169.25 Q896.4688,169.5 897,170 Z " fill="#000000"/><text fill="#000000" font-family="sans-serif" font-size="14" lengthAdjust="spacing" textLength="83" x="909" y="179.2285">Administrator</text><line style="stroke:#181818;stroke-width:0.5;" x1="881" x2="994" y1="189.5" y2="189.5"/></g><!--MD5=[eaea43e34e45c5b9d20b595fc78f1f20]
link Company to Administrator--><g id="link_Company_Administrator"><path codeLine="23" d="M86.72,164.58 C112.2,184.19 149.44,206.5 187,206.5 C187,206.5 187,206.5 688,206.5 C754.24,206.5 829.74,196.21 879.97,187.89 " fill="none" id="Company-Administrator" style="stroke:#181818;stroke-width:1.0;"/><polygon fill="#000000" points="464.4978,197.8226,455.543,194.6193,455.3703,200.4946,464.4978,197.8226" style="stroke:#000000;stroke-width:1.0;"/><text fill="#000000" font-family="sans-serif" font-size="13" lengthAdjust="spacing" textLength="37" x="468.5" y="202.9951">knows</text><text fill="#000000" font-family="sans-serif" font-size="13" lengthAdjust="spacing" textLength="7" x="85.9529" y="185.7994">1</text><text fill="#000000" font-family="sans-serif" font-size="13" lengthAdjust="spacing" textLength="5" x="866.9035" y="203.8799">*</text></g><!--MD5=[c29c8d42883934cbaf5793c72a334947]
link Company to Vaccine--><g id="link_Company_Vaccine"><path codeLine="24" d="M99.27,118.58 C109,115.29 119.27,112.07 129,109.5 C234.75,81.53 361.56,61.2 429.93,51.29 " fill="none" id="Company-Vaccine" style="stroke:#181818;stroke-width:1.0;"/><polygon fill="#000000" points="169.8996,79.6787,160.4501,78.6025,161.6222,84.3623,169.8996,79.6787" style="stroke:#000000;stroke-width:1.0;"/><text fill="#000000" font-family="sans-serif" font-size="13" lengthAdjust="spacing" textLength="41" x="174" y="85.9951">applies</text><text fill="#000000" font-family="sans-serif" font-size="13" lengthAdjust="spacing" textLength="7" x="106.891" y="130.7661">1</text><text fill="#000000" font-family="sans-serif" font-size="13" lengthAdjust="spacing" textLength="5" x="417.1353" y="66.9672">*</text></g><!--MD5=[05986564e1c13a00611587b35563d868]
link Company to VaccineType--><g id="link_Company_VaccineType"><path codeLine="25" d="M99.2,134.07 C212.06,130.5 506.06,121.19 629.81,117.28 " fill="none" id="Company-VaccineType" style="stroke:#181818;stroke-width:1.0;"/><polygon fill="#000000" points="255.9975,115.5176,246.864,112.8663,247.0499,118.7412,255.9975,115.5176" style="stroke:#000000;stroke-width:1.0;"/><text fill="#000000" font-family="sans-serif" font-size="13" lengthAdjust="spacing" textLength="139" x="260" y="120.9951">promotes administration</text><text fill="#000000" font-family="sans-serif" font-size="13" lengthAdjust="spacing" textLength="7" x="107.1209" y="148.6714">1</text><text fill="#000000" font-family="sans-serif" font-size="13" lengthAdjust="spacing" textLength="5" x="617.1622" y="132.0367">*</text></g><!--MD5=[f0553939d664499c8c3e148c02d4348e]
link VaccineType to Administrator--><g id="link_VaccineType_Administrator"><path codeLine="26" d="M744.08,129.49 C784.59,139.6 839.1,153.2 879.77,163.35 " fill="none" id="VaccineType-Administrator" style="stroke:#181818;stroke-width:1.0;"/><polygon fill="#000000" points="783.8512,128.8864,775.7868,123.8449,774.3637,129.5479,783.8512,128.8864" style="stroke:#000000;stroke-width:1.0;"/><text fill="#000000" font-family="sans-serif" font-size="13" lengthAdjust="spacing" textLength="61" x="788" y="132.9951">created by</text><text fill="#000000" font-family="sans-serif" font-size="13" lengthAdjust="spacing" textLength="5" x="752.0861" y="145.9489">*</text><text fill="#000000" font-family="sans-serif" font-size="13" lengthAdjust="spacing" textLength="7" x="864.9249" y="176.0797">1</text></g><!--MD5=[3568623adf67b2630dce9e60c05bd02a]
link Vaccine to VaccineType--><g id="link_Vaccine_VaccineType"><path codeLine="27" d="M531,61.69 C560.79,72.03 598.81,85.23 629.73,95.96 " fill="none" id="Vaccine-VaccineType" style="stroke:#181818;stroke-width:1.0;"/><polygon fill="#000000" points="570.7235,67.3154,563.1423,61.5729,561.2149,67.1258,570.7235,67.3154" style="stroke:#000000;stroke-width:1.0;"/><text fill="#000000" font-family="sans-serif" font-size="13" lengthAdjust="spacing" textLength="24" x="575" y="70.9951">is of</text><text fill="#000000" font-family="sans-serif" font-size="13" lengthAdjust="spacing" textLength="5" x="539.1156" y="79.0525">*</text><text fill="#000000" font-family="sans-serif" font-size="13" lengthAdjust="spacing" textLength="7" x="614.9438" y="107.9851">1</text></g><!--MD5=[828410fc34d18e1b32a1d623c10475e6]
@startuml
hide methods
left to right direction
skinparam classAttributeIconSize 0


class Company {
  -designation
}

class Vaccine {
  -vaccineName
  -lot
}

class VaccineType {
  -id
  -description
}

class Administrator {
}

Company "1"- -"*" Administrator : knows >
Company "1"- - -"*" Vaccine : applies >
Company "1"- -"*" VaccineType : promotes administration >
VaccineType "*"- -"1" Administrator : created by >
Vaccine "*"- -"1" VaccineType : is of >






@enduml

PlantUML version 1.2022.4(Sat Apr 09 14:29:17 BST 2022)
(GPL source distribution)
Java Runtime: OpenJDK Runtime Environment
JVM: OpenJDK 64-Bit Server VM
Default Encoding: Cp1252
Language: pt
Country: PT
--></g></svg>