<?xml version="1.0" encoding="UTF-8" standalone="no"?><svg xmlns="http://www.w3.org/2000/svg" xmlns:xlink="http://www.w3.org/1999/xlink" contentStyleType="text/css" height="439px" preserveAspectRatio="none" style="width:1248px;height:439px;background:#FFFFFF;" version="1.1" viewBox="0 0 1248 439" width="1248px" zoomAndPan="magnify"><defs/><g><!--MD5=[02e4b9b7573f1156f41e60aa5b4e25a4]
class Company--><g id="elem_Company"><rect codeLine="5" fill="#F1F1F1" height="57.6094" id="Company" rx="2.5" ry="2.5" style="stroke:#181818;stroke-width:0.5;" width="92" x="7" y="54.3564"/><ellipse cx="22" cy="70.3564" fill="#ADD1B2" rx="11" ry="11" style="stroke:#181818;stroke-width:1.0;"/><path d="M24,66.8564 Q24.2031,66.3564 24.4375,66.1064 Q24.6719,65.8564 24.9375,65.8564 Q25.4063,65.8564 25.7031,66.1377 Q26,66.4189 26,67.0752 L26,68.6377 Q26,69.2939 25.7188,69.5752 Q25.4375,69.8564 25,69.8564 Q24.6094,69.8564 24.3594,69.6846 Q24.1094,69.5127 24,69.0596 Q23.9531,68.7471 23.7813,68.5752 Q23.4688,68.2471 22.9063,68.0596 Q22.3438,67.8564 21.7813,67.8564 Q21.0781,67.8564 20.4844,68.1377 Q19.9063,68.4189 19.4531,69.0439 Q19,69.6689 19,70.5283 L19,71.4502 Q19,72.4814 19.8438,73.1689 Q20.6875,73.8564 22.1875,73.8564 Q23.0781,73.8564 23.7031,73.6533 Q24.0625,73.5439 24.4688,73.1846 Q24.7344,72.9814 24.875,72.9189 Q25.0156,72.8564 25.1875,72.8564 Q25.5156,72.8564 25.75,73.1221 Q26,73.3721 26,73.7314 Q26,74.0752 25.6563,74.4814 Q25.1563,75.0752 24.3594,75.4033 Q23.3125,75.8564 22.0313,75.8564 Q20.5313,75.8564 19.3281,75.2627 Q18.3594,74.7939 17.6719,73.7783 Q17,72.7627 17,71.5596 L17,70.4658 Q17,69.2158 17.5938,68.1221 Q18.2031,67.0283 19.25,66.4502 Q20.3125,65.8564 21.5,65.8564 Q22.2188,65.8564 22.8438,66.1064 Q23.4688,66.3564 24,66.8564 Z " fill="#000000"/><text fill="#000000" font-family="sans-serif" font-size="14" lengthAdjust="spacing" textLength="60" x="36" y="76.085">Company</text><line style="stroke:#181818;stroke-width:0.5;" x1="8" x2="98" y1="86.3564" y2="86.3564"/><text fill="#000000" font-family="sans-serif" font-size="14" lengthAdjust="spacing" textLength="78" x="13" y="104.8896">-designation</text></g><!--MD5=[03960189e81aa2c066c762ffabbee709]
class Receptionist--><g id="elem_Receptionist"><rect codeLine="9" fill="#F1F1F1" height="40" id="Receptionist" rx="2.5" ry="2.5" style="stroke:#181818;stroke-width:0.5;" width="110" x="289" y="223.3564"/><ellipse cx="304" cy="239.3564" fill="#ADD1B2" rx="11" ry="11" style="stroke:#181818;stroke-width:1.0;"/><path d="M306,235.8564 Q306.2031,235.3564 306.4375,235.1064 Q306.6719,234.8564 306.9375,234.8564 Q307.4063,234.8564 307.7031,235.1377 Q308,235.4189 308,236.0752 L308,237.6377 Q308,238.2939 307.7188,238.5752 Q307.4375,238.8564 307,238.8564 Q306.6094,238.8564 306.3594,238.6846 Q306.1094,238.5127 306,238.0596 Q305.9531,237.7471 305.7813,237.5752 Q305.4688,237.2471 304.9063,237.0596 Q304.3438,236.8564 303.7813,236.8564 Q303.0781,236.8564 302.4844,237.1377 Q301.9063,237.4189 301.4531,238.0439 Q301,238.6689 301,239.5283 L301,240.4502 Q301,241.4814 301.8438,242.1689 Q302.6875,242.8564 304.1875,242.8564 Q305.0781,242.8564 305.7031,242.6533 Q306.0625,242.5439 306.4688,242.1846 Q306.7344,241.9814 306.875,241.9189 Q307.0156,241.8564 307.1875,241.8564 Q307.5156,241.8564 307.75,242.1221 Q308,242.3721 308,242.7314 Q308,243.0752 307.6563,243.4814 Q307.1563,244.0752 306.3594,244.4033 Q305.3125,244.8564 304.0313,244.8564 Q302.5313,244.8564 301.3281,244.2627 Q300.3594,243.7939 299.6719,242.7783 Q299,241.7627 299,240.5596 L299,239.4658 Q299,238.2158 299.5938,237.1221 Q300.2031,236.0283 301.25,235.4502 Q302.3125,234.8564 303.5,234.8564 Q304.2188,234.8564 304.8438,235.1064 Q305.4688,235.3564 306,235.8564 Z " fill="#000000"/><text fill="#000000" font-family="sans-serif" font-size="14" lengthAdjust="spacing" textLength="78" x="318" y="245.085">Receptionist</text><line style="stroke:#181818;stroke-width:0.5;" x1="290" x2="398" y1="255.3564" y2="255.3564"/></g><!--MD5=[a059576e163b46f56762f12600c49258]
class Nurse--><g id="elem_Nurse"><rect codeLine="12" fill="#F1F1F1" height="40" id="Nurse" rx="2.5" ry="2.5" style="stroke:#181818;stroke-width:0.5;" width="69" x="309.5" y="304.3564"/><ellipse cx="324.5" cy="320.3564" fill="#ADD1B2" rx="11" ry="11" style="stroke:#181818;stroke-width:1.0;"/><path d="M326.5,316.8564 Q326.7031,316.3564 326.9375,316.1064 Q327.1719,315.8564 327.4375,315.8564 Q327.9063,315.8564 328.2031,316.1377 Q328.5,316.4189 328.5,317.0752 L328.5,318.6377 Q328.5,319.2939 328.2188,319.5752 Q327.9375,319.8564 327.5,319.8564 Q327.1094,319.8564 326.8594,319.6846 Q326.6094,319.5127 326.5,319.0596 Q326.4531,318.7471 326.2813,318.5752 Q325.9688,318.2471 325.4063,318.0596 Q324.8438,317.8564 324.2813,317.8564 Q323.5781,317.8564 322.9844,318.1377 Q322.4063,318.4189 321.9531,319.0439 Q321.5,319.6689 321.5,320.5283 L321.5,321.4502 Q321.5,322.4814 322.3438,323.1689 Q323.1875,323.8564 324.6875,323.8564 Q325.5781,323.8564 326.2031,323.6533 Q326.5625,323.5439 326.9688,323.1846 Q327.2344,322.9814 327.375,322.9189 Q327.5156,322.8564 327.6875,322.8564 Q328.0156,322.8564 328.25,323.1221 Q328.5,323.3721 328.5,323.7314 Q328.5,324.0752 328.1563,324.4814 Q327.6563,325.0752 326.8594,325.4033 Q325.8125,325.8564 324.5313,325.8564 Q323.0313,325.8564 321.8281,325.2627 Q320.8594,324.7939 320.1719,323.7783 Q319.5,322.7627 319.5,321.5596 L319.5,320.4658 Q319.5,319.2158 320.0938,318.1221 Q320.7031,317.0283 321.75,316.4502 Q322.8125,315.8564 324,315.8564 Q324.7188,315.8564 325.3438,316.1064 Q325.9688,316.3564 326.5,316.8564 Z " fill="#000000"/><text fill="#000000" font-family="sans-serif" font-size="14" lengthAdjust="spacing" textLength="37" x="338.5" y="326.085">Nurse</text><line style="stroke:#181818;stroke-width:0.5;" x1="310.5" x2="377.5" y1="336.3564" y2="336.3564"/></g><!--MD5=[e08b5219aff2a731cc076343b2c6357f]
class CenterCordinator--><g id="elem_CenterCordinator"><rect codeLine="15" fill="#F1F1F1" height="40" id="CenterCordinator" rx="2.5" ry="2.5" style="stroke:#181818;stroke-width:0.5;" width="142" x="273" y="392.3564"/><ellipse cx="288" cy="408.3564" fill="#ADD1B2" rx="11" ry="11" style="stroke:#181818;stroke-width:1.0;"/><path d="M290,404.8564 Q290.2031,404.3564 290.4375,404.1064 Q290.6719,403.8564 290.9375,403.8564 Q291.4063,403.8564 291.7031,404.1377 Q292,404.4189 292,405.0752 L292,406.6377 Q292,407.2939 291.7188,407.5752 Q291.4375,407.8564 291,407.8564 Q290.6094,407.8564 290.3594,407.6846 Q290.1094,407.5127 290,407.0596 Q289.9531,406.7471 289.7813,406.5752 Q289.4688,406.2471 288.9063,406.0596 Q288.3438,405.8564 287.7813,405.8564 Q287.0781,405.8564 286.4844,406.1377 Q285.9063,406.4189 285.4531,407.0439 Q285,407.6689 285,408.5283 L285,409.4502 Q285,410.4814 285.8438,411.1689 Q286.6875,411.8564 288.1875,411.8564 Q289.0781,411.8564 289.7031,411.6533 Q290.0625,411.5439 290.4688,411.1846 Q290.7344,410.9814 290.875,410.9189 Q291.0156,410.8564 291.1875,410.8564 Q291.5156,410.8564 291.75,411.1221 Q292,411.3721 292,411.7314 Q292,412.0752 291.6563,412.4814 Q291.1563,413.0752 290.3594,413.4033 Q289.3125,413.8564 288.0313,413.8564 Q286.5313,413.8564 285.3281,413.2627 Q284.3594,412.7939 283.6719,411.7783 Q283,410.7627 283,409.5596 L283,408.4658 Q283,407.2158 283.5938,406.1221 Q284.2031,405.0283 285.25,404.4502 Q286.3125,403.8564 287.5,403.8564 Q288.2188,403.8564 288.8438,404.1064 Q289.4688,404.3564 290,404.8564 Z " fill="#000000"/><text fill="#000000" font-family="sans-serif" font-size="14" lengthAdjust="spacing" textLength="110" x="302" y="414.085">CenterCordinator</text><line style="stroke:#181818;stroke-width:0.5;" x1="274" x2="414" y1="424.3564" y2="424.3564"/></g><!--MD5=[3fd616f346a44cd59a91eb10b19e157c]
class User--><g id="elem_User"><rect codeLine="18" fill="#F1F1F1" height="92.8281" id="User" rx="2.5" ry="2.5" style="stroke:#181818;stroke-width:0.5;" width="80" x="896" y="189.8564"/><ellipse cx="919.55" cy="205.8564" fill="#ADD1B2" rx="11" ry="11" style="stroke:#181818;stroke-width:1.0;"/><path d="M921.55,202.3564 Q921.7531,201.8564 921.9875,201.6064 Q922.2219,201.3564 922.4875,201.3564 Q922.9563,201.3564 923.2531,201.6377 Q923.55,201.9189 923.55,202.5752 L923.55,204.1377 Q923.55,204.7939 923.2688,205.0752 Q922.9875,205.3564 922.55,205.3564 Q922.1594,205.3564 921.9094,205.1846 Q921.6594,205.0127 921.55,204.5596 Q921.5031,204.2471 921.3313,204.0752 Q921.0188,203.7471 920.4563,203.5596 Q919.8938,203.3564 919.3313,203.3564 Q918.6281,203.3564 918.0344,203.6377 Q917.4563,203.9189 917.0031,204.5439 Q916.55,205.1689 916.55,206.0283 L916.55,206.9502 Q916.55,207.9814 917.3938,208.6689 Q918.2375,209.3564 919.7375,209.3564 Q920.6281,209.3564 921.2531,209.1533 Q921.6125,209.0439 922.0188,208.6846 Q922.2844,208.4814 922.425,208.4189 Q922.5656,208.3564 922.7375,208.3564 Q923.0656,208.3564 923.3,208.6221 Q923.55,208.8721 923.55,209.2314 Q923.55,209.5752 923.2063,209.9814 Q922.7063,210.5752 921.9094,210.9033 Q920.8625,211.3564 919.5813,211.3564 Q918.0813,211.3564 916.8781,210.7627 Q915.9094,210.2939 915.2219,209.2783 Q914.55,208.2627 914.55,207.0596 L914.55,205.9658 Q914.55,204.7158 915.1438,203.6221 Q915.7531,202.5283 916.8,201.9502 Q917.8625,201.3564 919.05,201.3564 Q919.7688,201.3564 920.3938,201.6064 Q921.0188,201.8564 921.55,202.3564 Z " fill="#000000"/><text fill="#000000" font-family="sans-serif" font-size="14" lengthAdjust="spacing" textLength="29" x="935.45" y="211.585">User</text><line style="stroke:#181818;stroke-width:0.5;" x1="897" x2="975" y1="221.8564" y2="221.8564"/><text fill="#000000" font-family="sans-serif" font-size="14" lengthAdjust="spacing" textLength="68" x="902" y="240.3896">-username</text><text fill="#000000" font-family="sans-serif" font-size="14" lengthAdjust="spacing" textLength="65" x="902" y="257.999">-password</text><text fill="#000000" font-family="sans-serif" font-size="14" lengthAdjust="spacing" textLength="38" x="902" y="275.6084">-email</text></g><!--MD5=[7421f545a0d8420c5bec41e74b387d9c]
class Employee--><g id="elem_Employee"><rect codeLine="24" fill="#F1F1F1" height="163.2656" id="Employee" rx="2.5" ry="2.5" style="stroke:#181818;stroke-width:0.5;" width="136" x="602" y="154.8564"/><ellipse cx="635.9" cy="170.8564" fill="#ADD1B2" rx="11" ry="11" style="stroke:#181818;stroke-width:1.0;"/><path d="M637.9,167.3564 Q638.1031,166.8564 638.3375,166.6064 Q638.5719,166.3564 638.8375,166.3564 Q639.3063,166.3564 639.6031,166.6377 Q639.9,166.9189 639.9,167.5752 L639.9,169.1377 Q639.9,169.7939 639.6188,170.0752 Q639.3375,170.3564 638.9,170.3564 Q638.5094,170.3564 638.2594,170.1846 Q638.0094,170.0127 637.9,169.5596 Q637.8531,169.2471 637.6813,169.0752 Q637.3688,168.7471 636.8063,168.5596 Q636.2438,168.3564 635.6813,168.3564 Q634.9781,168.3564 634.3844,168.6377 Q633.8063,168.9189 633.3531,169.5439 Q632.9,170.1689 632.9,171.0283 L632.9,171.9502 Q632.9,172.9814 633.7438,173.6689 Q634.5875,174.3564 636.0875,174.3564 Q636.9781,174.3564 637.6031,174.1533 Q637.9625,174.0439 638.3688,173.6846 Q638.6344,173.4814 638.775,173.4189 Q638.9156,173.3564 639.0875,173.3564 Q639.4156,173.3564 639.65,173.6221 Q639.9,173.8721 639.9,174.2314 Q639.9,174.5752 639.5563,174.9814 Q639.0563,175.5752 638.2594,175.9033 Q637.2125,176.3564 635.9313,176.3564 Q634.4313,176.3564 633.2281,175.7627 Q632.2594,175.2939 631.5719,174.2783 Q630.9,173.2627 630.9,172.0596 L630.9,170.9658 Q630.9,169.7158 631.4938,168.6221 Q632.1031,167.5283 633.15,166.9502 Q634.2125,166.3564 635.4,166.3564 Q636.1188,166.3564 636.7438,166.6064 Q637.3688,166.8564 637.9,167.3564 Z " fill="#000000"/><text fill="#000000" font-family="sans-serif" font-size="14" lengthAdjust="spacing" textLength="62" x="654.1" y="176.585">Employee</text><line style="stroke:#181818;stroke-width:0.5;" x1="603" x2="737" y1="186.8564" y2="186.8564"/><text fill="#000000" font-family="sans-serif" font-size="14" lengthAdjust="spacing" textLength="40" x="608" y="205.3896">-name</text><text fill="#000000" font-family="sans-serif" font-size="14" lengthAdjust="spacing" textLength="38" x="608" y="222.999">-email</text><text fill="#000000" font-family="sans-serif" font-size="14" lengthAdjust="spacing" textLength="56" x="608" y="240.6084">-address</text><text fill="#000000" font-family="sans-serif" font-size="14" lengthAdjust="spacing" textLength="94" x="608" y="258.2178">-phoneNumber</text><text fill="#000000" font-family="sans-serif" font-size="14" lengthAdjust="spacing" textLength="124" x="608" y="275.8271">-citizenCardNumber</text><text fill="#000000" font-family="sans-serif" font-size="14" lengthAdjust="spacing" textLength="79" x="608" y="293.4365">-employeeID</text><text fill="#000000" font-family="sans-serif" font-size="14" lengthAdjust="spacing" textLength="34" x="608" y="311.0459">-Role</text></g><!--MD5=[db6d18d8099558415abc41d00477ab92]
class Admin--><g id="elem_Admin"><rect codeLine="34" fill="#F1F1F1" height="92.8281" id="Admin" rx="2.5" ry="2.5" style="stroke:#181818;stroke-width:0.5;" width="80" x="304" y="94.8564"/><ellipse cx="323.05" cy="110.8564" fill="#ADD1B2" rx="11" ry="11" style="stroke:#181818;stroke-width:1.0;"/><path d="M325.05,107.3564 Q325.2531,106.8564 325.4875,106.6064 Q325.7219,106.3564 325.9875,106.3564 Q326.4563,106.3564 326.7531,106.6377 Q327.05,106.9189 327.05,107.5752 L327.05,109.1377 Q327.05,109.7939 326.7688,110.0752 Q326.4875,110.3564 326.05,110.3564 Q325.6594,110.3564 325.4094,110.1846 Q325.1594,110.0127 325.05,109.5596 Q325.0031,109.2471 324.8313,109.0752 Q324.5188,108.7471 323.9563,108.5596 Q323.3938,108.3564 322.8313,108.3564 Q322.1281,108.3564 321.5344,108.6377 Q320.9563,108.9189 320.5031,109.5439 Q320.05,110.1689 320.05,111.0283 L320.05,111.9502 Q320.05,112.9814 320.8938,113.6689 Q321.7375,114.3564 323.2375,114.3564 Q324.1281,114.3564 324.7531,114.1533 Q325.1125,114.0439 325.5188,113.6846 Q325.7844,113.4814 325.925,113.4189 Q326.0656,113.3564 326.2375,113.3564 Q326.5656,113.3564 326.8,113.6221 Q327.05,113.8721 327.05,114.2314 Q327.05,114.5752 326.7063,114.9814 Q326.2063,115.5752 325.4094,115.9033 Q324.3625,116.3564 323.0813,116.3564 Q321.5813,116.3564 320.3781,115.7627 Q319.4094,115.2939 318.7219,114.2783 Q318.05,113.2627 318.05,112.0596 L318.05,110.9658 Q318.05,109.7158 318.6438,108.6221 Q319.2531,107.5283 320.3,106.9502 Q321.3625,106.3564 322.55,106.3564 Q323.2688,106.3564 323.8938,106.6064 Q324.5188,106.8564 325.05,107.3564 Z " fill="#000000"/><text fill="#000000" font-family="sans-serif" font-size="14" lengthAdjust="spacing" textLength="39" x="337.95" y="116.585">Admin</text><line style="stroke:#181818;stroke-width:0.5;" x1="305" x2="383" y1="126.8564" y2="126.8564"/><text fill="#000000" font-family="sans-serif" font-size="14" lengthAdjust="spacing" textLength="68" x="310" y="145.3896">-username</text><text fill="#000000" font-family="sans-serif" font-size="14" lengthAdjust="spacing" textLength="38" x="310" y="162.999">-email</text><text fill="#000000" font-family="sans-serif" font-size="14" lengthAdjust="spacing" textLength="65" x="310" y="180.6084">-password</text></g><g id="elem_N1"><path d="M1037,223.3564 L1037,232.3564 L976.23,236.3564 L1037,240.3564 L1037,249.708 A0,0 0 0 0 1037,249.708 L1241,249.708 A0,0 0 0 0 1241,249.708 L1241,233.3564 L1231,223.3564 L1037,223.3564 A0,0 0 0 0 1037,223.3564 " fill="#FEFFDD" style="stroke:#181818;stroke-width:0.5;"/><path d="M1231,223.3564 L1231,233.3564 L1241,233.3564 L1231,223.3564 " fill="#FEFFDD" style="stroke:#181818;stroke-width:0.5;"/><text fill="#000000" font-family="sans-serif" font-size="13" lengthAdjust="spacing" textLength="183" x="1043" y="241.8516">Concept of the Auth component</text></g><!--MD5=[e6b253b588892f992f90e4845b74fe0b]
link Admin to Employee--><g id="link_Admin_Employee"><path codeLine="40" d="M384.08,152.8164 C438.02,168.6364 536.08,197.3864 601.88,216.6764 " fill="none" id="Admin-Employee" style="stroke:#181818;stroke-width:1.0;"/><polygon fill="#000000" points="485.798,172.939,477.9452,167.5739,476.2914,173.2143,485.798,172.939" style="stroke:#000000;stroke-width:1.0;"/><text fill="#000000" font-family="sans-serif" font-size="13" lengthAdjust="spacing" textLength="50" x="490" y="176.8516">registers</text><text fill="#000000" font-family="sans-serif" font-size="13" lengthAdjust="spacing" textLength="7" x="392.1151" y="169.9478">1</text><text fill="#000000" font-family="sans-serif" font-size="13" lengthAdjust="spacing" textLength="5" x="589.1559" y="228.8988">*</text></g><!--MD5=[06bb7d2a85a007b79d10922b2d5e4cdd]
link Receptionist to Employee--><g id="link_Receptionist_Employee"><path codeLine="42" d="M399.23,242.1864 C454.99,240.9764 541.91,239.1064 601.95,237.8064 " fill="none" id="Receptionist-Employee" style="stroke:#181818;stroke-width:1.0;"/><polygon fill="#000000" points="500.4988,230.4242,491.3924,227.6814,491.5193,233.5578,500.4988,230.4242" style="stroke:#000000;stroke-width:1.0;"/><text fill="#000000" font-family="sans-serif" font-size="13" lengthAdjust="spacing" textLength="21" x="504.5" y="235.8516">is a</text><text fill="#000000" font-family="sans-serif" font-size="13" lengthAdjust="spacing" textLength="5" x="406.9875" y="256.623">*</text><text fill="#000000" font-family="sans-serif" font-size="13" lengthAdjust="spacing" textLength="7" x="587.1242" y="252.3399">1</text></g><!--MD5=[411632688047b95e932f260c55f2de54]
link Nurse to Employee--><g id="link_Nurse_Employee"><path codeLine="43" d="M378.76,315.1864 C431.35,300.9064 533.87,273.0564 601.9,254.5864 " fill="none" id="Nurse-Employee" style="stroke:#181818;stroke-width:1.0;"/><polygon fill="#000000" points="500.3252,260.2218,490.8261,259.7562,492.3666,265.4286,500.3252,260.2218" style="stroke:#000000;stroke-width:1.0;"/><text fill="#000000" font-family="sans-serif" font-size="13" lengthAdjust="spacing" textLength="21" x="504.5" y="266.8516">is a</text><text fill="#000000" font-family="sans-serif" font-size="13" lengthAdjust="spacing" textLength="5" x="386.4449" y="328.4765">*</text><text fill="#000000" font-family="sans-serif" font-size="13" lengthAdjust="spacing" textLength="7" x="587.0688" y="270.9552">1</text></g><!--MD5=[e4aac2ba8315ed50d556851f6449c1fd]
link CenterCordinator to Employee--><g id="link_CenterCordinator_Employee"><path codeLine="44" d="M387.59,392.3364 C427.65,373.1964 489.07,343.0964 541,314.3564 C561.04,303.2664 582.42,290.5864 601.86,278.7164 " fill="none" id="CenterCordinator-Employee" style="stroke:#181818;stroke-width:1.0;"/><polygon fill="#000000" points="499.9174,303.1898,490.5494,304.8308,493.3031,310.0237,499.9174,303.1898" style="stroke:#000000;stroke-width:1.0;"/><text fill="#000000" font-family="sans-serif" font-size="13" lengthAdjust="spacing" textLength="21" x="504.5" y="310.8516">is a</text><text fill="#000000" font-family="sans-serif" font-size="13" lengthAdjust="spacing" textLength="5" x="394.6602" y="381.6523">*</text><text fill="#000000" font-family="sans-serif" font-size="13" lengthAdjust="spacing" textLength="7" x="587.0244" y="297.7244">1</text></g><!--MD5=[22fb9506fac029fc1d2ae00f0eb8d606]
link Employee to User--><g id="link_Employee_User"><path codeLine="46" d="M738.3,236.3564 C788.1,236.3564 854.23,236.3564 895.7,236.3564 " fill="none" id="Employee-User" style="stroke:#181818;stroke-width:1.0;"/><polygon fill="#000000" points="809,227.5322,799.9549,224.5933,799.9549,230.4712,809,227.5322" style="stroke:#000000;stroke-width:1.0;"/><text fill="#000000" font-family="sans-serif" font-size="13" lengthAdjust="spacing" textLength="21" x="813" y="232.8516">is a</text><text fill="#000000" font-family="sans-serif" font-size="13" lengthAdjust="spacing" textLength="5" x="746.0437" y="250.7313">*</text><text fill="#000000" font-family="sans-serif" font-size="13" lengthAdjust="spacing" textLength="7" x="880.8981" y="251.3232">1</text></g><!--MD5=[09366576ee87d48d594df10cacc83f45]
link Company to Employee--><g id="link_Company_Employee"><path codeLine="48" d="M94.98,54.2064 C119.81,39.3364 152.82,24.3564 185,24.3564 C185,24.3564 185,24.3564 509.5,24.3564 C577.55,24.3564 620.18,94.9764 644.07,154.6964 " fill="none" id="Company-Employee" style="stroke:#181818;stroke-width:1.0;"/><polygon fill="#000000" points="327.9183,16.4323,319.5501,11.9131,318.4919,17.6949,327.9183,16.4323" style="stroke:#000000;stroke-width:1.0;"/><text fill="#000000" font-family="sans-serif" font-size="13" lengthAdjust="spacing" textLength="37" x="332" y="20.8516">knows</text><text fill="#000000" font-family="sans-serif" font-size="13" lengthAdjust="spacing" textLength="7" x="96.3975" y="43.6562">1</text><text fill="#000000" font-family="sans-serif" font-size="13" lengthAdjust="spacing" textLength="5" x="636.4491" y="143.93">*</text></g><!--MD5=[f1c2b2c569abc5f56c317b9d8f3fddee]
link Company to Admin--><g id="link_Company_Admin"><path codeLine="49" d="M99.16,92.4164 C155.35,103.6964 250.41,122.7764 303.72,133.4764 " fill="none" id="Company-Admin" style="stroke:#181818;stroke-width:1.0;"/><polygon fill="#000000" points="169.9022,97.5162,161.6124,92.8547,160.4556,98.6176,169.9022,97.5162" style="stroke:#000000;stroke-width:1.0;"/><text fill="#000000" font-family="sans-serif" font-size="13" lengthAdjust="spacing" textLength="37" x="174" y="101.8516">knows</text><text fill="#000000" font-family="sans-serif" font-size="13" lengthAdjust="spacing" textLength="7" x="107.0746" y="108.6896">1</text><text fill="#000000" font-family="sans-serif" font-size="13" lengthAdjust="spacing" textLength="5" x="291.0998" y="147.0396">*</text></g><!--MD5=[918efe41bfa0dd8c4984712bbd690640]
@startuml
hide methods
left to right direction
skinparam classAttributeIconSize 0

class Company {
  -designation
}

class Receptionist {
}

class Nurse {
}

class CenterCordinator {
}

class User{
-username
-password
-email
}

class Employee{
 -name
 -email
 -address
 -phoneNumber
 -citizenCardNumber
 -employeeID
 -Role
}

class Admin{
-username
-email
-password
}

Admin "1"- - -"*" Employee : registers >

Receptionist "*"- - -"1"  Employee : is a >
Nurse "*"- - -"1"  Employee : is a >
CenterCordinator "*"- - -"1"  Employee : is a >

Employee "*"- - -"1" User : is a >

Company "1"- - -"*" Employee : knows >
Company "1"- - -"*" Admin : knows >

note "Concept of the Auth component" as N1
User .. N1


@enduml

PlantUML version 1.2022.4(Sat Apr 09 14:29:17 BST 2022)
(GPL source distribution)
Java Runtime: OpenJDK Runtime Environment
JVM: OpenJDK 64-Bit Server VM
Default Encoding: Cp1252
Language: en
Country: US
--></g></svg>