<?xml version="1.0" encoding="UTF-8" standalone="no"?><svg xmlns="http://www.w3.org/2000/svg" xmlns:xlink="http://www.w3.org/1999/xlink" contentStyleType="text/css" height="681px" preserveAspectRatio="none" style="width:1399px;height:681px;background:#FFFFFF;" version="1.1" viewBox="0 0 1399 681" width="1399px" zoomAndPan="magnify"><defs/><g><rect fill="#FFFFFF" height="489.2188" style="stroke:#181818;stroke-width:1.0;" width="10" x="44.5" y="92.6094"/><rect fill="#FFFFFF" height="30.3516" style="stroke:#181818;stroke-width:1.0;" width="10" x="323.5" y="114.9609"/><rect fill="#FFFFFF" height="164.4063" style="stroke:#181818;stroke-width:1.0;" width="10" x="323.5" y="175.6641"/><rect fill="#FFFFFF" height="211.4063" style="stroke:#181818;stroke-width:1.0;" width="10" x="323.5" y="370.4219"/><rect fill="#FFFFFF" height="134.0547" style="stroke:#181818;stroke-width:1.0;" width="10" x="742.5" y="206.0156"/><rect fill="#FFFFFF" height="30" style="stroke:#181818;stroke-width:1.0;" width="10" x="742.5" y="400.7734"/><rect fill="#FFFFFF" height="30" style="stroke:#181818;stroke-width:1.0;" width="10" x="954.5" y="461.125"/><rect fill="#FFFFFF" height="30" style="stroke:#181818;stroke-width:1.0;" width="10" x="1215.5" y="521.4766"/><rect fill="#FFFFFF" height="30" style="stroke:#181818;stroke-width:1.0;" width="10" x="1340.5" y="236.3672"/><line style="stroke:#181818;stroke-width:0.5;stroke-dasharray:5.0,5.0;" x1="49" x2="49" y1="82.6094" y2="599.8281"/><line style="stroke:#181818;stroke-width:0.5;stroke-dasharray:5.0,5.0;" x1="328.5" x2="328.5" y1="82.6094" y2="599.8281"/><line style="stroke:#181818;stroke-width:0.5;stroke-dasharray:5.0,5.0;" x1="747.5" x2="747.5" y1="82.6094" y2="599.8281"/><line style="stroke:#181818;stroke-width:0.5;stroke-dasharray:5.0,5.0;" x1="959.5" x2="959.5" y1="82.6094" y2="599.8281"/><line style="stroke:#181818;stroke-width:0.5;stroke-dasharray:5.0,5.0;" x1="1220.5" x2="1220.5" y1="82.6094" y2="599.8281"/><line style="stroke:#181818;stroke-width:0.5;stroke-dasharray:5.0,5.0;" x1="1345.5" x2="1345.5" y1="82.6094" y2="599.8281"/><text fill="#000000" font-family="sans-serif" font-size="14" lengthAdjust="spacing" textLength="83" x="5" y="79.5332">Administrator</text><ellipse cx="49.5" cy="13.5" fill="#E2E2F0" rx="8" ry="8" style="stroke:#181818;stroke-width:0.5;"/><path d="M49.5,21.5 L49.5,48.5 M36.5,29.5 L62.5,29.5 M49.5,48.5 L36.5,63.5 M49.5,48.5 L62.5,63.5 " fill="none" style="stroke:#181818;stroke-width:0.5;"/><text fill="#000000" font-family="sans-serif" font-size="14" lengthAdjust="spacing" textLength="83" x="5" y="613.3613">Administrator</text><ellipse cx="49.5" cy="624.9375" fill="#E2E2F0" rx="8" ry="8" style="stroke:#181818;stroke-width:0.5;"/><path d="M49.5,632.9375 L49.5,659.9375 M36.5,640.9375 L62.5,640.9375 M49.5,659.9375 L36.5,674.9375 M49.5,659.9375 L62.5,674.9375 " fill="none" style="stroke:#181818;stroke-width:0.5;"/><rect fill="#E2E2F0" height="31.6094" rx="2.5" ry="2.5" style="stroke:#181818;stroke-width:0.5;" width="112" x="272.5" y="50"/><text fill="#000000" font-family="sans-serif" font-size="14" lengthAdjust="spacing" textLength="98" x="279.5" y="71.5332">:VaccineTypeUI</text><rect fill="#E2E2F0" height="31.6094" rx="2.5" ry="2.5" style="stroke:#181818;stroke-width:0.5;" width="112" x="272.5" y="598.8281"/><text fill="#000000" font-family="sans-serif" font-size="14" lengthAdjust="spacing" textLength="98" x="279.5" y="620.3613">:VaccineTypeUI</text><rect fill="#E2E2F0" height="31.6094" rx="2.5" ry="2.5" style="stroke:#181818;stroke-width:0.5;" width="234" x="630.5" y="50"/><text fill="#000000" font-family="sans-serif" font-size="14" lengthAdjust="spacing" textLength="220" x="637.5" y="71.5332">:SpecifyNewVaccineTypeController</text><rect fill="#E2E2F0" height="31.6094" rx="2.5" ry="2.5" style="stroke:#181818;stroke-width:0.5;" width="234" x="630.5" y="598.8281"/><text fill="#000000" font-family="sans-serif" font-size="14" lengthAdjust="spacing" textLength="220" x="637.5" y="620.3613">:SpecifyNewVaccineTypeController</text><rect fill="#E2E2F0" height="31.6094" rx="2.5" ry="2.5" style="stroke:#181818;stroke-width:0.5;" width="78" x="920.5" y="50"/><text fill="#000000" font-family="sans-serif" font-size="14" lengthAdjust="spacing" textLength="64" x="927.5" y="71.5332">:Company</text><rect fill="#E2E2F0" height="31.6094" rx="2.5" ry="2.5" style="stroke:#181818;stroke-width:0.5;" width="78" x="920.5" y="598.8281"/><text fill="#000000" font-family="sans-serif" font-size="14" lengthAdjust="spacing" textLength="64" x="927.5" y="620.3613">:Company</text><rect fill="#E2E2F0" height="31.6094" rx="2.5" ry="2.5" style="stroke:#181818;stroke-width:0.5;" width="134" x="1153.5" y="50"/><text fill="#000000" font-family="sans-serif" font-size="14" lengthAdjust="spacing" textLength="120" x="1160.5" y="71.5332">:VaccineTypeStore</text><rect fill="#E2E2F0" height="31.6094" rx="2.5" ry="2.5" style="stroke:#181818;stroke-width:0.5;" width="134" x="1153.5" y="598.8281"/><text fill="#000000" font-family="sans-serif" font-size="14" lengthAdjust="spacing" textLength="120" x="1160.5" y="620.3613">:VaccineTypeStore</text><rect fill="#E2E2F0" height="31.6094" rx="2.5" ry="2.5" style="stroke:#181818;stroke-width:0.5;" width="96" x="1297.5" y="50"/><text fill="#000000" font-family="sans-serif" font-size="14" lengthAdjust="spacing" textLength="82" x="1304.5" y="71.5332">VaccineType</text><rect fill="#E2E2F0" height="31.6094" rx="2.5" ry="2.5" style="stroke:#181818;stroke-width:0.5;" width="96" x="1297.5" y="598.8281"/><text fill="#000000" font-family="sans-serif" font-size="14" lengthAdjust="spacing" textLength="82" x="1304.5" y="620.3613">VaccineType</text><rect fill="#FFFFFF" height="489.2188" style="stroke:#181818;stroke-width:1.0;" width="10" x="44.5" y="92.6094"/><rect fill="#FFFFFF" height="30.3516" style="stroke:#181818;stroke-width:1.0;" width="10" x="323.5" y="114.9609"/><rect fill="#FFFFFF" height="164.4063" style="stroke:#181818;stroke-width:1.0;" width="10" x="323.5" y="175.6641"/><rect fill="#FFFFFF" height="211.4063" style="stroke:#181818;stroke-width:1.0;" width="10" x="323.5" y="370.4219"/><rect fill="#FFFFFF" height="134.0547" style="stroke:#181818;stroke-width:1.0;" width="10" x="742.5" y="206.0156"/><rect fill="#FFFFFF" height="30" style="stroke:#181818;stroke-width:1.0;" width="10" x="742.5" y="400.7734"/><rect fill="#FFFFFF" height="30" style="stroke:#181818;stroke-width:1.0;" width="10" x="954.5" y="461.125"/><rect fill="#FFFFFF" height="30" style="stroke:#181818;stroke-width:1.0;" width="10" x="1215.5" y="521.4766"/><rect fill="#FFFFFF" height="30" style="stroke:#181818;stroke-width:1.0;" width="10" x="1340.5" y="236.3672"/><polygon fill="#181818" points="311.5,110.9609,321.5,114.9609,311.5,118.9609,315.5,114.9609" style="stroke:#181818;stroke-width:1.0;"/><line style="stroke:#181818;stroke-width:1.0;" x1="54.5" x2="317.5" y1="114.9609" y2="114.9609"/><text fill="#000000" font-family="sans-serif" font-size="13" font-weight="bold" lengthAdjust="spacing" textLength="7" x="61.5" y="110.1045">1</text><text fill="#000000" font-family="sans-serif" font-size="13" lengthAdjust="spacing" textLength="150" x="72.5" y="110.1045">asks to create a new task</text><polygon fill="#181818" points="65.5,141.3125,55.5,145.3125,65.5,149.3125,61.5,145.3125" style="stroke:#181818;stroke-width:1.0;"/><line style="stroke:#181818;stroke-width:1.0;stroke-dasharray:2.0,2.0;" x1="59.5" x2="327.5" y1="145.3125" y2="145.3125"/><text fill="#000000" font-family="sans-serif" font-size="13" font-weight="bold" lengthAdjust="spacing" textLength="7" x="71.5" y="140.4561">2</text><text fill="#000000" font-family="sans-serif" font-size="13" lengthAdjust="spacing" textLength="234" x="82.5" y="140.4561">requests data (code, designation, whoId)</text><polygon fill="#181818" points="311.5,171.6641,321.5,175.6641,311.5,179.6641,315.5,175.6641" style="stroke:#181818;stroke-width:1.0;"/><line style="stroke:#181818;stroke-width:1.0;" x1="54.5" x2="317.5" y1="175.6641" y2="175.6641"/><text fill="#000000" font-family="sans-serif" font-size="13" font-weight="bold" lengthAdjust="spacing" textLength="7" x="61.5" y="170.8076">3</text><text fill="#000000" font-family="sans-serif" font-size="13" lengthAdjust="spacing" textLength="122" x="72.5" y="170.8076">types requested data</text><polygon fill="#181818" points="730.5,202.0156,740.5,206.0156,730.5,210.0156,734.5,206.0156" style="stroke:#181818;stroke-width:1.0;"/><line style="stroke:#181818;stroke-width:1.0;" x1="333.5" x2="736.5" y1="206.0156" y2="206.0156"/><text fill="#000000" font-family="sans-serif" font-size="13" font-weight="bold" lengthAdjust="spacing" textLength="7" x="340.5" y="201.1592">4</text><text fill="#000000" font-family="sans-serif" font-size="13" lengthAdjust="spacing" textLength="379" x="351.5" y="201.1592">ctrl.createVaccineType(askCode(), askDesignation(), askWhoId())</text><polygon fill="#181818" points="1328.5,232.3672,1338.5,236.3672,1328.5,240.3672,1332.5,236.3672" style="stroke:#181818;stroke-width:1.0;"/><line style="stroke:#181818;stroke-width:1.0;" x1="752.5" x2="1334.5" y1="236.3672" y2="236.3672"/><text fill="#000000" font-family="sans-serif" font-size="13" font-weight="bold" lengthAdjust="spacing" textLength="7" x="759.5" y="231.5107">5</text><text fill="#000000" font-family="sans-serif" font-size="13" lengthAdjust="spacing" textLength="278" x="770.5" y="231.5107">vt = new VaccineType(code, designation, whoId)</text><line style="stroke:#181818;stroke-width:1.0;" x1="752.5" x2="794.5" y1="296.7188" y2="296.7188"/><line style="stroke:#181818;stroke-width:1.0;" x1="794.5" x2="794.5" y1="296.7188" y2="309.7188"/><line style="stroke:#181818;stroke-width:1.0;" x1="753.5" x2="794.5" y1="309.7188" y2="309.7188"/><polygon fill="#181818" points="763.5,305.7188,753.5,309.7188,763.5,313.7188,759.5,309.7188" style="stroke:#181818;stroke-width:1.0;"/><text fill="#000000" font-family="sans-serif" font-size="13" font-weight="bold" lengthAdjust="spacing" textLength="7" x="759.5" y="291.8623">6</text><text fill="#000000" font-family="sans-serif" font-size="13" lengthAdjust="spacing" textLength="135" x="770.5" y="291.8623">validateVaccineType(vt)</text><polygon fill="#181818" points="65.5,336.0703,55.5,340.0703,65.5,344.0703,61.5,340.0703" style="stroke:#181818;stroke-width:1.0;"/><line style="stroke:#181818;stroke-width:1.0;stroke-dasharray:2.0,2.0;" x1="59.5" x2="327.5" y1="340.0703" y2="340.0703"/><text fill="#000000" font-family="sans-serif" font-size="13" font-weight="bold" lengthAdjust="spacing" textLength="7" x="71.5" y="335.2139">7</text><text fill="#000000" font-family="sans-serif" font-size="13" lengthAdjust="spacing" textLength="213" x="82.5" y="335.2139">displays data waiting for confirmation</text><polygon fill="#181818" points="311.5,366.4219,321.5,370.4219,311.5,374.4219,315.5,370.4219" style="stroke:#181818;stroke-width:1.0;"/><line style="stroke:#181818;stroke-width:1.0;" x1="54.5" x2="317.5" y1="370.4219" y2="370.4219"/><text fill="#000000" font-family="sans-serif" font-size="13" font-weight="bold" lengthAdjust="spacing" textLength="7" x="61.5" y="365.5654">8</text><text fill="#000000" font-family="sans-serif" font-size="13" lengthAdjust="spacing" textLength="171" x="72.5" y="365.5654">confirms data of VaccineType</text><polygon fill="#181818" points="730.5,396.7734,740.5,400.7734,730.5,404.7734,734.5,400.7734" style="stroke:#181818;stroke-width:1.0;"/><line style="stroke:#181818;stroke-width:1.0;" x1="333.5" x2="736.5" y1="400.7734" y2="400.7734"/><text fill="#000000" font-family="sans-serif" font-size="13" font-weight="bold" lengthAdjust="spacing" textLength="7" x="340.5" y="395.917">9</text><text fill="#000000" font-family="sans-serif" font-size="13" lengthAdjust="spacing" textLength="126" x="351.5" y="395.917">ctrl.addVaccineType()</text><polygon fill="#181818" points="942.5,457.125,952.5,461.125,942.5,465.125,946.5,461.125" style="stroke:#181818;stroke-width:1.0;"/><line style="stroke:#181818;stroke-width:1.0;" x1="747.5" x2="948.5" y1="461.125" y2="461.125"/><text fill="#000000" font-family="sans-serif" font-size="13" font-weight="bold" lengthAdjust="spacing" textLength="14" x="754.5" y="456.2686">10</text><text fill="#000000" font-family="sans-serif" font-size="13" lengthAdjust="spacing" textLength="170" x="772.5" y="456.2686">company.addVaccineType(vt)</text><polygon fill="#181818" points="1203.5,517.4766,1213.5,521.4766,1203.5,525.4766,1207.5,521.4766" style="stroke:#181818;stroke-width:1.0;"/><line style="stroke:#181818;stroke-width:1.0;" x1="959.5" x2="1209.5" y1="521.4766" y2="521.4766"/><text fill="#000000" font-family="sans-serif" font-size="13" font-weight="bold" lengthAdjust="spacing" textLength="14" x="966.5" y="516.6201">11</text><text fill="#000000" font-family="sans-serif" font-size="13" lengthAdjust="spacing" textLength="219" x="984.5" y="516.6201">vaccineTypeStore.addVaccineType(vt)</text><polygon fill="#181818" points="60.5,577.8281,50.5,581.8281,60.5,585.8281,56.5,581.8281" style="stroke:#181818;stroke-width:1.0;"/><line style="stroke:#181818;stroke-width:1.0;stroke-dasharray:2.0,2.0;" x1="54.5" x2="327.5" y1="581.8281" y2="581.8281"/><text fill="#000000" font-family="sans-serif" font-size="13" font-weight="bold" lengthAdjust="spacing" textLength="14" x="66.5" y="576.9717">12</text><text fill="#000000" font-family="sans-serif" font-size="13" lengthAdjust="spacing" textLength="95" x="84.5" y="576.9717">informs success</text><!--MD5=[79190c9581e6eec80f8edb46c432ce61]
@startuml
autonumber
'hide footbox
actor "Administrator" as ADM

participant ":VaccineTypeUI" as UI
participant ":SpecifyNewVaccineTypeController" as CTRL
participant ":Company" as COMP
participant ":VaccineTypeStore" as STORE
participant "VaccineType" as VTYPE



activate ADM
ADM -> UI : asks to create a new task
activate UI
UI - -> ADM : requests data (code, designation, whoId)
deactivate UI

ADM -> UI : types requested data
activate UI

UI -> CTRL : ctrl.createVaccineType(askCode(), askDesignation(), askWhoId())

activate CTRL
CTRL -> VTYPE : vt = new VaccineType(code, designation, whoId)
activate VTYPE
deactivate VTYPE

CTRL -> CTRL : validateVaccineType(vt)




UI - -> ADM : displays data waiting for confirmation
deactivate CTRL
deactivate UI

ADM -> UI : confirms data of VaccineType
activate UI

UI -> CTRL : ctrl.addVaccineType()
activate CTRL
deactivate CTRL

CTRL -> COMP : company.addVaccineType(vt)
activate COMP
deactivate COMP


COMP -> STORE : vaccineTypeStore.addVaccineType(vt)
activate STORE
deactivate STORE

UI - -> ADM : informs success
deactivate UI
deactivate ADM

@enduml

@startuml
autonumber
actor "Administrator" as ADM

participant ":VaccineTypeUI" as UI
participant ":SpecifyNewVaccineTypeController" as CTRL
participant ":Company" as COMP
participant ":VaccineTypeStore" as STORE
participant "VaccineType" as VTYPE



activate ADM
ADM -> UI : asks to create a new task
activate UI
UI - -> ADM : requests data (code, designation, whoId)
deactivate UI

ADM -> UI : types requested data
activate UI

UI -> CTRL : ctrl.createVaccineType(askCode(), askDesignation(), askWhoId())

activate CTRL
CTRL -> VTYPE : vt = new VaccineType(code, designation, whoId)
activate VTYPE
deactivate VTYPE

CTRL -> CTRL : validateVaccineType(vt)




UI - -> ADM : displays data waiting for confirmation
deactivate CTRL
deactivate UI

ADM -> UI : confirms data of VaccineType
activate UI

UI -> CTRL : ctrl.addVaccineType()
activate CTRL
deactivate CTRL

CTRL -> COMP : company.addVaccineType(vt)
activate COMP
deactivate COMP


COMP -> STORE : vaccineTypeStore.addVaccineType(vt)
activate STORE
deactivate STORE

UI - -> ADM : informs success
deactivate UI
deactivate ADM

@enduml

PlantUML version 1.2022.4(Sat Apr 09 14:29:17 BST 2022)
(GPL source distribution)
Java Runtime: OpenJDK Runtime Environment
JVM: OpenJDK 64-Bit Server VM
Default Encoding: Cp1252
Language: en
Country: US
--></g></svg>