<?xml version="1.0" encoding="UTF-8" standalone="no"?><svg xmlns="http://www.w3.org/2000/svg" xmlns:xlink="http://www.w3.org/1999/xlink" contentScriptType="application/ecmascript" contentStyleType="text/css" height="261px" preserveAspectRatio="none" style="width:962px;height:261px;background:#FFFFFF;" version="1.1" viewBox="0 0 962 261" width="962px" zoomAndPan="magnify"><defs><filter height="300%" id="f6lyyc36havku" width="300%" x="-1" y="-1"><feGaussianBlur result="blurOut" stdDeviation="2.0"/><feColorMatrix in="blurOut" result="blurOut2" type="matrix" values="0 0 0 0 0 0 0 0 0 0 0 0 0 0 0 0 0 0 .4 0"/><feOffset dx="4.0" dy="4.0" in="blurOut2" result="blurOut3"/><feBlend in="SourceGraphic" in2="blurOut3" mode="normal"/></filter></defs><g><!--MD5=[02e4b9b7573f1156f41e60aa5b4e25a4]
class Company--><rect codeLine="6" fill="#FEFECE" filter="url(#f6lyyc36havku)" height="53.8359" id="Company" style="stroke:#A80036;stroke-width:1.5;" width="85" x="7" y="156.5"/><ellipse cx="22" cy="172.5" fill="#ADD1B2" rx="11" ry="11" style="stroke:#A80036;stroke-width:1.0;"/><path d="M24,169 Q24.2031,168.5 24.4375,168.25 Q24.6719,168 24.9375,168 Q25.4063,168 25.7031,168.2813 Q26,168.5625 26,169.2188 L26,170.7813 Q26,171.4375 25.7188,171.7188 Q25.4375,172 25,172 Q24.6094,172 24.3594,171.8281 Q24.1094,171.6563 24,171.2031 Q23.9531,170.8906 23.7813,170.7188 Q23.4688,170.3906 22.9063,170.2031 Q22.3438,170 21.7813,170 Q21.0781,170 20.4844,170.2813 Q19.9063,170.5625 19.4531,171.1875 Q19,171.8125 19,172.6719 L19,173.5938 Q19,174.625 19.8438,175.3125 Q20.6875,176 22.1875,176 Q23.0781,176 23.7031,175.7969 Q24.0625,175.6875 24.4688,175.3281 Q24.7344,175.125 24.875,175.0625 Q25.0156,175 25.1875,175 Q25.5156,175 25.75,175.2656 Q26,175.5156 26,175.875 Q26,176.2188 25.6563,176.625 Q25.1563,177.2188 24.3594,177.5469 Q23.3125,178 22.0313,178 Q20.5313,178 19.3281,177.4063 Q18.3594,176.9375 17.6719,175.9219 Q17,174.9063 17,173.7031 L17,172.6094 Q17,171.3594 17.5938,170.2656 Q18.2031,169.1719 19.25,168.5938 Q20.3125,168 21.5,168 Q22.2188,168 22.8438,168.25 Q23.4688,168.5 24,169 Z " fill="#000000"/><text fill="#000000" font-family="sans-serif" font-size="12" lengthAdjust="spacing" textLength="53" x="36" y="177.4102">Company</text><line style="stroke:#A80036;stroke-width:1.5;" x1="8" x2="91" y1="188.5" y2="188.5"/><text fill="#000000" font-family="sans-serif" font-size="11" lengthAdjust="spacing" textLength="59" x="13" y="203.9189">-designation</text><!--MD5=[19e445fc4d3b48519cbe33da05496394]
class Vaccine--><rect codeLine="10" fill="#FEFECE" filter="url(#f6lyyc36havku)" height="123.0156" id="Vaccine" style="stroke:#A80036;stroke-width:1.5;" width="84" x="423" y="7"/><ellipse cx="442.05" cy="23" fill="#ADD1B2" rx="11" ry="11" style="stroke:#A80036;stroke-width:1.0;"/><path d="M444.05,19.5 Q444.2531,19 444.4875,18.75 Q444.7219,18.5 444.9875,18.5 Q445.4563,18.5 445.7531,18.7813 Q446.05,19.0625 446.05,19.7188 L446.05,21.2813 Q446.05,21.9375 445.7688,22.2188 Q445.4875,22.5 445.05,22.5 Q444.6594,22.5 444.4094,22.3281 Q444.1594,22.1563 444.05,21.7031 Q444.0031,21.3906 443.8313,21.2188 Q443.5188,20.8906 442.9563,20.7031 Q442.3938,20.5 441.8313,20.5 Q441.1281,20.5 440.5344,20.7813 Q439.9563,21.0625 439.5031,21.6875 Q439.05,22.3125 439.05,23.1719 L439.05,24.0938 Q439.05,25.125 439.8938,25.8125 Q440.7375,26.5 442.2375,26.5 Q443.1281,26.5 443.7531,26.2969 Q444.1125,26.1875 444.5188,25.8281 Q444.7844,25.625 444.925,25.5625 Q445.0656,25.5 445.2375,25.5 Q445.5656,25.5 445.8,25.7656 Q446.05,26.0156 446.05,26.375 Q446.05,26.7188 445.7063,27.125 Q445.2063,27.7188 444.4094,28.0469 Q443.3625,28.5 442.0813,28.5 Q440.5813,28.5 439.3781,27.9063 Q438.4094,27.4375 437.7219,26.4219 Q437.05,25.4063 437.05,24.2031 L437.05,23.1094 Q437.05,21.8594 437.6438,20.7656 Q438.2531,19.6719 439.3,19.0938 Q440.3625,18.5 441.55,18.5 Q442.2688,18.5 442.8938,18.75 Q443.5188,19 444.05,19.5 Z " fill="#000000"/><text fill="#000000" font-family="sans-serif" font-size="12" lengthAdjust="spacing" textLength="43" x="456.95" y="27.9102">Vaccine</text><line style="stroke:#A80036;stroke-width:1.5;" x1="424" x2="506" y1="39" y2="39"/><text fill="#000000" font-family="sans-serif" font-size="11" lengthAdjust="spacing" textLength="52" x="429" y="54.4189">-reference</text><text fill="#000000" font-family="sans-serif" font-size="11" lengthAdjust="spacing" textLength="59" x="429" y="68.2549">-designation</text><text fill="#000000" font-family="sans-serif" font-size="11" lengthAdjust="spacing" textLength="67" x="429" y="82.0908">-informalDesc</text><text fill="#000000" font-family="sans-serif" font-size="11" lengthAdjust="spacing" textLength="72" x="429" y="95.9268">-technicalDesc</text><text fill="#000000" font-family="sans-serif" font-size="11" lengthAdjust="spacing" textLength="43" x="429" y="109.7627">-duration</text><text fill="#000000" font-family="sans-serif" font-size="11" lengthAdjust="spacing" textLength="25" x="429" y="123.5986">-cost</text><!--MD5=[0e501da62322464167c8ec4d233a6b7e]
class VaccineType--><rect codeLine="19" fill="#FEFECE" filter="url(#f6lyyc36havku)" height="67.6719" id="VaccineType" style="stroke:#A80036;stroke-width:1.5;" width="101" x="606" y="133.5"/><ellipse cx="621" cy="149.5" fill="#ADD1B2" rx="11" ry="11" style="stroke:#A80036;stroke-width:1.0;"/><path d="M623,146 Q623.2031,145.5 623.4375,145.25 Q623.6719,145 623.9375,145 Q624.4063,145 624.7031,145.2813 Q625,145.5625 625,146.2188 L625,147.7813 Q625,148.4375 624.7188,148.7188 Q624.4375,149 624,149 Q623.6094,149 623.3594,148.8281 Q623.1094,148.6563 623,148.2031 Q622.9531,147.8906 622.7813,147.7188 Q622.4688,147.3906 621.9063,147.2031 Q621.3438,147 620.7813,147 Q620.0781,147 619.4844,147.2813 Q618.9063,147.5625 618.4531,148.1875 Q618,148.8125 618,149.6719 L618,150.5938 Q618,151.625 618.8438,152.3125 Q619.6875,153 621.1875,153 Q622.0781,153 622.7031,152.7969 Q623.0625,152.6875 623.4688,152.3281 Q623.7344,152.125 623.875,152.0625 Q624.0156,152 624.1875,152 Q624.5156,152 624.75,152.2656 Q625,152.5156 625,152.875 Q625,153.2188 624.6563,153.625 Q624.1563,154.2188 623.3594,154.5469 Q622.3125,155 621.0313,155 Q619.5313,155 618.3281,154.4063 Q617.3594,153.9375 616.6719,152.9219 Q616,151.9063 616,150.7031 L616,149.6094 Q616,148.3594 616.5938,147.2656 Q617.2031,146.1719 618.25,145.5938 Q619.3125,145 620.5,145 Q621.2188,145 621.8438,145.25 Q622.4688,145.5 623,146 Z " fill="#000000"/><text fill="#000000" font-family="sans-serif" font-size="12" lengthAdjust="spacing" textLength="69" x="635" y="154.4102">VaccineType</text><line style="stroke:#A80036;stroke-width:1.5;" x1="607" x2="706" y1="165.5" y2="165.5"/><text fill="#000000" font-family="sans-serif" font-size="11" lengthAdjust="spacing" textLength="12" x="612" y="180.9189">-id</text><text fill="#000000" font-family="sans-serif" font-size="11" lengthAdjust="spacing" textLength="57" x="612" y="194.7549">-description</text><!--MD5=[da547346deef918ea16944ba046651ef]
class Administrator--><rect codeLine="24" fill="#FEFECE" filter="url(#f6lyyc36havku)" height="40" id="Administrator" style="stroke:#A80036;stroke-width:1.5;" width="105" x="843" y="205.5"/><ellipse cx="858" cy="221.5" fill="#ADD1B2" rx="11" ry="11" style="stroke:#A80036;stroke-width:1.0;"/><path d="M860,218 Q860.2031,217.5 860.4375,217.25 Q860.6719,217 860.9375,217 Q861.4063,217 861.7031,217.2813 Q862,217.5625 862,218.2188 L862,219.7813 Q862,220.4375 861.7188,220.7188 Q861.4375,221 861,221 Q860.6094,221 860.3594,220.8281 Q860.1094,220.6563 860,220.2031 Q859.9531,219.8906 859.7813,219.7188 Q859.4688,219.3906 858.9063,219.2031 Q858.3438,219 857.7813,219 Q857.0781,219 856.4844,219.2813 Q855.9063,219.5625 855.4531,220.1875 Q855,220.8125 855,221.6719 L855,222.5938 Q855,223.625 855.8438,224.3125 Q856.6875,225 858.1875,225 Q859.0781,225 859.7031,224.7969 Q860.0625,224.6875 860.4688,224.3281 Q860.7344,224.125 860.875,224.0625 Q861.0156,224 861.1875,224 Q861.5156,224 861.75,224.2656 Q862,224.5156 862,224.875 Q862,225.2188 861.6563,225.625 Q861.1563,226.2188 860.3594,226.5469 Q859.3125,227 858.0313,227 Q856.5313,227 855.3281,226.4063 Q854.3594,225.9375 853.6719,224.9219 Q853,223.9063 853,222.7031 L853,221.6094 Q853,220.3594 853.5938,219.2656 Q854.2031,218.1719 855.25,217.5938 Q856.3125,217 857.5,217 Q858.2188,217 858.8438,217.25 Q859.4688,217.5 860,218 Z " fill="#000000"/><text fill="#000000" font-family="sans-serif" font-size="12" lengthAdjust="spacing" textLength="73" x="872" y="226.4102">Administrator</text><line style="stroke:#A80036;stroke-width:1.5;" x1="844" x2="947" y1="237.5" y2="237.5"/><!--MD5=[eaea43e34e45c5b9d20b595fc78f1f20]
link Company to Administrator--><path codeLine="27" d="M79.94,210.75 C104.7,230.77 142.05,254.5 180,254.5 C180,254.5 180,254.5 657.5,254.5 C721.75,254.5 795.08,243.87 842.94,235.48 " fill="none" id="Company-Administrator" style="stroke:#A80036;stroke-width:1.0;"/><polygon fill="#000000" points="448.9974,245.8378,440.0522,242.6074,439.8618,248.4821,448.9974,245.8378" style="stroke:#000000;stroke-width:1.0;"/><text fill="#000000" font-family="sans-serif" font-size="13" lengthAdjust="spacing" textLength="37" x="453" y="250.9951">knows</text><text fill="#000000" font-family="sans-serif" font-size="13" lengthAdjust="spacing" textLength="7" x="78.8331" y="232.0125">1</text><text fill="#000000" font-family="sans-serif" font-size="13" lengthAdjust="spacing" textLength="5" x="829.8531" y="251.6417">*</text><!--MD5=[c29c8d42883934cbaf5793c72a334947]
link Company to Vaccine--><path codeLine="28" d="M92.24,167.57 C101.95,164.08 112.29,160.52 122,157.5 C229.35,124.09 358.25,92.91 422.85,77.88 " fill="none" id="Company-Vaccine" style="stroke:#A80036;stroke-width:1.0;"/><polygon fill="#000000" points="162.8256,123.3667,153.3265,122.8985,154.8655,128.5713,162.8256,123.3667" style="stroke:#000000;stroke-width:1.0;"/><text fill="#000000" font-family="sans-serif" font-size="13" lengthAdjust="spacing" textLength="41" x="167" y="129.9951">applies</text><text fill="#000000" font-family="sans-serif" font-size="13" lengthAdjust="spacing" textLength="7" x="99.8985" y="179.7944">1</text><text fill="#000000" font-family="sans-serif" font-size="13" lengthAdjust="spacing" textLength="5" x="409.8967" y="94.5008">*</text><!--MD5=[05986564e1c13a00611587b35563d868]
link Company to VaccineType--><path codeLine="29" d="M92.08,182.4 C200.07,179.54 489.09,171.9 605.7,168.82 " fill="none" id="Company-VaccineType" style="stroke:#A80036;stroke-width:1.0;"/><polygon fill="#000000" points="248.9983,165.5436,239.8787,162.8448,240.034,168.7206,248.9983,165.5436" style="stroke:#000000;stroke-width:1.0;"/><text fill="#000000" font-family="sans-serif" font-size="13" lengthAdjust="spacing" textLength="139" x="253" y="170.9951">promotes administration</text><text fill="#000000" font-family="sans-serif" font-size="13" lengthAdjust="spacing" textLength="7" x="100" y="197.1254">1</text><text fill="#000000" font-family="sans-serif" font-size="13" lengthAdjust="spacing" textLength="5" x="592.8716" y="183.7339">*</text><!--MD5=[f0553939d664499c8c3e148c02d4348e]
link VaccineType to Administrator--><path codeLine="30" d="M707.18,179.66 C746.95,189.39 802.55,203 842.83,212.86 " fill="none" id="VaccineType-Administrator" style="stroke:#A80036;stroke-width:1.0;"/><polygon fill="#000000" points="746.8567,179.8644,738.7696,174.8595,737.3722,180.5688,746.8567,179.8644" style="stroke:#000000;stroke-width:1.0;"/><text fill="#000000" font-family="sans-serif" font-size="13" lengthAdjust="spacing" textLength="61" x="751" y="183.9951">created by</text><text fill="#000000" font-family="sans-serif" font-size="13" lengthAdjust="spacing" textLength="5" x="714.9908" y="196.166">*</text><text fill="#000000" font-family="sans-serif" font-size="13" lengthAdjust="spacing" textLength="7" x="827.9311" y="225.7273">1</text><!--MD5=[3568623adf67b2630dce9e60c05bd02a]
link Vaccine to VaccineType--><path codeLine="31" d="M507.12,89.98 C536.07,105.11 574.99,125.44 605.71,141.49 " fill="none" id="Vaccine-VaccineType" style="stroke:#A80036;stroke-width:1.0;"/><polygon fill="#000000" points="546.4316,99.9911,539.7757,93.1978,537.0538,98.4074,546.4316,99.9911" style="stroke:#000000;stroke-width:1.0;"/><text fill="#000000" font-family="sans-serif" font-size="13" lengthAdjust="spacing" textLength="24" x="551" y="102.9951">is of</text><text fill="#000000" font-family="sans-serif" font-size="13" lengthAdjust="spacing" textLength="5" x="515.0679" y="108.7562">*</text><text fill="#000000" font-family="sans-serif" font-size="13" lengthAdjust="spacing" textLength="7" x="591.0755" y="152.5003">1</text><!--MD5=[f42966749a432db6847110d515dc60a5]
@startuml
hide methods
left to right direction
skinparam classAttributeIconSize 0


class Company {
  -designation
}

class Vaccine {
  -reference
  -designation
  -informalDesc
  -technicalDesc
  -duration
  -cost
}

class VaccineType {
  -id
  -description
}

class Administrator {
}

Company "1"- -"*" Administrator : knows >
Company "1"- - -"*" Vaccine : applies >
Company "1"- -"*" VaccineType : promotes administration >
VaccineType "*"- -"1" Administrator : created by >
Vaccine "*"- -"1" VaccineType : is of >






@enduml

PlantUML version 1.2022.1(Tue Feb 01 18:19:58 GMT 2022)
(GPL source distribution)
Java Runtime: OpenJDK Runtime Environment
JVM: OpenJDK 64-Bit Server VM
Default Encoding: Cp1252
Language: en
Country: US
--></g></svg>