<?xml version="1.0" encoding="UTF-8" standalone="no"?><svg xmlns="http://www.w3.org/2000/svg" xmlns:xlink="http://www.w3.org/1999/xlink" contentStyleType="text/css" height="260px" preserveAspectRatio="none" style="width:613px;height:260px;background:#FFFFFF;" version="1.1" viewBox="0 0 613 260" width="613px" zoomAndPan="magnify"><defs/><g><!--MD5=[9dec31851c9c504cad5b41bb142d96c3]
class DGS--><g id="elem_DGS"><rect codeLine="4" fill="#F1F1F1" height="32" id="DGS" rx="2.5" ry="2.5" style="stroke:#181818;stroke-width:0.5;" width="62" x="145" y="37.5"/><ellipse cx="160" cy="53.5" fill="#ADD1B2" rx="11" ry="11" style="stroke:#181818;stroke-width:1.0;"/><path d="M162,50 Q162.2031,49.5 162.4375,49.25 Q162.6719,49 162.9375,49 Q163.4063,49 163.7031,49.2813 Q164,49.5625 164,50.2188 L164,51.7813 Q164,52.4375 163.7188,52.7188 Q163.4375,53 163,53 Q162.6094,53 162.3594,52.8281 Q162.1094,52.6563 162,52.2031 Q161.9531,51.8906 161.7813,51.7188 Q161.4688,51.3906 160.9063,51.2031 Q160.3438,51 159.7813,51 Q159.0781,51 158.4844,51.2813 Q157.9063,51.5625 157.4531,52.1875 Q157,52.8125 157,53.6719 L157,54.5938 Q157,55.625 157.8438,56.3125 Q158.6875,57 160.1875,57 Q161.0781,57 161.7031,56.7969 Q162.0625,56.6875 162.4688,56.3281 Q162.7344,56.125 162.875,56.0625 Q163.0156,56 163.1875,56 Q163.5156,56 163.75,56.2656 Q164,56.5156 164,56.875 Q164,57.2188 163.6563,57.625 Q163.1563,58.2188 162.3594,58.5469 Q161.3125,59 160.0313,59 Q158.5313,59 157.3281,58.4063 Q156.3594,57.9375 155.6719,56.9219 Q155,55.9063 155,54.7031 L155,53.6094 Q155,52.3594 155.5938,51.2656 Q156.2031,50.1719 157.25,49.5938 Q158.3125,49 159.5,49 Q160.2188,49 160.8438,49.25 Q161.4688,49.5 162,50 Z " fill="#000000"/><text fill="#000000" font-family="sans-serif" font-size="14" lengthAdjust="spacing" textLength="30" x="174" y="59.2285">DGS</text></g><!--MD5=[1b844c90688aafb95cd8c95626c3b83a]
class Timer--><g id="elem_Timer"><rect codeLine="7" fill="#F1F1F1" height="32" id="Timer" rx="2.5" ry="2.5" style="stroke:#181818;stroke-width:0.5;" width="68" x="282" y="37.5"/><ellipse cx="297" cy="53.5" fill="#ADD1B2" rx="11" ry="11" style="stroke:#181818;stroke-width:1.0;"/><path d="M299,50 Q299.2031,49.5 299.4375,49.25 Q299.6719,49 299.9375,49 Q300.4063,49 300.7031,49.2813 Q301,49.5625 301,50.2188 L301,51.7813 Q301,52.4375 300.7188,52.7188 Q300.4375,53 300,53 Q299.6094,53 299.3594,52.8281 Q299.1094,52.6563 299,52.2031 Q298.9531,51.8906 298.7813,51.7188 Q298.4688,51.3906 297.9063,51.2031 Q297.3438,51 296.7813,51 Q296.0781,51 295.4844,51.2813 Q294.9063,51.5625 294.4531,52.1875 Q294,52.8125 294,53.6719 L294,54.5938 Q294,55.625 294.8438,56.3125 Q295.6875,57 297.1875,57 Q298.0781,57 298.7031,56.7969 Q299.0625,56.6875 299.4688,56.3281 Q299.7344,56.125 299.875,56.0625 Q300.0156,56 300.1875,56 Q300.5156,56 300.75,56.2656 Q301,56.5156 301,56.875 Q301,57.2188 300.6563,57.625 Q300.1563,58.2188 299.3594,58.5469 Q298.3125,59 297.0313,59 Q295.5313,59 294.3281,58.4063 Q293.3594,57.9375 292.6719,56.9219 Q292,55.9063 292,54.7031 L292,53.6094 Q292,52.3594 292.5938,51.2656 Q293.2031,50.1719 294.25,49.5938 Q295.3125,49 296.5,49 Q297.2188,49 297.8438,49.25 Q298.4688,49.5 299,50 Z " fill="#000000"/><text fill="#000000" font-family="sans-serif" font-size="14" lengthAdjust="spacing" textLength="36" x="311" y="59.2285">Timer</text></g><!--MD5=[a22a16269850f332655143fcd3278ec6]
class VaccinationsperCenter--><g id="elem_VaccinationsperCenter"><rect codeLine="10" fill="#F1F1F1" height="75.2188" id="VaccinationsperCenter" rx="2.5" ry="2.5" style="stroke:#181818;stroke-width:0.5;" width="176" x="430" y="178"/><ellipse cx="445" cy="194" fill="#ADD1B2" rx="11" ry="11" style="stroke:#181818;stroke-width:1.0;"/><path d="M447,190.5 Q447.2031,190 447.4375,189.75 Q447.6719,189.5 447.9375,189.5 Q448.4063,189.5 448.7031,189.7813 Q449,190.0625 449,190.7188 L449,192.2813 Q449,192.9375 448.7188,193.2188 Q448.4375,193.5 448,193.5 Q447.6094,193.5 447.3594,193.3281 Q447.1094,193.1563 447,192.7031 Q446.9531,192.3906 446.7813,192.2188 Q446.4688,191.8906 445.9063,191.7031 Q445.3438,191.5 444.7813,191.5 Q444.0781,191.5 443.4844,191.7813 Q442.9063,192.0625 442.4531,192.6875 Q442,193.3125 442,194.1719 L442,195.0938 Q442,196.125 442.8438,196.8125 Q443.6875,197.5 445.1875,197.5 Q446.0781,197.5 446.7031,197.2969 Q447.0625,197.1875 447.4688,196.8281 Q447.7344,196.625 447.875,196.5625 Q448.0156,196.5 448.1875,196.5 Q448.5156,196.5 448.75,196.7656 Q449,197.0156 449,197.375 Q449,197.7188 448.6563,198.125 Q448.1563,198.7188 447.3594,199.0469 Q446.3125,199.5 445.0313,199.5 Q443.5313,199.5 442.3281,198.9063 Q441.3594,198.4375 440.6719,197.4219 Q440,196.4063 440,195.2031 L440,194.1094 Q440,192.8594 440.5938,191.7656 Q441.2031,190.6719 442.25,190.0938 Q443.3125,189.5 444.5,189.5 Q445.2188,189.5 445.8438,189.75 Q446.4688,190 447,190.5 Z " fill="#000000"/><text fill="#000000" font-family="sans-serif" font-size="14" lengthAdjust="spacing" textLength="144" x="459" y="199.7285">VaccinationsperCenter</text><line style="stroke:#181818;stroke-width:0.5;" x1="431" x2="605" y1="210" y2="210"/><rect fill="none" height="6" style="stroke:#C82930;stroke-width:1.0;" width="6" x="438" y="218"/><text fill="#000000" font-family="sans-serif" font-size="14" lengthAdjust="spacing" textLength="75" x="450" y="228.5332">centername</text><rect fill="none" height="6" style="stroke:#C82930;stroke-width:1.0;" width="6" x="438" y="235.6094"/><text fill="#000000" font-family="sans-serif" font-size="14" lengthAdjust="spacing" textLength="35" x="450" y="246.1426">count</text></g><!--MD5=[02e4b9b7573f1156f41e60aa5b4e25a4]
class Company--><g id="elem_Company"><rect codeLine="15" fill="#F1F1F1" height="32" id="Company" rx="2.5" ry="2.5" style="stroke:#181818;stroke-width:0.5;" width="92" x="7" y="199.5"/><ellipse cx="22" cy="215.5" fill="#ADD1B2" rx="11" ry="11" style="stroke:#181818;stroke-width:1.0;"/><path d="M24,212 Q24.2031,211.5 24.4375,211.25 Q24.6719,211 24.9375,211 Q25.4063,211 25.7031,211.2813 Q26,211.5625 26,212.2188 L26,213.7813 Q26,214.4375 25.7188,214.7188 Q25.4375,215 25,215 Q24.6094,215 24.3594,214.8281 Q24.1094,214.6563 24,214.2031 Q23.9531,213.8906 23.7813,213.7188 Q23.4688,213.3906 22.9063,213.2031 Q22.3438,213 21.7813,213 Q21.0781,213 20.4844,213.2813 Q19.9063,213.5625 19.4531,214.1875 Q19,214.8125 19,215.6719 L19,216.5938 Q19,217.625 19.8438,218.3125 Q20.6875,219 22.1875,219 Q23.0781,219 23.7031,218.7969 Q24.0625,218.6875 24.4688,218.3281 Q24.7344,218.125 24.875,218.0625 Q25.0156,218 25.1875,218 Q25.5156,218 25.75,218.2656 Q26,218.5156 26,218.875 Q26,219.2188 25.6563,219.625 Q25.1563,220.2188 24.3594,220.5469 Q23.3125,221 22.0313,221 Q20.5313,221 19.3281,220.4063 Q18.3594,219.9375 17.6719,218.9219 Q17,217.9063 17,216.7031 L17,215.6094 Q17,214.3594 17.5938,213.2656 Q18.2031,212.1719 19.25,211.5938 Q20.3125,211 21.5,211 Q22.2188,211 22.8438,211.25 Q23.4688,211.5 24,212 Z " fill="#000000"/><text fill="#000000" font-family="sans-serif" font-size="14" lengthAdjust="spacing" textLength="60" x="36" y="221.2285">Company</text></g><!--MD5=[1949145b1be13cc0abfe0acd829457c0]
class VaccinationRecord--><g id="elem_VaccinationRecord"><rect codeLine="18" fill="#F1F1F1" height="92.8281" id="VaccinationRecord" rx="2.5" ry="2.5" style="stroke:#181818;stroke-width:0.5;" width="151" x="442.5" y="7"/><ellipse cx="457.5" cy="23" fill="#ADD1B2" rx="11" ry="11" style="stroke:#181818;stroke-width:1.0;"/><path d="M459.5,19.5 Q459.7031,19 459.9375,18.75 Q460.1719,18.5 460.4375,18.5 Q460.9063,18.5 461.2031,18.7813 Q461.5,19.0625 461.5,19.7188 L461.5,21.2813 Q461.5,21.9375 461.2188,22.2188 Q460.9375,22.5 460.5,22.5 Q460.1094,22.5 459.8594,22.3281 Q459.6094,22.1563 459.5,21.7031 Q459.4531,21.3906 459.2813,21.2188 Q458.9688,20.8906 458.4063,20.7031 Q457.8438,20.5 457.2813,20.5 Q456.5781,20.5 455.9844,20.7813 Q455.4063,21.0625 454.9531,21.6875 Q454.5,22.3125 454.5,23.1719 L454.5,24.0938 Q454.5,25.125 455.3438,25.8125 Q456.1875,26.5 457.6875,26.5 Q458.5781,26.5 459.2031,26.2969 Q459.5625,26.1875 459.9688,25.8281 Q460.2344,25.625 460.375,25.5625 Q460.5156,25.5 460.6875,25.5 Q461.0156,25.5 461.25,25.7656 Q461.5,26.0156 461.5,26.375 Q461.5,26.7188 461.1563,27.125 Q460.6563,27.7188 459.8594,28.0469 Q458.8125,28.5 457.5313,28.5 Q456.0313,28.5 454.8281,27.9063 Q453.8594,27.4375 453.1719,26.4219 Q452.5,25.4063 452.5,24.2031 L452.5,23.1094 Q452.5,21.8594 453.0938,20.7656 Q453.7031,19.6719 454.75,19.0938 Q455.8125,18.5 457,18.5 Q457.7188,18.5 458.3438,18.75 Q458.9688,19 459.5,19.5 Z " fill="#000000"/><text fill="#000000" font-family="sans-serif" font-size="14" lengthAdjust="spacing" textLength="119" x="471.5" y="28.7285">VaccinationRecord</text><line style="stroke:#181818;stroke-width:0.5;" x1="443.5" x2="592.5" y1="39" y2="39"/><rect fill="none" height="6" style="stroke:#C82930;stroke-width:1.0;" width="6" x="450.5" y="47"/><text fill="#000000" font-family="sans-serif" font-size="14" lengthAdjust="spacing" textLength="28" x="462.5" y="57.5332">date</text><rect fill="none" height="6" style="stroke:#C82930;stroke-width:1.0;" width="6" x="450.5" y="64.6094"/><text fill="#000000" font-family="sans-serif" font-size="14" lengthAdjust="spacing" textLength="75" x="462.5" y="75.1426">centername</text><rect fill="none" height="6" style="stroke:#C82930;stroke-width:1.0;" width="6" x="450.5" y="82.2188"/><text fill="#000000" font-family="sans-serif" font-size="14" lengthAdjust="spacing" textLength="35" x="462.5" y="92.752">count</text></g><!--MD5=[d7a366fe1cc5060c824a64e7c3fcb40b]
class WaitingRoomStore--><g id="elem_WaitingRoomStore"><rect fill="#F1F1F1" height="32" id="WaitingRoomStore" rx="2.5" ry="2.5" style="stroke:#181818;stroke-width:0.5;" width="150" x="170" y="199.5"/><ellipse cx="185" cy="215.5" fill="#ADD1B2" rx="11" ry="11" style="stroke:#181818;stroke-width:1.0;"/><path d="M187,212 Q187.2031,211.5 187.4375,211.25 Q187.6719,211 187.9375,211 Q188.4063,211 188.7031,211.2813 Q189,211.5625 189,212.2188 L189,213.7813 Q189,214.4375 188.7188,214.7188 Q188.4375,215 188,215 Q187.6094,215 187.3594,214.8281 Q187.1094,214.6563 187,214.2031 Q186.9531,213.8906 186.7813,213.7188 Q186.4688,213.3906 185.9063,213.2031 Q185.3438,213 184.7813,213 Q184.0781,213 183.4844,213.2813 Q182.9063,213.5625 182.4531,214.1875 Q182,214.8125 182,215.6719 L182,216.5938 Q182,217.625 182.8438,218.3125 Q183.6875,219 185.1875,219 Q186.0781,219 186.7031,218.7969 Q187.0625,218.6875 187.4688,218.3281 Q187.7344,218.125 187.875,218.0625 Q188.0156,218 188.1875,218 Q188.5156,218 188.75,218.2656 Q189,218.5156 189,218.875 Q189,219.2188 188.6563,219.625 Q188.1563,220.2188 187.3594,220.5469 Q186.3125,221 185.0313,221 Q183.5313,221 182.3281,220.4063 Q181.3594,219.9375 180.6719,218.9219 Q180,217.9063 180,216.7031 L180,215.6094 Q180,214.3594 180.5938,213.2656 Q181.2031,212.1719 182.25,211.5938 Q183.3125,211 184.5,211 Q185.2188,211 185.8438,211.25 Q186.4688,211.5 187,212 Z " fill="#000000"/><text fill="#000000" font-family="sans-serif" font-size="14" lengthAdjust="spacing" textLength="118" x="199" y="221.2285">WaitingRoomStore</text></g><!--MD5=[034a189e29eb6d0b38b993a70cf1f91f]
link DGS to Timer--><g id="link_DGS_Timer"><path codeLine="26" d="M207.07,53.5 C229.14,53.5 258.79,53.5 281.58,53.5 " fill="none" id="DGS-Timer" style="stroke:#181818;stroke-width:1.0;"/><polygon fill="#000000" points="234.5,41.6758,225.4549,38.7369,225.4549,44.6147,234.5,41.6758" style="stroke:#000000;stroke-width:1.0;"/><text fill="#000000" font-family="sans-serif" font-size="13" lengthAdjust="spacing" textLength="25" x="238.5" y="46.9951">runs</text><text fill="#000000" font-family="sans-serif" font-size="13" lengthAdjust="spacing" textLength="7" x="215.0643" y="49.1858">1</text><text fill="#000000" font-family="sans-serif" font-size="13" lengthAdjust="spacing" textLength="7" x="267.1145" y="49.4547">1</text></g><!--MD5=[517645083f3519bed87097d076b43a3e]
link Timer to VaccinationRecord--><g id="link_Timer_VaccinationRecord"><path codeLine="27" d="M350.27,53.5 C375.48,53.5 410.74,53.5 442.42,53.5 " fill="none" id="Timer-VaccinationRecord" style="stroke:#181818;stroke-width:1.0;"/><polygon fill="#000000" points="377.25,41.6758,368.2049,38.7369,368.2049,44.6147,377.25,41.6758" style="stroke:#000000;stroke-width:1.0;"/><text fill="#000000" font-family="sans-serif" font-size="13" lengthAdjust="spacing" textLength="43" x="381.25" y="46.9951">creates</text><text fill="#000000" font-family="sans-serif" font-size="13" lengthAdjust="spacing" textLength="7" x="358.0601" y="49.3814">1</text><text fill="#000000" font-family="sans-serif" font-size="13" lengthAdjust="spacing" textLength="7" x="427.2649" y="50.1971">1</text></g><!--MD5=[05962c0a9a70769946f1856d7942a74b]
link Company to WaitingRoomStore--><g id="link_Company_WaitingRoomStore"><path codeLine="28" d="M99.48,215.5 C120.56,215.5 146.04,215.5 169.75,215.5 " fill="none" id="Company-WaitingRoomStore" style="stroke:#181818;stroke-width:1.0;"/><polygon fill="#000000" points="126.5,203.6758,117.4549,200.7369,117.4549,206.6147,126.5,203.6758" style="stroke:#000000;stroke-width:1.0;"/><text fill="#000000" font-family="sans-serif" font-size="13" lengthAdjust="spacing" textLength="21" x="130.5" y="208.9951">has</text><text fill="#000000" font-family="sans-serif" font-size="13" lengthAdjust="spacing" textLength="7" x="107.1332" y="211.797">1</text><text fill="#000000" font-family="sans-serif" font-size="13" lengthAdjust="spacing" textLength="12" x="150.0059" y="212.2494">1*</text></g><!--MD5=[a7500f3cf4127301a4ccecc58352f3dd]
link WaitingRoomStore to VaccinationsperCenter--><g id="link_WaitingRoomStore_VaccinationsperCenter"><path codeLine="29" d="M320.32,215.5 C354.25,215.5 394.55,215.5 429.87,215.5 " fill="none" id="WaitingRoomStore-VaccinationsperCenter" style="stroke:#181818;stroke-width:1.0;"/><polygon fill="#000000" points="337.5,203.6758,346.5451,206.6147,346.5451,200.7369,337.5,203.6758" style="stroke:#000000;stroke-width:1.0;"/><text fill="#000000" font-family="sans-serif" font-size="13" lengthAdjust="spacing" textLength="60" x="351.5" y="208.9951">belongs to</text><text fill="#000000" font-family="sans-serif" font-size="13" lengthAdjust="spacing" textLength="7" x="328.0788" y="212.2249">1</text><text fill="#000000" font-family="sans-serif" font-size="13" lengthAdjust="spacing" textLength="7" x="414.9955" y="212.3133">1</text></g><!--MD5=[ca1ebb3c171ddad002f68a5af083f1f9]
link VaccinationRecord to VaccinationsperCenter--><g id="link_VaccinationRecord_VaccinationsperCenter"><path codeLine="30" d="M518,100.35 C518,124.91 518,154.76 518,177.78 " fill="none" id="VaccinationRecord-VaccinationsperCenter" style="stroke:#181818;stroke-width:1.0;"/><polygon fill="#000000" points="523,144.1758,525.9389,135.1307,520.0611,135.1307,523,144.1758" style="stroke:#000000;stroke-width:1.0;"/><text fill="#000000" font-family="sans-serif" font-size="13" lengthAdjust="spacing" textLength="25" x="532" y="144.4951">gets</text><text fill="#000000" font-family="sans-serif" font-size="13" lengthAdjust="spacing" textLength="7" x="510.5297" y="121.2508">1</text><text fill="#000000" font-family="sans-serif" font-size="13" lengthAdjust="spacing" textLength="5" x="512.5547" y="167.1431">*</text></g><!--MD5=[7f917f6a52048cef2ae78a1ccefffd42]
@startuml


hide empty members
class DGS{
}

class Timer{
}

class VaccinationsperCenter{
-centername
-count
}

class Company{
}

class VaccinationRecord{
-date
-centername
-count
}



DGS "1" - "1" Timer: runs >
Timer "1" - "1" VaccinationRecord: creates >
Company "1" - "1*" WaitingRoomStore: has >
WaitingRoomStore "1" - "1" VaccinationsperCenter : belongs to <
VaccinationRecord "1" - - "*" VaccinationsperCenter: gets >

@enduml

PlantUML version 1.2022.5(Sat Apr 30 11:55:52 BST 2022)
(GPL source distribution)
Java Runtime: OpenJDK Runtime Environment
JVM: OpenJDK 64-Bit Server VM
Default Encoding: Cp1252
Language: en
Country: US
--></g></svg>