<?xml version="1.0" encoding="UTF-8" standalone="no"?><svg xmlns="http://www.w3.org/2000/svg" xmlns:xlink="http://www.w3.org/1999/xlink" contentStyleType="text/css" height="1138px" preserveAspectRatio="none" style="width:588px;height:1138px;background:#FFFFFF;" version="1.1" viewBox="0 0 588 1138" width="588px" zoomAndPan="magnify"><defs/><g><!--MD5=[84718776d214be480e4c259efcb737fc]
class Main--><g id="elem_Main"><rect codeLine="3" fill="#F1F1F1" height="65.6094" id="Main" rx="2.5" ry="2.5" style="stroke:#181818;stroke-width:0.5;" width="66" x="377" y="7"/><ellipse cx="393.8" cy="23" fill="#ADD1B2" rx="11" ry="11" style="stroke:#181818;stroke-width:1.0;"/><path d="M395.8,19.5 Q396.0031,19 396.2375,18.75 Q396.4719,18.5 396.7375,18.5 Q397.2063,18.5 397.5031,18.7813 Q397.8,19.0625 397.8,19.7188 L397.8,21.2813 Q397.8,21.9375 397.5188,22.2188 Q397.2375,22.5 396.8,22.5 Q396.4094,22.5 396.1594,22.3281 Q395.9094,22.1563 395.8,21.7031 Q395.7531,21.3906 395.5813,21.2188 Q395.2688,20.8906 394.7063,20.7031 Q394.1438,20.5 393.5813,20.5 Q392.8781,20.5 392.2844,20.7813 Q391.7063,21.0625 391.2531,21.6875 Q390.8,22.3125 390.8,23.1719 L390.8,24.0938 Q390.8,25.125 391.6438,25.8125 Q392.4875,26.5 393.9875,26.5 Q394.8781,26.5 395.5031,26.2969 Q395.8625,26.1875 396.2688,25.8281 Q396.5344,25.625 396.675,25.5625 Q396.8156,25.5 396.9875,25.5 Q397.3156,25.5 397.55,25.7656 Q397.8,26.0156 397.8,26.375 Q397.8,26.7188 397.4563,27.125 Q396.9563,27.7188 396.1594,28.0469 Q395.1125,28.5 393.8313,28.5 Q392.3313,28.5 391.1281,27.9063 Q390.1594,27.4375 389.4719,26.4219 Q388.8,25.4063 388.8,24.2031 L388.8,23.1094 Q388.8,21.8594 389.3938,20.7656 Q390.0031,19.6719 391.05,19.0938 Q392.1125,18.5 393.3,18.5 Q394.0188,18.5 394.6438,18.75 Q395.2688,19 395.8,19.5 Z " fill="#000000"/><text fill="#000000" font-family="sans-serif" font-size="14" lengthAdjust="spacing" textLength="30" x="408.2" y="28.7285">Main</text><line style="stroke:#181818;stroke-width:0.5;" x1="378" x2="442" y1="39" y2="39"/><line style="stroke:#181818;stroke-width:0.5;" x1="378" x2="442" y1="47" y2="47"/><ellipse cx="388" cy="58" fill="#84BE84" rx="3" ry="3" style="stroke:#038048;stroke-width:1.0;"/><text fill="#000000" font-family="sans-serif" font-size="14" lengthAdjust="spacing" textLength="40" x="397" y="65.5332">main()</text></g><!--MD5=[335f4d9be48430461c68bf6d6fdba145]
class App--><g id="elem_App"><rect codeLine="7" fill="#F1F1F1" height="83.2188" id="App" rx="2.5" ry="2.5" style="stroke:#181818;stroke-width:0.5;" width="129" x="345.5" y="151"/><ellipse cx="393.25" cy="167" fill="#ADD1B2" rx="11" ry="11" style="stroke:#181818;stroke-width:1.0;"/><path d="M395.25,163.5 Q395.4531,163 395.6875,162.75 Q395.9219,162.5 396.1875,162.5 Q396.6563,162.5 396.9531,162.7813 Q397.25,163.0625 397.25,163.7188 L397.25,165.2813 Q397.25,165.9375 396.9688,166.2188 Q396.6875,166.5 396.25,166.5 Q395.8594,166.5 395.6094,166.3281 Q395.3594,166.1563 395.25,165.7031 Q395.2031,165.3906 395.0313,165.2188 Q394.7188,164.8906 394.1563,164.7031 Q393.5938,164.5 393.0313,164.5 Q392.3281,164.5 391.7344,164.7813 Q391.1563,165.0625 390.7031,165.6875 Q390.25,166.3125 390.25,167.1719 L390.25,168.0938 Q390.25,169.125 391.0938,169.8125 Q391.9375,170.5 393.4375,170.5 Q394.3281,170.5 394.9531,170.2969 Q395.3125,170.1875 395.7188,169.8281 Q395.9844,169.625 396.125,169.5625 Q396.2656,169.5 396.4375,169.5 Q396.7656,169.5 397,169.7656 Q397.25,170.0156 397.25,170.375 Q397.25,170.7188 396.9063,171.125 Q396.4063,171.7188 395.6094,172.0469 Q394.5625,172.5 393.2813,172.5 Q391.7813,172.5 390.5781,171.9063 Q389.6094,171.4375 388.9219,170.4219 Q388.25,169.4063 388.25,168.2031 L388.25,167.1094 Q388.25,165.8594 388.8438,164.7656 Q389.4531,163.6719 390.5,163.0938 Q391.5625,162.5 392.75,162.5 Q393.4688,162.5 394.0938,162.75 Q394.7188,163 395.25,163.5 Z " fill="#000000"/><text fill="#000000" font-family="sans-serif" font-size="14" lengthAdjust="spacing" textLength="25" x="413.75" y="172.7285">App</text><line style="stroke:#181818;stroke-width:0.5;" x1="346.5" x2="473.5" y1="183" y2="183"/><line style="stroke:#181818;stroke-width:0.5;" x1="346.5" x2="473.5" y1="191" y2="191"/><ellipse cx="356.5" cy="202" fill="#84BE84" rx="3" ry="3" style="stroke:#038048;stroke-width:1.0;"/><text fill="#000000" font-family="sans-serif" font-size="14" lengthAdjust="spacing" textLength="95" x="365.5" y="209.5332">getProperties()</text><ellipse cx="356.5" cy="219.6094" fill="#84BE84" rx="3" ry="3" style="stroke:#038048;stroke-width:1.0;"/><text fill="#000000" font-family="sans-serif" font-size="14" lengthAdjust="spacing" textLength="103" x="365.5" y="227.1426">getTimerHours()</text></g><!--MD5=[1949145b1be13cc0abfe0acd829457c0]
class VaccinationRecord--><g id="elem_VaccinationRecord"><rect codeLine="12" fill="#F1F1F1" height="118.4375" id="VaccinationRecord" rx="2.5" ry="2.5" style="stroke:#181818;stroke-width:0.5;" width="151" x="254.5" y="438"/><ellipse cx="269.5" cy="454" fill="#ADD1B2" rx="11" ry="11" style="stroke:#181818;stroke-width:1.0;"/><path d="M271.5,450.5 Q271.7031,450 271.9375,449.75 Q272.1719,449.5 272.4375,449.5 Q272.9063,449.5 273.2031,449.7813 Q273.5,450.0625 273.5,450.7188 L273.5,452.2813 Q273.5,452.9375 273.2188,453.2188 Q272.9375,453.5 272.5,453.5 Q272.1094,453.5 271.8594,453.3281 Q271.6094,453.1563 271.5,452.7031 Q271.4531,452.3906 271.2813,452.2188 Q270.9688,451.8906 270.4063,451.7031 Q269.8438,451.5 269.2813,451.5 Q268.5781,451.5 267.9844,451.7813 Q267.4063,452.0625 266.9531,452.6875 Q266.5,453.3125 266.5,454.1719 L266.5,455.0938 Q266.5,456.125 267.3438,456.8125 Q268.1875,457.5 269.6875,457.5 Q270.5781,457.5 271.2031,457.2969 Q271.5625,457.1875 271.9688,456.8281 Q272.2344,456.625 272.375,456.5625 Q272.5156,456.5 272.6875,456.5 Q273.0156,456.5 273.25,456.7656 Q273.5,457.0156 273.5,457.375 Q273.5,457.7188 273.1563,458.125 Q272.6563,458.7188 271.8594,459.0469 Q270.8125,459.5 269.5313,459.5 Q268.0313,459.5 266.8281,458.9063 Q265.8594,458.4375 265.1719,457.4219 Q264.5,456.4063 264.5,455.2031 L264.5,454.1094 Q264.5,452.8594 265.0938,451.7656 Q265.7031,450.6719 266.75,450.0938 Q267.8125,449.5 269,449.5 Q269.7188,449.5 270.3438,449.75 Q270.9688,450 271.5,450.5 Z " fill="#000000"/><text fill="#000000" font-family="sans-serif" font-size="14" lengthAdjust="spacing" textLength="119" x="283.5" y="459.7285">VaccinationRecord</text><line style="stroke:#181818;stroke-width:0.5;" x1="255.5" x2="404.5" y1="470" y2="470"/><rect fill="none" height="6" style="stroke:#C82930;stroke-width:1.0;" width="6" x="262.5" y="478"/><text fill="#000000" font-family="sans-serif" font-size="14" lengthAdjust="spacing" textLength="28" x="274.5" y="488.5332">date</text><rect fill="none" height="6" style="stroke:#C82930;stroke-width:1.0;" width="6" x="262.5" y="495.6094"/><text fill="#000000" font-family="sans-serif" font-size="14" lengthAdjust="spacing" textLength="106" x="274.5" y="506.1426">WaitingRoomList</text><rect fill="none" height="6" style="stroke:#C82930;stroke-width:1.0;" width="6" x="262.5" y="513.2188"/><text fill="#000000" font-family="sans-serif" font-size="14" lengthAdjust="spacing" textLength="116" x="274.5" y="523.752">vaccinespercenter</text><line style="stroke:#181818;stroke-width:0.5;" x1="255.5" x2="404.5" y1="530.8281" y2="530.8281"/><ellipse cx="265.5" cy="541.8281" fill="#84BE84" rx="3" ry="3" style="stroke:#038048;stroke-width:1.0;"/><text fill="#000000" font-family="sans-serif" font-size="14" lengthAdjust="spacing" textLength="31" x="274.5" y="549.3613">run()</text></g><!--MD5=[8523c9eb2e1b5151dfc9c2a797373c5f]
class Scheduler--><g id="elem_Scheduler"><rect codeLine="19" fill="#F1F1F1" height="48" id="Scheduler" rx="2.5" ry="2.5" style="stroke:#181818;stroke-width:0.5;" width="96" x="362" y="312"/><ellipse cx="377" cy="328" fill="#ADD1B2" rx="11" ry="11" style="stroke:#181818;stroke-width:1.0;"/><path d="M379,324.5 Q379.2031,324 379.4375,323.75 Q379.6719,323.5 379.9375,323.5 Q380.4063,323.5 380.7031,323.7813 Q381,324.0625 381,324.7188 L381,326.2813 Q381,326.9375 380.7188,327.2188 Q380.4375,327.5 380,327.5 Q379.6094,327.5 379.3594,327.3281 Q379.1094,327.1563 379,326.7031 Q378.9531,326.3906 378.7813,326.2188 Q378.4688,325.8906 377.9063,325.7031 Q377.3438,325.5 376.7813,325.5 Q376.0781,325.5 375.4844,325.7813 Q374.9063,326.0625 374.4531,326.6875 Q374,327.3125 374,328.1719 L374,329.0938 Q374,330.125 374.8438,330.8125 Q375.6875,331.5 377.1875,331.5 Q378.0781,331.5 378.7031,331.2969 Q379.0625,331.1875 379.4688,330.8281 Q379.7344,330.625 379.875,330.5625 Q380.0156,330.5 380.1875,330.5 Q380.5156,330.5 380.75,330.7656 Q381,331.0156 381,331.375 Q381,331.7188 380.6563,332.125 Q380.1563,332.7188 379.3594,333.0469 Q378.3125,333.5 377.0313,333.5 Q375.5313,333.5 374.3281,332.9063 Q373.3594,332.4375 372.6719,331.4219 Q372,330.4063 372,329.2031 L372,328.1094 Q372,326.8594 372.5938,325.7656 Q373.2031,324.6719 374.25,324.0938 Q375.3125,323.5 376.5,323.5 Q377.2188,323.5 377.8438,323.75 Q378.4688,324 379,324.5 Z " fill="#000000"/><text fill="#000000" font-family="sans-serif" font-size="14" lengthAdjust="spacing" textLength="64" x="391" y="333.7285">Scheduler</text><line style="stroke:#181818;stroke-width:0.5;" x1="363" x2="457" y1="344" y2="344"/><line style="stroke:#181818;stroke-width:0.5;" x1="363" x2="457" y1="352" y2="352"/></g><!--MD5=[74054751ba3b9eca75fda5044dcc84d9]
class TimerTask--><g id="elem_TimerTask"><rect codeLine="24" fill="#F1F1F1" height="65.6094" id="TimerTask" rx="2.5" ry="2.5" style="stroke:#181818;stroke-width:0.5;" width="100" x="446" y="464"/><ellipse cx="461" cy="480" fill="#A9DCDF" rx="11" ry="11" style="stroke:#181818;stroke-width:1.0;"/><path d="M462.75,481.5 L459.4531,481.5 L459.0156,482.5 L459.0156,482.5 L459.4844,482.5 L460,483.125 L460,483.5 L460,483.875 L459.4844,484.5 L459.0156,484.5 L457.125,484.5 L456.5156,484.5 L456,483.875 L456,483.5 L456,483.125 L456.5156,482.5 L457.125,482.5 L459.4375,476.5 L458.5625,476.5 L457.5156,476.5 L457,475.875 L457,475.5 L457,475.125 L457.5156,474.5 L458.5625,474.5 L462.2344,474.5 L464.9219,482.5 L465.4844,482.5 L465.4844,482.5 L466,483.125 L466,483.5 L466,483.875 L465.4844,484.5 L464.9219,484.5 L463.0313,484.5 L462.5156,484.5 L462,483.875 L462,483.5 L462,483.125 L462.5156,482.5 L463.0313,482.5 L463.0313,482.5 L462.75,481.5 Z M462.2031,479.5 L461,475.9219 L459.9688,479.5 L462.2031,479.5 Z " fill="#000000"/><text fill="#000000" font-family="sans-serif" font-size="14" font-style="italic" lengthAdjust="spacing" textLength="68" x="475" y="485.7285">TimerTask</text><line style="stroke:#181818;stroke-width:0.5;" x1="447" x2="545" y1="496" y2="496"/><line style="stroke:#181818;stroke-width:0.5;" x1="447" x2="545" y1="504" y2="504"/><ellipse cx="457" cy="515" fill="#84BE84" rx="3" ry="3" style="stroke:#038048;stroke-width:1.0;"/><text fill="#000000" font-family="sans-serif" font-size="14" lengthAdjust="spacing" textLength="31" x="466" y="522.5332">run()</text></g><!--MD5=[53ae8b34bebe44116eb8626f99f3fe78]
class Runnable--><g id="elem_Runnable"><rect codeLine="28" fill="#F1F1F1" height="65.6094" id="Runnable" rx="2.5" ry="2.5" style="stroke:#181818;stroke-width:0.5;" width="93" x="454.5" y="634"/><ellipse cx="469.5" cy="650" fill="#ADD1B2" rx="11" ry="11" style="stroke:#181818;stroke-width:1.0;"/><path d="M471.5,646.5 Q471.7031,646 471.9375,645.75 Q472.1719,645.5 472.4375,645.5 Q472.9063,645.5 473.2031,645.7813 Q473.5,646.0625 473.5,646.7188 L473.5,648.2813 Q473.5,648.9375 473.2188,649.2188 Q472.9375,649.5 472.5,649.5 Q472.1094,649.5 471.8594,649.3281 Q471.6094,649.1563 471.5,648.7031 Q471.4531,648.3906 471.2813,648.2188 Q470.9688,647.8906 470.4063,647.7031 Q469.8438,647.5 469.2813,647.5 Q468.5781,647.5 467.9844,647.7813 Q467.4063,648.0625 466.9531,648.6875 Q466.5,649.3125 466.5,650.1719 L466.5,651.0938 Q466.5,652.125 467.3438,652.8125 Q468.1875,653.5 469.6875,653.5 Q470.5781,653.5 471.2031,653.2969 Q471.5625,653.1875 471.9688,652.8281 Q472.2344,652.625 472.375,652.5625 Q472.5156,652.5 472.6875,652.5 Q473.0156,652.5 473.25,652.7656 Q473.5,653.0156 473.5,653.375 Q473.5,653.7188 473.1563,654.125 Q472.6563,654.7188 471.8594,655.0469 Q470.8125,655.5 469.5313,655.5 Q468.0313,655.5 466.8281,654.9063 Q465.8594,654.4375 465.1719,653.4219 Q464.5,652.4063 464.5,651.2031 L464.5,650.1094 Q464.5,648.8594 465.0938,647.7656 Q465.7031,646.6719 466.75,646.0938 Q467.8125,645.5 469,645.5 Q469.7188,645.5 470.3438,645.75 Q470.9688,646 471.5,646.5 Z " fill="#000000"/><text fill="#000000" font-family="sans-serif" font-size="14" lengthAdjust="spacing" textLength="61" x="483.5" y="655.7285">Runnable</text><line style="stroke:#181818;stroke-width:0.5;" x1="455.5" x2="546.5" y1="666" y2="666"/><line style="stroke:#181818;stroke-width:0.5;" x1="455.5" x2="546.5" y1="674" y2="674"/><ellipse cx="465.5" cy="685" fill="#84BE84" rx="3" ry="3" style="stroke:#038048;stroke-width:1.0;"/><text fill="#000000" font-family="sans-serif" font-size="14" lengthAdjust="spacing" textLength="31" x="474.5" y="692.5332">run()</text></g><!--MD5=[02e4b9b7573f1156f41e60aa5b4e25a4]
class Company--><g id="elem_Company"><rect codeLine="32" fill="#F1F1F1" height="65.6094" id="Company" rx="2.5" ry="2.5" style="stroke:#181818;stroke-width:0.5;" width="174" x="103" y="634"/><ellipse cx="155.75" cy="650" fill="#ADD1B2" rx="11" ry="11" style="stroke:#181818;stroke-width:1.0;"/><path d="M157.75,646.5 Q157.9531,646 158.1875,645.75 Q158.4219,645.5 158.6875,645.5 Q159.1563,645.5 159.4531,645.7813 Q159.75,646.0625 159.75,646.7188 L159.75,648.2813 Q159.75,648.9375 159.4688,649.2188 Q159.1875,649.5 158.75,649.5 Q158.3594,649.5 158.1094,649.3281 Q157.8594,649.1563 157.75,648.7031 Q157.7031,648.3906 157.5313,648.2188 Q157.2188,647.8906 156.6563,647.7031 Q156.0938,647.5 155.5313,647.5 Q154.8281,647.5 154.2344,647.7813 Q153.6563,648.0625 153.2031,648.6875 Q152.75,649.3125 152.75,650.1719 L152.75,651.0938 Q152.75,652.125 153.5938,652.8125 Q154.4375,653.5 155.9375,653.5 Q156.8281,653.5 157.4531,653.2969 Q157.8125,653.1875 158.2188,652.8281 Q158.4844,652.625 158.625,652.5625 Q158.7656,652.5 158.9375,652.5 Q159.2656,652.5 159.5,652.7656 Q159.75,653.0156 159.75,653.375 Q159.75,653.7188 159.4063,654.125 Q158.9063,654.7188 158.1094,655.0469 Q157.0625,655.5 155.7813,655.5 Q154.2813,655.5 153.0781,654.9063 Q152.1094,654.4375 151.4219,653.4219 Q150.75,652.4063 150.75,651.2031 L150.75,650.1094 Q150.75,648.8594 151.3438,647.7656 Q151.9531,646.6719 153,646.0938 Q154.0625,645.5 155.25,645.5 Q155.9688,645.5 156.5938,645.75 Q157.2188,646 157.75,646.5 Z " fill="#000000"/><text fill="#000000" font-family="sans-serif" font-size="14" lengthAdjust="spacing" textLength="60" x="176.25" y="655.7285">Company</text><line style="stroke:#181818;stroke-width:0.5;" x1="104" x2="276" y1="666" y2="666"/><line style="stroke:#181818;stroke-width:0.5;" x1="104" x2="276" y1="674" y2="674"/><ellipse cx="114" cy="685" fill="#84BE84" rx="3" ry="3" style="stroke:#038048;stroke-width:1.0;"/><text fill="#000000" font-family="sans-serif" font-size="14" lengthAdjust="spacing" textLength="148" x="123" y="692.5332">getWaitingRoomStore()</text></g><!--MD5=[d7a366fe1cc5060c824a64e7c3fcb40b]
class WaitingRoomStore--><g id="elem_WaitingRoomStore"><rect codeLine="36" fill="#F1F1F1" height="83.2188" id="WaitingRoomStore" rx="2.5" ry="2.5" style="stroke:#181818;stroke-width:0.5;" width="178" x="137" y="778"/><ellipse cx="164.6" cy="794" fill="#ADD1B2" rx="11" ry="11" style="stroke:#181818;stroke-width:1.0;"/><path d="M166.6,790.5 Q166.8031,790 167.0375,789.75 Q167.2719,789.5 167.5375,789.5 Q168.0063,789.5 168.3031,789.7813 Q168.6,790.0625 168.6,790.7188 L168.6,792.2813 Q168.6,792.9375 168.3188,793.2188 Q168.0375,793.5 167.6,793.5 Q167.2094,793.5 166.9594,793.3281 Q166.7094,793.1563 166.6,792.7031 Q166.5531,792.3906 166.3813,792.2188 Q166.0688,791.8906 165.5063,791.7031 Q164.9438,791.5 164.3813,791.5 Q163.6781,791.5 163.0844,791.7813 Q162.5063,792.0625 162.0531,792.6875 Q161.6,793.3125 161.6,794.1719 L161.6,795.0938 Q161.6,796.125 162.4438,796.8125 Q163.2875,797.5 164.7875,797.5 Q165.6781,797.5 166.3031,797.2969 Q166.6625,797.1875 167.0688,796.8281 Q167.3344,796.625 167.475,796.5625 Q167.6156,796.5 167.7875,796.5 Q168.1156,796.5 168.35,796.7656 Q168.6,797.0156 168.6,797.375 Q168.6,797.7188 168.2563,798.125 Q167.7563,798.7188 166.9594,799.0469 Q165.9125,799.5 164.6313,799.5 Q163.1313,799.5 161.9281,798.9063 Q160.9594,798.4375 160.2719,797.4219 Q159.6,796.4063 159.6,795.2031 L159.6,794.1094 Q159.6,792.8594 160.1938,791.7656 Q160.8031,790.6719 161.85,790.0938 Q162.9125,789.5 164.1,789.5 Q164.8188,789.5 165.4438,789.75 Q166.0688,790 166.6,790.5 Z " fill="#000000"/><text fill="#000000" font-family="sans-serif" font-size="14" lengthAdjust="spacing" textLength="118" x="181.4" y="799.7285">WaitingRoomStore</text><line style="stroke:#181818;stroke-width:0.5;" x1="138" x2="314" y1="810" y2="810"/><rect fill="none" height="6" style="stroke:#C82930;stroke-width:1.0;" width="6" x="145" y="818"/><text fill="#000000" font-family="sans-serif" font-size="14" lengthAdjust="spacing" textLength="35" x="157" y="828.5332">count</text><line style="stroke:#181818;stroke-width:0.5;" x1="138" x2="314" y1="835.6094" y2="835.6094"/><ellipse cx="148" cy="846.6094" fill="#84BE84" rx="3" ry="3" style="stroke:#038048;stroke-width:1.0;"/><text fill="#000000" font-family="sans-serif" font-size="14" lengthAdjust="spacing" textLength="152" x="157" y="854.1426">vaccinationsperCenter()</text></g><!--MD5=[67201a0639aa2bcc09ee009aa09c986a]
class vaccinationsperCenter--><g id="elem_vaccinationsperCenter"><rect codeLine="41" fill="#F1F1F1" height="65.6094" id="vaccinationsperCenter" rx="2.5" ry="2.5" style="stroke:#181818;stroke-width:0.5;" width="174" x="7" y="939"/><ellipse cx="22" cy="955" fill="#ADD1B2" rx="11" ry="11" style="stroke:#181818;stroke-width:1.0;"/><path d="M24,951.5 Q24.2031,951 24.4375,950.75 Q24.6719,950.5 24.9375,950.5 Q25.4063,950.5 25.7031,950.7813 Q26,951.0625 26,951.7188 L26,953.2813 Q26,953.9375 25.7188,954.2188 Q25.4375,954.5 25,954.5 Q24.6094,954.5 24.3594,954.3281 Q24.1094,954.1563 24,953.7031 Q23.9531,953.3906 23.7813,953.2188 Q23.4688,952.8906 22.9063,952.7031 Q22.3438,952.5 21.7813,952.5 Q21.0781,952.5 20.4844,952.7813 Q19.9063,953.0625 19.4531,953.6875 Q19,954.3125 19,955.1719 L19,956.0938 Q19,957.125 19.8438,957.8125 Q20.6875,958.5 22.1875,958.5 Q23.0781,958.5 23.7031,958.2969 Q24.0625,958.1875 24.4688,957.8281 Q24.7344,957.625 24.875,957.5625 Q25.0156,957.5 25.1875,957.5 Q25.5156,957.5 25.75,957.7656 Q26,958.0156 26,958.375 Q26,958.7188 25.6563,959.125 Q25.1563,959.7188 24.3594,960.0469 Q23.3125,960.5 22.0313,960.5 Q20.5313,960.5 19.3281,959.9063 Q18.3594,959.4375 17.6719,958.4219 Q17,957.4063 17,956.2031 L17,955.1094 Q17,953.8594 17.5938,952.7656 Q18.2031,951.6719 19.25,951.0938 Q20.3125,950.5 21.5,950.5 Q22.2188,950.5 22.8438,950.75 Q23.4688,951 24,951.5 Z " fill="#000000"/><text fill="#000000" font-family="sans-serif" font-size="14" lengthAdjust="spacing" textLength="142" x="36" y="960.7285">vaccinationsperCenter</text><line style="stroke:#181818;stroke-width:0.5;" x1="8" x2="180" y1="971" y2="971"/><rect fill="none" height="6" style="stroke:#C82930;stroke-width:1.0;" width="6" x="15" y="979"/><text fill="#000000" font-family="sans-serif" font-size="14" lengthAdjust="spacing" textLength="35" x="27" y="989.5332">count</text><line style="stroke:#181818;stroke-width:0.5;" x1="8" x2="180" y1="996.6094" y2="996.6094"/></g><!--MD5=[de60e6d4f424ae4d0522096f76a59010]
class VaccinationCenter--><g id="elem_VaccinationCenter"><rect codeLine="45" fill="#F1F1F1" height="65.6094" id="VaccinationCenter" rx="2.5" ry="2.5" style="stroke:#181818;stroke-width:0.5;" width="148" x="256" y="939"/><ellipse cx="271" cy="955" fill="#ADD1B2" rx="11" ry="11" style="stroke:#181818;stroke-width:1.0;"/><path d="M273,951.5 Q273.2031,951 273.4375,950.75 Q273.6719,950.5 273.9375,950.5 Q274.4063,950.5 274.7031,950.7813 Q275,951.0625 275,951.7188 L275,953.2813 Q275,953.9375 274.7188,954.2188 Q274.4375,954.5 274,954.5 Q273.6094,954.5 273.3594,954.3281 Q273.1094,954.1563 273,953.7031 Q272.9531,953.3906 272.7813,953.2188 Q272.4688,952.8906 271.9063,952.7031 Q271.3438,952.5 270.7813,952.5 Q270.0781,952.5 269.4844,952.7813 Q268.9063,953.0625 268.4531,953.6875 Q268,954.3125 268,955.1719 L268,956.0938 Q268,957.125 268.8438,957.8125 Q269.6875,958.5 271.1875,958.5 Q272.0781,958.5 272.7031,958.2969 Q273.0625,958.1875 273.4688,957.8281 Q273.7344,957.625 273.875,957.5625 Q274.0156,957.5 274.1875,957.5 Q274.5156,957.5 274.75,957.7656 Q275,958.0156 275,958.375 Q275,958.7188 274.6563,959.125 Q274.1563,959.7188 273.3594,960.0469 Q272.3125,960.5 271.0313,960.5 Q269.5313,960.5 268.3281,959.9063 Q267.3594,959.4375 266.6719,958.4219 Q266,957.4063 266,956.2031 L266,955.1094 Q266,953.8594 266.5938,952.7656 Q267.2031,951.6719 268.25,951.0938 Q269.3125,950.5 270.5,950.5 Q271.2188,950.5 271.8438,950.75 Q272.4688,951 273,951.5 Z " fill="#000000"/><text fill="#000000" font-family="sans-serif" font-size="14" lengthAdjust="spacing" textLength="116" x="285" y="960.7285">VaccinationCenter</text><line style="stroke:#181818;stroke-width:0.5;" x1="257" x2="403" y1="971" y2="971"/><rect fill="none" height="6" style="stroke:#C82930;stroke-width:1.0;" width="6" x="264" y="979"/><text fill="#000000" font-family="sans-serif" font-size="14" lengthAdjust="spacing" textLength="111" x="276" y="989.5332">vaccinationcenter</text><line style="stroke:#181818;stroke-width:0.5;" x1="257" x2="403" y1="996.6094" y2="996.6094"/></g><!--MD5=[c680266cf9e454ca06c2d1bb8b683e6b]
class Schedule--><g id="elem_Schedule"><rect fill="#F1F1F1" height="48" id="Schedule" rx="2.5" ry="2.5" style="stroke:#181818;stroke-width:0.5;" width="91" x="284.5" y="1083"/><ellipse cx="299.5" cy="1099" fill="#ADD1B2" rx="11" ry="11" style="stroke:#181818;stroke-width:1.0;"/><path d="M301.5,1095.5 Q301.7031,1095 301.9375,1094.75 Q302.1719,1094.5 302.4375,1094.5 Q302.9063,1094.5 303.2031,1094.7813 Q303.5,1095.0625 303.5,1095.7188 L303.5,1097.2813 Q303.5,1097.9375 303.2188,1098.2188 Q302.9375,1098.5 302.5,1098.5 Q302.1094,1098.5 301.8594,1098.3281 Q301.6094,1098.1563 301.5,1097.7031 Q301.4531,1097.3906 301.2813,1097.2188 Q300.9688,1096.8906 300.4063,1096.7031 Q299.8438,1096.5 299.2813,1096.5 Q298.5781,1096.5 297.9844,1096.7813 Q297.4063,1097.0625 296.9531,1097.6875 Q296.5,1098.3125 296.5,1099.1719 L296.5,1100.0938 Q296.5,1101.125 297.3438,1101.8125 Q298.1875,1102.5 299.6875,1102.5 Q300.5781,1102.5 301.2031,1102.2969 Q301.5625,1102.1875 301.9688,1101.8281 Q302.2344,1101.625 302.375,1101.5625 Q302.5156,1101.5 302.6875,1101.5 Q303.0156,1101.5 303.25,1101.7656 Q303.5,1102.0156 303.5,1102.375 Q303.5,1102.7188 303.1563,1103.125 Q302.6563,1103.7188 301.8594,1104.0469 Q300.8125,1104.5 299.5313,1104.5 Q298.0313,1104.5 296.8281,1103.9063 Q295.8594,1103.4375 295.1719,1102.4219 Q294.5,1101.4063 294.5,1100.2031 L294.5,1099.1094 Q294.5,1097.8594 295.0938,1096.7656 Q295.7031,1095.6719 296.75,1095.0938 Q297.8125,1094.5 299,1094.5 Q299.7188,1094.5 300.3438,1094.75 Q300.9688,1095 301.5,1095.5 Z " fill="#000000"/><text fill="#000000" font-family="sans-serif" font-size="14" lengthAdjust="spacing" textLength="59" x="313.5" y="1104.7285">Schedule</text><line style="stroke:#181818;stroke-width:0.5;" x1="285.5" x2="374.5" y1="1115" y2="1115"/><line style="stroke:#181818;stroke-width:0.5;" x1="285.5" x2="374.5" y1="1123" y2="1123"/></g><!--MD5=[9565ee374c43585bd19dccdcca1c811d]
link Main to App--><g id="link_Main_App"><path codeLine="53" d="M410,73.29 C410,94.4 410,122.31 410,145.71 " fill="none" id="Main-to-App" style="stroke:#181818;stroke-width:1.0;"/><polygon fill="#181818" points="410,150.93,414,141.93,410,145.93,406,141.93,410,150.93" style="stroke:#181818;stroke-width:1.0;"/><text fill="#000000" font-family="sans-serif" font-size="13" lengthAdjust="spacing" textLength="53" x="411" y="117.4951">executes</text></g><!--MD5=[b357ec020e31ca7921bd2bfebdb46ea6]
link App to Scheduler--><g id="link_App_Scheduler"><path codeLine="54" d="M410,234.05 C410,257.24 410,285.75 410,306.56 " fill="none" id="App-to-Scheduler" style="stroke:#181818;stroke-width:1.0;"/><polygon fill="#181818" points="410,311.67,414,302.67,410,306.67,406,302.67,410,311.67" style="stroke:#181818;stroke-width:1.0;"/><text fill="#000000" font-family="sans-serif" font-size="13" lengthAdjust="spacing" textLength="53" x="411" y="278.4951">executes</text></g><!--MD5=[0cbdce1b3085a231f3694506bba1250e]
link Scheduler to VaccinationRecord--><g id="link_Scheduler_VaccinationRecord"><path codeLine="55" d="M398.37,360.12 C388.74,379.26 374.59,407.37 361.66,433.07 " fill="none" id="Scheduler-to-VaccinationRecord" style="stroke:#181818;stroke-width:1.0;stroke-dasharray:7.0,7.0;"/><polygon fill="#181818" points="359.27,437.83,366.8806,431.5787,361.5118,433.3607,359.7298,427.9919,359.27,437.83" style="stroke:#181818;stroke-width:1.0;"/></g><!--MD5=[4a5eba60e5163b565c1302a98699754e]
link VaccinationRecord to Company--><g id="link_VaccinationRecord_Company"><path codeLine="56" d="M281.43,556.29 C261.06,580.73 238.01,608.39 220.15,629.83 " fill="none" id="VaccinationRecord-to-Company" style="stroke:#181818;stroke-width:1.0;stroke-dasharray:7.0,7.0;"/><polygon fill="#181818" points="216.87,633.75,225.703,629.3935,220.0695,629.9077,219.5553,624.2743,216.87,633.75" style="stroke:#181818;stroke-width:1.0;"/></g><!--MD5=[05962c0a9a70769946f1856d7942a74b]
link Company to WaitingRoomStore--><g id="link_Company_WaitingRoomStore"><path codeLine="57" d="M197.72,700.29 C202.8,721.49 209.51,749.55 215.12,773 " fill="none" id="Company-to-WaitingRoomStore" style="stroke:#181818;stroke-width:1.0;"/><polygon fill="#181818" points="216.3,777.93,218.0849,768.2442,215.131,773.0686,210.3066,770.1147,216.3,777.93" style="stroke:#181818;stroke-width:1.0;"/><polygon fill="#000000" points="216.1637,744.0385,216.9168,734.5578,211.2003,735.9258,216.1637,744.0385" style="stroke:#000000;stroke-width:1.0;"/><text fill="#000000" font-family="sans-serif" font-size="13" lengthAdjust="spacing" textLength="28" x="224" y="744.4951">uses</text><text fill="#000000" font-family="sans-serif" font-size="13" lengthAdjust="spacing" textLength="7" x="191.4717" y="721.206">1</text><text fill="#000000" font-family="sans-serif" font-size="13" lengthAdjust="spacing" textLength="7" x="207.1138" y="767.2261">1</text></g><!--MD5=[1252aba31c1d4e8c5f75035ec407a30d]
link WaitingRoomStore to VaccinationCenter--><g id="link_WaitingRoomStore_VaccinationCenter"><path codeLine="58" d="M254.14,861.23 C269.93,884.08 289.47,912.35 304.77,934.48 " fill="none" id="WaitingRoomStore-to-VaccinationCenter" style="stroke:#181818;stroke-width:1.0;"/><polygon fill="#181818" points="307.77,938.82,305.9446,929.1418,304.9277,934.7065,299.363,933.6895,307.77,938.82" style="stroke:#181818;stroke-width:1.0;"/><polygon fill="#000000" points="292.843,904.2889,290.1176,895.1772,285.2824,898.5193,292.843,904.2889" style="stroke:#000000;stroke-width:1.0;"/><text fill="#000000" font-family="sans-serif" font-size="13" lengthAdjust="spacing" textLength="37" x="299" y="905.4951">knows</text></g><!--MD5=[1193d9a41cfc992aadf4af1ed7f7a253]
link VaccinationCenter to Schedule--><g id="link_VaccinationCenter_Schedule"><path codeLine="59" d="M330,1005.2 C330,1027.31 330,1056.39 330,1077.63 " fill="none" id="VaccinationCenter-to-Schedule" style="stroke:#181818;stroke-width:1.0;"/><polygon fill="#181818" points="330,1082.85,334,1073.85,330,1077.85,326,1073.85,330,1082.85" style="stroke:#181818;stroke-width:1.0;"/><polygon fill="#000000" points="335,1049.1758,337.9389,1040.1307,332.0611,1040.1307,335,1049.1758" style="stroke:#000000;stroke-width:1.0;"/><text fill="#000000" font-family="sans-serif" font-size="13" lengthAdjust="spacing" textLength="21" x="344" y="1049.4951">has</text><text fill="#000000" font-family="sans-serif" font-size="13" lengthAdjust="spacing" textLength="7" x="322.3766" y="1026.1">1</text><text fill="#000000" font-family="sans-serif" font-size="13" lengthAdjust="spacing" textLength="7" x="322.1031" y="1072.1517">1</text></g><!--MD5=[0cb3af09d99d9e251e51d953e4cd4dbf]
link WaitingRoomStore to vaccinationsperCenter--><g id="link_WaitingRoomStore_vaccinationsperCenter"><path codeLine="60" d="M190.28,861.23 C170.07,884.27 145.02,912.82 125.54,935.03 " fill="none" id="WaitingRoomStore-to-vaccinationsperCenter" style="stroke:#181818;stroke-width:1.0;"/><polygon fill="#181818" points="122.22,938.82,131.1646,934.6976,125.5196,935.0633,125.1539,929.4183,122.22,938.82" style="stroke:#181818;stroke-width:1.0;"/><polygon fill="#000000" points="165.7027,903.9345,173.8769,899.073,169.4582,895.1968,165.7027,903.9345" style="stroke:#000000;stroke-width:1.0;"/><text fill="#000000" font-family="sans-serif" font-size="13" lengthAdjust="spacing" textLength="37" x="178" y="905.4951">knows</text></g><!--MD5=[115d7de8d5e8b829fc9b5044966e6c42]
link VaccinationRecord to vaccinationsperCenter--><g id="link_VaccinationRecord_vaccinationsperCenter"><path codeLine="61" d="M254.31,517.45 C196.68,536.68 121.28,572.37 85,634 C28.72,729.61 60.72,868.41 81.12,934.01 " fill="none" id="VaccinationRecord-to-vaccinationsperCenter" style="stroke:#181818;stroke-width:1.0;stroke-dasharray:7.0,7.0;"/><polygon fill="#181818" points="82.69,938.98,83.8068,929.1947,81.1905,934.2101,76.175,931.5939,82.69,938.98" style="stroke:#181818;stroke-width:1.0;"/></g><!--MD5=[86befdff72ccaff31cd4c3de77359baf]
link VaccinationRecord to WaitingRoomStore--><g id="link_VaccinationRecord_WaitingRoomStore"><path codeLine="62" d="M324.97,556.41 C320.14,597.51 310.98,653.3 294,700 C284.69,725.6 270.05,752.08 256.74,773.49 " fill="none" id="VaccinationRecord-to-WaitingRoomStore" style="stroke:#181818;stroke-width:1.0;stroke-dasharray:7.0,7.0;"/><polygon fill="#181818" points="253.92,777.98,262.0953,772.4878,256.5803,773.7464,255.3216,768.2314,253.92,777.98" style="stroke:#181818;stroke-width:1.0;"/></g><!--MD5=[f165cc3ce240bd86b62fc46fc19117be]
link VaccinationRecord to VaccinationCenter--><g id="link_VaccinationRecord_VaccinationCenter"><path codeLine="63" d="M342.07,556.02 C343.71,565.98 345.12,576.26 346,586 C346.72,593.97 346.01,596 346,604 C345.78,739.56 361.27,774.42 345,909 C344.02,917.1 342.36,925.68 340.5,933.79 " fill="none" id="VaccinationRecord-to-VaccinationCenter" style="stroke:#181818;stroke-width:1.0;stroke-dasharray:7.0,7.0;"/><polygon fill="#181818" points="339.31,938.76,345.2868,930.932,340.4687,933.8961,337.5046,929.078,339.31,938.76" style="stroke:#181818;stroke-width:1.0;"/></g><!--MD5=[d1e8a9c17617a8d4c9d7da7ce0d3de13]
link TimerTask to Runnable--><g id="link_TimerTask_Runnable"><path codeLine="64" d="M496.96,530.39 C497.8,558.6 499.02,599.5 499.9,628.99 " fill="none" id="TimerTask-to-Runnable" style="stroke:#181818;stroke-width:1.0;"/><polygon fill="#181818" points="500.05,633.99,503.7653,624.8688,499.8929,628.9925,495.7693,625.1201,500.05,633.99" style="stroke:#181818;stroke-width:1.0;"/><polygon fill="#000000" points="504.149,600.1736,506.8171,591.0449,500.9418,591.2201,504.149,600.1736" style="stroke:#000000;stroke-width:1.0;"/><text fill="#000000" font-family="sans-serif" font-size="13" lengthAdjust="spacing" textLength="67" x="513" y="600.4951">implements</text></g><!--MD5=[4f07de862694309812d1780b0ee9c6d1]
link Scheduler to TimerTask--><g id="link_Scheduler_TimerTask"><path codeLine="65" d="M422.51,360.12 C436.58,386.14 459.64,428.77 476.17,459.34 " fill="none" id="Scheduler-to-TimerTask" style="stroke:#181818;stroke-width:1.0;"/><polygon fill="#181818" points="478.56,463.76,477.7865,453.9416,476.1767,459.3645,470.7538,457.7548,478.56,463.76" style="stroke:#181818;stroke-width:1.0;"/><polygon fill="#000000" points="455.3785,403.5738,453.6608,394.2196,448.4906,397.0158,455.3785,403.5738" style="stroke:#000000;stroke-width:1.0;"/><text fill="#000000" font-family="sans-serif" font-size="13" lengthAdjust="spacing" textLength="46" x="462" y="404.4951">extends</text></g><!--MD5=[3040bfac95a4b480e9040b02511ab275]
@startuml


class Main{
+main()
}

class App{
+getProperties()
+getTimerHours()
}

class VaccinationRecord{
-date
-WaitingRoomList
-vaccinespercenter
+run()
}

class Scheduler{

}


abstract class TimerTask{
+run()
}

class Runnable{
+run()
}

class Company{
+getWaitingRoomStore()
}

class WaitingRoomStore{
-count
+vaccinationsperCenter()
}

class vaccinationsperCenter{
-count
}

class VaccinationCenter{
-vaccinationcenter
}





Main - -> App : executes
App - -> Scheduler : executes
Scheduler ..> VaccinationRecord
VaccinationRecord ..> Company
Company "1" - -> "1" WaitingRoomStore : uses >
WaitingRoomStore - -> VaccinationCenter : knows >
VaccinationCenter "1" - -> "1" Schedule : has >
WaitingRoomStore - -> vaccinationsperCenter : knows >
VaccinationRecord ..> vaccinationsperCenter
VaccinationRecord ..> WaitingRoomStore
VaccinationRecord ..> VaccinationCenter
TimerTask - -> Runnable : implements >
Scheduler - -> TimerTask : extends >
@enduml

PlantUML version 1.2022.5(Sat Apr 30 11:55:52 BST 2022)
(GPL source distribution)
Java Runtime: OpenJDK Runtime Environment
JVM: OpenJDK 64-Bit Server VM
Default Encoding: Cp1252
Language: en
Country: US
--></g></svg>