<?xml version="1.0" encoding="UTF-8" standalone="no"?><svg xmlns="http://www.w3.org/2000/svg" xmlns:xlink="http://www.w3.org/1999/xlink" contentStyleType="text/css" height="1358px" preserveAspectRatio="none" style="width:2208px;height:1358px;background:#FFFFFF;" version="1.1" viewBox="0 0 2208 1358" width="2208px" zoomAndPan="magnify"><defs/><g><rect fill="#FFFFFF" height="1166.0078" style="stroke:#181818;stroke-width:1.0;" width="10" x="76" y="92.6094"/><rect fill="#FFFFFF" height="46.7031" style="stroke:#181818;stroke-width:1.0;" width="10" x="406" y="114.9609"/><rect fill="#FFFFFF" height="146.0547" style="stroke:#181818;stroke-width:1.0;" width="10" x="406" y="192.0156"/><rect fill="#FFFFFF" height="651.7344" style="stroke:#181818;stroke-width:1.0;" width="10" x="406" y="368.4219"/><rect fill="#FFFFFF" height="208.1094" style="stroke:#181818;stroke-width:1.0;" width="10" x="406" y="1050.5078"/><rect fill="#FFFFFF" height="60.3516" style="stroke:#181818;stroke-width:1.0;" width="10" x="910" y="222.3672"/><rect fill="#FFFFFF" height="621.3828" style="stroke:#181818;stroke-width:1.0;" width="10" x="910" y="398.7734"/><rect fill="#FFFFFF" height="177.7578" style="stroke:#181818;stroke-width:1.0;" width="10" x="910" y="1080.8594"/><rect fill="#FFFFFF" height="30" style="stroke:#181818;stroke-width:1.0;" width="10" x="1069" y="514.4766"/><rect fill="#FFFFFF" height="30" style="stroke:#181818;stroke-width:1.0;" width="10" x="1193" y="599.8281"/><rect fill="#FFFFFF" height="30" style="stroke:#181818;stroke-width:1.0;" width="10" x="1309.5" y="685.1797"/><rect fill="#FFFFFF" height="30" style="stroke:#181818;stroke-width:1.0;" width="10" x="1403" y="252.7188"/><rect fill="#FFFFFF" height="30" style="stroke:#181818;stroke-width:1.0;" width="10" x="1403" y="429.125"/><rect fill="#FFFFFF" height="30" style="stroke:#181818;stroke-width:1.0;" width="10" x="1403" y="770.5313"/><rect fill="#FFFFFF" height="164.2734" style="stroke:#181818;stroke-width:1.0;" width="10" x="1497" y="855.8828"/><rect fill="#FFFFFF" height="147.4063" style="stroke:#181818;stroke-width:1.0;" width="10" x="1497" y="1111.2109"/><line style="stroke:#181818;stroke-width:0.5;stroke-dasharray:5.0,5.0;" x1="81" x2="81" y1="82.6094" y2="1276.6172"/><line style="stroke:#181818;stroke-width:0.5;stroke-dasharray:5.0,5.0;" x1="411" x2="411" y1="82.6094" y2="1276.6172"/><line style="stroke:#181818;stroke-width:0.5;stroke-dasharray:5.0,5.0;" x1="915" x2="915" y1="82.6094" y2="1276.6172"/><line style="stroke:#181818;stroke-width:0.5;stroke-dasharray:5.0,5.0;" x1="1074" x2="1074" y1="82.6094" y2="1276.6172"/><line style="stroke:#181818;stroke-width:0.5;stroke-dasharray:5.0,5.0;" x1="1198" x2="1198" y1="82.6094" y2="1276.6172"/><line style="stroke:#181818;stroke-width:0.5;stroke-dasharray:5.0,5.0;" x1="1314" x2="1314" y1="82.6094" y2="1276.6172"/><line style="stroke:#181818;stroke-width:0.5;stroke-dasharray:5.0,5.0;" x1="1408" x2="1408" y1="82.6094" y2="1276.6172"/><line style="stroke:#181818;stroke-width:0.5;stroke-dasharray:5.0,5.0;" x1="1502" x2="1502" y1="82.6094" y2="1276.6172"/><line style="stroke:#181818;stroke-width:0.5;stroke-dasharray:5.0,5.0;" x1="1967" x2="1967" y1="903.9922" y2="1276.6172"/><line style="stroke:#181818;stroke-width:0.5;stroke-dasharray:5.0,5.0;" x1="2040" x2="2040" y1="82.6094" y2="1276.6172"/><line style="stroke:#181818;stroke-width:0.5;stroke-dasharray:5.0,5.0;" x1="2145" x2="2145" y1="82.6094" y2="1276.6172"/><text fill="#000000" font-family="sans-serif" font-size="14" lengthAdjust="spacing" textLength="146" x="5" y="79.5332">Organization Employee</text><ellipse cx="81" cy="13.5" fill="#E2E2F0" rx="8" ry="8" style="stroke:#181818;stroke-width:0.5;"/><path d="M81,21.5 L81,48.5 M68,29.5 L94,29.5 M81,48.5 L68,63.5 M81,48.5 L94,63.5 " fill="none" style="stroke:#181818;stroke-width:0.5;"/><text fill="#000000" font-family="sans-serif" font-size="14" lengthAdjust="spacing" textLength="146" x="5" y="1290.1504">Organization Employee</text><ellipse cx="81" cy="1301.7266" fill="#E2E2F0" rx="8" ry="8" style="stroke:#181818;stroke-width:0.5;"/><path d="M81,1309.7266 L81,1336.7266 M68,1317.7266 L94,1317.7266 M81,1336.7266 L68,1351.7266 M81,1336.7266 L94,1351.7266 " fill="none" style="stroke:#181818;stroke-width:0.5;"/><rect fill="#E2E2F0" height="31.6094" rx="2.5" ry="2.5" style="stroke:#181818;stroke-width:0.5;" width="104" x="359" y="50"/><text fill="#000000" font-family="sans-serif" font-size="14" lengthAdjust="spacing" textLength="90" x="366" y="71.5332">:CreateTaskUI</text><rect fill="#E2E2F0" height="31.6094" rx="2.5" ry="2.5" style="stroke:#181818;stroke-width:0.5;" width="104" x="359" y="1275.6172"/><text fill="#000000" font-family="sans-serif" font-size="14" lengthAdjust="spacing" textLength="90" x="366" y="1297.1504">:CreateTaskUI</text><rect fill="#E2E2F0" height="31.6094" rx="2.5" ry="2.5" style="stroke:#181818;stroke-width:0.5;" width="154" x="838" y="50"/><text fill="#000000" font-family="sans-serif" font-size="14" lengthAdjust="spacing" textLength="140" x="845" y="71.5332">:CreateTaskController</text><rect fill="#E2E2F0" height="31.6094" rx="2.5" ry="2.5" style="stroke:#181818;stroke-width:0.5;" width="154" x="838" y="1275.6172"/><text fill="#000000" font-family="sans-serif" font-size="14" lengthAdjust="spacing" textLength="140" x="845" y="1297.1504">:CreateTaskController</text><rect fill="#E2E2F0" height="31.6094" rx="2.5" ry="2.5" style="stroke:#181818;stroke-width:0.5;" width="112" x="1018" y="50"/><text fill="#000000" font-family="sans-serif" font-size="14" lengthAdjust="spacing" textLength="98" x="1025" y="71.5332">ApplicationPOT</text><rect fill="#E2E2F0" height="31.6094" rx="2.5" ry="2.5" style="stroke:#181818;stroke-width:0.5;" width="112" x="1018" y="1275.6172"/><text fill="#000000" font-family="sans-serif" font-size="14" lengthAdjust="spacing" textLength="98" x="1025" y="1297.1504">ApplicationPOT</text><rect fill="#E2E2F0" height="49.2188" rx="2.5" ry="2.5" style="stroke:#181818;stroke-width:0.5;" width="116" x="1140" y="32.3906"/><text fill="#000000" font-family="sans-serif" font-size="14" lengthAdjust="spacing" textLength="24" x="1186" y="53.9238">app</text><text fill="#000000" font-family="sans-serif" font-size="14" lengthAdjust="spacing" textLength="102" x="1147" y="71.5332">:ApplicationPOT</text><rect fill="#E2E2F0" height="49.2188" rx="2.5" ry="2.5" style="stroke:#181818;stroke-width:0.5;" width="116" x="1140" y="1275.6172"/><text fill="#000000" font-family="sans-serif" font-size="14" lengthAdjust="spacing" textLength="24" x="1186" y="1297.1504">app</text><text fill="#000000" font-family="sans-serif" font-size="14" lengthAdjust="spacing" textLength="102" x="1147" y="1314.7598">:ApplicationPOT</text><rect fill="#E2E2F0" height="49.2188" rx="2.5" ry="2.5" style="stroke:#181818;stroke-width:0.5;" width="97" x="1266" y="32.3906"/><text fill="#000000" font-family="sans-serif" font-size="14" lengthAdjust="spacing" textLength="48" x="1290.5" y="53.9238">session</text><text fill="#000000" font-family="sans-serif" font-size="14" lengthAdjust="spacing" textLength="83" x="1273" y="71.5332">:UserSession</text><rect fill="#E2E2F0" height="49.2188" rx="2.5" ry="2.5" style="stroke:#181818;stroke-width:0.5;" width="97" x="1266" y="1275.6172"/><text fill="#000000" font-family="sans-serif" font-size="14" lengthAdjust="spacing" textLength="48" x="1290.5" y="1297.1504">session</text><text fill="#000000" font-family="sans-serif" font-size="14" lengthAdjust="spacing" textLength="83" x="1273" y="1314.7598">:UserSession</text><rect fill="#E2E2F0" height="31.6094" rx="2.5" ry="2.5" style="stroke:#181818;stroke-width:0.5;" width="70" x="1373" y="50"/><text fill="#000000" font-family="sans-serif" font-size="14" lengthAdjust="spacing" textLength="56" x="1380" y="71.5332">:Platform</text><rect fill="#E2E2F0" height="31.6094" rx="2.5" ry="2.5" style="stroke:#181818;stroke-width:0.5;" width="70" x="1373" y="1275.6172"/><text fill="#000000" font-family="sans-serif" font-size="14" lengthAdjust="spacing" textLength="56" x="1380" y="1297.1504">:Platform</text><rect fill="#E2E2F0" height="49.2188" rx="2.5" ry="2.5" style="stroke:#181818;stroke-width:0.5;" width="98" x="1453" y="32.3906"/><text fill="#000000" font-family="sans-serif" font-size="14" lengthAdjust="spacing" textLength="21" x="1491.5" y="53.9238">org</text><text fill="#000000" font-family="sans-serif" font-size="14" lengthAdjust="spacing" textLength="84" x="1460" y="71.5332">:Organization</text><rect fill="#E2E2F0" height="49.2188" rx="2.5" ry="2.5" style="stroke:#181818;stroke-width:0.5;" width="98" x="1453" y="1275.6172"/><text fill="#000000" font-family="sans-serif" font-size="14" lengthAdjust="spacing" textLength="21" x="1491.5" y="1297.1504">org</text><text fill="#000000" font-family="sans-serif" font-size="14" lengthAdjust="spacing" textLength="84" x="1460" y="1314.7598">:Organization</text><rect fill="#E2E2F0" height="49.2188" rx="2.5" ry="2.5" style="stroke:#181818;stroke-width:0.5;" width="49" x="1943" y="1275.6172"/><text fill="#000000" font-family="sans-serif" font-size="14" lengthAdjust="spacing" textLength="26" x="1954.5" y="1297.1504">task</text><text fill="#000000" font-family="sans-serif" font-size="14" lengthAdjust="spacing" textLength="35" x="1950" y="1314.7598">:Task</text><rect fill="#E2E2F0" height="49.2188" rx="2.5" ry="2.5" style="stroke:#181818;stroke-width:0.5;" width="76" x="2002" y="32.3906"/><text fill="#000000" font-family="sans-serif" font-size="14" lengthAdjust="spacing" textLength="19" x="2030.5" y="53.9238">cat</text><text fill="#000000" font-family="sans-serif" font-size="14" lengthAdjust="spacing" textLength="62" x="2009" y="71.5332">:Category</text><rect fill="#E2E2F0" height="49.2188" rx="2.5" ry="2.5" style="stroke:#181818;stroke-width:0.5;" width="76" x="2002" y="1275.6172"/><text fill="#000000" font-family="sans-serif" font-size="14" lengthAdjust="spacing" textLength="19" x="2030.5" y="1297.1504">cat</text><text fill="#000000" font-family="sans-serif" font-size="14" lengthAdjust="spacing" textLength="62" x="2009" y="1314.7598">:Category</text><rect fill="#E2E2F0" height="49.2188" rx="2.5" ry="2.5" style="stroke:#181818;stroke-width:0.5;" width="114" x="2088" y="32.3906"/><text fill="#000000" font-family="sans-serif" font-size="14" lengthAdjust="spacing" textLength="10" x="2140" y="53.9238">lc</text><text fill="#000000" font-family="sans-serif" font-size="14" lengthAdjust="spacing" textLength="100" x="2095" y="71.5332">:List&lt;Category&gt;</text><rect fill="#E2E2F0" height="49.2188" rx="2.5" ry="2.5" style="stroke:#181818;stroke-width:0.5;" width="114" x="2088" y="1275.6172"/><text fill="#000000" font-family="sans-serif" font-size="14" lengthAdjust="spacing" textLength="10" x="2140" y="1297.1504">lc</text><text fill="#000000" font-family="sans-serif" font-size="14" lengthAdjust="spacing" textLength="100" x="2095" y="1314.7598">:List&lt;Category&gt;</text><rect fill="#FFFFFF" height="1166.0078" style="stroke:#181818;stroke-width:1.0;" width="10" x="76" y="92.6094"/><rect fill="#FFFFFF" height="46.7031" style="stroke:#181818;stroke-width:1.0;" width="10" x="406" y="114.9609"/><rect fill="#FFFFFF" height="146.0547" style="stroke:#181818;stroke-width:1.0;" width="10" x="406" y="192.0156"/><rect fill="#FFFFFF" height="651.7344" style="stroke:#181818;stroke-width:1.0;" width="10" x="406" y="368.4219"/><rect fill="#FFFFFF" height="208.1094" style="stroke:#181818;stroke-width:1.0;" width="10" x="406" y="1050.5078"/><rect fill="#FFFFFF" height="60.3516" style="stroke:#181818;stroke-width:1.0;" width="10" x="910" y="222.3672"/><rect fill="#FFFFFF" height="621.3828" style="stroke:#181818;stroke-width:1.0;" width="10" x="910" y="398.7734"/><rect fill="#FFFFFF" height="177.7578" style="stroke:#181818;stroke-width:1.0;" width="10" x="910" y="1080.8594"/><rect fill="#FFFFFF" height="30" style="stroke:#181818;stroke-width:1.0;" width="10" x="1069" y="514.4766"/><rect fill="#FFFFFF" height="30" style="stroke:#181818;stroke-width:1.0;" width="10" x="1193" y="599.8281"/><rect fill="#FFFFFF" height="30" style="stroke:#181818;stroke-width:1.0;" width="10" x="1309.5" y="685.1797"/><rect fill="#FFFFFF" height="30" style="stroke:#181818;stroke-width:1.0;" width="10" x="1403" y="252.7188"/><rect fill="#FFFFFF" height="30" style="stroke:#181818;stroke-width:1.0;" width="10" x="1403" y="429.125"/><rect fill="#FFFFFF" height="30" style="stroke:#181818;stroke-width:1.0;" width="10" x="1403" y="770.5313"/><rect fill="#FFFFFF" height="164.2734" style="stroke:#181818;stroke-width:1.0;" width="10" x="1497" y="855.8828"/><rect fill="#FFFFFF" height="147.4063" style="stroke:#181818;stroke-width:1.0;" width="10" x="1497" y="1111.2109"/><polygon fill="#181818" points="394,110.9609,404,114.9609,394,118.9609,398,114.9609" style="stroke:#181818;stroke-width:1.0;"/><line style="stroke:#181818;stroke-width:1.0;" x1="86" x2="400" y1="114.9609" y2="114.9609"/><text fill="#000000" font-family="sans-serif" font-size="13" font-weight="bold" lengthAdjust="spacing" textLength="7" x="93" y="110.1045">1</text><text fill="#000000" font-family="sans-serif" font-size="13" lengthAdjust="spacing" textLength="150" x="104" y="110.1045">asks to create a new task</text><polygon fill="#181818" points="97,157.6641,87,161.6641,97,165.6641,93,161.6641" style="stroke:#181818;stroke-width:1.0;"/><line style="stroke:#181818;stroke-width:1.0;stroke-dasharray:2.0,2.0;" x1="91" x2="410" y1="161.6641" y2="161.6641"/><text fill="#000000" font-family="sans-serif" font-size="13" font-weight="bold" lengthAdjust="spacing" textLength="7" x="103" y="148.6318">2</text><text fill="#000000" font-family="sans-serif" font-size="13" lengthAdjust="spacing" textLength="271" x="114" y="140.4561">requests data (reference, designation,  informal</text><text fill="#000000" font-family="sans-serif" font-size="13" lengthAdjust="spacing" textLength="281" x="118" y="156.8076">description, technical description, duration, cost)</text><polygon fill="#181818" points="394,188.0156,404,192.0156,394,196.0156,398,192.0156" style="stroke:#181818;stroke-width:1.0;"/><line style="stroke:#181818;stroke-width:1.0;" x1="86" x2="400" y1="192.0156" y2="192.0156"/><text fill="#000000" font-family="sans-serif" font-size="13" font-weight="bold" lengthAdjust="spacing" textLength="7" x="93" y="187.1592">3</text><text fill="#000000" font-family="sans-serif" font-size="13" lengthAdjust="spacing" textLength="122" x="104" y="187.1592">types requested data</text><polygon fill="#181818" points="898,218.3672,908,222.3672,898,226.3672,902,222.3672" style="stroke:#181818;stroke-width:1.0;"/><line style="stroke:#181818;stroke-width:1.0;" x1="416" x2="904" y1="222.3672" y2="222.3672"/><text fill="#000000" font-family="sans-serif" font-size="13" font-weight="bold" lengthAdjust="spacing" textLength="7" x="423" y="217.5107">4</text><text fill="#000000" font-family="sans-serif" font-size="13" lengthAdjust="spacing" textLength="134" x="434" y="217.5107">lc=getTaskCategories()</text><polygon fill="#181818" points="1391,248.7188,1401,252.7188,1391,256.7188,1395,252.7188" style="stroke:#181818;stroke-width:1.0;"/><line style="stroke:#181818;stroke-width:1.0;" x1="920" x2="1397" y1="252.7188" y2="252.7188"/><text fill="#000000" font-family="sans-serif" font-size="13" font-weight="bold" lengthAdjust="spacing" textLength="7" x="927" y="247.8623">5</text><text fill="#000000" font-family="sans-serif" font-size="13" lengthAdjust="spacing" textLength="134" x="938" y="247.8623">lc=getTaskCategories()</text><polygon fill="#181818" points="97,334.0703,87,338.0703,97,342.0703,93,338.0703" style="stroke:#181818;stroke-width:1.0;"/><line style="stroke:#181818;stroke-width:1.0;stroke-dasharray:2.0,2.0;" x1="91" x2="410" y1="338.0703" y2="338.0703"/><text fill="#000000" font-family="sans-serif" font-size="13" font-weight="bold" lengthAdjust="spacing" textLength="7" x="103" y="333.2139">6</text><text fill="#000000" font-family="sans-serif" font-size="13" lengthAdjust="spacing" textLength="280" x="114" y="333.2139">shows task categories list and ask to select one</text><polygon fill="#181818" points="394,364.4219,404,368.4219,394,372.4219,398,368.4219" style="stroke:#181818;stroke-width:1.0;"/><line style="stroke:#181818;stroke-width:1.0;" x1="86" x2="400" y1="368.4219" y2="368.4219"/><text fill="#000000" font-family="sans-serif" font-size="13" font-weight="bold" lengthAdjust="spacing" textLength="7" x="93" y="363.5654">7</text><text fill="#000000" font-family="sans-serif" font-size="13" lengthAdjust="spacing" textLength="136" x="104" y="363.5654">selects a task category</text><polygon fill="#181818" points="898,394.7734,908,398.7734,898,402.7734,902,398.7734" style="stroke:#181818;stroke-width:1.0;"/><line style="stroke:#181818;stroke-width:1.0;" x1="416" x2="904" y1="398.7734" y2="398.7734"/><text fill="#000000" font-family="sans-serif" font-size="13" font-weight="bold" lengthAdjust="spacing" textLength="7" x="423" y="393.917">8</text><text fill="#000000" font-family="sans-serif" font-size="13" lengthAdjust="spacing" textLength="464" x="434" y="393.917">createTask(ref,designation,informalDesc,technicalDesc,duration,cost,categoryId)</text><polygon fill="#181818" points="1391,425.125,1401,429.125,1391,433.125,1395,429.125" style="stroke:#181818;stroke-width:1.0;"/><line style="stroke:#181818;stroke-width:1.0;" x1="920" x2="1397" y1="429.125" y2="429.125"/><text fill="#000000" font-family="sans-serif" font-size="13" font-weight="bold" lengthAdjust="spacing" textLength="7" x="927" y="424.2686">9</text><text fill="#000000" font-family="sans-serif" font-size="13" lengthAdjust="spacing" textLength="190" x="938" y="424.2686">cat=getCategoryById(categoryId)</text><polygon fill="#181818" points="1057,510.4766,1067,514.4766,1057,518.4766,1061,514.4766" style="stroke:#181818;stroke-width:1.0;"/><line style="stroke:#181818;stroke-width:1.0;" x1="920" x2="1063" y1="514.4766" y2="514.4766"/><text fill="#000000" font-family="sans-serif" font-size="13" font-weight="bold" lengthAdjust="spacing" textLength="14" x="927" y="509.6201">10</text><text fill="#000000" font-family="sans-serif" font-size="13" lengthAdjust="spacing" textLength="112" x="945" y="509.6201">app = getInstance()</text><polygon fill="#181818" points="1181,595.8281,1191,599.8281,1181,603.8281,1185,599.8281" style="stroke:#181818;stroke-width:1.0;"/><line style="stroke:#181818;stroke-width:1.0;" x1="920" x2="1187" y1="599.8281" y2="599.8281"/><text fill="#000000" font-family="sans-serif" font-size="13" font-weight="bold" lengthAdjust="spacing" textLength="14" x="927" y="594.9717">11</text><text fill="#000000" font-family="sans-serif" font-size="13" lengthAdjust="spacing" textLength="176" x="945" y="594.9717">session = getCurrentSession()</text><polygon fill="#181818" points="1297.5,681.1797,1307.5,685.1797,1297.5,689.1797,1301.5,685.1797" style="stroke:#181818;stroke-width:1.0;"/><line style="stroke:#181818;stroke-width:1.0;" x1="920" x2="1303.5" y1="685.1797" y2="685.1797"/><text fill="#000000" font-family="sans-serif" font-size="13" font-weight="bold" lengthAdjust="spacing" textLength="14" x="927" y="680.3232">12</text><text fill="#000000" font-family="sans-serif" font-size="13" lengthAdjust="spacing" textLength="133" x="945" y="680.3232">email = getUserEmail()</text><polygon fill="#181818" points="1391,766.5313,1401,770.5313,1391,774.5313,1395,770.5313" style="stroke:#181818;stroke-width:1.0;"/><line style="stroke:#181818;stroke-width:1.0;" x1="920" x2="1397" y1="770.5313" y2="770.5313"/><text fill="#000000" font-family="sans-serif" font-size="13" font-weight="bold" lengthAdjust="spacing" textLength="14" x="927" y="765.6748">13</text><text fill="#000000" font-family="sans-serif" font-size="13" lengthAdjust="spacing" textLength="240" x="945" y="765.6748">org = getOrganizationByUserEmail(email)</text><polygon fill="#181818" points="1485,851.8828,1495,855.8828,1485,859.8828,1489,855.8828" style="stroke:#181818;stroke-width:1.0;"/><line style="stroke:#181818;stroke-width:1.0;" x1="920" x2="1491" y1="855.8828" y2="855.8828"/><text fill="#000000" font-family="sans-serif" font-size="13" font-weight="bold" lengthAdjust="spacing" textLength="14" x="927" y="851.0264">14</text><text fill="#000000" font-family="sans-serif" font-size="13" lengthAdjust="spacing" textLength="455" x="945" y="851.0264">task=createTask(ref,designation,informalDesc,technicalDesc,duration,cost,cat)</text><polygon fill="#181818" points="1931,882.2344,1941,886.2344,1931,890.2344,1935,886.2344" style="stroke:#181818;stroke-width:1.0;"/><line style="stroke:#181818;stroke-width:1.0;stroke-dasharray:2.0,2.0;" x1="1507" x2="1937" y1="886.2344" y2="886.2344"/><text fill="#000000" font-family="sans-serif" font-size="13" font-weight="bold" lengthAdjust="spacing" textLength="14" x="1514" y="881.3779">15</text><text fill="#000000" font-family="sans-serif" font-size="13" lengthAdjust="spacing" textLength="394" x="1532" y="881.3779">create(ref,designation,informalDesc,technicalDesc,duration,cost,cat)</text><rect fill="#E2E2F0" height="49.2188" rx="2.5" ry="2.5" style="stroke:#181818;stroke-width:0.5;" width="49" x="1943" y="863.8828"/><text fill="#000000" font-family="sans-serif" font-size="14" lengthAdjust="spacing" textLength="26" x="1954.5" y="885.416">task</text><text fill="#000000" font-family="sans-serif" font-size="14" lengthAdjust="spacing" textLength="35" x="1950" y="903.0254">:Task</text><line style="stroke:#181818;stroke-width:1.0;" x1="1507" x2="1549" y1="946.4531" y2="946.4531"/><line style="stroke:#181818;stroke-width:1.0;" x1="1549" x2="1549" y1="946.4531" y2="959.4531"/><line style="stroke:#181818;stroke-width:1.0;" x1="1508" x2="1549" y1="959.4531" y2="959.4531"/><polygon fill="#181818" points="1518,955.4531,1508,959.4531,1518,963.4531,1514,959.4531" style="stroke:#181818;stroke-width:1.0;"/><text fill="#000000" font-family="sans-serif" font-size="13" font-weight="bold" lengthAdjust="spacing" textLength="14" x="1514" y="941.5967">16</text><text fill="#000000" font-family="sans-serif" font-size="13" lengthAdjust="spacing" textLength="104" x="1532" y="941.5967">validateTask(task)</text><polygon fill="#181818" points="427,985.8047,417,989.8047,427,993.8047,423,989.8047" style="stroke:#181818;stroke-width:1.0;"/><line style="stroke:#181818;stroke-width:1.0;stroke-dasharray:2.0,2.0;" x1="421" x2="909" y1="989.8047" y2="989.8047"/><text fill="#000000" font-family="sans-serif" font-size="13" font-weight="bold" lengthAdjust="spacing" textLength="14" x="433" y="984.9482">17</text><text fill="#000000" font-family="sans-serif" font-size="13" lengthAdjust="spacing" textLength="32" x="451" y="984.9482">result</text><polygon fill="#181818" points="97,1016.1563,87,1020.1563,97,1024.1563,93,1020.1563" style="stroke:#181818;stroke-width:1.0;"/><line style="stroke:#181818;stroke-width:1.0;stroke-dasharray:2.0,2.0;" x1="91" x2="410" y1="1020.1563" y2="1020.1563"/><text fill="#000000" font-family="sans-serif" font-size="13" font-weight="bold" lengthAdjust="spacing" textLength="14" x="103" y="1015.2998">18</text><text fill="#000000" font-family="sans-serif" font-size="13" lengthAdjust="spacing" textLength="236" x="121" y="1015.2998">shows all data and requests confirmation</text><polygon fill="#181818" points="394,1046.5078,404,1050.5078,394,1054.5078,398,1050.5078" style="stroke:#181818;stroke-width:1.0;"/><line style="stroke:#181818;stroke-width:1.0;" x1="86" x2="400" y1="1050.5078" y2="1050.5078"/><text fill="#000000" font-family="sans-serif" font-size="13" font-weight="bold" lengthAdjust="spacing" textLength="14" x="93" y="1045.6514">19</text><text fill="#000000" font-family="sans-serif" font-size="13" lengthAdjust="spacing" textLength="100" x="111" y="1045.6514">confirms the data</text><polygon fill="#181818" points="898,1076.8594,908,1080.8594,898,1084.8594,902,1080.8594" style="stroke:#181818;stroke-width:1.0;"/><line style="stroke:#181818;stroke-width:1.0;" x1="416" x2="904" y1="1080.8594" y2="1080.8594"/><text fill="#000000" font-family="sans-serif" font-size="13" font-weight="bold" lengthAdjust="spacing" textLength="14" x="423" y="1076.0029">20</text><text fill="#000000" font-family="sans-serif" font-size="13" lengthAdjust="spacing" textLength="62" x="441" y="1076.0029">saveTask()</text><polygon fill="#181818" points="1485,1107.2109,1495,1111.2109,1485,1115.2109,1489,1111.2109" style="stroke:#181818;stroke-width:1.0;"/><line style="stroke:#181818;stroke-width:1.0;" x1="920" x2="1491" y1="1111.2109" y2="1111.2109"/><text fill="#000000" font-family="sans-serif" font-size="13" font-weight="bold" lengthAdjust="spacing" textLength="14" x="927" y="1106.3545">21</text><text fill="#000000" font-family="sans-serif" font-size="13" lengthAdjust="spacing" textLength="87" x="945" y="1106.3545">saveTask(task)</text><line style="stroke:#181818;stroke-width:1.0;" x1="1507" x2="1549" y1="1141.5625" y2="1141.5625"/><line style="stroke:#181818;stroke-width:1.0;" x1="1549" x2="1549" y1="1141.5625" y2="1154.5625"/><line style="stroke:#181818;stroke-width:1.0;" x1="1508" x2="1549" y1="1154.5625" y2="1154.5625"/><polygon fill="#181818" points="1518,1150.5625,1508,1154.5625,1518,1158.5625,1514,1154.5625" style="stroke:#181818;stroke-width:1.0;"/><text fill="#000000" font-family="sans-serif" font-size="13" font-weight="bold" lengthAdjust="spacing" textLength="14" x="1514" y="1136.7061">22</text><text fill="#000000" font-family="sans-serif" font-size="13" lengthAdjust="spacing" textLength="104" x="1532" y="1136.7061">validateTask(task)</text><line style="stroke:#181818;stroke-width:1.0;" x1="1507" x2="1549" y1="1184.9141" y2="1184.9141"/><line style="stroke:#181818;stroke-width:1.0;" x1="1549" x2="1549" y1="1184.9141" y2="1197.9141"/><line style="stroke:#181818;stroke-width:1.0;" x1="1508" x2="1549" y1="1197.9141" y2="1197.9141"/><polygon fill="#181818" points="1518,1193.9141,1508,1197.9141,1518,1201.9141,1514,1197.9141" style="stroke:#181818;stroke-width:1.0;"/><text fill="#000000" font-family="sans-serif" font-size="13" font-weight="bold" lengthAdjust="spacing" textLength="14" x="1514" y="1180.0576">23</text><text fill="#000000" font-family="sans-serif" font-size="13" lengthAdjust="spacing" textLength="82" x="1532" y="1180.0576">addTask(task)</text><polygon fill="#181818" points="427,1224.2656,417,1228.2656,427,1232.2656,423,1228.2656" style="stroke:#181818;stroke-width:1.0;"/><line style="stroke:#181818;stroke-width:1.0;stroke-dasharray:2.0,2.0;" x1="421" x2="909" y1="1228.2656" y2="1228.2656"/><text fill="#000000" font-family="sans-serif" font-size="13" font-weight="bold" lengthAdjust="spacing" textLength="14" x="433" y="1223.4092">24</text><text fill="#000000" font-family="sans-serif" font-size="13" lengthAdjust="spacing" textLength="32" x="451" y="1223.4092">result</text><polygon fill="#181818" points="92,1254.6172,82,1258.6172,92,1262.6172,88,1258.6172" style="stroke:#181818;stroke-width:1.0;"/><line style="stroke:#181818;stroke-width:1.0;stroke-dasharray:2.0,2.0;" x1="86" x2="410" y1="1258.6172" y2="1258.6172"/><text fill="#000000" font-family="sans-serif" font-size="13" font-weight="bold" lengthAdjust="spacing" textLength="14" x="98" y="1253.7607">25</text><text fill="#000000" font-family="sans-serif" font-size="13" lengthAdjust="spacing" textLength="152" x="116" y="1253.7607">informs operation success</text><!--MD5=[1cc994ce2d4f83053323539a4e0f58d0]
@startuml
autonumber
'hide footbox
actor "Organization Employee" as ADM

participant ":CreateTaskUI" as UI
participant ":CreateTaskController" as CTRL
participant "ApplicationPOT" as _APP
participant "app\n:ApplicationPOT" as APP
participant "session\n:UserSession" as SESSAO
participant ":Platform" as PLAT
participant "org\n:Organization" as ORG
participant "task\n:Task" as TAREFA
participant "cat\n:Category" as CAT
participant "lc\n:List<Category>" as LIST_CAT

activate ADM
ADM -> UI : asks to create a new task
activate UI
UI - -> ADM : requests data (reference, designation,  informal \n description, technical description, duration, cost)
deactivate UI

ADM -> UI : types requested data
activate UI

UI -> CTRL : lc=getTaskCategories()
activate CTRL

CTRL -> PLAT : lc=getTaskCategories()
activate PLAT
|||
deactivate PLAT
deactivate CTRL

UI - -> ADM : shows task categories list and ask to select one
deactivate PLAT
deactivate UI

ADM -> UI : selects a task category
activate UI

UI -> CTRL : createTask(ref,designation,informalDesc,technicalDesc,duration,cost,categoryId)
activate CTRL

CTRL -> PLAT : cat=getCategoryById(categoryId)
activate PLAT
|||
deactivate PLAT

CTRL -> _APP: app = getInstance()
activate _APP
|||
deactivate _APP

CTRL -> APP: session = getCurrentSession()
activate APP
|||
deactivate APP

CTRL -> SESSAO: email = getUserEmail()
activate SESSAO
|||
deactivate SESSAO

CTRL -> PLAT: org = getOrganizationByUserEmail(email)
activate PLAT
|||
deactivate PLAT

CTRL -> ORG: task=createTask(ref,designation,informalDesc,technicalDesc,duration,cost,cat)
activate ORG

ORG - -> TAREFA**: create(ref,designation,informalDesc,technicalDesc,duration,cost,cat)
ORG -> ORG: validateTask(task)

CTRL - -> UI: result

UI - -> ADM: shows all data and requests confirmation
deactivate ORG
deactivate PLAT
deactivate CTRL
deactivate UI

ADM -> UI : confirms the data
activate UI
UI -> CTRL : saveTask()
activate CTRL

CTRL -> ORG : saveTask(task)
activate ORG

ORG -> ORG: validateTask(task)
ORG -> ORG: addTask(task)

CTRL - -> UI: result

UI - -> ADM : informs operation success
deactivate ORG
deactivate CTRL
deactivate UI

deactivate ADM

@enduml

@startuml
autonumber
actor "Organization Employee" as ADM

participant ":CreateTaskUI" as UI
participant ":CreateTaskController" as CTRL
participant "ApplicationPOT" as _APP
participant "app\n:ApplicationPOT" as APP
participant "session\n:UserSession" as SESSAO
participant ":Platform" as PLAT
participant "org\n:Organization" as ORG
participant "task\n:Task" as TAREFA
participant "cat\n:Category" as CAT
participant "lc\n:List<Category>" as LIST_CAT

activate ADM
ADM -> UI : asks to create a new task
activate UI
UI - -> ADM : requests data (reference, designation,  informal \n description, technical description, duration, cost)
deactivate UI

ADM -> UI : types requested data
activate UI

UI -> CTRL : lc=getTaskCategories()
activate CTRL

CTRL -> PLAT : lc=getTaskCategories()
activate PLAT
|||
deactivate PLAT
deactivate CTRL

UI - -> ADM : shows task categories list and ask to select one
deactivate PLAT
deactivate UI

ADM -> UI : selects a task category
activate UI

UI -> CTRL : createTask(ref,designation,informalDesc,technicalDesc,duration,cost,categoryId)
activate CTRL

CTRL -> PLAT : cat=getCategoryById(categoryId)
activate PLAT
|||
deactivate PLAT

CTRL -> _APP: app = getInstance()
activate _APP
|||
deactivate _APP

CTRL -> APP: session = getCurrentSession()
activate APP
|||
deactivate APP

CTRL -> SESSAO: email = getUserEmail()
activate SESSAO
|||
deactivate SESSAO

CTRL -> PLAT: org = getOrganizationByUserEmail(email)
activate PLAT
|||
deactivate PLAT

CTRL -> ORG: task=createTask(ref,designation,informalDesc,technicalDesc,duration,cost,cat)
activate ORG

ORG - -> TAREFA**: create(ref,designation,informalDesc,technicalDesc,duration,cost,cat)
ORG -> ORG: validateTask(task)

CTRL - -> UI: result

UI - -> ADM: shows all data and requests confirmation
deactivate ORG
deactivate PLAT
deactivate CTRL
deactivate UI

ADM -> UI : confirms the data
activate UI
UI -> CTRL : saveTask()
activate CTRL

CTRL -> ORG : saveTask(task)
activate ORG

ORG -> ORG: validateTask(task)
ORG -> ORG: addTask(task)

CTRL - -> UI: result

UI - -> ADM : informs operation success
deactivate ORG
deactivate CTRL
deactivate UI

deactivate ADM

@enduml

PlantUML version 1.2022.5(Sat Apr 30 11:55:52 BST 2022)
(GPL source distribution)
Java Runtime: OpenJDK Runtime Environment
JVM: OpenJDK 64-Bit Server VM
Default Encoding: Cp1252
Language: en
Country: US
--></g></svg>