<?xml version="1.0" encoding="UTF-8" standalone="no"?><svg xmlns="http://www.w3.org/2000/svg" xmlns:xlink="http://www.w3.org/1999/xlink" contentStyleType="text/css" height="1524px" preserveAspectRatio="none" style="width:2430px;height:1524px;background:#FFFFFF;" version="1.1" viewBox="0 0 2430 1524" width="2430px" zoomAndPan="magnify"><defs/><g><!--MD5=[72be06cc7ae02ccc98efe28a50e62246]
class SNSUser--><g id="elem_SNSUser"><rect codeLine="2" fill="#F1F1F1" height="48" id="SNSUser" rx="2.5" ry="2.5" style="stroke:#181818;stroke-width:0.5;" width="88" x="637.7466" y="668"/><ellipse cx="652.7466" cy="684" fill="#ADD1B2" rx="11" ry="11" style="stroke:#181818;stroke-width:1.0;"/><path d="M654.7466,680.5 Q654.9497,680 655.1841,679.75 Q655.4185,679.5 655.6841,679.5 Q656.1529,679.5 656.4497,679.7813 Q656.7466,680.0625 656.7466,680.7188 L656.7466,682.2813 Q656.7466,682.9375 656.4654,683.2188 Q656.1841,683.5 655.7466,683.5 Q655.356,683.5 655.106,683.3281 Q654.856,683.1563 654.7466,682.7031 Q654.6997,682.3906 654.5279,682.2188 Q654.2154,681.8906 653.6529,681.7031 Q653.0904,681.5 652.5279,681.5 Q651.8247,681.5 651.231,681.7813 Q650.6529,682.0625 650.1997,682.6875 Q649.7466,683.3125 649.7466,684.1719 L649.7466,685.0938 Q649.7466,686.125 650.5904,686.8125 Q651.4341,687.5 652.9341,687.5 Q653.8247,687.5 654.4497,687.2969 Q654.8091,687.1875 655.2154,686.8281 Q655.481,686.625 655.6216,686.5625 Q655.7622,686.5 655.9341,686.5 Q656.2622,686.5 656.4966,686.7656 Q656.7466,687.0156 656.7466,687.375 Q656.7466,687.7188 656.4029,688.125 Q655.9029,688.7188 655.106,689.0469 Q654.0591,689.5 652.7779,689.5 Q651.2779,689.5 650.0747,688.9063 Q649.106,688.4375 648.4185,687.4219 Q647.7466,686.4063 647.7466,685.2031 L647.7466,684.1094 Q647.7466,682.8594 648.3404,681.7656 Q648.9497,680.6719 649.9966,680.0938 Q651.0591,679.5 652.2466,679.5 Q652.9654,679.5 653.5904,679.75 Q654.2154,680 654.7466,680.5 Z " fill="#000000"/><text fill="#000000" font-family="sans-serif" font-size="14" lengthAdjust="spacing" textLength="56" x="666.7466" y="689.7285">SNSUser</text><line style="stroke:#181818;stroke-width:0.5;" x1="638.7466" x2="724.7466" y1="700" y2="700"/><line style="stroke:#181818;stroke-width:0.5;" x1="638.7466" x2="724.7466" y1="708" y2="708"/></g><!--MD5=[0e501da62322464167c8ec4d233a6b7e]
class VaccineType--><g id="elem_VaccineType"><rect codeLine="3" fill="#F1F1F1" height="100.8281" id="VaccineType" rx="2.5" ry="2.5" style="stroke:#181818;stroke-width:0.5;" width="123" x="943.2466" y="1417"/><ellipse cx="962.2966" cy="1433" fill="#ADD1B2" rx="11" ry="11" style="stroke:#181818;stroke-width:1.0;"/><path d="M964.2966,1429.5 Q964.4997,1429 964.7341,1428.75 Q964.9685,1428.5 965.2341,1428.5 Q965.7029,1428.5 965.9997,1428.7813 Q966.2966,1429.0625 966.2966,1429.7188 L966.2966,1431.2813 Q966.2966,1431.9375 966.0154,1432.2188 Q965.7341,1432.5 965.2966,1432.5 Q964.906,1432.5 964.656,1432.3281 Q964.406,1432.1563 964.2966,1431.7031 Q964.2497,1431.3906 964.0779,1431.2188 Q963.7654,1430.8906 963.2029,1430.7031 Q962.6404,1430.5 962.0779,1430.5 Q961.3747,1430.5 960.781,1430.7813 Q960.2029,1431.0625 959.7497,1431.6875 Q959.2966,1432.3125 959.2966,1433.1719 L959.2966,1434.0938 Q959.2966,1435.125 960.1404,1435.8125 Q960.9841,1436.5 962.4841,1436.5 Q963.3747,1436.5 963.9997,1436.2969 Q964.3591,1436.1875 964.7654,1435.8281 Q965.031,1435.625 965.1716,1435.5625 Q965.3122,1435.5 965.4841,1435.5 Q965.8122,1435.5 966.0466,1435.7656 Q966.2966,1436.0156 966.2966,1436.375 Q966.2966,1436.7188 965.9529,1437.125 Q965.4529,1437.7188 964.656,1438.0469 Q963.6091,1438.5 962.3279,1438.5 Q960.8279,1438.5 959.6247,1437.9063 Q958.656,1437.4375 957.9685,1436.4219 Q957.2966,1435.4063 957.2966,1434.2031 L957.2966,1433.1094 Q957.2966,1431.8594 957.8904,1430.7656 Q958.4997,1429.6719 959.5466,1429.0938 Q960.6091,1428.5 961.7966,1428.5 Q962.5154,1428.5 963.1404,1428.75 Q963.7654,1429 964.2966,1429.5 Z " fill="#000000"/><text fill="#000000" font-family="sans-serif" font-size="14" lengthAdjust="spacing" textLength="82" x="977.1966" y="1438.7285">VaccineType</text><line style="stroke:#181818;stroke-width:0.5;" x1="944.2466" x2="1065.2466" y1="1449" y2="1449"/><rect fill="none" height="6" style="stroke:#C82930;stroke-width:1.0;" width="6" x="951.2466" y="1457"/><text fill="#000000" font-family="sans-serif" font-size="14" lengthAdjust="spacing" textLength="64" x="963.2466" y="1467.5332">ageGroup</text><rect fill="none" height="6" style="stroke:#C82930;stroke-width:1.0;" width="6" x="951.2466" y="1474.6094"/><text fill="#000000" font-family="sans-serif" font-size="14" lengthAdjust="spacing" textLength="31" x="963.2466" y="1485.1426">dose</text><rect fill="none" height="6" style="stroke:#C82930;stroke-width:1.0;" width="6" x="951.2466" y="1492.2188"/><text fill="#000000" font-family="sans-serif" font-size="14" lengthAdjust="spacing" textLength="97" x="963.2466" y="1502.752">vaccineDosage</text><line style="stroke:#181818;stroke-width:0.5;" x1="944.2466" x2="1065.2466" y1="1509.8281" y2="1509.8281"/></g><!--MD5=[19e445fc4d3b48519cbe33da05496394]
class Vaccine--><g id="elem_Vaccine"><rect codeLine="8" fill="#F1F1F1" height="48" id="Vaccine" rx="2.5" ry="2.5" style="stroke:#181818;stroke-width:0.5;" width="82" x="1285.7466" y="953"/><ellipse cx="1300.7466" cy="969" fill="#ADD1B2" rx="11" ry="11" style="stroke:#181818;stroke-width:1.0;"/><path d="M1302.7466,965.5 Q1302.9497,965 1303.1841,964.75 Q1303.4185,964.5 1303.6841,964.5 Q1304.1529,964.5 1304.4497,964.7813 Q1304.7466,965.0625 1304.7466,965.7188 L1304.7466,967.2813 Q1304.7466,967.9375 1304.4654,968.2188 Q1304.1841,968.5 1303.7466,968.5 Q1303.356,968.5 1303.106,968.3281 Q1302.856,968.1563 1302.7466,967.7031 Q1302.6997,967.3906 1302.5279,967.2188 Q1302.2154,966.8906 1301.6529,966.7031 Q1301.0904,966.5 1300.5279,966.5 Q1299.8247,966.5 1299.231,966.7813 Q1298.6529,967.0625 1298.1997,967.6875 Q1297.7466,968.3125 1297.7466,969.1719 L1297.7466,970.0938 Q1297.7466,971.125 1298.5904,971.8125 Q1299.4341,972.5 1300.9341,972.5 Q1301.8247,972.5 1302.4497,972.2969 Q1302.8091,972.1875 1303.2154,971.8281 Q1303.481,971.625 1303.6216,971.5625 Q1303.7622,971.5 1303.9341,971.5 Q1304.2622,971.5 1304.4966,971.7656 Q1304.7466,972.0156 1304.7466,972.375 Q1304.7466,972.7188 1304.4029,973.125 Q1303.9029,973.7188 1303.106,974.0469 Q1302.0591,974.5 1300.7779,974.5 Q1299.2779,974.5 1298.0747,973.9063 Q1297.106,973.4375 1296.4185,972.4219 Q1295.7466,971.4063 1295.7466,970.2031 L1295.7466,969.1094 Q1295.7466,967.8594 1296.3404,966.7656 Q1296.9497,965.6719 1297.9966,965.0938 Q1299.0591,964.5 1300.2466,964.5 Q1300.9654,964.5 1301.5904,964.75 Q1302.2154,965 1302.7466,965.5 Z " fill="#000000"/><text fill="#000000" font-family="sans-serif" font-size="14" lengthAdjust="spacing" textLength="50" x="1314.7466" y="974.7285">Vaccine</text><line style="stroke:#181818;stroke-width:0.5;" x1="1286.7466" x2="1366.7466" y1="985" y2="985"/><line style="stroke:#181818;stroke-width:0.5;" x1="1286.7466" x2="1366.7466" y1="993" y2="993"/></g><!--MD5=[7421f545a0d8420c5bec41e74b387d9c]
class Employee--><g id="elem_Employee"><rect codeLine="9" fill="#F1F1F1" height="48" id="Employee" rx="2.5" ry="2.5" style="stroke:#181818;stroke-width:0.5;" width="94" x="1759.7466" y="1185"/><ellipse cx="1774.7466" cy="1201" fill="#ADD1B2" rx="11" ry="11" style="stroke:#181818;stroke-width:1.0;"/><path d="M1776.7466,1197.5 Q1776.9497,1197 1777.1841,1196.75 Q1777.4185,1196.5 1777.6841,1196.5 Q1778.1529,1196.5 1778.4497,1196.7813 Q1778.7466,1197.0625 1778.7466,1197.7188 L1778.7466,1199.2813 Q1778.7466,1199.9375 1778.4654,1200.2188 Q1778.1841,1200.5 1777.7466,1200.5 Q1777.356,1200.5 1777.106,1200.3281 Q1776.856,1200.1563 1776.7466,1199.7031 Q1776.6997,1199.3906 1776.5279,1199.2188 Q1776.2154,1198.8906 1775.6529,1198.7031 Q1775.0904,1198.5 1774.5279,1198.5 Q1773.8247,1198.5 1773.231,1198.7813 Q1772.6529,1199.0625 1772.1997,1199.6875 Q1771.7466,1200.3125 1771.7466,1201.1719 L1771.7466,1202.0938 Q1771.7466,1203.125 1772.5904,1203.8125 Q1773.4341,1204.5 1774.9341,1204.5 Q1775.8247,1204.5 1776.4497,1204.2969 Q1776.8091,1204.1875 1777.2154,1203.8281 Q1777.481,1203.625 1777.6216,1203.5625 Q1777.7622,1203.5 1777.9341,1203.5 Q1778.2622,1203.5 1778.4966,1203.7656 Q1778.7466,1204.0156 1778.7466,1204.375 Q1778.7466,1204.7188 1778.4029,1205.125 Q1777.9029,1205.7188 1777.106,1206.0469 Q1776.0591,1206.5 1774.7779,1206.5 Q1773.2779,1206.5 1772.0747,1205.9063 Q1771.106,1205.4375 1770.4185,1204.4219 Q1769.7466,1203.4063 1769.7466,1202.2031 L1769.7466,1201.1094 Q1769.7466,1199.8594 1770.3404,1198.7656 Q1770.9497,1197.6719 1771.9966,1197.0938 Q1773.0591,1196.5 1774.2466,1196.5 Q1774.9654,1196.5 1775.5904,1196.75 Q1776.2154,1197 1776.7466,1197.5 Z " fill="#000000"/><text fill="#000000" font-family="sans-serif" font-size="14" lengthAdjust="spacing" textLength="62" x="1788.7466" y="1206.7285">Employee</text><line style="stroke:#181818;stroke-width:0.5;" x1="1760.7466" x2="1852.7466" y1="1217" y2="1217"/><line style="stroke:#181818;stroke-width:0.5;" x1="1760.7466" x2="1852.7466" y1="1225" y2="1225"/></g><!--MD5=[db6d18d8099558415abc41d00477ab92]
class Admin--><g id="elem_Admin"><rect codeLine="10" fill="#F1F1F1" height="48" id="Admin" rx="2.5" ry="2.5" style="stroke:#181818;stroke-width:0.5;" width="71" x="1473.2466" y="7"/><ellipse cx="1488.2466" cy="23" fill="#ADD1B2" rx="11" ry="11" style="stroke:#181818;stroke-width:1.0;"/><path d="M1490.2466,19.5 Q1490.4497,19 1490.6841,18.75 Q1490.9185,18.5 1491.1841,18.5 Q1491.6529,18.5 1491.9497,18.7813 Q1492.2466,19.0625 1492.2466,19.7188 L1492.2466,21.2813 Q1492.2466,21.9375 1491.9654,22.2188 Q1491.6841,22.5 1491.2466,22.5 Q1490.856,22.5 1490.606,22.3281 Q1490.356,22.1563 1490.2466,21.7031 Q1490.1997,21.3906 1490.0279,21.2188 Q1489.7154,20.8906 1489.1529,20.7031 Q1488.5904,20.5 1488.0279,20.5 Q1487.3247,20.5 1486.731,20.7813 Q1486.1529,21.0625 1485.6997,21.6875 Q1485.2466,22.3125 1485.2466,23.1719 L1485.2466,24.0938 Q1485.2466,25.125 1486.0904,25.8125 Q1486.9341,26.5 1488.4341,26.5 Q1489.3247,26.5 1489.9497,26.2969 Q1490.3091,26.1875 1490.7154,25.8281 Q1490.981,25.625 1491.1216,25.5625 Q1491.2622,25.5 1491.4341,25.5 Q1491.7622,25.5 1491.9966,25.7656 Q1492.2466,26.0156 1492.2466,26.375 Q1492.2466,26.7188 1491.9029,27.125 Q1491.4029,27.7188 1490.606,28.0469 Q1489.5591,28.5 1488.2779,28.5 Q1486.7779,28.5 1485.5747,27.9063 Q1484.606,27.4375 1483.9185,26.4219 Q1483.2466,25.4063 1483.2466,24.2031 L1483.2466,23.1094 Q1483.2466,21.8594 1483.8404,20.7656 Q1484.4497,19.6719 1485.4966,19.0938 Q1486.5591,18.5 1487.7466,18.5 Q1488.4654,18.5 1489.0904,18.75 Q1489.7154,19 1490.2466,19.5 Z " fill="#000000"/><text fill="#000000" font-family="sans-serif" font-size="14" lengthAdjust="spacing" textLength="39" x="1502.2466" y="28.7285">Admin</text><line style="stroke:#181818;stroke-width:0.5;" x1="1474.2466" x2="1543.2466" y1="39" y2="39"/><line style="stroke:#181818;stroke-width:0.5;" x1="1474.2466" x2="1543.2466" y1="47" y2="47"/></g><!--MD5=[1db03e903fe0a044a2ca0dcbef10799a]
class HealthCareCenter--><g id="elem_HealthCareCenter"><rect codeLine="11" fill="#F1F1F1" height="48" id="HealthCareCenter" rx="2.5" ry="2.5" style="stroke:#181818;stroke-width:0.5;" width="146" x="970.7466" y="953"/><ellipse cx="985.7466" cy="969" fill="#ADD1B2" rx="11" ry="11" style="stroke:#181818;stroke-width:1.0;"/><path d="M987.7466,965.5 Q987.9497,965 988.1841,964.75 Q988.4185,964.5 988.6841,964.5 Q989.1529,964.5 989.4497,964.7813 Q989.7466,965.0625 989.7466,965.7188 L989.7466,967.2813 Q989.7466,967.9375 989.4654,968.2188 Q989.1841,968.5 988.7466,968.5 Q988.356,968.5 988.106,968.3281 Q987.856,968.1563 987.7466,967.7031 Q987.6997,967.3906 987.5279,967.2188 Q987.2154,966.8906 986.6529,966.7031 Q986.0904,966.5 985.5279,966.5 Q984.8247,966.5 984.231,966.7813 Q983.6529,967.0625 983.1997,967.6875 Q982.7466,968.3125 982.7466,969.1719 L982.7466,970.0938 Q982.7466,971.125 983.5904,971.8125 Q984.4341,972.5 985.9341,972.5 Q986.8247,972.5 987.4497,972.2969 Q987.8091,972.1875 988.2154,971.8281 Q988.481,971.625 988.6216,971.5625 Q988.7622,971.5 988.9341,971.5 Q989.2622,971.5 989.4966,971.7656 Q989.7466,972.0156 989.7466,972.375 Q989.7466,972.7188 989.4029,973.125 Q988.9029,973.7188 988.106,974.0469 Q987.0591,974.5 985.7779,974.5 Q984.2779,974.5 983.0747,973.9063 Q982.106,973.4375 981.4185,972.4219 Q980.7466,971.4063 980.7466,970.2031 L980.7466,969.1094 Q980.7466,967.8594 981.3404,966.7656 Q981.9497,965.6719 982.9966,965.0938 Q984.0591,964.5 985.2466,964.5 Q985.9654,964.5 986.5904,964.75 Q987.2154,965 987.7466,965.5 Z " fill="#000000"/><text fill="#000000" font-family="sans-serif" font-size="14" lengthAdjust="spacing" textLength="114" x="999.7466" y="974.7285">HealthCareCenter</text><line style="stroke:#181818;stroke-width:0.5;" x1="971.7466" x2="1115.7466" y1="985" y2="985"/><line style="stroke:#181818;stroke-width:0.5;" x1="971.7466" x2="1115.7466" y1="993" y2="993"/></g><!--MD5=[f44bde12c85835f4e3e4c64f18a8c09c]
class ARS--><g id="elem_ARS"><rect codeLine="12" fill="#F1F1F1" height="48" id="ARS" rx="2.5" ry="2.5" style="stroke:#181818;stroke-width:0.5;" width="60" x="1013.7466" y="1185"/><ellipse cx="1028.7466" cy="1201" fill="#ADD1B2" rx="11" ry="11" style="stroke:#181818;stroke-width:1.0;"/><path d="M1030.7466,1197.5 Q1030.9497,1197 1031.1841,1196.75 Q1031.4185,1196.5 1031.6841,1196.5 Q1032.1529,1196.5 1032.4497,1196.7813 Q1032.7466,1197.0625 1032.7466,1197.7188 L1032.7466,1199.2813 Q1032.7466,1199.9375 1032.4654,1200.2188 Q1032.1841,1200.5 1031.7466,1200.5 Q1031.356,1200.5 1031.106,1200.3281 Q1030.856,1200.1563 1030.7466,1199.7031 Q1030.6997,1199.3906 1030.5279,1199.2188 Q1030.2154,1198.8906 1029.6529,1198.7031 Q1029.0904,1198.5 1028.5279,1198.5 Q1027.8247,1198.5 1027.231,1198.7813 Q1026.6529,1199.0625 1026.1997,1199.6875 Q1025.7466,1200.3125 1025.7466,1201.1719 L1025.7466,1202.0938 Q1025.7466,1203.125 1026.5904,1203.8125 Q1027.4341,1204.5 1028.9341,1204.5 Q1029.8247,1204.5 1030.4497,1204.2969 Q1030.8091,1204.1875 1031.2154,1203.8281 Q1031.481,1203.625 1031.6216,1203.5625 Q1031.7622,1203.5 1031.9341,1203.5 Q1032.2622,1203.5 1032.4966,1203.7656 Q1032.7466,1204.0156 1032.7466,1204.375 Q1032.7466,1204.7188 1032.4029,1205.125 Q1031.9029,1205.7188 1031.106,1206.0469 Q1030.0591,1206.5 1028.7779,1206.5 Q1027.2779,1206.5 1026.0747,1205.9063 Q1025.106,1205.4375 1024.4185,1204.4219 Q1023.7466,1203.4063 1023.7466,1202.2031 L1023.7466,1201.1094 Q1023.7466,1199.8594 1024.3404,1198.7656 Q1024.9497,1197.6719 1025.9966,1197.0938 Q1027.0591,1196.5 1028.2466,1196.5 Q1028.9654,1196.5 1029.5904,1196.75 Q1030.2154,1197 1030.7466,1197.5 Z " fill="#000000"/><text fill="#000000" font-family="sans-serif" font-size="14" lengthAdjust="spacing" textLength="28" x="1042.7466" y="1206.7285">ARS</text><line style="stroke:#181818;stroke-width:0.5;" x1="1014.7466" x2="1072.7466" y1="1217" y2="1217"/><line style="stroke:#181818;stroke-width:0.5;" x1="1014.7466" x2="1072.7466" y1="1225" y2="1225"/></g><!--MD5=[3d99830c51f2312653ffa5f597e45238]
class AGES--><g id="elem_AGES"><rect codeLine="13" fill="#F1F1F1" height="48" id="AGES" rx="2.5" ry="2.5" style="stroke:#181818;stroke-width:0.5;" width="70" x="833.7466" y="1185"/><ellipse cx="848.7466" cy="1201" fill="#ADD1B2" rx="11" ry="11" style="stroke:#181818;stroke-width:1.0;"/><path d="M850.7466,1197.5 Q850.9497,1197 851.1841,1196.75 Q851.4185,1196.5 851.6841,1196.5 Q852.1529,1196.5 852.4497,1196.7813 Q852.7466,1197.0625 852.7466,1197.7188 L852.7466,1199.2813 Q852.7466,1199.9375 852.4654,1200.2188 Q852.1841,1200.5 851.7466,1200.5 Q851.356,1200.5 851.106,1200.3281 Q850.856,1200.1563 850.7466,1199.7031 Q850.6997,1199.3906 850.5279,1199.2188 Q850.2154,1198.8906 849.6529,1198.7031 Q849.0904,1198.5 848.5279,1198.5 Q847.8247,1198.5 847.231,1198.7813 Q846.6529,1199.0625 846.1997,1199.6875 Q845.7466,1200.3125 845.7466,1201.1719 L845.7466,1202.0938 Q845.7466,1203.125 846.5904,1203.8125 Q847.4341,1204.5 848.9341,1204.5 Q849.8247,1204.5 850.4497,1204.2969 Q850.8091,1204.1875 851.2154,1203.8281 Q851.481,1203.625 851.6216,1203.5625 Q851.7622,1203.5 851.9341,1203.5 Q852.2622,1203.5 852.4966,1203.7656 Q852.7466,1204.0156 852.7466,1204.375 Q852.7466,1204.7188 852.4029,1205.125 Q851.9029,1205.7188 851.106,1206.0469 Q850.0591,1206.5 848.7779,1206.5 Q847.2779,1206.5 846.0747,1205.9063 Q845.106,1205.4375 844.4185,1204.4219 Q843.7466,1203.4063 843.7466,1202.2031 L843.7466,1201.1094 Q843.7466,1199.8594 844.3404,1198.7656 Q844.9497,1197.6719 845.9966,1197.0938 Q847.0591,1196.5 848.2466,1196.5 Q848.9654,1196.5 849.5904,1196.75 Q850.2154,1197 850.7466,1197.5 Z " fill="#000000"/><text fill="#000000" font-family="sans-serif" font-size="14" lengthAdjust="spacing" textLength="38" x="862.7466" y="1206.7285">AGES</text><line style="stroke:#181818;stroke-width:0.5;" x1="834.7466" x2="902.7466" y1="1217" y2="1217"/><line style="stroke:#181818;stroke-width:0.5;" x1="834.7466" x2="902.7466" y1="1225" y2="1225"/></g><!--MD5=[de60e6d4f424ae4d0522096f76a59010]
class VaccinationCenter--><g id="elem_VaccinationCenter"><rect codeLine="14" fill="#F1F1F1" height="241.7031" id="VaccinationCenter" rx="2.5" ry="2.5" style="stroke:#181818;stroke-width:0.5;" width="148" x="1252.7466" y="571"/><ellipse cx="1267.7466" cy="587" fill="#ADD1B2" rx="11" ry="11" style="stroke:#181818;stroke-width:1.0;"/><path d="M1269.7466,583.5 Q1269.9497,583 1270.1841,582.75 Q1270.4185,582.5 1270.6841,582.5 Q1271.1529,582.5 1271.4497,582.7813 Q1271.7466,583.0625 1271.7466,583.7188 L1271.7466,585.2813 Q1271.7466,585.9375 1271.4654,586.2188 Q1271.1841,586.5 1270.7466,586.5 Q1270.356,586.5 1270.106,586.3281 Q1269.856,586.1563 1269.7466,585.7031 Q1269.6997,585.3906 1269.5279,585.2188 Q1269.2154,584.8906 1268.6529,584.7031 Q1268.0904,584.5 1267.5279,584.5 Q1266.8247,584.5 1266.231,584.7813 Q1265.6529,585.0625 1265.1997,585.6875 Q1264.7466,586.3125 1264.7466,587.1719 L1264.7466,588.0938 Q1264.7466,589.125 1265.5904,589.8125 Q1266.4341,590.5 1267.9341,590.5 Q1268.8247,590.5 1269.4497,590.2969 Q1269.8091,590.1875 1270.2154,589.8281 Q1270.481,589.625 1270.6216,589.5625 Q1270.7622,589.5 1270.9341,589.5 Q1271.2622,589.5 1271.4966,589.7656 Q1271.7466,590.0156 1271.7466,590.375 Q1271.7466,590.7188 1271.4029,591.125 Q1270.9029,591.7188 1270.106,592.0469 Q1269.0591,592.5 1267.7779,592.5 Q1266.2779,592.5 1265.0747,591.9063 Q1264.106,591.4375 1263.4185,590.4219 Q1262.7466,589.4063 1262.7466,588.2031 L1262.7466,587.1094 Q1262.7466,585.8594 1263.3404,584.7656 Q1263.9497,583.6719 1264.9966,583.0938 Q1266.0591,582.5 1267.2466,582.5 Q1267.9654,582.5 1268.5904,582.75 Q1269.2154,583 1269.7466,583.5 Z " fill="#000000"/><text fill="#000000" font-family="sans-serif" font-size="14" lengthAdjust="spacing" textLength="116" x="1281.7466" y="592.7285">VaccinationCenter</text><line style="stroke:#181818;stroke-width:0.5;" x1="1253.7466" x2="1399.7466" y1="603" y2="603"/><rect fill="none" height="6" style="stroke:#C82930;stroke-width:1.0;" width="6" x="1260.7466" y="611"/><text fill="#000000" font-family="sans-serif" font-size="14" lengthAdjust="spacing" textLength="35" x="1272.7466" y="621.5332">name</text><rect fill="none" height="6" style="stroke:#C82930;stroke-width:1.0;" width="6" x="1260.7466" y="628.6094"/><text fill="#000000" font-family="sans-serif" font-size="14" lengthAdjust="spacing" textLength="51" x="1272.7466" y="639.1426">address</text><rect fill="none" height="6" style="stroke:#C82930;stroke-width:1.0;" width="6" x="1260.7466" y="646.2188"/><text fill="#000000" font-family="sans-serif" font-size="14" lengthAdjust="spacing" textLength="85" x="1272.7466" y="656.752">emailAddress</text><rect fill="none" height="6" style="stroke:#C82930;stroke-width:1.0;" width="6" x="1260.7466" y="663.8281"/><text fill="#000000" font-family="sans-serif" font-size="14" lengthAdjust="spacing" textLength="89" x="1272.7466" y="674.3613">phoneNumber</text><rect fill="none" height="6" style="stroke:#C82930;stroke-width:1.0;" width="6" x="1260.7466" y="681.4375"/><text fill="#000000" font-family="sans-serif" font-size="14" lengthAdjust="spacing" textLength="67" x="1272.7466" y="691.9707">faxNumber</text><rect fill="none" height="6" style="stroke:#C82930;stroke-width:1.0;" width="6" x="1260.7466" y="699.0469"/><text fill="#000000" font-family="sans-serif" font-size="14" lengthAdjust="spacing" textLength="99" x="1272.7466" y="709.5801">websiteAddress</text><rect fill="none" height="6" style="stroke:#C82930;stroke-width:1.0;" width="6" x="1260.7466" y="716.6563"/><text fill="#000000" font-family="sans-serif" font-size="14" lengthAdjust="spacing" textLength="88" x="1272.7466" y="727.1895">openingHours</text><rect fill="none" height="6" style="stroke:#C82930;stroke-width:1.0;" width="6" x="1260.7466" y="734.2656"/><text fill="#000000" font-family="sans-serif" font-size="14" lengthAdjust="spacing" textLength="81" x="1272.7466" y="744.7988">closingHours</text><rect fill="none" height="6" style="stroke:#C82930;stroke-width:1.0;" width="6" x="1260.7466" y="751.875"/><text fill="#000000" font-family="sans-serif" font-size="14" lengthAdjust="spacing" textLength="76" x="1272.7466" y="762.4082">slotDuration</text><rect fill="none" height="6" style="stroke:#C82930;stroke-width:1.0;" width="6" x="1260.7466" y="769.4844"/><text fill="#000000" font-family="sans-serif" font-size="14" lengthAdjust="spacing" textLength="82" x="1272.7466" y="780.0176">maxVaccines</text><rect fill="none" height="6" style="stroke:#C82930;stroke-width:1.0;" width="6" x="1260.7466" y="787.0938"/><text fill="#000000" font-family="sans-serif" font-size="14" lengthAdjust="spacing" textLength="72" x="1272.7466" y="797.627">coordinator</text><line style="stroke:#181818;stroke-width:0.5;" x1="1253.7466" x2="1399.7466" y1="804.7031" y2="804.7031"/></g><!--MD5=[8d21a970f1bd1e0e0584d0ecf91221be]
class ScheduleVaccine--><g id="elem_ScheduleVaccine"><rect codeLine="27" fill="#F1F1F1" height="136.0469" id="ScheduleVaccine" rx="2.5" ry="2.5" style="stroke:#181818;stroke-width:0.5;" width="141" x="611.2466" y="1141"/><ellipse cx="626.2466" cy="1157" fill="#ADD1B2" rx="11" ry="11" style="stroke:#181818;stroke-width:1.0;"/><path d="M628.2466,1153.5 Q628.4497,1153 628.6841,1152.75 Q628.9185,1152.5 629.1841,1152.5 Q629.6529,1152.5 629.9497,1152.7813 Q630.2466,1153.0625 630.2466,1153.7188 L630.2466,1155.2813 Q630.2466,1155.9375 629.9654,1156.2188 Q629.6841,1156.5 629.2466,1156.5 Q628.856,1156.5 628.606,1156.3281 Q628.356,1156.1563 628.2466,1155.7031 Q628.1997,1155.3906 628.0279,1155.2188 Q627.7154,1154.8906 627.1529,1154.7031 Q626.5904,1154.5 626.0279,1154.5 Q625.3247,1154.5 624.731,1154.7813 Q624.1529,1155.0625 623.6997,1155.6875 Q623.2466,1156.3125 623.2466,1157.1719 L623.2466,1158.0938 Q623.2466,1159.125 624.0904,1159.8125 Q624.9341,1160.5 626.4341,1160.5 Q627.3247,1160.5 627.9497,1160.2969 Q628.3091,1160.1875 628.7154,1159.8281 Q628.981,1159.625 629.1216,1159.5625 Q629.2622,1159.5 629.4341,1159.5 Q629.7622,1159.5 629.9966,1159.7656 Q630.2466,1160.0156 630.2466,1160.375 Q630.2466,1160.7188 629.9029,1161.125 Q629.4029,1161.7188 628.606,1162.0469 Q627.5591,1162.5 626.2779,1162.5 Q624.7779,1162.5 623.5747,1161.9063 Q622.606,1161.4375 621.9185,1160.4219 Q621.2466,1159.4063 621.2466,1158.2031 L621.2466,1157.1094 Q621.2466,1155.8594 621.8404,1154.7656 Q622.4497,1153.6719 623.4966,1153.0938 Q624.5591,1152.5 625.7466,1152.5 Q626.4654,1152.5 627.0904,1152.75 Q627.7154,1153 628.2466,1153.5 Z " fill="#000000"/><text fill="#000000" font-family="sans-serif" font-size="14" lengthAdjust="spacing" textLength="109" x="640.2466" y="1162.7285">ScheduleVaccine</text><line style="stroke:#181818;stroke-width:0.5;" x1="612.2466" x2="751.2466" y1="1173" y2="1173"/><rect fill="none" height="6" style="stroke:#C82930;stroke-width:1.0;" width="6" x="619.2466" y="1181"/><text fill="#000000" font-family="sans-serif" font-size="14" lengthAdjust="spacing" textLength="104" x="631.2466" y="1191.5332">userNumberSNS</text><rect fill="none" height="6" style="stroke:#C82930;stroke-width:1.0;" width="6" x="619.2466" y="1198.6094"/><text fill="#000000" font-family="sans-serif" font-size="14" lengthAdjust="spacing" textLength="114" x="631.2466" y="1209.1426">vaccinationCenter</text><rect fill="none" height="6" style="stroke:#C82930;stroke-width:1.0;" width="6" x="619.2466" y="1216.2188"/><text fill="#000000" font-family="sans-serif" font-size="14" lengthAdjust="spacing" textLength="28" x="631.2466" y="1226.752">date</text><rect fill="none" height="6" style="stroke:#C82930;stroke-width:1.0;" width="6" x="619.2466" y="1233.8281"/><text fill="#000000" font-family="sans-serif" font-size="14" lengthAdjust="spacing" textLength="26" x="631.2466" y="1244.3613">time</text><rect fill="none" height="6" style="stroke:#C82930;stroke-width:1.0;" width="6" x="619.2466" y="1251.4375"/><text fill="#000000" font-family="sans-serif" font-size="14" lengthAdjust="spacing" textLength="92" x="631.2466" y="1261.9707">typeOfVaccine</text><line style="stroke:#181818;stroke-width:0.5;" x1="612.2466" x2="751.2466" y1="1269.0469" y2="1269.0469"/></g><!--MD5=[9dec31851c9c504cad5b41bb142d96c3]
class DGS--><g id="elem_DGS"><rect codeLine="39" fill="#F1F1F1" height="48" id="DGS" rx="2.5" ry="2.5" style="stroke:#181818;stroke-width:0.5;" width="62" x="939.7466" y="383"/><ellipse cx="954.7466" cy="399" fill="#ADD1B2" rx="11" ry="11" style="stroke:#181818;stroke-width:1.0;"/><path d="M956.7466,395.5 Q956.9497,395 957.1841,394.75 Q957.4185,394.5 957.6841,394.5 Q958.1529,394.5 958.4497,394.7813 Q958.7466,395.0625 958.7466,395.7188 L958.7466,397.2813 Q958.7466,397.9375 958.4654,398.2188 Q958.1841,398.5 957.7466,398.5 Q957.356,398.5 957.106,398.3281 Q956.856,398.1563 956.7466,397.7031 Q956.6997,397.3906 956.5279,397.2188 Q956.2154,396.8906 955.6529,396.7031 Q955.0904,396.5 954.5279,396.5 Q953.8247,396.5 953.231,396.7813 Q952.6529,397.0625 952.1997,397.6875 Q951.7466,398.3125 951.7466,399.1719 L951.7466,400.0938 Q951.7466,401.125 952.5904,401.8125 Q953.4341,402.5 954.9341,402.5 Q955.8247,402.5 956.4497,402.2969 Q956.8091,402.1875 957.2154,401.8281 Q957.481,401.625 957.6216,401.5625 Q957.7622,401.5 957.9341,401.5 Q958.2622,401.5 958.4966,401.7656 Q958.7466,402.0156 958.7466,402.375 Q958.7466,402.7188 958.4029,403.125 Q957.9029,403.7188 957.106,404.0469 Q956.0591,404.5 954.7779,404.5 Q953.2779,404.5 952.0747,403.9063 Q951.106,403.4375 950.4185,402.4219 Q949.7466,401.4063 949.7466,400.2031 L949.7466,399.1094 Q949.7466,397.8594 950.3404,396.7656 Q950.9497,395.6719 951.9966,395.0938 Q953.0591,394.5 954.2466,394.5 Q954.9654,394.5 955.5904,394.75 Q956.2154,395 956.7466,395.5 Z " fill="#000000"/><text fill="#000000" font-family="sans-serif" font-size="14" lengthAdjust="spacing" textLength="30" x="968.7466" y="404.7285">DGS</text><line style="stroke:#181818;stroke-width:0.5;" x1="940.7466" x2="1000.7466" y1="415" y2="415"/><line style="stroke:#181818;stroke-width:0.5;" x1="940.7466" x2="1000.7466" y1="423" y2="423"/></g><!--MD5=[a059576e163b46f56762f12600c49258]
class Nurse--><g id="elem_Nurse"><rect codeLine="35" fill="#F1F1F1" height="48" id="Nurse" rx="2.5" ry="2.5" style="stroke:#181818;stroke-width:0.5;" width="69" x="184.2466" y="383"/><ellipse cx="199.2466" cy="399" fill="#ADD1B2" rx="11" ry="11" style="stroke:#181818;stroke-width:1.0;"/><path d="M201.2466,395.5 Q201.4497,395 201.6841,394.75 Q201.9185,394.5 202.1841,394.5 Q202.6529,394.5 202.9497,394.7813 Q203.2466,395.0625 203.2466,395.7188 L203.2466,397.2813 Q203.2466,397.9375 202.9654,398.2188 Q202.6841,398.5 202.2466,398.5 Q201.856,398.5 201.606,398.3281 Q201.356,398.1563 201.2466,397.7031 Q201.1997,397.3906 201.0279,397.2188 Q200.7154,396.8906 200.1529,396.7031 Q199.5904,396.5 199.0279,396.5 Q198.3247,396.5 197.731,396.7813 Q197.1529,397.0625 196.6997,397.6875 Q196.2466,398.3125 196.2466,399.1719 L196.2466,400.0938 Q196.2466,401.125 197.0904,401.8125 Q197.9341,402.5 199.4341,402.5 Q200.3247,402.5 200.9497,402.2969 Q201.3091,402.1875 201.7154,401.8281 Q201.981,401.625 202.1216,401.5625 Q202.2622,401.5 202.4341,401.5 Q202.7622,401.5 202.9966,401.7656 Q203.2466,402.0156 203.2466,402.375 Q203.2466,402.7188 202.9029,403.125 Q202.4029,403.7188 201.606,404.0469 Q200.5591,404.5 199.2779,404.5 Q197.7779,404.5 196.5747,403.9063 Q195.606,403.4375 194.9185,402.4219 Q194.2466,401.4063 194.2466,400.2031 L194.2466,399.1094 Q194.2466,397.8594 194.8404,396.7656 Q195.4497,395.6719 196.4966,395.0938 Q197.5591,394.5 198.7466,394.5 Q199.4654,394.5 200.0904,394.75 Q200.7154,395 201.2466,395.5 Z " fill="#000000"/><text fill="#000000" font-family="sans-serif" font-size="14" lengthAdjust="spacing" textLength="37" x="213.2466" y="404.7285">Nurse</text><line style="stroke:#181818;stroke-width:0.5;" x1="185.2466" x2="252.2466" y1="415" y2="415"/><line style="stroke:#181818;stroke-width:0.5;" x1="185.2466" x2="252.2466" y1="423" y2="423"/></g><!--MD5=[ae27ab334c9ca5f6a013ce0b55b99b8c]
class CovidDigitalCertificate--><g id="elem_CovidDigitalCertificate"><rect codeLine="36" fill="#F1F1F1" height="48" id="CovidDigitalCertificate" rx="2.5" ry="2.5" style="stroke:#181818;stroke-width:0.5;" width="171" x="422.2466" y="953"/><ellipse cx="437.2466" cy="969" fill="#ADD1B2" rx="11" ry="11" style="stroke:#181818;stroke-width:1.0;"/><path d="M439.2466,965.5 Q439.4497,965 439.6841,964.75 Q439.9185,964.5 440.1841,964.5 Q440.6529,964.5 440.9497,964.7813 Q441.2466,965.0625 441.2466,965.7188 L441.2466,967.2813 Q441.2466,967.9375 440.9654,968.2188 Q440.6841,968.5 440.2466,968.5 Q439.856,968.5 439.606,968.3281 Q439.356,968.1563 439.2466,967.7031 Q439.1997,967.3906 439.0279,967.2188 Q438.7154,966.8906 438.1529,966.7031 Q437.5904,966.5 437.0279,966.5 Q436.3247,966.5 435.731,966.7813 Q435.1529,967.0625 434.6997,967.6875 Q434.2466,968.3125 434.2466,969.1719 L434.2466,970.0938 Q434.2466,971.125 435.0904,971.8125 Q435.9341,972.5 437.4341,972.5 Q438.3247,972.5 438.9497,972.2969 Q439.3091,972.1875 439.7154,971.8281 Q439.981,971.625 440.1216,971.5625 Q440.2622,971.5 440.4341,971.5 Q440.7622,971.5 440.9966,971.7656 Q441.2466,972.0156 441.2466,972.375 Q441.2466,972.7188 440.9029,973.125 Q440.4029,973.7188 439.606,974.0469 Q438.5591,974.5 437.2779,974.5 Q435.7779,974.5 434.5747,973.9063 Q433.606,973.4375 432.9185,972.4219 Q432.2466,971.4063 432.2466,970.2031 L432.2466,969.1094 Q432.2466,967.8594 432.8404,966.7656 Q433.4497,965.6719 434.4966,965.0938 Q435.5591,964.5 436.7466,964.5 Q437.4654,964.5 438.0904,964.75 Q438.7154,965 439.2466,965.5 Z " fill="#000000"/><text fill="#000000" font-family="sans-serif" font-size="14" lengthAdjust="spacing" textLength="139" x="451.2466" y="974.7285">CovidDigitalCertificate</text><line style="stroke:#181818;stroke-width:0.5;" x1="423.2466" x2="592.2466" y1="985" y2="985"/><line style="stroke:#181818;stroke-width:0.5;" x1="423.2466" x2="592.2466" y1="993" y2="993"/></g><!--MD5=[03960189e81aa2c066c762ffabbee709]
class Receptionist--><g id="elem_Receptionist"><rect codeLine="37" fill="#F1F1F1" height="48" id="Receptionist" rx="2.5" ry="2.5" style="stroke:#181818;stroke-width:0.5;" width="110" x="1145.7466" y="195"/><ellipse cx="1160.7466" cy="211" fill="#ADD1B2" rx="11" ry="11" style="stroke:#181818;stroke-width:1.0;"/><path d="M1162.7466,207.5 Q1162.9497,207 1163.1841,206.75 Q1163.4185,206.5 1163.6841,206.5 Q1164.1529,206.5 1164.4497,206.7813 Q1164.7466,207.0625 1164.7466,207.7188 L1164.7466,209.2813 Q1164.7466,209.9375 1164.4654,210.2188 Q1164.1841,210.5 1163.7466,210.5 Q1163.356,210.5 1163.106,210.3281 Q1162.856,210.1563 1162.7466,209.7031 Q1162.6997,209.3906 1162.5279,209.2188 Q1162.2154,208.8906 1161.6529,208.7031 Q1161.0904,208.5 1160.5279,208.5 Q1159.8247,208.5 1159.231,208.7813 Q1158.6529,209.0625 1158.1997,209.6875 Q1157.7466,210.3125 1157.7466,211.1719 L1157.7466,212.0938 Q1157.7466,213.125 1158.5904,213.8125 Q1159.4341,214.5 1160.9341,214.5 Q1161.8247,214.5 1162.4497,214.2969 Q1162.8091,214.1875 1163.2154,213.8281 Q1163.481,213.625 1163.6216,213.5625 Q1163.7622,213.5 1163.9341,213.5 Q1164.2622,213.5 1164.4966,213.7656 Q1164.7466,214.0156 1164.7466,214.375 Q1164.7466,214.7188 1164.4029,215.125 Q1163.9029,215.7188 1163.106,216.0469 Q1162.0591,216.5 1160.7779,216.5 Q1159.2779,216.5 1158.0747,215.9063 Q1157.106,215.4375 1156.4185,214.4219 Q1155.7466,213.4063 1155.7466,212.2031 L1155.7466,211.1094 Q1155.7466,209.8594 1156.3404,208.7656 Q1156.9497,207.6719 1157.9966,207.0938 Q1159.0591,206.5 1160.2466,206.5 Q1160.9654,206.5 1161.5904,206.75 Q1162.2154,207 1162.7466,207.5 Z " fill="#000000"/><text fill="#000000" font-family="sans-serif" font-size="14" lengthAdjust="spacing" textLength="78" x="1174.7466" y="216.7285">Receptionist</text><line style="stroke:#181818;stroke-width:0.5;" x1="1146.7466" x2="1254.7466" y1="227" y2="227"/><line style="stroke:#181818;stroke-width:0.5;" x1="1146.7466" x2="1254.7466" y1="235" y2="235"/></g><!--MD5=[53d58b469dab931cbea506cdf5ebe602]
class Vaccination--><g id="elem_Vaccination"><rect codeLine="38" fill="#F1F1F1" height="48" id="Vaccination" rx="2.5" ry="2.5" style="stroke:#181818;stroke-width:0.5;" width="105" x="274.2466" y="953"/><ellipse cx="289.2466" cy="969" fill="#ADD1B2" rx="11" ry="11" style="stroke:#181818;stroke-width:1.0;"/><path d="M291.2466,965.5 Q291.4497,965 291.6841,964.75 Q291.9185,964.5 292.1841,964.5 Q292.6529,964.5 292.9497,964.7813 Q293.2466,965.0625 293.2466,965.7188 L293.2466,967.2813 Q293.2466,967.9375 292.9654,968.2188 Q292.6841,968.5 292.2466,968.5 Q291.856,968.5 291.606,968.3281 Q291.356,968.1563 291.2466,967.7031 Q291.1997,967.3906 291.0279,967.2188 Q290.7154,966.8906 290.1529,966.7031 Q289.5904,966.5 289.0279,966.5 Q288.3247,966.5 287.731,966.7813 Q287.1529,967.0625 286.6997,967.6875 Q286.2466,968.3125 286.2466,969.1719 L286.2466,970.0938 Q286.2466,971.125 287.0904,971.8125 Q287.9341,972.5 289.4341,972.5 Q290.3247,972.5 290.9497,972.2969 Q291.3091,972.1875 291.7154,971.8281 Q291.981,971.625 292.1216,971.5625 Q292.2622,971.5 292.4341,971.5 Q292.7622,971.5 292.9966,971.7656 Q293.2466,972.0156 293.2466,972.375 Q293.2466,972.7188 292.9029,973.125 Q292.4029,973.7188 291.606,974.0469 Q290.5591,974.5 289.2779,974.5 Q287.7779,974.5 286.5747,973.9063 Q285.606,973.4375 284.9185,972.4219 Q284.2466,971.4063 284.2466,970.2031 L284.2466,969.1094 Q284.2466,967.8594 284.8404,966.7656 Q285.4497,965.6719 286.4966,965.0938 Q287.5591,964.5 288.7466,964.5 Q289.4654,964.5 290.0904,964.75 Q290.7154,965 291.2466,965.5 Z " fill="#000000"/><text fill="#000000" font-family="sans-serif" font-size="14" lengthAdjust="spacing" textLength="73" x="303.2466" y="974.7285">Vaccination</text><line style="stroke:#181818;stroke-width:0.5;" x1="275.2466" x2="378.2466" y1="985" y2="985"/><line style="stroke:#181818;stroke-width:0.5;" x1="275.2466" x2="378.2466" y1="993" y2="993"/></g><!--MD5=[e20e044c9750be76ae79fe869ed0281c]
class PerformanceAnalysis--><g id="elem_PerformanceAnalysis"><rect codeLine="40" fill="#F1F1F1" height="48" id="PerformanceAnalysis" rx="2.5" ry="2.5" style="stroke:#181818;stroke-width:0.5;" width="165" x="2220.2466" y="1443.5"/><ellipse cx="2235.2466" cy="1459.5" fill="#ADD1B2" rx="11" ry="11" style="stroke:#181818;stroke-width:1.0;"/><path d="M2237.2466,1456 Q2237.4497,1455.5 2237.6841,1455.25 Q2237.9185,1455 2238.1841,1455 Q2238.6529,1455 2238.9497,1455.2813 Q2239.2466,1455.5625 2239.2466,1456.2188 L2239.2466,1457.7813 Q2239.2466,1458.4375 2238.9654,1458.7188 Q2238.6841,1459 2238.2466,1459 Q2237.856,1459 2237.606,1458.8281 Q2237.356,1458.6563 2237.2466,1458.2031 Q2237.1997,1457.8906 2237.0279,1457.7188 Q2236.7154,1457.3906 2236.1529,1457.2031 Q2235.5904,1457 2235.0279,1457 Q2234.3247,1457 2233.731,1457.2813 Q2233.1529,1457.5625 2232.6997,1458.1875 Q2232.2466,1458.8125 2232.2466,1459.6719 L2232.2466,1460.5938 Q2232.2466,1461.625 2233.0904,1462.3125 Q2233.9341,1463 2235.4341,1463 Q2236.3247,1463 2236.9497,1462.7969 Q2237.3091,1462.6875 2237.7154,1462.3281 Q2237.981,1462.125 2238.1216,1462.0625 Q2238.2622,1462 2238.4341,1462 Q2238.7622,1462 2238.9966,1462.2656 Q2239.2466,1462.5156 2239.2466,1462.875 Q2239.2466,1463.2188 2238.9029,1463.625 Q2238.4029,1464.2188 2237.606,1464.5469 Q2236.5591,1465 2235.2779,1465 Q2233.7779,1465 2232.5747,1464.4063 Q2231.606,1463.9375 2230.9185,1462.9219 Q2230.2466,1461.9063 2230.2466,1460.7031 L2230.2466,1459.6094 Q2230.2466,1458.3594 2230.8404,1457.2656 Q2231.4497,1456.1719 2232.4966,1455.5938 Q2233.5591,1455 2234.7466,1455 Q2235.4654,1455 2236.0904,1455.25 Q2236.7154,1455.5 2237.2466,1456 Z " fill="#000000"/><text fill="#000000" font-family="sans-serif" font-size="14" lengthAdjust="spacing" textLength="133" x="2249.2466" y="1465.2285">PerformanceAnalysis</text><line style="stroke:#181818;stroke-width:0.5;" x1="2221.2466" x2="2384.2466" y1="1475.5" y2="1475.5"/><line style="stroke:#181818;stroke-width:0.5;" x1="2221.2466" x2="2384.2466" y1="1483.5" y2="1483.5"/></g><!--MD5=[f00dbe8c0302c6aec2cb26b3c659c8fc]
class Report--><g id="elem_Report"><rect codeLine="41" fill="#F1F1F1" height="48" id="Report" rx="2.5" ry="2.5" style="stroke:#181818;stroke-width:0.5;" width="75" x="2348.2466" y="1185"/><ellipse cx="2363.2466" cy="1201" fill="#ADD1B2" rx="11" ry="11" style="stroke:#181818;stroke-width:1.0;"/><path d="M2365.2466,1197.5 Q2365.4497,1197 2365.6841,1196.75 Q2365.9185,1196.5 2366.1841,1196.5 Q2366.6529,1196.5 2366.9497,1196.7813 Q2367.2466,1197.0625 2367.2466,1197.7188 L2367.2466,1199.2813 Q2367.2466,1199.9375 2366.9654,1200.2188 Q2366.6841,1200.5 2366.2466,1200.5 Q2365.856,1200.5 2365.606,1200.3281 Q2365.356,1200.1563 2365.2466,1199.7031 Q2365.1997,1199.3906 2365.0279,1199.2188 Q2364.7154,1198.8906 2364.1529,1198.7031 Q2363.5904,1198.5 2363.0279,1198.5 Q2362.3247,1198.5 2361.731,1198.7813 Q2361.1529,1199.0625 2360.6997,1199.6875 Q2360.2466,1200.3125 2360.2466,1201.1719 L2360.2466,1202.0938 Q2360.2466,1203.125 2361.0904,1203.8125 Q2361.9341,1204.5 2363.4341,1204.5 Q2364.3247,1204.5 2364.9497,1204.2969 Q2365.3091,1204.1875 2365.7154,1203.8281 Q2365.981,1203.625 2366.1216,1203.5625 Q2366.2622,1203.5 2366.4341,1203.5 Q2366.7622,1203.5 2366.9966,1203.7656 Q2367.2466,1204.0156 2367.2466,1204.375 Q2367.2466,1204.7188 2366.9029,1205.125 Q2366.4029,1205.7188 2365.606,1206.0469 Q2364.5591,1206.5 2363.2779,1206.5 Q2361.7779,1206.5 2360.5747,1205.9063 Q2359.606,1205.4375 2358.9185,1204.4219 Q2358.2466,1203.4063 2358.2466,1202.2031 L2358.2466,1201.1094 Q2358.2466,1199.8594 2358.8404,1198.7656 Q2359.4497,1197.6719 2360.4966,1197.0938 Q2361.5591,1196.5 2362.7466,1196.5 Q2363.4654,1196.5 2364.0904,1196.75 Q2364.7154,1197 2365.2466,1197.5 Z " fill="#000000"/><text fill="#000000" font-family="sans-serif" font-size="14" lengthAdjust="spacing" textLength="43" x="2377.2466" y="1206.7285">Report</text><line style="stroke:#181818;stroke-width:0.5;" x1="2349.2466" x2="2422.2466" y1="1217" y2="1217"/><line style="stroke:#181818;stroke-width:0.5;" x1="2349.2466" x2="2422.2466" y1="1225" y2="1225"/></g><!--MD5=[a2530d24bafc45bb45314d96545aa194]
class AdministrationProcess--><g id="elem_AdministrationProcess"><rect codeLine="42" fill="#F1F1F1" height="48" id="AdministrationProcess" rx="2.5" ry="2.5" style="stroke:#181818;stroke-width:0.5;" width="172" x="1125.7466" y="1185"/><ellipse cx="1140.7466" cy="1201" fill="#ADD1B2" rx="11" ry="11" style="stroke:#181818;stroke-width:1.0;"/><path d="M1142.7466,1197.5 Q1142.9497,1197 1143.1841,1196.75 Q1143.4185,1196.5 1143.6841,1196.5 Q1144.1529,1196.5 1144.4497,1196.7813 Q1144.7466,1197.0625 1144.7466,1197.7188 L1144.7466,1199.2813 Q1144.7466,1199.9375 1144.4654,1200.2188 Q1144.1841,1200.5 1143.7466,1200.5 Q1143.356,1200.5 1143.106,1200.3281 Q1142.856,1200.1563 1142.7466,1199.7031 Q1142.6997,1199.3906 1142.5279,1199.2188 Q1142.2154,1198.8906 1141.6529,1198.7031 Q1141.0904,1198.5 1140.5279,1198.5 Q1139.8247,1198.5 1139.231,1198.7813 Q1138.6529,1199.0625 1138.1997,1199.6875 Q1137.7466,1200.3125 1137.7466,1201.1719 L1137.7466,1202.0938 Q1137.7466,1203.125 1138.5904,1203.8125 Q1139.4341,1204.5 1140.9341,1204.5 Q1141.8247,1204.5 1142.4497,1204.2969 Q1142.8091,1204.1875 1143.2154,1203.8281 Q1143.481,1203.625 1143.6216,1203.5625 Q1143.7622,1203.5 1143.9341,1203.5 Q1144.2622,1203.5 1144.4966,1203.7656 Q1144.7466,1204.0156 1144.7466,1204.375 Q1144.7466,1204.7188 1144.4029,1205.125 Q1143.9029,1205.7188 1143.106,1206.0469 Q1142.0591,1206.5 1140.7779,1206.5 Q1139.2779,1206.5 1138.0747,1205.9063 Q1137.106,1205.4375 1136.4185,1204.4219 Q1135.7466,1203.4063 1135.7466,1202.2031 L1135.7466,1201.1094 Q1135.7466,1199.8594 1136.3404,1198.7656 Q1136.9497,1197.6719 1137.9966,1197.0938 Q1139.0591,1196.5 1140.2466,1196.5 Q1140.9654,1196.5 1141.5904,1196.75 Q1142.2154,1197 1142.7466,1197.5 Z " fill="#000000"/><text fill="#000000" font-family="sans-serif" font-size="14" lengthAdjust="spacing" textLength="140" x="1154.7466" y="1206.7285">AdministrationProcess</text><line style="stroke:#181818;stroke-width:0.5;" x1="1126.7466" x2="1296.7466" y1="1217" y2="1217"/><line style="stroke:#181818;stroke-width:0.5;" x1="1126.7466" x2="1296.7466" y1="1225" y2="1225"/></g><!--MD5=[2d935fd2dd068a13da1ae531f9857c4f]
class CenterCoordinator--><g id="elem_CenterCoordinator"><rect fill="#F1F1F1" height="48" id="CenterCoordinator" rx="2.5" ry="2.5" style="stroke:#181818;stroke-width:0.5;" width="150" x="2134.7466" y="953"/><ellipse cx="2149.7466" cy="969" fill="#ADD1B2" rx="11" ry="11" style="stroke:#181818;stroke-width:1.0;"/><path d="M2151.7466,965.5 Q2151.9497,965 2152.1841,964.75 Q2152.4185,964.5 2152.6841,964.5 Q2153.1529,964.5 2153.4497,964.7813 Q2153.7466,965.0625 2153.7466,965.7188 L2153.7466,967.2813 Q2153.7466,967.9375 2153.4654,968.2188 Q2153.1841,968.5 2152.7466,968.5 Q2152.356,968.5 2152.106,968.3281 Q2151.856,968.1563 2151.7466,967.7031 Q2151.6997,967.3906 2151.5279,967.2188 Q2151.2154,966.8906 2150.6529,966.7031 Q2150.0904,966.5 2149.5279,966.5 Q2148.8247,966.5 2148.231,966.7813 Q2147.6529,967.0625 2147.1997,967.6875 Q2146.7466,968.3125 2146.7466,969.1719 L2146.7466,970.0938 Q2146.7466,971.125 2147.5904,971.8125 Q2148.4341,972.5 2149.9341,972.5 Q2150.8247,972.5 2151.4497,972.2969 Q2151.8091,972.1875 2152.2154,971.8281 Q2152.481,971.625 2152.6216,971.5625 Q2152.7622,971.5 2152.9341,971.5 Q2153.2622,971.5 2153.4966,971.7656 Q2153.7466,972.0156 2153.7466,972.375 Q2153.7466,972.7188 2153.4029,973.125 Q2152.9029,973.7188 2152.106,974.0469 Q2151.0591,974.5 2149.7779,974.5 Q2148.2779,974.5 2147.0747,973.9063 Q2146.106,973.4375 2145.4185,972.4219 Q2144.7466,971.4063 2144.7466,970.2031 L2144.7466,969.1094 Q2144.7466,967.8594 2145.3404,966.7656 Q2145.9497,965.6719 2146.9966,965.0938 Q2148.0591,964.5 2149.2466,964.5 Q2149.9654,964.5 2150.5904,964.75 Q2151.2154,965 2151.7466,965.5 Z " fill="#000000"/><text fill="#000000" font-family="sans-serif" font-size="14" lengthAdjust="spacing" textLength="118" x="2163.7466" y="974.7285">CenterCoordinator</text><line style="stroke:#181818;stroke-width:0.5;" x1="2135.7466" x2="2283.7466" y1="985" y2="985"/><line style="stroke:#181818;stroke-width:0.5;" x1="2135.7466" x2="2283.7466" y1="993" y2="993"/></g><!--MD5=[0e8cb916868dace7535ab14483f3caae]
link Admin to CenterCoordinator--><g id="link_Admin_CenterCoordinator"><path codeLine="45" d="M1544.3666,32.9 C1686.8166,36.94 2207.7466,56.37 2207.7466,124 C2207.7466,124 2207.7466,124 2207.7466,884 C2207.7466,907.48 2208.4066,934.33 2208.9666,952.94 " fill="none" id="Admin-CenterCoordinator" style="stroke:#181818;stroke-width:1.0;"/><polygon fill="#000000" points="2215.6744,411.2289,2212.7603,402.1758,2207.9956,405.6177,2215.6744,411.2289" style="stroke:#000000;stroke-width:1.0;"/><text fill="#000000" font-family="sans-serif" font-size="13" lengthAdjust="spacing" textLength="50" x="2221.7466" y="412.4951">registers</text><text fill="#000000" font-family="sans-serif" font-size="13" lengthAdjust="spacing" textLength="7" x="1552.2221" y="27.6552">1</text><text fill="#000000" font-family="sans-serif" font-size="13" lengthAdjust="spacing" textLength="7" x="2200.8699" y="942.2648">1</text></g><!--MD5=[3c9748a687fec00fab8b17b659b9c92a]
link Admin to SNSUser--><g id="link_Admin_SNSUser"><path codeLine="46" d="M1473.1266,32.43 C1320.9166,34.71 732.7466,48.41 732.7466,124 C732.7466,124 732.7466,124 732.7466,274 C732.7466,424.98 699.3966,604.44 686.6366,667.61 " fill="none" id="Admin-SNSUser" style="stroke:#181818;stroke-width:1.0;"/><polygon fill="#000000" points="733.8568,316.3173,742.7401,312.9207,739.0471,308.3479,733.8568,316.3173" style="stroke:#000000;stroke-width:1.0;"/><text fill="#000000" font-family="sans-serif" font-size="13" lengthAdjust="spacing" textLength="50" x="746.7466" y="318.4951">registers</text><text fill="#000000" font-family="sans-serif" font-size="13" lengthAdjust="spacing" textLength="7" x="1458.0581" y="28.6063">1</text><text fill="#000000" font-family="sans-serif" font-size="13" lengthAdjust="spacing" textLength="5" x="682.2192" y="657.2529">*</text></g><!--MD5=[3c9748a687fec00fab8b17b659b9c92a]
link Admin to SNSUser--><g id="link_Admin_SNSUser"><path codeLine="86" d="M1473.0966,33.29 C1291.9166,40.05 481.7466,73.12 481.7466,124 C481.7466,124 481.7466,124 481.7466,274 C481.7466,381.93 542.1166,394.66 588.7466,492 C619.1466,555.45 654.0266,630.81 671.1466,667.95 " fill="none" id="Admin-SNSUser-1" style="stroke:#181818;stroke-width:1.0;"/><polygon fill="#000000" points="487.8259,316.2786,496.7424,312.9701,493.0948,308.361,487.8259,316.2786" style="stroke:#000000;stroke-width:1.0;"/><text fill="#000000" font-family="sans-serif" font-size="13" lengthAdjust="spacing" textLength="166" x="500.7466" y="318.4951">Loads a set through CSV file</text><text fill="#000000" font-family="sans-serif" font-size="13" lengthAdjust="spacing" textLength="5" x="1460.2282" y="48.9437">*</text><text fill="#000000" font-family="sans-serif" font-size="13" lengthAdjust="spacing" textLength="5" x="662.7897" y="657.2773">*</text></g><!--MD5=[29f134d9f2b57c1de61953e8598b8d34]
link Admin to VaccineType--><g id="link_Admin_VaccineType"><path codeLine="47" d="M1544.4666,33.89 C1670.4866,41.04 2086.7466,68.81 2086.7466,124 C2086.7466,124 2086.7466,124 2086.7466,462 C2086.7466,714.9 2081.7466,778.1 2081.7466,1031 C2081.7466,1031 2081.7466,1031 2081.7466,1348 C2081.7466,1450.87 1295.3666,1464.46 1066.5166,1466.24 " fill="none" id="Admin-VaccineType" style="stroke:#181818;stroke-width:1.0;"/><polygon fill="#000000" points="2089.164,696.9187,2094.8148,689.2689,2089.2392,687.4084,2089.164,696.9187" style="stroke:#000000;stroke-width:1.0;"/><text fill="#000000" font-family="sans-serif" font-size="13" lengthAdjust="spacing" textLength="51" x="2099.7466" y="697.4951">specifies</text><text fill="#000000" font-family="sans-serif" font-size="13" lengthAdjust="spacing" textLength="7" x="1552.1881" y="30.4137">1</text><text fill="#000000" font-family="sans-serif" font-size="13" lengthAdjust="spacing" textLength="5" x="1074.3495" y="1480.5885">*</text></g><!--MD5=[b9c57625f78d0142b687e8406fd75f9e]
link Admin to Vaccine--><g id="link_Admin_Vaccine"><path codeLine="48" d="M1544.4866,46.45 C1574.2266,61.12 1611.7466,86.96 1611.7466,124 C1611.7466,124 1611.7466,124 1611.7466,353 C1611.7466,557.45 1660.1366,615.11 1608.7466,813 C1581.7466,916.99 1439.4866,956.41 1367.9266,969.82 " fill="none" id="Admin-Vaccine" style="stroke:#181818;stroke-width:1.0;"/><polygon fill="#000000" points="1617.8076,412.0868,1622.393,403.7546,1616.6197,402.6507,1617.8076,412.0868" style="stroke:#000000;stroke-width:1.0;"/><text fill="#000000" font-family="sans-serif" font-size="13" lengthAdjust="spacing" textLength="51" x="1627.7466" y="412.4951">specifies</text><text fill="#000000" font-family="sans-serif" font-size="13" lengthAdjust="spacing" textLength="7" x="1552.212" y="64.5964">1</text><text fill="#000000" font-family="sans-serif" font-size="13" lengthAdjust="spacing" textLength="5" x="1375.7071" y="964.6425">*</text></g><!--MD5=[b9c57625f78d0142b687e8406fd75f9e]
link Admin to Vaccine--><g id="link_Admin_Vaccine"><path codeLine="51" d="M1544.2666,38.03 C1610.8466,50.36 1747.7466,80.93 1747.7466,124 C1747.7466,124 1747.7466,124 1747.7466,353 C1747.7466,436.28 1735.7466,456.72 1735.7466,540 C1735.7466,540 1735.7466,540 1735.7466,884 C1735.7466,958.87 1471.5566,972.82 1367.8366,975.41 " fill="none" id="Admin-Vaccine-1" style="stroke:#181818;stroke-width:1.0;"/><polygon fill="#000000" points="1750.8218,412.0895,1755.383,403.7441,1749.6066,402.6569,1750.8218,412.0895" style="stroke:#000000;stroke-width:1.0;"/><text fill="#000000" font-family="sans-serif" font-size="13" lengthAdjust="spacing" textLength="53" x="1760.7466" y="412.4951">manages</text><text fill="#000000" font-family="sans-serif" font-size="13" lengthAdjust="spacing" textLength="7" x="1552.3145" y="54.6613">1</text><text fill="#000000" font-family="sans-serif" font-size="13" lengthAdjust="spacing" textLength="5" x="1375.8735" y="990.1194">*</text></g><!--MD5=[c62aadd511b86fc1332e5686622a335a]
link Admin to Receptionist--><g id="link_Admin_Receptionist"><path codeLine="49" d="M1473.2066,43.08 C1432.7766,56.63 1365.7666,82.03 1314.7466,116 C1279.8166,139.26 1244.5766,172.66 1222.7166,194.83 " fill="none" id="Admin-Receptionist" style="stroke:#181818;stroke-width:1.0;"/><polygon fill="#000000" points="1315.4702,127.7665,1324.7291,125.5935,1321.6836,120.5662,1315.4702,127.7665" style="stroke:#000000;stroke-width:1.0;"/><text fill="#000000" font-family="sans-serif" font-size="13" lengthAdjust="spacing" textLength="50" x="1328.7466" y="130.4951">registers</text><text fill="#000000" font-family="sans-serif" font-size="13" lengthAdjust="spacing" textLength="7" x="1458.3881" y="65.9434">1</text><text fill="#000000" font-family="sans-serif" font-size="13" lengthAdjust="spacing" textLength="5" x="1222.7058" y="184.1266">*</text></g><!--MD5=[bfca31ec4c1e3c6d9f12e965baa89892]
link Admin to Nurse--><g id="link_Admin_Nurse"><path codeLine="50" d="M1472.9866,32.78 C1271.9666,37.42 291.7466,63.15 291.7466,124 C291.7466,124 291.7466,124 291.7466,314 C291.7466,341.93 270.8366,366.32 251.4066,382.95 " fill="none" id="Admin-Nurse" style="stroke:#181818;stroke-width:1.0;"/><polygon fill="#000000" points="291.9402,220.5536,301.4449,220.8863,299.8253,215.236,291.9402,220.5536" style="stroke:#000000;stroke-width:1.0;"/><text fill="#000000" font-family="sans-serif" font-size="13" lengthAdjust="spacing" textLength="50" x="305.7466" y="224.4951">registers</text><text fill="#000000" font-family="sans-serif" font-size="13" lengthAdjust="spacing" textLength="7" x="1458.2573" y="29.0852">1</text><text fill="#000000" font-family="sans-serif" font-size="13" lengthAdjust="spacing" textLength="5" x="254.1351" y="372.2773">*</text></g><!--MD5=[971fc5bfc8950ac35b730c5b2cfbd00a]
link Admin to VaccinationCenter--><g id="link_Admin_VaccinationCenter"><path codeLine="52" d="M1473.0066,46.45 C1443.2666,61.12 1405.7466,86.96 1405.7466,124 C1405.7466,124 1405.7466,124 1405.7466,502 C1405.7466,525.12 1400.6566,548.68 1393.0566,570.97 " fill="none" id="Admin-VaccinationCenter" style="stroke:#181818;stroke-width:1.0;"/><polygon fill="#000000" points="1409.9932,318.1187,1414.2615,309.6197,1408.4508,308.734,1409.9932,318.1187" style="stroke:#000000;stroke-width:1.0;"/><text fill="#000000" font-family="sans-serif" font-size="13" lengthAdjust="spacing" textLength="50" x="1419.7466" y="318.4951">registers</text><text fill="#000000" font-family="sans-serif" font-size="13" lengthAdjust="spacing" textLength="7" x="1458.2812" y="64.5964">1</text><text fill="#000000" font-family="sans-serif" font-size="13" lengthAdjust="spacing" textLength="5" x="1392.1444" y="560.2199">*</text></g><!--MD5=[847d080293397c13284c6165ee564ba5]
link SNSUser to Vaccination--><g id="link_SNSUser_Vaccination"><path codeLine="53" d="M650.5866,716.25 C605.2266,750.26 518.5966,815.85 446.7466,874 C414.0166,900.49 377.2366,932.02 353.1266,952.94 " fill="none" id="SNSUser-Vaccination" style="stroke:#181818;stroke-width:1.0;"/><polygon fill="#000000" points="455.6592,880.0626,446.7514,883.3947,450.4112,887.9942,455.6592,880.0626" style="stroke:#000000;stroke-width:1.0;"/><text fill="#000000" font-family="sans-serif" font-size="13" lengthAdjust="spacing" textLength="92" x="460.7466" y="888.4951">administered on</text><text fill="#000000" font-family="sans-serif" font-size="13" lengthAdjust="spacing" textLength="5" x="637.382" y="737.6489">*</text><text fill="#000000" font-family="sans-serif" font-size="13" lengthAdjust="spacing" textLength="7" x="351.9896" y="942.2648">1</text></g><!--MD5=[1694b4a2bc965c9ae63cabc4ebb0876f]
link SNSUser to CovidDigitalCertificate--><g id="link_SNSUser_CovidDigitalCertificate"><path codeLine="54" d="M667.5066,716.16 C634.7966,769.36 554.6066,899.79 521.9366,952.92 " fill="none" id="SNSUser-CovidDigitalCertificate" style="stroke:#181818;stroke-width:1.0;"/><polygon fill="#000000" points="572.1278,887.4351,579.3689,881.2692,574.3617,878.1906,572.1278,887.4351" style="stroke:#000000;stroke-width:1.0;"/><text fill="#000000" font-family="sans-serif" font-size="13" lengthAdjust="spacing" textLength="46" x="583.7466" y="888.4951">asks for</text><text fill="#000000" font-family="sans-serif" font-size="13" lengthAdjust="spacing" textLength="5" x="658.4262" y="737.537">*</text><text fill="#000000" font-family="sans-serif" font-size="13" lengthAdjust="spacing" textLength="7" x="517.6759" y="942.2397">1</text></g><!--MD5=[64d67b2370fffc59724a2aa203ca612d]
link SNSUser to ScheduleVaccine--><g id="link_SNSUser_ScheduleVaccine"><path codeLine="55" d="M681.7466,716.28 C681.7466,751.95 681.7466,822.28 681.7466,882 C681.7466,882 681.7466,882 681.7466,1072 C681.7466,1094.43 681.7466,1118.94 681.7466,1140.9 " fill="none" id="SNSUser-ScheduleVaccine" style="stroke:#181818;stroke-width:1.0;"/><polygon fill="#000000" points="686.7466,982.1758,689.6855,973.1307,683.8077,973.1307,686.7466,982.1758" style="stroke:#000000;stroke-width:1.0;"/><text fill="#000000" font-family="sans-serif" font-size="13" lengthAdjust="spacing" textLength="28" x="695.7466" y="982.4951">does</text><text fill="#000000" font-family="sans-serif" font-size="13" lengthAdjust="spacing" textLength="5" x="676.1372" y="737.6862">*</text><text fill="#000000" font-family="sans-serif" font-size="13" lengthAdjust="spacing" textLength="7" x="674.3638" y="1130.0883">1</text></g><!--MD5=[c9e1ae72bfcb646b987a09fd2a6eb6f2]
link Nurse to CovidDigitalCertificate--><g id="link_Nurse_CovidDigitalCertificate"><path codeLine="56" d="M224.4466,431.16 C243.1466,504.01 307.7866,733.04 417.7466,892 C434.0366,915.55 457.9366,937.46 477.0066,953 " fill="none" id="Nurse-CovidDigitalCertificate" style="stroke:#181818;stroke-width:1.0;"/><polygon fill="#000000" points="376.9248,696.6764,375.6298,687.2544,370.339,689.815,376.9248,696.6764" style="stroke:#000000;stroke-width:1.0;"/><text fill="#000000" font-family="sans-serif" font-size="13" lengthAdjust="spacing" textLength="31" x="383.7466" y="697.4951">isses</text><text fill="#000000" font-family="sans-serif" font-size="13" lengthAdjust="spacing" textLength="5" x="220.2266" y="452.537">*</text><text fill="#000000" font-family="sans-serif" font-size="13" lengthAdjust="spacing" textLength="5" x="463.4889" y="942.3402">*</text></g><!--MD5=[6ea0f40543939b6e2ae9ee19242139f7]
link Nurse to Vaccination--><g id="link_Nurse_Vaccination"><path codeLine="57" d="M184.2466,419.1 C150.3666,432.42 103.7466,458.32 103.7466,500 C103.7466,500 103.7466,500 103.7466,884 C103.7466,957.4 208.2566,973.42 274.1766,976.22 " fill="none" id="Nurse-Vaccination" style="stroke:#181818;stroke-width:1.0;"/><polygon fill="#000000" points="109.5434,697.1119,111.0034,687.7141,105.2006,688.6507,109.5434,697.1119" style="stroke:#000000;stroke-width:1.0;"/><text fill="#000000" font-family="sans-serif" font-size="13" lengthAdjust="spacing" textLength="50" x="117.7466" y="697.4951">performs</text><text fill="#000000" font-family="sans-serif" font-size="13" lengthAdjust="spacing" textLength="5" x="171.1529" y="437.0304">*</text><text fill="#000000" font-family="sans-serif" font-size="13" lengthAdjust="spacing" textLength="5" x="261.0882" y="972.4514">*</text></g><!--MD5=[588212555811379b392de144c0b7707c]
link Nurse to VaccineType--><g id="link_Nurse_VaccineType"><path codeLine="58" d="M183.8466,408.6 C125.8066,411.66 15.7466,427.06 15.7466,500 C15.7466,500 15.7466,500 15.7466,1348 C15.7466,1441.81 726.3666,1461.73 942.8766,1465.62 " fill="none" id="Nurse-VaccineType" style="stroke:#181818;stroke-width:1.0;"/><polygon fill="#000000" points="23.663,981.2371,20.7744,972.1759,16,975.6043,23.663,981.2371" style="stroke:#000000;stroke-width:1.0;"/><text fill="#000000" font-family="sans-serif" font-size="13" lengthAdjust="spacing" textLength="49" x="29.7466" y="982.4951">confirms</text><text fill="#000000" font-family="sans-serif" font-size="13" lengthAdjust="spacing" textLength="5" x="171.1329" y="404.8114">*</text><text fill="#000000" font-family="sans-serif" font-size="13" lengthAdjust="spacing" textLength="5" x="930.4338" y="1462.003">*</text></g><!--MD5=[4e399d38d6a566bda7b7f0290d2186d8]
link Vaccination to ScheduleVaccine--><g id="link_Vaccination_ScheduleVaccine"><path codeLine="59" d="M362.4066,1001.11 C420.3466,1038.64 535.9666,1113.55 611.0366,1162.19 " fill="none" id="Vaccination-ScheduleVaccine" style="stroke:#181818;stroke-width:1.0;"/><polygon fill="#000000" points="492.9429,1073.8944,486.9497,1066.5098,483.7538,1071.4429,492.9429,1073.8944" style="stroke:#000000;stroke-width:1.0;"/><text fill="#000000" font-family="sans-serif" font-size="13" lengthAdjust="spacing" textLength="42" x="497.7466" y="1076.4951">fulfilling</text><text fill="#000000" font-family="sans-serif" font-size="13" lengthAdjust="spacing" textLength="7" x="363.2456" y="1022.4748">1</text><text fill="#000000" font-family="sans-serif" font-size="13" lengthAdjust="spacing" textLength="7" x="596.3837" y="1154.0485">1</text></g><!--MD5=[b6f342dd84fd94becfb65fe9e3b69293]
link ScheduleVaccine to VaccineType--><g id="link_ScheduleVaccine_VaccineType"><path codeLine="60" d="M752.6266,1266.29 C809.5466,1311.49 888.6666,1374.32 943.0166,1417.48 " fill="none" id="ScheduleVaccine-VaccineType" style="stroke:#181818;stroke-width:1.0;"/><polygon fill="#000000" points="873.6622,1350.2852,868.4065,1342.3587,864.7512,1346.9618,873.6622,1350.2852" style="stroke:#000000;stroke-width:1.0;"/><text fill="#000000" font-family="sans-serif" font-size="13" lengthAdjust="spacing" textLength="53" x="878.7466" y="1352.4951">for taking</text><text fill="#000000" font-family="sans-serif" font-size="13" lengthAdjust="spacing" textLength="7" x="760.2971" y="1268.8839">1</text><text fill="#000000" font-family="sans-serif" font-size="13" lengthAdjust="spacing" textLength="5" x="930.1886" y="1407.9358">*</text></g><!--MD5=[3568623adf67b2630dce9e60c05bd02a]
link Vaccine to VaccineType--><g id="link_Vaccine_VaccineType"><path codeLine="61" d="M1343.6566,1001.33 C1354.9566,1019.22 1367.7466,1044.99 1367.7466,1070 C1367.7466,1070 1367.7466,1070 1367.7466,1348 C1367.7466,1410.65 1169.8866,1445.38 1066.3266,1459.27 " fill="none" id="Vaccine-VaccineType" style="stroke:#181818;stroke-width:1.0;"/><polygon fill="#000000" points="1370.1565,1213.4526,1377.3559,1207.2381,1372.3282,1204.1933,1370.1565,1213.4526" style="stroke:#000000;stroke-width:1.0;"/><text fill="#000000" font-family="sans-serif" font-size="13" lengthAdjust="spacing" textLength="67" x="1381.7466" y="1214.4951">depends on</text><text fill="#000000" font-family="sans-serif" font-size="13" lengthAdjust="spacing" textLength="5" x="1341.9889" y="1022.3421">*</text><text fill="#000000" font-family="sans-serif" font-size="13" lengthAdjust="spacing" textLength="5" x="1074.1364" y="1454.819">*</text></g><!--MD5=[759c7f6dbf62b13e16002bff783a0fa8]
link VaccinationCenter to Vaccine--><g id="link_VaccinationCenter_Vaccine"><path codeLine="62" d="M1326.7466,813.02 C1326.7466,865.59 1326.7466,922.22 1326.7466,952.95 " fill="none" id="VaccinationCenter-Vaccine" style="stroke:#181818;stroke-width:1.0;"/><polygon fill="#000000" points="1331.7466,888.1758,1334.6855,879.1307,1328.8077,879.1307,1331.7466,888.1758" style="stroke:#000000;stroke-width:1.0;"/><text fill="#000000" font-family="sans-serif" font-size="13" lengthAdjust="spacing" textLength="67" x="1340.7466" y="888.4951">administers</text><text fill="#000000" font-family="sans-serif" font-size="13" lengthAdjust="spacing" textLength="5" x="1321.5943" y="834.397">*</text><text fill="#000000" font-family="sans-serif" font-size="13" lengthAdjust="spacing" textLength="5" x="1321.106" y="942.2773">*</text></g><!--MD5=[bb89c84865602b73d6e93796625bc84b]
link VaccinationCenter to HealthCareCenter--><g id="link_VaccinationCenter_HealthCareCenter"><path codeLine="63" d="M1252.3966,767.35 C1190.8166,828.93 1107.1566,912.59 1067.0566,952.69 " fill="none" id="VaccinationCenter-HealthCareCenter" style="stroke:#181818;stroke-width:1.0;"/><polygon fill="#000000" points="1152.2822,879.6402,1143.8082,883.958,1147.9644,888.1142,1152.2822,879.6402" style="stroke:#000000;stroke-width:1.0;"/><text fill="#000000" font-family="sans-serif" font-size="13" lengthAdjust="spacing" textLength="21" x="1157.7466" y="888.4951">is a</text><text fill="#000000" font-family="sans-serif" font-size="13" lengthAdjust="spacing" textLength="5" x="1239.8317" y="771.5068">*</text><text fill="#000000" font-family="sans-serif" font-size="13" lengthAdjust="spacing" textLength="5" x="1067.3892" y="941.9507">*</text></g><!--MD5=[8d58cf1c2119791001cf5144e9295faa]
link VaccinationCenter to CenterCoordinator--><g id="link_VaccinationCenter_CenterCoordinator"><path codeLine="64" d="M1401.0666,746.51 C1436.2466,769.77 1479.6866,795.61 1521.7466,813 C1734.7166,901.08 2005.3566,947.64 2134.5266,966.2 " fill="none" id="VaccinationCenter-CenterCoordinator" style="stroke:#181818;stroke-width:1.0;"/><polygon fill="#000000" points="1766.5364,884.6104,1758.7149,879.1998,1757.0284,884.8305,1766.5364,884.6104" style="stroke:#000000;stroke-width:1.0;"/><text fill="#000000" font-family="sans-serif" font-size="13" lengthAdjust="spacing" textLength="32" x="1770.7466" y="888.4951">has a</text><text fill="#000000" font-family="sans-serif" font-size="13" lengthAdjust="spacing" textLength="5" x="1408.6286" y="748.6154">*</text><text fill="#000000" font-family="sans-serif" font-size="13" lengthAdjust="spacing" textLength="7" x="2119.7776" y="961.8618">1</text></g><!--MD5=[2421739cc0e47e7355273b7e4575a787]
link DGS to Admin--><g id="link_DGS_Admin"><path codeLine="65" d="M939.5266,385.81 C903.9766,362.28 850.7466,325.19 850.7466,314 C850.7466,124 850.7466,124 850.7466,124 C850.7466,60.63 1335.5966,38.26 1472.9066,33.2 " fill="none" id="DGS-Admin" style="stroke:#181818;stroke-width:1.0;"/><polygon fill="#000000" points="859.9176,216.4184,850.7515,218.9549,853.993,223.8582,859.9176,216.4184" style="stroke:#000000;stroke-width:1.0;"/><text fill="#000000" font-family="sans-serif" font-size="13" lengthAdjust="spacing" textLength="49" x="864.7466" y="224.4951">employs</text><text fill="#000000" font-family="sans-serif" font-size="13" lengthAdjust="spacing" textLength="7" x="924.9316" y="376.9583">1</text><text fill="#000000" font-family="sans-serif" font-size="13" lengthAdjust="spacing" textLength="5" x="1460.1957" y="28.5509">*</text></g><!--MD5=[cb513c20f056b40a34a515541651a85b]
link DGS to VaccinationCenter--><g id="link_DGS_VaccinationCenter"><path codeLine="66" d="M999.8766,431.16 C1054.5966,474.66 1174.2666,569.78 1252.6166,632.07 " fill="none" id="DGS-VaccinationCenter" style="stroke:#181818;stroke-width:1.0;"/><polygon fill="#000000" points="1105.6606,504.2871,1100.4089,496.358,1096.7513,500.9592,1105.6606,504.2871" style="stroke:#000000;stroke-width:1.0;"/><text fill="#000000" font-family="sans-serif" font-size="13" lengthAdjust="spacing" textLength="30" x="1110.7466" y="506.4951">owns</text><text fill="#000000" font-family="sans-serif" font-size="13" lengthAdjust="spacing" textLength="7" x="999.1239" y="452.537">1</text><text fill="#000000" font-family="sans-serif" font-size="13" lengthAdjust="spacing" textLength="5" x="1239.7142" y="622.5933">*</text></g><!--MD5=[b491a99540371a6c21f332d427d4375a]
link DGS to SNSUser--><g id="link_DGS_SNSUser"><path codeLine="67" d="M940.0966,431.23 C919.1266,447.55 891.0066,470.26 867.7466,492 C803.4866,552.06 734.4166,629.9 701.4466,667.97 " fill="none" id="DGS-SNSUser" style="stroke:#181818;stroke-width:1.0;"/><polygon fill="#000000" points="876.2963,497.6545,867.8051,501.9381,871.9446,506.111,876.2963,497.6545" style="stroke:#000000;stroke-width:1.0;"/><text fill="#000000" font-family="sans-serif" font-size="13" lengthAdjust="spacing" textLength="89" x="881.7466" y="506.4951">is registered on</text><text fill="#000000" font-family="sans-serif" font-size="13" lengthAdjust="spacing" textLength="7" x="924.7726" y="452.624">1</text><text fill="#000000" font-family="sans-serif" font-size="13" lengthAdjust="spacing" textLength="5" x="700.8541" y="657.3025">*</text></g><!--MD5=[5b76ad4aea9bdf9551a08667802db279]
link HealthCareCenter to ARS--><g id="link_HealthCareCenter_ARS"><path codeLine="68" d="M1043.7466,1001.32 C1043.7466,1045.52 1043.7466,1140.98 1043.7466,1184.96 " fill="none" id="HealthCareCenter-ARS" style="stroke:#181818;stroke-width:1.0;"/><polygon fill="#000000" points="1048.7466,1076.1758,1051.6855,1067.1307,1045.8077,1067.1307,1048.7466,1076.1758" style="stroke:#000000;stroke-width:1.0;"/><text fill="#000000" font-family="sans-serif" font-size="13" lengthAdjust="spacing" textLength="90" x="1057.7466" y="1076.4951">associated with</text><text fill="#000000" font-family="sans-serif" font-size="13" lengthAdjust="spacing" textLength="5" x="1038.1685" y="1022.3298">*</text><text fill="#000000" font-family="sans-serif" font-size="13" lengthAdjust="spacing" textLength="7" x="1035.8497" y="1174.2899">1</text></g><!--MD5=[85f06911c2f4dd592611bbf87a6e3e69]
link HealthCareCenter to AGES--><g id="link_HealthCareCenter_AGES"><path codeLine="69" d="M1002.5766,1001.04 C979.0066,1015.92 950.3166,1037.12 930.7466,1062 C900.9466,1099.88 882.9166,1154.19 874.4866,1184.78 " fill="none" id="HealthCareCenter-AGES" style="stroke:#181818;stroke-width:1.0;"/><polygon fill="#000000" points="932.8872,1075.2775,940.4708,1069.5382,935.649,1066.1767,932.8872,1075.2775" style="stroke:#000000;stroke-width:1.0;"/><text fill="#000000" font-family="sans-serif" font-size="13" lengthAdjust="spacing" textLength="90" x="944.7466" y="1076.4951">associated with</text><text fill="#000000" font-family="sans-serif" font-size="13" lengthAdjust="spacing" textLength="5" x="986.9321" y="1022.3877">*</text><text fill="#000000" font-family="sans-serif" font-size="13" lengthAdjust="spacing" textLength="7" x="868.0606" y="1174.0638">1</text></g><!--MD5=[18051a5f2796576e46c8c3bae8a93232]
link CenterCoordinator to PerformanceAnalysis--><g id="link_CenterCoordinator_PerformanceAnalysis"><path codeLine="70" d="M2230.2466,1001.2 C2243.6666,1018.81 2258.7466,1044.3 2258.7466,1070 C2258.7466,1070 2258.7466,1070 2258.7466,1348 C2258.7466,1382.89 2275.7166,1420.15 2288.5866,1443.38 " fill="none" id="CenterCoordinator-PerformanceAnalysis" style="stroke:#181818;stroke-width:1.0;"/><polygon fill="#000000" points="2264.4006,1214.1328,2266.1312,1204.781,2260.3038,1205.5499,2264.4006,1214.1328" style="stroke:#000000;stroke-width:1.0;"/><text fill="#000000" font-family="sans-serif" font-size="13" lengthAdjust="spacing" textLength="39" x="2272.7466" y="1214.4951">makes</text><text fill="#000000" font-family="sans-serif" font-size="13" lengthAdjust="spacing" textLength="7" x="2227.3904" y="1022.5867">1</text><text fill="#000000" font-family="sans-serif" font-size="13" lengthAdjust="spacing" textLength="5" x="2279.3175" y="1432.6894">*</text></g><!--MD5=[c0e5ad50a2b6f78d67c9ec501d1860d0]
link CenterCoordinator to Report--><g id="link_CenterCoordinator_Report"><path codeLine="71" d="M2249.3466,1001.21 C2261.6166,1009.59 2274.5666,1019.78 2284.7466,1031 C2328.2666,1078.94 2361.1766,1148.79 2376.4066,1184.73 " fill="none" id="CenterCoordinator-Report" style="stroke:#181818;stroke-width:1.0;"/><polygon fill="#000000" points="2322.9005,1067.0649,2325.6329,1076.1745,2330.4655,1072.8286,2322.9005,1067.0649" style="stroke:#000000;stroke-width:1.0;"/><text fill="#000000" font-family="sans-serif" font-size="13" lengthAdjust="spacing" textLength="57" x="2334.7466" y="1076.4951">generates</text><text fill="#000000" font-family="sans-serif" font-size="13" lengthAdjust="spacing" textLength="7" x="2251.146" y="1022.5992">1</text><text fill="#000000" font-family="sans-serif" font-size="13" lengthAdjust="spacing" textLength="5" x="2368.3726" y="1174.001">*</text></g><!--MD5=[499642399feaab480b4e82eaa42e3b89]
link Report to PerformanceAnalysis--><g id="link_Report_PerformanceAnalysis"><path codeLine="72" d="M2378.2366,1233.22 C2362.4766,1281.93 2326.0966,1394.33 2310.2966,1443.15 " fill="none" id="Report-PerformanceAnalysis" style="stroke:#181818;stroke-width:1.0;"/><polygon fill="#000000" points="2347.2071,1351.9329,2352.7883,1344.2321,2347.196,1342.4223,2347.2071,1351.9329" style="stroke:#000000;stroke-width:1.0;"/><text fill="#000000" font-family="sans-serif" font-size="13" lengthAdjust="spacing" textLength="32" x="2357.7466" y="1352.4951">about</text><text fill="#000000" font-family="sans-serif" font-size="13" lengthAdjust="spacing" textLength="5" x="2370.7967" y="1254.6116">*</text><text fill="#000000" font-family="sans-serif" font-size="13" lengthAdjust="spacing" textLength="5" x="2306.5276" y="1432.8027">*</text></g><!--MD5=[a2b34777cb48a2a30fe6d124791cb83b]
link Receptionist to DGS--><g id="link_Receptionist_DGS"><path codeLine="73" d="M1172.0866,243.18 C1127.8866,278.92 1043.6066,347.08 999.4066,382.82 " fill="none" id="Receptionist-DGS" style="stroke:#181818;stroke-width:1.0;"/><polygon fill="#000000" points="1102.6345,310.0318,1093.7533,313.4341,1097.4493,318.0045,1102.6345,310.0318" style="stroke:#000000;stroke-width:1.0;"/><text fill="#000000" font-family="sans-serif" font-size="13" lengthAdjust="spacing" textLength="52" x="1107.7466" y="318.4951">works for</text><text fill="#000000" font-family="sans-serif" font-size="13" lengthAdjust="spacing" textLength="5" x="1159.4914" y="264.5618">*</text><text fill="#000000" font-family="sans-serif" font-size="13" lengthAdjust="spacing" textLength="7" x="998.8539" y="372.114">1</text></g><!--MD5=[7690a4971bd8576b261a40a0340b8203]
link Receptionist to SNSUser--><g id="link_Receptionist_SNSUser"><path codeLine="74" d="M1145.7466,240.46 C1117.9266,253.95 1086.7466,274.62 1070.7466,304 C1026.7666,384.79 1140.9366,432.91 1090.7466,510 C1008.0266,637.06 813.5766,675.59 725.9366,686.72 " fill="none" id="Receptionist-SNSUser" style="stroke:#181818;stroke-width:1.0;"/><polygon fill="#000000" points="1096.3207,410.8176,1104.6589,406.2432,1100.3777,402.2158,1096.3207,410.8176" style="stroke:#000000;stroke-width:1.0;"/><text fill="#000000" font-family="sans-serif" font-size="13" lengthAdjust="spacing" textLength="50" x="1108.7466" y="412.4951">registers</text><text fill="#000000" font-family="sans-serif" font-size="13" lengthAdjust="spacing" textLength="7" x="1130.8857" y="257.9374">1</text><text fill="#000000" font-family="sans-serif" font-size="13" lengthAdjust="spacing" textLength="5" x="733.6697" y="682.0447">*</text></g><!--MD5=[7690a4971bd8576b261a40a0340b8203]
link Receptionist to SNSUser--><g id="link_Receptionist_SNSUser"><path codeLine="84" d="M1145.7166,230.27 C1064.6166,248.02 912.6066,291.71 819.7466,383 C734.7166,466.6 697.6666,611.91 686.0466,668 " fill="none" id="Receptionist-SNSUser-1" style="stroke:#181818;stroke-width:1.0;"/><polygon fill="#000000" points="821.1257,410.6238,829.7027,406.5145,825.6493,402.2579,821.1257,410.6238" style="stroke:#000000;stroke-width:1.0;"/><text fill="#000000" font-family="sans-serif" font-size="13" lengthAdjust="spacing" textLength="87" x="833.7466" y="412.4951">registers arrival</text><text fill="#000000" font-family="sans-serif" font-size="13" lengthAdjust="spacing" textLength="5" x="1132.6265" y="228.2497">*</text><text fill="#000000" font-family="sans-serif" font-size="13" lengthAdjust="spacing" textLength="5" x="687.7891" y="657.3402">*</text></g><!--MD5=[e6b253b588892f992f90e4845b74fe0b]
link Admin to Employee--><g id="link_Admin_Employee"><path codeLine="75" d="M1544.2466,33.54 C1635.0766,38.43 1868.7466,57.48 1868.7466,124 C1868.7466,124 1868.7466,124 1868.7466,353 C1868.7466,415.29 1857.9166,430.12 1850.7466,492 C1828.6266,682.83 1806.7466,729.89 1806.7466,922 C1806.7466,922 1806.7466,922 1806.7466,1072 C1806.7466,1111.67 1806.7466,1157.84 1806.7466,1184.9 " fill="none" id="Admin-Employee" style="stroke:#181818;stroke-width:1.0;"/><polygon fill="#000000" points="1856.8581,506.0507,1857.7128,496.5786,1851.9821,497.8852,1856.8581,506.0507" style="stroke:#000000;stroke-width:1.0;"/><text fill="#000000" font-family="sans-serif" font-size="13" lengthAdjust="spacing" textLength="50" x="1864.7466" y="506.4951">registers</text><text fill="#000000" font-family="sans-serif" font-size="13" lengthAdjust="spacing" textLength="7" x="1552.2904" y="49.2452">1</text><text fill="#000000" font-family="sans-serif" font-size="13" lengthAdjust="spacing" textLength="5" x="1801.106" y="1174.2145">*</text></g><!--MD5=[e6b253b588892f992f90e4845b74fe0b]
link Admin to Employee--><g id="link_Admin_Employee"><path codeLine="76" d="M1544.4366,31.73 C1650.8666,31.87 1958.7466,39.57 1958.7466,124 C1958.7466,124 1958.7466,124 1958.7466,462 C1958.7466,667.07 1994.7466,716.93 1994.7466,922 C1994.7466,922 1994.7466,922 1994.7466,1072 C1994.7466,1141.29 1909.8766,1178.86 1854.1866,1196.06 " fill="none" id="Admin-Employee-1" style="stroke:#181818;stroke-width:1.0;"/><polygon fill="#000000" points="1965.0321,506.0077,1965.5468,496.5111,1959.8665,498.0222,1965.0321,506.0077" style="stroke:#000000;stroke-width:1.0;"/><text fill="#000000" font-family="sans-serif" font-size="13" lengthAdjust="spacing" textLength="60" x="1972.7466" y="506.4951">gets list of</text><text fill="#000000" font-family="sans-serif" font-size="13" lengthAdjust="spacing" textLength="7" x="1552.1522" y="27.8284">1</text><text fill="#000000" font-family="sans-serif" font-size="13" lengthAdjust="spacing" textLength="5" x="1861.8337" y="1190.3756">*</text></g><!--MD5=[06bb7d2a85a007b79d10922b2d5e4cdd]
link Receptionist to Employee--><g id="link_Receptionist_Employee"><path codeLine="77" d="M1255.9966,220.13 C1319.8366,223.48 1423.1966,239.39 1478.7466,304 C1523.9766,356.6 1567.7466,852.62 1567.7466,922 C1567.7466,922 1567.7466,922 1567.7466,1072 C1567.7466,1159.37 1689.8766,1191.32 1759.5266,1202.44 " fill="none" id="Receptionist-Employee" style="stroke:#181818;stroke-width:1.0;"/><polygon fill="#000000" points="1568.0274,696.6253,1566.5168,687.2354,1561.2861,689.9167,1568.0274,696.6253" style="stroke:#000000;stroke-width:1.0;"/><text fill="#000000" font-family="sans-serif" font-size="13" lengthAdjust="spacing" textLength="21" x="1574.7466" y="697.4951">is a</text><text fill="#000000" font-family="sans-serif" font-size="13" lengthAdjust="spacing" textLength="5" x="1263.7568" y="216.7256">*</text><text fill="#000000" font-family="sans-serif" font-size="13" lengthAdjust="spacing" textLength="7" x="1744.7601" y="1216.1825">1</text></g><!--MD5=[411632688047b95e932f260c55f2de54]
link Nurse to Employee--><g id="link_Nurse_Employee"><path codeLine="78" d="M253.3366,408.99 C442.8566,414.74 1349.5266,447.04 1426.7466,540 C1536.2366,671.8 1478.7466,750.66 1478.7466,922 C1478.7466,922 1478.7466,922 1478.7466,1072 C1478.7466,1132.03 1668.5666,1179.43 1759.4066,1198.68 " fill="none" id="Nurse-Employee" style="stroke:#181818;stroke-width:1.0;"/><polygon fill="#000000" points="1489.1748,885.4977,1482.5289,878.6945,1479.7994,883.9002,1489.1748,885.4977" style="stroke:#000000;stroke-width:1.0;"/><text fill="#000000" font-family="sans-serif" font-size="13" lengthAdjust="spacing" textLength="21" x="1493.7466" y="888.4951">is a</text><text fill="#000000" font-family="sans-serif" font-size="13" lengthAdjust="spacing" textLength="5" x="261.4501" y="405.2089">*</text><text fill="#000000" font-family="sans-serif" font-size="13" lengthAdjust="spacing" textLength="7" x="1744.6217" y="1193.3968">1</text></g><!--MD5=[738a6f70211648d778fec4b79664b2f5]
link CenterCoordinator to Employee--><g id="link_CenterCoordinator_Employee"><path codeLine="79" d="M2180.0866,1001.17 C2143.4366,1029.19 2078.5766,1076.85 2018.7466,1111 C1964.0866,1142.2 1897.6066,1171.29 1853.8366,1189.32 " fill="none" id="CenterCoordinator-Employee" style="stroke:#181818;stroke-width:1.0;"/><polygon fill="#000000" points="2095.4153,1073.6737,2104.719,1071.7008,2101.7825,1066.609,2095.4153,1073.6737" style="stroke:#000000;stroke-width:1.0;"/><text fill="#000000" font-family="sans-serif" font-size="13" lengthAdjust="spacing" textLength="21" x="2108.7466" y="1076.4951">is a</text><text fill="#000000" font-family="sans-serif" font-size="13" lengthAdjust="spacing" textLength="5" x="2167.2476" y="1022.5494">*</text><text fill="#000000" font-family="sans-serif" font-size="13" lengthAdjust="spacing" textLength="7" x="1861.8207" y="1177.3605">1</text></g><!--MD5=[a98252b7739f22b1ddec3651c1c3aaea]
link Vaccine to AdministrationProcess--><g id="link_Vaccine_AdministrationProcess"><path codeLine="80" d="M1315.0866,1001.32 C1292.9866,1045.52 1245.2566,1140.98 1223.2666,1184.96 " fill="none" id="Vaccine-AdministrationProcess" style="stroke:#181818;stroke-width:1.0;"/><polygon fill="#000000" points="1286.5106,1075.6479,1293.1843,1068.8721,1287.927,1066.2434,1286.5106,1075.6479" style="stroke:#000000;stroke-width:1.0;"/><text fill="#000000" font-family="sans-serif" font-size="13" lengthAdjust="spacing" textLength="32" x="1297.7466" y="1076.4951">has a</text><text fill="#000000" font-family="sans-serif" font-size="13" lengthAdjust="spacing" textLength="7" x="1304.5809" y="1022.3298">1</text><text fill="#000000" font-family="sans-serif" font-size="13" lengthAdjust="spacing" textLength="7" x="1218.3217" y="1174.2899">1</text></g><!--MD5=[0e6b2441f6980354f17e2a2b41c9848d]
link SNSUser to Vaccine--><g id="link_SNSUser_Vaccine"><path codeLine="81" d="M716.1966,716.24 C777.5166,756.74 910.6466,840.81 1032.7466,892 C1119.6366,928.43 1227.3766,954.73 1285.2766,967.43 " fill="none" id="SNSUser-Vaccine" style="stroke:#181818;stroke-width:1.0;"/><polygon fill="#000000" points="1042.3208,885.1948,1035.2328,878.8537,1032.8592,884.231,1042.3208,885.1948" style="stroke:#000000;stroke-width:1.0;"/><text fill="#000000" font-family="sans-serif" font-size="13" lengthAdjust="spacing" textLength="59" x="1046.7466" y="888.4951">schedules</text><text fill="#000000" font-family="sans-serif" font-size="13" lengthAdjust="spacing" textLength="7" x="716.7407" y="737.6365">1</text><text fill="#000000" font-family="sans-serif" font-size="13" lengthAdjust="spacing" textLength="7" x="1270.8285" y="962.0442">1</text></g><!--MD5=[2bde3c2658e9820e0f62920496486001]
link Receptionist to VaccinationCenter--><g id="link_Receptionist_VaccinationCenter"><path codeLine="82" d="M1213.3266,243.03 C1217.9766,252.17 1223.0266,262.9 1226.7466,273 C1262.7566,370.67 1289.2166,486.01 1305.8366,570.77 " fill="none" id="Receptionist-VaccinationCenter" style="stroke:#181818;stroke-width:1.0;"/><polygon fill="#000000" points="1280.1049,411.9878,1280.4762,402.4844,1274.8194,404.0812,1280.1049,411.9878" style="stroke:#000000;stroke-width:1.0;"/><text fill="#000000" font-family="sans-serif" font-size="13" lengthAdjust="spacing" textLength="49" x="1287.7466" y="412.4951">works at</text><text fill="#000000" font-family="sans-serif" font-size="13" lengthAdjust="spacing" textLength="5" x="1210.7836" y="264.3753">*</text><text fill="#000000" font-family="sans-serif" font-size="13" lengthAdjust="spacing" textLength="7" x="1297.2729" y="560.0071">1</text></g><!--MD5=[a51a492b861130233c71cdf245e75a6f]
link Receptionist to Vaccine--><g id="link_Receptionist_Vaccine"><path codeLine="83" d="M1200.7466,243.06 C1200.7466,261.67 1200.7466,288.52 1200.7466,312 C1200.7466,312 1200.7466,312 1200.7466,462 C1200.7466,654.2 1052.9366,728.98 1154.7466,892 C1183.2666,937.66 1244.5666,959.17 1285.7366,968.81 " fill="none" id="Receptionist-Vaccine" style="stroke:#181818;stroke-width:1.0;"/><polygon fill="#000000" points="1205.3282,506.1418,1207.1951,496.8163,1201.3572,497.5,1205.3282,506.1418" style="stroke:#000000;stroke-width:1.0;"/><text fill="#000000" font-family="sans-serif" font-size="13" lengthAdjust="spacing" textLength="59" x="1213.7466" y="506.4951">schedules</text><text fill="#000000" font-family="sans-serif" font-size="13" lengthAdjust="spacing" textLength="5" x="1195.1372" y="264.4126">*</text><text fill="#000000" font-family="sans-serif" font-size="13" lengthAdjust="spacing" textLength="7" x="1270.8083" y="982.3026">1</text></g><!--MD5=[44ce67b9ae4b4a4a3bd0ed01886d6243]
link Nurse to SNSUser--><g id="link_Nurse_SNSUser"><path codeLine="85" d="M230.2766,431.34 C242.4366,453.95 263.4566,487.96 289.7466,510 C398.3166,601.01 560.2366,656.3 637.5566,679 " fill="none" id="Nurse-SNSUser" style="stroke:#181818;stroke-width:1.0;"/><polygon fill="#000000" points="299.0188,503.7736,292.8173,496.563,289.7634,501.5852,299.0188,503.7736" style="stroke:#000000;stroke-width:1.0;"/><text fill="#000000" font-family="sans-serif" font-size="13" lengthAdjust="spacing" textLength="280" x="303.7466" y="506.4951">consults list of users present in the waiting room</text><text fill="#000000" font-family="sans-serif" font-size="13" lengthAdjust="spacing" textLength="5" x="227.3648" y="452.3544">*</text><text fill="#000000" font-family="sans-serif" font-size="13" lengthAdjust="spacing" textLength="5" x="624.8236" y="673.0461">*</text></g><!--MD5=[1f7197f087043daa9cd51e819fc3b45e]
@startuml

class SNSUser{}
class VaccineType{
 - ageGroup
 - dose
 - vaccineDosage
}
class Vaccine{}
class Employee{}
class Admin{}
class HealthCareCenter{}
class ARS{}
class AGES{}
class VaccinationCenter{
  - name
  - address
  - emailAddress
  - phoneNumber
  - faxNumber
  - websiteAddress
  - openingHours
  - closingHours
  - slotDuration
  - maxVaccines
  - coordinator
}
class ScheduleVaccine{
- userNumberSNS
- vaccinationCenter
- date
- time
- typeOfVaccine
}
class DGS{}
class Nurse{}
class CovidDigitalCertificate{}
class Receptionist{}
class Vaccination{}
class DGS{}
class PerformanceAnalysis{}
class Report{}
class AdministrationProcess{}


Admin "1"- - -"1" CenterCoordinator : registers >
Admin "1"- - -"*" SNSUser : registers >
Admin "1"- - -"*" VaccineType : specifies >
Admin "1"- - -"*" Vaccine : specifies >
Admin "1"- - -"*" Receptionist : registers >
Admin "1"- - -"*" Nurse : registers >
Admin "1"- - -"*" Vaccine : manages >
Admin "1"- - -"*" VaccinationCenter : registers >
SNSUser "*"- - -"1" Vaccination : administered on <
SNSUser "*"- - -"1" CovidDigitalCertificate : asks for >
SNSUser "*"- - -"1" ScheduleVaccine : does >
Nurse "*"- - -"*" CovidDigitalCertificate : isses >
Nurse "*"- - -"*" Vaccination : performs >
Nurse "*"- - -"*" VaccineType : confirms >
Vaccination "1"- - -"1" ScheduleVaccine : fulfilling >
ScheduleVaccine "1"- - -"*" VaccineType : for taking >
Vaccine "*"- - -"*" VaccineType : depends on >
VaccinationCenter "*"- - -"*" Vaccine : administers >
VaccinationCenter "*"- - -"*" HealthCareCenter : is a <
VaccinationCenter "*"- - -"1" CenterCoordinator : has a >
DGS "1"- - -"*" Admin : employs >
DGS "1"- - -"*" VaccinationCenter : owns >
DGS "1"- - -"*" SNSUser : is registered on <
HealthCareCenter "*"- - -"1" ARS : associated with >
HealthCareCenter "*"- - -"1" AGES : associated with >
CenterCoordinator "1"- - -"*" PerformanceAnalysis : makes >
CenterCoordinator "1"- - -"*" Report : generates <
Report "*"- - -"*" PerformanceAnalysis : about >
Receptionist "*"- - -"1" DGS : works for <
Receptionist "1"- - -"*" SNSUser : registers >
Admin "1"- - -"*" Employee : registers >
Admin "1"- - -"*" Employee : gets list of >
Receptionist "*"- - -"1" Employee : is a >
Nurse "*"- - -"1" Employee : is a >
CenterCoordinator "*"- - -"1" Employee : is a >
Vaccine "1"- - -"1" AdministrationProcess : has a >
SNSUser "1"- - -"1" Vaccine : schedules >
Receptionist "*"- - -"1" VaccinationCenter : works at >
Receptionist "*"- - -"1" Vaccine : schedules >
Receptionist "*"- - -"*" SNSUser: registers arrival >
Nurse "*"- - -"*" SNSUser : consults list of users present in the waiting room >
Admin "*"- - -"*" SNSUser : Loads a set through CSV file >



@enduml

PlantUML version 1.2022.4(Sat Apr 09 14:29:17 BST 2022)
(GPL source distribution)
Java Runtime: OpenJDK Runtime Environment
JVM: OpenJDK 64-Bit Server VM
Default Encoding: Cp1252
Language: en
Country: US
--></g></svg>