<?xml version="1.0" encoding="UTF-8" standalone="no"?><svg xmlns="http://www.w3.org/2000/svg" xmlns:xlink="http://www.w3.org/1999/xlink" contentStyleType="text/css" height="488px" preserveAspectRatio="none" style="width:614px;height:488px;background:#FFFFFF;" version="1.1" viewBox="0 0 614 488" width="614px" zoomAndPan="magnify"><defs/><g><rect fill="#FFFFFF" height="295.5156" style="stroke:#181818;stroke-width:1.0;" width="10" x="17.5" y="92.6094"/><rect fill="#FFFFFF" height="30.3516" style="stroke:#181818;stroke-width:1.0;" width="10" x="571.5" y="114.9609"/><rect fill="#FFFFFF" height="30.3516" style="stroke:#181818;stroke-width:1.0;" width="10" x="571.5" y="175.6641"/><rect fill="#FFFFFF" height="30.3516" style="stroke:#181818;stroke-width:1.0;" width="10" x="571.5" y="236.3672"/><rect fill="#FFFFFF" height="30.3516" style="stroke:#181818;stroke-width:1.0;" width="10" x="571.5" y="297.0703"/><rect fill="#FFFFFF" height="30.3516" style="stroke:#181818;stroke-width:1.0;" width="10" x="571.5" y="357.7734"/><line style="stroke:#181818;stroke-width:0.5;stroke-dasharray:5.0,5.0;" x1="22" x2="22" y1="82.6094" y2="406.125"/><line style="stroke:#181818;stroke-width:0.5;stroke-dasharray:5.0,5.0;" x1="576.5" x2="576.5" y1="82.6094" y2="406.125"/><text fill="#000000" font-family="sans-serif" font-size="14" lengthAdjust="spacing" textLength="29" x="5" y="79.5332">User</text><ellipse cx="22.5" cy="13.5" fill="#E2E2F0" rx="8" ry="8" style="stroke:#181818;stroke-width:0.5;"/><path d="M22.5,21.5 L22.5,48.5 M9.5,29.5 L35.5,29.5 M22.5,48.5 L9.5,63.5 M22.5,48.5 L35.5,63.5 " fill="none" style="stroke:#181818;stroke-width:0.5;"/><text fill="#000000" font-family="sans-serif" font-size="14" lengthAdjust="spacing" textLength="29" x="5" y="419.6582">User</text><ellipse cx="22.5" cy="431.2344" fill="#E2E2F0" rx="8" ry="8" style="stroke:#181818;stroke-width:0.5;"/><path d="M22.5,439.2344 L22.5,466.2344 M9.5,447.2344 L35.5,447.2344 M22.5,466.2344 L9.5,481.2344 M22.5,466.2344 L35.5,481.2344 " fill="none" style="stroke:#181818;stroke-width:0.5;"/><rect fill="#E2E2F0" height="31.6094" rx="2.5" ry="2.5" style="stroke:#181818;stroke-width:0.5;" width="64" x="544.5" y="50"/><text fill="#000000" font-family="sans-serif" font-size="14" lengthAdjust="spacing" textLength="50" x="551.5" y="71.5332">:System</text><rect fill="#E2E2F0" height="31.6094" rx="2.5" ry="2.5" style="stroke:#181818;stroke-width:0.5;" width="64" x="544.5" y="405.125"/><text fill="#000000" font-family="sans-serif" font-size="14" lengthAdjust="spacing" textLength="50" x="551.5" y="426.6582">:System</text><rect fill="#FFFFFF" height="295.5156" style="stroke:#181818;stroke-width:1.0;" width="10" x="17.5" y="92.6094"/><rect fill="#FFFFFF" height="30.3516" style="stroke:#181818;stroke-width:1.0;" width="10" x="571.5" y="114.9609"/><rect fill="#FFFFFF" height="30.3516" style="stroke:#181818;stroke-width:1.0;" width="10" x="571.5" y="175.6641"/><rect fill="#FFFFFF" height="30.3516" style="stroke:#181818;stroke-width:1.0;" width="10" x="571.5" y="236.3672"/><rect fill="#FFFFFF" height="30.3516" style="stroke:#181818;stroke-width:1.0;" width="10" x="571.5" y="297.0703"/><rect fill="#FFFFFF" height="30.3516" style="stroke:#181818;stroke-width:1.0;" width="10" x="571.5" y="357.7734"/><polygon fill="#181818" points="559.5,110.9609,569.5,114.9609,559.5,118.9609,563.5,114.9609" style="stroke:#181818;stroke-width:1.0;"/><line style="stroke:#181818;stroke-width:1.0;" x1="27.5" x2="565.5" y1="114.9609" y2="114.9609"/><text fill="#000000" font-family="sans-serif" font-size="13" font-weight="bold" lengthAdjust="spacing" textLength="7" x="34.5" y="110.1045">1</text><text fill="#000000" font-family="sans-serif" font-size="13" lengthAdjust="spacing" textLength="64" x="45.5" y="110.1045">starts login</text><polygon fill="#181818" points="38.5,141.3125,28.5,145.3125,38.5,149.3125,34.5,145.3125" style="stroke:#181818;stroke-width:1.0;"/><line style="stroke:#181818;stroke-width:1.0;stroke-dasharray:2.0,2.0;" x1="32.5" x2="575.5" y1="145.3125" y2="145.3125"/><text fill="#000000" font-family="sans-serif" font-size="13" font-weight="bold" lengthAdjust="spacing" textLength="7" x="44.5" y="140.4561">2</text><text fill="#000000" font-family="sans-serif" font-size="13" lengthAdjust="spacing" textLength="236" x="55.5" y="140.4561">requests data (UserID/E-mail, Password)</text><polygon fill="#181818" points="559.5,171.6641,569.5,175.6641,559.5,179.6641,563.5,175.6641" style="stroke:#181818;stroke-width:1.0;"/><line style="stroke:#181818;stroke-width:1.0;" x1="27.5" x2="565.5" y1="175.6641" y2="175.6641"/><text fill="#000000" font-family="sans-serif" font-size="13" font-weight="bold" lengthAdjust="spacing" textLength="7" x="34.5" y="170.8076">3</text><text fill="#000000" font-family="sans-serif" font-size="13" lengthAdjust="spacing" textLength="122" x="45.5" y="170.8076">types requested data</text><polygon fill="#181818" points="38.5,202.0156,28.5,206.0156,38.5,210.0156,34.5,206.0156" style="stroke:#181818;stroke-width:1.0;"/><line style="stroke:#181818;stroke-width:1.0;stroke-dasharray:2.0,2.0;" x1="32.5" x2="575.5" y1="206.0156" y2="206.0156"/><text fill="#000000" font-family="sans-serif" font-size="13" font-weight="bold" lengthAdjust="spacing" textLength="7" x="44.5" y="201.1592">4</text><text fill="#000000" font-family="sans-serif" font-size="13" lengthAdjust="spacing" textLength="139" x="55.5" y="201.1592">confirms sucessful login</text><polygon fill="#181818" points="559.5,232.3672,569.5,236.3672,559.5,240.3672,563.5,236.3672" style="stroke:#181818;stroke-width:1.0;"/><line style="stroke:#181818;stroke-width:1.0;" x1="27.5" x2="565.5" y1="236.3672" y2="236.3672"/><text fill="#000000" font-family="sans-serif" font-size="13" font-weight="bold" lengthAdjust="spacing" textLength="7" x="34.5" y="231.5107">5</text><text fill="#000000" font-family="sans-serif" font-size="13" lengthAdjust="spacing" textLength="146" x="45.5" y="231.5107">starts vaccine scheduling</text><polygon fill="#181818" points="38.5,262.7188,28.5,266.7188,38.5,270.7188,34.5,266.7188" style="stroke:#181818;stroke-width:1.0;"/><line style="stroke:#181818;stroke-width:1.0;stroke-dasharray:2.0,2.0;" x1="32.5" x2="575.5" y1="266.7188" y2="266.7188"/><text fill="#000000" font-family="sans-serif" font-size="13" font-weight="bold" lengthAdjust="spacing" textLength="7" x="44.5" y="261.8623">6</text><text fill="#000000" font-family="sans-serif" font-size="13" lengthAdjust="spacing" textLength="509" x="55.5" y="261.8623">requests data (Vaccination center, Hour of vaccination, Type of Vaccine, Phone number)</text><polygon fill="#181818" points="559.5,293.0703,569.5,297.0703,559.5,301.0703,563.5,297.0703" style="stroke:#181818;stroke-width:1.0;"/><line style="stroke:#181818;stroke-width:1.0;" x1="27.5" x2="565.5" y1="297.0703" y2="297.0703"/><text fill="#000000" font-family="sans-serif" font-size="13" font-weight="bold" lengthAdjust="spacing" textLength="7" x="34.5" y="292.2139">7</text><text fill="#000000" font-family="sans-serif" font-size="13" lengthAdjust="spacing" textLength="122" x="45.5" y="292.2139">types requested data</text><polygon fill="#181818" points="38.5,323.4219,28.5,327.4219,38.5,331.4219,34.5,327.4219" style="stroke:#181818;stroke-width:1.0;"/><line style="stroke:#181818;stroke-width:1.0;stroke-dasharray:2.0,2.0;" x1="32.5" x2="575.5" y1="327.4219" y2="327.4219"/><text fill="#000000" font-family="sans-serif" font-size="13" font-weight="bold" lengthAdjust="spacing" textLength="7" x="44.5" y="322.5654">8</text><text fill="#000000" font-family="sans-serif" font-size="13" lengthAdjust="spacing" textLength="252" x="55.5" y="322.5654">shows the data and requests a confirmation</text><polygon fill="#181818" points="559.5,353.7734,569.5,357.7734,559.5,361.7734,563.5,357.7734" style="stroke:#181818;stroke-width:1.0;"/><line style="stroke:#181818;stroke-width:1.0;" x1="27.5" x2="565.5" y1="357.7734" y2="357.7734"/><text fill="#000000" font-family="sans-serif" font-size="13" font-weight="bold" lengthAdjust="spacing" textLength="7" x="34.5" y="352.917">9</text><text fill="#000000" font-family="sans-serif" font-size="13" lengthAdjust="spacing" textLength="100" x="45.5" y="352.917">confirms the data</text><polygon fill="#181818" points="33.5,384.125,23.5,388.125,33.5,392.125,29.5,388.125" style="stroke:#181818;stroke-width:1.0;"/><line style="stroke:#181818;stroke-width:1.0;stroke-dasharray:2.0,2.0;" x1="27.5" x2="575.5" y1="388.125" y2="388.125"/><text fill="#000000" font-family="sans-serif" font-size="13" font-weight="bold" lengthAdjust="spacing" textLength="14" x="39.5" y="383.2686">10</text><text fill="#000000" font-family="sans-serif" font-size="13" lengthAdjust="spacing" textLength="152" x="57.5" y="383.2686">informs operation success</text><!--MD5=[71df250157d73e44a95115590bfc8b5f]
@startuml
'https://plantuml.com/sequence-diagram

autonumber
actor "User" as USER

activate USER
USER -> ":System" : starts login
activate ":System"
":System" - -> USER : requests data (UserID/E-mail, Password)
deactivate ":System"

USER -> ":System" : types requested data
activate ":System"
":System" - -> USER : confirms sucessful login
deactivate ":System"

USER -> ":System" : starts vaccine scheduling
activate ":System"
":System" - -> USER :  requests data (Vaccination center, Hour of vaccination, Type of Vaccine, Phone number)
deactivate ":System"

USER -> ":System" : types requested data
activate ":System"
":System" - -> USER : shows the data and requests a confirmation
deactivate ":System"

USER -> ":System" : confirms the data
activate ":System"
":System" - -> USER : informs operation success
deactivate ":System"


deactivate USER
@enduml

@startuml

autonumber
actor "User" as USER

activate USER
USER -> ":System" : starts login
activate ":System"
":System" - -> USER : requests data (UserID/E-mail, Password)
deactivate ":System"

USER -> ":System" : types requested data
activate ":System"
":System" - -> USER : confirms sucessful login
deactivate ":System"

USER -> ":System" : starts vaccine scheduling
activate ":System"
":System" - -> USER :  requests data (Vaccination center, Hour of vaccination, Type of Vaccine, Phone number)
deactivate ":System"

USER -> ":System" : types requested data
activate ":System"
":System" - -> USER : shows the data and requests a confirmation
deactivate ":System"

USER -> ":System" : confirms the data
activate ":System"
":System" - -> USER : informs operation success
deactivate ":System"


deactivate USER
@enduml

PlantUML version 1.2022.4(Sat Apr 09 14:29:17 BST 2022)
(GPL source distribution)
Java Runtime: OpenJDK Runtime Environment
JVM: OpenJDK 64-Bit Server VM
Default Encoding: Cp1252
Language: pt
Country: PT
--></g></svg>