<?xml version="1.0" encoding="UTF-8" standalone="no"?><svg xmlns="http://www.w3.org/2000/svg" xmlns:xlink="http://www.w3.org/1999/xlink" contentScriptType="application/ecmascript" contentStyleType="text/css" height="1483px" preserveAspectRatio="none" style="width:1476px;height:1483px;background:#FFFFFF;" version="1.1" viewBox="0 0 1476 1483" width="1476px" zoomAndPan="magnify"><defs><filter height="300%" id="fr2nzgxfr9ug6" width="300%" x="-1" y="-1"><feGaussianBlur result="blurOut" stdDeviation="2.0"/><feColorMatrix in="blurOut" result="blurOut2" type="matrix" values="0 0 0 0 0 0 0 0 0 0 0 0 0 0 0 0 0 0 .4 0"/><feOffset dx="4.0" dy="4.0" in="blurOut2" result="blurOut3"/><feBlend in="SourceGraphic" in2="blurOut3" mode="normal"/></filter></defs><g><!--MD5=[da547346deef918ea16944ba046651ef]
class Administrator--><rect codeLine="4" fill="#FEFECE" filter="url(#fr2nzgxfr9ug6)" height="40" id="Administrator" style="stroke:#A80036;stroke-width:1.5;" width="105" x="807.0812" y="7"/><ellipse cx="822.0812" cy="23" fill="#ADD1B2" rx="11" ry="11" style="stroke:#A80036;stroke-width:1.0;"/><path d="M824.0812,19.5 Q824.2844,19 824.5187,18.75 Q824.7531,18.5 825.0187,18.5 Q825.4875,18.5 825.7844,18.7813 Q826.0812,19.0625 826.0812,19.7188 L826.0812,21.2813 Q826.0812,21.9375 825.8,22.2188 Q825.5187,22.5 825.0812,22.5 Q824.6906,22.5 824.4406,22.3281 Q824.1906,22.1563 824.0812,21.7031 Q824.0344,21.3906 823.8625,21.2188 Q823.55,20.8906 822.9875,20.7031 Q822.425,20.5 821.8625,20.5 Q821.1594,20.5 820.5656,20.7813 Q819.9875,21.0625 819.5344,21.6875 Q819.0812,22.3125 819.0812,23.1719 L819.0812,24.0938 Q819.0812,25.125 819.925,25.8125 Q820.7687,26.5 822.2687,26.5 Q823.1594,26.5 823.7844,26.2969 Q824.1437,26.1875 824.55,25.8281 Q824.8156,25.625 824.9562,25.5625 Q825.0969,25.5 825.2687,25.5 Q825.5969,25.5 825.8312,25.7656 Q826.0812,26.0156 826.0812,26.375 Q826.0812,26.7188 825.7375,27.125 Q825.2375,27.7188 824.4406,28.0469 Q823.3937,28.5 822.1125,28.5 Q820.6125,28.5 819.4094,27.9063 Q818.4406,27.4375 817.7531,26.4219 Q817.0812,25.4063 817.0812,24.2031 L817.0812,23.1094 Q817.0812,21.8594 817.675,20.7656 Q818.2844,19.6719 819.3312,19.0938 Q820.3937,18.5 821.5812,18.5 Q822.3,18.5 822.925,18.75 Q823.55,19 824.0812,19.5 Z " fill="#000000"/><text fill="#000000" font-family="sans-serif" font-size="12" lengthAdjust="spacing" textLength="73" x="836.0812" y="27.9102">Administrator</text><line style="stroke:#A80036;stroke-width:1.5;" x1="808.0812" x2="911.0812" y1="39" y2="39"/><!--MD5=[a059576e163b46f56762f12600c49258]
class Nurse--><rect codeLine="7" fill="#FEFECE" filter="url(#fr2nzgxfr9ug6)" height="40" id="Nurse" style="stroke:#A80036;stroke-width:1.5;" width="66" x="366.5812" y="187"/><ellipse cx="381.5812" cy="203" fill="#ADD1B2" rx="11" ry="11" style="stroke:#A80036;stroke-width:1.0;"/><path d="M383.5812,199.5 Q383.7844,199 384.0187,198.75 Q384.2531,198.5 384.5187,198.5 Q384.9875,198.5 385.2844,198.7813 Q385.5812,199.0625 385.5812,199.7188 L385.5812,201.2813 Q385.5812,201.9375 385.3,202.2188 Q385.0187,202.5 384.5812,202.5 Q384.1906,202.5 383.9406,202.3281 Q383.6906,202.1563 383.5812,201.7031 Q383.5344,201.3906 383.3625,201.2188 Q383.05,200.8906 382.4875,200.7031 Q381.925,200.5 381.3625,200.5 Q380.6594,200.5 380.0656,200.7813 Q379.4875,201.0625 379.0344,201.6875 Q378.5812,202.3125 378.5812,203.1719 L378.5812,204.0938 Q378.5812,205.125 379.425,205.8125 Q380.2687,206.5 381.7687,206.5 Q382.6594,206.5 383.2844,206.2969 Q383.6437,206.1875 384.05,205.8281 Q384.3156,205.625 384.4562,205.5625 Q384.5969,205.5 384.7687,205.5 Q385.0969,205.5 385.3312,205.7656 Q385.5812,206.0156 385.5812,206.375 Q385.5812,206.7188 385.2375,207.125 Q384.7375,207.7188 383.9406,208.0469 Q382.8937,208.5 381.6125,208.5 Q380.1125,208.5 378.9094,207.9063 Q377.9406,207.4375 377.2531,206.4219 Q376.5812,205.4063 376.5812,204.2031 L376.5812,203.1094 Q376.5812,201.8594 377.175,200.7656 Q377.7844,199.6719 378.8312,199.0938 Q379.8937,198.5 381.0812,198.5 Q381.8,198.5 382.425,198.75 Q383.05,199 383.5812,199.5 Z " fill="#000000"/><text fill="#000000" font-family="sans-serif" font-size="12" lengthAdjust="spacing" textLength="34" x="395.5812" y="207.9102">Nurse</text><line style="stroke:#A80036;stroke-width:1.5;" x1="367.5812" x2="431.5812" y1="219" y2="219"/><!--MD5=[72be06cc7ae02ccc98efe28a50e62246]
class SNSUser--><rect codeLine="10" fill="#FEFECE" filter="url(#fr2nzgxfr9ug6)" height="40" id="SNSUser" style="stroke:#A80036;stroke-width:1.5;" width="84" x="1016.5812" y="1120"/><ellipse cx="1031.5812" cy="1136" fill="#ADD1B2" rx="11" ry="11" style="stroke:#A80036;stroke-width:1.0;"/><path d="M1033.5812,1132.5 Q1033.7844,1132 1034.0187,1131.75 Q1034.2531,1131.5 1034.5187,1131.5 Q1034.9875,1131.5 1035.2844,1131.7813 Q1035.5812,1132.0625 1035.5812,1132.7188 L1035.5812,1134.2813 Q1035.5812,1134.9375 1035.3,1135.2188 Q1035.0187,1135.5 1034.5812,1135.5 Q1034.1906,1135.5 1033.9406,1135.3281 Q1033.6906,1135.1563 1033.5812,1134.7031 Q1033.5344,1134.3906 1033.3625,1134.2188 Q1033.05,1133.8906 1032.4875,1133.7031 Q1031.925,1133.5 1031.3625,1133.5 Q1030.6594,1133.5 1030.0656,1133.7813 Q1029.4875,1134.0625 1029.0344,1134.6875 Q1028.5812,1135.3125 1028.5812,1136.1719 L1028.5812,1137.0938 Q1028.5812,1138.125 1029.425,1138.8125 Q1030.2687,1139.5 1031.7687,1139.5 Q1032.6594,1139.5 1033.2844,1139.2969 Q1033.6437,1139.1875 1034.05,1138.8281 Q1034.3156,1138.625 1034.4562,1138.5625 Q1034.5969,1138.5 1034.7687,1138.5 Q1035.0969,1138.5 1035.3312,1138.7656 Q1035.5812,1139.0156 1035.5812,1139.375 Q1035.5812,1139.7188 1035.2375,1140.125 Q1034.7375,1140.7188 1033.9406,1141.0469 Q1032.8937,1141.5 1031.6125,1141.5 Q1030.1125,1141.5 1028.9094,1140.9063 Q1027.9406,1140.4375 1027.2531,1139.4219 Q1026.5812,1138.4063 1026.5812,1137.2031 L1026.5812,1136.1094 Q1026.5812,1134.8594 1027.175,1133.7656 Q1027.7844,1132.6719 1028.8312,1132.0938 Q1029.8937,1131.5 1031.0812,1131.5 Q1031.8,1131.5 1032.425,1131.75 Q1033.05,1132 1033.5812,1132.5 Z " fill="#000000"/><text fill="#000000" font-family="sans-serif" font-size="12" lengthAdjust="spacing" textLength="52" x="1045.5812" y="1140.9102">SNSUser</text><line style="stroke:#A80036;stroke-width:1.5;" x1="1017.5812" x2="1099.5812" y1="1152" y2="1152"/><!--MD5=[03960189e81aa2c066c762ffabbee709]
class Receptionist--><rect codeLine="13" fill="#FEFECE" filter="url(#fr2nzgxfr9ug6)" height="40" id="Receptionist" style="stroke:#A80036;stroke-width:1.5;" width="101" x="809.0812" y="187"/><ellipse cx="824.0812" cy="203" fill="#ADD1B2" rx="11" ry="11" style="stroke:#A80036;stroke-width:1.0;"/><path d="M826.0812,199.5 Q826.2844,199 826.5187,198.75 Q826.7531,198.5 827.0187,198.5 Q827.4875,198.5 827.7844,198.7813 Q828.0812,199.0625 828.0812,199.7188 L828.0812,201.2813 Q828.0812,201.9375 827.8,202.2188 Q827.5187,202.5 827.0812,202.5 Q826.6906,202.5 826.4406,202.3281 Q826.1906,202.1563 826.0812,201.7031 Q826.0344,201.3906 825.8625,201.2188 Q825.55,200.8906 824.9875,200.7031 Q824.425,200.5 823.8625,200.5 Q823.1594,200.5 822.5656,200.7813 Q821.9875,201.0625 821.5344,201.6875 Q821.0812,202.3125 821.0812,203.1719 L821.0812,204.0938 Q821.0812,205.125 821.925,205.8125 Q822.7687,206.5 824.2687,206.5 Q825.1594,206.5 825.7844,206.2969 Q826.1437,206.1875 826.55,205.8281 Q826.8156,205.625 826.9562,205.5625 Q827.0969,205.5 827.2687,205.5 Q827.5969,205.5 827.8312,205.7656 Q828.0812,206.0156 828.0812,206.375 Q828.0812,206.7188 827.7375,207.125 Q827.2375,207.7188 826.4406,208.0469 Q825.3937,208.5 824.1125,208.5 Q822.6125,208.5 821.4094,207.9063 Q820.4406,207.4375 819.7531,206.4219 Q819.0812,205.4063 819.0812,204.2031 L819.0812,203.1094 Q819.0812,201.8594 819.675,200.7656 Q820.2844,199.6719 821.3312,199.0938 Q822.3937,198.5 823.5812,198.5 Q824.3,198.5 824.925,198.75 Q825.55,199 826.0812,199.5 Z " fill="#000000"/><text fill="#000000" font-family="sans-serif" font-size="12" lengthAdjust="spacing" textLength="69" x="838.0812" y="207.9102">Receptionist</text><line style="stroke:#A80036;stroke-width:1.5;" x1="810.0812" x2="909.0812" y1="219" y2="219"/><!--MD5=[2d935fd2dd068a13da1ae531f9857c4f]
class CenterCoordinator--><rect codeLine="16" fill="#FEFECE" filter="url(#fr2nzgxfr9ug6)" height="40" id="CenterCoordinator" style="stroke:#A80036;stroke-width:1.5;" width="134" x="1001.5812" y="257"/><ellipse cx="1016.5812" cy="273" fill="#ADD1B2" rx="11" ry="11" style="stroke:#A80036;stroke-width:1.0;"/><path d="M1018.5812,269.5 Q1018.7844,269 1019.0187,268.75 Q1019.2531,268.5 1019.5187,268.5 Q1019.9875,268.5 1020.2844,268.7813 Q1020.5812,269.0625 1020.5812,269.7188 L1020.5812,271.2813 Q1020.5812,271.9375 1020.3,272.2188 Q1020.0187,272.5 1019.5812,272.5 Q1019.1906,272.5 1018.9406,272.3281 Q1018.6906,272.1563 1018.5812,271.7031 Q1018.5344,271.3906 1018.3625,271.2188 Q1018.05,270.8906 1017.4875,270.7031 Q1016.925,270.5 1016.3625,270.5 Q1015.6594,270.5 1015.0656,270.7813 Q1014.4875,271.0625 1014.0344,271.6875 Q1013.5812,272.3125 1013.5812,273.1719 L1013.5812,274.0938 Q1013.5812,275.125 1014.425,275.8125 Q1015.2687,276.5 1016.7687,276.5 Q1017.6594,276.5 1018.2844,276.2969 Q1018.6437,276.1875 1019.05,275.8281 Q1019.3156,275.625 1019.4562,275.5625 Q1019.5969,275.5 1019.7687,275.5 Q1020.0969,275.5 1020.3312,275.7656 Q1020.5812,276.0156 1020.5812,276.375 Q1020.5812,276.7188 1020.2375,277.125 Q1019.7375,277.7188 1018.9406,278.0469 Q1017.8937,278.5 1016.6125,278.5 Q1015.1125,278.5 1013.9094,277.9063 Q1012.9406,277.4375 1012.2531,276.4219 Q1011.5812,275.4063 1011.5812,274.2031 L1011.5812,273.1094 Q1011.5812,271.8594 1012.175,270.7656 Q1012.7844,269.6719 1013.8312,269.0938 Q1014.8937,268.5 1016.0812,268.5 Q1016.8,268.5 1017.425,268.75 Q1018.05,269 1018.5812,269.5 Z " fill="#000000"/><text fill="#000000" font-family="sans-serif" font-size="12" lengthAdjust="spacing" textLength="102" x="1030.5812" y="277.9102">CenterCoordinator</text><line style="stroke:#A80036;stroke-width:1.5;" x1="1002.5812" x2="1134.5812" y1="289" y2="289"/><!--MD5=[1db03e903fe0a044a2ca0dcbef10799a]
class HealthCareCenter--><rect codeLine="19" fill="#FEFECE" filter="url(#fr2nzgxfr9ug6)" height="40" id="HealthCareCenter" style="stroke:#A80036;stroke-width:1.5;" width="132" x="139.5812" y="946.5"/><ellipse cx="154.5812" cy="962.5" fill="#ADD1B2" rx="11" ry="11" style="stroke:#A80036;stroke-width:1.0;"/><path d="M156.5812,959 Q156.7844,958.5 157.0187,958.25 Q157.2531,958 157.5187,958 Q157.9875,958 158.2844,958.2813 Q158.5812,958.5625 158.5812,959.2188 L158.5812,960.7813 Q158.5812,961.4375 158.3,961.7188 Q158.0187,962 157.5812,962 Q157.1906,962 156.9406,961.8281 Q156.6906,961.6563 156.5812,961.2031 Q156.5344,960.8906 156.3625,960.7188 Q156.05,960.3906 155.4875,960.2031 Q154.925,960 154.3625,960 Q153.6594,960 153.0656,960.2813 Q152.4875,960.5625 152.0344,961.1875 Q151.5812,961.8125 151.5812,962.6719 L151.5812,963.5938 Q151.5812,964.625 152.425,965.3125 Q153.2687,966 154.7687,966 Q155.6594,966 156.2844,965.7969 Q156.6437,965.6875 157.05,965.3281 Q157.3156,965.125 157.4562,965.0625 Q157.5969,965 157.7687,965 Q158.0969,965 158.3312,965.2656 Q158.5812,965.5156 158.5812,965.875 Q158.5812,966.2188 158.2375,966.625 Q157.7375,967.2188 156.9406,967.5469 Q155.8937,968 154.6125,968 Q153.1125,968 151.9094,967.4063 Q150.9406,966.9375 150.2531,965.9219 Q149.5812,964.9063 149.5812,963.7031 L149.5812,962.6094 Q149.5812,961.3594 150.175,960.2656 Q150.7844,959.1719 151.8312,958.5938 Q152.8937,958 154.0812,958 Q154.8,958 155.425,958.25 Q156.05,958.5 156.5812,959 Z " fill="#000000"/><text fill="#000000" font-family="sans-serif" font-size="12" lengthAdjust="spacing" textLength="100" x="168.5812" y="967.4102">HealthCareCenter</text><line style="stroke:#A80036;stroke-width:1.5;" x1="140.5812" x2="270.5812" y1="978.5" y2="978.5"/><!--MD5=[02e4b9b7573f1156f41e60aa5b4e25a4]
class Company--><rect codeLine="22" fill="#FEFECE" filter="url(#fr2nzgxfr9ug6)" height="53.8359" id="Company" style="stroke:#A80036;stroke-width:1.5;" width="85" x="1040.0812" y="475"/><ellipse cx="1055.0812" cy="491" fill="#ADD1B2" rx="11" ry="11" style="stroke:#A80036;stroke-width:1.0;"/><path d="M1057.0812,487.5 Q1057.2844,487 1057.5187,486.75 Q1057.7531,486.5 1058.0187,486.5 Q1058.4875,486.5 1058.7844,486.7813 Q1059.0812,487.0625 1059.0812,487.7188 L1059.0812,489.2813 Q1059.0812,489.9375 1058.8,490.2188 Q1058.5187,490.5 1058.0812,490.5 Q1057.6906,490.5 1057.4406,490.3281 Q1057.1906,490.1563 1057.0812,489.7031 Q1057.0344,489.3906 1056.8625,489.2188 Q1056.55,488.8906 1055.9875,488.7031 Q1055.425,488.5 1054.8625,488.5 Q1054.1594,488.5 1053.5656,488.7813 Q1052.9875,489.0625 1052.5344,489.6875 Q1052.0812,490.3125 1052.0812,491.1719 L1052.0812,492.0938 Q1052.0812,493.125 1052.925,493.8125 Q1053.7687,494.5 1055.2687,494.5 Q1056.1594,494.5 1056.7844,494.2969 Q1057.1437,494.1875 1057.55,493.8281 Q1057.8156,493.625 1057.9562,493.5625 Q1058.0969,493.5 1058.2687,493.5 Q1058.5969,493.5 1058.8312,493.7656 Q1059.0812,494.0156 1059.0812,494.375 Q1059.0812,494.7188 1058.7375,495.125 Q1058.2375,495.7188 1057.4406,496.0469 Q1056.3937,496.5 1055.1125,496.5 Q1053.6125,496.5 1052.4094,495.9063 Q1051.4406,495.4375 1050.7531,494.4219 Q1050.0812,493.4063 1050.0812,492.2031 L1050.0812,491.1094 Q1050.0812,489.8594 1050.675,488.7656 Q1051.2844,487.6719 1052.3312,487.0938 Q1053.3937,486.5 1054.5812,486.5 Q1055.3,486.5 1055.925,486.75 Q1056.55,487 1057.0812,487.5 Z " fill="#000000"/><text fill="#000000" font-family="sans-serif" font-size="12" lengthAdjust="spacing" textLength="53" x="1069.0812" y="495.9102">Company</text><line style="stroke:#A80036;stroke-width:1.5;" x1="1041.0812" x2="1124.0812" y1="507" y2="507"/><text fill="#000000" font-family="sans-serif" font-size="11" lengthAdjust="spacing" textLength="59" x="1046.0812" y="522.4189">-designation</text><!--MD5=[9ea49a1aeafb47670c552d4be8173f86]
class MassiveVaccinationCenter--><rect codeLine="26" fill="#FEFECE" filter="url(#fr2nzgxfr9ug6)" height="40" id="MassiveVaccinationCenter" style="stroke:#A80036;stroke-width:1.5;" width="177" x="994.0812" y="676"/><ellipse cx="1009.0812" cy="692" fill="#ADD1B2" rx="11" ry="11" style="stroke:#A80036;stroke-width:1.0;"/><path d="M1011.0812,688.5 Q1011.2844,688 1011.5187,687.75 Q1011.7531,687.5 1012.0187,687.5 Q1012.4875,687.5 1012.7844,687.7813 Q1013.0812,688.0625 1013.0812,688.7188 L1013.0812,690.2813 Q1013.0812,690.9375 1012.8,691.2188 Q1012.5187,691.5 1012.0812,691.5 Q1011.6906,691.5 1011.4406,691.3281 Q1011.1906,691.1563 1011.0812,690.7031 Q1011.0344,690.3906 1010.8625,690.2188 Q1010.55,689.8906 1009.9875,689.7031 Q1009.425,689.5 1008.8625,689.5 Q1008.1594,689.5 1007.5656,689.7813 Q1006.9875,690.0625 1006.5344,690.6875 Q1006.0812,691.3125 1006.0812,692.1719 L1006.0812,693.0938 Q1006.0812,694.125 1006.925,694.8125 Q1007.7687,695.5 1009.2687,695.5 Q1010.1594,695.5 1010.7844,695.2969 Q1011.1437,695.1875 1011.55,694.8281 Q1011.8156,694.625 1011.9562,694.5625 Q1012.0969,694.5 1012.2687,694.5 Q1012.5969,694.5 1012.8312,694.7656 Q1013.0812,695.0156 1013.0812,695.375 Q1013.0812,695.7188 1012.7375,696.125 Q1012.2375,696.7188 1011.4406,697.0469 Q1010.3937,697.5 1009.1125,697.5 Q1007.6125,697.5 1006.4094,696.9063 Q1005.4406,696.4375 1004.7531,695.4219 Q1004.0812,694.4063 1004.0812,693.2031 L1004.0812,692.1094 Q1004.0812,690.8594 1004.675,689.7656 Q1005.2844,688.6719 1006.3312,688.0938 Q1007.3937,687.5 1008.5812,687.5 Q1009.3,687.5 1009.925,687.75 Q1010.55,688 1011.0812,688.5 Z " fill="#000000"/><text fill="#000000" font-family="sans-serif" font-size="12" lengthAdjust="spacing" textLength="145" x="1023.0812" y="696.9102">MassiveVaccinationCenter</text><line style="stroke:#A80036;stroke-width:1.5;" x1="995.0812" x2="1170.0812" y1="708" y2="708"/><!--MD5=[ae27ab334c9ca5f6a013ce0b55b99b8c]
class CovidDigitalCertificate--><rect codeLine="29" fill="#FEFECE" filter="url(#fr2nzgxfr9ug6)" height="40" id="CovidDigitalCertificate" style="stroke:#A80036;stroke-width:1.5;" width="153" x="747.0812" y="946.5"/><ellipse cx="762.0812" cy="962.5" fill="#ADD1B2" rx="11" ry="11" style="stroke:#A80036;stroke-width:1.0;"/><path d="M764.0812,959 Q764.2844,958.5 764.5187,958.25 Q764.7531,958 765.0187,958 Q765.4875,958 765.7844,958.2813 Q766.0812,958.5625 766.0812,959.2188 L766.0812,960.7813 Q766.0812,961.4375 765.8,961.7188 Q765.5187,962 765.0812,962 Q764.6906,962 764.4406,961.8281 Q764.1906,961.6563 764.0812,961.2031 Q764.0344,960.8906 763.8625,960.7188 Q763.55,960.3906 762.9875,960.2031 Q762.425,960 761.8625,960 Q761.1594,960 760.5656,960.2813 Q759.9875,960.5625 759.5344,961.1875 Q759.0812,961.8125 759.0812,962.6719 L759.0812,963.5938 Q759.0812,964.625 759.925,965.3125 Q760.7687,966 762.2687,966 Q763.1594,966 763.7844,965.7969 Q764.1437,965.6875 764.55,965.3281 Q764.8156,965.125 764.9562,965.0625 Q765.0969,965 765.2687,965 Q765.5969,965 765.8312,965.2656 Q766.0812,965.5156 766.0812,965.875 Q766.0812,966.2188 765.7375,966.625 Q765.2375,967.2188 764.4406,967.5469 Q763.3937,968 762.1125,968 Q760.6125,968 759.4094,967.4063 Q758.4406,966.9375 757.7531,965.9219 Q757.0812,964.9063 757.0812,963.7031 L757.0812,962.6094 Q757.0812,961.3594 757.675,960.2656 Q758.2844,959.1719 759.3312,958.5938 Q760.3937,958 761.5812,958 Q762.3,958 762.925,958.25 Q763.55,958.5 764.0812,959 Z " fill="#000000"/><text fill="#000000" font-family="sans-serif" font-size="12" lengthAdjust="spacing" textLength="121" x="776.0812" y="967.4102">CovidDigitalCertificate</text><line style="stroke:#A80036;stroke-width:1.5;" x1="748.0812" x2="899.0812" y1="978.5" y2="978.5"/><!--MD5=[335f4d9be48430461c68bf6d6fdba145]
class App--><rect codeLine="32" fill="#FEFECE" filter="url(#fr2nzgxfr9ug6)" height="40" id="App" style="stroke:#A80036;stroke-width:1.5;" width="53" x="491.0812" y="794"/><ellipse cx="506.0812" cy="810" fill="#ADD1B2" rx="11" ry="11" style="stroke:#A80036;stroke-width:1.0;"/><path d="M508.0812,806.5 Q508.2844,806 508.5187,805.75 Q508.7531,805.5 509.0187,805.5 Q509.4875,805.5 509.7844,805.7813 Q510.0812,806.0625 510.0812,806.7188 L510.0812,808.2813 Q510.0812,808.9375 509.8,809.2188 Q509.5187,809.5 509.0812,809.5 Q508.6906,809.5 508.4406,809.3281 Q508.1906,809.1563 508.0812,808.7031 Q508.0344,808.3906 507.8625,808.2188 Q507.55,807.8906 506.9875,807.7031 Q506.425,807.5 505.8625,807.5 Q505.1594,807.5 504.5656,807.7813 Q503.9875,808.0625 503.5344,808.6875 Q503.0812,809.3125 503.0812,810.1719 L503.0812,811.0938 Q503.0812,812.125 503.925,812.8125 Q504.7687,813.5 506.2687,813.5 Q507.1594,813.5 507.7844,813.2969 Q508.1437,813.1875 508.55,812.8281 Q508.8156,812.625 508.9562,812.5625 Q509.0969,812.5 509.2687,812.5 Q509.5969,812.5 509.8312,812.7656 Q510.0812,813.0156 510.0812,813.375 Q510.0812,813.7188 509.7375,814.125 Q509.2375,814.7188 508.4406,815.0469 Q507.3937,815.5 506.1125,815.5 Q504.6125,815.5 503.4094,814.9063 Q502.4406,814.4375 501.7531,813.4219 Q501.0812,812.4063 501.0812,811.2031 L501.0812,810.1094 Q501.0812,808.8594 501.675,807.7656 Q502.2844,806.6719 503.3312,806.0938 Q504.3937,805.5 505.5812,805.5 Q506.3,805.5 506.925,805.75 Q507.55,806 508.0812,806.5 Z " fill="#000000"/><text fill="#000000" font-family="sans-serif" font-size="12" lengthAdjust="spacing" textLength="21" x="520.0812" y="814.9102">App</text><line style="stroke:#A80036;stroke-width:1.5;" x1="492.0812" x2="543.0812" y1="826" y2="826"/><!--MD5=[35b584b1cc5a5643474015f373c930e7]
class SMSMessage--><rect codeLine="35" fill="#FEFECE" filter="url(#fr2nzgxfr9ug6)" height="67.6719" id="SMSMessage" style="stroke:#A80036;stroke-width:1.5;" width="129" x="935.0812" y="932.5"/><ellipse cx="959.5312" cy="948.5" fill="#ADD1B2" rx="11" ry="11" style="stroke:#A80036;stroke-width:1.0;"/><path d="M961.5312,945 Q961.7344,944.5 961.9687,944.25 Q962.2031,944 962.4687,944 Q962.9375,944 963.2344,944.2813 Q963.5312,944.5625 963.5312,945.2188 L963.5312,946.7813 Q963.5312,947.4375 963.25,947.7188 Q962.9687,948 962.5312,948 Q962.1406,948 961.8906,947.8281 Q961.6406,947.6563 961.5312,947.2031 Q961.4844,946.8906 961.3125,946.7188 Q961,946.3906 960.4375,946.2031 Q959.875,946 959.3125,946 Q958.6094,946 958.0156,946.2813 Q957.4375,946.5625 956.9844,947.1875 Q956.5312,947.8125 956.5312,948.6719 L956.5312,949.5938 Q956.5312,950.625 957.375,951.3125 Q958.2187,952 959.7187,952 Q960.6094,952 961.2344,951.7969 Q961.5937,951.6875 962,951.3281 Q962.2656,951.125 962.4062,951.0625 Q962.5469,951 962.7187,951 Q963.0469,951 963.2812,951.2656 Q963.5312,951.5156 963.5312,951.875 Q963.5312,952.2188 963.1875,952.625 Q962.6875,953.2188 961.8906,953.5469 Q960.8437,954 959.5625,954 Q958.0625,954 956.8594,953.4063 Q955.8906,952.9375 955.2031,951.9219 Q954.5312,950.9063 954.5312,949.7031 L954.5312,948.6094 Q954.5312,947.3594 955.125,946.2656 Q955.7344,945.1719 956.7812,944.5938 Q957.8437,944 959.0312,944 Q959.75,944 960.375,944.25 Q961,944.5 961.5312,945 Z " fill="#000000"/><text fill="#000000" font-family="sans-serif" font-size="12" lengthAdjust="spacing" textLength="76" x="975.6312" y="953.4102">SMSMessage</text><line style="stroke:#A80036;stroke-width:1.5;" x1="936.0812" x2="1063.0812" y1="964.5" y2="964.5"/><text fill="#000000" font-family="sans-serif" font-size="11" lengthAdjust="spacing" textLength="117" x="941.0812" y="979.9189">-informationAppointment</text><text fill="#000000" font-family="sans-serif" font-size="11" lengthAdjust="spacing" textLength="70" x="941.0812" y="993.7549">-timeRecovery</text><!--MD5=[ff8178074f81ca799b3d9493f422ea40]
class EmailMessage--><rect codeLine="40" fill="#FEFECE" filter="url(#fr2nzgxfr9ug6)" height="67.6719" id="EmailMessage" style="stroke:#A80036;stroke-width:1.5;" width="129" x="307.0812" y="932.5"/><ellipse cx="328.3812" cy="948.5" fill="#ADD1B2" rx="11" ry="11" style="stroke:#A80036;stroke-width:1.0;"/><path d="M330.3812,945 Q330.5844,944.5 330.8187,944.25 Q331.0531,944 331.3187,944 Q331.7875,944 332.0844,944.2813 Q332.3812,944.5625 332.3812,945.2188 L332.3812,946.7813 Q332.3812,947.4375 332.1,947.7188 Q331.8187,948 331.3812,948 Q330.9906,948 330.7406,947.8281 Q330.4906,947.6563 330.3812,947.2031 Q330.3344,946.8906 330.1625,946.7188 Q329.85,946.3906 329.2875,946.2031 Q328.725,946 328.1625,946 Q327.4594,946 326.8656,946.2813 Q326.2875,946.5625 325.8344,947.1875 Q325.3812,947.8125 325.3812,948.6719 L325.3812,949.5938 Q325.3812,950.625 326.225,951.3125 Q327.0687,952 328.5687,952 Q329.4594,952 330.0844,951.7969 Q330.4437,951.6875 330.85,951.3281 Q331.1156,951.125 331.2562,951.0625 Q331.3969,951 331.5687,951 Q331.8969,951 332.1312,951.2656 Q332.3812,951.5156 332.3812,951.875 Q332.3812,952.2188 332.0375,952.625 Q331.5375,953.2188 330.7406,953.5469 Q329.6937,954 328.4125,954 Q326.9125,954 325.7094,953.4063 Q324.7406,952.9375 324.0531,951.9219 Q323.3812,950.9063 323.3812,949.7031 L323.3812,948.6094 Q323.3812,947.3594 323.975,946.2656 Q324.5844,945.1719 325.6312,944.5938 Q326.6937,944 327.8812,944 Q328.6,944 329.225,944.25 Q329.85,944.5 330.3812,945 Z " fill="#000000"/><text fill="#000000" font-family="sans-serif" font-size="12" lengthAdjust="spacing" textLength="83" x="343.7812" y="953.4102">EmailMessage</text><line style="stroke:#A80036;stroke-width:1.5;" x1="308.0812" x2="435.0812" y1="964.5" y2="964.5"/><text fill="#000000" font-family="sans-serif" font-size="11" lengthAdjust="spacing" textLength="117" x="313.0812" y="979.9189">-informationAppointment</text><text fill="#000000" font-family="sans-serif" font-size="11" lengthAdjust="spacing" textLength="70" x="313.0812" y="993.7549">-timeRecovery</text><!--MD5=[19e445fc4d3b48519cbe33da05496394]
class Vaccine--><rect codeLine="45" fill="#FEFECE" filter="url(#fr2nzgxfr9ug6)" height="67.6719" id="Vaccine" style="stroke:#A80036;stroke-width:1.5;" width="81" x="90.0812" y="1242"/><ellipse cx="107.7812" cy="1258" fill="#ADD1B2" rx="11" ry="11" style="stroke:#A80036;stroke-width:1.0;"/><path d="M109.7812,1254.5 Q109.9844,1254 110.2187,1253.75 Q110.4531,1253.5 110.7187,1253.5 Q111.1875,1253.5 111.4844,1253.7813 Q111.7812,1254.0625 111.7812,1254.7188 L111.7812,1256.2813 Q111.7812,1256.9375 111.5,1257.2188 Q111.2187,1257.5 110.7812,1257.5 Q110.3906,1257.5 110.1406,1257.3281 Q109.8906,1257.1563 109.7812,1256.7031 Q109.7344,1256.3906 109.5625,1256.2188 Q109.25,1255.8906 108.6875,1255.7031 Q108.125,1255.5 107.5625,1255.5 Q106.8594,1255.5 106.2656,1255.7813 Q105.6875,1256.0625 105.2344,1256.6875 Q104.7812,1257.3125 104.7812,1258.1719 L104.7812,1259.0938 Q104.7812,1260.125 105.625,1260.8125 Q106.4687,1261.5 107.9687,1261.5 Q108.8594,1261.5 109.4844,1261.2969 Q109.8437,1261.1875 110.25,1260.8281 Q110.5156,1260.625 110.6562,1260.5625 Q110.7969,1260.5 110.9687,1260.5 Q111.2969,1260.5 111.5312,1260.7656 Q111.7812,1261.0156 111.7812,1261.375 Q111.7812,1261.7188 111.4375,1262.125 Q110.9375,1262.7188 110.1406,1263.0469 Q109.0937,1263.5 107.8125,1263.5 Q106.3125,1263.5 105.1094,1262.9063 Q104.1406,1262.4375 103.4531,1261.4219 Q102.7812,1260.4063 102.7812,1259.2031 L102.7812,1258.1094 Q102.7812,1256.8594 103.375,1255.7656 Q103.9844,1254.6719 105.0312,1254.0938 Q106.0937,1253.5 107.2812,1253.5 Q108,1253.5 108.625,1253.75 Q109.25,1254 109.7812,1254.5 Z " fill="#000000"/><text fill="#000000" font-family="sans-serif" font-size="12" lengthAdjust="spacing" textLength="43" x="122.3812" y="1262.9102">Vaccine</text><line style="stroke:#A80036;stroke-width:1.5;" x1="91.0812" x2="170.0812" y1="1274" y2="1274"/><text fill="#000000" font-family="sans-serif" font-size="11" lengthAdjust="spacing" textLength="69" x="96.0812" y="1289.4189">-vaccineName</text><text fill="#000000" font-family="sans-serif" font-size="11" lengthAdjust="spacing" textLength="15" x="96.0812" y="1303.2549">-lot</text><!--MD5=[0e501da62322464167c8ec4d233a6b7e]
class VaccineType--><rect codeLine="50" fill="#FEFECE" filter="url(#fr2nzgxfr9ug6)" height="81.5078" id="VaccineType" style="stroke:#A80036;stroke-width:1.5;" width="101" x="1022.0812" y="1388"/><ellipse cx="1037.0812" cy="1404" fill="#ADD1B2" rx="11" ry="11" style="stroke:#A80036;stroke-width:1.0;"/><path d="M1039.0812,1400.5 Q1039.2844,1400 1039.5187,1399.75 Q1039.7531,1399.5 1040.0187,1399.5 Q1040.4875,1399.5 1040.7844,1399.7813 Q1041.0812,1400.0625 1041.0812,1400.7188 L1041.0812,1402.2813 Q1041.0812,1402.9375 1040.8,1403.2188 Q1040.5187,1403.5 1040.0812,1403.5 Q1039.6906,1403.5 1039.4406,1403.3281 Q1039.1906,1403.1563 1039.0812,1402.7031 Q1039.0344,1402.3906 1038.8625,1402.2188 Q1038.55,1401.8906 1037.9875,1401.7031 Q1037.425,1401.5 1036.8625,1401.5 Q1036.1594,1401.5 1035.5656,1401.7813 Q1034.9875,1402.0625 1034.5344,1402.6875 Q1034.0812,1403.3125 1034.0812,1404.1719 L1034.0812,1405.0938 Q1034.0812,1406.125 1034.925,1406.8125 Q1035.7687,1407.5 1037.2687,1407.5 Q1038.1594,1407.5 1038.7844,1407.2969 Q1039.1437,1407.1875 1039.55,1406.8281 Q1039.8156,1406.625 1039.9562,1406.5625 Q1040.0969,1406.5 1040.2687,1406.5 Q1040.5969,1406.5 1040.8312,1406.7656 Q1041.0812,1407.0156 1041.0812,1407.375 Q1041.0812,1407.7188 1040.7375,1408.125 Q1040.2375,1408.7188 1039.4406,1409.0469 Q1038.3937,1409.5 1037.1125,1409.5 Q1035.6125,1409.5 1034.4094,1408.9063 Q1033.4406,1408.4375 1032.7531,1407.4219 Q1032.0812,1406.4063 1032.0812,1405.2031 L1032.0812,1404.1094 Q1032.0812,1402.8594 1032.675,1401.7656 Q1033.2844,1400.6719 1034.3312,1400.0938 Q1035.3937,1399.5 1036.5812,1399.5 Q1037.3,1399.5 1037.925,1399.75 Q1038.55,1400 1039.0812,1400.5 Z " fill="#000000"/><text fill="#000000" font-family="sans-serif" font-size="12" lengthAdjust="spacing" textLength="69" x="1051.0812" y="1408.9102">VaccineType</text><line style="stroke:#A80036;stroke-width:1.5;" x1="1023.0812" x2="1122.0812" y1="1420" y2="1420"/><text fill="#000000" font-family="sans-serif" font-size="11" lengthAdjust="spacing" textLength="52" x="1028.0812" y="1435.4189">-ageGroup</text><text fill="#000000" font-family="sans-serif" font-size="11" lengthAdjust="spacing" textLength="28" x="1028.0812" y="1449.2549">-dose</text><text fill="#000000" font-family="sans-serif" font-size="11" lengthAdjust="spacing" textLength="79" x="1028.0812" y="1463.0908">-vaccineDosage</text><!--MD5=[8fdfefe237645151c947b814b3595f6b]
class VaccineTime--><rect codeLine="56" fill="#FEFECE" filter="url(#fr2nzgxfr9ug6)" height="53.8359" id="VaccineTime" style="stroke:#A80036;stroke-width:1.5;" width="104" x="78.5812" y="1402"/><ellipse cx="94.0312" cy="1418" fill="#ADD1B2" rx="11" ry="11" style="stroke:#A80036;stroke-width:1.0;"/><path d="M96.0312,1414.5 Q96.2344,1414 96.4687,1413.75 Q96.7031,1413.5 96.9687,1413.5 Q97.4375,1413.5 97.7344,1413.7813 Q98.0312,1414.0625 98.0312,1414.7188 L98.0312,1416.2813 Q98.0312,1416.9375 97.75,1417.2188 Q97.4687,1417.5 97.0312,1417.5 Q96.6406,1417.5 96.3906,1417.3281 Q96.1406,1417.1563 96.0312,1416.7031 Q95.9844,1416.3906 95.8125,1416.2188 Q95.5,1415.8906 94.9375,1415.7031 Q94.375,1415.5 93.8125,1415.5 Q93.1094,1415.5 92.5156,1415.7813 Q91.9375,1416.0625 91.4844,1416.6875 Q91.0312,1417.3125 91.0312,1418.1719 L91.0312,1419.0938 Q91.0312,1420.125 91.875,1420.8125 Q92.7187,1421.5 94.2187,1421.5 Q95.1094,1421.5 95.7344,1421.2969 Q96.0937,1421.1875 96.5,1420.8281 Q96.7656,1420.625 96.9062,1420.5625 Q97.0469,1420.5 97.2187,1420.5 Q97.5469,1420.5 97.7812,1420.7656 Q98.0312,1421.0156 98.0312,1421.375 Q98.0312,1421.7188 97.6875,1422.125 Q97.1875,1422.7188 96.3906,1423.0469 Q95.3437,1423.5 94.0625,1423.5 Q92.5625,1423.5 91.3594,1422.9063 Q90.3906,1422.4375 89.7031,1421.4219 Q89.0312,1420.4063 89.0312,1419.2031 L89.0312,1418.1094 Q89.0312,1416.8594 89.625,1415.7656 Q90.2344,1414.6719 91.2812,1414.0938 Q92.3437,1413.5 93.5312,1413.5 Q94.25,1413.5 94.875,1413.75 Q95.5,1414 96.0312,1414.5 Z " fill="#000000"/><text fill="#000000" font-family="sans-serif" font-size="12" lengthAdjust="spacing" textLength="71" x="108.1312" y="1422.9102">VaccineTime</text><line style="stroke:#A80036;stroke-width:1.5;" x1="79.5812" x2="181.5812" y1="1434" y2="1434"/><text fill="#000000" font-family="sans-serif" font-size="11" lengthAdjust="spacing" textLength="92" x="84.5812" y="1449.4189">-timeBetweenDose</text><!--MD5=[d7022902071f40c2412e2b7c9d78fdd8]
class CheckCenterCapacity--><rect codeLine="60" fill="#FEFECE" filter="url(#fr2nzgxfr9ug6)" height="81.5078" id="CheckCenterCapacity" style="stroke:#A80036;stroke-width:1.5;" width="151" x="459.0812" y="1099"/><ellipse cx="474.0812" cy="1115" fill="#ADD1B2" rx="11" ry="11" style="stroke:#A80036;stroke-width:1.0;"/><path d="M476.0812,1111.5 Q476.2844,1111 476.5187,1110.75 Q476.7531,1110.5 477.0187,1110.5 Q477.4875,1110.5 477.7844,1110.7813 Q478.0812,1111.0625 478.0812,1111.7188 L478.0812,1113.2813 Q478.0812,1113.9375 477.8,1114.2188 Q477.5187,1114.5 477.0812,1114.5 Q476.6906,1114.5 476.4406,1114.3281 Q476.1906,1114.1563 476.0812,1113.7031 Q476.0344,1113.3906 475.8625,1113.2188 Q475.55,1112.8906 474.9875,1112.7031 Q474.425,1112.5 473.8625,1112.5 Q473.1594,1112.5 472.5656,1112.7813 Q471.9875,1113.0625 471.5344,1113.6875 Q471.0812,1114.3125 471.0812,1115.1719 L471.0812,1116.0938 Q471.0812,1117.125 471.925,1117.8125 Q472.7687,1118.5 474.2687,1118.5 Q475.1594,1118.5 475.7844,1118.2969 Q476.1437,1118.1875 476.55,1117.8281 Q476.8156,1117.625 476.9562,1117.5625 Q477.0969,1117.5 477.2687,1117.5 Q477.5969,1117.5 477.8312,1117.7656 Q478.0812,1118.0156 478.0812,1118.375 Q478.0812,1118.7188 477.7375,1119.125 Q477.2375,1119.7188 476.4406,1120.0469 Q475.3937,1120.5 474.1125,1120.5 Q472.6125,1120.5 471.4094,1119.9063 Q470.4406,1119.4375 469.7531,1118.4219 Q469.0812,1117.4063 469.0812,1116.2031 L469.0812,1115.1094 Q469.0812,1113.8594 469.675,1112.7656 Q470.2844,1111.6719 471.3312,1111.0938 Q472.3937,1110.5 473.5812,1110.5 Q474.3,1110.5 474.925,1110.75 Q475.55,1111 476.0812,1111.5 Z " fill="#000000"/><text fill="#000000" font-family="sans-serif" font-size="12" lengthAdjust="spacing" textLength="119" x="488.0812" y="1119.9102">CheckCenterCapacity</text><line style="stroke:#A80036;stroke-width:1.5;" x1="460.0812" x2="609.0812" y1="1131" y2="1131"/><text fill="#000000" font-family="sans-serif" font-size="11" lengthAdjust="spacing" textLength="77" x="465.0812" y="1146.4189">-centerCapacity</text><text fill="#000000" font-family="sans-serif" font-size="11" lengthAdjust="spacing" textLength="25" x="465.0812" y="1160.2549">-date</text><text fill="#000000" font-family="sans-serif" font-size="11" lengthAdjust="spacing" textLength="23" x="465.0812" y="1174.0908">-time</text><!--MD5=[8d21a970f1bd1e0e0584d0ecf91221be]
class ScheduleVaccine--><rect codeLine="66" fill="#FEFECE" filter="url(#fr2nzgxfr9ug6)" height="109.1797" id="ScheduleVaccine" style="stroke:#A80036;stroke-width:1.5;" width="127" x="471.0812" y="912"/><ellipse cx="486.0812" cy="928" fill="#ADD1B2" rx="11" ry="11" style="stroke:#A80036;stroke-width:1.0;"/><path d="M488.0812,924.5 Q488.2844,924 488.5187,923.75 Q488.7531,923.5 489.0187,923.5 Q489.4875,923.5 489.7844,923.7813 Q490.0812,924.0625 490.0812,924.7188 L490.0812,926.2813 Q490.0812,926.9375 489.8,927.2188 Q489.5187,927.5 489.0812,927.5 Q488.6906,927.5 488.4406,927.3281 Q488.1906,927.1563 488.0812,926.7031 Q488.0344,926.3906 487.8625,926.2188 Q487.55,925.8906 486.9875,925.7031 Q486.425,925.5 485.8625,925.5 Q485.1594,925.5 484.5656,925.7813 Q483.9875,926.0625 483.5344,926.6875 Q483.0812,927.3125 483.0812,928.1719 L483.0812,929.0938 Q483.0812,930.125 483.925,930.8125 Q484.7687,931.5 486.2687,931.5 Q487.1594,931.5 487.7844,931.2969 Q488.1437,931.1875 488.55,930.8281 Q488.8156,930.625 488.9562,930.5625 Q489.0969,930.5 489.2687,930.5 Q489.5969,930.5 489.8312,930.7656 Q490.0812,931.0156 490.0812,931.375 Q490.0812,931.7188 489.7375,932.125 Q489.2375,932.7188 488.4406,933.0469 Q487.3937,933.5 486.1125,933.5 Q484.6125,933.5 483.4094,932.9063 Q482.4406,932.4375 481.7531,931.4219 Q481.0812,930.4063 481.0812,929.2031 L481.0812,928.1094 Q481.0812,926.8594 481.675,925.7656 Q482.2844,924.6719 483.3312,924.0938 Q484.3937,923.5 485.5812,923.5 Q486.3,923.5 486.925,923.75 Q487.55,924 488.0812,924.5 Z " fill="#000000"/><text fill="#000000" font-family="sans-serif" font-size="12" lengthAdjust="spacing" textLength="95" x="500.0812" y="932.9102">ScheduleVaccine</text><line style="stroke:#A80036;stroke-width:1.5;" x1="472.0812" x2="597.0812" y1="944" y2="944"/><text fill="#000000" font-family="sans-serif" font-size="11" lengthAdjust="spacing" textLength="84" x="477.0812" y="959.4189">-userNumberSNS</text><text fill="#000000" font-family="sans-serif" font-size="11" lengthAdjust="spacing" textLength="91" x="477.0812" y="973.2549">-vaccinationCenter</text><text fill="#000000" font-family="sans-serif" font-size="11" lengthAdjust="spacing" textLength="25" x="477.0812" y="987.0908">-date</text><text fill="#000000" font-family="sans-serif" font-size="11" lengthAdjust="spacing" textLength="23" x="477.0812" y="1000.9268">-time</text><text fill="#000000" font-family="sans-serif" font-size="11" lengthAdjust="spacing" textLength="77" x="477.0812" y="1014.7627">-typeOfVaccine</text><!--MD5=[de60e6d4f424ae4d0522096f76a59010]
class VaccinationCenter--><rect codeLine="74" fill="#FEFECE" filter="url(#fr2nzgxfr9ug6)" height="192.1953" id="VaccinationCenter" style="stroke:#A80036;stroke-width:1.5;" width="132" x="451.5812" y="406"/><ellipse cx="466.5812" cy="422" fill="#ADD1B2" rx="11" ry="11" style="stroke:#A80036;stroke-width:1.0;"/><path d="M468.5812,418.5 Q468.7844,418 469.0187,417.75 Q469.2531,417.5 469.5187,417.5 Q469.9875,417.5 470.2844,417.7813 Q470.5812,418.0625 470.5812,418.7188 L470.5812,420.2813 Q470.5812,420.9375 470.3,421.2188 Q470.0187,421.5 469.5812,421.5 Q469.1906,421.5 468.9406,421.3281 Q468.6906,421.1563 468.5812,420.7031 Q468.5344,420.3906 468.3625,420.2188 Q468.05,419.8906 467.4875,419.7031 Q466.925,419.5 466.3625,419.5 Q465.6594,419.5 465.0656,419.7813 Q464.4875,420.0625 464.0344,420.6875 Q463.5812,421.3125 463.5812,422.1719 L463.5812,423.0938 Q463.5812,424.125 464.425,424.8125 Q465.2687,425.5 466.7687,425.5 Q467.6594,425.5 468.2844,425.2969 Q468.6437,425.1875 469.05,424.8281 Q469.3156,424.625 469.4562,424.5625 Q469.5969,424.5 469.7687,424.5 Q470.0969,424.5 470.3312,424.7656 Q470.5812,425.0156 470.5812,425.375 Q470.5812,425.7188 470.2375,426.125 Q469.7375,426.7188 468.9406,427.0469 Q467.8937,427.5 466.6125,427.5 Q465.1125,427.5 463.9094,426.9063 Q462.9406,426.4375 462.2531,425.4219 Q461.5812,424.4063 461.5812,423.2031 L461.5812,422.1094 Q461.5812,420.8594 462.175,419.7656 Q462.7844,418.6719 463.8312,418.0938 Q464.8937,417.5 466.0812,417.5 Q466.8,417.5 467.425,417.75 Q468.05,418 468.5812,418.5 Z " fill="#000000"/><text fill="#000000" font-family="sans-serif" font-size="12" lengthAdjust="spacing" textLength="100" x="480.5812" y="426.9102">VaccinationCenter</text><line style="stroke:#A80036;stroke-width:1.5;" x1="452.5812" x2="582.5812" y1="438" y2="438"/><text fill="#000000" font-family="sans-serif" font-size="11" lengthAdjust="spacing" textLength="30" x="457.5812" y="453.4189">-name</text><text fill="#000000" font-family="sans-serif" font-size="11" lengthAdjust="spacing" textLength="44" x="457.5812" y="467.2549">-address</text><text fill="#000000" font-family="sans-serif" font-size="11" lengthAdjust="spacing" textLength="70" x="457.5812" y="481.0908">-emailAddress</text><text fill="#000000" font-family="sans-serif" font-size="11" lengthAdjust="spacing" textLength="71" x="457.5812" y="494.9268">-phoneNumber</text><text fill="#000000" font-family="sans-serif" font-size="11" lengthAdjust="spacing" textLength="57" x="457.5812" y="508.7627">-faxNumber</text><text fill="#000000" font-family="sans-serif" font-size="11" lengthAdjust="spacing" textLength="85" x="457.5812" y="522.5986">-websiteAddress</text><text fill="#000000" font-family="sans-serif" font-size="11" lengthAdjust="spacing" textLength="71" x="457.5812" y="536.4346">-openingHours</text><text fill="#000000" font-family="sans-serif" font-size="11" lengthAdjust="spacing" textLength="67" x="457.5812" y="550.2705">-closingHours</text><text fill="#000000" font-family="sans-serif" font-size="11" lengthAdjust="spacing" textLength="61" x="457.5812" y="564.1064">-slotDuration</text><text fill="#000000" font-family="sans-serif" font-size="11" lengthAdjust="spacing" textLength="70" x="457.5812" y="577.9424">-maxVaccines</text><text fill="#000000" font-family="sans-serif" font-size="11" lengthAdjust="spacing" textLength="59" x="457.5812" y="591.7783">-coordinator</text><!--MD5=[e2ddcc32583ff1a2f6fdd8d9fe473f71]
link Administrator to Nurse--><path codeLine="88" d="M807.0112,29.86 C734.6212,33.56 600.7912,44.57 491.5812,77 C460.9012,86.11 447.1312,83.46 426.5812,108 C407.6512,130.59 401.9312,165.41 400.2412,186.89 " fill="none" id="Administrator-Nurse" style="stroke:#A80036;stroke-width:1.0;"/><polygon fill="#000000" points="426.9167,118.9765,436.4133,118.4607,434.2965,112.9773,426.9167,118.9765" style="stroke:#000000;stroke-width:1.0;"/><text fill="#000000" font-family="sans-serif" font-size="13" lengthAdjust="spacing" textLength="50" x="440.5812" y="122.4951">registers</text><text fill="#000000" font-family="sans-serif" font-size="13" lengthAdjust="spacing" textLength="7" x="792.1264" y="26.657">1</text><text fill="#000000" font-family="sans-serif" font-size="13" lengthAdjust="spacing" textLength="5" x="394.7007" y="176.1794">*</text><!--MD5=[e7c2f1214fae8a9df196b8270f12b77f]
link Administrator to CenterCoordinator--><path codeLine="89" d="M877.6112,47.11 C892.5812,63.14 914.3212,86.76 932.5812,108 C977.9612,160.79 1028.9812,225.28 1053.6412,256.8 " fill="none" id="Administrator-CenterCoordinator" style="stroke:#A80036;stroke-width:1.0;"/><polygon fill="#000000" points="955.796,121.0053,952.2314,112.188,947.7295,115.9672,955.796,121.0053" style="stroke:#000000;stroke-width:1.0;"/><text fill="#000000" font-family="sans-serif" font-size="13" lengthAdjust="spacing" textLength="50" x="961.5812" y="122.4951">registers</text><text fill="#000000" font-family="sans-serif" font-size="13" lengthAdjust="spacing" textLength="7" x="874.6978" y="68.5605">1</text><text fill="#000000" font-family="sans-serif" font-size="13" lengthAdjust="spacing" textLength="5" x="1043.5182" y="246.063">*</text><!--MD5=[64c52275ea9d22bde431e3436d41be0c]
link Administrator to Receptionist--><path codeLine="90" d="M859.5812,47.05 C859.5812,81.22 859.5812,152.55 859.5812,186.82 " fill="none" id="Administrator-Receptionist" style="stroke:#A80036;stroke-width:1.0;"/><polygon fill="#000000" points="864.5812,122.1758,867.5202,113.1307,861.6423,113.1307,864.5812,122.1758" style="stroke:#000000;stroke-width:1.0;"/><text fill="#000000" font-family="sans-serif" font-size="13" lengthAdjust="spacing" textLength="50" x="873.5812" y="122.4951">registers</text><text fill="#000000" font-family="sans-serif" font-size="13" lengthAdjust="spacing" textLength="7" x="851.5969" y="68.4836">1</text><text fill="#000000" font-family="sans-serif" font-size="13" lengthAdjust="spacing" textLength="5" x="853.8469" y="176.0889">*</text><!--MD5=[2b5fc2dce8eec1aafb1a3721aa50d3a4]
link Administrator to SNSUser--><path codeLine="91" d="M912.2712,28.22 C1024.2112,30.12 1275.5812,42.55 1275.5812,116 C1275.5812,116 1275.5812,116 1275.5812,967.5 C1275.5812,1055.73 1163.7812,1105.66 1100.6812,1126.81 " fill="none" id="Administrator-SNSUser" style="stroke:#A80036;stroke-width:1.0;"/><polygon fill="#000000" points="1281.4264,507.1038,1282.7941,497.6921,1277.0009,498.6857,1281.4264,507.1038" style="stroke:#000000;stroke-width:1.0;"/><text fill="#000000" font-family="sans-serif" font-size="13" lengthAdjust="spacing" textLength="50" x="1289.5812" y="507.4951">registers</text><text fill="#000000" font-family="sans-serif" font-size="13" lengthAdjust="spacing" textLength="7" x="920.173" y="24.7864">1</text><text fill="#000000" font-family="sans-serif" font-size="13" lengthAdjust="spacing" textLength="5" x="1108.6256" y="1120.562">*</text><!--MD5=[d497e8607f1e7b3d570c70d67196006d]
link Administrator to VaccinationCenter--><path codeLine="92" d="M806.8912,30.66 C710.9612,36.97 517.5812,56.99 517.5812,116 C517.5812,116 517.5812,116 517.5812,337 C517.5812,359.21 517.5812,383.11 517.5812,405.61 " fill="none" id="Administrator-VaccinationCenter" style="stroke:#A80036;stroke-width:1.0;"/><polygon fill="#000000" points="519.5268,211.1344,527.3791,205.7686,522.7255,202.1779,519.5268,211.1344" style="stroke:#000000;stroke-width:1.0;"/><text fill="#000000" font-family="sans-serif" font-size="13" lengthAdjust="spacing" textLength="50" x="531.5812" y="212.4951">registers</text><text fill="#000000" font-family="sans-serif" font-size="13" lengthAdjust="spacing" textLength="7" x="791.9895" y="45.8195">1</text><text fill="#000000" font-family="sans-serif" font-size="13" lengthAdjust="spacing" textLength="5" x="512.3898" y="395.1187">*</text><!--MD5=[073b08a5da471012f630c095a16c2281]
link Administrator to App--><path codeLine="93" d="M806.9012,28.69 C637.0112,31.59 114.5812,46.2 114.5812,116 C114.5812,116 114.5812,116 114.5812,697 C114.5812,728.48 113.1812,744.1 137.5812,764 C191.8312,808.25 413.7912,812.86 490.9812,813.1 " fill="none" id="Administrator-App" style="stroke:#A80036;stroke-width:1.0;"/><polygon fill="#000000" points="117.7133,340.8138,123.8186,333.5215,118.3663,331.3256,117.7133,340.8138" style="stroke:#000000;stroke-width:1.0;"/><text fill="#000000" font-family="sans-serif" font-size="13" lengthAdjust="spacing" textLength="53" x="128.5812" y="341.4951">manages</text><text fill="#000000" font-family="sans-serif" font-size="13" lengthAdjust="spacing" textLength="5" x="794.1416" y="43.5725">*</text><text fill="#000000" font-family="sans-serif" font-size="13" lengthAdjust="spacing" textLength="7" x="476.2681" y="808.3595">1</text><!--MD5=[7a8562503c59f9cdcfdb69fd3e5d1073]
link SNSUser to App--><path codeLine="94" d="M1016.4212,1134.91 C942.6912,1125.9 788.5012,1098.53 686.5812,1021 C640.5612,986 649.6312,958.72 615.5812,912 C599.3912,889.79 595.9112,883.54 576.5812,864 C566.0912,853.4 553.4912,842.69 542.6312,834.01 " fill="none" id="SNSUser-App" style="stroke:#A80036;stroke-width:1.0;"/><polygon fill="#000000" points="687.3605,963.9952,693.4203,971.3253,696.5715,966.3635,687.3605,963.9952" style="stroke:#000000;stroke-width:1.0;"/><text fill="#000000" font-family="sans-serif" font-size="13" lengthAdjust="spacing" textLength="28" x="700.5812" y="971.9951">uses</text><text fill="#000000" font-family="sans-serif" font-size="13" lengthAdjust="spacing" textLength="5" x="1003.4662" y="1130.1048">*</text><text fill="#000000" font-family="sans-serif" font-size="13" lengthAdjust="spacing" textLength="7" x="541.6922" y="855.4324">1</text><!--MD5=[1f1feade3c115a92670a2014798a2697]
link VaccinationCenter to App--><path codeLine="95" d="M517.5812,598.12 C517.5812,667.35 517.5812,755.42 517.5812,793.74 " fill="none" id="VaccinationCenter-App" style="stroke:#A80036;stroke-width:1.0;"/><text fill="#000000" font-family="sans-serif" font-size="13" lengthAdjust="spacing" textLength="5" x="512.3898" y="619.5928">*</text><text fill="#000000" font-family="sans-serif" font-size="13" lengthAdjust="spacing" textLength="7" x="509.5531" y="782.9854">1</text><!--MD5=[5bb496728aeb136b5cac2afdd096809d]
link Nurse to App--><path codeLine="96" d="M375.3512,227.19 C349.6012,249.92 312.5812,290.37 312.5812,335 C312.5812,335 312.5812,335 312.5812,697 C312.5812,777.97 435.2112,803.08 490.7812,810.3 " fill="none" id="Nurse-App" style="stroke:#A80036;stroke-width:1.0;"/><polygon fill="#000000" points="318.5522,507.0806,319.6787,497.637,313.9128,498.7784,318.5522,507.0806" style="stroke:#000000;stroke-width:1.0;"/><text fill="#000000" font-family="sans-serif" font-size="13" lengthAdjust="spacing" textLength="28" x="326.5812" y="507.4951">uses</text><text fill="#000000" font-family="sans-serif" font-size="13" lengthAdjust="spacing" textLength="5" x="362.8334" y="248.663">*</text><text fill="#000000" font-family="sans-serif" font-size="13" lengthAdjust="spacing" textLength="7" x="476.0169" y="824.942">1</text><!--MD5=[f42a5b3f738f52b686a88b2b266ff7cd]
link Nurse to Company--><path codeLine="97" d="M432.7612,220.48 C488.4612,241.58 604.1312,286 700.5812,327 C824.9912,379.89 969.6712,447.49 1039.9312,480.71 " fill="none" id="Nurse-Company" style="stroke:#A80036;stroke-width:1.0;"/><polygon fill="#000000" points="751.1769,338.1455,744.021,331.881,741.7055,337.2835,751.1769,338.1455" style="stroke:#000000;stroke-width:1.0;"/><text fill="#000000" font-family="sans-serif" font-size="13" lengthAdjust="spacing" textLength="52" x="755.5812" y="341.4951">works for</text><text fill="#000000" font-family="sans-serif" font-size="13" lengthAdjust="spacing" textLength="5" x="440.5662" y="219.2123">*</text><text fill="#000000" font-family="sans-serif" font-size="13" lengthAdjust="spacing" textLength="7" x="1024.9992" y="473.2152">1</text><!--MD5=[49bdc4f43c0486f86f6744f0a65b0571]
link Nurse to Vaccine--><path codeLine="98" d="M366.4012,220.07 C348.7212,228.05 327.9212,240.19 314.5812,257 C272.4712,310.08 194.8912,400.2 121.5812,912 C104.3312,1032.44 118.2012,1177.6 126.0812,1241.75 " fill="none" id="Nurse-Vaccine" style="stroke:#A80036;stroke-width:1.0;"/><polygon fill="#000000" points="151.4364,760.0429,156.3683,751.9111,150.6466,750.5652,151.4364,760.0429" style="stroke:#000000;stroke-width:1.0;"/><text fill="#000000" font-family="sans-serif" font-size="13" lengthAdjust="spacing" textLength="78" x="161.5812" y="760.4951">administrates</text><text fill="#000000" font-family="sans-serif" font-size="13" lengthAdjust="spacing" textLength="5" x="353.5962" y="218.7126">*</text><text fill="#000000" font-family="sans-serif" font-size="13" lengthAdjust="spacing" textLength="5" x="119.7469" y="1231.256">*</text><!--MD5=[03efd8c9f90c050219bacdb83332548b]
link Nurse to VaccinationCenter--><path codeLine="99" d="M401.5312,227.15 C404.7112,254.14 412.2612,304.6 427.5812,345 C435.2812,365.32 445.4412,386.1 456.1512,405.6 " fill="none" id="Nurse-VaccinationCenter" style="stroke:#A80036;stroke-width:1.0;"/><polygon fill="#000000" points="434.0446,340.9568,434.2076,331.4477,428.5871,333.168,434.0446,340.9568" style="stroke:#000000;stroke-width:1.0;"/><text fill="#000000" font-family="sans-serif" font-size="13" lengthAdjust="spacing" textLength="49" x="441.5812" y="341.4951">works at</text><text fill="#000000" font-family="sans-serif" font-size="13" lengthAdjust="spacing" textLength="5" x="396.3766" y="248.6117">*</text><text fill="#000000" font-family="sans-serif" font-size="13" lengthAdjust="spacing" textLength="7" x="444.18" y="395.108">1</text><!--MD5=[7690a4971bd8576b261a40a0340b8203]
link Receptionist to SNSUser--><path codeLine="100" d="M857.5612,227 C851.0212,296.08 835.0312,539.02 911.5812,716 C957.3612,821.84 1035.8912,806.13 1081.5812,912 C1109.3412,976.32 1112.4412,1001.01 1095.5812,1069 C1091.0112,1087.41 1080.6212,1106.31 1072.0112,1119.83 " fill="none" id="Receptionist-SNSUser" style="stroke:#A80036;stroke-width:1.0;"/><polygon fill="#000000" points="917.749,701.0375,918.4942,691.5562,912.7789,692.9289,917.749,701.0375" style="stroke:#000000;stroke-width:1.0;"/><text fill="#000000" font-family="sans-serif" font-size="13" lengthAdjust="spacing" textLength="50" x="925.5812" y="701.4951">registers</text><text fill="#000000" font-family="sans-serif" font-size="13" lengthAdjust="spacing" textLength="7" x="849.0087" y="248.4196">1</text><text fill="#000000" font-family="sans-serif" font-size="13" lengthAdjust="spacing" textLength="5" x="1070.2219" y="1109.1018">*</text><!--MD5=[2bde3c2658e9820e0f62920496486001]
link Receptionist to VaccinationCenter--><path codeLine="101" d="M808.6512,226.06 C759.4612,245.37 684.9112,279.72 632.5812,327 C607.8612,349.33 586.0612,378.09 568.2712,405.76 " fill="none" id="Receptionist-VaccinationCenter" style="stroke:#A80036;stroke-width:1.0;"/><polygon fill="#000000" points="633.5766,339.1695,642.5808,336.1077,639.0614,331.3999,633.5766,339.1695" style="stroke:#000000;stroke-width:1.0;"/><text fill="#000000" font-family="sans-serif" font-size="13" lengthAdjust="spacing" textLength="49" x="646.5812" y="341.4951">works at</text><text fill="#000000" font-family="sans-serif" font-size="13" lengthAdjust="spacing" textLength="5" x="796.1377" y="225.1351">*</text><text fill="#000000" font-family="sans-serif" font-size="13" lengthAdjust="spacing" textLength="7" x="564.8842" y="395.2802">1</text><!--MD5=[16f546a69324f7e5c5bfce0193866057]
link Receptionist to Company--><path codeLine="102" d="M874.2112,227.22 C912.9712,278.15 1018.3512,416.6 1062.5912,474.74 " fill="none" id="Receptionist-Company" style="stroke:#A80036;stroke-width:1.0;"/><polygon fill="#000000" points="972.6094,340.1545,969.4701,331.177,964.7928,334.7368,972.6094,340.1545" style="stroke:#000000;stroke-width:1.0;"/><text fill="#000000" font-family="sans-serif" font-size="13" lengthAdjust="spacing" textLength="52" x="978.5812" y="341.4951">works for</text><text fill="#000000" font-family="sans-serif" font-size="13" lengthAdjust="spacing" textLength="5" x="872.4712" y="248.3465">*</text><text fill="#000000" font-family="sans-serif" font-size="13" lengthAdjust="spacing" textLength="7" x="1050.1592" y="464.1409">1</text><!--MD5=[96b780800fd67c3bd7a45a9497409787]
link CenterCoordinator to Company--><path codeLine="103" d="M1069.7712,297.01 C1072.2812,336.93 1078.0912,429.53 1080.9412,474.94 " fill="none" id="CenterCoordinator-Company" style="stroke:#A80036;stroke-width:1.0;"/><polygon fill="#000000" points="1078.8945,341.166,1081.261,331.9545,1075.3947,332.3228,1078.8945,341.166" style="stroke:#000000;stroke-width:1.0;"/><text fill="#000000" font-family="sans-serif" font-size="13" lengthAdjust="spacing" textLength="52" x="1087.5812" y="341.4951">works for</text><text fill="#000000" font-family="sans-serif" font-size="13" lengthAdjust="spacing" textLength="5" x="1064.4028" y="318.4324">*</text><text fill="#000000" font-family="sans-serif" font-size="13" lengthAdjust="spacing" textLength="7" x="1072.6884" y="463.9521">1</text><!--MD5=[60fa0013dfee2b69c541512cde82173f]
link Company to MassiveVaccinationCenter--><path codeLine="104" d="M1082.5812,529.29 C1082.5812,568.53 1082.5812,641.46 1082.5812,675.96 " fill="none" id="Company-MassiveVaccinationCenter" style="stroke:#A80036;stroke-width:1.0;"/><polygon fill="#000000" points="1087.5812,642.1758,1090.5202,633.1307,1084.6423,633.1307,1087.5812,642.1758" style="stroke:#000000;stroke-width:1.0;"/><text fill="#000000" font-family="sans-serif" font-size="13" lengthAdjust="spacing" textLength="30" x="1096.5812" y="642.4951">owns</text><text fill="#000000" font-family="sans-serif" font-size="13" lengthAdjust="spacing" textLength="7" x="1074.8594" y="550.1169">1</text><text fill="#000000" font-family="sans-serif" font-size="13" lengthAdjust="spacing" textLength="5" x="1076.8469" y="665.27">*</text><!--MD5=[eaea43e34e45c5b9d20b595fc78f1f20]
link Company to Administrator--><path codeLine="105" d="M1100.9912,474.9 C1130.4412,429.75 1181.9612,334.47 1152.5812,257 C1111.0312,147.44 981.1212,78.12 909.0212,47.06 " fill="none" id="Company-Administrator" style="stroke:#A80036;stroke-width:1.0;"/><polygon fill="#000000" points="1141.5344,202.6139,1142.5558,212.0695,1147.9186,209.6633,1141.5344,202.6139" style="stroke:#000000;stroke-width:1.0;"/><text fill="#000000" font-family="sans-serif" font-size="13" lengthAdjust="spacing" textLength="37" x="1152.5812" y="212.4951">knows</text><text fill="#000000" font-family="sans-serif" font-size="13" lengthAdjust="spacing" textLength="7" x="1097.4392" y="464.3379">1</text><text fill="#000000" font-family="sans-serif" font-size="13" lengthAdjust="spacing" textLength="5" x="917.2231" y="68.4964">*</text><!--MD5=[3568623adf67b2630dce9e60c05bd02a]
link Vaccine to VaccineType--><path codeLine="106" d="M171.3612,1283.54 C323.1212,1307.86 855.0412,1393.13 1022.0312,1419.9 " fill="none" id="Vaccine-VaccineType" style="stroke:#A80036;stroke-width:1.0;"/><polygon fill="#000000" points="640.5182,1349.9672,632.0523,1345.6337,631.122,1351.4374,640.5182,1349.9672" style="stroke:#000000;stroke-width:1.0;"/><text fill="#000000" font-family="sans-serif" font-size="13" lengthAdjust="spacing" textLength="24" x="644.5812" y="1354.4951">is of</text><text fill="#000000" font-family="sans-serif" font-size="13" lengthAdjust="spacing" textLength="7" x="178.9719" y="1281.0145">1</text><text fill="#000000" font-family="sans-serif" font-size="13" lengthAdjust="spacing" textLength="7" x="1007.0927" y="1414.9455">1</text><!--MD5=[11cbd578e9513a40800c84f06387e69f]
link Vaccine to VaccineTime--><path codeLine="107" d="M130.5812,1310.14 C130.5812,1337.74 130.5812,1376.52 130.5812,1401.95 " fill="none" id="Vaccine-VaccineTime" style="stroke:#A80036;stroke-width:1.0;"/><polygon fill="#000000" points="135.5812,1354.1758,138.5202,1345.1307,132.6423,1345.1307,135.5812,1354.1758" style="stroke:#000000;stroke-width:1.0;"/><text fill="#000000" font-family="sans-serif" font-size="13" lengthAdjust="spacing" textLength="21" x="144.5812" y="1354.4951">has</text><text fill="#000000" font-family="sans-serif" font-size="13" lengthAdjust="spacing" textLength="5" x="125.1359" y="1331.2018">*</text><text fill="#000000" font-family="sans-serif" font-size="13" lengthAdjust="spacing" textLength="7" x="122.7281" y="1390.9645">1</text><!--MD5=[1ad0888398876d0a5b5813418ce026e2]
link App to ScheduleVaccine--><path codeLine="108" d="M519.7312,834.06 C521.9312,853.52 525.4412,884.62 528.5012,911.69 " fill="none" id="App-ScheduleVaccine" style="stroke:#A80036;stroke-width:1.0;"/><polygon fill="#000000" points="531.1425,878.1442,533.0475,868.8263,527.2068,869.4862,531.1425,878.1442" style="stroke:#000000;stroke-width:1.0;"/><text fill="#000000" font-family="sans-serif" font-size="13" lengthAdjust="spacing" textLength="28" x="539.5812" y="878.4951">does</text><text fill="#000000" font-family="sans-serif" font-size="13" lengthAdjust="spacing" textLength="7" x="512.3516" y="855.4964">1</text><text fill="#000000" font-family="sans-serif" font-size="13" lengthAdjust="spacing" textLength="5" x="522.4019" y="901.1486">*</text><!--MD5=[79fee4e4425ae6f4d5189b57381ed9d9]
link App to SMSMessage--><path codeLine="109" d="M544.1712,817.46 C610.3612,824.42 786.5912,848.04 917.5812,912 C929.4912,917.82 941.7612,925.06 953.0612,932.31 " fill="none" id="App-SMSMessage" style="stroke:#A80036;stroke-width:1.0;"/><polygon fill="#000000" points="855.395,874.5279,847.4816,869.2525,845.8921,874.9114,855.395,874.5279" style="stroke:#000000;stroke-width:1.0;"/><text fill="#000000" font-family="sans-serif" font-size="13" lengthAdjust="spacing" textLength="35" x="859.5812" y="878.4951">sends</text><text fill="#000000" font-family="sans-serif" font-size="13" lengthAdjust="spacing" textLength="7" x="552.2579" y="834.0822">1</text><text fill="#000000" font-family="sans-serif" font-size="13" lengthAdjust="spacing" textLength="5" x="938.4104" y="921.5659">*</text><!--MD5=[7fee5725fcf01d264d66f094ee978f3d]
link App to HealthCareCenter--><path codeLine="110" d="M490.9312,822.53 C461.7812,831.13 413.9612,846.31 374.5812,864 C335.0012,881.77 326.7812,889.67 289.5812,912 C271.2012,923.03 250.9212,935.93 234.8912,946.3 " fill="none" id="App-HealthCareCenter" style="stroke:#A80036;stroke-width:1.0;"/><polygon fill="#000000" points="375.0796,875.3519,384.5022,874.0613,381.9441,868.7693,375.0796,875.3519" style="stroke:#000000;stroke-width:1.0;"/><text fill="#000000" font-family="sans-serif" font-size="13" lengthAdjust="spacing" textLength="53" x="388.5812" y="878.4951">manages</text><text fill="#000000" font-family="sans-serif" font-size="13" lengthAdjust="spacing" textLength="7" x="476.2053" y="840.306">1</text><text fill="#000000" font-family="sans-serif" font-size="13" lengthAdjust="spacing" textLength="5" x="237.7667" y="935.563">*</text><!--MD5=[597d738fae5f831986acf37647c298db]
link App to CovidDigitalCertificate--><path codeLine="111" d="M544.2712,818.99 C579.9912,825.08 644.6512,838.74 694.5812,864 C737.8112,885.87 780.5112,923.45 804.3212,946.24 " fill="none" id="App-CovidDigitalCertificate" style="stroke:#A80036;stroke-width:1.0;"/><polygon fill="#000000" points="732.0724,875.3734,725.2396,868.758,722.6561,874.0377,732.0724,875.3734" style="stroke:#000000;stroke-width:1.0;"/><text fill="#000000" font-family="sans-serif" font-size="13" lengthAdjust="spacing" textLength="32" x="736.5812" y="878.4951">emits</text><text fill="#000000" font-family="sans-serif" font-size="13" lengthAdjust="spacing" textLength="7" x="552.0074" y="815.7588">1</text><text fill="#000000" font-family="sans-serif" font-size="13" lengthAdjust="spacing" textLength="5" x="792.9292" y="935.4854">*</text><!--MD5=[d3fd356048560b185ca2c645d98d91bb]
link App to EmailMessage--><path codeLine="112" d="M496.7712,834 C487.1412,842.95 475.6212,853.87 465.5812,864 C443.6012,886.17 419.7012,912 401.5012,932.05 " fill="none" id="App-EmailMessage" style="stroke:#A80036;stroke-width:1.0;"/><polygon fill="#000000" points="467.0969,876.7618,475.5079,872.3227,471.2923,868.2266,467.0969,876.7618" style="stroke:#000000;stroke-width:1.0;"/><text fill="#000000" font-family="sans-serif" font-size="13" lengthAdjust="spacing" textLength="35" x="479.5812" y="878.4951">sends</text><text fill="#000000" font-family="sans-serif" font-size="13" lengthAdjust="spacing" textLength="7" x="491.9028" y="855.4196">1</text><text fill="#000000" font-family="sans-serif" font-size="13" lengthAdjust="spacing" textLength="5" x="401.7282" y="921.5179">*</text><!--MD5=[b7c01a66225ccbbe0e647cfd8fd1a74c]
link ScheduleVaccine to CheckCenterCapacity--><path codeLine="113" d="M534.5812,1021.29 C534.5812,1046.34 534.5812,1075.64 534.5812,1098.74 " fill="none" id="ScheduleVaccine-CheckCenterCapacity" style="stroke:#A80036;stroke-width:1.0;"/><polygon fill="#000000" points="539.5812,1065.1758,542.5202,1056.1307,536.6423,1056.1307,539.5812,1065.1758" style="stroke:#000000;stroke-width:1.0;"/><text fill="#000000" font-family="sans-serif" font-size="13" lengthAdjust="spacing" textLength="39" x="548.5812" y="1065.4951">verifies</text><text fill="#000000" font-family="sans-serif" font-size="13" lengthAdjust="spacing" textLength="7" x="527.1328" y="1042.8411">1</text><text fill="#000000" font-family="sans-serif" font-size="13" lengthAdjust="spacing" textLength="5" x="529.1672" y="1088.1463">*</text><!--MD5=[ef8d911c79d99175ffefd054f3ff1973]
link HealthCareCenter to Vaccine--><path codeLine="114" d="M200.8912,986.74 C188.4112,1037.88 154.3112,1177.71 138.6412,1241.94 " fill="none" id="HealthCareCenter-Vaccine" style="stroke:#A80036;stroke-width:1.0;"/><polygon fill="#000000" points="177.3964,1145.0334,182.3951,1136.9424,176.6846,1135.5495,177.3964,1145.0334" style="stroke:#000000;stroke-width:1.0;"/><text fill="#000000" font-family="sans-serif" font-size="13" lengthAdjust="spacing" textLength="36" x="187.5812" y="1145.4951">stores</text><text fill="#000000" font-family="sans-serif" font-size="13" lengthAdjust="spacing" textLength="5" x="193.9589" y="1007.8719">*</text><text fill="#000000" font-family="sans-serif" font-size="13" lengthAdjust="spacing" textLength="5" x="134.7359" y="1231.2215">*</text><!--MD5=[f0553939d664499c8c3e148c02d4348e]
link VaccineType to Administrator--><path codeLine="115" d="M1123.0912,1426.56 C1213.4912,1420.99 1393.5812,1395.09 1393.5812,1277 C1393.5812,116 1393.5812,116 1393.5812,116 C1393.5812,67.55 1046.9612,40.05 912.2412,31.19 " fill="none" id="VaccineType-Administrator" style="stroke:#A80036;stroke-width:1.0;"/><polygon fill="#000000" points="1397.8342,691.2319,1396.2797,700.6146,1402.0916,699.7364,1397.8342,691.2319" style="stroke:#000000;stroke-width:1.0;"/><text fill="#000000" font-family="sans-serif" font-size="13" lengthAdjust="spacing" textLength="61" x="1407.5812" y="701.4951">created by</text><text fill="#000000" font-family="sans-serif" font-size="13" lengthAdjust="spacing" textLength="5" x="1131.2084" y="1422.5211">*</text><text fill="#000000" font-family="sans-serif" font-size="13" lengthAdjust="spacing" textLength="7" x="920.1387" y="46.4241">1</text><!--MD5=[c3dd7d5a27b29f54641ada6fcfd9df12]
link Vaccine to Administrator--><path codeLine="116" d="M90.0412,1250.39 C56.9312,1226.86 15.5812,1188.06 15.5812,1141 C15.5812,116 15.5812,116 15.5812,116 C15.5812,36.08 622.0112,28.42 806.7812,27.94 " fill="none" id="Vaccine-Administrator" style="stroke:#A80036;stroke-width:1.0;"/><polygon fill="#000000" points="23.1102,632.8625,16,639.1788,21.0706,642.1518,23.1102,632.8625" style="stroke:#000000;stroke-width:1.0;"/><text fill="#000000" font-family="sans-serif" font-size="13" lengthAdjust="spacing" textLength="61" x="29.5812" y="642.4951">created by</text><text fill="#000000" font-family="sans-serif" font-size="13" lengthAdjust="spacing" textLength="5" x="77.1057" y="1241.7509">*</text><text fill="#000000" font-family="sans-serif" font-size="13" lengthAdjust="spacing" textLength="7" x="792.2159" y="24.5101">1</text><!--MD5=[07f6d7a3540cf70562e1c9a4c0db00af]
link SMSMessage to SNSUser--><path codeLine="117" d="M1004.8912,1000.56 C1008.6512,1020.7 1014.4912,1046.76 1022.5812,1069 C1029.1212,1086.98 1039.2712,1106.23 1047.1312,1119.98 " fill="none" id="SMSMessage-SNSUser" style="stroke:#A80036;stroke-width:1.0;"/><polygon fill="#000000" points="1029.2486,1064.8896,1029.0031,1055.3822,1023.4616,1057.3423,1029.2486,1064.8896" style="stroke:#000000;stroke-width:1.0;"/><text fill="#000000" font-family="sans-serif" font-size="13" lengthAdjust="spacing" textLength="54" x="1036.5812" y="1065.4951">is sent to</text><text fill="#000000" font-family="sans-serif" font-size="13" lengthAdjust="spacing" textLength="7" x="998.2137" y="1021.6076">1</text><text fill="#000000" font-family="sans-serif" font-size="13" lengthAdjust="spacing" textLength="7" x="1035.7397" y="1109.2959">1</text><!--MD5=[5fbf68e54b88618be43195b315830acc]
@startuml
skinparam classAttributeIconSize 0
hide methods

class Administrator{
}

class Nurse{
}

class SNSUser{
}

class Receptionist{
}

class CenterCoordinator{
}

class HealthCareCenter {
}

class Company {
- designation
}

class MassiveVaccinationCenter {
}

class CovidDigitalCertificate {
}

class App{
}

class SMSMessage {
- informationAppointment
- timeRecovery
}

class EmailMessage {
- informationAppointment
- timeRecovery
}

class Vaccine {
- vaccineName
- lot
}

class VaccineType {
- ageGroup
- dose
- vaccineDosage
}

class VaccineTime {
- timeBetweenDose
}

class CheckCenterCapacity {
- centerCapacity
- date
- time
}

class ScheduleVaccine {
- userNumberSNS
- vaccinationCenter
- date
- time
- typeOfVaccine
}

class VaccinationCenter {
  - name
  - address
  - emailAddress
  - phoneNumber
  - faxNumber
  - websiteAddress
  - openingHours
  - closingHours
  - slotDuration
  - maxVaccines
  - coordinator
}

Administrator "1"- - -"*" Nurse : registers >
Administrator "1"- - -"*" CenterCoordinator : registers >
Administrator "1"- - -"*" Receptionist : registers >
Administrator "1"- - -"*" SNSUser : registers >
Administrator "1"- - -"*" VaccinationCenter : registers >
Administrator "*"- - -"1" App : manages >
SNSUser "*"- - -"1" App : uses >
VaccinationCenter "*"- - -"1" App
Nurse "*"- - -"1" App : uses >
Nurse "*"- - -"1" Company : works for >
Nurse "*"- - -"*" Vaccine : administrates >
Nurse "*"- - -"1" VaccinationCenter : works at >
Receptionist "1"- - -"*" SNSUser : registers >
Receptionist "*"- - -"1" VaccinationCenter : works at >
Receptionist "*"- - -"1" Company : works for >
CenterCoordinator "*"- -"1" Company : works for >
Company "1"- -"*" MassiveVaccinationCenter : owns >
Company "1"- -"*" Administrator : knows >
Vaccine "1"- -"1" VaccineType : is of >
Vaccine "*"- -"1" VaccineTime : has >
App "1"- -"*" ScheduleVaccine : does >
App "1"- -"*" SMSMessage : sends >
App "1"- -"*" HealthCareCenter : manages >
App "1"- -"*" CovidDigitalCertificate : emits >
App "1"- -"*" EmailMessage : sends >
ScheduleVaccine "1"- -"*" CheckCenterCapacity : verifies >
HealthCareCenter "*"- - -"*" Vaccine : stores >
VaccineType "*"- -"1" Administrator : created by >
Vaccine "*"- -"1" Administrator : created by >
SMSMessage "1"- -"1" SNSUser : is sent to >



@enduml

PlantUML version 1.2022.1(Tue Feb 01 18:19:58 GMT 2022)
(GPL source distribution)
Java Runtime: OpenJDK Runtime Environment
JVM: OpenJDK 64-Bit Server VM
Default Encoding: Cp1252
Language: en
Country: US
--></g></svg>