<?xml version="1.0" encoding="UTF-8" standalone="no"?><svg xmlns="http://www.w3.org/2000/svg" xmlns:xlink="http://www.w3.org/1999/xlink" contentStyleType="text/css" height="1524px" preserveAspectRatio="none" style="width:1468px;height:1524px;background:#FFFFFF;" version="1.1" viewBox="0 0 1468 1524" width="1468px" zoomAndPan="magnify"><defs/><g><!--MD5=[72be06cc7ae02ccc98efe28a50e62246]
class SNSUser--><g id="elem_SNSUser"><rect codeLine="2" fill="#F1F1F1" height="48" id="SNSUser" rx="2.5" ry="2.5" style="stroke:#181818;stroke-width:0.5;" width="88" x="811" y="765"/><ellipse cx="826" cy="781" fill="#ADD1B2" rx="11" ry="11" style="stroke:#181818;stroke-width:1.0;"/><path d="M828,777.5 Q828.2031,777 828.4375,776.75 Q828.6719,776.5 828.9375,776.5 Q829.4063,776.5 829.7031,776.7813 Q830,777.0625 830,777.7188 L830,779.2813 Q830,779.9375 829.7188,780.2188 Q829.4375,780.5 829,780.5 Q828.6094,780.5 828.3594,780.3281 Q828.1094,780.1563 828,779.7031 Q827.9531,779.3906 827.7813,779.2188 Q827.4688,778.8906 826.9063,778.7031 Q826.3438,778.5 825.7813,778.5 Q825.0781,778.5 824.4844,778.7813 Q823.9063,779.0625 823.4531,779.6875 Q823,780.3125 823,781.1719 L823,782.0938 Q823,783.125 823.8438,783.8125 Q824.6875,784.5 826.1875,784.5 Q827.0781,784.5 827.7031,784.2969 Q828.0625,784.1875 828.4688,783.8281 Q828.7344,783.625 828.875,783.5625 Q829.0156,783.5 829.1875,783.5 Q829.5156,783.5 829.75,783.7656 Q830,784.0156 830,784.375 Q830,784.7188 829.6563,785.125 Q829.1563,785.7188 828.3594,786.0469 Q827.3125,786.5 826.0313,786.5 Q824.5313,786.5 823.3281,785.9063 Q822.3594,785.4375 821.6719,784.4219 Q821,783.4063 821,782.2031 L821,781.1094 Q821,779.8594 821.5938,778.7656 Q822.2031,777.6719 823.25,777.0938 Q824.3125,776.5 825.5,776.5 Q826.2188,776.5 826.8438,776.75 Q827.4688,777 828,777.5 Z " fill="#000000"/><text fill="#000000" font-family="sans-serif" font-size="14" lengthAdjust="spacing" textLength="56" x="840" y="786.7285">SNSUser</text><line style="stroke:#181818;stroke-width:0.5;" x1="812" x2="898" y1="797" y2="797"/><line style="stroke:#181818;stroke-width:0.5;" x1="812" x2="898" y1="805" y2="805"/></g><!--MD5=[0e501da62322464167c8ec4d233a6b7e]
class VaccineType--><g id="elem_VaccineType"><rect codeLine="3" fill="#F1F1F1" height="100.8281" id="VaccineType" rx="2.5" ry="2.5" style="stroke:#181818;stroke-width:0.5;" width="123" x="760.5" y="1417"/><ellipse cx="779.55" cy="1433" fill="#ADD1B2" rx="11" ry="11" style="stroke:#181818;stroke-width:1.0;"/><path d="M781.55,1429.5 Q781.7531,1429 781.9875,1428.75 Q782.2219,1428.5 782.4875,1428.5 Q782.9563,1428.5 783.2531,1428.7813 Q783.55,1429.0625 783.55,1429.7188 L783.55,1431.2813 Q783.55,1431.9375 783.2688,1432.2188 Q782.9875,1432.5 782.55,1432.5 Q782.1594,1432.5 781.9094,1432.3281 Q781.6594,1432.1563 781.55,1431.7031 Q781.5031,1431.3906 781.3313,1431.2188 Q781.0188,1430.8906 780.4563,1430.7031 Q779.8938,1430.5 779.3313,1430.5 Q778.6281,1430.5 778.0344,1430.7813 Q777.4563,1431.0625 777.0031,1431.6875 Q776.55,1432.3125 776.55,1433.1719 L776.55,1434.0938 Q776.55,1435.125 777.3938,1435.8125 Q778.2375,1436.5 779.7375,1436.5 Q780.6281,1436.5 781.2531,1436.2969 Q781.6125,1436.1875 782.0188,1435.8281 Q782.2844,1435.625 782.425,1435.5625 Q782.5656,1435.5 782.7375,1435.5 Q783.0656,1435.5 783.3,1435.7656 Q783.55,1436.0156 783.55,1436.375 Q783.55,1436.7188 783.2063,1437.125 Q782.7063,1437.7188 781.9094,1438.0469 Q780.8625,1438.5 779.5813,1438.5 Q778.0813,1438.5 776.8781,1437.9063 Q775.9094,1437.4375 775.2219,1436.4219 Q774.55,1435.4063 774.55,1434.2031 L774.55,1433.1094 Q774.55,1431.8594 775.1438,1430.7656 Q775.7531,1429.6719 776.8,1429.0938 Q777.8625,1428.5 779.05,1428.5 Q779.7688,1428.5 780.3938,1428.75 Q781.0188,1429 781.55,1429.5 Z " fill="#000000"/><text fill="#000000" font-family="sans-serif" font-size="14" lengthAdjust="spacing" textLength="82" x="794.45" y="1438.7285">VaccineType</text><line style="stroke:#181818;stroke-width:0.5;" x1="761.5" x2="882.5" y1="1449" y2="1449"/><rect fill="none" height="6" style="stroke:#C82930;stroke-width:1.0;" width="6" x="768.5" y="1457"/><text fill="#000000" font-family="sans-serif" font-size="14" lengthAdjust="spacing" textLength="64" x="780.5" y="1467.5332">ageGroup</text><rect fill="none" height="6" style="stroke:#C82930;stroke-width:1.0;" width="6" x="768.5" y="1474.6094"/><text fill="#000000" font-family="sans-serif" font-size="14" lengthAdjust="spacing" textLength="31" x="780.5" y="1485.1426">dose</text><rect fill="none" height="6" style="stroke:#C82930;stroke-width:1.0;" width="6" x="768.5" y="1492.2188"/><text fill="#000000" font-family="sans-serif" font-size="14" lengthAdjust="spacing" textLength="97" x="780.5" y="1502.752">vaccineDosage</text><line style="stroke:#181818;stroke-width:0.5;" x1="761.5" x2="882.5" y1="1509.8281" y2="1509.8281"/></g><!--MD5=[19e445fc4d3b48519cbe33da05496394]
class Vaccine--><g id="elem_Vaccine"><rect codeLine="8" fill="#F1F1F1" height="48" id="Vaccine" rx="2.5" ry="2.5" style="stroke:#181818;stroke-width:0.5;" width="82" x="591" y="765"/><ellipse cx="606" cy="781" fill="#ADD1B2" rx="11" ry="11" style="stroke:#181818;stroke-width:1.0;"/><path d="M608,777.5 Q608.2031,777 608.4375,776.75 Q608.6719,776.5 608.9375,776.5 Q609.4063,776.5 609.7031,776.7813 Q610,777.0625 610,777.7188 L610,779.2813 Q610,779.9375 609.7188,780.2188 Q609.4375,780.5 609,780.5 Q608.6094,780.5 608.3594,780.3281 Q608.1094,780.1563 608,779.7031 Q607.9531,779.3906 607.7813,779.2188 Q607.4688,778.8906 606.9063,778.7031 Q606.3438,778.5 605.7813,778.5 Q605.0781,778.5 604.4844,778.7813 Q603.9063,779.0625 603.4531,779.6875 Q603,780.3125 603,781.1719 L603,782.0938 Q603,783.125 603.8438,783.8125 Q604.6875,784.5 606.1875,784.5 Q607.0781,784.5 607.7031,784.2969 Q608.0625,784.1875 608.4688,783.8281 Q608.7344,783.625 608.875,783.5625 Q609.0156,783.5 609.1875,783.5 Q609.5156,783.5 609.75,783.7656 Q610,784.0156 610,784.375 Q610,784.7188 609.6563,785.125 Q609.1563,785.7188 608.3594,786.0469 Q607.3125,786.5 606.0313,786.5 Q604.5313,786.5 603.3281,785.9063 Q602.3594,785.4375 601.6719,784.4219 Q601,783.4063 601,782.2031 L601,781.1094 Q601,779.8594 601.5938,778.7656 Q602.2031,777.6719 603.25,777.0938 Q604.3125,776.5 605.5,776.5 Q606.2188,776.5 606.8438,776.75 Q607.4688,777 608,777.5 Z " fill="#000000"/><text fill="#000000" font-family="sans-serif" font-size="14" lengthAdjust="spacing" textLength="50" x="620" y="786.7285">Vaccine</text><line style="stroke:#181818;stroke-width:0.5;" x1="592" x2="672" y1="797" y2="797"/><line style="stroke:#181818;stroke-width:0.5;" x1="592" x2="672" y1="805" y2="805"/></g><!--MD5=[db6d18d8099558415abc41d00477ab92]
class Admin--><g id="elem_Admin"><rect codeLine="9" fill="#F1F1F1" height="48" id="Admin" rx="2.5" ry="2.5" style="stroke:#181818;stroke-width:0.5;" width="71" x="621.5" y="480"/><ellipse cx="636.5" cy="496" fill="#ADD1B2" rx="11" ry="11" style="stroke:#181818;stroke-width:1.0;"/><path d="M638.5,492.5 Q638.7031,492 638.9375,491.75 Q639.1719,491.5 639.4375,491.5 Q639.9063,491.5 640.2031,491.7813 Q640.5,492.0625 640.5,492.7188 L640.5,494.2813 Q640.5,494.9375 640.2188,495.2188 Q639.9375,495.5 639.5,495.5 Q639.1094,495.5 638.8594,495.3281 Q638.6094,495.1563 638.5,494.7031 Q638.4531,494.3906 638.2813,494.2188 Q637.9688,493.8906 637.4063,493.7031 Q636.8438,493.5 636.2813,493.5 Q635.5781,493.5 634.9844,493.7813 Q634.4063,494.0625 633.9531,494.6875 Q633.5,495.3125 633.5,496.1719 L633.5,497.0938 Q633.5,498.125 634.3438,498.8125 Q635.1875,499.5 636.6875,499.5 Q637.5781,499.5 638.2031,499.2969 Q638.5625,499.1875 638.9688,498.8281 Q639.2344,498.625 639.375,498.5625 Q639.5156,498.5 639.6875,498.5 Q640.0156,498.5 640.25,498.7656 Q640.5,499.0156 640.5,499.375 Q640.5,499.7188 640.1563,500.125 Q639.6563,500.7188 638.8594,501.0469 Q637.8125,501.5 636.5313,501.5 Q635.0313,501.5 633.8281,500.9063 Q632.8594,500.4375 632.1719,499.4219 Q631.5,498.4063 631.5,497.2031 L631.5,496.1094 Q631.5,494.8594 632.0938,493.7656 Q632.7031,492.6719 633.75,492.0938 Q634.8125,491.5 636,491.5 Q636.7188,491.5 637.3438,491.75 Q637.9688,492 638.5,492.5 Z " fill="#000000"/><text fill="#000000" font-family="sans-serif" font-size="14" lengthAdjust="spacing" textLength="39" x="650.5" y="501.7285">Admin</text><line style="stroke:#181818;stroke-width:0.5;" x1="622.5" x2="691.5" y1="512" y2="512"/><line style="stroke:#181818;stroke-width:0.5;" x1="622.5" x2="691.5" y1="520" y2="520"/></g><!--MD5=[1db03e903fe0a044a2ca0dcbef10799a]
class HealthCareCenter--><g id="elem_HealthCareCenter"><rect codeLine="10" fill="#F1F1F1" height="48" id="HealthCareCenter" rx="2.5" ry="2.5" style="stroke:#181818;stroke-width:0.5;" width="146" x="79" y="765"/><ellipse cx="94" cy="781" fill="#ADD1B2" rx="11" ry="11" style="stroke:#181818;stroke-width:1.0;"/><path d="M96,777.5 Q96.2031,777 96.4375,776.75 Q96.6719,776.5 96.9375,776.5 Q97.4063,776.5 97.7031,776.7813 Q98,777.0625 98,777.7188 L98,779.2813 Q98,779.9375 97.7188,780.2188 Q97.4375,780.5 97,780.5 Q96.6094,780.5 96.3594,780.3281 Q96.1094,780.1563 96,779.7031 Q95.9531,779.3906 95.7813,779.2188 Q95.4688,778.8906 94.9063,778.7031 Q94.3438,778.5 93.7813,778.5 Q93.0781,778.5 92.4844,778.7813 Q91.9063,779.0625 91.4531,779.6875 Q91,780.3125 91,781.1719 L91,782.0938 Q91,783.125 91.8438,783.8125 Q92.6875,784.5 94.1875,784.5 Q95.0781,784.5 95.7031,784.2969 Q96.0625,784.1875 96.4688,783.8281 Q96.7344,783.625 96.875,783.5625 Q97.0156,783.5 97.1875,783.5 Q97.5156,783.5 97.75,783.7656 Q98,784.0156 98,784.375 Q98,784.7188 97.6563,785.125 Q97.1563,785.7188 96.3594,786.0469 Q95.3125,786.5 94.0313,786.5 Q92.5313,786.5 91.3281,785.9063 Q90.3594,785.4375 89.6719,784.4219 Q89,783.4063 89,782.2031 L89,781.1094 Q89,779.8594 89.5938,778.7656 Q90.2031,777.6719 91.25,777.0938 Q92.3125,776.5 93.5,776.5 Q94.2188,776.5 94.8438,776.75 Q95.4688,777 96,777.5 Z " fill="#000000"/><text fill="#000000" font-family="sans-serif" font-size="14" lengthAdjust="spacing" textLength="114" x="108" y="786.7285">HealthCareCenter</text><line style="stroke:#181818;stroke-width:0.5;" x1="80" x2="224" y1="797" y2="797"/><line style="stroke:#181818;stroke-width:0.5;" x1="80" x2="224" y1="805" y2="805"/></g><!--MD5=[f44bde12c85835f4e3e4c64f18a8c09c]
class ARS--><g id="elem_ARS"><rect codeLine="11" fill="#F1F1F1" height="48" id="ARS" rx="2.5" ry="2.5" style="stroke:#181818;stroke-width:0.5;" width="60" x="7" y="953"/><ellipse cx="22" cy="969" fill="#ADD1B2" rx="11" ry="11" style="stroke:#181818;stroke-width:1.0;"/><path d="M24,965.5 Q24.2031,965 24.4375,964.75 Q24.6719,964.5 24.9375,964.5 Q25.4063,964.5 25.7031,964.7813 Q26,965.0625 26,965.7188 L26,967.2813 Q26,967.9375 25.7188,968.2188 Q25.4375,968.5 25,968.5 Q24.6094,968.5 24.3594,968.3281 Q24.1094,968.1563 24,967.7031 Q23.9531,967.3906 23.7813,967.2188 Q23.4688,966.8906 22.9063,966.7031 Q22.3438,966.5 21.7813,966.5 Q21.0781,966.5 20.4844,966.7813 Q19.9063,967.0625 19.4531,967.6875 Q19,968.3125 19,969.1719 L19,970.0938 Q19,971.125 19.8438,971.8125 Q20.6875,972.5 22.1875,972.5 Q23.0781,972.5 23.7031,972.2969 Q24.0625,972.1875 24.4688,971.8281 Q24.7344,971.625 24.875,971.5625 Q25.0156,971.5 25.1875,971.5 Q25.5156,971.5 25.75,971.7656 Q26,972.0156 26,972.375 Q26,972.7188 25.6563,973.125 Q25.1563,973.7188 24.3594,974.0469 Q23.3125,974.5 22.0313,974.5 Q20.5313,974.5 19.3281,973.9063 Q18.3594,973.4375 17.6719,972.4219 Q17,971.4063 17,970.2031 L17,969.1094 Q17,967.8594 17.5938,966.7656 Q18.2031,965.6719 19.25,965.0938 Q20.3125,964.5 21.5,964.5 Q22.2188,964.5 22.8438,964.75 Q23.4688,965 24,965.5 Z " fill="#000000"/><text fill="#000000" font-family="sans-serif" font-size="14" lengthAdjust="spacing" textLength="28" x="36" y="974.7285">ARS</text><line style="stroke:#181818;stroke-width:0.5;" x1="8" x2="66" y1="985" y2="985"/><line style="stroke:#181818;stroke-width:0.5;" x1="8" x2="66" y1="993" y2="993"/></g><!--MD5=[3d99830c51f2312653ffa5f597e45238]
class AGES--><g id="elem_AGES"><rect codeLine="12" fill="#F1F1F1" height="48" id="AGES" rx="2.5" ry="2.5" style="stroke:#181818;stroke-width:0.5;" width="70" x="177" y="953"/><ellipse cx="192" cy="969" fill="#ADD1B2" rx="11" ry="11" style="stroke:#181818;stroke-width:1.0;"/><path d="M194,965.5 Q194.2031,965 194.4375,964.75 Q194.6719,964.5 194.9375,964.5 Q195.4063,964.5 195.7031,964.7813 Q196,965.0625 196,965.7188 L196,967.2813 Q196,967.9375 195.7188,968.2188 Q195.4375,968.5 195,968.5 Q194.6094,968.5 194.3594,968.3281 Q194.1094,968.1563 194,967.7031 Q193.9531,967.3906 193.7813,967.2188 Q193.4688,966.8906 192.9063,966.7031 Q192.3438,966.5 191.7813,966.5 Q191.0781,966.5 190.4844,966.7813 Q189.9063,967.0625 189.4531,967.6875 Q189,968.3125 189,969.1719 L189,970.0938 Q189,971.125 189.8438,971.8125 Q190.6875,972.5 192.1875,972.5 Q193.0781,972.5 193.7031,972.2969 Q194.0625,972.1875 194.4688,971.8281 Q194.7344,971.625 194.875,971.5625 Q195.0156,971.5 195.1875,971.5 Q195.5156,971.5 195.75,971.7656 Q196,972.0156 196,972.375 Q196,972.7188 195.6563,973.125 Q195.1563,973.7188 194.3594,974.0469 Q193.3125,974.5 192.0313,974.5 Q190.5313,974.5 189.3281,973.9063 Q188.3594,973.4375 187.6719,972.4219 Q187,971.4063 187,970.2031 L187,969.1094 Q187,967.8594 187.5938,966.7656 Q188.2031,965.6719 189.25,965.0938 Q190.3125,964.5 191.5,964.5 Q192.2188,964.5 192.8438,964.75 Q193.4688,965 194,965.5 Z " fill="#000000"/><text fill="#000000" font-family="sans-serif" font-size="14" lengthAdjust="spacing" textLength="38" x="206" y="974.7285">AGES</text><line style="stroke:#181818;stroke-width:0.5;" x1="178" x2="246" y1="985" y2="985"/><line style="stroke:#181818;stroke-width:0.5;" x1="178" x2="246" y1="993" y2="993"/></g><!--MD5=[de60e6d4f424ae4d0522096f76a59010]
class VaccinationCenter--><g id="elem_VaccinationCenter"><rect codeLine="13" fill="#F1F1F1" height="241.7031" id="VaccinationCenter" rx="2.5" ry="2.5" style="stroke:#181818;stroke-width:0.5;" width="148" x="301" y="383"/><ellipse cx="316" cy="399" fill="#ADD1B2" rx="11" ry="11" style="stroke:#181818;stroke-width:1.0;"/><path d="M318,395.5 Q318.2031,395 318.4375,394.75 Q318.6719,394.5 318.9375,394.5 Q319.4063,394.5 319.7031,394.7813 Q320,395.0625 320,395.7188 L320,397.2813 Q320,397.9375 319.7188,398.2188 Q319.4375,398.5 319,398.5 Q318.6094,398.5 318.3594,398.3281 Q318.1094,398.1563 318,397.7031 Q317.9531,397.3906 317.7813,397.2188 Q317.4688,396.8906 316.9063,396.7031 Q316.3438,396.5 315.7813,396.5 Q315.0781,396.5 314.4844,396.7813 Q313.9063,397.0625 313.4531,397.6875 Q313,398.3125 313,399.1719 L313,400.0938 Q313,401.125 313.8438,401.8125 Q314.6875,402.5 316.1875,402.5 Q317.0781,402.5 317.7031,402.2969 Q318.0625,402.1875 318.4688,401.8281 Q318.7344,401.625 318.875,401.5625 Q319.0156,401.5 319.1875,401.5 Q319.5156,401.5 319.75,401.7656 Q320,402.0156 320,402.375 Q320,402.7188 319.6563,403.125 Q319.1563,403.7188 318.3594,404.0469 Q317.3125,404.5 316.0313,404.5 Q314.5313,404.5 313.3281,403.9063 Q312.3594,403.4375 311.6719,402.4219 Q311,401.4063 311,400.2031 L311,399.1094 Q311,397.8594 311.5938,396.7656 Q312.2031,395.6719 313.25,395.0938 Q314.3125,394.5 315.5,394.5 Q316.2188,394.5 316.8438,394.75 Q317.4688,395 318,395.5 Z " fill="#000000"/><text fill="#000000" font-family="sans-serif" font-size="14" lengthAdjust="spacing" textLength="116" x="330" y="404.7285">VaccinationCenter</text><line style="stroke:#181818;stroke-width:0.5;" x1="302" x2="448" y1="415" y2="415"/><rect fill="none" height="6" style="stroke:#C82930;stroke-width:1.0;" width="6" x="309" y="423"/><text fill="#000000" font-family="sans-serif" font-size="14" lengthAdjust="spacing" textLength="35" x="321" y="433.5332">name</text><rect fill="none" height="6" style="stroke:#C82930;stroke-width:1.0;" width="6" x="309" y="440.6094"/><text fill="#000000" font-family="sans-serif" font-size="14" lengthAdjust="spacing" textLength="51" x="321" y="451.1426">address</text><rect fill="none" height="6" style="stroke:#C82930;stroke-width:1.0;" width="6" x="309" y="458.2188"/><text fill="#000000" font-family="sans-serif" font-size="14" lengthAdjust="spacing" textLength="85" x="321" y="468.752">emailAddress</text><rect fill="none" height="6" style="stroke:#C82930;stroke-width:1.0;" width="6" x="309" y="475.8281"/><text fill="#000000" font-family="sans-serif" font-size="14" lengthAdjust="spacing" textLength="89" x="321" y="486.3613">phoneNumber</text><rect fill="none" height="6" style="stroke:#C82930;stroke-width:1.0;" width="6" x="309" y="493.4375"/><text fill="#000000" font-family="sans-serif" font-size="14" lengthAdjust="spacing" textLength="67" x="321" y="503.9707">faxNumber</text><rect fill="none" height="6" style="stroke:#C82930;stroke-width:1.0;" width="6" x="309" y="511.0469"/><text fill="#000000" font-family="sans-serif" font-size="14" lengthAdjust="spacing" textLength="99" x="321" y="521.5801">websiteAddress</text><rect fill="none" height="6" style="stroke:#C82930;stroke-width:1.0;" width="6" x="309" y="528.6563"/><text fill="#000000" font-family="sans-serif" font-size="14" lengthAdjust="spacing" textLength="88" x="321" y="539.1895">openingHours</text><rect fill="none" height="6" style="stroke:#C82930;stroke-width:1.0;" width="6" x="309" y="546.2656"/><text fill="#000000" font-family="sans-serif" font-size="14" lengthAdjust="spacing" textLength="81" x="321" y="556.7988">closingHours</text><rect fill="none" height="6" style="stroke:#C82930;stroke-width:1.0;" width="6" x="309" y="563.875"/><text fill="#000000" font-family="sans-serif" font-size="14" lengthAdjust="spacing" textLength="76" x="321" y="574.4082">slotDuration</text><rect fill="none" height="6" style="stroke:#C82930;stroke-width:1.0;" width="6" x="309" y="581.4844"/><text fill="#000000" font-family="sans-serif" font-size="14" lengthAdjust="spacing" textLength="82" x="321" y="592.0176">maxVaccines</text><rect fill="none" height="6" style="stroke:#C82930;stroke-width:1.0;" width="6" x="309" y="599.0938"/><text fill="#000000" font-family="sans-serif" font-size="14" lengthAdjust="spacing" textLength="72" x="321" y="609.627">coordinator</text><line style="stroke:#181818;stroke-width:0.5;" x1="302" x2="448" y1="616.7031" y2="616.7031"/></g><!--MD5=[8d21a970f1bd1e0e0584d0ecf91221be]
class ScheduleVaccine--><g id="elem_ScheduleVaccine"><rect codeLine="26" fill="#F1F1F1" height="136.0469" id="ScheduleVaccine" rx="2.5" ry="2.5" style="stroke:#181818;stroke-width:0.5;" width="141" x="751.5" y="1141"/><ellipse cx="766.5" cy="1157" fill="#ADD1B2" rx="11" ry="11" style="stroke:#181818;stroke-width:1.0;"/><path d="M768.5,1153.5 Q768.7031,1153 768.9375,1152.75 Q769.1719,1152.5 769.4375,1152.5 Q769.9063,1152.5 770.2031,1152.7813 Q770.5,1153.0625 770.5,1153.7188 L770.5,1155.2813 Q770.5,1155.9375 770.2188,1156.2188 Q769.9375,1156.5 769.5,1156.5 Q769.1094,1156.5 768.8594,1156.3281 Q768.6094,1156.1563 768.5,1155.7031 Q768.4531,1155.3906 768.2813,1155.2188 Q767.9688,1154.8906 767.4063,1154.7031 Q766.8438,1154.5 766.2813,1154.5 Q765.5781,1154.5 764.9844,1154.7813 Q764.4063,1155.0625 763.9531,1155.6875 Q763.5,1156.3125 763.5,1157.1719 L763.5,1158.0938 Q763.5,1159.125 764.3438,1159.8125 Q765.1875,1160.5 766.6875,1160.5 Q767.5781,1160.5 768.2031,1160.2969 Q768.5625,1160.1875 768.9688,1159.8281 Q769.2344,1159.625 769.375,1159.5625 Q769.5156,1159.5 769.6875,1159.5 Q770.0156,1159.5 770.25,1159.7656 Q770.5,1160.0156 770.5,1160.375 Q770.5,1160.7188 770.1563,1161.125 Q769.6563,1161.7188 768.8594,1162.0469 Q767.8125,1162.5 766.5313,1162.5 Q765.0313,1162.5 763.8281,1161.9063 Q762.8594,1161.4375 762.1719,1160.4219 Q761.5,1159.4063 761.5,1158.2031 L761.5,1157.1094 Q761.5,1155.8594 762.0938,1154.7656 Q762.7031,1153.6719 763.75,1153.0938 Q764.8125,1152.5 766,1152.5 Q766.7188,1152.5 767.3438,1152.75 Q767.9688,1153 768.5,1153.5 Z " fill="#000000"/><text fill="#000000" font-family="sans-serif" font-size="14" lengthAdjust="spacing" textLength="109" x="780.5" y="1162.7285">ScheduleVaccine</text><line style="stroke:#181818;stroke-width:0.5;" x1="752.5" x2="891.5" y1="1173" y2="1173"/><rect fill="none" height="6" style="stroke:#C82930;stroke-width:1.0;" width="6" x="759.5" y="1181"/><text fill="#000000" font-family="sans-serif" font-size="14" lengthAdjust="spacing" textLength="104" x="771.5" y="1191.5332">userNumberSNS</text><rect fill="none" height="6" style="stroke:#C82930;stroke-width:1.0;" width="6" x="759.5" y="1198.6094"/><text fill="#000000" font-family="sans-serif" font-size="14" lengthAdjust="spacing" textLength="114" x="771.5" y="1209.1426">vaccinationCenter</text><rect fill="none" height="6" style="stroke:#C82930;stroke-width:1.0;" width="6" x="759.5" y="1216.2188"/><text fill="#000000" font-family="sans-serif" font-size="14" lengthAdjust="spacing" textLength="28" x="771.5" y="1226.752">date</text><rect fill="none" height="6" style="stroke:#C82930;stroke-width:1.0;" width="6" x="759.5" y="1233.8281"/><text fill="#000000" font-family="sans-serif" font-size="14" lengthAdjust="spacing" textLength="26" x="771.5" y="1244.3613">time</text><rect fill="none" height="6" style="stroke:#C82930;stroke-width:1.0;" width="6" x="759.5" y="1251.4375"/><text fill="#000000" font-family="sans-serif" font-size="14" lengthAdjust="spacing" textLength="92" x="771.5" y="1261.9707">typeOfVaccine</text><line style="stroke:#181818;stroke-width:0.5;" x1="752.5" x2="891.5" y1="1269.0469" y2="1269.0469"/></g><!--MD5=[9dec31851c9c504cad5b41bb142d96c3]
class DGS--><g id="elem_DGS"><rect codeLine="38" fill="#F1F1F1" height="48" id="DGS" rx="2.5" ry="2.5" style="stroke:#181818;stroke-width:0.5;" width="62" x="556" y="195"/><ellipse cx="571" cy="211" fill="#ADD1B2" rx="11" ry="11" style="stroke:#181818;stroke-width:1.0;"/><path d="M573,207.5 Q573.2031,207 573.4375,206.75 Q573.6719,206.5 573.9375,206.5 Q574.4063,206.5 574.7031,206.7813 Q575,207.0625 575,207.7188 L575,209.2813 Q575,209.9375 574.7188,210.2188 Q574.4375,210.5 574,210.5 Q573.6094,210.5 573.3594,210.3281 Q573.1094,210.1563 573,209.7031 Q572.9531,209.3906 572.7813,209.2188 Q572.4688,208.8906 571.9063,208.7031 Q571.3438,208.5 570.7813,208.5 Q570.0781,208.5 569.4844,208.7813 Q568.9063,209.0625 568.4531,209.6875 Q568,210.3125 568,211.1719 L568,212.0938 Q568,213.125 568.8438,213.8125 Q569.6875,214.5 571.1875,214.5 Q572.0781,214.5 572.7031,214.2969 Q573.0625,214.1875 573.4688,213.8281 Q573.7344,213.625 573.875,213.5625 Q574.0156,213.5 574.1875,213.5 Q574.5156,213.5 574.75,213.7656 Q575,214.0156 575,214.375 Q575,214.7188 574.6563,215.125 Q574.1563,215.7188 573.3594,216.0469 Q572.3125,216.5 571.0313,216.5 Q569.5313,216.5 568.3281,215.9063 Q567.3594,215.4375 566.6719,214.4219 Q566,213.4063 566,212.2031 L566,211.1094 Q566,209.8594 566.5938,208.7656 Q567.2031,207.6719 568.25,207.0938 Q569.3125,206.5 570.5,206.5 Q571.2188,206.5 571.8438,206.75 Q572.4688,207 573,207.5 Z " fill="#000000"/><text fill="#000000" font-family="sans-serif" font-size="14" lengthAdjust="spacing" textLength="30" x="585" y="216.7285">DGS</text><line style="stroke:#181818;stroke-width:0.5;" x1="557" x2="617" y1="227" y2="227"/><line style="stroke:#181818;stroke-width:0.5;" x1="557" x2="617" y1="235" y2="235"/></g><!--MD5=[a059576e163b46f56762f12600c49258]
class Nurse--><g id="elem_Nurse"><rect codeLine="34" fill="#F1F1F1" height="48" id="Nurse" rx="2.5" ry="2.5" style="stroke:#181818;stroke-width:0.5;" width="69" x="1263.5" y="765"/><ellipse cx="1278.5" cy="781" fill="#ADD1B2" rx="11" ry="11" style="stroke:#181818;stroke-width:1.0;"/><path d="M1280.5,777.5 Q1280.7031,777 1280.9375,776.75 Q1281.1719,776.5 1281.4375,776.5 Q1281.9063,776.5 1282.2031,776.7813 Q1282.5,777.0625 1282.5,777.7188 L1282.5,779.2813 Q1282.5,779.9375 1282.2188,780.2188 Q1281.9375,780.5 1281.5,780.5 Q1281.1094,780.5 1280.8594,780.3281 Q1280.6094,780.1563 1280.5,779.7031 Q1280.4531,779.3906 1280.2813,779.2188 Q1279.9688,778.8906 1279.4063,778.7031 Q1278.8438,778.5 1278.2813,778.5 Q1277.5781,778.5 1276.9844,778.7813 Q1276.4063,779.0625 1275.9531,779.6875 Q1275.5,780.3125 1275.5,781.1719 L1275.5,782.0938 Q1275.5,783.125 1276.3438,783.8125 Q1277.1875,784.5 1278.6875,784.5 Q1279.5781,784.5 1280.2031,784.2969 Q1280.5625,784.1875 1280.9688,783.8281 Q1281.2344,783.625 1281.375,783.5625 Q1281.5156,783.5 1281.6875,783.5 Q1282.0156,783.5 1282.25,783.7656 Q1282.5,784.0156 1282.5,784.375 Q1282.5,784.7188 1282.1563,785.125 Q1281.6563,785.7188 1280.8594,786.0469 Q1279.8125,786.5 1278.5313,786.5 Q1277.0313,786.5 1275.8281,785.9063 Q1274.8594,785.4375 1274.1719,784.4219 Q1273.5,783.4063 1273.5,782.2031 L1273.5,781.1094 Q1273.5,779.8594 1274.0938,778.7656 Q1274.7031,777.6719 1275.75,777.0938 Q1276.8125,776.5 1278,776.5 Q1278.7188,776.5 1279.3438,776.75 Q1279.9688,777 1280.5,777.5 Z " fill="#000000"/><text fill="#000000" font-family="sans-serif" font-size="14" lengthAdjust="spacing" textLength="37" x="1292.5" y="786.7285">Nurse</text><line style="stroke:#181818;stroke-width:0.5;" x1="1264.5" x2="1331.5" y1="797" y2="797"/><line style="stroke:#181818;stroke-width:0.5;" x1="1264.5" x2="1331.5" y1="805" y2="805"/></g><!--MD5=[ae27ab334c9ca5f6a013ce0b55b99b8c]
class CovidDigitalCertificate--><g id="elem_CovidDigitalCertificate"><rect codeLine="35" fill="#F1F1F1" height="48" id="CovidDigitalCertificate" rx="2.5" ry="2.5" style="stroke:#181818;stroke-width:0.5;" width="171" x="1079.5" y="953"/><ellipse cx="1094.5" cy="969" fill="#ADD1B2" rx="11" ry="11" style="stroke:#181818;stroke-width:1.0;"/><path d="M1096.5,965.5 Q1096.7031,965 1096.9375,964.75 Q1097.1719,964.5 1097.4375,964.5 Q1097.9063,964.5 1098.2031,964.7813 Q1098.5,965.0625 1098.5,965.7188 L1098.5,967.2813 Q1098.5,967.9375 1098.2188,968.2188 Q1097.9375,968.5 1097.5,968.5 Q1097.1094,968.5 1096.8594,968.3281 Q1096.6094,968.1563 1096.5,967.7031 Q1096.4531,967.3906 1096.2813,967.2188 Q1095.9688,966.8906 1095.4063,966.7031 Q1094.8438,966.5 1094.2813,966.5 Q1093.5781,966.5 1092.9844,966.7813 Q1092.4063,967.0625 1091.9531,967.6875 Q1091.5,968.3125 1091.5,969.1719 L1091.5,970.0938 Q1091.5,971.125 1092.3438,971.8125 Q1093.1875,972.5 1094.6875,972.5 Q1095.5781,972.5 1096.2031,972.2969 Q1096.5625,972.1875 1096.9688,971.8281 Q1097.2344,971.625 1097.375,971.5625 Q1097.5156,971.5 1097.6875,971.5 Q1098.0156,971.5 1098.25,971.7656 Q1098.5,972.0156 1098.5,972.375 Q1098.5,972.7188 1098.1563,973.125 Q1097.6563,973.7188 1096.8594,974.0469 Q1095.8125,974.5 1094.5313,974.5 Q1093.0313,974.5 1091.8281,973.9063 Q1090.8594,973.4375 1090.1719,972.4219 Q1089.5,971.4063 1089.5,970.2031 L1089.5,969.1094 Q1089.5,967.8594 1090.0938,966.7656 Q1090.7031,965.6719 1091.75,965.0938 Q1092.8125,964.5 1094,964.5 Q1094.7188,964.5 1095.3438,964.75 Q1095.9688,965 1096.5,965.5 Z " fill="#000000"/><text fill="#000000" font-family="sans-serif" font-size="14" lengthAdjust="spacing" textLength="139" x="1108.5" y="974.7285">CovidDigitalCertificate</text><line style="stroke:#181818;stroke-width:0.5;" x1="1080.5" x2="1249.5" y1="985" y2="985"/><line style="stroke:#181818;stroke-width:0.5;" x1="1080.5" x2="1249.5" y1="993" y2="993"/></g><!--MD5=[03960189e81aa2c066c762ffabbee709]
class Receptionist--><g id="elem_Receptionist"><rect codeLine="36" fill="#F1F1F1" height="48" id="Receptionist" rx="2.5" ry="2.5" style="stroke:#181818;stroke-width:0.5;" width="110" x="370" y="7"/><ellipse cx="385" cy="23" fill="#ADD1B2" rx="11" ry="11" style="stroke:#181818;stroke-width:1.0;"/><path d="M387,19.5 Q387.2031,19 387.4375,18.75 Q387.6719,18.5 387.9375,18.5 Q388.4063,18.5 388.7031,18.7813 Q389,19.0625 389,19.7188 L389,21.2813 Q389,21.9375 388.7188,22.2188 Q388.4375,22.5 388,22.5 Q387.6094,22.5 387.3594,22.3281 Q387.1094,22.1563 387,21.7031 Q386.9531,21.3906 386.7813,21.2188 Q386.4688,20.8906 385.9063,20.7031 Q385.3438,20.5 384.7813,20.5 Q384.0781,20.5 383.4844,20.7813 Q382.9063,21.0625 382.4531,21.6875 Q382,22.3125 382,23.1719 L382,24.0938 Q382,25.125 382.8438,25.8125 Q383.6875,26.5 385.1875,26.5 Q386.0781,26.5 386.7031,26.2969 Q387.0625,26.1875 387.4688,25.8281 Q387.7344,25.625 387.875,25.5625 Q388.0156,25.5 388.1875,25.5 Q388.5156,25.5 388.75,25.7656 Q389,26.0156 389,26.375 Q389,26.7188 388.6563,27.125 Q388.1563,27.7188 387.3594,28.0469 Q386.3125,28.5 385.0313,28.5 Q383.5313,28.5 382.3281,27.9063 Q381.3594,27.4375 380.6719,26.4219 Q380,25.4063 380,24.2031 L380,23.1094 Q380,21.8594 380.5938,20.7656 Q381.2031,19.6719 382.25,19.0938 Q383.3125,18.5 384.5,18.5 Q385.2188,18.5 385.8438,18.75 Q386.4688,19 387,19.5 Z " fill="#000000"/><text fill="#000000" font-family="sans-serif" font-size="14" lengthAdjust="spacing" textLength="78" x="399" y="28.7285">Receptionist</text><line style="stroke:#181818;stroke-width:0.5;" x1="371" x2="479" y1="39" y2="39"/><line style="stroke:#181818;stroke-width:0.5;" x1="371" x2="479" y1="47" y2="47"/></g><!--MD5=[53d58b469dab931cbea506cdf5ebe602]
class Vaccination--><g id="elem_Vaccination"><rect codeLine="37" fill="#F1F1F1" height="48" id="Vaccination" rx="2.5" ry="2.5" style="stroke:#181818;stroke-width:0.5;" width="105" x="845.5" y="953"/><ellipse cx="860.5" cy="969" fill="#ADD1B2" rx="11" ry="11" style="stroke:#181818;stroke-width:1.0;"/><path d="M862.5,965.5 Q862.7031,965 862.9375,964.75 Q863.1719,964.5 863.4375,964.5 Q863.9063,964.5 864.2031,964.7813 Q864.5,965.0625 864.5,965.7188 L864.5,967.2813 Q864.5,967.9375 864.2188,968.2188 Q863.9375,968.5 863.5,968.5 Q863.1094,968.5 862.8594,968.3281 Q862.6094,968.1563 862.5,967.7031 Q862.4531,967.3906 862.2813,967.2188 Q861.9688,966.8906 861.4063,966.7031 Q860.8438,966.5 860.2813,966.5 Q859.5781,966.5 858.9844,966.7813 Q858.4063,967.0625 857.9531,967.6875 Q857.5,968.3125 857.5,969.1719 L857.5,970.0938 Q857.5,971.125 858.3438,971.8125 Q859.1875,972.5 860.6875,972.5 Q861.5781,972.5 862.2031,972.2969 Q862.5625,972.1875 862.9688,971.8281 Q863.2344,971.625 863.375,971.5625 Q863.5156,971.5 863.6875,971.5 Q864.0156,971.5 864.25,971.7656 Q864.5,972.0156 864.5,972.375 Q864.5,972.7188 864.1563,973.125 Q863.6563,973.7188 862.8594,974.0469 Q861.8125,974.5 860.5313,974.5 Q859.0313,974.5 857.8281,973.9063 Q856.8594,973.4375 856.1719,972.4219 Q855.5,971.4063 855.5,970.2031 L855.5,969.1094 Q855.5,967.8594 856.0938,966.7656 Q856.7031,965.6719 857.75,965.0938 Q858.8125,964.5 860,964.5 Q860.7188,964.5 861.3438,964.75 Q861.9688,965 862.5,965.5 Z " fill="#000000"/><text fill="#000000" font-family="sans-serif" font-size="14" lengthAdjust="spacing" textLength="73" x="874.5" y="974.7285">Vaccination</text><line style="stroke:#181818;stroke-width:0.5;" x1="846.5" x2="949.5" y1="985" y2="985"/><line style="stroke:#181818;stroke-width:0.5;" x1="846.5" x2="949.5" y1="993" y2="993"/></g><!--MD5=[e20e044c9750be76ae79fe869ed0281c]
class PerformanceAnalysis--><g id="elem_PerformanceAnalysis"><rect codeLine="39" fill="#F1F1F1" height="48" id="PerformanceAnalysis" rx="2.5" ry="2.5" style="stroke:#181818;stroke-width:0.5;" width="165" x="366.5" y="1185"/><ellipse cx="381.5" cy="1201" fill="#ADD1B2" rx="11" ry="11" style="stroke:#181818;stroke-width:1.0;"/><path d="M383.5,1197.5 Q383.7031,1197 383.9375,1196.75 Q384.1719,1196.5 384.4375,1196.5 Q384.9063,1196.5 385.2031,1196.7813 Q385.5,1197.0625 385.5,1197.7188 L385.5,1199.2813 Q385.5,1199.9375 385.2188,1200.2188 Q384.9375,1200.5 384.5,1200.5 Q384.1094,1200.5 383.8594,1200.3281 Q383.6094,1200.1563 383.5,1199.7031 Q383.4531,1199.3906 383.2813,1199.2188 Q382.9688,1198.8906 382.4063,1198.7031 Q381.8438,1198.5 381.2813,1198.5 Q380.5781,1198.5 379.9844,1198.7813 Q379.4063,1199.0625 378.9531,1199.6875 Q378.5,1200.3125 378.5,1201.1719 L378.5,1202.0938 Q378.5,1203.125 379.3438,1203.8125 Q380.1875,1204.5 381.6875,1204.5 Q382.5781,1204.5 383.2031,1204.2969 Q383.5625,1204.1875 383.9688,1203.8281 Q384.2344,1203.625 384.375,1203.5625 Q384.5156,1203.5 384.6875,1203.5 Q385.0156,1203.5 385.25,1203.7656 Q385.5,1204.0156 385.5,1204.375 Q385.5,1204.7188 385.1563,1205.125 Q384.6563,1205.7188 383.8594,1206.0469 Q382.8125,1206.5 381.5313,1206.5 Q380.0313,1206.5 378.8281,1205.9063 Q377.8594,1205.4375 377.1719,1204.4219 Q376.5,1203.4063 376.5,1202.2031 L376.5,1201.1094 Q376.5,1199.8594 377.0938,1198.7656 Q377.7031,1197.6719 378.75,1197.0938 Q379.8125,1196.5 381,1196.5 Q381.7188,1196.5 382.3438,1196.75 Q382.9688,1197 383.5,1197.5 Z " fill="#000000"/><text fill="#000000" font-family="sans-serif" font-size="14" lengthAdjust="spacing" textLength="133" x="395.5" y="1206.7285">PerformanceAnalysis</text><line style="stroke:#181818;stroke-width:0.5;" x1="367.5" x2="530.5" y1="1217" y2="1217"/><line style="stroke:#181818;stroke-width:0.5;" x1="367.5" x2="530.5" y1="1225" y2="1225"/></g><!--MD5=[f00dbe8c0302c6aec2cb26b3c659c8fc]
class Report--><g id="elem_Report"><rect codeLine="40" fill="#F1F1F1" height="48" id="Report" rx="2.5" ry="2.5" style="stroke:#181818;stroke-width:0.5;" width="75" x="490.5" y="953"/><ellipse cx="505.5" cy="969" fill="#ADD1B2" rx="11" ry="11" style="stroke:#181818;stroke-width:1.0;"/><path d="M507.5,965.5 Q507.7031,965 507.9375,964.75 Q508.1719,964.5 508.4375,964.5 Q508.9063,964.5 509.2031,964.7813 Q509.5,965.0625 509.5,965.7188 L509.5,967.2813 Q509.5,967.9375 509.2188,968.2188 Q508.9375,968.5 508.5,968.5 Q508.1094,968.5 507.8594,968.3281 Q507.6094,968.1563 507.5,967.7031 Q507.4531,967.3906 507.2813,967.2188 Q506.9688,966.8906 506.4063,966.7031 Q505.8438,966.5 505.2813,966.5 Q504.5781,966.5 503.9844,966.7813 Q503.4063,967.0625 502.9531,967.6875 Q502.5,968.3125 502.5,969.1719 L502.5,970.0938 Q502.5,971.125 503.3438,971.8125 Q504.1875,972.5 505.6875,972.5 Q506.5781,972.5 507.2031,972.2969 Q507.5625,972.1875 507.9688,971.8281 Q508.2344,971.625 508.375,971.5625 Q508.5156,971.5 508.6875,971.5 Q509.0156,971.5 509.25,971.7656 Q509.5,972.0156 509.5,972.375 Q509.5,972.7188 509.1563,973.125 Q508.6563,973.7188 507.8594,974.0469 Q506.8125,974.5 505.5313,974.5 Q504.0313,974.5 502.8281,973.9063 Q501.8594,973.4375 501.1719,972.4219 Q500.5,971.4063 500.5,970.2031 L500.5,969.1094 Q500.5,967.8594 501.0938,966.7656 Q501.7031,965.6719 502.75,965.0938 Q503.8125,964.5 505,964.5 Q505.7188,964.5 506.3438,964.75 Q506.9688,965 507.5,965.5 Z " fill="#000000"/><text fill="#000000" font-family="sans-serif" font-size="14" lengthAdjust="spacing" textLength="43" x="519.5" y="974.7285">Report</text><line style="stroke:#181818;stroke-width:0.5;" x1="491.5" x2="564.5" y1="985" y2="985"/><line style="stroke:#181818;stroke-width:0.5;" x1="491.5" x2="564.5" y1="993" y2="993"/></g><!--MD5=[2d935fd2dd068a13da1ae531f9857c4f]
class CenterCoordinator--><g id="elem_CenterCoordinator"><rect fill="#F1F1F1" height="48" id="CenterCoordinator" rx="2.5" ry="2.5" style="stroke:#181818;stroke-width:0.5;" width="150" x="366" y="765"/><ellipse cx="381" cy="781" fill="#ADD1B2" rx="11" ry="11" style="stroke:#181818;stroke-width:1.0;"/><path d="M383,777.5 Q383.2031,777 383.4375,776.75 Q383.6719,776.5 383.9375,776.5 Q384.4063,776.5 384.7031,776.7813 Q385,777.0625 385,777.7188 L385,779.2813 Q385,779.9375 384.7188,780.2188 Q384.4375,780.5 384,780.5 Q383.6094,780.5 383.3594,780.3281 Q383.1094,780.1563 383,779.7031 Q382.9531,779.3906 382.7813,779.2188 Q382.4688,778.8906 381.9063,778.7031 Q381.3438,778.5 380.7813,778.5 Q380.0781,778.5 379.4844,778.7813 Q378.9063,779.0625 378.4531,779.6875 Q378,780.3125 378,781.1719 L378,782.0938 Q378,783.125 378.8438,783.8125 Q379.6875,784.5 381.1875,784.5 Q382.0781,784.5 382.7031,784.2969 Q383.0625,784.1875 383.4688,783.8281 Q383.7344,783.625 383.875,783.5625 Q384.0156,783.5 384.1875,783.5 Q384.5156,783.5 384.75,783.7656 Q385,784.0156 385,784.375 Q385,784.7188 384.6563,785.125 Q384.1563,785.7188 383.3594,786.0469 Q382.3125,786.5 381.0313,786.5 Q379.5313,786.5 378.3281,785.9063 Q377.3594,785.4375 376.6719,784.4219 Q376,783.4063 376,782.2031 L376,781.1094 Q376,779.8594 376.5938,778.7656 Q377.2031,777.6719 378.25,777.0938 Q379.3125,776.5 380.5,776.5 Q381.2188,776.5 381.8438,776.75 Q382.4688,777 383,777.5 Z " fill="#000000"/><text fill="#000000" font-family="sans-serif" font-size="14" lengthAdjust="spacing" textLength="118" x="395" y="786.7285">CenterCoordinator</text><line style="stroke:#181818;stroke-width:0.5;" x1="367" x2="515" y1="797" y2="797"/><line style="stroke:#181818;stroke-width:0.5;" x1="367" x2="515" y1="805" y2="805"/></g><!--MD5=[0e8cb916868dace7535ab14483f3caae]
link Admin to CenterCoordinator--><g id="link_Admin_CenterCoordinator"><path codeLine="43" d="M639.32,528.16 C598.72,581.36 499.17,711.79 458.62,764.92 " fill="none" id="Admin-CenterCoordinator" style="stroke:#181818;stroke-width:1.0;"/><polygon fill="#000000" points="519.9665,699.1504,527.7904,693.7433,523.1179,690.1772,519.9665,699.1504" style="stroke:#000000;stroke-width:1.0;"/><text fill="#000000" font-family="sans-serif" font-size="13" lengthAdjust="spacing" textLength="50" x="532" y="700.4951">registers</text><text fill="#000000" font-family="sans-serif" font-size="13" lengthAdjust="spacing" textLength="7" x="627.1574" y="549.537">1</text><text fill="#000000" font-family="sans-serif" font-size="13" lengthAdjust="spacing" textLength="7" x="455.2383" y="754.2397">1</text></g><!--MD5=[3c9748a687fec00fab8b17b659b9c92a]
link Admin to SNSUser--><g id="link_Admin_SNSUser"><path codeLine="44" d="M673.2,528.16 C710.42,581.36 801.68,711.79 838.85,764.92 " fill="none" id="Admin-SNSUser" style="stroke:#181818;stroke-width:1.0;"/><polygon fill="#000000" points="802.8664,699.2726,800.0891,690.1766,795.273,693.5462,802.8664,699.2726" style="stroke:#000000;stroke-width:1.0;"/><text fill="#000000" font-family="sans-serif" font-size="13" lengthAdjust="spacing" textLength="50" x="809" y="700.4951">registers</text><text fill="#000000" font-family="sans-serif" font-size="13" lengthAdjust="spacing" textLength="7" x="669.2956" y="549.537">1</text><text fill="#000000" font-family="sans-serif" font-size="13" lengthAdjust="spacing" textLength="5" x="829.0709" y="754.2397">*</text></g><!--MD5=[b9c57625f78d0142b687e8406fd75f9e]
link Admin to Vaccine--><g id="link_Admin_Vaccine"><path codeLine="45" d="M654.95,528.16 C650.25,581.36 638.73,711.79 634.04,764.92 " fill="none" id="Admin-Vaccine" style="stroke:#181818;stroke-width:1.0;"/><polygon fill="#000000" points="645.5601,700.1564,649.2834,691.4049,643.4283,690.8878,645.5601,700.1564" style="stroke:#000000;stroke-width:1.0;"/><text fill="#000000" font-family="sans-serif" font-size="13" lengthAdjust="spacing" textLength="53" x="655" y="700.4951">manages</text><text fill="#000000" font-family="sans-serif" font-size="13" lengthAdjust="spacing" textLength="7" x="646.5972" y="549.537">1</text><text fill="#000000" font-family="sans-serif" font-size="13" lengthAdjust="spacing" textLength="5" x="628.9221" y="754.2397">*</text></g><!--MD5=[847d080293397c13284c6165ee564ba5]
link SNSUser to Vaccination--><g id="link_SNSUser_Vaccination"><path codeLine="46" d="M860.36,813.18 C868.62,848.92 884.38,917.08 892.64,952.82 " fill="none" id="SNSUser-Vaccination" style="stroke:#181818;stroke-width:1.0;"/><polygon fill="#000000" points="880.8739,878.3042,880.0476,887.7789,885.7745,886.455,880.8739,878.3042" style="stroke:#000000;stroke-width:1.0;"/><text fill="#000000" font-family="sans-serif" font-size="13" lengthAdjust="spacing" textLength="92" x="891" y="888.4951">administered on</text><text fill="#000000" font-family="sans-serif" font-size="13" lengthAdjust="spacing" textLength="5" x="856.0571" y="834.5618">*</text><text fill="#000000" font-family="sans-serif" font-size="13" lengthAdjust="spacing" textLength="7" x="883.3696" y="942.114">1</text></g><!--MD5=[1694b4a2bc965c9ae63cabc4ebb0876f]
link SNSUser to CovidDigitalCertificate--><g id="link_SNSUser_CovidDigitalCertificate"><path codeLine="47" d="M893.63,813.18 C953.2,848.92 1066.8,917.08 1126.37,952.82 " fill="none" id="SNSUser-CovidDigitalCertificate" style="stroke:#181818;stroke-width:1.0;"/><polygon fill="#000000" points="1029.2875,885.7482,1023.0434,878.5745,1020.0193,883.6148,1029.2875,885.7482" style="stroke:#000000;stroke-width:1.0;"/><text fill="#000000" font-family="sans-serif" font-size="13" lengthAdjust="spacing" textLength="46" x="1034" y="888.4951">asks for</text><text fill="#000000" font-family="sans-serif" font-size="13" lengthAdjust="spacing" textLength="5" x="897.4367" y="834.5618">*</text><text fill="#000000" font-family="sans-serif" font-size="13" lengthAdjust="spacing" textLength="7" x="1108.5742" y="942.114">1</text></g><!--MD5=[64d67b2370fffc59724a2aa203ca612d]
link SNSUser to ScheduleVaccine--><g id="link_SNSUser_ScheduleVaccine"><path codeLine="48" d="M813.32,813.13 C790.57,829.1 767,852.71 767,882 C767,882 767,882 767,1072 C767,1095.43 774.1,1119.59 783.2,1140.92 " fill="none" id="SNSUser-ScheduleVaccine" style="stroke:#181818;stroke-width:1.0;"/><polygon fill="#000000" points="771.5425,982.1548,775.2967,973.4166,769.4435,972.8787,771.5425,982.1548" style="stroke:#000000;stroke-width:1.0;"/><text fill="#000000" font-family="sans-serif" font-size="13" lengthAdjust="spacing" textLength="28" x="781" y="982.4951">does</text><text fill="#000000" font-family="sans-serif" font-size="13" lengthAdjust="spacing" textLength="5" x="798.1034" y="834.0958">*</text><text fill="#000000" font-family="sans-serif" font-size="13" lengthAdjust="spacing" textLength="7" x="771.5734" y="1130.1105">1</text></g><!--MD5=[c9e1ae72bfcb646b987a09fd2a6eb6f2]
link Nurse to CovidDigitalCertificate--><g id="link_Nurse_CovidDigitalCertificate"><path codeLine="49" d="M1285.2,813.34 C1273.29,834.45 1254.65,866.1 1236,892 C1220.49,913.54 1200.89,936.45 1186.22,952.9 " fill="none" id="Nurse-CovidDigitalCertificate" style="stroke:#181818;stroke-width:1.0;"/><polygon fill="#000000" points="1250.1075,887.2542,1257.7373,881.5765,1252.9429,878.1761,1250.1075,887.2542" style="stroke:#000000;stroke-width:1.0;"/><text fill="#000000" font-family="sans-serif" font-size="13" lengthAdjust="spacing" textLength="31" x="1262" y="888.4951">isses</text><text fill="#000000" font-family="sans-serif" font-size="13" lengthAdjust="spacing" textLength="5" x="1276.6619" y="834.3544">*</text><text fill="#000000" font-family="sans-serif" font-size="13" lengthAdjust="spacing" textLength="5" x="1186.017" y="942.2145">*</text></g><!--MD5=[6ea0f40543939b6e2ae9ee19242139f7]
link Nurse to Vaccination--><g id="link_Nurse_Vaccination"><path codeLine="50" d="M1263.44,807.39 C1222.16,828.04 1150.9,863.3 1089,892 C1042.5,913.56 989.05,936.95 950.54,953.56 " fill="none" id="Nurse-Vaccination" style="stroke:#181818;stroke-width:1.0;"/><polygon fill="#000000" points="1124.4699,885.292,1133.9088,884.1264,1131.421,878.801,1124.4699,885.292" style="stroke:#000000;stroke-width:1.0;"/><text fill="#000000" font-family="sans-serif" font-size="13" lengthAdjust="spacing" textLength="50" x="1138" y="888.4951">performs</text><text fill="#000000" font-family="sans-serif" font-size="13" lengthAdjust="spacing" textLength="5" x="1250.3331" y="807.1964">*</text><text fill="#000000" font-family="sans-serif" font-size="13" lengthAdjust="spacing" textLength="5" x="958.624" y="946.4632">*</text></g><!--MD5=[588212555811379b392de144c0b7707c]
link Nurse to VaccineType--><g id="link_Nurse_VaccineType"><path codeLine="51" d="M1332.63,804.97 C1361.17,819.91 1397,845.87 1397,882 C1397,882 1397,882 1397,1348 C1397,1451.96 1031.87,1465.48 883.54,1466.69 " fill="none" id="Nurse-VaccineType" style="stroke:#181818;stroke-width:1.0;"/><polygon fill="#000000" points="1399.1922,1075.313,1406.7033,1069.4791,1401.8398,1066.1783,1399.1922,1075.313" style="stroke:#000000;stroke-width:1.0;"/><text fill="#000000" font-family="sans-serif" font-size="13" lengthAdjust="spacing" textLength="49" x="1411" y="1076.4951">confirms</text><text fill="#000000" font-family="sans-serif" font-size="13" lengthAdjust="spacing" textLength="5" x="1340.2881" y="804.1452">*</text><text fill="#000000" font-family="sans-serif" font-size="13" lengthAdjust="spacing" textLength="5" x="891.3449" y="1463.1433">*</text></g><!--MD5=[4e399d38d6a566bda7b7f0290d2186d8]
link Vaccination to ScheduleVaccine--><g id="link_Vaccination_ScheduleVaccine"><path codeLine="52" d="M890.29,1001.32 C879.58,1033.75 859.74,1093.8 844.19,1140.84 " fill="none" id="Vaccination-ScheduleVaccine" style="stroke:#181818;stroke-width:1.0;"/><polygon fill="#000000" points="873.4313,1075.9233,879.0596,1068.257,873.4785,1066.4129,873.4313,1075.9233" style="stroke:#000000;stroke-width:1.0;"/><text fill="#000000" font-family="sans-serif" font-size="13" lengthAdjust="spacing" textLength="42" x="884" y="1076.4951">fulfilling</text><text fill="#000000" font-family="sans-serif" font-size="13" lengthAdjust="spacing" textLength="7" x="880.6977" y="1022.3298">1</text><text fill="#000000" font-family="sans-serif" font-size="13" lengthAdjust="spacing" textLength="7" x="839.2342" y="1130.0218">1</text></g><!--MD5=[b6f342dd84fd94becfb65fe9e3b69293]
link ScheduleVaccine to VaccineType--><g id="link_ScheduleVaccine_VaccineType"><path codeLine="53" d="M822,1277.06 C822,1320.85 822,1377.06 822,1416.85 " fill="none" id="ScheduleVaccine-VaccineType" style="stroke:#181818;stroke-width:1.0;"/><polygon fill="#000000" points="827,1352.1758,829.9389,1343.1307,824.0611,1343.1307,827,1352.1758" style="stroke:#000000;stroke-width:1.0;"/><text fill="#000000" font-family="sans-serif" font-size="13" lengthAdjust="spacing" textLength="53" x="836" y="1352.4951">for taking</text><text fill="#000000" font-family="sans-serif" font-size="13" lengthAdjust="spacing" textLength="7" x="814.6391" y="1298.4145">1</text><text fill="#000000" font-family="sans-serif" font-size="13" lengthAdjust="spacing" textLength="5" x="816.6484" y="1406.1343">*</text></g><!--MD5=[3568623adf67b2630dce9e60c05bd02a]
link Vaccine to VaccineType--><g id="link_Vaccine_VaccineType"><path codeLine="54" d="M632,813.06 C632,831.67 632,858.52 632,882 C632,882 632,882 632,1348 C632,1409.62 704.83,1440.36 760.31,1454.84 " fill="none" id="Vaccine-VaccineType" style="stroke:#181818;stroke-width:1.0;"/><polygon fill="#000000" points="637.9802,1076.0788,639.0889,1066.633,633.3251,1067.7854,637.9802,1076.0788" style="stroke:#000000;stroke-width:1.0;"/><text fill="#000000" font-family="sans-serif" font-size="13" lengthAdjust="spacing" textLength="67" x="646" y="1076.4951">depends on</text><text fill="#000000" font-family="sans-serif" font-size="13" lengthAdjust="spacing" textLength="5" x="626.3906" y="834.4126">*</text><text fill="#000000" font-family="sans-serif" font-size="13" lengthAdjust="spacing" textLength="5" x="747.4868" y="1449.8491">*</text></g><!--MD5=[759c7f6dbf62b13e16002bff783a0fa8]
link VaccinationCenter to Vaccine--><g id="link_VaccinationCenter_Vaccine"><path codeLine="55" d="M380.88,625.22 C387.24,653.56 398.28,681.91 417,704 C440.06,731.21 535,761.19 590.71,776.93 " fill="none" id="VaccinationCenter-Vaccine" style="stroke:#181818;stroke-width:1.0;"/><polygon fill="#000000" points="426.0519,698.1053,420.4439,690.4241,417,695.1873,426.0519,698.1053" style="stroke:#000000;stroke-width:1.0;"/><text fill="#000000" font-family="sans-serif" font-size="13" lengthAdjust="spacing" textLength="67" x="431" y="700.4951">administers</text><text fill="#000000" font-family="sans-serif" font-size="13" lengthAdjust="spacing" textLength="5" x="376.0754" y="646.2044">*</text><text fill="#000000" font-family="sans-serif" font-size="13" lengthAdjust="spacing" textLength="5" x="577.9099" y="770.8815">*</text></g><!--MD5=[bb89c84865602b73d6e93796625bc84b]
link VaccinationCenter to HealthCareCenter--><g id="link_VaccinationCenter_HealthCareCenter"><path codeLine="56" d="M300.74,599.23 C254.5,657.92 198.6,728.87 170.31,764.77 " fill="none" id="VaccinationCenter-HealthCareCenter" style="stroke:#181818;stroke-width:1.0;"/><polygon fill="#000000" points="239.0944,691.2484,231.1881,696.5343,235.805,700.172,239.0944,691.2484" style="stroke:#000000;stroke-width:1.0;"/><text fill="#000000" font-family="sans-serif" font-size="13" lengthAdjust="spacing" textLength="21" x="245" y="700.4951">is a</text><text fill="#000000" font-family="sans-serif" font-size="13" lengthAdjust="spacing" textLength="5" x="287.8241" y="605.7541">*</text><text fill="#000000" font-family="sans-serif" font-size="13" lengthAdjust="spacing" textLength="5" x="169.3613" y="754.0512">*</text></g><!--MD5=[8d58cf1c2119791001cf5144e9295faa]
link VaccinationCenter to CenterCoordinator--><g id="link_VaccinationCenter_CenterCoordinator"><path codeLine="57" d="M300.94,588.45 C277.73,624.89 263.22,667.54 285,704 C302.75,733.71 335.02,753.53 365.63,766.41 " fill="none" id="VaccinationCenter-CenterCoordinator" style="stroke:#181818;stroke-width:1.0;"/><polygon fill="#000000" points="291.7082,699.8749,291.3801,690.37,285.856,692.3781,291.7082,699.8749" style="stroke:#000000;stroke-width:1.0;"/><text fill="#000000" font-family="sans-serif" font-size="13" lengthAdjust="spacing" textLength="32" x="299" y="700.4951">has a</text><text fill="#000000" font-family="sans-serif" font-size="13" lengthAdjust="spacing" textLength="5" x="288.0448" y="593.8625">*</text><text fill="#000000" font-family="sans-serif" font-size="13" lengthAdjust="spacing" textLength="7" x="351.1127" y="761.0063">1</text></g><!--MD5=[2421739cc0e47e7355273b7e4575a787]
link DGS to Admin--><g id="link_DGS_Admin"><path codeLine="58" d="M592.73,243.16 C605.89,296.36 638.15,426.79 651.29,479.92 " fill="none" id="DGS-Admin" style="stroke:#181818;stroke-width:1.0;"/><polygon fill="#000000" points="618.2005,318.0295,618.8817,308.5434,613.1758,309.9547,618.2005,318.0295" style="stroke:#000000;stroke-width:1.0;"/><text fill="#000000" font-family="sans-serif" font-size="13" lengthAdjust="spacing" textLength="49" x="626" y="318.4951">employs</text><text fill="#000000" font-family="sans-serif" font-size="13" lengthAdjust="spacing" textLength="7" x="586.2736" y="264.537">1</text><text fill="#000000" font-family="sans-serif" font-size="13" lengthAdjust="spacing" textLength="5" x="644.1862" y="469.2397">*</text></g><!--MD5=[cb513c20f056b40a34a515541651a85b]
link DGS to VaccinationCenter--><g id="link_DGS_VaccinationCenter"><path codeLine="59" d="M569.65,243.16 C543.49,278.08 492.42,346.26 449.14,404.02 " fill="none" id="DGS-VaccinationCenter" style="stroke:#181818;stroke-width:1.0;"/><polygon fill="#000000" points="525.0021,317.1774,532.7774,311.7005,528.0732,308.1763,525.0021,317.1774" style="stroke:#000000;stroke-width:1.0;"/><text fill="#000000" font-family="sans-serif" font-size="13" lengthAdjust="spacing" textLength="30" x="537" y="318.4951">owns</text><text fill="#000000" font-family="sans-serif" font-size="13" lengthAdjust="spacing" textLength="7" x="557.5678" y="264.537">1</text><text fill="#000000" font-family="sans-serif" font-size="13" lengthAdjust="spacing" textLength="5" x="457.0435" y="390.4131">*</text></g><!--MD5=[b491a99540371a6c21f332d427d4375a]
link DGS to SNSUser--><g id="link_DGS_SNSUser"><path codeLine="60" d="M618.14,221.99 C700.54,228.11 918,250.12 918,312 C918,312 918,312 918,696 C918,722.91 899.43,747.72 882.45,764.78 " fill="none" id="DGS-SNSUser" style="stroke:#181818;stroke-width:1.0;"/><polygon fill="#000000" points="920.811,499.6804,922.1286,509.0993,927.4132,506.5259,920.811,499.6804" style="stroke:#000000;stroke-width:1.0;"/><text fill="#000000" font-family="sans-serif" font-size="13" lengthAdjust="spacing" textLength="89" x="932" y="509.4951">is registered on</text><text fill="#000000" font-family="sans-serif" font-size="13" lengthAdjust="spacing" textLength="7" x="626.1505" y="218.3672">1</text><text fill="#000000" font-family="sans-serif" font-size="13" lengthAdjust="spacing" textLength="5" x="883.8434" y="754.0638">*</text></g><!--MD5=[5b76ad4aea9bdf9551a08667802db279]
link HealthCareCenter to ARS--><g id="link_HealthCareCenter_ARS"><path codeLine="61" d="M122.23,813.25 C104.23,828.72 82.11,850.48 68,874 C53.15,898.76 44.89,931.22 40.7,952.8 " fill="none" id="HealthCareCenter-ARS" style="stroke:#181818;stroke-width:1.0;"/><polygon fill="#000000" points="70.4777,887.493,77.5781,881.1656,72.503,878.2005,70.4777,887.493" style="stroke:#000000;stroke-width:1.0;"/><text fill="#000000" font-family="sans-serif" font-size="13" lengthAdjust="spacing" textLength="90" x="82" y="888.4951">associated with</text><text fill="#000000" font-family="sans-serif" font-size="13" lengthAdjust="spacing" textLength="5" x="109.3642" y="834.6489">*</text><text fill="#000000" font-family="sans-serif" font-size="13" lengthAdjust="spacing" textLength="7" x="33.7513" y="942.0889">1</text></g><!--MD5=[85f06911c2f4dd592611bbf87a6e3e69]
link HealthCareCenter to AGES--><g id="link_HealthCareCenter_AGES"><path codeLine="62" d="M159.48,813.18 C171.01,848.92 192.99,917.08 204.52,952.82 " fill="none" id="HealthCareCenter-AGES" style="stroke:#181818;stroke-width:1.0;"/><polygon fill="#000000" points="190.5349,887.9344,190.5553,878.4238,184.9612,880.2282,190.5349,887.9344" style="stroke:#000000;stroke-width:1.0;"/><text fill="#000000" font-family="sans-serif" font-size="13" lengthAdjust="spacing" textLength="90" x="198" y="888.4951">associated with</text><text fill="#000000" font-family="sans-serif" font-size="13" lengthAdjust="spacing" textLength="5" x="155.6939" y="834.5618">*</text><text fill="#000000" font-family="sans-serif" font-size="13" lengthAdjust="spacing" textLength="7" x="194.7064" y="942.114">1</text></g><!--MD5=[2bde3c2658e9820e0f62920496486001]
link Receptionist to VaccinationCenter--><g id="link_Receptionist_VaccinationCenter"><path codeLine="63" d="M406.85,55.15 C394.73,72.94 381,98.68 381,124 C381,124 381,124 381,314 C381,336.24 380.58,359.95 379.96,382.79 " fill="none" id="Receptionist-VaccinationCenter" style="stroke:#181818;stroke-width:1.0;"/><polygon fill="#000000" points="385.591,224.159,389.26,215.3846,383.4018,214.9039,385.591,224.159" style="stroke:#000000;stroke-width:1.0;"/><text fill="#000000" font-family="sans-serif" font-size="13" lengthAdjust="spacing" textLength="49" x="395" y="224.4951">works at</text><text fill="#000000" font-family="sans-serif" font-size="13" lengthAdjust="spacing" textLength="5" x="396.8166" y="76.5245">*</text><text fill="#000000" font-family="sans-serif" font-size="13" lengthAdjust="spacing" textLength="5" x="375.1176" y="372.0284">*</text></g><!--MD5=[18051a5f2796576e46c8c3bae8a93232]
link CenterCoordinator to PerformanceAnalysis--><g id="link_CenterCoordinator_PerformanceAnalysis"><path codeLine="64" d="M424.73,813.02 C413.66,830.95 401,856.92 401,882 C401,882 401,882 401,1072 C401,1113.56 421.18,1158.41 435.37,1184.8 " fill="none" id="CenterCoordinator-PerformanceAnalysis" style="stroke:#181818;stroke-width:1.0;"/><polygon fill="#000000" points="406.143,982.1737,408.822,973.0483,402.9466,973.2164,406.143,982.1737" style="stroke:#000000;stroke-width:1.0;"/><text fill="#000000" font-family="sans-serif" font-size="13" lengthAdjust="spacing" textLength="39" x="415" y="982.4951">makes</text><text fill="#000000" font-family="sans-serif" font-size="13" lengthAdjust="spacing" textLength="7" x="412.9111" y="834.3628">1</text><text fill="#000000" font-family="sans-serif" font-size="13" lengthAdjust="spacing" textLength="5" x="426.2367" y="1174.0889">*</text></g><!--MD5=[c0e5ad50a2b6f78d67c9ec501d1860d0]
link CenterCoordinator to Report--><g id="link_CenterCoordinator_Report"><path codeLine="65" d="M451.84,813.18 C468.56,848.92 500.44,917.08 517.16,952.82 " fill="none" id="CenterCoordinator-Report" style="stroke:#181818;stroke-width:1.0;"/><polygon fill="#000000" points="490.8815,878.6468,492.0519,888.0851,497.376,885.5946,490.8815,878.6468" style="stroke:#000000;stroke-width:1.0;"/><text fill="#000000" font-family="sans-serif" font-size="13" lengthAdjust="spacing" textLength="57" x="502" y="888.4951">generates</text><text fill="#000000" font-family="sans-serif" font-size="13" lengthAdjust="spacing" textLength="7" x="446.6291" y="834.5618">1</text><text fill="#000000" font-family="sans-serif" font-size="13" lengthAdjust="spacing" textLength="5" x="508.7416" y="942.114">*</text></g><!--MD5=[499642399feaab480b4e82eaa42e3b89]
link Report to PerformanceAnalysis--><g id="link_Report_PerformanceAnalysis"><path codeLine="66" d="M519.99,1001.32 C504.81,1045.52 472.02,1140.98 456.91,1184.96 " fill="none" id="Report-PerformanceAnalysis" style="stroke:#181818;stroke-width:1.0;"/><polygon fill="#000000" points="502.3757,1075.9046,508.0936,1068.3049,502.5346,1066.3953,502.3757,1075.9046" style="stroke:#000000;stroke-width:1.0;"/><text fill="#000000" font-family="sans-serif" font-size="13" lengthAdjust="spacing" textLength="32" x="513" y="1076.4951">about</text><text fill="#000000" font-family="sans-serif" font-size="13" lengthAdjust="spacing" textLength="5" x="512.5596" y="1022.3298">*</text><text fill="#000000" font-family="sans-serif" font-size="13" lengthAdjust="spacing" textLength="5" x="453.2963" y="1174.2899">*</text></g><!--MD5=[a2b34777cb48a2a30fe6d124791cb83b]
link Receptionist to DGS--><g id="link_Receptionist_DGS"><path codeLine="67" d="M445.19,55.18 C476.32,90.92 535.68,159.08 566.81,194.82 " fill="none" id="Receptionist-DGS" style="stroke:#181818;stroke-width:1.0;"/><polygon fill="#000000" points="513.7161,121.4053,517.4405,130.1563,521.8729,126.2959,513.7161,121.4053" style="stroke:#000000;stroke-width:1.0;"/><text fill="#000000" font-family="sans-serif" font-size="13" lengthAdjust="spacing" textLength="52" x="526" y="130.4951">works for</text><text fill="#000000" font-family="sans-serif" font-size="13" lengthAdjust="spacing" textLength="5" x="444.5019" y="76.5618">*</text><text fill="#000000" font-family="sans-serif" font-size="13" lengthAdjust="spacing" textLength="7" x="553.7394" y="184.114">1</text></g><!--MD5=[ddd60bb098ba9a7a7b4e74177b507abd]
@startuml

class SNSUser{}
class VaccineType{
 - ageGroup
 - dose
 - vaccineDosage
}
class Vaccine{}
class Admin{}
class HealthCareCenter{}
class ARS{}
class AGES{}
class VaccinationCenter{
  - name
  - address
  - emailAddress
  - phoneNumber
  - faxNumber
  - websiteAddress
  - openingHours
  - closingHours
  - slotDuration
  - maxVaccines
  - coordinator
}
class ScheduleVaccine{
- userNumberSNS
- vaccinationCenter
- date
- time
- typeOfVaccine
}
class DGS{}
class Nurse{}
class CovidDigitalCertificate{}
class Receptionist{}
class Vaccination{}
class DGS{}
class PerformanceAnalysis{}
class Report{}


Admin "1"- - -"1" CenterCoordinator : registers >
Admin "1"- - -"*" SNSUser : registers >
Admin "1"- - -"*" Vaccine : manages >
SNSUser "*"- - -"1" Vaccination : administered on <
SNSUser "*"- - -"1" CovidDigitalCertificate : asks for >
SNSUser "*"- - -"1" ScheduleVaccine : does >
Nurse "*"- - -"*" CovidDigitalCertificate : isses >
Nurse "*"- - -"*" Vaccination : performs >
Nurse "*"- - -"*" VaccineType : confirms >
Vaccination "1"- - -"1" ScheduleVaccine : fulfilling >
ScheduleVaccine "1"- - -"*" VaccineType : for taking >
Vaccine "*"- - -"*" VaccineType : depends on >
VaccinationCenter "*"- - -"*" Vaccine : administers >
VaccinationCenter "*"- - -"*" HealthCareCenter : is a <
VaccinationCenter "*"- - -"1" CenterCoordinator : has a >
DGS "1"- - -"*" Admin : employs >
DGS "1"- - -"*" VaccinationCenter : owns >
DGS "1"- - -"*" SNSUser : is registered on <
HealthCareCenter "*"- - -"1" ARS : associated with >
HealthCareCenter "*"- - -"1" AGES : associated with >
Receptionist "*"- - -"*" VaccinationCenter : works at >
CenterCoordinator "1"- - -"*" PerformanceAnalysis : makes >
CenterCoordinator "1"- - -"*" Report : generates <
Report "*"- - -"*" PerformanceAnalysis : about >
Receptionist "*"- - -"1" DGS : works for <


@enduml

PlantUML version 1.2022.4(Sat Apr 09 14:29:17 BST 2022)
(GPL source distribution)
Java Runtime: OpenJDK Runtime Environment
JVM: OpenJDK 64-Bit Server VM
Default Encoding: Cp1252
Language: en
Country: US
--></g></svg>