<?xml version="1.0" encoding="UTF-8" standalone="no"?><svg xmlns="http://www.w3.org/2000/svg" xmlns:xlink="http://www.w3.org/1999/xlink" contentScriptType="application/ecmascript" contentStyleType="text/css" height="1500px" preserveAspectRatio="none" style="width:1709px;height:1500px;background:#FFFFFF;" version="1.1" viewBox="0 0 1709 1500" width="1709px" zoomAndPan="magnify"><defs><filter height="300%" id="fgyt16qctwj79" width="300%" x="-1" y="-1"><feGaussianBlur result="blurOut" stdDeviation="2.0"/><feColorMatrix in="blurOut" result="blurOut2" type="matrix" values="0 0 0 0 0 0 0 0 0 0 0 0 0 0 0 0 0 0 .4 0"/><feOffset dx="4.0" dy="4.0" in="blurOut2" result="blurOut3"/><feBlend in="SourceGraphic" in2="blurOut3" mode="normal"/></filter></defs><g><!--MD5=[da547346deef918ea16944ba046651ef]
class Administrator--><rect codeLine="4" fill="#FEFECE" filter="url(#fgyt16qctwj79)" height="40" id="Administrator" style="stroke:#A80036;stroke-width:1.5;" width="105" x="538.1413" y="7"/><ellipse cx="553.1413" cy="23" fill="#ADD1B2" rx="11" ry="11" style="stroke:#A80036;stroke-width:1.0;"/><path d="M555.1413,19.5 Q555.3444,19 555.5788,18.75 Q555.8132,18.5 556.0788,18.5 Q556.5476,18.5 556.8444,18.7813 Q557.1413,19.0625 557.1413,19.7188 L557.1413,21.2813 Q557.1413,21.9375 556.8601,22.2188 Q556.5788,22.5 556.1413,22.5 Q555.7507,22.5 555.5007,22.3281 Q555.2507,22.1563 555.1413,21.7031 Q555.0944,21.3906 554.9226,21.2188 Q554.6101,20.8906 554.0476,20.7031 Q553.4851,20.5 552.9226,20.5 Q552.2194,20.5 551.6257,20.7813 Q551.0476,21.0625 550.5944,21.6875 Q550.1413,22.3125 550.1413,23.1719 L550.1413,24.0938 Q550.1413,25.125 550.9851,25.8125 Q551.8288,26.5 553.3288,26.5 Q554.2194,26.5 554.8444,26.2969 Q555.2038,26.1875 555.6101,25.8281 Q555.8757,25.625 556.0163,25.5625 Q556.1569,25.5 556.3288,25.5 Q556.6569,25.5 556.8913,25.7656 Q557.1413,26.0156 557.1413,26.375 Q557.1413,26.7188 556.7976,27.125 Q556.2976,27.7188 555.5007,28.0469 Q554.4538,28.5 553.1726,28.5 Q551.6726,28.5 550.4694,27.9063 Q549.5007,27.4375 548.8132,26.4219 Q548.1413,25.4063 548.1413,24.2031 L548.1413,23.1094 Q548.1413,21.8594 548.7351,20.7656 Q549.3444,19.6719 550.3913,19.0938 Q551.4538,18.5 552.6413,18.5 Q553.3601,18.5 553.9851,18.75 Q554.6101,19 555.1413,19.5 Z " fill="#000000"/><text fill="#000000" font-family="sans-serif" font-size="12" lengthAdjust="spacing" textLength="73" x="567.1413" y="27.9102">Administrator</text><line style="stroke:#A80036;stroke-width:1.5;" x1="539.1413" x2="642.1413" y1="39" y2="39"/><!--MD5=[a059576e163b46f56762f12600c49258]
class Nurse--><rect codeLine="7" fill="#FEFECE" filter="url(#fgyt16qctwj79)" height="40" id="Nurse" style="stroke:#A80036;stroke-width:1.5;" width="66" x="1155.6413" y="187"/><ellipse cx="1170.6413" cy="203" fill="#ADD1B2" rx="11" ry="11" style="stroke:#A80036;stroke-width:1.0;"/><path d="M1172.6413,199.5 Q1172.8444,199 1173.0788,198.75 Q1173.3132,198.5 1173.5788,198.5 Q1174.0476,198.5 1174.3444,198.7813 Q1174.6413,199.0625 1174.6413,199.7188 L1174.6413,201.2813 Q1174.6413,201.9375 1174.3601,202.2188 Q1174.0788,202.5 1173.6413,202.5 Q1173.2507,202.5 1173.0007,202.3281 Q1172.7507,202.1563 1172.6413,201.7031 Q1172.5944,201.3906 1172.4226,201.2188 Q1172.1101,200.8906 1171.5476,200.7031 Q1170.9851,200.5 1170.4226,200.5 Q1169.7194,200.5 1169.1257,200.7813 Q1168.5476,201.0625 1168.0944,201.6875 Q1167.6413,202.3125 1167.6413,203.1719 L1167.6413,204.0938 Q1167.6413,205.125 1168.4851,205.8125 Q1169.3288,206.5 1170.8288,206.5 Q1171.7194,206.5 1172.3444,206.2969 Q1172.7038,206.1875 1173.1101,205.8281 Q1173.3757,205.625 1173.5163,205.5625 Q1173.6569,205.5 1173.8288,205.5 Q1174.1569,205.5 1174.3913,205.7656 Q1174.6413,206.0156 1174.6413,206.375 Q1174.6413,206.7188 1174.2976,207.125 Q1173.7976,207.7188 1173.0007,208.0469 Q1171.9538,208.5 1170.6726,208.5 Q1169.1726,208.5 1167.9694,207.9063 Q1167.0007,207.4375 1166.3132,206.4219 Q1165.6413,205.4063 1165.6413,204.2031 L1165.6413,203.1094 Q1165.6413,201.8594 1166.2351,200.7656 Q1166.8444,199.6719 1167.8913,199.0938 Q1168.9538,198.5 1170.1413,198.5 Q1170.8601,198.5 1171.4851,198.75 Q1172.1101,199 1172.6413,199.5 Z " fill="#000000"/><text fill="#000000" font-family="sans-serif" font-size="12" lengthAdjust="spacing" textLength="34" x="1184.6413" y="207.9102">Nurse</text><line style="stroke:#A80036;stroke-width:1.5;" x1="1156.6413" x2="1220.6413" y1="219" y2="219"/><!--MD5=[72be06cc7ae02ccc98efe28a50e62246]
class SNSUser--><rect codeLine="10" fill="#FEFECE" filter="url(#fgyt16qctwj79)" height="40" id="SNSUser" style="stroke:#A80036;stroke-width:1.5;" width="84" x="614.6413" y="1137"/><ellipse cx="629.6413" cy="1153" fill="#ADD1B2" rx="11" ry="11" style="stroke:#A80036;stroke-width:1.0;"/><path d="M631.6413,1149.5 Q631.8444,1149 632.0788,1148.75 Q632.3132,1148.5 632.5788,1148.5 Q633.0476,1148.5 633.3444,1148.7813 Q633.6413,1149.0625 633.6413,1149.7188 L633.6413,1151.2813 Q633.6413,1151.9375 633.3601,1152.2188 Q633.0788,1152.5 632.6413,1152.5 Q632.2507,1152.5 632.0007,1152.3281 Q631.7507,1152.1563 631.6413,1151.7031 Q631.5944,1151.3906 631.4226,1151.2188 Q631.1101,1150.8906 630.5476,1150.7031 Q629.9851,1150.5 629.4226,1150.5 Q628.7194,1150.5 628.1257,1150.7813 Q627.5476,1151.0625 627.0944,1151.6875 Q626.6413,1152.3125 626.6413,1153.1719 L626.6413,1154.0938 Q626.6413,1155.125 627.4851,1155.8125 Q628.3288,1156.5 629.8288,1156.5 Q630.7194,1156.5 631.3444,1156.2969 Q631.7038,1156.1875 632.1101,1155.8281 Q632.3757,1155.625 632.5163,1155.5625 Q632.6569,1155.5 632.8288,1155.5 Q633.1569,1155.5 633.3913,1155.7656 Q633.6413,1156.0156 633.6413,1156.375 Q633.6413,1156.7188 633.2976,1157.125 Q632.7976,1157.7188 632.0007,1158.0469 Q630.9538,1158.5 629.6726,1158.5 Q628.1726,1158.5 626.9694,1157.9063 Q626.0007,1157.4375 625.3132,1156.4219 Q624.6413,1155.4063 624.6413,1154.2031 L624.6413,1153.1094 Q624.6413,1151.8594 625.2351,1150.7656 Q625.8444,1149.6719 626.8913,1149.0938 Q627.9538,1148.5 629.1413,1148.5 Q629.8601,1148.5 630.4851,1148.75 Q631.1101,1149 631.6413,1149.5 Z " fill="#000000"/><text fill="#000000" font-family="sans-serif" font-size="12" lengthAdjust="spacing" textLength="52" x="643.6413" y="1157.9102">SNSUser</text><line style="stroke:#A80036;stroke-width:1.5;" x1="615.6413" x2="697.6413" y1="1169" y2="1169"/><!--MD5=[03960189e81aa2c066c762ffabbee709]
class Receptionist--><rect codeLine="13" fill="#FEFECE" filter="url(#fgyt16qctwj79)" height="40" id="Receptionist" style="stroke:#A80036;stroke-width:1.5;" width="101" x="547.1413" y="187"/><ellipse cx="562.1413" cy="203" fill="#ADD1B2" rx="11" ry="11" style="stroke:#A80036;stroke-width:1.0;"/><path d="M564.1413,199.5 Q564.3444,199 564.5788,198.75 Q564.8132,198.5 565.0788,198.5 Q565.5476,198.5 565.8444,198.7813 Q566.1413,199.0625 566.1413,199.7188 L566.1413,201.2813 Q566.1413,201.9375 565.8601,202.2188 Q565.5788,202.5 565.1413,202.5 Q564.7507,202.5 564.5007,202.3281 Q564.2507,202.1563 564.1413,201.7031 Q564.0944,201.3906 563.9226,201.2188 Q563.6101,200.8906 563.0476,200.7031 Q562.4851,200.5 561.9226,200.5 Q561.2194,200.5 560.6257,200.7813 Q560.0476,201.0625 559.5944,201.6875 Q559.1413,202.3125 559.1413,203.1719 L559.1413,204.0938 Q559.1413,205.125 559.9851,205.8125 Q560.8288,206.5 562.3288,206.5 Q563.2194,206.5 563.8444,206.2969 Q564.2038,206.1875 564.6101,205.8281 Q564.8757,205.625 565.0163,205.5625 Q565.1569,205.5 565.3288,205.5 Q565.6569,205.5 565.8913,205.7656 Q566.1413,206.0156 566.1413,206.375 Q566.1413,206.7188 565.7976,207.125 Q565.2976,207.7188 564.5007,208.0469 Q563.4538,208.5 562.1726,208.5 Q560.6726,208.5 559.4694,207.9063 Q558.5007,207.4375 557.8132,206.4219 Q557.1413,205.4063 557.1413,204.2031 L557.1413,203.1094 Q557.1413,201.8594 557.7351,200.7656 Q558.3444,199.6719 559.3913,199.0938 Q560.4538,198.5 561.6413,198.5 Q562.3601,198.5 562.9851,198.75 Q563.6101,199 564.1413,199.5 Z " fill="#000000"/><text fill="#000000" font-family="sans-serif" font-size="12" lengthAdjust="spacing" textLength="69" x="576.1413" y="207.9102">Receptionist</text><line style="stroke:#A80036;stroke-width:1.5;" x1="548.1413" x2="647.1413" y1="219" y2="219"/><!--MD5=[2d935fd2dd068a13da1ae531f9857c4f]
class CenterCoordinator--><rect codeLine="16" fill="#FEFECE" filter="url(#fgyt16qctwj79)" height="40" id="CenterCoordinator" style="stroke:#A80036;stroke-width:1.5;" width="134" x="227.6413" y="257"/><ellipse cx="242.6413" cy="273" fill="#ADD1B2" rx="11" ry="11" style="stroke:#A80036;stroke-width:1.0;"/><path d="M244.6413,269.5 Q244.8444,269 245.0788,268.75 Q245.3132,268.5 245.5788,268.5 Q246.0476,268.5 246.3444,268.7813 Q246.6413,269.0625 246.6413,269.7188 L246.6413,271.2813 Q246.6413,271.9375 246.3601,272.2188 Q246.0788,272.5 245.6413,272.5 Q245.2507,272.5 245.0007,272.3281 Q244.7507,272.1563 244.6413,271.7031 Q244.5944,271.3906 244.4226,271.2188 Q244.1101,270.8906 243.5476,270.7031 Q242.9851,270.5 242.4226,270.5 Q241.7194,270.5 241.1257,270.7813 Q240.5476,271.0625 240.0944,271.6875 Q239.6413,272.3125 239.6413,273.1719 L239.6413,274.0938 Q239.6413,275.125 240.4851,275.8125 Q241.3288,276.5 242.8288,276.5 Q243.7194,276.5 244.3444,276.2969 Q244.7038,276.1875 245.1101,275.8281 Q245.3757,275.625 245.5163,275.5625 Q245.6569,275.5 245.8288,275.5 Q246.1569,275.5 246.3913,275.7656 Q246.6413,276.0156 246.6413,276.375 Q246.6413,276.7188 246.2976,277.125 Q245.7976,277.7188 245.0007,278.0469 Q243.9538,278.5 242.6726,278.5 Q241.1726,278.5 239.9694,277.9063 Q239.0007,277.4375 238.3132,276.4219 Q237.6413,275.4063 237.6413,274.2031 L237.6413,273.1094 Q237.6413,271.8594 238.2351,270.7656 Q238.8444,269.6719 239.8913,269.0938 Q240.9538,268.5 242.1413,268.5 Q242.8601,268.5 243.4851,268.75 Q244.1101,269 244.6413,269.5 Z " fill="#000000"/><text fill="#000000" font-family="sans-serif" font-size="12" lengthAdjust="spacing" textLength="102" x="256.6413" y="277.9102">CenterCoordinator</text><line style="stroke:#A80036;stroke-width:1.5;" x1="228.6413" x2="360.6413" y1="289" y2="289"/><!--MD5=[1db03e903fe0a044a2ca0dcbef10799a]
class HealthCareCenter--><rect codeLine="19" fill="#FEFECE" filter="url(#fgyt16qctwj79)" height="40" id="HealthCareCenter" style="stroke:#A80036;stroke-width:1.5;" width="132" x="1441.6413" y="963.5"/><ellipse cx="1456.6413" cy="979.5" fill="#ADD1B2" rx="11" ry="11" style="stroke:#A80036;stroke-width:1.0;"/><path d="M1458.6413,976 Q1458.8444,975.5 1459.0788,975.25 Q1459.3132,975 1459.5788,975 Q1460.0476,975 1460.3444,975.2813 Q1460.6413,975.5625 1460.6413,976.2188 L1460.6413,977.7813 Q1460.6413,978.4375 1460.3601,978.7188 Q1460.0788,979 1459.6413,979 Q1459.2507,979 1459.0007,978.8281 Q1458.7507,978.6563 1458.6413,978.2031 Q1458.5944,977.8906 1458.4226,977.7188 Q1458.1101,977.3906 1457.5476,977.2031 Q1456.9851,977 1456.4226,977 Q1455.7194,977 1455.1257,977.2813 Q1454.5476,977.5625 1454.0944,978.1875 Q1453.6413,978.8125 1453.6413,979.6719 L1453.6413,980.5938 Q1453.6413,981.625 1454.4851,982.3125 Q1455.3288,983 1456.8288,983 Q1457.7194,983 1458.3444,982.7969 Q1458.7038,982.6875 1459.1101,982.3281 Q1459.3757,982.125 1459.5163,982.0625 Q1459.6569,982 1459.8288,982 Q1460.1569,982 1460.3913,982.2656 Q1460.6413,982.5156 1460.6413,982.875 Q1460.6413,983.2188 1460.2976,983.625 Q1459.7976,984.2188 1459.0007,984.5469 Q1457.9538,985 1456.6726,985 Q1455.1726,985 1453.9694,984.4063 Q1453.0007,983.9375 1452.3132,982.9219 Q1451.6413,981.9063 1451.6413,980.7031 L1451.6413,979.6094 Q1451.6413,978.3594 1452.2351,977.2656 Q1452.8444,976.1719 1453.8913,975.5938 Q1454.9538,975 1456.1413,975 Q1456.8601,975 1457.4851,975.25 Q1458.1101,975.5 1458.6413,976 Z " fill="#000000"/><text fill="#000000" font-family="sans-serif" font-size="12" lengthAdjust="spacing" textLength="100" x="1470.6413" y="984.4102">HealthCareCenter</text><line style="stroke:#A80036;stroke-width:1.5;" x1="1442.6413" x2="1572.6413" y1="995.5" y2="995.5"/><!--MD5=[02e4b9b7573f1156f41e60aa5b4e25a4]
class Company--><rect codeLine="22" fill="#FEFECE" filter="url(#fgyt16qctwj79)" height="53.8359" id="Company" style="stroke:#A80036;stroke-width:1.5;" width="85" x="379.1413" y="492"/><ellipse cx="394.1413" cy="508" fill="#ADD1B2" rx="11" ry="11" style="stroke:#A80036;stroke-width:1.0;"/><path d="M396.1413,504.5 Q396.3444,504 396.5788,503.75 Q396.8132,503.5 397.0788,503.5 Q397.5476,503.5 397.8444,503.7813 Q398.1413,504.0625 398.1413,504.7188 L398.1413,506.2813 Q398.1413,506.9375 397.8601,507.2188 Q397.5788,507.5 397.1413,507.5 Q396.7507,507.5 396.5007,507.3281 Q396.2507,507.1563 396.1413,506.7031 Q396.0944,506.3906 395.9226,506.2188 Q395.6101,505.8906 395.0476,505.7031 Q394.4851,505.5 393.9226,505.5 Q393.2194,505.5 392.6257,505.7813 Q392.0476,506.0625 391.5944,506.6875 Q391.1413,507.3125 391.1413,508.1719 L391.1413,509.0938 Q391.1413,510.125 391.9851,510.8125 Q392.8288,511.5 394.3288,511.5 Q395.2194,511.5 395.8444,511.2969 Q396.2038,511.1875 396.6101,510.8281 Q396.8757,510.625 397.0163,510.5625 Q397.1569,510.5 397.3288,510.5 Q397.6569,510.5 397.8913,510.7656 Q398.1413,511.0156 398.1413,511.375 Q398.1413,511.7188 397.7976,512.125 Q397.2976,512.7188 396.5007,513.0469 Q395.4538,513.5 394.1726,513.5 Q392.6726,513.5 391.4694,512.9063 Q390.5007,512.4375 389.8132,511.4219 Q389.1413,510.4063 389.1413,509.2031 L389.1413,508.1094 Q389.1413,506.8594 389.7351,505.7656 Q390.3444,504.6719 391.3913,504.0938 Q392.4538,503.5 393.6413,503.5 Q394.3601,503.5 394.9851,503.75 Q395.6101,504 396.1413,504.5 Z " fill="#000000"/><text fill="#000000" font-family="sans-serif" font-size="12" lengthAdjust="spacing" textLength="53" x="408.1413" y="512.9102">Company</text><line style="stroke:#A80036;stroke-width:1.5;" x1="380.1413" x2="463.1413" y1="524" y2="524"/><text fill="#000000" font-family="sans-serif" font-size="11" lengthAdjust="spacing" textLength="59" x="385.1413" y="539.4189">-designation</text><!--MD5=[9ea49a1aeafb47670c552d4be8173f86]
class MassiveVaccinationCenter--><rect codeLine="26" fill="#FEFECE" filter="url(#fgyt16qctwj79)" height="40" id="MassiveVaccinationCenter" style="stroke:#A80036;stroke-width:1.5;" width="177" x="333.1413" y="693"/><ellipse cx="348.1413" cy="709" fill="#ADD1B2" rx="11" ry="11" style="stroke:#A80036;stroke-width:1.0;"/><path d="M350.1413,705.5 Q350.3444,705 350.5788,704.75 Q350.8132,704.5 351.0788,704.5 Q351.5476,704.5 351.8444,704.7813 Q352.1413,705.0625 352.1413,705.7188 L352.1413,707.2813 Q352.1413,707.9375 351.8601,708.2188 Q351.5788,708.5 351.1413,708.5 Q350.7507,708.5 350.5007,708.3281 Q350.2507,708.1563 350.1413,707.7031 Q350.0944,707.3906 349.9226,707.2188 Q349.6101,706.8906 349.0476,706.7031 Q348.4851,706.5 347.9226,706.5 Q347.2194,706.5 346.6257,706.7813 Q346.0476,707.0625 345.5944,707.6875 Q345.1413,708.3125 345.1413,709.1719 L345.1413,710.0938 Q345.1413,711.125 345.9851,711.8125 Q346.8288,712.5 348.3288,712.5 Q349.2194,712.5 349.8444,712.2969 Q350.2038,712.1875 350.6101,711.8281 Q350.8757,711.625 351.0163,711.5625 Q351.1569,711.5 351.3288,711.5 Q351.6569,711.5 351.8913,711.7656 Q352.1413,712.0156 352.1413,712.375 Q352.1413,712.7188 351.7976,713.125 Q351.2976,713.7188 350.5007,714.0469 Q349.4538,714.5 348.1726,714.5 Q346.6726,714.5 345.4694,713.9063 Q344.5007,713.4375 343.8132,712.4219 Q343.1413,711.4063 343.1413,710.2031 L343.1413,709.1094 Q343.1413,707.8594 343.7351,706.7656 Q344.3444,705.6719 345.3913,705.0938 Q346.4538,704.5 347.6413,704.5 Q348.3601,704.5 348.9851,704.75 Q349.6101,705 350.1413,705.5 Z " fill="#000000"/><text fill="#000000" font-family="sans-serif" font-size="12" lengthAdjust="spacing" textLength="145" x="362.1413" y="713.9102">MassiveVaccinationCenter</text><line style="stroke:#A80036;stroke-width:1.5;" x1="334.1413" x2="509.1413" y1="725" y2="725"/><!--MD5=[ae27ab334c9ca5f6a013ce0b55b99b8c]
class CovidDigitalCertificate--><rect codeLine="29" fill="#FEFECE" filter="url(#fgyt16qctwj79)" height="40" id="CovidDigitalCertificate" style="stroke:#A80036;stroke-width:1.5;" width="153" x="578.1413" y="963.5"/><ellipse cx="593.1413" cy="979.5" fill="#ADD1B2" rx="11" ry="11" style="stroke:#A80036;stroke-width:1.0;"/><path d="M595.1413,976 Q595.3444,975.5 595.5788,975.25 Q595.8132,975 596.0788,975 Q596.5476,975 596.8444,975.2813 Q597.1413,975.5625 597.1413,976.2188 L597.1413,977.7813 Q597.1413,978.4375 596.8601,978.7188 Q596.5788,979 596.1413,979 Q595.7507,979 595.5007,978.8281 Q595.2507,978.6563 595.1413,978.2031 Q595.0944,977.8906 594.9226,977.7188 Q594.6101,977.3906 594.0476,977.2031 Q593.4851,977 592.9226,977 Q592.2194,977 591.6257,977.2813 Q591.0476,977.5625 590.5944,978.1875 Q590.1413,978.8125 590.1413,979.6719 L590.1413,980.5938 Q590.1413,981.625 590.9851,982.3125 Q591.8288,983 593.3288,983 Q594.2194,983 594.8444,982.7969 Q595.2038,982.6875 595.6101,982.3281 Q595.8757,982.125 596.0163,982.0625 Q596.1569,982 596.3288,982 Q596.6569,982 596.8913,982.2656 Q597.1413,982.5156 597.1413,982.875 Q597.1413,983.2188 596.7976,983.625 Q596.2976,984.2188 595.5007,984.5469 Q594.4538,985 593.1726,985 Q591.6726,985 590.4694,984.4063 Q589.5007,983.9375 588.8132,982.9219 Q588.1413,981.9063 588.1413,980.7031 L588.1413,979.6094 Q588.1413,978.3594 588.7351,977.2656 Q589.3444,976.1719 590.3913,975.5938 Q591.4538,975 592.6413,975 Q593.3601,975 593.9851,975.25 Q594.6101,975.5 595.1413,976 Z " fill="#000000"/><text fill="#000000" font-family="sans-serif" font-size="12" lengthAdjust="spacing" textLength="121" x="607.1413" y="984.4102">CovidDigitalCertificate</text><line style="stroke:#A80036;stroke-width:1.5;" x1="579.1413" x2="730.1413" y1="995.5" y2="995.5"/><!--MD5=[335f4d9be48430461c68bf6d6fdba145]
class App--><rect codeLine="32" fill="#FEFECE" filter="url(#fgyt16qctwj79)" height="40" id="App" style="stroke:#A80036;stroke-width:1.5;" width="53" x="968.1413" y="811"/><ellipse cx="983.1413" cy="827" fill="#ADD1B2" rx="11" ry="11" style="stroke:#A80036;stroke-width:1.0;"/><path d="M985.1413,823.5 Q985.3444,823 985.5788,822.75 Q985.8132,822.5 986.0788,822.5 Q986.5476,822.5 986.8444,822.7813 Q987.1413,823.0625 987.1413,823.7188 L987.1413,825.2813 Q987.1413,825.9375 986.8601,826.2188 Q986.5788,826.5 986.1413,826.5 Q985.7507,826.5 985.5007,826.3281 Q985.2507,826.1563 985.1413,825.7031 Q985.0944,825.3906 984.9226,825.2188 Q984.6101,824.8906 984.0476,824.7031 Q983.4851,824.5 982.9226,824.5 Q982.2194,824.5 981.6257,824.7813 Q981.0476,825.0625 980.5944,825.6875 Q980.1413,826.3125 980.1413,827.1719 L980.1413,828.0938 Q980.1413,829.125 980.9851,829.8125 Q981.8288,830.5 983.3288,830.5 Q984.2194,830.5 984.8444,830.2969 Q985.2038,830.1875 985.6101,829.8281 Q985.8757,829.625 986.0163,829.5625 Q986.1569,829.5 986.3288,829.5 Q986.6569,829.5 986.8913,829.7656 Q987.1413,830.0156 987.1413,830.375 Q987.1413,830.7188 986.7976,831.125 Q986.2976,831.7188 985.5007,832.0469 Q984.4538,832.5 983.1726,832.5 Q981.6726,832.5 980.4694,831.9063 Q979.5007,831.4375 978.8132,830.4219 Q978.1413,829.4063 978.1413,828.2031 L978.1413,827.1094 Q978.1413,825.8594 978.7351,824.7656 Q979.3444,823.6719 980.3913,823.0938 Q981.4538,822.5 982.6413,822.5 Q983.3601,822.5 983.9851,822.75 Q984.6101,823 985.1413,823.5 Z " fill="#000000"/><text fill="#000000" font-family="sans-serif" font-size="12" lengthAdjust="spacing" textLength="21" x="997.1413" y="831.9102">App</text><line style="stroke:#A80036;stroke-width:1.5;" x1="969.1413" x2="1020.1413" y1="843" y2="843"/><!--MD5=[35b584b1cc5a5643474015f373c930e7]
class SMSMessage--><rect codeLine="35" fill="#FEFECE" filter="url(#fgyt16qctwj79)" height="67.6719" id="SMSMessage" style="stroke:#A80036;stroke-width:1.5;" width="129" x="930.1413" y="949.5"/><ellipse cx="954.5913" cy="965.5" fill="#ADD1B2" rx="11" ry="11" style="stroke:#A80036;stroke-width:1.0;"/><path d="M956.5913,962 Q956.7944,961.5 957.0288,961.25 Q957.2632,961 957.5288,961 Q957.9976,961 958.2944,961.2813 Q958.5913,961.5625 958.5913,962.2188 L958.5913,963.7813 Q958.5913,964.4375 958.3101,964.7188 Q958.0288,965 957.5913,965 Q957.2007,965 956.9507,964.8281 Q956.7007,964.6563 956.5913,964.2031 Q956.5444,963.8906 956.3726,963.7188 Q956.0601,963.3906 955.4976,963.2031 Q954.9351,963 954.3726,963 Q953.6694,963 953.0757,963.2813 Q952.4976,963.5625 952.0444,964.1875 Q951.5913,964.8125 951.5913,965.6719 L951.5913,966.5938 Q951.5913,967.625 952.4351,968.3125 Q953.2788,969 954.7788,969 Q955.6694,969 956.2944,968.7969 Q956.6538,968.6875 957.0601,968.3281 Q957.3257,968.125 957.4663,968.0625 Q957.6069,968 957.7788,968 Q958.1069,968 958.3413,968.2656 Q958.5913,968.5156 958.5913,968.875 Q958.5913,969.2188 958.2476,969.625 Q957.7476,970.2188 956.9507,970.5469 Q955.9038,971 954.6226,971 Q953.1226,971 951.9194,970.4063 Q950.9507,969.9375 950.2632,968.9219 Q949.5913,967.9063 949.5913,966.7031 L949.5913,965.6094 Q949.5913,964.3594 950.1851,963.2656 Q950.7944,962.1719 951.8413,961.5938 Q952.9038,961 954.0913,961 Q954.8101,961 955.4351,961.25 Q956.0601,961.5 956.5913,962 Z " fill="#000000"/><text fill="#000000" font-family="sans-serif" font-size="12" lengthAdjust="spacing" textLength="76" x="970.6913" y="970.4102">SMSMessage</text><line style="stroke:#A80036;stroke-width:1.5;" x1="931.1413" x2="1058.1413" y1="981.5" y2="981.5"/><text fill="#000000" font-family="sans-serif" font-size="11" lengthAdjust="spacing" textLength="117" x="936.1413" y="996.9189">-informationAppointment</text><text fill="#000000" font-family="sans-serif" font-size="11" lengthAdjust="spacing" textLength="70" x="936.1413" y="1010.7549">-timeRecovery</text><!--MD5=[ff8178074f81ca799b3d9493f422ea40]
class EmailMessage--><rect codeLine="40" fill="#FEFECE" filter="url(#fgyt16qctwj79)" height="67.6719" id="EmailMessage" style="stroke:#A80036;stroke-width:1.5;" width="129" x="766.1413" y="949.5"/><ellipse cx="787.4413" cy="965.5" fill="#ADD1B2" rx="11" ry="11" style="stroke:#A80036;stroke-width:1.0;"/><path d="M789.4413,962 Q789.6444,961.5 789.8788,961.25 Q790.1132,961 790.3788,961 Q790.8476,961 791.1444,961.2813 Q791.4413,961.5625 791.4413,962.2188 L791.4413,963.7813 Q791.4413,964.4375 791.1601,964.7188 Q790.8788,965 790.4413,965 Q790.0507,965 789.8007,964.8281 Q789.5507,964.6563 789.4413,964.2031 Q789.3944,963.8906 789.2226,963.7188 Q788.9101,963.3906 788.3476,963.2031 Q787.7851,963 787.2226,963 Q786.5194,963 785.9257,963.2813 Q785.3476,963.5625 784.8944,964.1875 Q784.4413,964.8125 784.4413,965.6719 L784.4413,966.5938 Q784.4413,967.625 785.2851,968.3125 Q786.1288,969 787.6288,969 Q788.5194,969 789.1444,968.7969 Q789.5038,968.6875 789.9101,968.3281 Q790.1757,968.125 790.3163,968.0625 Q790.4569,968 790.6288,968 Q790.9569,968 791.1913,968.2656 Q791.4413,968.5156 791.4413,968.875 Q791.4413,969.2188 791.0976,969.625 Q790.5976,970.2188 789.8007,970.5469 Q788.7538,971 787.4726,971 Q785.9726,971 784.7694,970.4063 Q783.8007,969.9375 783.1132,968.9219 Q782.4413,967.9063 782.4413,966.7031 L782.4413,965.6094 Q782.4413,964.3594 783.0351,963.2656 Q783.6444,962.1719 784.6913,961.5938 Q785.7538,961 786.9413,961 Q787.6601,961 788.2851,961.25 Q788.9101,961.5 789.4413,962 Z " fill="#000000"/><text fill="#000000" font-family="sans-serif" font-size="12" lengthAdjust="spacing" textLength="83" x="802.8413" y="970.4102">EmailMessage</text><line style="stroke:#A80036;stroke-width:1.5;" x1="767.1413" x2="894.1413" y1="981.5" y2="981.5"/><text fill="#000000" font-family="sans-serif" font-size="11" lengthAdjust="spacing" textLength="117" x="772.1413" y="996.9189">-informationAppointment</text><text fill="#000000" font-family="sans-serif" font-size="11" lengthAdjust="spacing" textLength="70" x="772.1413" y="1010.7549">-timeRecovery</text><!--MD5=[19e445fc4d3b48519cbe33da05496394]
class Vaccine--><rect codeLine="45" fill="#FEFECE" filter="url(#fgyt16qctwj79)" height="67.6719" id="Vaccine" style="stroke:#A80036;stroke-width:1.5;" width="81" x="1348.1413" y="1259"/><ellipse cx="1365.8413" cy="1275" fill="#ADD1B2" rx="11" ry="11" style="stroke:#A80036;stroke-width:1.0;"/><path d="M1367.8413,1271.5 Q1368.0444,1271 1368.2788,1270.75 Q1368.5132,1270.5 1368.7788,1270.5 Q1369.2476,1270.5 1369.5444,1270.7813 Q1369.8413,1271.0625 1369.8413,1271.7188 L1369.8413,1273.2813 Q1369.8413,1273.9375 1369.5601,1274.2188 Q1369.2788,1274.5 1368.8413,1274.5 Q1368.4507,1274.5 1368.2007,1274.3281 Q1367.9507,1274.1563 1367.8413,1273.7031 Q1367.7944,1273.3906 1367.6226,1273.2188 Q1367.3101,1272.8906 1366.7476,1272.7031 Q1366.1851,1272.5 1365.6226,1272.5 Q1364.9194,1272.5 1364.3257,1272.7813 Q1363.7476,1273.0625 1363.2944,1273.6875 Q1362.8413,1274.3125 1362.8413,1275.1719 L1362.8413,1276.0938 Q1362.8413,1277.125 1363.6851,1277.8125 Q1364.5288,1278.5 1366.0288,1278.5 Q1366.9194,1278.5 1367.5444,1278.2969 Q1367.9038,1278.1875 1368.3101,1277.8281 Q1368.5757,1277.625 1368.7163,1277.5625 Q1368.8569,1277.5 1369.0288,1277.5 Q1369.3569,1277.5 1369.5913,1277.7656 Q1369.8413,1278.0156 1369.8413,1278.375 Q1369.8413,1278.7188 1369.4976,1279.125 Q1368.9976,1279.7188 1368.2007,1280.0469 Q1367.1538,1280.5 1365.8726,1280.5 Q1364.3726,1280.5 1363.1694,1279.9063 Q1362.2007,1279.4375 1361.5132,1278.4219 Q1360.8413,1277.4063 1360.8413,1276.2031 L1360.8413,1275.1094 Q1360.8413,1273.8594 1361.4351,1272.7656 Q1362.0444,1271.6719 1363.0913,1271.0938 Q1364.1538,1270.5 1365.3413,1270.5 Q1366.0601,1270.5 1366.6851,1270.75 Q1367.3101,1271 1367.8413,1271.5 Z " fill="#000000"/><text fill="#000000" font-family="sans-serif" font-size="12" lengthAdjust="spacing" textLength="43" x="1380.4413" y="1279.9102">Vaccine</text><line style="stroke:#A80036;stroke-width:1.5;" x1="1349.1413" x2="1428.1413" y1="1291" y2="1291"/><text fill="#000000" font-family="sans-serif" font-size="11" lengthAdjust="spacing" textLength="69" x="1354.1413" y="1306.4189">-vaccineName</text><text fill="#000000" font-family="sans-serif" font-size="11" lengthAdjust="spacing" textLength="15" x="1354.1413" y="1320.2549">-lot</text><!--MD5=[0e501da62322464167c8ec4d233a6b7e]
class VaccineType--><rect codeLine="50" fill="#FEFECE" filter="url(#fgyt16qctwj79)" height="81.5078" id="VaccineType" style="stroke:#A80036;stroke-width:1.5;" width="101" x="1407.1413" y="1405"/><ellipse cx="1422.1413" cy="1421" fill="#ADD1B2" rx="11" ry="11" style="stroke:#A80036;stroke-width:1.0;"/><path d="M1424.1413,1417.5 Q1424.3444,1417 1424.5788,1416.75 Q1424.8132,1416.5 1425.0788,1416.5 Q1425.5476,1416.5 1425.8444,1416.7813 Q1426.1413,1417.0625 1426.1413,1417.7188 L1426.1413,1419.2813 Q1426.1413,1419.9375 1425.8601,1420.2188 Q1425.5788,1420.5 1425.1413,1420.5 Q1424.7507,1420.5 1424.5007,1420.3281 Q1424.2507,1420.1563 1424.1413,1419.7031 Q1424.0944,1419.3906 1423.9226,1419.2188 Q1423.6101,1418.8906 1423.0476,1418.7031 Q1422.4851,1418.5 1421.9226,1418.5 Q1421.2194,1418.5 1420.6257,1418.7813 Q1420.0476,1419.0625 1419.5944,1419.6875 Q1419.1413,1420.3125 1419.1413,1421.1719 L1419.1413,1422.0938 Q1419.1413,1423.125 1419.9851,1423.8125 Q1420.8288,1424.5 1422.3288,1424.5 Q1423.2194,1424.5 1423.8444,1424.2969 Q1424.2038,1424.1875 1424.6101,1423.8281 Q1424.8757,1423.625 1425.0163,1423.5625 Q1425.1569,1423.5 1425.3288,1423.5 Q1425.6569,1423.5 1425.8913,1423.7656 Q1426.1413,1424.0156 1426.1413,1424.375 Q1426.1413,1424.7188 1425.7976,1425.125 Q1425.2976,1425.7188 1424.5007,1426.0469 Q1423.4538,1426.5 1422.1726,1426.5 Q1420.6726,1426.5 1419.4694,1425.9063 Q1418.5007,1425.4375 1417.8132,1424.4219 Q1417.1413,1423.4063 1417.1413,1422.2031 L1417.1413,1421.1094 Q1417.1413,1419.8594 1417.7351,1418.7656 Q1418.3444,1417.6719 1419.3913,1417.0938 Q1420.4538,1416.5 1421.6413,1416.5 Q1422.3601,1416.5 1422.9851,1416.75 Q1423.6101,1417 1424.1413,1417.5 Z " fill="#000000"/><text fill="#000000" font-family="sans-serif" font-size="12" lengthAdjust="spacing" textLength="69" x="1436.1413" y="1425.9102">VaccineType</text><line style="stroke:#A80036;stroke-width:1.5;" x1="1408.1413" x2="1507.1413" y1="1437" y2="1437"/><text fill="#000000" font-family="sans-serif" font-size="11" lengthAdjust="spacing" textLength="52" x="1413.1413" y="1452.4189">-ageGroup</text><text fill="#000000" font-family="sans-serif" font-size="11" lengthAdjust="spacing" textLength="28" x="1413.1413" y="1466.2549">-dose</text><text fill="#000000" font-family="sans-serif" font-size="11" lengthAdjust="spacing" textLength="79" x="1413.1413" y="1480.0908">-vaccineDosage</text><!--MD5=[8fdfefe237645151c947b814b3595f6b]
class VaccineTime--><rect codeLine="56" fill="#FEFECE" filter="url(#fgyt16qctwj79)" height="53.8359" id="VaccineTime" style="stroke:#A80036;stroke-width:1.5;" width="104" x="1267.6413" y="1419"/><ellipse cx="1283.0913" cy="1435" fill="#ADD1B2" rx="11" ry="11" style="stroke:#A80036;stroke-width:1.0;"/><path d="M1285.0913,1431.5 Q1285.2944,1431 1285.5288,1430.75 Q1285.7632,1430.5 1286.0288,1430.5 Q1286.4976,1430.5 1286.7944,1430.7813 Q1287.0913,1431.0625 1287.0913,1431.7188 L1287.0913,1433.2813 Q1287.0913,1433.9375 1286.8101,1434.2188 Q1286.5288,1434.5 1286.0913,1434.5 Q1285.7007,1434.5 1285.4507,1434.3281 Q1285.2007,1434.1563 1285.0913,1433.7031 Q1285.0444,1433.3906 1284.8726,1433.2188 Q1284.5601,1432.8906 1283.9976,1432.7031 Q1283.4351,1432.5 1282.8726,1432.5 Q1282.1694,1432.5 1281.5757,1432.7813 Q1280.9976,1433.0625 1280.5444,1433.6875 Q1280.0913,1434.3125 1280.0913,1435.1719 L1280.0913,1436.0938 Q1280.0913,1437.125 1280.9351,1437.8125 Q1281.7788,1438.5 1283.2788,1438.5 Q1284.1694,1438.5 1284.7944,1438.2969 Q1285.1538,1438.1875 1285.5601,1437.8281 Q1285.8257,1437.625 1285.9663,1437.5625 Q1286.1069,1437.5 1286.2788,1437.5 Q1286.6069,1437.5 1286.8413,1437.7656 Q1287.0913,1438.0156 1287.0913,1438.375 Q1287.0913,1438.7188 1286.7476,1439.125 Q1286.2476,1439.7188 1285.4507,1440.0469 Q1284.4038,1440.5 1283.1226,1440.5 Q1281.6226,1440.5 1280.4194,1439.9063 Q1279.4507,1439.4375 1278.7632,1438.4219 Q1278.0913,1437.4063 1278.0913,1436.2031 L1278.0913,1435.1094 Q1278.0913,1433.8594 1278.6851,1432.7656 Q1279.2944,1431.6719 1280.3413,1431.0938 Q1281.4038,1430.5 1282.5913,1430.5 Q1283.3101,1430.5 1283.9351,1430.75 Q1284.5601,1431 1285.0913,1431.5 Z " fill="#000000"/><text fill="#000000" font-family="sans-serif" font-size="12" lengthAdjust="spacing" textLength="71" x="1297.1913" y="1439.9102">VaccineTime</text><line style="stroke:#A80036;stroke-width:1.5;" x1="1268.6413" x2="1370.6413" y1="1451" y2="1451"/><text fill="#000000" font-family="sans-serif" font-size="11" lengthAdjust="spacing" textLength="92" x="1273.6413" y="1466.4189">-timeBetweenDose</text><!--MD5=[d7022902071f40c2412e2b7c9d78fdd8]
class CheckCenterCapacity--><rect codeLine="60" fill="#FEFECE" filter="url(#fgyt16qctwj79)" height="81.5078" id="CheckCenterCapacity" style="stroke:#A80036;stroke-width:1.5;" width="151" x="1184.1413" y="1116"/><ellipse cx="1199.1413" cy="1132" fill="#ADD1B2" rx="11" ry="11" style="stroke:#A80036;stroke-width:1.0;"/><path d="M1201.1413,1128.5 Q1201.3444,1128 1201.5788,1127.75 Q1201.8132,1127.5 1202.0788,1127.5 Q1202.5476,1127.5 1202.8444,1127.7813 Q1203.1413,1128.0625 1203.1413,1128.7188 L1203.1413,1130.2813 Q1203.1413,1130.9375 1202.8601,1131.2188 Q1202.5788,1131.5 1202.1413,1131.5 Q1201.7507,1131.5 1201.5007,1131.3281 Q1201.2507,1131.1563 1201.1413,1130.7031 Q1201.0944,1130.3906 1200.9226,1130.2188 Q1200.6101,1129.8906 1200.0476,1129.7031 Q1199.4851,1129.5 1198.9226,1129.5 Q1198.2194,1129.5 1197.6257,1129.7813 Q1197.0476,1130.0625 1196.5944,1130.6875 Q1196.1413,1131.3125 1196.1413,1132.1719 L1196.1413,1133.0938 Q1196.1413,1134.125 1196.9851,1134.8125 Q1197.8288,1135.5 1199.3288,1135.5 Q1200.2194,1135.5 1200.8444,1135.2969 Q1201.2038,1135.1875 1201.6101,1134.8281 Q1201.8757,1134.625 1202.0163,1134.5625 Q1202.1569,1134.5 1202.3288,1134.5 Q1202.6569,1134.5 1202.8913,1134.7656 Q1203.1413,1135.0156 1203.1413,1135.375 Q1203.1413,1135.7188 1202.7976,1136.125 Q1202.2976,1136.7188 1201.5007,1137.0469 Q1200.4538,1137.5 1199.1726,1137.5 Q1197.6726,1137.5 1196.4694,1136.9063 Q1195.5007,1136.4375 1194.8132,1135.4219 Q1194.1413,1134.4063 1194.1413,1133.2031 L1194.1413,1132.1094 Q1194.1413,1130.8594 1194.7351,1129.7656 Q1195.3444,1128.6719 1196.3913,1128.0938 Q1197.4538,1127.5 1198.6413,1127.5 Q1199.3601,1127.5 1199.9851,1127.75 Q1200.6101,1128 1201.1413,1128.5 Z " fill="#000000"/><text fill="#000000" font-family="sans-serif" font-size="12" lengthAdjust="spacing" textLength="119" x="1213.1413" y="1136.9102">CheckCenterCapacity</text><line style="stroke:#A80036;stroke-width:1.5;" x1="1185.1413" x2="1334.1413" y1="1148" y2="1148"/><text fill="#000000" font-family="sans-serif" font-size="11" lengthAdjust="spacing" textLength="77" x="1190.1413" y="1163.4189">-centerCapacity</text><text fill="#000000" font-family="sans-serif" font-size="11" lengthAdjust="spacing" textLength="25" x="1190.1413" y="1177.2549">-date</text><text fill="#000000" font-family="sans-serif" font-size="11" lengthAdjust="spacing" textLength="23" x="1190.1413" y="1191.0908">-time</text><!--MD5=[8d21a970f1bd1e0e0584d0ecf91221be]
class ScheduleVaccine--><rect codeLine="66" fill="#FEFECE" filter="url(#fgyt16qctwj79)" height="109.1797" id="ScheduleVaccine" style="stroke:#A80036;stroke-width:1.5;" width="127" x="1208.1413" y="929"/><ellipse cx="1223.1413" cy="945" fill="#ADD1B2" rx="11" ry="11" style="stroke:#A80036;stroke-width:1.0;"/><path d="M1225.1413,941.5 Q1225.3444,941 1225.5788,940.75 Q1225.8132,940.5 1226.0788,940.5 Q1226.5476,940.5 1226.8444,940.7813 Q1227.1413,941.0625 1227.1413,941.7188 L1227.1413,943.2813 Q1227.1413,943.9375 1226.8601,944.2188 Q1226.5788,944.5 1226.1413,944.5 Q1225.7507,944.5 1225.5007,944.3281 Q1225.2507,944.1563 1225.1413,943.7031 Q1225.0944,943.3906 1224.9226,943.2188 Q1224.6101,942.8906 1224.0476,942.7031 Q1223.4851,942.5 1222.9226,942.5 Q1222.2194,942.5 1221.6257,942.7813 Q1221.0476,943.0625 1220.5944,943.6875 Q1220.1413,944.3125 1220.1413,945.1719 L1220.1413,946.0938 Q1220.1413,947.125 1220.9851,947.8125 Q1221.8288,948.5 1223.3288,948.5 Q1224.2194,948.5 1224.8444,948.2969 Q1225.2038,948.1875 1225.6101,947.8281 Q1225.8757,947.625 1226.0163,947.5625 Q1226.1569,947.5 1226.3288,947.5 Q1226.6569,947.5 1226.8913,947.7656 Q1227.1413,948.0156 1227.1413,948.375 Q1227.1413,948.7188 1226.7976,949.125 Q1226.2976,949.7188 1225.5007,950.0469 Q1224.4538,950.5 1223.1726,950.5 Q1221.6726,950.5 1220.4694,949.9063 Q1219.5007,949.4375 1218.8132,948.4219 Q1218.1413,947.4063 1218.1413,946.2031 L1218.1413,945.1094 Q1218.1413,943.8594 1218.7351,942.7656 Q1219.3444,941.6719 1220.3913,941.0938 Q1221.4538,940.5 1222.6413,940.5 Q1223.3601,940.5 1223.9851,940.75 Q1224.6101,941 1225.1413,941.5 Z " fill="#000000"/><text fill="#000000" font-family="sans-serif" font-size="12" lengthAdjust="spacing" textLength="95" x="1237.1413" y="949.9102">ScheduleVaccine</text><line style="stroke:#A80036;stroke-width:1.5;" x1="1209.1413" x2="1334.1413" y1="961" y2="961"/><text fill="#000000" font-family="sans-serif" font-size="11" lengthAdjust="spacing" textLength="84" x="1214.1413" y="976.4189">-userNumberSNS</text><text fill="#000000" font-family="sans-serif" font-size="11" lengthAdjust="spacing" textLength="91" x="1214.1413" y="990.2549">-vaccinationCenter</text><text fill="#000000" font-family="sans-serif" font-size="11" lengthAdjust="spacing" textLength="25" x="1214.1413" y="1004.0908">-date</text><text fill="#000000" font-family="sans-serif" font-size="11" lengthAdjust="spacing" textLength="23" x="1214.1413" y="1017.9268">-time</text><text fill="#000000" font-family="sans-serif" font-size="11" lengthAdjust="spacing" textLength="77" x="1214.1413" y="1031.7627">-typeOfVaccine</text><!--MD5=[de60e6d4f424ae4d0522096f76a59010]
class VaccinationCenter--><rect codeLine="74" fill="#FEFECE" filter="url(#fgyt16qctwj79)" height="192.1953" id="VaccinationCenter" style="stroke:#A80036;stroke-width:1.5;" width="132" x="906.6413" y="423"/><ellipse cx="921.6413" cy="439" fill="#ADD1B2" rx="11" ry="11" style="stroke:#A80036;stroke-width:1.0;"/><path d="M923.6413,435.5 Q923.8444,435 924.0788,434.75 Q924.3132,434.5 924.5788,434.5 Q925.0476,434.5 925.3444,434.7813 Q925.6413,435.0625 925.6413,435.7188 L925.6413,437.2813 Q925.6413,437.9375 925.3601,438.2188 Q925.0788,438.5 924.6413,438.5 Q924.2507,438.5 924.0007,438.3281 Q923.7507,438.1563 923.6413,437.7031 Q923.5944,437.3906 923.4226,437.2188 Q923.1101,436.8906 922.5476,436.7031 Q921.9851,436.5 921.4226,436.5 Q920.7194,436.5 920.1257,436.7813 Q919.5476,437.0625 919.0944,437.6875 Q918.6413,438.3125 918.6413,439.1719 L918.6413,440.0938 Q918.6413,441.125 919.4851,441.8125 Q920.3288,442.5 921.8288,442.5 Q922.7194,442.5 923.3444,442.2969 Q923.7038,442.1875 924.1101,441.8281 Q924.3757,441.625 924.5163,441.5625 Q924.6569,441.5 924.8288,441.5 Q925.1569,441.5 925.3913,441.7656 Q925.6413,442.0156 925.6413,442.375 Q925.6413,442.7188 925.2976,443.125 Q924.7976,443.7188 924.0007,444.0469 Q922.9538,444.5 921.6726,444.5 Q920.1726,444.5 918.9694,443.9063 Q918.0007,443.4375 917.3132,442.4219 Q916.6413,441.4063 916.6413,440.2031 L916.6413,439.1094 Q916.6413,437.8594 917.2351,436.7656 Q917.8444,435.6719 918.8913,435.0938 Q919.9538,434.5 921.1413,434.5 Q921.8601,434.5 922.4851,434.75 Q923.1101,435 923.6413,435.5 Z " fill="#000000"/><text fill="#000000" font-family="sans-serif" font-size="12" lengthAdjust="spacing" textLength="100" x="935.6413" y="443.9102">VaccinationCenter</text><line style="stroke:#A80036;stroke-width:1.5;" x1="907.6413" x2="1037.6413" y1="455" y2="455"/><text fill="#000000" font-family="sans-serif" font-size="11" lengthAdjust="spacing" textLength="30" x="912.6413" y="470.4189">-name</text><text fill="#000000" font-family="sans-serif" font-size="11" lengthAdjust="spacing" textLength="44" x="912.6413" y="484.2549">-address</text><text fill="#000000" font-family="sans-serif" font-size="11" lengthAdjust="spacing" textLength="70" x="912.6413" y="498.0908">-emailAddress</text><text fill="#000000" font-family="sans-serif" font-size="11" lengthAdjust="spacing" textLength="71" x="912.6413" y="511.9268">-phoneNumber</text><text fill="#000000" font-family="sans-serif" font-size="11" lengthAdjust="spacing" textLength="57" x="912.6413" y="525.7627">-faxNumber</text><text fill="#000000" font-family="sans-serif" font-size="11" lengthAdjust="spacing" textLength="85" x="912.6413" y="539.5986">-websiteAddress</text><text fill="#000000" font-family="sans-serif" font-size="11" lengthAdjust="spacing" textLength="71" x="912.6413" y="553.4346">-openingHours</text><text fill="#000000" font-family="sans-serif" font-size="11" lengthAdjust="spacing" textLength="67" x="912.6413" y="567.2705">-closingHours</text><text fill="#000000" font-family="sans-serif" font-size="11" lengthAdjust="spacing" textLength="61" x="912.6413" y="581.1064">-slotDuration</text><text fill="#000000" font-family="sans-serif" font-size="11" lengthAdjust="spacing" textLength="70" x="912.6413" y="594.9424">-maxVaccines</text><text fill="#000000" font-family="sans-serif" font-size="11" lengthAdjust="spacing" textLength="59" x="912.6413" y="608.7783">-coordinator</text><!--MD5=[e2ddcc32583ff1a2f6fdd8d9fe473f71]
link Administrator to Nurse--><path codeLine="88" d="M643.3913,27.04 C721.4513,27.25 871.2513,33.96 989.6413,77 C1060.4513,102.74 1131.7113,157.6 1166.6013,186.79 " fill="none" id="Administrator-Nurse" style="stroke:#A80036;stroke-width:1.0;"/><polygon fill="#000000" points="1091.4234,118.6359,1083.6308,113.1837,1081.9143,118.8054,1091.4234,118.6359" style="stroke:#000000;stroke-width:1.0;"/><text fill="#000000" font-family="sans-serif" font-size="13" lengthAdjust="spacing" textLength="50" x="1095.6413" y="122.4951">registers</text><text fill="#000000" font-family="sans-serif" font-size="13" lengthAdjust="spacing" textLength="7" x="651.3015" y="23.4405">1</text><text fill="#000000" font-family="sans-serif" font-size="13" lengthAdjust="spacing" textLength="5" x="1154.3927" y="176.0501">*</text><!--MD5=[e7c2f1214fae8a9df196b8270f12b77f]
link Administrator to CenterCoordinator--><path codeLine="89" d="M537.8813,36.14 C467.1913,48.24 347.5913,73.33 321.6413,108 C288.0913,152.82 289.4213,223.34 292.3713,256.95 " fill="none" id="Administrator-CenterCoordinator" style="stroke:#A80036;stroke-width:1.0;"/><polygon fill="#000000" points="322.9237,120.5194,331.6142,116.6559,327.6836,112.2856,322.9237,120.5194" style="stroke:#000000;stroke-width:1.0;"/><text fill="#000000" font-family="sans-serif" font-size="13" lengthAdjust="spacing" textLength="50" x="335.6413" y="122.4951">registers</text><text fill="#000000" font-family="sans-serif" font-size="13" lengthAdjust="spacing" textLength="7" x="522.9698" y="52.0701">1</text><text fill="#000000" font-family="sans-serif" font-size="13" lengthAdjust="spacing" textLength="5" x="285.9701" y="246.2571">*</text><!--MD5=[64c52275ea9d22bde431e3436d41be0c]
link Administrator to Receptionist--><path codeLine="90" d="M591.3913,47.05 C592.7313,81.22 595.5413,152.55 596.8913,186.82 " fill="none" id="Administrator-Receptionist" style="stroke:#A80036;stroke-width:1.0;"/><polygon fill="#000000" points="598.8379,122.1719,601.4189,113.0183,595.5456,113.2494,598.8379,122.1719" style="stroke:#000000;stroke-width:1.0;"/><text fill="#000000" font-family="sans-serif" font-size="13" lengthAdjust="spacing" textLength="50" x="607.6413" y="122.4951">registers</text><text fill="#000000" font-family="sans-serif" font-size="13" lengthAdjust="spacing" textLength="7" x="583.6179" y="68.4836">1</text><text fill="#000000" font-family="sans-serif" font-size="13" lengthAdjust="spacing" textLength="5" x="590.9366" y="176.0889">*</text><!--MD5=[2b5fc2dce8eec1aafb1a3721aa50d3a4]
link Administrator to SNSUser--><path codeLine="91" d="M537.7813,29.11 C432.0613,32.76 204.6413,48.47 204.6413,116 C204.6413,116 204.6413,116 204.6413,278 C204.6413,471.29 232.6413,518.71 232.6413,712 C232.6413,712 232.6413,712 232.6413,984.5 C232.6413,1066.29 507.1913,1127.5 614.4413,1148.29 " fill="none" id="Administrator-SNSUser" style="stroke:#A80036;stroke-width:1.0;"/><polygon fill="#000000" points="235.983,524.1641,238.2969,514.9393,232.4328,515.341,235.983,524.1641" style="stroke:#000000;stroke-width:1.0;"/><text fill="#000000" font-family="sans-serif" font-size="13" lengthAdjust="spacing" textLength="50" x="244.6413" y="524.4951">registers</text><text fill="#000000" font-family="sans-serif" font-size="13" lengthAdjust="spacing" textLength="7" x="523.2079" y="25.8373">1</text><text fill="#000000" font-family="sans-serif" font-size="13" lengthAdjust="spacing" textLength="5" x="601.7585" y="1142.9433">*</text><!--MD5=[d497e8607f1e7b3d570c70d67196006d]
link Administrator to VaccinationCenter--><path codeLine="92" d="M643.2913,29.52 C746.1113,33.94 963.6413,50.96 963.6413,116 C963.6413,116 963.6413,116 963.6413,337 C963.6413,364.84 964.7213,395.07 966.1213,422.7 " fill="none" id="Administrator-VaccinationCenter" style="stroke:#A80036;stroke-width:1.0;"/><polygon fill="#000000" points="971.8142,211.0401,968.3458,202.1845,963.803,205.9145,971.8142,211.0401" style="stroke:#000000;stroke-width:1.0;"/><text fill="#000000" font-family="sans-serif" font-size="13" lengthAdjust="spacing" textLength="50" x="977.6413" y="212.4951">registers</text><text fill="#000000" font-family="sans-serif" font-size="13" lengthAdjust="spacing" textLength="7" x="651.3435" y="25.3907">1</text><text fill="#000000" font-family="sans-serif" font-size="13" lengthAdjust="spacing" textLength="5" x="960.4307" y="412.2156">*</text><!--MD5=[9ea8b573625e56d0f43533b021429bfd]
link Administrator to HealthCareCenter--><path codeLine="93" d="M643.1813,27.5 C837.8213,26.32 1506.6413,28.63 1506.6413,116 C1506.6413,116 1506.6413,116 1506.6413,832 C1506.6413,879.29 1507.1413,934.95 1507.4313,963.49 " fill="none" id="Administrator-HealthCareCenter" style="stroke:#A80036;stroke-width:1.0;"/><polygon fill="#000000" points="1515.0333,387.8493,1511.0564,379.2101,1506.7379,383.1976,1515.0333,387.8493" style="stroke:#000000;stroke-width:1.0;"/><text fill="#000000" font-family="sans-serif" font-size="13" lengthAdjust="spacing" textLength="50" x="1520.6413" y="389.4951">registers</text><text fill="#000000" font-family="sans-serif" font-size="13" lengthAdjust="spacing" textLength="7" x="651.0619" y="42.2151">1</text><text fill="#000000" font-family="sans-serif" font-size="13" lengthAdjust="spacing" textLength="5" x="1501.6353" y="952.8088">*</text><!--MD5=[d0b477519989ed3601cd00d052224350]
link Administrator to VaccineType--><path codeLine="94" d="M538.0913,30.56 C396.1413,38.15 15.6413,63.42 15.6413,116 C15.6413,116 15.6413,116 15.6413,1294 C15.6413,1447.16 1243.6013,1358.84 1389.6413,1405 C1395.3913,1406.82 1401.1713,1409.19 1406.8013,1411.88 " fill="none" id="Administrator-VaccineType" style="stroke:#A80036;stroke-width:1.0;"/><polygon fill="#000000" points="23.3032,717.4083,20.9757,708.187,16,711.3162,23.3032,717.4083" style="stroke:#000000;stroke-width:1.0;"/><text fill="#000000" font-family="sans-serif" font-size="13" lengthAdjust="spacing" textLength="50" x="29.6413" y="718.4951">registers</text><text fill="#000000" font-family="sans-serif" font-size="13" lengthAdjust="spacing" textLength="7" x="523.2093" y="45.7055">1</text><text fill="#000000" font-family="sans-serif" font-size="13" lengthAdjust="spacing" textLength="5" x="1394.3004" y="1403.5113">*</text><!--MD5=[f0553939d664499c8c3e148c02d4348e]
link VaccineType to Administrator--><path codeLine="117" d="M1508.3513,1425.09 C1558.1313,1401.81 1626.6413,1358.13 1626.6413,1294 C1626.6413,116 1626.6413,116 1626.6413,116 C1626.6413,47.12 1544.7013,87.62 1476.6413,77 C1163.2713,28.1 780.9213,26.16 643.2013,27.28 " fill="none" id="VaccineType-Administrator" style="stroke:#A80036;stroke-width:1.0;"/><polygon fill="#000000" points="1629.0099,708.9242,1631.2712,718.1621,1636.2692,715.0686,1629.0099,708.9242" style="stroke:#000000;stroke-width:1.0;"/><text fill="#000000" font-family="sans-serif" font-size="13" lengthAdjust="spacing" textLength="61" x="1640.6413" y="718.4951">created by</text><text fill="#000000" font-family="sans-serif" font-size="13" lengthAdjust="spacing" textLength="5" x="1516.1665" y="1418.4009">*</text><text fill="#000000" font-family="sans-serif" font-size="13" lengthAdjust="spacing" textLength="7" x="651.0848" y="23.7142">1</text><!--MD5=[073b08a5da471012f630c095a16c2281]
link Administrator to App--><path codeLine="95" d="M643.4313,44.67 C674.8513,58.25 708.6413,80.99 708.6413,116 C708.6413,116 708.6413,116 708.6413,714 C708.6413,769.66 896.9913,811.37 967.9913,825.12 " fill="none" id="Administrator-App" style="stroke:#A80036;stroke-width:1.0;"/><polygon fill="#000000" points="715.5612,340.7925,714.8017,331.3123,709.3744,333.5693,715.5612,340.7925" style="stroke:#000000;stroke-width:1.0;"/><text fill="#000000" font-family="sans-serif" font-size="13" lengthAdjust="spacing" textLength="53" x="722.6413" y="341.4951">manages</text><text fill="#000000" font-family="sans-serif" font-size="13" lengthAdjust="spacing" textLength="5" x="651.2065" y="61.7997">*</text><text fill="#000000" font-family="sans-serif" font-size="13" lengthAdjust="spacing" textLength="7" x="953.2654" y="819.1034">1</text><!--MD5=[7a8562503c59f9cdcfdb69fd3e5d1073]
link SNSUser to App--><path codeLine="96" d="M698.8113,1150.72 C796.1413,1137.55 1031.6013,1099.83 1076.6413,1038 C1118.2013,980.94 1096.2813,936.48 1052.6413,881 C1043.7613,869.71 1031.9213,859.15 1021.2613,850.74 " fill="none" id="SNSUser-App" style="stroke:#A80036;stroke-width:1.0;"/><polygon fill="#000000" points="1107.3021,980.2701,1098.6779,984.2793,1102.6815,988.5828,1107.3021,980.2701" style="stroke:#000000;stroke-width:1.0;"/><text fill="#000000" font-family="sans-serif" font-size="13" lengthAdjust="spacing" textLength="28" x="1112.6413" y="988.9951">uses</text><text fill="#000000" font-family="sans-serif" font-size="13" lengthAdjust="spacing" textLength="5" x="706.7682" y="1145.7028">*</text><text fill="#000000" font-family="sans-serif" font-size="13" lengthAdjust="spacing" textLength="7" x="1021.0528" y="872.4354">1</text><!--MD5=[1f1feade3c115a92670a2014798a2697]
link VaccinationCenter to App--><path codeLine="97" d="M979.3913,615.12 C984.3013,684.35 990.5513,772.42 993.2713,810.74 " fill="none" id="VaccinationCenter-App" style="stroke:#A80036;stroke-width:1.0;"/><text fill="#000000" font-family="sans-serif" font-size="13" lengthAdjust="spacing" textLength="5" x="974.7167" y="636.5928">*</text><text fill="#000000" font-family="sans-serif" font-size="13" lengthAdjust="spacing" textLength="7" x="984.8408" y="799.9854">1</text><!--MD5=[5bb496728aeb136b5cac2afdd096809d]
link Nurse to App--><path codeLine="98" d="M1195.6913,227.19 C1204.5013,253.81 1217.4213,303.37 1208.6413,345 C1168.0113,537.72 1045.7713,747.15 1006.7513,810.68 " fill="none" id="Nurse-App" style="stroke:#A80036;stroke-width:1.0;"/><polygon fill="#000000" points="1190.101,523.9326,1195.6835,516.2328,1190.0915,514.4221,1190.101,523.9326" style="stroke:#000000;stroke-width:1.0;"/><text fill="#000000" font-family="sans-serif" font-size="13" lengthAdjust="spacing" textLength="28" x="1200.6413" y="524.4951">uses</text><text fill="#000000" font-family="sans-serif" font-size="13" lengthAdjust="spacing" textLength="5" x="1191.971" y="248.663">*</text><text fill="#000000" font-family="sans-serif" font-size="13" lengthAdjust="spacing" textLength="7" x="1002.1729" y="800.2596">1</text><!--MD5=[f42a5b3f738f52b686a88b2b266ff7cd]
link Nurse to Company--><path codeLine="99" d="M1155.3013,223.22 C1115.8713,241.15 1048.1813,271.7 989.6413,297 C796.1113,380.65 559.7513,467.96 464.4713,502.57 " fill="none" id="Nurse-Company" style="stroke:#A80036;stroke-width:1.0;"/><polygon fill="#000000" points="913.0059,338.0502,922.4932,337.384,920.2897,331.9348,913.0059,338.0502" style="stroke:#000000;stroke-width:1.0;"/><text fill="#000000" font-family="sans-serif" font-size="13" lengthAdjust="spacing" textLength="52" x="926.6413" y="341.4951">works for</text><text fill="#000000" font-family="sans-serif" font-size="13" lengthAdjust="spacing" textLength="5" x="1142.4613" y="222.5517">*</text><text fill="#000000" font-family="sans-serif" font-size="13" lengthAdjust="spacing" textLength="7" x="472.1447" y="496.0616">1</text><!--MD5=[49bdc4f43c0486f86f6744f0a65b0571]
link Nurse to Vaccine--><path codeLine="100" d="M1221.6713,213.39 C1278.4713,224.75 1388.6413,256.85 1388.6413,335 C1388.6413,335 1388.6413,335 1388.6413,1158 C1388.6413,1192.43 1388.6413,1231.84 1388.6413,1258.96 " fill="none" id="Nurse-Vaccine" style="stroke:#A80036;stroke-width:1.0;"/><polygon fill="#000000" points="1394.4298,777.1132,1395.9056,767.7179,1390.1013,768.6448,1394.4298,777.1132" style="stroke:#000000;stroke-width:1.0;"/><text fill="#000000" font-family="sans-serif" font-size="13" lengthAdjust="spacing" textLength="78" x="1402.6413" y="777.4951">administrates</text><text fill="#000000" font-family="sans-serif" font-size="13" lengthAdjust="spacing" textLength="5" x="1229.4435" y="210.5714">*</text><text fill="#000000" font-family="sans-serif" font-size="13" lengthAdjust="spacing" textLength="5" x="1383.1491" y="1248.2454">*</text><!--MD5=[03efd8c9f90c050219bacdb83332548b]
link Nurse to VaccinationCenter--><path codeLine="101" d="M1182.1013,227.09 C1172.2713,254.45 1152.1013,305.81 1126.6413,345 C1101.5613,383.61 1068.1013,422.29 1038.7913,453.25 " fill="none" id="Nurse-VaccinationCenter" style="stroke:#A80036;stroke-width:1.0;"/><polygon fill="#000000" points="1138.9651,340.3992,1146.2889,334.332,1141.324,331.1859,1138.9651,340.3992" style="stroke:#000000;stroke-width:1.0;"/><text fill="#000000" font-family="sans-serif" font-size="13" lengthAdjust="spacing" textLength="49" x="1150.6413" y="341.4951">works at</text><text fill="#000000" font-family="sans-serif" font-size="13" lengthAdjust="spacing" textLength="5" x="1174.5588" y="248.5349">*</text><text fill="#000000" font-family="sans-serif" font-size="13" lengthAdjust="spacing" textLength="7" x="1046.8446" y="442.2268">1</text><!--MD5=[7690a4971bd8576b261a40a0340b8203]
link Receptionist to SNSUser--><path codeLine="102" d="M598.2613,227.07 C599.0113,253.54 600.0113,302.92 598.6413,345 C588.6213,653.3 457.3413,747.35 560.6413,1038 C575.0613,1078.56 610.0313,1115.31 633.5413,1136.66 " fill="none" id="Receptionist-SNSUser" style="stroke:#A80036;stroke-width:1.0;"/><polygon fill="#000000" points="542.8351,718.172,545.4213,709.0198,539.5478,709.2476,542.8351,718.172" style="stroke:#000000;stroke-width:1.0;"/><text fill="#000000" font-family="sans-serif" font-size="13" lengthAdjust="spacing" textLength="50" x="551.6413" y="718.4951">registers</text><text fill="#000000" font-family="sans-serif" font-size="13" lengthAdjust="spacing" textLength="7" x="590.4513" y="248.5092">1</text><text fill="#000000" font-family="sans-serif" font-size="13" lengthAdjust="spacing" textLength="5" x="621.3413" y="1126.2339">*</text><!--MD5=[2bde3c2658e9820e0f62920496486001]
link Receptionist to VaccinationCenter--><path codeLine="103" d="M632.6613,227.09 C671.4713,248.95 735.1213,286.95 784.6413,327 C828.0513,362.11 872.0813,406.27 906.6013,443.28 " fill="none" id="Receptionist-VaccinationCenter" style="stroke:#A80036;stroke-width:1.0;"/><polygon fill="#000000" points="811.5663,339.2733,806.2866,331.3628,802.6453,335.9769,811.5663,339.2733" style="stroke:#000000;stroke-width:1.0;"/><text fill="#000000" font-family="sans-serif" font-size="13" lengthAdjust="spacing" textLength="49" x="816.6413" y="341.4951">works at</text><text fill="#000000" font-family="sans-serif" font-size="13" lengthAdjust="spacing" textLength="5" x="636.8076" y="248.5349">*</text><text fill="#000000" font-family="sans-serif" font-size="13" lengthAdjust="spacing" textLength="7" x="891.5608" y="431.104">1</text><!--MD5=[16f546a69324f7e5c5bfce0193866057]
link Receptionist to Company--><path codeLine="104" d="M586.0913,227.29 C572.0913,250.75 547.8613,291.62 527.6413,327 C494.1513,385.61 455.9813,455.06 435.8413,491.93 " fill="none" id="Receptionist-Company" style="stroke:#A80036;stroke-width:1.0;"/><polygon fill="#000000" points="530.1727,340.5239,537.1942,334.1091,532.0827,331.2071,530.1727,340.5239" style="stroke:#000000;stroke-width:1.0;"/><text fill="#000000" font-family="sans-serif" font-size="13" lengthAdjust="spacing" textLength="52" x="541.6413" y="341.4951">works for</text><text fill="#000000" font-family="sans-serif" font-size="13" lengthAdjust="spacing" textLength="5" x="577.3154" y="248.4353">*</text><text fill="#000000" font-family="sans-serif" font-size="13" lengthAdjust="spacing" textLength="7" x="431.4494" y="480.9396">1</text><!--MD5=[96b780800fd67c3bd7a45a9497409787]
link CenterCoordinator to Company--><path codeLine="105" d="M300.7813,297.14 C305.3813,310.74 312.1613,329.31 319.6413,345 C345.4513,399.13 382.6213,458.62 404.2413,491.83 " fill="none" id="CenterCoordinator-Company" style="stroke:#A80036;stroke-width:1.0;"/><polygon fill="#000000" points="326.9876,340.5911,325.3383,331.2246,320.1479,333.9829,326.9876,340.5911" style="stroke:#000000;stroke-width:1.0;"/><text fill="#000000" font-family="sans-serif" font-size="13" lengthAdjust="spacing" textLength="52" x="333.6413" y="341.4951">works for</text><text fill="#000000" font-family="sans-serif" font-size="13" lengthAdjust="spacing" textLength="5" x="296.8051" y="318.5989">*</text><text fill="#000000" font-family="sans-serif" font-size="13" lengthAdjust="spacing" textLength="7" x="392.4082" y="481.2517">1</text><!--MD5=[60fa0013dfee2b69c541512cde82173f]
link Company to MassiveVaccinationCenter--><path codeLine="106" d="M421.6413,546.29 C421.6413,585.53 421.6413,658.46 421.6413,692.96 " fill="none" id="Company-MassiveVaccinationCenter" style="stroke:#A80036;stroke-width:1.0;"/><polygon fill="#000000" points="426.6413,659.1758,429.5802,650.1307,423.7024,650.1307,426.6413,659.1758" style="stroke:#000000;stroke-width:1.0;"/><text fill="#000000" font-family="sans-serif" font-size="13" lengthAdjust="spacing" textLength="30" x="435.6413" y="659.4951">owns</text><text fill="#000000" font-family="sans-serif" font-size="13" lengthAdjust="spacing" textLength="7" x="413.9194" y="567.1169">1</text><text fill="#000000" font-family="sans-serif" font-size="13" lengthAdjust="spacing" textLength="5" x="415.9069" y="682.27">*</text><!--MD5=[eaea43e34e45c5b9d20b595fc78f1f20]
link Company to Administrator--><path codeLine="107" d="M419.5313,491.94 C416.8713,456.79 412.6413,392.22 412.6413,337 C412.6413,116 412.6413,116 412.6413,116 C412.6413,59.64 485.2513,39.37 537.7213,32.09 " fill="none" id="Company-Administrator" style="stroke:#A80036;stroke-width:1.0;"/><polygon fill="#000000" points="418.886,202.3332,413.788,210.362,419.4808,211.8251,418.886,202.3332" style="stroke:#000000;stroke-width:1.0;"/><text fill="#000000" font-family="sans-serif" font-size="13" lengthAdjust="spacing" textLength="37" x="426.6413" y="212.4951">knows</text><text fill="#000000" font-family="sans-serif" font-size="13" lengthAdjust="spacing" textLength="7" x="411.1639" y="480.9521">1</text><text fill="#000000" font-family="sans-serif" font-size="13" lengthAdjust="spacing" textLength="5" x="525.4314" y="48.8187">*</text><!--MD5=[3568623adf67b2630dce9e60c05bd02a]
link Vaccine to VaccineType--><path codeLine="108" d="M1403.7813,1327.14 C1414.2613,1350.06 1428.2513,1380.68 1439.3413,1404.96 " fill="none" id="Vaccine-VaccineType" style="stroke:#A80036;stroke-width:1.0;"/><polygon fill="#000000" points="1431.7194,1370.7235,1430.6332,1361.2751,1425.287,1363.7181,1431.7194,1370.7235" style="stroke:#000000;stroke-width:1.0;"/><text fill="#000000" font-family="sans-serif" font-size="13" lengthAdjust="spacing" textLength="24" x="1438.6413" y="1371.4951">is of</text><text fill="#000000" font-family="sans-serif" font-size="13" lengthAdjust="spacing" textLength="7" x="1398.8547" y="1348.2018">1</text><text fill="#000000" font-family="sans-serif" font-size="13" lengthAdjust="spacing" textLength="7" x="1428.5944" y="1394.0989">1</text><!--MD5=[11cbd578e9513a40800c84f06387e69f]
link Vaccine to VaccineTime--><path codeLine="109" d="M1373.5013,1327.14 C1360.8813,1354.74 1343.1613,1393.52 1331.5413,1418.95 " fill="none" id="Vaccine-VaccineTime" style="stroke:#A80036;stroke-width:1.0;"/><polygon fill="#000000" points="1360.5629,1370.7233,1366.9958,1363.7184,1361.6498,1361.2751,1360.5629,1370.7233" style="stroke:#000000;stroke-width:1.0;"/><text fill="#000000" font-family="sans-serif" font-size="13" lengthAdjust="spacing" textLength="21" x="1371.6413" y="1371.4951">has</text><text fill="#000000" font-family="sans-serif" font-size="13" lengthAdjust="spacing" textLength="5" x="1365.3592" y="1348.2018">*</text><text fill="#000000" font-family="sans-serif" font-size="13" lengthAdjust="spacing" textLength="7" x="1326.5888" y="1407.9645">1</text><!--MD5=[1ad0888398876d0a5b5813418ce026e2]
link App to ScheduleVaccine--><path codeLine="110" d="M1021.3713,836.54 C1054.4713,842.94 1111.8413,856.66 1155.6413,881 C1178.5613,893.74 1200.9413,911.6 1219.8213,928.79 " fill="none" id="App-ScheduleVaccine" style="stroke:#A80036;stroke-width:1.0;"/><polygon fill="#000000" points="1189.1754,892.2835,1182.212,885.8056,1179.7343,891.1357,1189.1754,892.2835" style="stroke:#000000;stroke-width:1.0;"/><text fill="#000000" font-family="sans-serif" font-size="13" lengthAdjust="spacing" textLength="28" x="1193.6413" y="895.4951">does</text><text fill="#000000" font-family="sans-serif" font-size="13" lengthAdjust="spacing" textLength="7" x="1029.1178" y="853.5498">1</text><text fill="#000000" font-family="sans-serif" font-size="13" lengthAdjust="spacing" textLength="5" x="1207.8616" y="918.2614">*</text><!--MD5=[79fee4e4425ae6f4d5189b57381ed9d9]
link App to SMSMessage--><path codeLine="111" d="M994.6413,851.06 C994.6413,875.74 994.6413,919.15 994.6413,949.3 " fill="none" id="App-SMSMessage" style="stroke:#A80036;stroke-width:1.0;"/><polygon fill="#000000" points="999.6413,895.1758,1002.5802,886.1307,996.7024,886.1307,999.6413,895.1758" style="stroke:#000000;stroke-width:1.0;"/><text fill="#000000" font-family="sans-serif" font-size="13" lengthAdjust="spacing" textLength="35" x="1008.6413" y="895.4951">sends</text><text fill="#000000" font-family="sans-serif" font-size="13" lengthAdjust="spacing" textLength="7" x="986.6569" y="872.4964">1</text><text fill="#000000" font-family="sans-serif" font-size="13" lengthAdjust="spacing" textLength="5" x="989.1491" y="938.5539">*</text><!--MD5=[7fee5725fcf01d264d66f094ee978f3d]
link App to HealthCareCenter--><path codeLine="112" d="M1021.4913,836.26 C1065.6113,843.54 1156.0013,859.7 1230.6413,881 C1313.6313,904.68 1407.3813,941.16 1461.7713,963.33 " fill="none" id="App-HealthCareCenter" style="stroke:#A80036;stroke-width:1.0;"/><polygon fill="#000000" points="1293.4452,891.5623,1285.5698,886.2304,1283.9399,891.8778,1293.4452,891.5623" style="stroke:#000000;stroke-width:1.0;"/><text fill="#000000" font-family="sans-serif" font-size="13" lengthAdjust="spacing" textLength="53" x="1297.6413" y="895.4951">manages</text><text fill="#000000" font-family="sans-serif" font-size="13" lengthAdjust="spacing" textLength="7" x="1029.2685" y="833.098">1</text><text fill="#000000" font-family="sans-serif" font-size="13" lengthAdjust="spacing" textLength="5" x="1442.5626" y="952.6018">*</text><!--MD5=[597d738fae5f831986acf37647c298db]
link App to CovidDigitalCertificate--><path codeLine="113" d="M967.8213,840.97 C921.9513,856.66 825.9113,891.06 748.6413,929 C727.2313,939.51 703.9313,952.76 685.8813,963.44 " fill="none" id="App-CovidDigitalCertificate" style="stroke:#A80036;stroke-width:1.0;"/><polygon fill="#000000" points="855.0553,892.1679,864.5224,891.2597,862.1806,885.8686,855.0553,892.1679" style="stroke:#000000;stroke-width:1.0;"/><text fill="#000000" font-family="sans-serif" font-size="13" lengthAdjust="spacing" textLength="32" x="868.6413" y="895.4951">emits</text><text fill="#000000" font-family="sans-serif" font-size="13" lengthAdjust="spacing" textLength="7" x="953.0518" y="859.115">1</text><text fill="#000000" font-family="sans-serif" font-size="13" lengthAdjust="spacing" textLength="5" x="689.3237" y="952.7441">*</text><!--MD5=[d3fd356048560b185ca2c645d98d91bb]
link App to EmailMessage--><path codeLine="114" d="M971.2113,851.23 C960.5413,860.13 947.8113,870.95 936.6413,881 C912.0213,903.15 885.0713,928.98 864.5013,949.04 " fill="none" id="App-EmailMessage" style="stroke:#A80036;stroke-width:1.0;"/><polygon fill="#000000" points="937.9554,893.5543,946.6091,889.609,942.6375,885.276,937.9554,893.5543" style="stroke:#000000;stroke-width:1.0;"/><text fill="#000000" font-family="sans-serif" font-size="13" lengthAdjust="spacing" textLength="35" x="950.6413" y="895.4951">sends</text><text fill="#000000" font-family="sans-serif" font-size="13" lengthAdjust="spacing" textLength="7" x="965.8551" y="872.3592">1</text><text fill="#000000" font-family="sans-serif" font-size="13" lengthAdjust="spacing" textLength="5" x="865.2833" y="938.7692">*</text><!--MD5=[b7c01a66225ccbbe0e647cfd8fd1a74c]
link ScheduleVaccine to CheckCenterCapacity--><path codeLine="115" d="M1267.8813,1038.29 C1266.1213,1063.34 1264.0713,1092.64 1262.4613,1115.74 " fill="none" id="ScheduleVaccine-CheckCenterCapacity" style="stroke:#A80036;stroke-width:1.0;"/><polygon fill="#000000" points="1270.2923,1082.1636,1273.8555,1073.3457,1267.9919,1072.9354,1270.2923,1082.1636" style="stroke:#000000;stroke-width:1.0;"/><text fill="#000000" font-family="sans-serif" font-size="13" lengthAdjust="spacing" textLength="39" x="1279.6413" y="1082.4951">verifies</text><text fill="#000000" font-family="sans-serif" font-size="13" lengthAdjust="spacing" textLength="7" x="1259.9511" y="1059.8411">1</text><text fill="#000000" font-family="sans-serif" font-size="13" lengthAdjust="spacing" textLength="5" x="1257.5143" y="1105.1463">*</text><!--MD5=[ef8d911c79d99175ffefd054f3ff1973]
link HealthCareCenter to Vaccine--><path codeLine="116" d="M1500.5913,1003.59 C1485.2913,1044.86 1447.7813,1145.41 1414.6413,1229 C1410.8013,1238.68 1406.5313,1249.15 1402.5813,1258.72 " fill="none" id="HealthCareCenter-Vaccine" style="stroke:#A80036;stroke-width:1.0;"/><polygon fill="#000000" points="1460.8483,1161.8432,1466.8354,1154.4537,1461.3485,1152.3458,1460.8483,1161.8432" style="stroke:#000000;stroke-width:1.0;"/><text fill="#000000" font-family="sans-serif" font-size="13" lengthAdjust="spacing" textLength="36" x="1471.6413" y="1162.4951">stores</text><text fill="#000000" font-family="sans-serif" font-size="13" lengthAdjust="spacing" textLength="5" x="1492.9054" y="1025.0349">*</text><text fill="#000000" font-family="sans-serif" font-size="13" lengthAdjust="spacing" textLength="5" x="1399.7621" y="1248.2203">*</text><!--MD5=[c3dd7d5a27b29f54641ada6fcfd9df12]
link Vaccine to Administrator--><path codeLine="118" d="M1347.9513,1292.03 C1132.4013,1291.64 133.6413,1283.1 133.6413,1158 C133.6413,116 133.6413,116 133.6413,116 C133.6413,34.5 417.4713,26.8 537.7713,27.2 " fill="none" id="Vaccine-Administrator" style="stroke:#A80036;stroke-width:1.0;"/><polygon fill="#000000" points="135.9444,649.9655,138.3484,659.1672,143.2979,655.9968,135.9444,649.9655" style="stroke:#000000;stroke-width:1.0;"/><text fill="#000000" font-family="sans-serif" font-size="13" lengthAdjust="spacing" textLength="61" x="147.6413" y="659.4951">created by</text><text fill="#000000" font-family="sans-serif" font-size="13" lengthAdjust="spacing" textLength="5" x="1335.2581" y="1287.9879">*</text><text fill="#000000" font-family="sans-serif" font-size="13" lengthAdjust="spacing" textLength="7" x="523.1966" y="23.6706">1</text><!--MD5=[07f6d7a3540cf70562e1c9a4c0db00af]
link SMSMessage to SNSUser--><path codeLine="119" d="M946.3613,1017.66 C935.4613,1024.69 923.8013,1031.83 912.6413,1038 C839.6213,1078.37 750.3113,1117.31 698.8013,1138.81 " fill="none" id="SMSMessage-SNSUser" style="stroke:#A80036;stroke-width:1.0;"/><polygon fill="#000000" points="851.1503,1079.3736,860.5665,1078.0375,857.9828,1072.7579,851.1503,1079.3736" style="stroke:#000000;stroke-width:1.0;"/><text fill="#000000" font-family="sans-serif" font-size="13" lengthAdjust="spacing" textLength="54" x="864.6413" y="1082.4951">is sent to</text><text fill="#000000" font-family="sans-serif" font-size="13" lengthAdjust="spacing" textLength="7" x="930.138" y="1038.7254">1</text><text fill="#000000" font-family="sans-serif" font-size="13" lengthAdjust="spacing" textLength="7" x="706.5404" y="1126.3872">1</text><!--MD5=[1883a8cb2222aab888e27fd0c04fa74e]
@startuml
skinparam classAttributeIconSize 0
hide methods

class Administrator{
}

class Nurse{
}

class SNSUser{
}

class Receptionist{
}

class CenterCoordinator{
}

class HealthCareCenter {
}

class Company {
- designation
}

class MassiveVaccinationCenter {
}

class CovidDigitalCertificate {
}

class App{
}

class SMSMessage {
- informationAppointment
- timeRecovery
}

class EmailMessage {
- informationAppointment
- timeRecovery
}

class Vaccine {
- vaccineName
- lot
}

class VaccineType {
- ageGroup
- dose
- vaccineDosage
}

class VaccineTime {
- timeBetweenDose
}

class CheckCenterCapacity {
- centerCapacity
- date
- time
}

class ScheduleVaccine {
- userNumberSNS
- vaccinationCenter
- date
- time
- typeOfVaccine
}

class VaccinationCenter {
  - name
  - address
  - emailAddress
  - phoneNumber
  - faxNumber
  - websiteAddress
  - openingHours
  - closingHours
  - slotDuration
  - maxVaccines
  - coordinator
}

Administrator "1"- - -"*" Nurse : registers >
Administrator "1"- - -"*" CenterCoordinator : registers >
Administrator "1"- - -"*" Receptionist : registers >
Administrator "1"- - -"*" SNSUser : registers >
Administrator "1"- - -"*" VaccinationCenter : registers >
Administrator "1"- - -"*" HealthCareCenter : registers >
Administrator "1"- - -"*" VaccineType : registers >
Administrator "*"- - -"1" App : manages >
SNSUser "*"- - -"1" App : uses >
VaccinationCenter "*"- - -"1" App
Nurse "*"- - -"1" App : uses >
Nurse "*"- - -"1" Company : works for >
Nurse "*"- - -"*" Vaccine : administrates >
Nurse "*"- - -"1" VaccinationCenter : works at >
Receptionist "1"- - -"*" SNSUser : registers >
Receptionist "*"- - -"1" VaccinationCenter : works at >
Receptionist "*"- - -"1" Company : works for >
CenterCoordinator "*"- -"1" Company : works for >
Company "1"- -"*" MassiveVaccinationCenter : owns >
Company "1"- -"*" Administrator : knows >
Vaccine "1"- -"1" VaccineType : is of >
Vaccine "*"- -"1" VaccineTime : has >
App "1"- -"*" ScheduleVaccine : does >
App "1"- -"*" SMSMessage : sends >
App "1"- -"*" HealthCareCenter : manages >
App "1"- -"*" CovidDigitalCertificate : emits >
App "1"- -"*" EmailMessage : sends >
ScheduleVaccine "1"- -"*" CheckCenterCapacity : verifies >
HealthCareCenter "*"- - -"*" Vaccine : stores >
VaccineType "*"- -"1" Administrator : created by >
Vaccine "*"- -"1" Administrator : created by >
SMSMessage "1"- -"1" SNSUser : is sent to >



@enduml

PlantUML version 1.2022.1(Tue Feb 01 18:19:58 GMT 2022)
(GPL source distribution)
Java Runtime: OpenJDK Runtime Environment
JVM: OpenJDK 64-Bit Server VM
Default Encoding: Cp1252
Language: en
Country: US
--></g></svg>