<?xml version="1.0" encoding="UTF-8" standalone="no"?><svg xmlns="http://www.w3.org/2000/svg" xmlns:xlink="http://www.w3.org/1999/xlink" contentStyleType="text/css" height="407px" preserveAspectRatio="none" style="width:1096px;height:407px;background:#FFFFFF;" version="1.1" viewBox="0 0 1096 407" width="1096px" zoomAndPan="magnify"><defs/><g><!--MD5=[02e4b9b7573f1156f41e60aa5b4e25a4]
class Company--><g id="elem_Company"><rect codeLine="6" fill="#F1F1F1" height="57.6094" id="Company" rx="2.5" ry="2.5" style="stroke:#181818;stroke-width:0.5;" width="92" x="7" y="278"/><ellipse cx="22" cy="294" fill="#ADD1B2" rx="11" ry="11" style="stroke:#181818;stroke-width:1.0;"/><path d="M24,290.5 Q24.2031,290 24.4375,289.75 Q24.6719,289.5 24.9375,289.5 Q25.4063,289.5 25.7031,289.7813 Q26,290.0625 26,290.7188 L26,292.2813 Q26,292.9375 25.7188,293.2188 Q25.4375,293.5 25,293.5 Q24.6094,293.5 24.3594,293.3281 Q24.1094,293.1563 24,292.7031 Q23.9531,292.3906 23.7813,292.2188 Q23.4688,291.8906 22.9063,291.7031 Q22.3438,291.5 21.7813,291.5 Q21.0781,291.5 20.4844,291.7813 Q19.9063,292.0625 19.4531,292.6875 Q19,293.3125 19,294.1719 L19,295.0938 Q19,296.125 19.8438,296.8125 Q20.6875,297.5 22.1875,297.5 Q23.0781,297.5 23.7031,297.2969 Q24.0625,297.1875 24.4688,296.8281 Q24.7344,296.625 24.875,296.5625 Q25.0156,296.5 25.1875,296.5 Q25.5156,296.5 25.75,296.7656 Q26,297.0156 26,297.375 Q26,297.7188 25.6563,298.125 Q25.1563,298.7188 24.3594,299.0469 Q23.3125,299.5 22.0313,299.5 Q20.5313,299.5 19.3281,298.9063 Q18.3594,298.4375 17.6719,297.4219 Q17,296.4063 17,295.2031 L17,294.1094 Q17,292.8594 17.5938,291.7656 Q18.2031,290.6719 19.25,290.0938 Q20.3125,289.5 21.5,289.5 Q22.2188,289.5 22.8438,289.75 Q23.4688,290 24,290.5 Z " fill="#000000"/><text fill="#000000" font-family="sans-serif" font-size="14" lengthAdjust="spacing" textLength="60" x="36" y="299.7285">Company</text><line style="stroke:#181818;stroke-width:0.5;" x1="8" x2="98" y1="310" y2="310"/><text fill="#000000" font-family="sans-serif" font-size="14" lengthAdjust="spacing" textLength="78" x="13" y="328.5332">-designation</text></g><!--MD5=[03960189e81aa2c066c762ffabbee709]
class Receptionist--><g id="elem_Receptionist"><rect codeLine="10" fill="#F1F1F1" height="75.2188" id="Receptionist" rx="2.5" ry="2.5" style="stroke:#181818;stroke-width:0.5;" width="110" x="273" y="205.5"/><ellipse cx="288" cy="221.5" fill="#ADD1B2" rx="11" ry="11" style="stroke:#181818;stroke-width:1.0;"/><path d="M290,218 Q290.2031,217.5 290.4375,217.25 Q290.6719,217 290.9375,217 Q291.4063,217 291.7031,217.2813 Q292,217.5625 292,218.2188 L292,219.7813 Q292,220.4375 291.7188,220.7188 Q291.4375,221 291,221 Q290.6094,221 290.3594,220.8281 Q290.1094,220.6563 290,220.2031 Q289.9531,219.8906 289.7813,219.7188 Q289.4688,219.3906 288.9063,219.2031 Q288.3438,219 287.7813,219 Q287.0781,219 286.4844,219.2813 Q285.9063,219.5625 285.4531,220.1875 Q285,220.8125 285,221.6719 L285,222.5938 Q285,223.625 285.8438,224.3125 Q286.6875,225 288.1875,225 Q289.0781,225 289.7031,224.7969 Q290.0625,224.6875 290.4688,224.3281 Q290.7344,224.125 290.875,224.0625 Q291.0156,224 291.1875,224 Q291.5156,224 291.75,224.2656 Q292,224.5156 292,224.875 Q292,225.2188 291.6563,225.625 Q291.1563,226.2188 290.3594,226.5469 Q289.3125,227 288.0313,227 Q286.5313,227 285.3281,226.4063 Q284.3594,225.9375 283.6719,224.9219 Q283,223.9063 283,222.7031 L283,221.6094 Q283,220.3594 283.5938,219.2656 Q284.2031,218.1719 285.25,217.5938 Q286.3125,217 287.5,217 Q288.2188,217 288.8438,217.25 Q289.4688,217.5 290,218 Z " fill="#000000"/><text fill="#000000" font-family="sans-serif" font-size="14" lengthAdjust="spacing" textLength="78" x="302" y="227.2285">Receptionist</text><line style="stroke:#181818;stroke-width:0.5;" x1="274" x2="382" y1="237.5" y2="237.5"/><text fill="#000000" font-family="sans-serif" font-size="14" lengthAdjust="spacing" textLength="68" x="279" y="256.0332">-username</text><text fill="#000000" font-family="sans-serif" font-size="14" lengthAdjust="spacing" textLength="65" x="279" y="273.6426">-password</text></g><!--MD5=[72be06cc7ae02ccc98efe28a50e62246]
class SNSUser--><g id="elem_SNSUser"><rect codeLine="15" fill="#F1F1F1" height="128.0469" id="SNSUser" rx="2.5" ry="2.5" style="stroke:#181818;stroke-width:0.5;" width="136" x="947" y="272"/><ellipse cx="983.6" cy="288" fill="#ADD1B2" rx="11" ry="11" style="stroke:#181818;stroke-width:1.0;"/><path d="M985.6,284.5 Q985.8031,284 986.0375,283.75 Q986.2719,283.5 986.5375,283.5 Q987.0063,283.5 987.3031,283.7813 Q987.6,284.0625 987.6,284.7188 L987.6,286.2813 Q987.6,286.9375 987.3188,287.2188 Q987.0375,287.5 986.6,287.5 Q986.2094,287.5 985.9594,287.3281 Q985.7094,287.1563 985.6,286.7031 Q985.5531,286.3906 985.3813,286.2188 Q985.0688,285.8906 984.5063,285.7031 Q983.9438,285.5 983.3813,285.5 Q982.6781,285.5 982.0844,285.7813 Q981.5063,286.0625 981.0531,286.6875 Q980.6,287.3125 980.6,288.1719 L980.6,289.0938 Q980.6,290.125 981.4438,290.8125 Q982.2875,291.5 983.7875,291.5 Q984.6781,291.5 985.3031,291.2969 Q985.6625,291.1875 986.0688,290.8281 Q986.3344,290.625 986.475,290.5625 Q986.6156,290.5 986.7875,290.5 Q987.1156,290.5 987.35,290.7656 Q987.6,291.0156 987.6,291.375 Q987.6,291.7188 987.2563,292.125 Q986.7563,292.7188 985.9594,293.0469 Q984.9125,293.5 983.6313,293.5 Q982.1313,293.5 980.9281,292.9063 Q979.9594,292.4375 979.2719,291.4219 Q978.6,290.4063 978.6,289.2031 L978.6,288.1094 Q978.6,286.8594 979.1938,285.7656 Q979.8031,284.6719 980.85,284.0938 Q981.9125,283.5 983.1,283.5 Q983.8188,283.5 984.4438,283.75 Q985.0688,284 985.6,284.5 Z " fill="#000000"/><text fill="#000000" font-family="sans-serif" font-size="14" lengthAdjust="spacing" textLength="56" x="1002.4" y="293.7285">SNSUser</text><line style="stroke:#181818;stroke-width:0.5;" x1="948" x2="1082" y1="304" y2="304"/><text fill="#000000" font-family="sans-serif" font-size="14" lengthAdjust="spacing" textLength="94" x="953" y="322.5332">-phoneNumber</text><text fill="#000000" font-family="sans-serif" font-size="14" lengthAdjust="spacing" textLength="38" x="953" y="340.1426">-email</text><text fill="#000000" font-family="sans-serif" font-size="14" lengthAdjust="spacing" textLength="63" x="953" y="357.752">-birthDate</text><text fill="#000000" font-family="sans-serif" font-size="14" lengthAdjust="spacing" textLength="81" x="953" y="375.3613">-SNSNumber</text><text fill="#000000" font-family="sans-serif" font-size="14" lengthAdjust="spacing" textLength="124" x="953" y="392.9707">-citizenCardNumber</text></g><!--MD5=[8d21a970f1bd1e0e0584d0ecf91221be]
class ScheduleVaccine--><g id="elem_ScheduleVaccine"><rect codeLine="23" fill="#F1F1F1" height="110.4375" id="ScheduleVaccine" rx="2.5" ry="2.5" style="stroke:#181818;stroke-width:0.5;" width="188" x="579" y="188"/><ellipse cx="615.15" cy="204" fill="#ADD1B2" rx="11" ry="11" style="stroke:#181818;stroke-width:1.0;"/><path d="M617.15,200.5 Q617.3531,200 617.5875,199.75 Q617.8219,199.5 618.0875,199.5 Q618.5563,199.5 618.8531,199.7813 Q619.15,200.0625 619.15,200.7188 L619.15,202.2813 Q619.15,202.9375 618.8688,203.2188 Q618.5875,203.5 618.15,203.5 Q617.7594,203.5 617.5094,203.3281 Q617.2594,203.1563 617.15,202.7031 Q617.1031,202.3906 616.9313,202.2188 Q616.6188,201.8906 616.0563,201.7031 Q615.4938,201.5 614.9313,201.5 Q614.2281,201.5 613.6344,201.7813 Q613.0563,202.0625 612.6031,202.6875 Q612.15,203.3125 612.15,204.1719 L612.15,205.0938 Q612.15,206.125 612.9938,206.8125 Q613.8375,207.5 615.3375,207.5 Q616.2281,207.5 616.8531,207.2969 Q617.2125,207.1875 617.6188,206.8281 Q617.8844,206.625 618.025,206.5625 Q618.1656,206.5 618.3375,206.5 Q618.6656,206.5 618.9,206.7656 Q619.15,207.0156 619.15,207.375 Q619.15,207.7188 618.8063,208.125 Q618.3063,208.7188 617.5094,209.0469 Q616.4625,209.5 615.1813,209.5 Q613.6813,209.5 612.4781,208.9063 Q611.5094,208.4375 610.8219,207.4219 Q610.15,206.4063 610.15,205.2031 L610.15,204.1094 Q610.15,202.8594 610.7438,201.7656 Q611.3531,200.6719 612.4,200.0938 Q613.4625,199.5 614.65,199.5 Q615.3688,199.5 615.9938,199.75 Q616.6188,200 617.15,200.5 Z " fill="#000000"/><text fill="#000000" font-family="sans-serif" font-size="14" lengthAdjust="spacing" textLength="109" x="633.85" y="209.7285">ScheduleVaccine</text><line style="stroke:#181818;stroke-width:0.5;" x1="580" x2="766" y1="220" y2="220"/><text fill="#000000" font-family="sans-serif" font-size="14" lengthAdjust="spacing" textLength="81" x="585" y="238.5332">-SNSNumber</text><text fill="#000000" font-family="sans-serif" font-size="14" lengthAdjust="spacing" textLength="176" x="585" y="256.1426">-VaccinationCenter address</text><text fill="#000000" font-family="sans-serif" font-size="14" lengthAdjust="spacing" textLength="33" x="585" y="273.752">-date</text><text fill="#000000" font-family="sans-serif" font-size="14" lengthAdjust="spacing" textLength="97" x="585" y="291.3613">-typeOfVaccine</text></g><!--MD5=[de60e6d4f424ae4d0522096f76a59010]
class VaccinationCenter--><g id="elem_VaccinationCenter"><rect codeLine="29" fill="#F1F1F1" height="92.8281" id="VaccinationCenter" rx="2.5" ry="2.5" style="stroke:#181818;stroke-width:0.5;" width="148" x="941" y="128.5"/><ellipse cx="956" cy="144.5" fill="#ADD1B2" rx="11" ry="11" style="stroke:#181818;stroke-width:1.0;"/><path d="M958,141 Q958.2031,140.5 958.4375,140.25 Q958.6719,140 958.9375,140 Q959.4063,140 959.7031,140.2813 Q960,140.5625 960,141.2188 L960,142.7813 Q960,143.4375 959.7188,143.7188 Q959.4375,144 959,144 Q958.6094,144 958.3594,143.8281 Q958.1094,143.6563 958,143.2031 Q957.9531,142.8906 957.7813,142.7188 Q957.4688,142.3906 956.9063,142.2031 Q956.3438,142 955.7813,142 Q955.0781,142 954.4844,142.2813 Q953.9063,142.5625 953.4531,143.1875 Q953,143.8125 953,144.6719 L953,145.5938 Q953,146.625 953.8438,147.3125 Q954.6875,148 956.1875,148 Q957.0781,148 957.7031,147.7969 Q958.0625,147.6875 958.4688,147.3281 Q958.7344,147.125 958.875,147.0625 Q959.0156,147 959.1875,147 Q959.5156,147 959.75,147.2656 Q960,147.5156 960,147.875 Q960,148.2188 959.6563,148.625 Q959.1563,149.2188 958.3594,149.5469 Q957.3125,150 956.0313,150 Q954.5313,150 953.3281,149.4063 Q952.3594,148.9375 951.6719,147.9219 Q951,146.9063 951,145.7031 L951,144.6094 Q951,143.3594 951.5938,142.2656 Q952.2031,141.1719 953.25,140.5938 Q954.3125,140 955.5,140 Q956.2188,140 956.8438,140.25 Q957.4688,140.5 958,141 Z " fill="#000000"/><text fill="#000000" font-family="sans-serif" font-size="14" lengthAdjust="spacing" textLength="116" x="970" y="150.2285">VaccinationCenter</text><line style="stroke:#181818;stroke-width:0.5;" x1="942" x2="1088" y1="160.5" y2="160.5"/><text fill="#000000" font-family="sans-serif" font-size="14" lengthAdjust="spacing" textLength="56" x="947" y="179.0332">-address</text><text fill="#000000" font-family="sans-serif" font-size="14" lengthAdjust="spacing" textLength="81" x="947" y="196.6426">-slotDuration</text><text fill="#000000" font-family="sans-serif" font-size="14" lengthAdjust="spacing" textLength="87" x="947" y="214.252">-maxVaccines</text></g><!--MD5=[7421f545a0d8420c5bec41e74b387d9c]
class Employee--><g id="elem_Employee"><rect codeLine="34" fill="#F1F1F1" height="145.6563" id="Employee" rx="2.5" ry="2.5" style="stroke:#181818;stroke-width:0.5;" width="136" x="605" y="7"/><ellipse cx="638.9" cy="23" fill="#ADD1B2" rx="11" ry="11" style="stroke:#181818;stroke-width:1.0;"/><path d="M640.9,19.5 Q641.1031,19 641.3375,18.75 Q641.5719,18.5 641.8375,18.5 Q642.3063,18.5 642.6031,18.7813 Q642.9,19.0625 642.9,19.7188 L642.9,21.2813 Q642.9,21.9375 642.6188,22.2188 Q642.3375,22.5 641.9,22.5 Q641.5094,22.5 641.2594,22.3281 Q641.0094,22.1563 640.9,21.7031 Q640.8531,21.3906 640.6813,21.2188 Q640.3688,20.8906 639.8063,20.7031 Q639.2438,20.5 638.6813,20.5 Q637.9781,20.5 637.3844,20.7813 Q636.8063,21.0625 636.3531,21.6875 Q635.9,22.3125 635.9,23.1719 L635.9,24.0938 Q635.9,25.125 636.7438,25.8125 Q637.5875,26.5 639.0875,26.5 Q639.9781,26.5 640.6031,26.2969 Q640.9625,26.1875 641.3688,25.8281 Q641.6344,25.625 641.775,25.5625 Q641.9156,25.5 642.0875,25.5 Q642.4156,25.5 642.65,25.7656 Q642.9,26.0156 642.9,26.375 Q642.9,26.7188 642.5563,27.125 Q642.0563,27.7188 641.2594,28.0469 Q640.2125,28.5 638.9313,28.5 Q637.4313,28.5 636.2281,27.9063 Q635.2594,27.4375 634.5719,26.4219 Q633.9,25.4063 633.9,24.2031 L633.9,23.1094 Q633.9,21.8594 634.4938,20.7656 Q635.1031,19.6719 636.15,19.0938 Q637.2125,18.5 638.4,18.5 Q639.1188,18.5 639.7438,18.75 Q640.3688,19 640.9,19.5 Z " fill="#000000"/><text fill="#000000" font-family="sans-serif" font-size="14" lengthAdjust="spacing" textLength="62" x="657.1" y="28.7285">Employee</text><line style="stroke:#181818;stroke-width:0.5;" x1="606" x2="740" y1="39" y2="39"/><text fill="#000000" font-family="sans-serif" font-size="14" lengthAdjust="spacing" textLength="40" x="611" y="57.5332">-name</text><text fill="#000000" font-family="sans-serif" font-size="14" lengthAdjust="spacing" textLength="38" x="611" y="75.1426">-email</text><text fill="#000000" font-family="sans-serif" font-size="14" lengthAdjust="spacing" textLength="56" x="611" y="92.752">-address</text><text fill="#000000" font-family="sans-serif" font-size="14" lengthAdjust="spacing" textLength="94" x="611" y="110.3613">-phoneNumber</text><text fill="#000000" font-family="sans-serif" font-size="14" lengthAdjust="spacing" textLength="124" x="611" y="127.9707">-citizenCardNumber</text><text fill="#000000" font-family="sans-serif" font-size="14" lengthAdjust="spacing" textLength="29" x="611" y="145.5801">-role</text></g><!--MD5=[3861bdece64e1cdd9c1d7c0b91465d40]
link SNSUser to Company--><g id="link_SNSUser_Company"><path codeLine="43" d="M946.82,345.16 C918.53,348.28 885.22,351 855,351 C185,351 185,351 185,351 C155.37,351 123.84,340.76 99.14,330.16 " fill="none" id="SNSUser-Company" style="stroke:#181818;stroke-width:1.0;"/><polygon fill="#000000" points="451.0008,342.0873,459.9925,345.1858,460.0964,339.3089,451.0008,342.0873" style="stroke:#000000;stroke-width:1.0;"/><text fill="#000000" font-family="sans-serif" font-size="13" lengthAdjust="spacing" textLength="45" x="465" y="347.4951">is client</text><text fill="#000000" font-family="sans-serif" font-size="13" lengthAdjust="spacing" textLength="5" x="934.0894" y="360.5487">*</text><text fill="#000000" font-family="sans-serif" font-size="13" lengthAdjust="spacing" textLength="7" x="107.0514" y="348.6804">1</text></g><!--MD5=[5448e79142bdfcbfebd9929e0faf45a6]
link Company to Receptionist--><g id="link_Company_Receptionist"><path codeLine="44" d="M99.08,296.43 C146.79,285.25 222.06,267.6 272.93,255.68 " fill="none" id="Company-Receptionist" style="stroke:#181818;stroke-width:1.0;"/><polygon fill="#000000" points="169.8681,260.0347,160.391,259.2375,161.7324,264.9603,169.8681,260.0347" style="stroke:#000000;stroke-width:1.0;"/><text fill="#000000" font-family="sans-serif" font-size="13" lengthAdjust="spacing" textLength="37" x="174" y="266.4951">knows</text><text fill="#000000" font-family="sans-serif" font-size="13" lengthAdjust="spacing" textLength="7" x="106.9818" y="309.5747">1</text><text fill="#000000" font-family="sans-serif" font-size="13" lengthAdjust="spacing" textLength="5" x="259.8342" y="272.0926">*</text></g><!--MD5=[63360e778bc0d8ef58348331d609200a]
link ScheduleVaccine to SNSUser--><g id="link_ScheduleVaccine_SNSUser"><path codeLine="45" d="M767.36,268.54 C824.27,284.1 895.68,303.63 946.99,317.67 " fill="none" id="ScheduleVaccine-SNSUser" style="stroke:#181818;stroke-width:1.0;"/><polygon fill="#000000" points="849.3229,277.4949,841.3736,272.2738,839.8229,277.9434,849.3229,277.4949" style="stroke:#000000;stroke-width:1.0;"/><text fill="#000000" font-family="sans-serif" font-size="13" lengthAdjust="spacing" textLength="14" x="853.5" y="281.4951">for</text><text fill="#000000" font-family="sans-serif" font-size="13" lengthAdjust="spacing" textLength="7" x="774.8524" y="284.5997">1</text><text fill="#000000" font-family="sans-serif" font-size="13" lengthAdjust="spacing" textLength="5" x="933.8373" y="329.9883">*</text></g><!--MD5=[d7626ca624fb3224570ce4b41bf1056d]
link Receptionist to ScheduleVaccine--><g id="link_Receptionist_ScheduleVaccine"><path codeLine="46" d="M383.35,243 C435.77,243 516.16,243 578.8,243 " fill="none" id="Receptionist-ScheduleVaccine" style="stroke:#181818;stroke-width:1.0;"/><polygon fill="#000000" points="454,234.1758,444.9549,231.2369,444.9549,237.1147,454,234.1758" style="stroke:#000000;stroke-width:1.0;"/><text fill="#000000" font-family="sans-serif" font-size="13" lengthAdjust="spacing" textLength="59" x="458" y="239.4951">schedules</text><text fill="#000000" font-family="sans-serif" font-size="13" lengthAdjust="spacing" textLength="7" x="390.8902" y="257.5286">1</text><text fill="#000000" font-family="sans-serif" font-size="13" lengthAdjust="spacing" textLength="5" x="566.0942" y="257.1292">*</text></g><!--MD5=[06bb7d2a85a007b79d10922b2d5e4cdd]
link Receptionist to Employee--><g id="link_Receptionist_Employee"><path codeLine="47" d="M383.35,217.17 C443.42,188.63 540.22,142.62 604.95,111.86 " fill="none" id="Receptionist-Employee" style="stroke:#181818;stroke-width:1.0;"/><polygon fill="#000000" points="472.516,142.0297,463.085,143.2576,465.6079,148.5665,472.516,142.0297" style="stroke:#000000;stroke-width:1.0;"/><text fill="#000000" font-family="sans-serif" font-size="13" lengthAdjust="spacing" textLength="21" x="477" y="149.4951">is a</text><text fill="#000000" font-family="sans-serif" font-size="13" lengthAdjust="spacing" textLength="7" x="390.8902" y="228.3892">1</text><text fill="#000000" font-family="sans-serif" font-size="13" lengthAdjust="spacing" textLength="5" x="591.7927" y="130.0041">*</text></g><!--MD5=[fbf6bd42d9db68b6db10d37fc00bacb0]
link ScheduleVaccine to VaccinationCenter--><g id="link_ScheduleVaccine_VaccinationCenter"><path codeLine="48" d="M767.36,224.33 C822.01,213.4 890.03,199.79 940.78,189.64 " fill="none" id="ScheduleVaccine-VaccinationCenter" style="stroke:#181818;stroke-width:1.0;"/><polygon fill="#000000" points="837.9029,191.195,828.457,190.0874,829.61,195.8511,837.9029,191.195" style="stroke:#000000;stroke-width:1.0;"/><text fill="#000000" font-family="sans-serif" font-size="13" lengthAdjust="spacing" textLength="37" x="842" y="197.4951">knows</text><text fill="#000000" font-family="sans-serif" font-size="13" lengthAdjust="spacing" textLength="7" x="774.8524" y="237.0049">1</text><text fill="#000000" font-family="sans-serif" font-size="13" lengthAdjust="spacing" textLength="5" x="927.8683" y="205.4969">*</text></g><!--MD5=[8537012c29a3a0b3c3fab4474c1b1508]
@startuml
hide methods
left to right direction
skinparam classAttributeIconSize 0


class Company {
  -designation
}

class Receptionist{
    -username
    -password
}

class SNSUser {
  -phoneNumber
  -email
  -birthDate
  -SNSNumber
  -citizenCardNumber
}

class ScheduleVaccine{
- SNSNumber
- VaccinationCenter address
- date
- typeOfVaccine
}
class VaccinationCenter{
-address
-slotDuration
-maxVaccines
}
class Employee {
     -name
     -email
     -address
     -phoneNumber
     -citizenCardNumber
     -role
}

SNSUser "*"- - -"1" Company : is client >
Company "1"- - -"*" Receptionist : knows >
ScheduleVaccine "1"- - -"*" SNSUser : for >
Receptionist "1"- - -"*" ScheduleVaccine : schedules >
Receptionist "1"- - -"*" Employee : is a >
ScheduleVaccine "1"- - -"*" VaccinationCenter : knows >
@enduml

PlantUML version 1.2022.4(Sat Apr 09 14:29:17 BST 2022)
(GPL source distribution)
Java Runtime: OpenJDK Runtime Environment
JVM: OpenJDK 64-Bit Server VM
Default Encoding: Cp1252
Language: pt
Country: PT
--></g></svg>