<?xml version="1.0" encoding="UTF-8" standalone="no"?><svg xmlns="http://www.w3.org/2000/svg" xmlns:xlink="http://www.w3.org/1999/xlink" contentStyleType="text/css" height="1710px" preserveAspectRatio="none" style="width:2630px;height:1710px;background:#FFFFFF;" version="1.1" viewBox="0 0 2630 1710" width="2630px" zoomAndPan="magnify"><defs/><g><rect fill="#FFFFFF" height="1527.1563" style="stroke:#181818;stroke-width:1.0;" width="10" x="42" y="92.6094"/><rect fill="#FFFFFF" height="30.3516" style="stroke:#181818;stroke-width:1.0;" width="10" x="432" y="114.9609"/><rect fill="#FFFFFF" height="486.3125" style="stroke:#181818;stroke-width:1.0;" width="10" x="432" y="175.6641"/><rect fill="#FFFFFF" height="318.9063" style="stroke:#181818;stroke-width:1.0;" width="10" x="432" y="692.3281"/><rect fill="#FFFFFF" height="46.7031" style="stroke:#181818;stroke-width:1.0;" width="10" x="432" y="1041.5859"/><rect fill="#FFFFFF" height="163.6641" style="stroke:#181818;stroke-width:1.0;" width="10" x="432" y="1118.6406"/><rect fill="#FFFFFF" height="307.1094" style="stroke:#181818;stroke-width:1.0;" width="10" x="432" y="1312.6563"/><rect fill="#FFFFFF" height="120.7031" style="stroke:#181818;stroke-width:1.0;" width="10" x="736" y="206.0156"/><rect fill="#FFFFFF" height="258.2031" style="stroke:#181818;stroke-width:1.0;" width="10" x="736" y="357.0703"/><rect fill="#FFFFFF" height="258.2031" style="stroke:#181818;stroke-width:1.0;" width="10" x="736" y="722.6797"/><rect fill="#FFFFFF" height="30" style="stroke:#181818;stroke-width:1.0;" width="10" x="736" y="1148.9922"/><rect fill="#FFFFFF" height="30.3516" style="stroke:#181818;stroke-width:1.0;" width="10" x="736" y="1209.3438"/><rect fill="#FFFFFF" height="230.4063" style="stroke:#181818;stroke-width:1.0;" width="10" x="736" y="1343.0078"/><rect fill="#FFFFFF" height="30" style="stroke:#181818;stroke-width:1.0;" width="10" x="1022" y="236.3672"/><rect fill="#FFFFFF" height="30" style="stroke:#181818;stroke-width:1.0;" width="10" x="1022" y="387.4219"/><rect fill="#FFFFFF" height="30" style="stroke:#181818;stroke-width:1.0;" width="10" x="1022" y="753.0313"/><rect fill="#FFFFFF" height="30" style="stroke:#181818;stroke-width:1.0;" width="10" x="1022" y="1373.3594"/><rect fill="#FFFFFF" height="30" style="stroke:#181818;stroke-width:1.0;" width="10" x="1158" y="296.7188"/><rect fill="#FFFFFF" height="30" style="stroke:#181818;stroke-width:1.0;" width="10" x="1382" y="447.7734"/><rect fill="#FFFFFF" height="76.7969" style="stroke:#181818;stroke-width:1.0;" width="10" x="1734" y="508.125"/><rect fill="#FFFFFF" height="76.7969" style="stroke:#181818;stroke-width:1.0;" width="10" x="1889" y="873.7344"/><rect fill="#FFFFFF" height="186.0547" style="stroke:#181818;stroke-width:1.0;" width="10" x="2085" y="1433.7109"/><rect fill="#FFFFFF" height="28" style="stroke:#181818;stroke-width:1.0;" width="10" x="2090" y="1472.0625"/><rect fill="#FFFFFF" height="28" style="stroke:#181818;stroke-width:1.0;" width="10" x="2090" y="1545.4141"/><rect fill="#FFFFFF" height="30" style="stroke:#181818;stroke-width:1.0;" width="10" x="2523" y="813.3828"/><line style="stroke:#181818;stroke-width:0.5;stroke-dasharray:5.0,5.0;" x1="47" x2="47" y1="82.6094" y2="1628.7656"/><line style="stroke:#181818;stroke-width:0.5;stroke-dasharray:5.0,5.0;" x1="436.5" x2="436.5" y1="82.6094" y2="1628.7656"/><line style="stroke:#181818;stroke-width:0.5;stroke-dasharray:5.0,5.0;" x1="740.5" x2="740.5" y1="82.6094" y2="1628.7656"/><line style="stroke:#181818;stroke-width:0.5;stroke-dasharray:5.0,5.0;" x1="1027" x2="1027" y1="82.6094" y2="1628.7656"/><line style="stroke:#181818;stroke-width:0.5;stroke-dasharray:5.0,5.0;" x1="1163" x2="1163" y1="82.6094" y2="1628.7656"/><line style="stroke:#181818;stroke-width:0.5;stroke-dasharray:5.0,5.0;" x1="1387" x2="1387" y1="82.6094" y2="1628.7656"/><line style="stroke:#181818;stroke-width:0.5;stroke-dasharray:5.0,5.0;" x1="1581" x2="1581" y1="82.6094" y2="1628.7656"/><line style="stroke:#181818;stroke-width:0.5;stroke-dasharray:5.0,5.0;" x1="1739" x2="1739" y1="82.6094" y2="1628.7656"/><line style="stroke:#181818;stroke-width:0.5;stroke-dasharray:5.0,5.0;" x1="1894" x2="1894" y1="82.6094" y2="1628.7656"/><line style="stroke:#181818;stroke-width:0.5;stroke-dasharray:5.0,5.0;" x1="2090" x2="2090" y1="82.6094" y2="1628.7656"/><line style="stroke:#181818;stroke-width:0.5;stroke-dasharray:5.0,5.0;" x1="2326" x2="2326" y1="1248.6484" y2="1628.7656"/><line style="stroke:#181818;stroke-width:0.5;stroke-dasharray:5.0,5.0;" x1="2528" x2="2528" y1="82.6094" y2="1628.7656"/><text fill="#000000" font-family="sans-serif" font-size="14" lengthAdjust="spacing" textLength="78" x="5" y="79.5332">Receptionist</text><ellipse cx="47" cy="13.5" fill="#E2E2F0" rx="8" ry="8" style="stroke:#181818;stroke-width:0.5;"/><path d="M47,21.5 L47,48.5 M34,29.5 L60,29.5 M47,48.5 L34,63.5 M47,48.5 L60,63.5 " fill="none" style="stroke:#181818;stroke-width:0.5;"/><text fill="#000000" font-family="sans-serif" font-size="14" lengthAdjust="spacing" textLength="78" x="5" y="1642.2988">Receptionist</text><ellipse cx="47" cy="1653.875" fill="#E2E2F0" rx="8" ry="8" style="stroke:#181818;stroke-width:0.5;"/><path d="M47,1661.875 L47,1688.875 M34,1669.875 L60,1669.875 M47,1688.875 L34,1703.875 M47,1688.875 L60,1703.875 " fill="none" style="stroke:#181818;stroke-width:0.5;"/><rect fill="#E2E2F0" height="31.6094" rx="2.5" ry="2.5" style="stroke:#181818;stroke-width:0.5;" width="213" x="330.5" y="50"/><text fill="#000000" font-family="sans-serif" font-size="14" lengthAdjust="spacing" textLength="199" x="337.5" y="71.5332">ReceptionistScheduleVaccineUI</text><rect fill="#E2E2F0" height="31.6094" rx="2.5" ry="2.5" style="stroke:#181818;stroke-width:0.5;" width="213" x="330.5" y="1627.7656"/><text fill="#000000" font-family="sans-serif" font-size="14" lengthAdjust="spacing" textLength="199" x="337.5" y="1649.2988">ReceptionistScheduleVaccineUI</text><rect fill="#E2E2F0" height="31.6094" rx="2.5" ry="2.5" style="stroke:#181818;stroke-width:0.5;" width="263" x="609.5" y="50"/><text fill="#000000" font-family="sans-serif" font-size="14" lengthAdjust="spacing" textLength="249" x="616.5" y="71.5332">ReceptionistScheduleVaccineController</text><rect fill="#E2E2F0" height="31.6094" rx="2.5" ry="2.5" style="stroke:#181818;stroke-width:0.5;" width="263" x="609.5" y="1627.7656"/><text fill="#000000" font-family="sans-serif" font-size="14" lengthAdjust="spacing" textLength="249" x="616.5" y="1649.2988">ReceptionistScheduleVaccineController</text><rect fill="#E2E2F0" height="31.6094" rx="2.5" ry="2.5" style="stroke:#181818;stroke-width:0.5;" width="74" x="990" y="50"/><text fill="#000000" font-family="sans-serif" font-size="14" lengthAdjust="spacing" textLength="60" x="997" y="71.5332">Company</text><rect fill="#E2E2F0" height="31.6094" rx="2.5" ry="2.5" style="stroke:#181818;stroke-width:0.5;" width="74" x="990" y="1627.7656"/><text fill="#000000" font-family="sans-serif" font-size="14" lengthAdjust="spacing" textLength="60" x="997" y="1649.2988">Company</text><rect fill="#E2E2F0" height="31.6094" rx="2.5" ry="2.5" style="stroke:#181818;stroke-width:0.5;" width="178" x="1074" y="50"/><text fill="#000000" font-family="sans-serif" font-size="14" lengthAdjust="spacing" textLength="164" x="1081" y="71.5332">userStore : SNSUserStore</text><rect fill="#E2E2F0" height="31.6094" rx="2.5" ry="2.5" style="stroke:#181818;stroke-width:0.5;" width="178" x="1074" y="1627.7656"/><text fill="#000000" font-family="sans-serif" font-size="14" lengthAdjust="spacing" textLength="164" x="1081" y="1649.2988">userStore : SNSUserStore</text><rect fill="#E2E2F0" height="31.6094" rx="2.5" ry="2.5" style="stroke:#181818;stroke-width:0.5;" width="250" x="1262" y="50"/><text fill="#000000" font-family="sans-serif" font-size="14" lengthAdjust="spacing" textLength="236" x="1269" y="71.5332">centerStore : VaccinationCenterStore</text><rect fill="#E2E2F0" height="31.6094" rx="2.5" ry="2.5" style="stroke:#181818;stroke-width:0.5;" width="250" x="1262" y="1627.7656"/><text fill="#000000" font-family="sans-serif" font-size="14" lengthAdjust="spacing" textLength="236" x="1269" y="1649.2988">centerStore : VaccinationCenterStore</text><rect fill="#E2E2F0" height="31.6094" rx="2.5" ry="2.5" style="stroke:#181818;stroke-width:0.5;" width="118" x="1522" y="50"/><text fill="#000000" font-family="sans-serif" font-size="14" lengthAdjust="spacing" textLength="104" x="1529" y="71.5332">SNSUserMapper</text><rect fill="#E2E2F0" height="31.6094" rx="2.5" ry="2.5" style="stroke:#181818;stroke-width:0.5;" width="118" x="1522" y="1627.7656"/><text fill="#000000" font-family="sans-serif" font-size="14" lengthAdjust="spacing" textLength="104" x="1529" y="1649.2988">SNSUserMapper</text><rect fill="#E2E2F0" height="31.6094" rx="2.5" ry="2.5" style="stroke:#181818;stroke-width:0.5;" width="178" x="1650" y="50"/><text fill="#000000" font-family="sans-serif" font-size="14" lengthAdjust="spacing" textLength="164" x="1657" y="71.5332">VaccinationCenterMapper</text><rect fill="#E2E2F0" height="31.6094" rx="2.5" ry="2.5" style="stroke:#181818;stroke-width:0.5;" width="178" x="1650" y="1627.7656"/><text fill="#000000" font-family="sans-serif" font-size="14" lengthAdjust="spacing" textLength="164" x="1657" y="1649.2988">VaccinationCenterMapper</text><rect fill="#E2E2F0" height="31.6094" rx="2.5" ry="2.5" style="stroke:#181818;stroke-width:0.5;" width="112" x="1838" y="50"/><text fill="#000000" font-family="sans-serif" font-size="14" lengthAdjust="spacing" textLength="98" x="1845" y="71.5332">VaccineMapper</text><rect fill="#E2E2F0" height="31.6094" rx="2.5" ry="2.5" style="stroke:#181818;stroke-width:0.5;" width="112" x="1838" y="1627.7656"/><text fill="#000000" font-family="sans-serif" font-size="14" lengthAdjust="spacing" textLength="98" x="1845" y="1649.2988">VaccineMapper</text><rect fill="#E2E2F0" height="31.6094" rx="2.5" ry="2.5" style="stroke:#181818;stroke-width:0.5;" width="260" x="1960" y="50"/><text fill="#000000" font-family="sans-serif" font-size="14" lengthAdjust="spacing" textLength="246" x="1967" y="71.5332">scheduleStore : ScheduleVaccineStore</text><rect fill="#E2E2F0" height="31.6094" rx="2.5" ry="2.5" style="stroke:#181818;stroke-width:0.5;" width="260" x="1960" y="1627.7656"/><text fill="#000000" font-family="sans-serif" font-size="14" lengthAdjust="spacing" textLength="246" x="1967" y="1649.2988">scheduleStore : ScheduleVaccineStore</text><rect fill="#E2E2F0" height="31.6094" rx="2.5" ry="2.5" style="stroke:#181818;stroke-width:0.5;" width="192" x="2230" y="1627.7656"/><text fill="#000000" font-family="sans-serif" font-size="14" lengthAdjust="spacing" textLength="178" x="2237" y="1649.2988">schedule : ScheduleVaccine</text><rect fill="#E2E2F0" height="31.6094" rx="2.5" ry="2.5" style="stroke:#181818;stroke-width:0.5;" width="192" x="2432" y="50"/><text fill="#000000" font-family="sans-serif" font-size="14" lengthAdjust="spacing" textLength="178" x="2439" y="71.5332">vaccineStore : VaccineStore</text><rect fill="#E2E2F0" height="31.6094" rx="2.5" ry="2.5" style="stroke:#181818;stroke-width:0.5;" width="192" x="2432" y="1627.7656"/><text fill="#000000" font-family="sans-serif" font-size="14" lengthAdjust="spacing" textLength="178" x="2439" y="1649.2988">vaccineStore : VaccineStore</text><rect fill="#FFFFFF" height="1527.1563" style="stroke:#181818;stroke-width:1.0;" width="10" x="42" y="92.6094"/><rect fill="#FFFFFF" height="30.3516" style="stroke:#181818;stroke-width:1.0;" width="10" x="432" y="114.9609"/><rect fill="#FFFFFF" height="486.3125" style="stroke:#181818;stroke-width:1.0;" width="10" x="432" y="175.6641"/><rect fill="#FFFFFF" height="318.9063" style="stroke:#181818;stroke-width:1.0;" width="10" x="432" y="692.3281"/><rect fill="#FFFFFF" height="46.7031" style="stroke:#181818;stroke-width:1.0;" width="10" x="432" y="1041.5859"/><rect fill="#FFFFFF" height="163.6641" style="stroke:#181818;stroke-width:1.0;" width="10" x="432" y="1118.6406"/><rect fill="#FFFFFF" height="307.1094" style="stroke:#181818;stroke-width:1.0;" width="10" x="432" y="1312.6563"/><rect fill="#FFFFFF" height="120.7031" style="stroke:#181818;stroke-width:1.0;" width="10" x="736" y="206.0156"/><rect fill="#FFFFFF" height="258.2031" style="stroke:#181818;stroke-width:1.0;" width="10" x="736" y="357.0703"/><rect fill="#FFFFFF" height="258.2031" style="stroke:#181818;stroke-width:1.0;" width="10" x="736" y="722.6797"/><rect fill="#FFFFFF" height="30" style="stroke:#181818;stroke-width:1.0;" width="10" x="736" y="1148.9922"/><rect fill="#FFFFFF" height="30.3516" style="stroke:#181818;stroke-width:1.0;" width="10" x="736" y="1209.3438"/><rect fill="#FFFFFF" height="230.4063" style="stroke:#181818;stroke-width:1.0;" width="10" x="736" y="1343.0078"/><rect fill="#FFFFFF" height="30" style="stroke:#181818;stroke-width:1.0;" width="10" x="1022" y="236.3672"/><rect fill="#FFFFFF" height="30" style="stroke:#181818;stroke-width:1.0;" width="10" x="1022" y="387.4219"/><rect fill="#FFFFFF" height="30" style="stroke:#181818;stroke-width:1.0;" width="10" x="1022" y="753.0313"/><rect fill="#FFFFFF" height="30" style="stroke:#181818;stroke-width:1.0;" width="10" x="1022" y="1373.3594"/><rect fill="#FFFFFF" height="30" style="stroke:#181818;stroke-width:1.0;" width="10" x="1158" y="296.7188"/><rect fill="#FFFFFF" height="30" style="stroke:#181818;stroke-width:1.0;" width="10" x="1382" y="447.7734"/><rect fill="#FFFFFF" height="76.7969" style="stroke:#181818;stroke-width:1.0;" width="10" x="1734" y="508.125"/><rect fill="#FFFFFF" height="76.7969" style="stroke:#181818;stroke-width:1.0;" width="10" x="1889" y="873.7344"/><rect fill="#FFFFFF" height="186.0547" style="stroke:#181818;stroke-width:1.0;" width="10" x="2085" y="1433.7109"/><rect fill="#FFFFFF" height="28" style="stroke:#181818;stroke-width:1.0;" width="10" x="2090" y="1472.0625"/><rect fill="#FFFFFF" height="28" style="stroke:#181818;stroke-width:1.0;" width="10" x="2090" y="1545.4141"/><rect fill="#FFFFFF" height="30" style="stroke:#181818;stroke-width:1.0;" width="10" x="2523" y="813.3828"/><polygon fill="#181818" points="420,110.9609,430,114.9609,420,118.9609,424,114.9609" style="stroke:#181818;stroke-width:1.0;"/><line style="stroke:#181818;stroke-width:1.0;" x1="52" x2="426" y1="114.9609" y2="114.9609"/><text fill="#000000" font-family="sans-serif" font-size="13" font-weight="bold" lengthAdjust="spacing" textLength="7" x="59" y="110.1045">1</text><text fill="#000000" font-family="sans-serif" font-size="13" lengthAdjust="spacing" textLength="350" x="70" y="110.1045">wants to schedule a vaccination appointment for a given user</text><polygon fill="#181818" points="63,141.3125,53,145.3125,63,149.3125,59,145.3125" style="stroke:#181818;stroke-width:1.0;"/><line style="stroke:#181818;stroke-width:1.0;stroke-dasharray:2.0,2.0;" x1="57" x2="436" y1="145.3125" y2="145.3125"/><text fill="#000000" font-family="sans-serif" font-size="13" font-weight="bold" lengthAdjust="spacing" textLength="7" x="69" y="140.4561">2</text><text fill="#000000" font-family="sans-serif" font-size="13" lengthAdjust="spacing" textLength="184" x="80" y="140.4561">requests data (snsUserNumber)</text><polygon fill="#181818" points="420,171.6641,430,175.6641,420,179.6641,424,175.6641" style="stroke:#181818;stroke-width:1.0;"/><line style="stroke:#181818;stroke-width:1.0;" x1="52" x2="426" y1="175.6641" y2="175.6641"/><text fill="#000000" font-family="sans-serif" font-size="13" font-weight="bold" lengthAdjust="spacing" textLength="7" x="59" y="170.8076">3</text><text fill="#000000" font-family="sans-serif" font-size="13" lengthAdjust="spacing" textLength="256" x="70" y="170.8076">inserts the requested data (snsUserNumber)</text><polygon fill="#181818" points="724,202.0156,734,206.0156,724,210.0156,728,206.0156" style="stroke:#181818;stroke-width:1.0;"/><line style="stroke:#181818;stroke-width:1.0;" x1="442" x2="730" y1="206.0156" y2="206.0156"/><text fill="#000000" font-family="sans-serif" font-size="13" font-weight="bold" lengthAdjust="spacing" textLength="7" x="449" y="201.1592">4</text><text fill="#000000" font-family="sans-serif" font-size="13" lengthAdjust="spacing" textLength="169" x="460" y="201.1592">getSnsUser(snsUserNumber)</text><polygon fill="#181818" points="1010,232.3672,1020,236.3672,1010,240.3672,1014,236.3672" style="stroke:#181818;stroke-width:1.0;"/><line style="stroke:#181818;stroke-width:1.0;" x1="746" x2="1016" y1="236.3672" y2="236.3672"/><text fill="#000000" font-family="sans-serif" font-size="13" font-weight="bold" lengthAdjust="spacing" textLength="7" x="753" y="231.5107">5</text><text fill="#000000" font-family="sans-serif" font-size="13" lengthAdjust="spacing" textLength="183" x="764" y="231.5107">userStore = getSNSUserStore()</text><polygon fill="#181818" points="1146,292.7188,1156,296.7188,1146,300.7188,1150,296.7188" style="stroke:#181818;stroke-width:1.0;"/><line style="stroke:#181818;stroke-width:1.0;" x1="746" x2="1152" y1="296.7188" y2="296.7188"/><text fill="#000000" font-family="sans-serif" font-size="13" font-weight="bold" lengthAdjust="spacing" textLength="7" x="753" y="291.8623">6</text><text fill="#000000" font-family="sans-serif" font-size="13" lengthAdjust="spacing" textLength="302" x="764" y="291.8623">user = getUserBySNSUserNumber(snsUserNumber)</text><polygon fill="#181818" points="724,353.0703,734,357.0703,724,361.0703,728,357.0703" style="stroke:#181818;stroke-width:1.0;"/><line style="stroke:#181818;stroke-width:1.0;" x1="442" x2="730" y1="357.0703" y2="357.0703"/><text fill="#000000" font-family="sans-serif" font-size="13" font-weight="bold" lengthAdjust="spacing" textLength="7" x="449" y="352.2139">7</text><text fill="#000000" font-family="sans-serif" font-size="13" lengthAdjust="spacing" textLength="264" x="460" y="352.2139">vaccinationCenterListDto = getCenterListDto()</text><polygon fill="#181818" points="1010,383.4219,1020,387.4219,1010,391.4219,1014,387.4219" style="stroke:#181818;stroke-width:1.0;"/><line style="stroke:#181818;stroke-width:1.0;" x1="746" x2="1016" y1="387.4219" y2="387.4219"/><text fill="#000000" font-family="sans-serif" font-size="13" font-weight="bold" lengthAdjust="spacing" textLength="7" x="753" y="382.5654">8</text><text fill="#000000" font-family="sans-serif" font-size="13" lengthAdjust="spacing" textLength="246" x="764" y="382.5654">centerStore = getVaccinationCenterStore()</text><polygon fill="#181818" points="1370,443.7734,1380,447.7734,1370,451.7734,1374,447.7734" style="stroke:#181818;stroke-width:1.0;"/><line style="stroke:#181818;stroke-width:1.0;" x1="746" x2="1376" y1="447.7734" y2="447.7734"/><text fill="#000000" font-family="sans-serif" font-size="13" font-weight="bold" lengthAdjust="spacing" textLength="7" x="753" y="442.917">9</text><text fill="#000000" font-family="sans-serif" font-size="13" lengthAdjust="spacing" textLength="224" x="764" y="442.917">listCenter = getVaccinationCenterList()</text><polygon fill="#181818" points="1722,504.125,1732,508.125,1722,512.125,1726,508.125" style="stroke:#181818;stroke-width:1.0;"/><line style="stroke:#181818;stroke-width:1.0;" x1="746" x2="1728" y1="508.125" y2="508.125"/><text fill="#000000" font-family="sans-serif" font-size="13" font-weight="bold" lengthAdjust="spacing" textLength="14" x="753" y="503.2686">10</text><text fill="#000000" font-family="sans-serif" font-size="13" lengthAdjust="spacing" textLength="168" x="771" y="503.2686">toDTO(vaccinationCenterList)</text><rect height="41.4453" style="stroke:#000000;stroke-width:1.5;fill:none;" width="242" x="1647" y="516.125"/><path d="M1647,516.125 L1709,516.125 L1709,524.125 L1699,534.125 L1647,534.125 L1647,516.125 " fill="#EEEEEE" style="stroke:#000000;stroke-width:2.0;"/><text fill="#000000" font-family="sans-serif" font-size="13" font-weight="bold" lengthAdjust="spacing" textLength="17" x="1660" y="531.6201">ref</text><text fill="#000000" font-family="sans-serif" font-size="12" lengthAdjust="spacing" textLength="234" x="1651" y="550.582">SD_VaccinationCenterMapper_toDTO_List</text><polygon fill="#181818" points="757,580.9219,747,584.9219,757,588.9219,753,584.9219" style="stroke:#181818;stroke-width:1.0;"/><line style="stroke:#181818;stroke-width:1.0;stroke-dasharray:2.0,2.0;" x1="751" x2="1738" y1="584.9219" y2="584.9219"/><text fill="#000000" font-family="sans-serif" font-size="13" font-weight="bold" lengthAdjust="spacing" textLength="14" x="763" y="580.0654">11</text><text fill="#000000" font-family="sans-serif" font-size="13" lengthAdjust="spacing" textLength="75" x="781" y="580.0654">listCenterDto</text><polygon fill="#181818" points="453,611.2734,443,615.2734,453,619.2734,449,615.2734" style="stroke:#181818;stroke-width:1.0;"/><line style="stroke:#181818;stroke-width:1.0;stroke-dasharray:2.0,2.0;" x1="447" x2="740" y1="615.2734" y2="615.2734"/><text fill="#000000" font-family="sans-serif" font-size="13" font-weight="bold" lengthAdjust="spacing" textLength="14" x="459" y="610.417">12</text><text fill="#000000" font-family="sans-serif" font-size="13" lengthAdjust="spacing" textLength="75" x="477" y="610.417">listCenterDto</text><polygon fill="#181818" points="63,657.9766,53,661.9766,63,665.9766,59,661.9766" style="stroke:#181818;stroke-width:1.0;"/><line style="stroke:#181818;stroke-width:1.0;stroke-dasharray:2.0,2.0;" x1="57" x2="436" y1="661.9766" y2="661.9766"/><text fill="#000000" font-family="sans-serif" font-size="13" font-weight="bold" lengthAdjust="spacing" textLength="14" x="69" y="648.9443">13</text><text fill="#000000" font-family="sans-serif" font-size="13" lengthAdjust="spacing" textLength="295" x="87" y="640.7686">shows vaccination centers and asks to choose one</text><text fill="#000000" font-family="sans-serif" font-size="13" lengthAdjust="spacing" textLength="132" x="91" y="657.1201">from the available ones</text><polygon fill="#181818" points="420,688.3281,430,692.3281,420,696.3281,424,692.3281" style="stroke:#181818;stroke-width:1.0;"/><line style="stroke:#181818;stroke-width:1.0;" x1="52" x2="426" y1="692.3281" y2="692.3281"/><text fill="#000000" font-family="sans-serif" font-size="13" font-weight="bold" lengthAdjust="spacing" textLength="14" x="59" y="687.4717">14</text><text fill="#000000" font-family="sans-serif" font-size="13" lengthAdjust="spacing" textLength="161" x="77" y="687.4717">selects a vaccination center</text><polygon fill="#181818" points="724,718.6797,734,722.6797,724,726.6797,728,722.6797" style="stroke:#181818;stroke-width:1.0;"/><line style="stroke:#181818;stroke-width:1.0;" x1="442" x2="730" y1="722.6797" y2="722.6797"/><text fill="#000000" font-family="sans-serif" font-size="13" font-weight="bold" lengthAdjust="spacing" textLength="14" x="449" y="717.8232">15</text><text fill="#000000" font-family="sans-serif" font-size="13" lengthAdjust="spacing" textLength="214" x="467" y="717.8232">vaccineListDto = getVaccineListDto()</text><polygon fill="#181818" points="1010,749.0313,1020,753.0313,1010,757.0313,1014,753.0313" style="stroke:#181818;stroke-width:1.0;"/><line style="stroke:#181818;stroke-width:1.0;" x1="746" x2="1016" y1="753.0313" y2="753.0313"/><text fill="#000000" font-family="sans-serif" font-size="13" font-weight="bold" lengthAdjust="spacing" textLength="14" x="753" y="748.1748">16</text><text fill="#000000" font-family="sans-serif" font-size="13" lengthAdjust="spacing" textLength="184" x="771" y="748.1748">vaccineList = getVaccineStore()</text><polygon fill="#181818" points="2511,809.3828,2521,813.3828,2511,817.3828,2515,813.3828" style="stroke:#181818;stroke-width:1.0;"/><line style="stroke:#181818;stroke-width:1.0;" x1="746" x2="2517" y1="813.3828" y2="813.3828"/><text fill="#000000" font-family="sans-serif" font-size="13" font-weight="bold" lengthAdjust="spacing" textLength="14" x="753" y="808.5264">17</text><text fill="#000000" font-family="sans-serif" font-size="13" lengthAdjust="spacing" textLength="153" x="771" y="808.5264">vaccine = getVaccineList()</text><polygon fill="#181818" points="1877,869.7344,1887,873.7344,1877,877.7344,1881,873.7344" style="stroke:#181818;stroke-width:1.0;"/><line style="stroke:#181818;stroke-width:1.0;" x1="746" x2="1883" y1="873.7344" y2="873.7344"/><text fill="#000000" font-family="sans-serif" font-size="13" font-weight="bold" lengthAdjust="spacing" textLength="14" x="753" y="868.8779">18</text><text fill="#000000" font-family="sans-serif" font-size="13" lengthAdjust="spacing" textLength="109" x="771" y="868.8779">toDTO(vaccineList)</text><rect height="41.4453" style="stroke:#000000;stroke-width:1.5;fill:none;" width="185" x="1835" y="881.7344"/><path d="M1835,881.7344 L1897,881.7344 L1897,889.7344 L1887,899.7344 L1835,899.7344 L1835,881.7344 " fill="#EEEEEE" style="stroke:#000000;stroke-width:2.0;"/><text fill="#000000" font-family="sans-serif" font-size="13" font-weight="bold" lengthAdjust="spacing" textLength="17" x="1848" y="897.2295">ref</text><text fill="#000000" font-family="sans-serif" font-size="12" lengthAdjust="spacing" textLength="177" x="1839" y="916.1914">SD_VaccineMapper_toDTO_List</text><polygon fill="#181818" points="757,946.5313,747,950.5313,757,954.5313,753,950.5313" style="stroke:#181818;stroke-width:1.0;"/><line style="stroke:#181818;stroke-width:1.0;stroke-dasharray:2.0,2.0;" x1="751" x2="1893" y1="950.5313" y2="950.5313"/><text fill="#000000" font-family="sans-serif" font-size="13" font-weight="bold" lengthAdjust="spacing" textLength="14" x="763" y="945.6748">19</text><text fill="#000000" font-family="sans-serif" font-size="13" lengthAdjust="spacing" textLength="84" x="781" y="945.6748">vaccineListDto</text><polygon fill="#181818" points="453,976.8828,443,980.8828,453,984.8828,449,980.8828" style="stroke:#181818;stroke-width:1.0;"/><line style="stroke:#181818;stroke-width:1.0;" x1="447" x2="740" y1="980.8828" y2="980.8828"/><text fill="#000000" font-family="sans-serif" font-size="13" font-weight="bold" lengthAdjust="spacing" textLength="14" x="459" y="976.0264">20</text><text fill="#000000" font-family="sans-serif" font-size="13" lengthAdjust="spacing" textLength="84" x="477" y="976.0264">vaccineListDto</text><polygon fill="#181818" points="63,1007.2344,53,1011.2344,63,1015.2344,59,1011.2344" style="stroke:#181818;stroke-width:1.0;"/><line style="stroke:#181818;stroke-width:1.0;stroke-dasharray:2.0,2.0;" x1="57" x2="436" y1="1011.2344" y2="1011.2344"/><text fill="#000000" font-family="sans-serif" font-size="13" font-weight="bold" lengthAdjust="spacing" textLength="14" x="69" y="1006.3779">21</text><text fill="#000000" font-family="sans-serif" font-size="13" lengthAdjust="spacing" textLength="276" x="87" y="1006.3779">asks to select a vaccine from the available ones</text><polygon fill="#181818" points="420,1037.5859,430,1041.5859,420,1045.5859,424,1041.5859" style="stroke:#181818;stroke-width:1.0;"/><line style="stroke:#181818;stroke-width:1.0;" x1="52" x2="426" y1="1041.5859" y2="1041.5859"/><text fill="#000000" font-family="sans-serif" font-size="13" font-weight="bold" lengthAdjust="spacing" textLength="14" x="59" y="1036.7295">22</text><text fill="#000000" font-family="sans-serif" font-size="13" lengthAdjust="spacing" textLength="179" x="77" y="1036.7295">chooses a vaccine from the list</text><polygon fill="#181818" points="63,1084.2891,53,1088.2891,63,1092.2891,59,1088.2891" style="stroke:#181818;stroke-width:1.0;"/><line style="stroke:#181818;stroke-width:1.0;" x1="57" x2="436" y1="1088.2891" y2="1088.2891"/><text fill="#000000" font-family="sans-serif" font-size="13" font-weight="bold" lengthAdjust="spacing" textLength="14" x="69" y="1075.2568">23</text><text fill="#000000" font-family="sans-serif" font-size="13" lengthAdjust="spacing" textLength="274" x="87" y="1067.0811">asks to enter the date and time to schedule the</text><text fill="#000000" font-family="sans-serif" font-size="13" lengthAdjust="spacing" textLength="113" x="91" y="1083.4326">vaccine (date, time)</text><polygon fill="#181818" points="420,1114.6406,430,1118.6406,420,1122.6406,424,1118.6406" style="stroke:#181818;stroke-width:1.0;"/><line style="stroke:#181818;stroke-width:1.0;" x1="52" x2="426" y1="1118.6406" y2="1118.6406"/><text fill="#000000" font-family="sans-serif" font-size="13" font-weight="bold" lengthAdjust="spacing" textLength="14" x="59" y="1113.7842">24</text><text fill="#000000" font-family="sans-serif" font-size="13" lengthAdjust="spacing" textLength="151" x="77" y="1113.7842">inserts the requested data</text><polygon fill="#181818" points="724,1144.9922,734,1148.9922,724,1152.9922,728,1148.9922" style="stroke:#181818;stroke-width:1.0;"/><line style="stroke:#181818;stroke-width:1.0;" x1="442" x2="730" y1="1148.9922" y2="1148.9922"/><text fill="#000000" font-family="sans-serif" font-size="13" font-weight="bold" lengthAdjust="spacing" textLength="14" x="449" y="1144.1357">25</text><text fill="#000000" font-family="sans-serif" font-size="13" lengthAdjust="spacing" textLength="132" x="467" y="1144.1357">checkCenterCapacity()</text><polygon fill="#181818" points="724,1205.3438,734,1209.3438,724,1213.3438,728,1209.3438" style="stroke:#181818;stroke-width:1.0;"/><line style="stroke:#181818;stroke-width:1.0;" x1="442" x2="730" y1="1209.3438" y2="1209.3438"/><text fill="#000000" font-family="sans-serif" font-size="13" font-weight="bold" lengthAdjust="spacing" textLength="14" x="449" y="1204.4873">26</text><text fill="#000000" font-family="sans-serif" font-size="13" lengthAdjust="spacing" textLength="111" x="467" y="1204.4873">scheduleVaccine ()</text><polygon fill="#181818" points="2218,1235.6953,2228,1239.6953,2218,1243.6953,2222,1239.6953" style="stroke:#181818;stroke-width:1.0;"/><line style="stroke:#181818;stroke-width:1.0;" x1="741" x2="2224" y1="1239.6953" y2="1239.6953"/><text fill="#000000" font-family="sans-serif" font-size="13" font-weight="bold" lengthAdjust="spacing" textLength="14" x="748" y="1234.8389">27</text><text fill="#000000" font-family="sans-serif" font-size="13" lengthAdjust="spacing" textLength="434" x="766" y="1234.8389">schedule = createScheduleVaccine(date, time, userNumber, vaccineName)</text><rect fill="#E2E2F0" height="31.6094" rx="2.5" ry="2.5" style="stroke:#181818;stroke-width:0.5;" width="192" x="2230" y="1217.3438"/><text fill="#000000" font-family="sans-serif" font-size="14" lengthAdjust="spacing" textLength="178" x="2237" y="1238.877">schedule : ScheduleVaccine</text><polygon fill="#181818" points="63,1278.3047,53,1282.3047,63,1286.3047,59,1282.3047" style="stroke:#181818;stroke-width:1.0;"/><line style="stroke:#181818;stroke-width:1.0;stroke-dasharray:2.0,2.0;" x1="57" x2="436" y1="1282.3047" y2="1282.3047"/><text fill="#000000" font-family="sans-serif" font-size="13" font-weight="bold" lengthAdjust="spacing" textLength="14" x="69" y="1277.4482">28</text><text fill="#000000" font-family="sans-serif" font-size="13" lengthAdjust="spacing" textLength="244" x="87" y="1277.4482">shows the schedule and asks to confirm it</text><polygon fill="#181818" points="420,1308.6563,430,1312.6563,420,1316.6563,424,1312.6563" style="stroke:#181818;stroke-width:1.0;"/><line style="stroke:#181818;stroke-width:1.0;" x1="52" x2="426" y1="1312.6563" y2="1312.6563"/><text fill="#000000" font-family="sans-serif" font-size="13" font-weight="bold" lengthAdjust="spacing" textLength="14" x="59" y="1307.7998">29</text><text fill="#000000" font-family="sans-serif" font-size="13" lengthAdjust="spacing" textLength="141" x="77" y="1307.7998">confirms the shown data</text><polygon fill="#181818" points="724,1339.0078,734,1343.0078,724,1347.0078,728,1343.0078" style="stroke:#181818;stroke-width:1.0;"/><line style="stroke:#181818;stroke-width:1.0;" x1="442" x2="730" y1="1343.0078" y2="1343.0078"/><text fill="#000000" font-family="sans-serif" font-size="13" font-weight="bold" lengthAdjust="spacing" textLength="14" x="449" y="1338.1514">30</text><text fill="#000000" font-family="sans-serif" font-size="13" lengthAdjust="spacing" textLength="88" x="467" y="1338.1514">saveSchedule()</text><polygon fill="#181818" points="1010,1369.3594,1020,1373.3594,1010,1377.3594,1014,1373.3594" style="stroke:#181818;stroke-width:1.0;"/><line style="stroke:#181818;stroke-width:1.0;" x1="746" x2="1016" y1="1373.3594" y2="1373.3594"/><text fill="#000000" font-family="sans-serif" font-size="13" font-weight="bold" lengthAdjust="spacing" textLength="14" x="753" y="1368.5029">31</text><text fill="#000000" font-family="sans-serif" font-size="13" lengthAdjust="spacing" textLength="210" x="771" y="1368.5029">scheduleStore = getScheduleStore()</text><polygon fill="#181818" points="2073,1429.7109,2083,1433.7109,2073,1437.7109,2077,1433.7109" style="stroke:#181818;stroke-width:1.0;"/><line style="stroke:#181818;stroke-width:1.0;" x1="746" x2="2079" y1="1433.7109" y2="1433.7109"/><text fill="#000000" font-family="sans-serif" font-size="13" font-weight="bold" lengthAdjust="spacing" textLength="14" x="753" y="1428.8545">32</text><text fill="#000000" font-family="sans-serif" font-size="13" lengthAdjust="spacing" textLength="140" x="771" y="1428.8545">saveSchedule(schedule)</text><line style="stroke:#181818;stroke-width:1.0;" x1="2100" x2="2142" y1="1464.0625" y2="1464.0625"/><line style="stroke:#181818;stroke-width:1.0;" x1="2142" x2="2142" y1="1464.0625" y2="1477.0625"/><line style="stroke:#181818;stroke-width:1.0;" x1="2101" x2="2142" y1="1477.0625" y2="1477.0625"/><polygon fill="#181818" points="2111,1473.0625,2101,1477.0625,2111,1481.0625,2107,1477.0625" style="stroke:#181818;stroke-width:1.0;"/><text fill="#000000" font-family="sans-serif" font-size="13" font-weight="bold" lengthAdjust="spacing" textLength="14" x="2107" y="1459.2061">33</text><text fill="#000000" font-family="sans-serif" font-size="13" lengthAdjust="spacing" textLength="157" x="2125" y="1459.2061">validateSchedule(schedule)</text><line style="stroke:#181818;stroke-width:1.0;" x1="2100" x2="2142" y1="1537.4141" y2="1537.4141"/><line style="stroke:#181818;stroke-width:1.0;" x1="2142" x2="2142" y1="1537.4141" y2="1550.4141"/><line style="stroke:#181818;stroke-width:1.0;" x1="2101" x2="2142" y1="1550.4141" y2="1550.4141"/><polygon fill="#181818" points="2111,1546.4141,2101,1550.4141,2111,1554.4141,2107,1550.4141" style="stroke:#181818;stroke-width:1.0;"/><text fill="#000000" font-family="sans-serif" font-size="13" font-weight="bold" lengthAdjust="spacing" textLength="14" x="2107" y="1532.5576">34</text><text fill="#000000" font-family="sans-serif" font-size="13" lengthAdjust="spacing" textLength="135" x="2125" y="1532.5576">addSchedule(schedule)</text><polygon fill="#181818" points="63,1606.7656,53,1610.7656,63,1614.7656,59,1610.7656" style="stroke:#181818;stroke-width:1.0;"/><line style="stroke:#181818;stroke-width:1.0;stroke-dasharray:2.0,2.0;" x1="57" x2="431" y1="1610.7656" y2="1610.7656"/><text fill="#000000" font-family="sans-serif" font-size="13" font-weight="bold" lengthAdjust="spacing" textLength="14" x="69" y="1605.9092">35</text><text fill="#000000" font-family="sans-serif" font-size="13" lengthAdjust="spacing" textLength="320" x="87" y="1605.9092">informs sucess of the operation and the scheduled date</text><!--MD5=[e428df2f79be119758bdfc14d9eb4a6d]
@startuml
autonumber

actor Receptionist
activate Receptionist

participant "ReceptionistScheduleVaccineUI" as ui
participant "ReceptionistScheduleVaccineController" as controller
participant "Company" as company
participant "userStore : SNSUserStore" as userStore
participant "centerStore : VaccinationCenterStore" as centerStore
participant "SNSUserMapper" as userMapper
participant "VaccinationCenterMapper" as centerMapper
participant "VaccineMapper" as vaccineMapper
participant "scheduleStore : ScheduleVaccineStore" as scheduleStore
participant "schedule : ScheduleVaccine" as scheduleVaccine
participant "vaccineStore : VaccineStore" as vaccineStore


Receptionist -> ui : wants to schedule a vaccination appointment for a given user
activate ui
ui - -> Receptionist : requests data (snsUserNumber)
deactivate ui






Receptionist -> ui : inserts the requested data (snsUserNumber)
activate ui
ui -> controller : getSnsUser(snsUserNumber)
activate controller
controller -> company : userStore = getSNSUserStore()
activate company
deactivate company
controller -> userStore : user = getUserBySNSUserNumber(snsUserNumber)
activate userStore
deactivate userStore
deactivate controller
ui -> controller : vaccinationCenterListDto = getCenterListDto()
activate controller
controller -> company : centerStore = getVaccinationCenterStore()
activate company
deactivate company
controller -> centerStore : listCenter = getVaccinationCenterList()
activate centerStore
deactivate centerStore
controller -> centerMapper : toDTO(vaccinationCenterList)
activate centerMapper
ref over centerMapper
SD_VaccinationCenterMapper_toDTO_List
end ref
centerMapper - -> controller : listCenterDto
deactivate centerMapper
controller - -> ui : listCenterDto
deactivate controller
ui - -> Receptionist : shows vaccination centers and asks to choose one \n from the available ones
deactivate ui





Receptionist -> ui : selects a vaccination center
activate ui
ui -> controller : vaccineListDto = getVaccineListDto()
activate controller
controller -> company : vaccineList = getVaccineStore()
activate company
deactivate company
controller -> vaccineStore : vaccine = getVaccineList()
activate vaccineStore
deactivate vaccineStore
controller -> vaccineMapper : toDTO(vaccineList)
activate vaccineMapper
ref over vaccineMapper
SD_VaccineMapper_toDTO_List
end ref
vaccineMapper - -> controller : vaccineListDto
deactivate vaccineMapper
controller -> ui : vaccineListDto
deactivate controller
ui - -> Receptionist : asks to select a vaccine from the available ones
deactivate ui

Receptionist -> ui : chooses a vaccine from the list
activate ui

ui -> Receptionist : asks to enter the date and time to schedule the \n vaccine (date, time)
deactivate ui


Receptionist -> ui : inserts the requested data
activate ui
ui -> controller : checkCenterCapacity()
activate controller
deactivate controller
ui -> controller : scheduleVaccine ()
activate controller
controller -> scheduleVaccine** : schedule = createScheduleVaccine(date, time, userNumber, vaccineName)
deactivate controller
ui - -> Receptionist : shows the schedule and asks to confirm it
deactivate ui



Receptionist -> ui : confirms the shown data
activate ui
ui -> controller : saveSchedule()
activate controller
controller -> company : scheduleStore = getScheduleStore()
activate company
deactivate company
controller -> scheduleStore : saveSchedule(schedule)
activate scheduleStore
scheduleStore -> scheduleStore : validateSchedule(schedule)
activate scheduleStore
deactivate scheduleStore
scheduleStore -> scheduleStore : addSchedule(schedule)
activate scheduleStore
deactivate scheduleStore
deactivate controller
ui - -> Receptionist : informs sucess of the operation and the scheduled date

@enduml

PlantUML version 1.2022.4(Sat Apr 09 14:29:17 BST 2022)
(GPL source distribution)
Java Runtime: OpenJDK Runtime Environment
JVM: OpenJDK 64-Bit Server VM
Default Encoding: Cp1252
Language: pt
Country: PT
--></g></svg>