<?xml version="1.0" encoding="UTF-8" standalone="no"?><svg xmlns="http://www.w3.org/2000/svg" xmlns:xlink="http://www.w3.org/1999/xlink" contentStyleType="text/css" height="1246px" preserveAspectRatio="none" style="width:1687px;height:1246px;background:#FFFFFF;" version="1.1" viewBox="0 0 1687 1246" width="1687px" zoomAndPan="magnify"><defs/><g><rect fill="#FFFFFF" height="1062.8438" style="stroke:#181818;stroke-width:1.0;" width="10" x="44.5" y="92.6094"/><rect fill="#FFFFFF" height="30.3516" style="stroke:#181818;stroke-width:1.0;" width="10" x="356.5" y="114.9609"/><rect fill="#FFFFFF" height="30.3516" style="stroke:#181818;stroke-width:1.0;" width="10" x="356.5" y="175.6641"/><rect fill="#FFFFFF" height="919.0859" style="stroke:#181818;stroke-width:1.0;" width="10" x="356.5" y="236.3672"/><rect fill="#FFFFFF" height="66.3516" style="stroke:#181818;stroke-width:1.0;" width="10" x="534" y="266.7188"/><rect fill="#FFFFFF" height="28" style="stroke:#181818;stroke-width:1.0;" width="10" x="539" y="305.0703"/><rect fill="#FFFFFF" height="154.7578" style="stroke:#181818;stroke-width:1.0;" width="10" x="534" y="370.4219"/><rect fill="#FFFFFF" height="28" style="stroke:#181818;stroke-width:1.0;" width="10" x="539" y="497.1797"/><rect fill="#FFFFFF" height="30" style="stroke:#181818;stroke-width:1.0;" width="10" x="534" y="816.3438"/><rect fill="#FFFFFF" height="336.5156" style="stroke:#181818;stroke-width:1.0;" width="10" x="935" y="442.4766"/><rect fill="#FFFFFF" height="146.0547" style="stroke:#181818;stroke-width:1.0;" width="10" x="940" y="816.3438"/><rect fill="#FFFFFF" height="146.0547" style="stroke:#181818;stroke-width:1.0;" width="10" x="940" y="816.3438"/><rect fill="#FFFFFF" height="30" style="stroke:#181818;stroke-width:1.0;" width="10" x="1138" y="562.5313"/><rect fill="#FFFFFF" height="63.0547" style="stroke:#181818;stroke-width:1.0;" width="10" x="1243" y="655.5859"/><rect fill="#FFFFFF" height="30" style="stroke:#181818;stroke-width:1.0;" width="10" x="1243" y="748.9922"/><rect fill="#FFFFFF" height="200.0547" style="stroke:#181818;stroke-width:1.0;" width="10" x="1243" y="902.0469"/><rect fill="#FFFFFF" height="28" style="stroke:#181818;stroke-width:1.0;" width="10" x="1248" y="1000.75"/><rect fill="#FFFFFF" height="28" style="stroke:#181818;stroke-width:1.0;" width="10" x="1248" y="1074.1016"/><rect fill="#FFFFFF" height="30" style="stroke:#181818;stroke-width:1.0;" width="10" x="1620.5" y="932.3984"/><rect height="401.5703" style="stroke:#000000;stroke-width:1.5;fill:none;" width="1133.5" x="446.5" y="385.4219"/><rect height="255.7578" style="stroke:#000000;stroke-width:1.5;fill:none;" width="842" x="839" y="861.3438"/><line style="stroke:#181818;stroke-width:0.5;fill:none;stroke-dasharray:5.0,5.0;" x1="49" x2="49" y1="82.6094" y2="1164.4531"/><line style="stroke:#181818;stroke-width:0.5;fill:none;stroke-dasharray:5.0,5.0;" x1="361.5" x2="361.5" y1="82.6094" y2="1164.4531"/><line style="stroke:#181818;stroke-width:0.5;fill:none;stroke-dasharray:5.0,5.0;" x1="538.5" x2="538.5" y1="82.6094" y2="1164.4531"/><line style="stroke:#181818;stroke-width:0.5;fill:none;stroke-dasharray:5.0,5.0;" x1="940" x2="940" y1="82.6094" y2="1164.4531"/><line style="stroke:#181818;stroke-width:0.5;fill:none;stroke-dasharray:5.0,5.0;" x1="1143" x2="1143" y1="82.6094" y2="1164.4531"/><line style="stroke:#181818;stroke-width:0.5;fill:none;stroke-dasharray:5.0,5.0;" x1="1247.5" x2="1247.5" y1="82.6094" y2="1164.4531"/><line style="stroke:#181818;stroke-width:0.5;fill:none;stroke-dasharray:5.0,5.0;" x1="1536" x2="1536" y1="705.1133" y2="1164.4531"/><line style="stroke:#181818;stroke-width:0.5;fill:none;stroke-dasharray:5.0,5.0;" x1="1625" x2="1625" y1="82.6094" y2="1164.4531"/><text fill="#000000" font-family="sans-serif" font-size="14" lengthAdjust="spacing" textLength="83" x="5" y="79.5332">Administrator</text><ellipse cx="49.5" cy="13.5" fill="#E2E2F0" rx="8" ry="8" style="stroke:#181818;stroke-width:0.5;"/><path d="M49.5,21.5 L49.5,48.5 M36.5,29.5 L62.5,29.5 M49.5,48.5 L36.5,63.5 M49.5,48.5 L62.5,63.5 " fill="none" style="stroke:#181818;stroke-width:0.5;"/><text fill="#000000" font-family="sans-serif" font-size="14" lengthAdjust="spacing" textLength="83" x="5" y="1177.9863">Administrator</text><ellipse cx="49.5" cy="1189.5625" fill="#E2E2F0" rx="8" ry="8" style="stroke:#181818;stroke-width:0.5;"/><path d="M49.5,1197.5625 L49.5,1224.5625 M36.5,1205.5625 L62.5,1205.5625 M49.5,1224.5625 L36.5,1239.5625 M49.5,1224.5625 L62.5,1239.5625 " fill="none" style="stroke:#181818;stroke-width:0.5;"/><rect fill="#E2E2F0" height="49.2188" rx="2.5" ry="2.5" style="stroke:#181818;stroke-width:0.5;" width="170" x="276.5" y="32.3906"/><text fill="#000000" font-family="sans-serif" font-size="14" lengthAdjust="spacing" textLength="4" x="359.5" y="53.9238">:</text><text fill="#000000" font-family="sans-serif" font-size="14" lengthAdjust="spacing" textLength="156" x="283.5" y="71.5332">LoadSNSUserFromFileUI</text><rect fill="#E2E2F0" height="49.2188" rx="2.5" ry="2.5" style="stroke:#181818;stroke-width:0.5;" width="170" x="276.5" y="1163.4531"/><text fill="#000000" font-family="sans-serif" font-size="14" lengthAdjust="spacing" textLength="4" x="359.5" y="1184.9863">:</text><text fill="#000000" font-family="sans-serif" font-size="14" lengthAdjust="spacing" textLength="156" x="283.5" y="1202.5957">LoadSNSUserFromFileUI</text><rect fill="#E2E2F0" height="49.2188" rx="2.5" ry="2.5" style="stroke:#181818;stroke-width:0.5;" width="165" x="456.5" y="32.3906"/><text fill="#000000" font-family="sans-serif" font-size="14" lengthAdjust="spacing" textLength="4" x="537" y="53.9238">:</text><text fill="#000000" font-family="sans-serif" font-size="14" lengthAdjust="spacing" textLength="151" x="463.5" y="71.5332">LoadSNSUsersFromFile</text><rect fill="#E2E2F0" height="49.2188" rx="2.5" ry="2.5" style="stroke:#181818;stroke-width:0.5;" width="165" x="456.5" y="1163.4531"/><text fill="#000000" font-family="sans-serif" font-size="14" lengthAdjust="spacing" textLength="4" x="537" y="1184.9863">:</text><text fill="#000000" font-family="sans-serif" font-size="14" lengthAdjust="spacing" textLength="151" x="463.5" y="1202.5957">LoadSNSUsersFromFile</text><rect fill="#E2E2F0" height="49.2188" rx="2.5" ry="2.5" style="stroke:#181818;stroke-width:0.5;" width="182" x="849" y="32.3906"/><text fill="#000000" font-family="sans-serif" font-size="14" lengthAdjust="spacing" textLength="4" x="938" y="53.9238">:</text><text fill="#000000" font-family="sans-serif" font-size="14" lengthAdjust="spacing" textLength="168" x="856" y="71.5332">RegisterSnsUserController</text><rect fill="#E2E2F0" height="49.2188" rx="2.5" ry="2.5" style="stroke:#181818;stroke-width:0.5;" width="182" x="849" y="1163.4531"/><text fill="#000000" font-family="sans-serif" font-size="14" lengthAdjust="spacing" textLength="4" x="938" y="1184.9863">:</text><text fill="#000000" font-family="sans-serif" font-size="14" lengthAdjust="spacing" textLength="168" x="856" y="1202.5957">RegisterSnsUserController</text><rect fill="#E2E2F0" height="49.2188" rx="2.5" ry="2.5" style="stroke:#181818;stroke-width:0.5;" width="74" x="1106" y="32.3906"/><text fill="#000000" font-family="sans-serif" font-size="14" lengthAdjust="spacing" textLength="4" x="1141" y="53.9238">:</text><text fill="#000000" font-family="sans-serif" font-size="14" lengthAdjust="spacing" textLength="60" x="1113" y="71.5332">Company</text><rect fill="#E2E2F0" height="49.2188" rx="2.5" ry="2.5" style="stroke:#181818;stroke-width:0.5;" width="74" x="1106" y="1163.4531"/><text fill="#000000" font-family="sans-serif" font-size="14" lengthAdjust="spacing" textLength="4" x="1141" y="1184.9863">:</text><text fill="#000000" font-family="sans-serif" font-size="14" lengthAdjust="spacing" textLength="60" x="1113" y="1202.5957">Company</text><rect fill="#E2E2F0" height="49.2188" rx="2.5" ry="2.5" style="stroke:#181818;stroke-width:0.5;" width="101" x="1197.5" y="32.3906"/><text fill="#000000" font-family="sans-serif" font-size="14" lengthAdjust="spacing" textLength="36" x="1230" y="53.9238">store:</text><text fill="#000000" font-family="sans-serif" font-size="14" lengthAdjust="spacing" textLength="87" x="1204.5" y="71.5332">SnsUserStore</text><rect fill="#E2E2F0" height="49.2188" rx="2.5" ry="2.5" style="stroke:#181818;stroke-width:0.5;" width="101" x="1197.5" y="1163.4531"/><text fill="#000000" font-family="sans-serif" font-size="14" lengthAdjust="spacing" textLength="36" x="1230" y="1184.9863">store:</text><text fill="#000000" font-family="sans-serif" font-size="14" lengthAdjust="spacing" textLength="87" x="1204.5" y="1202.5957">SnsUserStore</text><rect fill="#E2E2F0" height="49.2188" rx="2.5" ry="2.5" style="stroke:#181818;stroke-width:0.5;" width="67" x="1503" y="1163.4531"/><text fill="#000000" font-family="sans-serif" font-size="14" lengthAdjust="spacing" textLength="32" x="1520.5" y="1184.9863">user:</text><text fill="#000000" font-family="sans-serif" font-size="14" lengthAdjust="spacing" textLength="53" x="1510" y="1202.5957">SnsUser</text><rect fill="#E2E2F0" height="49.2188" rx="2.5" ry="2.5" style="stroke:#181818;stroke-width:0.5;" width="91" x="1580" y="32.3906"/><text fill="#000000" font-family="sans-serif" font-size="14" lengthAdjust="spacing" textLength="4" x="1623.5" y="53.9238">:</text><text fill="#000000" font-family="sans-serif" font-size="14" lengthAdjust="spacing" textLength="77" x="1587" y="71.5332">AuthFacade</text><rect fill="#E2E2F0" height="49.2188" rx="2.5" ry="2.5" style="stroke:#181818;stroke-width:0.5;" width="91" x="1580" y="1163.4531"/><text fill="#000000" font-family="sans-serif" font-size="14" lengthAdjust="spacing" textLength="4" x="1623.5" y="1184.9863">:</text><text fill="#000000" font-family="sans-serif" font-size="14" lengthAdjust="spacing" textLength="77" x="1587" y="1202.5957">AuthFacade</text><rect fill="#FFFFFF" height="1062.8438" style="stroke:#181818;stroke-width:1.0;" width="10" x="44.5" y="92.6094"/><rect fill="#FFFFFF" height="30.3516" style="stroke:#181818;stroke-width:1.0;" width="10" x="356.5" y="114.9609"/><rect fill="#FFFFFF" height="30.3516" style="stroke:#181818;stroke-width:1.0;" width="10" x="356.5" y="175.6641"/><rect fill="#FFFFFF" height="919.0859" style="stroke:#181818;stroke-width:1.0;" width="10" x="356.5" y="236.3672"/><rect fill="#FFFFFF" height="66.3516" style="stroke:#181818;stroke-width:1.0;" width="10" x="534" y="266.7188"/><rect fill="#FFFFFF" height="28" style="stroke:#181818;stroke-width:1.0;" width="10" x="539" y="305.0703"/><rect fill="#FFFFFF" height="154.7578" style="stroke:#181818;stroke-width:1.0;" width="10" x="534" y="370.4219"/><rect fill="#FFFFFF" height="28" style="stroke:#181818;stroke-width:1.0;" width="10" x="539" y="497.1797"/><rect fill="#FFFFFF" height="30" style="stroke:#181818;stroke-width:1.0;" width="10" x="534" y="816.3438"/><rect fill="#FFFFFF" height="336.5156" style="stroke:#181818;stroke-width:1.0;" width="10" x="935" y="442.4766"/><rect fill="#FFFFFF" height="146.0547" style="stroke:#181818;stroke-width:1.0;" width="10" x="940" y="816.3438"/><rect fill="#FFFFFF" height="146.0547" style="stroke:#181818;stroke-width:1.0;" width="10" x="940" y="816.3438"/><rect fill="#FFFFFF" height="30" style="stroke:#181818;stroke-width:1.0;" width="10" x="1138" y="562.5313"/><rect fill="#FFFFFF" height="63.0547" style="stroke:#181818;stroke-width:1.0;" width="10" x="1243" y="655.5859"/><rect fill="#FFFFFF" height="30" style="stroke:#181818;stroke-width:1.0;" width="10" x="1243" y="748.9922"/><rect fill="#FFFFFF" height="200.0547" style="stroke:#181818;stroke-width:1.0;" width="10" x="1243" y="902.0469"/><rect fill="#FFFFFF" height="28" style="stroke:#181818;stroke-width:1.0;" width="10" x="1248" y="1000.75"/><rect fill="#FFFFFF" height="28" style="stroke:#181818;stroke-width:1.0;" width="10" x="1248" y="1074.1016"/><rect fill="#FFFFFF" height="30" style="stroke:#181818;stroke-width:1.0;" width="10" x="1620.5" y="932.3984"/><polygon fill="#181818" points="344.5,110.9609,354.5,114.9609,344.5,118.9609,348.5,114.9609" style="stroke:#181818;stroke-width:1.0;"/><line style="stroke:#181818;stroke-width:1.0;" x1="54.5" x2="350.5" y1="114.9609" y2="114.9609"/><text fill="#000000" font-family="sans-serif" font-size="13" font-weight="bold" lengthAdjust="spacing" textLength="7" x="61.5" y="110.1045">1</text><text fill="#000000" font-family="sans-serif" font-size="13" lengthAdjust="spacing" textLength="272" x="72.5" y="110.1045">starts loading a set of Users through a CSV file</text><polygon fill="#181818" points="65.5,141.3125,55.5,145.3125,65.5,149.3125,61.5,145.3125" style="stroke:#181818;stroke-width:1.0;"/><line style="stroke:#181818;stroke-width:1.0;stroke-dasharray:2.0,2.0;" x1="59.5" x2="360.5" y1="145.3125" y2="145.3125"/><text fill="#000000" font-family="sans-serif" font-size="13" font-weight="bold" lengthAdjust="spacing" textLength="7" x="71.5" y="140.4561">2</text><text fill="#000000" font-family="sans-serif" font-size="13" lengthAdjust="spacing" textLength="106" x="82.5" y="140.4561">requests File Path</text><polygon fill="#181818" points="344.5,171.6641,354.5,175.6641,344.5,179.6641,348.5,175.6641" style="stroke:#181818;stroke-width:1.0;"/><line style="stroke:#181818;stroke-width:1.0;" x1="54.5" x2="350.5" y1="175.6641" y2="175.6641"/><text fill="#000000" font-family="sans-serif" font-size="13" font-weight="bold" lengthAdjust="spacing" textLength="7" x="61.5" y="170.8076">3</text><text fill="#000000" font-family="sans-serif" font-size="13" lengthAdjust="spacing" textLength="151" x="72.5" y="170.8076">types File Path  (CSV file)</text><polygon fill="#181818" points="65.5,202.0156,55.5,206.0156,65.5,210.0156,61.5,206.0156" style="stroke:#181818;stroke-width:1.0;"/><line style="stroke:#181818;stroke-width:1.0;stroke-dasharray:2.0,2.0;" x1="59.5" x2="360.5" y1="206.0156" y2="206.0156"/><text fill="#000000" font-family="sans-serif" font-size="13" font-weight="bold" lengthAdjust="spacing" textLength="7" x="71.5" y="201.1592">4</text><text fill="#000000" font-family="sans-serif" font-size="13" lengthAdjust="spacing" textLength="267" x="82.5" y="201.1592">shows the data and asks for confirmation(Y/N)</text><polygon fill="#181818" points="344.5,232.3672,354.5,236.3672,344.5,240.3672,348.5,236.3672" style="stroke:#181818;stroke-width:1.0;"/><line style="stroke:#181818;stroke-width:1.0;" x1="54.5" x2="350.5" y1="236.3672" y2="236.3672"/><text fill="#000000" font-family="sans-serif" font-size="13" font-weight="bold" lengthAdjust="spacing" textLength="7" x="61.5" y="231.5107">5</text><text fill="#000000" font-family="sans-serif" font-size="13" lengthAdjust="spacing" textLength="100" x="72.5" y="231.5107">confirms the data</text><polygon fill="#181818" points="522,262.7188,532,266.7188,522,270.7188,526,266.7188" style="stroke:#181818;stroke-width:1.0;"/><line style="stroke:#181818;stroke-width:1.0;" x1="366.5" x2="528" y1="266.7188" y2="266.7188"/><text fill="#000000" font-family="sans-serif" font-size="13" font-weight="bold" lengthAdjust="spacing" textLength="7" x="373.5" y="261.8623">6</text><text fill="#000000" font-family="sans-serif" font-size="13" lengthAdjust="spacing" textLength="136" x="384.5" y="261.8623">regex = validateFile(file)</text><line style="stroke:#181818;stroke-width:1.0;" x1="549" x2="591" y1="297.0703" y2="297.0703"/><line style="stroke:#181818;stroke-width:1.0;" x1="591" x2="591" y1="297.0703" y2="310.0703"/><line style="stroke:#181818;stroke-width:1.0;" x1="550" x2="591" y1="310.0703" y2="310.0703"/><polygon fill="#181818" points="560,306.0703,550,310.0703,560,314.0703,556,310.0703" style="stroke:#181818;stroke-width:1.0;"/><text fill="#000000" font-family="sans-serif" font-size="13" font-weight="bold" lengthAdjust="spacing" textLength="7" x="556" y="292.2139">7</text><text fill="#000000" font-family="sans-serif" font-size="13" lengthAdjust="spacing" textLength="131" x="567" y="292.2139">checkfileextension(file)</text><polygon fill="#181818" points="522,366.4219,532,370.4219,522,374.4219,526,370.4219" style="stroke:#181818;stroke-width:1.0;"/><line style="stroke:#181818;stroke-width:1.0;" x1="366.5" x2="528" y1="370.4219" y2="370.4219"/><text fill="#000000" font-family="sans-serif" font-size="13" font-weight="bold" lengthAdjust="spacing" textLength="7" x="373.5" y="365.5654">8</text><text fill="#000000" font-family="sans-serif" font-size="13" lengthAdjust="spacing" textLength="120" x="384.5" y="365.5654">addToList(file, regex)</text><path d="M446.5,385.4219 L519.5,385.4219 L519.5,393.7734 L509.5,403.7734 L446.5,403.7734 L446.5,385.4219 " fill="#EEEEEE" style="stroke:#000000;stroke-width:1.5;"/><rect fill="none" height="401.5703" style="stroke:#000000;stroke-width:1.5;" width="1133.5" x="446.5" y="385.4219"/><text fill="#000000" font-family="sans-serif" font-size="13" font-weight="bold" lengthAdjust="spacing" textLength="28" x="461.5" y="399.917">loop</text><polygon fill="#181818" points="923,438.4766,933,442.4766,923,446.4766,927,442.4766" style="stroke:#181818;stroke-width:1.0;"/><line style="stroke:#181818;stroke-width:1.0;" x1="544" x2="929" y1="442.4766" y2="442.4766"/><text fill="#000000" font-family="sans-serif" font-size="13" font-weight="bold" lengthAdjust="spacing" textLength="7" x="551" y="429.4443">9</text><text fill="#000000" font-family="sans-serif" font-size="13" lengthAdjust="spacing" textLength="266" x="562" y="421.2686">createSNSUser(split[0],split[1],split[2],split[3],</text><text fill="#000000" font-family="sans-serif" font-size="13" lengthAdjust="spacing" textLength="252" x="566" y="437.6201">split[4],format.parse(split[5]),split[6],split[7])</text><line style="stroke:#181818;stroke-width:1.0;" x1="549" x2="591" y1="489.1797" y2="489.1797"/><line style="stroke:#181818;stroke-width:1.0;" x1="591" x2="591" y1="489.1797" y2="502.1797"/><line style="stroke:#181818;stroke-width:1.0;" x1="550" x2="591" y1="502.1797" y2="502.1797"/><polygon fill="#181818" points="560,498.1797,550,502.1797,560,506.1797,556,502.1797" style="stroke:#181818;stroke-width:1.0;"/><text fill="#000000" font-family="sans-serif" font-size="13" font-weight="bold" lengthAdjust="spacing" textLength="14" x="556" y="476.1475">10</text><text fill="#000000" font-family="sans-serif" font-size="13" lengthAdjust="spacing" textLength="355" x="574" y="467.9717">snsUserList.add(new SNSUser(split[0],split[1],split[2],split[3],</text><text fill="#000000" font-family="sans-serif" font-size="13" lengthAdjust="spacing" textLength="260" x="578" y="484.3232">split[4],format.parse(split[5]),split[6],split[7]));</text><polygon fill="#181818" points="1126,558.5313,1136,562.5313,1126,566.5313,1130,562.5313" style="stroke:#181818;stroke-width:1.0;"/><line style="stroke:#181818;stroke-width:1.0;" x1="945" x2="1132" y1="562.5313" y2="562.5313"/><text fill="#000000" font-family="sans-serif" font-size="13" font-weight="bold" lengthAdjust="spacing" textLength="14" x="952" y="557.6748">11</text><text fill="#000000" font-family="sans-serif" font-size="13" lengthAdjust="spacing" textLength="156" x="970" y="557.6748">store = getSNSUserStore()</text><polygon fill="#181818" points="1231,651.5859,1241,655.5859,1231,659.5859,1235,655.5859" style="stroke:#181818;stroke-width:1.0;"/><line style="stroke:#181818;stroke-width:1.0;" x1="945" x2="1237" y1="655.5859" y2="655.5859"/><text fill="#000000" font-family="sans-serif" font-size="13" font-weight="bold" lengthAdjust="spacing" textLength="14" x="952" y="634.3779">12</text><text fill="#000000" font-family="sans-serif" font-size="13" lengthAdjust="spacing" textLength="257" x="970" y="618.0264">snsu = createSNSUser(name, address, sex,</text><text fill="#000000" font-family="sans-serif" font-size="13" lengthAdjust="spacing" textLength="123" x="974" y="634.3779">phoneNumber, email,</text><text fill="#000000" font-family="sans-serif" font-size="13" lengthAdjust="spacing" textLength="254" x="974" y="650.7295">birthDate, SNSNumber, citizenCardNumber)</text><polygon fill="#181818" points="1491,714.6406,1501,718.6406,1491,722.6406,1495,718.6406" style="stroke:#181818;stroke-width:1.0;"/><line style="stroke:#181818;stroke-width:1.0;" x1="1248" x2="1497" y1="718.6406" y2="718.6406"/><text fill="#000000" font-family="sans-serif" font-size="13" font-weight="bold" lengthAdjust="spacing" textLength="14" x="1255" y="697.4326">13</text><text fill="#000000" font-family="sans-serif" font-size="13" lengthAdjust="spacing" textLength="204" x="1273" y="681.0811">new SNSUser(name, address, sex,</text><text fill="#000000" font-family="sans-serif" font-size="13" lengthAdjust="spacing" textLength="183" x="1277" y="697.4326">phoneNumber, email, birthDate,</text><text fill="#000000" font-family="sans-serif" font-size="13" lengthAdjust="spacing" textLength="194" x="1277" y="713.7842">SNSNumber, citizenCardNumber)</text><rect fill="#E2E2F0" height="49.2188" rx="2.5" ry="2.5" style="stroke:#181818;stroke-width:0.5;" width="67" x="1503" y="666.4219"/><text fill="#000000" font-family="sans-serif" font-size="14" lengthAdjust="spacing" textLength="32" x="1520.5" y="687.9551">user:</text><text fill="#000000" font-family="sans-serif" font-size="14" lengthAdjust="spacing" textLength="53" x="1510" y="705.5645">SnsUser</text><polygon fill="#181818" points="1231,744.9922,1241,748.9922,1231,752.9922,1235,748.9922" style="stroke:#181818;stroke-width:1.0;"/><line style="stroke:#181818;stroke-width:1.0;" x1="945" x2="1237" y1="748.9922" y2="748.9922"/><text fill="#000000" font-family="sans-serif" font-size="13" font-weight="bold" lengthAdjust="spacing" textLength="14" x="952" y="744.1357">14</text><text fill="#000000" font-family="sans-serif" font-size="13" lengthAdjust="spacing" textLength="133" x="970" y="744.1357">validateSNSUser(snsu)</text><polygon fill="#181818" points="928,812.3438,938,816.3438,928,820.3438,932,816.3438" style="stroke:#181818;stroke-width:1.0;"/><line style="stroke:#181818;stroke-width:1.0;" x1="544" x2="934" y1="816.3438" y2="816.3438"/><text fill="#000000" font-family="sans-serif" font-size="13" font-weight="bold" lengthAdjust="spacing" textLength="14" x="551" y="811.4873">15</text><text fill="#000000" font-family="sans-serif" font-size="13" lengthAdjust="spacing" textLength="164" x="569" y="811.4873">saveSNSUsers(snsUserList)</text><path d="M839,861.3438 L912,861.3438 L912,869.6953 L902,879.6953 L839,879.6953 L839,861.3438 " fill="#EEEEEE" style="stroke:#000000;stroke-width:1.5;"/><rect fill="none" height="255.7578" style="stroke:#000000;stroke-width:1.5;" width="842" x="839" y="861.3438"/><text fill="#000000" font-family="sans-serif" font-size="13" font-weight="bold" lengthAdjust="spacing" textLength="28" x="854" y="875.8389">loop</text><polygon fill="#181818" points="1231,898.0469,1241,902.0469,1231,906.0469,1235,902.0469" style="stroke:#181818;stroke-width:1.0;"/><line style="stroke:#181818;stroke-width:1.0;" x1="950" x2="1237" y1="902.0469" y2="902.0469"/><text fill="#000000" font-family="sans-serif" font-size="13" font-weight="bold" lengthAdjust="spacing" textLength="14" x="957" y="897.1904">16</text><text fill="#000000" font-family="sans-serif" font-size="13" lengthAdjust="spacing" textLength="167" x="975" y="897.1904">bool a = saveSNSUser(snsu)</text><polygon fill="#181818" points="1608.5,928.3984,1618.5,932.3984,1608.5,936.3984,1612.5,932.3984" style="stroke:#181818;stroke-width:1.0;"/><line style="stroke:#181818;stroke-width:1.0;" x1="950" x2="1614.5" y1="932.3984" y2="932.3984"/><text fill="#000000" font-family="sans-serif" font-size="13" font-weight="bold" lengthAdjust="spacing" textLength="14" x="957" y="927.542">17</text><text fill="#000000" font-family="sans-serif" font-size="13" lengthAdjust="spacing" textLength="304" x="975" y="927.542">bool b = addUserWithRole(name,email,pwd,"USER")</text><line style="stroke:#181818;stroke-width:1.0;" x1="1258" x2="1300" y1="992.75" y2="992.75"/><line style="stroke:#181818;stroke-width:1.0;" x1="1300" x2="1300" y1="992.75" y2="1005.75"/><line style="stroke:#181818;stroke-width:1.0;" x1="1259" x2="1300" y1="1005.75" y2="1005.75"/><polygon fill="#181818" points="1269,1001.75,1259,1005.75,1269,1009.75,1265,1005.75" style="stroke:#181818;stroke-width:1.0;"/><text fill="#000000" font-family="sans-serif" font-size="13" font-weight="bold" lengthAdjust="spacing" textLength="14" x="1265" y="987.8936">18</text><text fill="#000000" font-family="sans-serif" font-size="13" lengthAdjust="spacing" textLength="133" x="1283" y="987.8936">validateSNSUser(snsu)</text><line style="stroke:#181818;stroke-width:1.0;" x1="1258" x2="1300" y1="1066.1016" y2="1066.1016"/><line style="stroke:#181818;stroke-width:1.0;" x1="1300" x2="1300" y1="1066.1016" y2="1079.1016"/><line style="stroke:#181818;stroke-width:1.0;" x1="1259" x2="1300" y1="1079.1016" y2="1079.1016"/><polygon fill="#181818" points="1269,1075.1016,1259,1079.1016,1269,1083.1016,1265,1079.1016" style="stroke:#181818;stroke-width:1.0;"/><text fill="#000000" font-family="sans-serif" font-size="13" font-weight="bold" lengthAdjust="spacing" textLength="14" x="1265" y="1061.2451">19</text><text fill="#000000" font-family="sans-serif" font-size="13" lengthAdjust="spacing" textLength="84" x="1283" y="1061.2451">addUser(snsu)</text><polygon fill="#181818" points="65.5,1142.4531,55.5,1146.4531,65.5,1150.4531,61.5,1146.4531" style="stroke:#181818;stroke-width:1.0;"/><line style="stroke:#181818;stroke-width:1.0;stroke-dasharray:2.0,2.0;" x1="59.5" x2="355.5" y1="1146.4531" y2="1146.4531"/><text fill="#000000" font-family="sans-serif" font-size="13" font-weight="bold" lengthAdjust="spacing" textLength="14" x="71.5" y="1141.5967">20</text><text fill="#000000" font-family="sans-serif" font-size="13" lengthAdjust="spacing" textLength="152" x="89.5" y="1141.5967">informs operation success</text><!--MD5=[76eb05d1fa1331f2f4ac59c712039b3a]
@startuml
autonumber
'hide footbox
actor "Administrator" as ADM

participant ":\nLoadSNSUserFromFileUI" as UI
participant ":\nLoadSNSUsersFromFile" as FILE
participant ":\nRegisterSnsUserController" as CTRL
participant ":\nCompany" as COMPANY
participant "store:\nSnsUserStore" as STORE
participant "user:\nSnsUser" as USER
participant ":\nAuthFacade" as AUTH



activate ADM
ADM -> UI : starts loading a set of Users through a CSV file
activate UI
UI - -> ADM : requests File Path
deactivate UI

ADM -> UI : types File Path  (CSV file)
activate UI
UI - -> ADM : shows the data and asks for confirmation(Y/N)
deactivate UI
ADM -> UI : confirms the data
activate UI

UI -> FILE : regex = validateFile(file)
activate FILE
FILE -> FILE: checkfileextension(file)
activate FILE

deactivate FILE


deactivate FILE
UI -> FILE : addToList(file, regex)

activate FILE

loop

FILE -> CTRL : createSNSUser(split[0],split[1],split[2],split[3], \n split[4],format.parse(split[5]),split[6],split[7])
activate CTRL
FILE -> FILE : snsUserList.add(new SNSUser(split[0],split[1],split[2],split[3], \n split[4],format.parse(split[5]),split[6],split[7]));
activate FILE
deactivate FILE
deactivate FILE



CTRL -> COMPANY :store = getSNSUserStore()
activate COMPANY
deactivate COMPANY

CTRL -> STORE : snsu = createSNSUser(name, address, sex, \n phoneNumber, email, \n birthDate, SNSNumber, citizenCardNumber)
activate STORE

STORE -> USER** : new SNSUser(name, address, sex, \n phoneNumber, email, birthDate, \n SNSNumber, citizenCardNumber)

deactivate STORE


CTRL -> STORE : validateSNSUser(snsu)
activate STORE




deactivate CTRL



deactivate STORE
deactivate CTRL
end loop



FILE -> CTRL : saveSNSUsers(snsUserList)
activate FILE
deactivate FILE
loop
activate CTRL
activate CTRL
CTRL -> STORE : bool a = saveSNSUser(snsu)
activate STORE

CTRL -> AUTH :  bool b = addUserWithRole(name,email,pwd,"USER")
activate AUTH
deactivate AUTH
deactivate CTRL
STORE -> STORE : validateSNSUser(snsu)
activate STORE
deactivate STORE






STORE -> STORE : addUser(snsu)
activate STORE
deactivate STORE
deactivate STORE
end loop



UI - -> ADM : informs operation success


@enduml

@startuml
autonumber
actor "Administrator" as ADM

participant ":\nLoadSNSUserFromFileUI" as UI
participant ":\nLoadSNSUsersFromFile" as FILE
participant ":\nRegisterSnsUserController" as CTRL
participant ":\nCompany" as COMPANY
participant "store:\nSnsUserStore" as STORE
participant "user:\nSnsUser" as USER
participant ":\nAuthFacade" as AUTH



activate ADM
ADM -> UI : starts loading a set of Users through a CSV file
activate UI
UI - -> ADM : requests File Path
deactivate UI

ADM -> UI : types File Path  (CSV file)
activate UI
UI - -> ADM : shows the data and asks for confirmation(Y/N)
deactivate UI
ADM -> UI : confirms the data
activate UI

UI -> FILE : regex = validateFile(file)
activate FILE
FILE -> FILE: checkfileextension(file)
activate FILE

deactivate FILE


deactivate FILE
UI -> FILE : addToList(file, regex)

activate FILE

loop

FILE -> CTRL : createSNSUser(split[0],split[1],split[2],split[3], \n split[4],format.parse(split[5]),split[6],split[7])
activate CTRL
FILE -> FILE : snsUserList.add(new SNSUser(split[0],split[1],split[2],split[3], \n split[4],format.parse(split[5]),split[6],split[7]));
activate FILE
deactivate FILE
deactivate FILE



CTRL -> COMPANY :store = getSNSUserStore()
activate COMPANY
deactivate COMPANY

CTRL -> STORE : snsu = createSNSUser(name, address, sex, \n phoneNumber, email, \n birthDate, SNSNumber, citizenCardNumber)
activate STORE

STORE -> USER** : new SNSUser(name, address, sex, \n phoneNumber, email, birthDate, \n SNSNumber, citizenCardNumber)

deactivate STORE


CTRL -> STORE : validateSNSUser(snsu)
activate STORE




deactivate CTRL



deactivate STORE
deactivate CTRL
end loop



FILE -> CTRL : saveSNSUsers(snsUserList)
activate FILE
deactivate FILE
loop
activate CTRL
activate CTRL
CTRL -> STORE : bool a = saveSNSUser(snsu)
activate STORE

CTRL -> AUTH :  bool b = addUserWithRole(name,email,pwd,"USER")
activate AUTH
deactivate AUTH
deactivate CTRL
STORE -> STORE : validateSNSUser(snsu)
activate STORE
deactivate STORE






STORE -> STORE : addUser(snsu)
activate STORE
deactivate STORE
deactivate STORE
end loop



UI - -> ADM : informs operation success


@enduml

PlantUML version 1.2022.4(Sat Apr 09 14:29:17 BST 2022)
(GPL source distribution)
Java Runtime: OpenJDK Runtime Environment
JVM: OpenJDK 64-Bit Server VM
Default Encoding: Cp1252
Language: en
Country: US
--></g></svg>