<?xml version="1.0" encoding="UTF-8" standalone="no"?><svg xmlns="http://www.w3.org/2000/svg" xmlns:xlink="http://www.w3.org/1999/xlink" contentStyleType="text/css" height="261px" preserveAspectRatio="none" style="width:1883px;height:261px;background:#FFFFFF;" version="1.1" viewBox="0 0 1883 261" width="1883px" zoomAndPan="magnify"><defs/><g><!--MD5=[385a1f1919be15548c23ed0852de783f]
class LoadSNSUserFromFileUI--><g id="elem_LoadSNSUserFromFileUI"><rect codeLine="7" fill="#F1F1F1" height="32" id="LoadSNSUserFromFileUI" rx="2.5" ry="2.5" style="stroke:#181818;stroke-width:0.5;" width="188" x="7" y="180.5"/><ellipse cx="22" cy="196.5" fill="#ADD1B2" rx="11" ry="11" style="stroke:#181818;stroke-width:1.0;"/><path d="M24,193 Q24.2031,192.5 24.4375,192.25 Q24.6719,192 24.9375,192 Q25.4063,192 25.7031,192.2813 Q26,192.5625 26,193.2188 L26,194.7813 Q26,195.4375 25.7188,195.7188 Q25.4375,196 25,196 Q24.6094,196 24.3594,195.8281 Q24.1094,195.6563 24,195.2031 Q23.9531,194.8906 23.7813,194.7188 Q23.4688,194.3906 22.9063,194.2031 Q22.3438,194 21.7813,194 Q21.0781,194 20.4844,194.2813 Q19.9063,194.5625 19.4531,195.1875 Q19,195.8125 19,196.6719 L19,197.5938 Q19,198.625 19.8438,199.3125 Q20.6875,200 22.1875,200 Q23.0781,200 23.7031,199.7969 Q24.0625,199.6875 24.4688,199.3281 Q24.7344,199.125 24.875,199.0625 Q25.0156,199 25.1875,199 Q25.5156,199 25.75,199.2656 Q26,199.5156 26,199.875 Q26,200.2188 25.6563,200.625 Q25.1563,201.2188 24.3594,201.5469 Q23.3125,202 22.0313,202 Q20.5313,202 19.3281,201.4063 Q18.3594,200.9375 17.6719,199.9219 Q17,198.9063 17,197.7031 L17,196.6094 Q17,195.3594 17.5938,194.2656 Q18.2031,193.1719 19.25,192.5938 Q20.3125,192 21.5,192 Q22.2188,192 22.8438,192.25 Q23.4688,192.5 24,193 Z " fill="#000000"/><text fill="#000000" font-family="sans-serif" font-size="14" lengthAdjust="spacing" textLength="156" x="36" y="202.2285">LoadSNSUserFromFileUI</text></g><!--MD5=[969d9130ced9f17c36b7b7132d0287e8]
class LoadSNSUserFromFile--><g id="elem_LoadSNSUserFromFile"><rect codeLine="10" fill="#F1F1F1" height="110.4375" id="LoadSNSUserFromFile" rx="2.5" ry="2.5" style="stroke:#181818;stroke-width:0.5;" width="304" x="256" y="141.5"/><ellipse cx="331.75" cy="157.5" fill="#ADD1B2" rx="11" ry="11" style="stroke:#181818;stroke-width:1.0;"/><path d="M333.75,154 Q333.9531,153.5 334.1875,153.25 Q334.4219,153 334.6875,153 Q335.1563,153 335.4531,153.2813 Q335.75,153.5625 335.75,154.2188 L335.75,155.7813 Q335.75,156.4375 335.4688,156.7188 Q335.1875,157 334.75,157 Q334.3594,157 334.1094,156.8281 Q333.8594,156.6563 333.75,156.2031 Q333.7031,155.8906 333.5313,155.7188 Q333.2188,155.3906 332.6563,155.2031 Q332.0938,155 331.5313,155 Q330.8281,155 330.2344,155.2813 Q329.6563,155.5625 329.2031,156.1875 Q328.75,156.8125 328.75,157.6719 L328.75,158.5938 Q328.75,159.625 329.5938,160.3125 Q330.4375,161 331.9375,161 Q332.8281,161 333.4531,160.7969 Q333.8125,160.6875 334.2188,160.3281 Q334.4844,160.125 334.625,160.0625 Q334.7656,160 334.9375,160 Q335.2656,160 335.5,160.2656 Q335.75,160.5156 335.75,160.875 Q335.75,161.2188 335.4063,161.625 Q334.9063,162.2188 334.1094,162.5469 Q333.0625,163 331.7813,163 Q330.2813,163 329.0781,162.4063 Q328.1094,161.9375 327.4219,160.9219 Q326.75,159.9063 326.75,158.7031 L326.75,157.6094 Q326.75,156.3594 327.3438,155.2656 Q327.9531,154.1719 329,153.5938 Q330.0625,153 331.25,153 Q331.9688,153 332.5938,153.25 Q333.2188,153.5 333.75,154 Z " fill="#000000"/><text fill="#000000" font-family="sans-serif" font-size="14" lengthAdjust="spacing" textLength="144" x="352.25" y="163.2285">LoadSNSUserFromFile</text><line style="stroke:#181818;stroke-width:0.5;" x1="257" x2="559" y1="173.5" y2="173.5"/><ellipse cx="267" cy="184.5" fill="#84BE84" rx="3" ry="3" style="stroke:#038048;stroke-width:1.0;"/><text fill="#000000" font-family="sans-serif" font-size="14" lengthAdjust="spacing" textLength="202" x="276" y="192.0332">addToList(File file, String regex)</text><ellipse cx="267" cy="202.1094" fill="#84BE84" rx="3" ry="3" style="stroke:#038048;stroke-width:1.0;"/><text fill="#000000" font-family="sans-serif" font-size="14" lengthAdjust="spacing" textLength="278" x="276" y="209.6426">saveSNSUsers (List&lt;SNSUser&gt; snsUserList)</text><ellipse cx="267" cy="219.7188" fill="#84BE84" rx="3" ry="3" style="stroke:#038048;stroke-width:1.0;"/><text fill="#000000" font-family="sans-serif" font-size="14" lengthAdjust="spacing" textLength="127" x="276" y="227.252">validateFile(File file)</text><ellipse cx="267" cy="237.3281" fill="#84BE84" rx="3" ry="3" style="stroke:#038048;stroke-width:1.0;"/><text fill="#000000" font-family="sans-serif" font-size="14" lengthAdjust="spacing" textLength="170" x="276" y="244.8613">checkfileextension(File file)</text></g><!--MD5=[02e4b9b7573f1156f41e60aa5b4e25a4]
class Company--><g id="elem_Company"><rect codeLine="17" fill="#F1F1F1" height="83.2188" id="Company" rx="2.5" ry="2.5" style="stroke:#181818;stroke-width:0.5;" width="146" x="940" y="155"/><ellipse cx="979.3" cy="171" fill="#ADD1B2" rx="11" ry="11" style="stroke:#181818;stroke-width:1.0;"/><path d="M981.3,167.5 Q981.5031,167 981.7375,166.75 Q981.9719,166.5 982.2375,166.5 Q982.7063,166.5 983.0031,166.7813 Q983.3,167.0625 983.3,167.7188 L983.3,169.2813 Q983.3,169.9375 983.0188,170.2188 Q982.7375,170.5 982.3,170.5 Q981.9094,170.5 981.6594,170.3281 Q981.4094,170.1563 981.3,169.7031 Q981.2531,169.3906 981.0813,169.2188 Q980.7688,168.8906 980.2063,168.7031 Q979.6438,168.5 979.0813,168.5 Q978.3781,168.5 977.7844,168.7813 Q977.2063,169.0625 976.7531,169.6875 Q976.3,170.3125 976.3,171.1719 L976.3,172.0938 Q976.3,173.125 977.1438,173.8125 Q977.9875,174.5 979.4875,174.5 Q980.3781,174.5 981.0031,174.2969 Q981.3625,174.1875 981.7688,173.8281 Q982.0344,173.625 982.175,173.5625 Q982.3156,173.5 982.4875,173.5 Q982.8156,173.5 983.05,173.7656 Q983.3,174.0156 983.3,174.375 Q983.3,174.7188 982.9563,175.125 Q982.4563,175.7188 981.6594,176.0469 Q980.6125,176.5 979.3313,176.5 Q977.8313,176.5 976.6281,175.9063 Q975.6594,175.4375 974.9719,174.4219 Q974.3,173.4063 974.3,172.2031 L974.3,171.1094 Q974.3,169.8594 974.8938,168.7656 Q975.5031,167.6719 976.55,167.0938 Q977.6125,166.5 978.8,166.5 Q979.5188,166.5 980.1438,166.75 Q980.7688,167 981.3,167.5 Z " fill="#000000"/><text fill="#000000" font-family="sans-serif" font-size="14" lengthAdjust="spacing" textLength="60" x="998.7" y="176.7285">Company</text><line style="stroke:#181818;stroke-width:0.5;" x1="941" x2="1085" y1="187" y2="187"/><rect fill="none" height="6" style="stroke:#C82930;stroke-width:1.0;" width="6" x="948" y="195"/><text fill="#000000" font-family="sans-serif" font-size="14" lengthAdjust="spacing" textLength="73" x="960" y="205.5332">designation</text><line style="stroke:#181818;stroke-width:0.5;" x1="941" x2="1085" y1="212.6094" y2="212.6094"/><ellipse cx="951" cy="223.6094" fill="#84BE84" rx="3" ry="3" style="stroke:#038048;stroke-width:1.0;"/><text fill="#000000" font-family="sans-serif" font-size="14" lengthAdjust="spacing" textLength="120" x="960" y="231.1426">getSNSUserStore()</text></g><!--MD5=[be89e96fded54ba83d4eaa5710b97d82]
class RegisterSNSUserController--><g id="elem_RegisterSNSUserController"><rect codeLine="24" fill="#F1F1F1" height="110.4375" id="RegisterSNSUserController" rx="2.5" ry="2.5" style="stroke:#181818;stroke-width:0.5;" width="258" x="621" y="141.5"/><ellipse cx="660.75" cy="157.5" fill="#ADD1B2" rx="11" ry="11" style="stroke:#181818;stroke-width:1.0;"/><path d="M662.75,154 Q662.9531,153.5 663.1875,153.25 Q663.4219,153 663.6875,153 Q664.1563,153 664.4531,153.2813 Q664.75,153.5625 664.75,154.2188 L664.75,155.7813 Q664.75,156.4375 664.4688,156.7188 Q664.1875,157 663.75,157 Q663.3594,157 663.1094,156.8281 Q662.8594,156.6563 662.75,156.2031 Q662.7031,155.8906 662.5313,155.7188 Q662.2188,155.3906 661.6563,155.2031 Q661.0938,155 660.5313,155 Q659.8281,155 659.2344,155.2813 Q658.6563,155.5625 658.2031,156.1875 Q657.75,156.8125 657.75,157.6719 L657.75,158.5938 Q657.75,159.625 658.5938,160.3125 Q659.4375,161 660.9375,161 Q661.8281,161 662.4531,160.7969 Q662.8125,160.6875 663.2188,160.3281 Q663.4844,160.125 663.625,160.0625 Q663.7656,160 663.9375,160 Q664.2656,160 664.5,160.2656 Q664.75,160.5156 664.75,160.875 Q664.75,161.2188 664.4063,161.625 Q663.9063,162.2188 663.1094,162.5469 Q662.0625,163 660.7813,163 Q659.2813,163 658.0781,162.4063 Q657.1094,161.9375 656.4219,160.9219 Q655.75,159.9063 655.75,158.7031 L655.75,157.6094 Q655.75,156.3594 656.3438,155.2656 Q656.9531,154.1719 658,153.5938 Q659.0625,153 660.25,153 Q660.9688,153 661.5938,153.25 Q662.2188,153.5 662.75,154 Z " fill="#000000"/><text fill="#000000" font-family="sans-serif" font-size="14" lengthAdjust="spacing" textLength="171" x="680.25" y="163.2285">RegisterSNSUserController</text><line style="stroke:#181818;stroke-width:0.5;" x1="622" x2="878" y1="173.5" y2="173.5"/><ellipse cx="632" cy="184.5" fill="#84BE84" rx="3" ry="3" style="stroke:#038048;stroke-width:1.0;"/><text fill="#000000" font-family="sans-serif" font-size="14" lengthAdjust="spacing" textLength="228" x="641" y="192.0332">createSNSUser(name, address, sex,</text><text fill="#000000" font-family="sans-serif" font-size="14" lengthAdjust="spacing" textLength="200" x="645" y="209.6426">phoneNumber, email, birthDate,</text><text fill="#000000" font-family="sans-serif" font-size="14" lengthAdjust="spacing" textLength="208" x="645" y="227.252">SNSNumber, citizenCardNumber)</text><ellipse cx="632" cy="237.3281" fill="#84BE84" rx="3" ry="3" style="stroke:#038048;stroke-width:1.0;"/><text fill="#000000" font-family="sans-serif" font-size="14" lengthAdjust="spacing" textLength="96" x="641" y="244.8613">saveSNSUser()</text></g><!--MD5=[72be06cc7ae02ccc98efe28a50e62246]
class SNSUser--><g id="elem_SNSUser"><rect codeLine="29" fill="#F1F1F1" height="180.875" id="SNSUser" rx="2.5" ry="2.5" style="stroke:#181818;stroke-width:0.5;" width="145" x="1731" y="7"/><ellipse cx="1771.65" cy="23" fill="#ADD1B2" rx="11" ry="11" style="stroke:#181818;stroke-width:1.0;"/><path d="M1773.65,19.5 Q1773.8531,19 1774.0875,18.75 Q1774.3219,18.5 1774.5875,18.5 Q1775.0563,18.5 1775.3531,18.7813 Q1775.65,19.0625 1775.65,19.7188 L1775.65,21.2813 Q1775.65,21.9375 1775.3688,22.2188 Q1775.0875,22.5 1774.65,22.5 Q1774.2594,22.5 1774.0094,22.3281 Q1773.7594,22.1563 1773.65,21.7031 Q1773.6031,21.3906 1773.4313,21.2188 Q1773.1188,20.8906 1772.5563,20.7031 Q1771.9938,20.5 1771.4313,20.5 Q1770.7281,20.5 1770.1344,20.7813 Q1769.5563,21.0625 1769.1031,21.6875 Q1768.65,22.3125 1768.65,23.1719 L1768.65,24.0938 Q1768.65,25.125 1769.4938,25.8125 Q1770.3375,26.5 1771.8375,26.5 Q1772.7281,26.5 1773.3531,26.2969 Q1773.7125,26.1875 1774.1188,25.8281 Q1774.3844,25.625 1774.525,25.5625 Q1774.6656,25.5 1774.8375,25.5 Q1775.1656,25.5 1775.4,25.7656 Q1775.65,26.0156 1775.65,26.375 Q1775.65,26.7188 1775.3063,27.125 Q1774.8063,27.7188 1774.0094,28.0469 Q1772.9625,28.5 1771.6813,28.5 Q1770.1813,28.5 1768.9781,27.9063 Q1768.0094,27.4375 1767.3219,26.4219 Q1766.65,25.4063 1766.65,24.2031 L1766.65,23.1094 Q1766.65,21.8594 1767.2438,20.7656 Q1767.8531,19.6719 1768.9,19.0938 Q1769.9625,18.5 1771.15,18.5 Q1771.8688,18.5 1772.4938,18.75 Q1773.1188,19 1773.65,19.5 Z " fill="#000000"/><text fill="#000000" font-family="sans-serif" font-size="14" lengthAdjust="spacing" textLength="56" x="1791.35" y="28.7285">SNSUser</text><line style="stroke:#181818;stroke-width:0.5;" x1="1732" x2="1875" y1="39" y2="39"/><rect fill="none" height="6" style="stroke:#C82930;stroke-width:1.0;" width="6" x="1739" y="47"/><text fill="#000000" font-family="sans-serif" font-size="14" lengthAdjust="spacing" textLength="35" x="1751" y="57.5332">name</text><rect fill="none" height="6" style="stroke:#C82930;stroke-width:1.0;" width="6" x="1739" y="64.6094"/><text fill="#000000" font-family="sans-serif" font-size="14" lengthAdjust="spacing" textLength="51" x="1751" y="75.1426">address</text><rect fill="none" height="6" style="stroke:#C82930;stroke-width:1.0;" width="6" x="1739" y="82.2188"/><text fill="#000000" font-family="sans-serif" font-size="14" lengthAdjust="spacing" textLength="21" x="1751" y="92.752">sex</text><rect fill="none" height="6" style="stroke:#C82930;stroke-width:1.0;" width="6" x="1739" y="99.8281"/><text fill="#000000" font-family="sans-serif" font-size="14" lengthAdjust="spacing" textLength="89" x="1751" y="110.3613">phoneNumber</text><rect fill="none" height="6" style="stroke:#C82930;stroke-width:1.0;" width="6" x="1739" y="117.4375"/><text fill="#000000" font-family="sans-serif" font-size="14" lengthAdjust="spacing" textLength="33" x="1751" y="127.9707">email</text><rect fill="none" height="6" style="stroke:#C82930;stroke-width:1.0;" width="6" x="1739" y="135.0469"/><text fill="#000000" font-family="sans-serif" font-size="14" lengthAdjust="spacing" textLength="58" x="1751" y="145.5801">birthDate</text><rect fill="none" height="6" style="stroke:#C82930;stroke-width:1.0;" width="6" x="1739" y="152.6563"/><text fill="#000000" font-family="sans-serif" font-size="14" lengthAdjust="spacing" textLength="76" x="1751" y="163.1895">SNSNumber</text><rect fill="none" height="6" style="stroke:#C82930;stroke-width:1.0;" width="6" x="1739" y="170.2656"/><text fill="#000000" font-family="sans-serif" font-size="14" lengthAdjust="spacing" textLength="119" x="1751" y="180.7988">citizenCardNumber</text></g><!--MD5=[a5ad3856b0c65e07b10297b4477b22bb]
class SNSUserStore--><g id="elem_SNSUserStore"><rect codeLine="40" fill="#F1F1F1" height="128.0469" id="SNSUserStore" rx="2.5" ry="2.5" style="stroke:#181818;stroke-width:0.5;" width="258" x="1339" y="33.5"/><ellipse cx="1418.75" cy="49.5" fill="#ADD1B2" rx="11" ry="11" style="stroke:#181818;stroke-width:1.0;"/><path d="M1420.75,46 Q1420.9531,45.5 1421.1875,45.25 Q1421.4219,45 1421.6875,45 Q1422.1563,45 1422.4531,45.2813 Q1422.75,45.5625 1422.75,46.2188 L1422.75,47.7813 Q1422.75,48.4375 1422.4688,48.7188 Q1422.1875,49 1421.75,49 Q1421.3594,49 1421.1094,48.8281 Q1420.8594,48.6563 1420.75,48.2031 Q1420.7031,47.8906 1420.5313,47.7188 Q1420.2188,47.3906 1419.6563,47.2031 Q1419.0938,47 1418.5313,47 Q1417.8281,47 1417.2344,47.2813 Q1416.6563,47.5625 1416.2031,48.1875 Q1415.75,48.8125 1415.75,49.6719 L1415.75,50.5938 Q1415.75,51.625 1416.5938,52.3125 Q1417.4375,53 1418.9375,53 Q1419.8281,53 1420.4531,52.7969 Q1420.8125,52.6875 1421.2188,52.3281 Q1421.4844,52.125 1421.625,52.0625 Q1421.7656,52 1421.9375,52 Q1422.2656,52 1422.5,52.2656 Q1422.75,52.5156 1422.75,52.875 Q1422.75,53.2188 1422.4063,53.625 Q1421.9063,54.2188 1421.1094,54.5469 Q1420.0625,55 1418.7813,55 Q1417.2813,55 1416.0781,54.4063 Q1415.1094,53.9375 1414.4219,52.9219 Q1413.75,51.9063 1413.75,50.7031 L1413.75,49.6094 Q1413.75,48.3594 1414.3438,47.2656 Q1414.9531,46.1719 1416,45.5938 Q1417.0625,45 1418.25,45 Q1418.9688,45 1419.5938,45.25 Q1420.2188,45.5 1420.75,46 Z " fill="#000000"/><text fill="#000000" font-family="sans-serif" font-size="14" lengthAdjust="spacing" textLength="90" x="1439.25" y="55.2285">SNSUserStore</text><line style="stroke:#181818;stroke-width:0.5;" x1="1340" x2="1596" y1="65.5" y2="65.5"/><ellipse cx="1350" cy="76.5" fill="#84BE84" rx="3" ry="3" style="stroke:#038048;stroke-width:1.0;"/><text fill="#000000" font-family="sans-serif" font-size="14" lengthAdjust="spacing" textLength="205" x="1359" y="84.0332">validateSNSUser(SNSUser snsu)</text><ellipse cx="1350" cy="94.1094" fill="#84BE84" rx="3" ry="3" style="stroke:#038048;stroke-width:1.0;"/><text fill="#000000" font-family="sans-serif" font-size="14" lengthAdjust="spacing" textLength="180" x="1359" y="101.6426">addSNSUser(SNSUser snsu)</text><ellipse cx="1350" cy="111.7188" fill="#84BE84" rx="3" ry="3" style="stroke:#038048;stroke-width:1.0;"/><text fill="#000000" font-family="sans-serif" font-size="14" lengthAdjust="spacing" textLength="228" x="1359" y="119.252">createSNSUser(name, address, sex,</text><text fill="#000000" font-family="sans-serif" font-size="14" lengthAdjust="spacing" textLength="200" x="1363" y="136.8613">phoneNumber, email, birthDate,</text><text fill="#000000" font-family="sans-serif" font-size="14" lengthAdjust="spacing" textLength="208" x="1363" y="154.4707">SNSNumber, citizenCardNumber)</text></g><!--MD5=[8ae808d068a8995f06b9b3ec51357f0b]
class AuthFacade--><g id="elem_AuthFacade"><rect codeLine="46" fill="#F1F1F1" height="57.6094" id="AuthFacade" rx="2.5" ry="2.5" style="stroke:#181818;stroke-width:0.5;" width="334" x="1301" y="196.5"/><ellipse cx="1425.25" cy="212.5" fill="#ADD1B2" rx="11" ry="11" style="stroke:#181818;stroke-width:1.0;"/><path d="M1427.25,209 Q1427.4531,208.5 1427.6875,208.25 Q1427.9219,208 1428.1875,208 Q1428.6563,208 1428.9531,208.2813 Q1429.25,208.5625 1429.25,209.2188 L1429.25,210.7813 Q1429.25,211.4375 1428.9688,211.7188 Q1428.6875,212 1428.25,212 Q1427.8594,212 1427.6094,211.8281 Q1427.3594,211.6563 1427.25,211.2031 Q1427.2031,210.8906 1427.0313,210.7188 Q1426.7188,210.3906 1426.1563,210.2031 Q1425.5938,210 1425.0313,210 Q1424.3281,210 1423.7344,210.2813 Q1423.1563,210.5625 1422.7031,211.1875 Q1422.25,211.8125 1422.25,212.6719 L1422.25,213.5938 Q1422.25,214.625 1423.0938,215.3125 Q1423.9375,216 1425.4375,216 Q1426.3281,216 1426.9531,215.7969 Q1427.3125,215.6875 1427.7188,215.3281 Q1427.9844,215.125 1428.125,215.0625 Q1428.2656,215 1428.4375,215 Q1428.7656,215 1429,215.2656 Q1429.25,215.5156 1429.25,215.875 Q1429.25,216.2188 1428.9063,216.625 Q1428.4063,217.2188 1427.6094,217.5469 Q1426.5625,218 1425.2813,218 Q1423.7813,218 1422.5781,217.4063 Q1421.6094,216.9375 1420.9219,215.9219 Q1420.25,214.9063 1420.25,213.7031 L1420.25,212.6094 Q1420.25,211.3594 1420.8438,210.2656 Q1421.4531,209.1719 1422.5,208.5938 Q1423.5625,208 1424.75,208 Q1425.4688,208 1426.0938,208.25 Q1426.7188,208.5 1427.25,209 Z " fill="#000000"/><text fill="#000000" font-family="sans-serif" font-size="14" lengthAdjust="spacing" textLength="77" x="1445.75" y="218.2285">AuthFacade</text><line style="stroke:#181818;stroke-width:0.5;" x1="1302" x2="1634" y1="228.5" y2="228.5"/><ellipse cx="1312" cy="239.5" fill="#84BE84" rx="3" ry="3" style="stroke:#038048;stroke-width:1.0;"/><text fill="#000000" font-family="sans-serif" font-size="14" lengthAdjust="spacing" textLength="308" x="1321" y="247.0332">addUserWithRole(name,e-mail,pwd,"SNS USER")</text></g><!--MD5=[2cbf424a53c52becdbe85f421e73fefb]
link LoadSNSUserFromFileUI to LoadSNSUserFromFile--><g id="link_LoadSNSUserFromFileUI_LoadSNSUserFromFile"><path codeLine="50" d="M195.17,196.5 C212.78,196.5 231.65,196.5 250.59,196.5 " fill="none" id="LoadSNSUserFromFileUI-to-LoadSNSUserFromFile" style="stroke:#181818;stroke-width:1.0;stroke-dasharray:7.0,7.0;"/><polygon fill="#181818" points="255.94,196.5,246.94,192.5,250.94,196.5,246.94,200.5,255.94,196.5" style="stroke:#181818;stroke-width:1.0;"/></g><!--MD5=[4685ff294c1f8d027e79e51583c8639e]
link LoadSNSUserFromFile to RegisterSNSUserController--><g id="link_LoadSNSUserFromFile_RegisterSNSUserController"><path codeLine="51" d="M560.11,196.5 C578.67,196.5 597.54,196.5 615.81,196.5 " fill="none" id="LoadSNSUserFromFile-to-RegisterSNSUserController" style="stroke:#181818;stroke-width:1.0;stroke-dasharray:7.0,7.0;"/><polygon fill="#181818" points="620.94,196.5,611.94,192.5,615.94,196.5,611.94,200.5,620.94,196.5" style="stroke:#181818;stroke-width:1.0;"/></g><!--MD5=[438f3eafa26f7112fe5a933ad6336f95]
link RegisterSNSUserController to Company--><g id="link_RegisterSNSUserController_Company"><path codeLine="52" d="M879.21,196.5 C898.13,196.5 917.12,196.5 934.59,196.5 " fill="none" id="RegisterSNSUserController-to-Company" style="stroke:#181818;stroke-width:1.0;stroke-dasharray:7.0,7.0;"/><polygon fill="#181818" points="939.95,196.5,930.95,192.5,934.95,196.5,930.95,200.5,939.95,196.5" style="stroke:#181818;stroke-width:1.0;"/></g><!--MD5=[1bd9080c7e199931e49bc5a1616681ac]
link Company to SNSUserStore--><g id="link_Company_SNSUserStore"><path codeLine="53" d="M1086.03,180.76 C1152.35,166.26 1252.42,144.4 1333.35,126.71 " fill="none" id="Company-to-SNSUserStore" style="stroke:#181818;stroke-width:1.0;"/><polygon fill="#181818" points="1338.66,125.55,1329.0121,123.5707,1333.7761,126.621,1330.7257,131.385,1338.66,125.55" style="stroke:#181818;stroke-width:1.0;"/><polygon fill="#000000" points="1181.8847,130.6083,1172.4207,129.6683,1173.6757,135.4106,1181.8847,130.6083" style="stroke:#000000;stroke-width:1.0;"/><text fill="#000000" font-family="sans-serif" font-size="13" lengthAdjust="spacing" textLength="28" x="1186" y="136.9951">uses</text><text fill="#000000" font-family="sans-serif" font-size="13" lengthAdjust="spacing" textLength="7" x="1093.9222" y="193.4638">1</text><text fill="#000000" font-family="sans-serif" font-size="13" lengthAdjust="spacing" textLength="7" x="1323.9802" y="141.1381">1</text></g><!--MD5=[b01d27099955aced792f1ce85db49798]
link SNSUserStore to SNSUser--><g id="link_SNSUserStore_SNSUser"><path codeLine="54" d="M1597.46,97.5 C1640.66,97.5 1687.49,97.5 1725.47,97.5 " fill="none" id="SNSUserStore-to-SNSUser" style="stroke:#181818;stroke-width:1.0;"/><polygon fill="#181818" points="1730.53,97.5,1721.53,93.5,1725.53,97.5,1721.53,101.5,1730.53,97.5" style="stroke:#181818;stroke-width:1.0;"/><polygon fill="#000000" points="1675,88.6758,1665.9549,85.7369,1665.9549,91.6147,1675,88.6758" style="stroke:#000000;stroke-width:1.0;"/><text fill="#000000" font-family="sans-serif" font-size="13" lengthAdjust="spacing" textLength="21" x="1679" y="93.9951">has</text><text fill="#000000" font-family="sans-serif" font-size="13" lengthAdjust="spacing" textLength="7" x="1605.1468" y="111.4664">1</text><text fill="#000000" font-family="sans-serif" font-size="13" lengthAdjust="spacing" textLength="5" x="1718.1009" y="111.8061">*</text></g><!--MD5=[717d4b03d3c4372f4eafe5e342a0a7dd]
link Company to AuthFacade--><g id="link_Company_AuthFacade"><path codeLine="55" d="M1086.03,201.11 C1142.34,204.72 1222.99,209.88 1295.6,214.53 " fill="none" id="Company-to-AuthFacade" style="stroke:#181818;stroke-width:1.0;"/><polygon fill="#181818" points="1300.81,214.86,1292.0787,210.3033,1295.8198,214.5463,1291.5768,218.2875,1300.81,214.86" style="stroke:#181818;stroke-width:1.0;"/><polygon fill="#000000" points="1125.9898,194.9953,1117.151,191.4844,1116.7754,197.3502,1125.9898,194.9953" style="stroke:#000000;stroke-width:1.0;"/><text fill="#000000" font-family="sans-serif" font-size="13" lengthAdjust="spacing" textLength="140" x="1130" y="199.9951">registers SNSUsers into</text></g><!--MD5=[a3eec1923702fd5c1f6bc13679682b7b]
@startuml
'https://plantuml.com/class-diagram

hide empty members
left to right direction


class LoadSNSUserFromFileUI{
}

class LoadSNSUserFromFile{
+addToList(File file, String regex)
+saveSNSUsers (List<SNSUser> snsUserList)
+validateFile(File file)
+checkfileextension(File file)
}

class Company {
- designation
+ getSNSUserStore()
}



class RegisterSNSUserController {
+ createSNSUser(name, address, sex, \n phoneNumber, email, birthDate, \n SNSNumber, citizenCardNumber)
+ saveSNSUser()
}

class SNSUser {
-name
-address
-sex
-phoneNumber
-email
-birthDate
-SNSNumber
-citizenCardNumber
}

class SNSUserStore {
+ validateSNSUser(SNSUser snsu)
+ addSNSUser(SNSUser snsu)
+ createSNSUser(name, address, sex, \n phoneNumber, email, birthDate, \n SNSNumber, citizenCardNumber)
}

class AuthFacade{
+ addUserWithRole(name,e-mail,pwd,"SNS USER")
}

LoadSNSUserFromFileUI ..> LoadSNSUserFromFile
LoadSNSUserFromFile ..> RegisterSNSUserController
RegisterSNSUserController ..> Company
Company "1" - -> "1" SNSUserStore: uses >
SNSUserStore "1" - -> "*" SNSUser: has >
Company - -> AuthFacade : registers SNSUsers into >
@enduml

@startuml

hide empty members
left to right direction


class LoadSNSUserFromFileUI{
}

class LoadSNSUserFromFile{
+addToList(File file, String regex)
+saveSNSUsers (List<SNSUser> snsUserList)
+validateFile(File file)
+checkfileextension(File file)
}

class Company {
- designation
+ getSNSUserStore()
}



class RegisterSNSUserController {
+ createSNSUser(name, address, sex, \n phoneNumber, email, birthDate, \n SNSNumber, citizenCardNumber)
+ saveSNSUser()
}

class SNSUser {
-name
-address
-sex
-phoneNumber
-email
-birthDate
-SNSNumber
-citizenCardNumber
}

class SNSUserStore {
+ validateSNSUser(SNSUser snsu)
+ addSNSUser(SNSUser snsu)
+ createSNSUser(name, address, sex, \n phoneNumber, email, birthDate, \n SNSNumber, citizenCardNumber)
}

class AuthFacade{
+ addUserWithRole(name,e-mail,pwd,"SNS USER")
}

LoadSNSUserFromFileUI ..> LoadSNSUserFromFile
LoadSNSUserFromFile ..> RegisterSNSUserController
RegisterSNSUserController ..> Company
Company "1" - -> "1" SNSUserStore: uses >
SNSUserStore "1" - -> "*" SNSUser: has >
Company - -> AuthFacade : registers SNSUsers into >
@enduml

PlantUML version 1.2022.4(Sat Apr 09 14:29:17 BST 2022)
(GPL source distribution)
Java Runtime: OpenJDK Runtime Environment
JVM: OpenJDK 64-Bit Server VM
Default Encoding: Cp1252
Language: en
Country: US
--></g></svg>