<?xml version="1.0" encoding="UTF-8" standalone="no"?><svg xmlns="http://www.w3.org/2000/svg" xmlns:xlink="http://www.w3.org/1999/xlink" contentStyleType="text/css" height="261px" preserveAspectRatio="none" style="width:1818px;height:261px;background:#FFFFFF;" version="1.1" viewBox="0 0 1818 261" width="1818px" zoomAndPan="magnify"><defs/><g><!--MD5=[385a1f1919be15548c23ed0852de783f]
class LoadSNSUserFromFileUI--><g id="elem_LoadSNSUserFromFileUI"><rect codeLine="7" fill="#F1F1F1" height="32" id="LoadSNSUserFromFileUI" rx="2.5" ry="2.5" style="stroke:#181818;stroke-width:0.5;" width="188" x="7" y="180.5"/><ellipse cx="22" cy="196.5" fill="#ADD1B2" rx="11" ry="11" style="stroke:#181818;stroke-width:1.0;"/><path d="M24,193 Q24.2031,192.5 24.4375,192.25 Q24.6719,192 24.9375,192 Q25.4063,192 25.7031,192.2813 Q26,192.5625 26,193.2188 L26,194.7813 Q26,195.4375 25.7188,195.7188 Q25.4375,196 25,196 Q24.6094,196 24.3594,195.8281 Q24.1094,195.6563 24,195.2031 Q23.9531,194.8906 23.7813,194.7188 Q23.4688,194.3906 22.9063,194.2031 Q22.3438,194 21.7813,194 Q21.0781,194 20.4844,194.2813 Q19.9063,194.5625 19.4531,195.1875 Q19,195.8125 19,196.6719 L19,197.5938 Q19,198.625 19.8438,199.3125 Q20.6875,200 22.1875,200 Q23.0781,200 23.7031,199.7969 Q24.0625,199.6875 24.4688,199.3281 Q24.7344,199.125 24.875,199.0625 Q25.0156,199 25.1875,199 Q25.5156,199 25.75,199.2656 Q26,199.5156 26,199.875 Q26,200.2188 25.6563,200.625 Q25.1563,201.2188 24.3594,201.5469 Q23.3125,202 22.0313,202 Q20.5313,202 19.3281,201.4063 Q18.3594,200.9375 17.6719,199.9219 Q17,198.9063 17,197.7031 L17,196.6094 Q17,195.3594 17.5938,194.2656 Q18.2031,193.1719 19.25,192.5938 Q20.3125,192 21.5,192 Q22.2188,192 22.8438,192.25 Q23.4688,192.5 24,193 Z " fill="#000000"/><text fill="#000000" font-family="sans-serif" font-size="14" lengthAdjust="spacing" textLength="156" x="36" y="202.2285">LoadSNSUserFromFileUI</text></g><!--MD5=[969d9130ced9f17c36b7b7132d0287e8]
class LoadSNSUserFromFile--><g id="elem_LoadSNSUserFromFile"><rect codeLine="10" fill="#F1F1F1" height="57.6094" id="LoadSNSUserFromFile" rx="2.5" ry="2.5" style="stroke:#181818;stroke-width:0.5;" width="239" x="256" y="167.5"/><ellipse cx="299.35" cy="183.5" fill="#ADD1B2" rx="11" ry="11" style="stroke:#181818;stroke-width:1.0;"/><path d="M301.35,180 Q301.5531,179.5 301.7875,179.25 Q302.0219,179 302.2875,179 Q302.7563,179 303.0531,179.2813 Q303.35,179.5625 303.35,180.2188 L303.35,181.7813 Q303.35,182.4375 303.0688,182.7188 Q302.7875,183 302.35,183 Q301.9594,183 301.7094,182.8281 Q301.4594,182.6563 301.35,182.2031 Q301.3031,181.8906 301.1313,181.7188 Q300.8188,181.3906 300.2563,181.2031 Q299.6938,181 299.1313,181 Q298.4281,181 297.8344,181.2813 Q297.2563,181.5625 296.8031,182.1875 Q296.35,182.8125 296.35,183.6719 L296.35,184.5938 Q296.35,185.625 297.1938,186.3125 Q298.0375,187 299.5375,187 Q300.4281,187 301.0531,186.7969 Q301.4125,186.6875 301.8188,186.3281 Q302.0844,186.125 302.225,186.0625 Q302.3656,186 302.5375,186 Q302.8656,186 303.1,186.2656 Q303.35,186.5156 303.35,186.875 Q303.35,187.2188 303.0063,187.625 Q302.5063,188.2188 301.7094,188.5469 Q300.6625,189 299.3813,189 Q297.8813,189 296.6781,188.4063 Q295.7094,187.9375 295.0219,186.9219 Q294.35,185.9063 294.35,184.7031 L294.35,183.6094 Q294.35,182.3594 294.9438,181.2656 Q295.5531,180.1719 296.6,179.5938 Q297.6625,179 298.85,179 Q299.5688,179 300.1938,179.25 Q300.8188,179.5 301.35,180 Z " fill="#000000"/><text fill="#000000" font-family="sans-serif" font-size="14" lengthAdjust="spacing" textLength="144" x="319.65" y="189.2285">LoadSNSUserFromFile</text><line style="stroke:#181818;stroke-width:0.5;" x1="257" x2="494" y1="199.5" y2="199.5"/><ellipse cx="267" cy="210.5" fill="#84BE84" rx="3" ry="3" style="stroke:#038048;stroke-width:1.0;"/><text fill="#000000" font-family="sans-serif" font-size="14" lengthAdjust="spacing" textLength="213" x="276" y="218.0332">LoadOption(File file, String regex)</text></g><!--MD5=[02e4b9b7573f1156f41e60aa5b4e25a4]
class Company--><g id="elem_Company"><rect codeLine="14" fill="#F1F1F1" height="83.2188" id="Company" rx="2.5" ry="2.5" style="stroke:#181818;stroke-width:0.5;" width="146" x="875" y="155"/><ellipse cx="914.3" cy="171" fill="#ADD1B2" rx="11" ry="11" style="stroke:#181818;stroke-width:1.0;"/><path d="M916.3,167.5 Q916.5031,167 916.7375,166.75 Q916.9719,166.5 917.2375,166.5 Q917.7063,166.5 918.0031,166.7813 Q918.3,167.0625 918.3,167.7188 L918.3,169.2813 Q918.3,169.9375 918.0188,170.2188 Q917.7375,170.5 917.3,170.5 Q916.9094,170.5 916.6594,170.3281 Q916.4094,170.1563 916.3,169.7031 Q916.2531,169.3906 916.0813,169.2188 Q915.7688,168.8906 915.2063,168.7031 Q914.6438,168.5 914.0813,168.5 Q913.3781,168.5 912.7844,168.7813 Q912.2063,169.0625 911.7531,169.6875 Q911.3,170.3125 911.3,171.1719 L911.3,172.0938 Q911.3,173.125 912.1438,173.8125 Q912.9875,174.5 914.4875,174.5 Q915.3781,174.5 916.0031,174.2969 Q916.3625,174.1875 916.7688,173.8281 Q917.0344,173.625 917.175,173.5625 Q917.3156,173.5 917.4875,173.5 Q917.8156,173.5 918.05,173.7656 Q918.3,174.0156 918.3,174.375 Q918.3,174.7188 917.9563,175.125 Q917.4563,175.7188 916.6594,176.0469 Q915.6125,176.5 914.3313,176.5 Q912.8313,176.5 911.6281,175.9063 Q910.6594,175.4375 909.9719,174.4219 Q909.3,173.4063 909.3,172.2031 L909.3,171.1094 Q909.3,169.8594 909.8938,168.7656 Q910.5031,167.6719 911.55,167.0938 Q912.6125,166.5 913.8,166.5 Q914.5188,166.5 915.1438,166.75 Q915.7688,167 916.3,167.5 Z " fill="#000000"/><text fill="#000000" font-family="sans-serif" font-size="14" lengthAdjust="spacing" textLength="60" x="933.7" y="176.7285">Company</text><line style="stroke:#181818;stroke-width:0.5;" x1="876" x2="1020" y1="187" y2="187"/><rect fill="none" height="6" style="stroke:#C82930;stroke-width:1.0;" width="6" x="883" y="195"/><text fill="#000000" font-family="sans-serif" font-size="14" lengthAdjust="spacing" textLength="73" x="895" y="205.5332">designation</text><line style="stroke:#181818;stroke-width:0.5;" x1="876" x2="1020" y1="212.6094" y2="212.6094"/><ellipse cx="886" cy="223.6094" fill="#84BE84" rx="3" ry="3" style="stroke:#038048;stroke-width:1.0;"/><text fill="#000000" font-family="sans-serif" font-size="14" lengthAdjust="spacing" textLength="120" x="895" y="231.1426">getSNSUserStore()</text></g><!--MD5=[be89e96fded54ba83d4eaa5710b97d82]
class RegisterSNSUserController--><g id="elem_RegisterSNSUserController"><rect codeLine="21" fill="#F1F1F1" height="110.4375" id="RegisterSNSUserController" rx="2.5" ry="2.5" style="stroke:#181818;stroke-width:0.5;" width="258" x="556" y="141.5"/><ellipse cx="595.75" cy="157.5" fill="#ADD1B2" rx="11" ry="11" style="stroke:#181818;stroke-width:1.0;"/><path d="M597.75,154 Q597.9531,153.5 598.1875,153.25 Q598.4219,153 598.6875,153 Q599.1563,153 599.4531,153.2813 Q599.75,153.5625 599.75,154.2188 L599.75,155.7813 Q599.75,156.4375 599.4688,156.7188 Q599.1875,157 598.75,157 Q598.3594,157 598.1094,156.8281 Q597.8594,156.6563 597.75,156.2031 Q597.7031,155.8906 597.5313,155.7188 Q597.2188,155.3906 596.6563,155.2031 Q596.0938,155 595.5313,155 Q594.8281,155 594.2344,155.2813 Q593.6563,155.5625 593.2031,156.1875 Q592.75,156.8125 592.75,157.6719 L592.75,158.5938 Q592.75,159.625 593.5938,160.3125 Q594.4375,161 595.9375,161 Q596.8281,161 597.4531,160.7969 Q597.8125,160.6875 598.2188,160.3281 Q598.4844,160.125 598.625,160.0625 Q598.7656,160 598.9375,160 Q599.2656,160 599.5,160.2656 Q599.75,160.5156 599.75,160.875 Q599.75,161.2188 599.4063,161.625 Q598.9063,162.2188 598.1094,162.5469 Q597.0625,163 595.7813,163 Q594.2813,163 593.0781,162.4063 Q592.1094,161.9375 591.4219,160.9219 Q590.75,159.9063 590.75,158.7031 L590.75,157.6094 Q590.75,156.3594 591.3438,155.2656 Q591.9531,154.1719 593,153.5938 Q594.0625,153 595.25,153 Q595.9688,153 596.5938,153.25 Q597.2188,153.5 597.75,154 Z " fill="#000000"/><text fill="#000000" font-family="sans-serif" font-size="14" lengthAdjust="spacing" textLength="171" x="615.25" y="163.2285">RegisterSNSUserController</text><line style="stroke:#181818;stroke-width:0.5;" x1="557" x2="813" y1="173.5" y2="173.5"/><ellipse cx="567" cy="184.5" fill="#84BE84" rx="3" ry="3" style="stroke:#038048;stroke-width:1.0;"/><text fill="#000000" font-family="sans-serif" font-size="14" lengthAdjust="spacing" textLength="228" x="576" y="192.0332">createSNSUser(name, address, sex,</text><text fill="#000000" font-family="sans-serif" font-size="14" lengthAdjust="spacing" textLength="200" x="580" y="209.6426">phoneNumber, email, birthDate,</text><text fill="#000000" font-family="sans-serif" font-size="14" lengthAdjust="spacing" textLength="208" x="580" y="227.252">SNSNumber, citizenCardNumber)</text><ellipse cx="567" cy="237.3281" fill="#84BE84" rx="3" ry="3" style="stroke:#038048;stroke-width:1.0;"/><text fill="#000000" font-family="sans-serif" font-size="14" lengthAdjust="spacing" textLength="96" x="576" y="244.8613">saveSNSUser()</text></g><!--MD5=[72be06cc7ae02ccc98efe28a50e62246]
class SNSUser--><g id="elem_SNSUser"><rect codeLine="26" fill="#F1F1F1" height="180.875" id="SNSUser" rx="2.5" ry="2.5" style="stroke:#181818;stroke-width:0.5;" width="145" x="1666" y="7"/><ellipse cx="1706.65" cy="23" fill="#ADD1B2" rx="11" ry="11" style="stroke:#181818;stroke-width:1.0;"/><path d="M1708.65,19.5 Q1708.8531,19 1709.0875,18.75 Q1709.3219,18.5 1709.5875,18.5 Q1710.0563,18.5 1710.3531,18.7813 Q1710.65,19.0625 1710.65,19.7188 L1710.65,21.2813 Q1710.65,21.9375 1710.3688,22.2188 Q1710.0875,22.5 1709.65,22.5 Q1709.2594,22.5 1709.0094,22.3281 Q1708.7594,22.1563 1708.65,21.7031 Q1708.6031,21.3906 1708.4313,21.2188 Q1708.1188,20.8906 1707.5563,20.7031 Q1706.9938,20.5 1706.4313,20.5 Q1705.7281,20.5 1705.1344,20.7813 Q1704.5563,21.0625 1704.1031,21.6875 Q1703.65,22.3125 1703.65,23.1719 L1703.65,24.0938 Q1703.65,25.125 1704.4938,25.8125 Q1705.3375,26.5 1706.8375,26.5 Q1707.7281,26.5 1708.3531,26.2969 Q1708.7125,26.1875 1709.1188,25.8281 Q1709.3844,25.625 1709.525,25.5625 Q1709.6656,25.5 1709.8375,25.5 Q1710.1656,25.5 1710.4,25.7656 Q1710.65,26.0156 1710.65,26.375 Q1710.65,26.7188 1710.3063,27.125 Q1709.8063,27.7188 1709.0094,28.0469 Q1707.9625,28.5 1706.6813,28.5 Q1705.1813,28.5 1703.9781,27.9063 Q1703.0094,27.4375 1702.3219,26.4219 Q1701.65,25.4063 1701.65,24.2031 L1701.65,23.1094 Q1701.65,21.8594 1702.2438,20.7656 Q1702.8531,19.6719 1703.9,19.0938 Q1704.9625,18.5 1706.15,18.5 Q1706.8688,18.5 1707.4938,18.75 Q1708.1188,19 1708.65,19.5 Z " fill="#000000"/><text fill="#000000" font-family="sans-serif" font-size="14" lengthAdjust="spacing" textLength="56" x="1726.35" y="28.7285">SNSUser</text><line style="stroke:#181818;stroke-width:0.5;" x1="1667" x2="1810" y1="39" y2="39"/><rect fill="none" height="6" style="stroke:#C82930;stroke-width:1.0;" width="6" x="1674" y="47"/><text fill="#000000" font-family="sans-serif" font-size="14" lengthAdjust="spacing" textLength="35" x="1686" y="57.5332">name</text><rect fill="none" height="6" style="stroke:#C82930;stroke-width:1.0;" width="6" x="1674" y="64.6094"/><text fill="#000000" font-family="sans-serif" font-size="14" lengthAdjust="spacing" textLength="51" x="1686" y="75.1426">address</text><rect fill="none" height="6" style="stroke:#C82930;stroke-width:1.0;" width="6" x="1674" y="82.2188"/><text fill="#000000" font-family="sans-serif" font-size="14" lengthAdjust="spacing" textLength="21" x="1686" y="92.752">sex</text><rect fill="none" height="6" style="stroke:#C82930;stroke-width:1.0;" width="6" x="1674" y="99.8281"/><text fill="#000000" font-family="sans-serif" font-size="14" lengthAdjust="spacing" textLength="89" x="1686" y="110.3613">phoneNumber</text><rect fill="none" height="6" style="stroke:#C82930;stroke-width:1.0;" width="6" x="1674" y="117.4375"/><text fill="#000000" font-family="sans-serif" font-size="14" lengthAdjust="spacing" textLength="33" x="1686" y="127.9707">email</text><rect fill="none" height="6" style="stroke:#C82930;stroke-width:1.0;" width="6" x="1674" y="135.0469"/><text fill="#000000" font-family="sans-serif" font-size="14" lengthAdjust="spacing" textLength="58" x="1686" y="145.5801">birthDate</text><rect fill="none" height="6" style="stroke:#C82930;stroke-width:1.0;" width="6" x="1674" y="152.6563"/><text fill="#000000" font-family="sans-serif" font-size="14" lengthAdjust="spacing" textLength="76" x="1686" y="163.1895">SNSNumber</text><rect fill="none" height="6" style="stroke:#C82930;stroke-width:1.0;" width="6" x="1674" y="170.2656"/><text fill="#000000" font-family="sans-serif" font-size="14" lengthAdjust="spacing" textLength="119" x="1686" y="180.7988">citizenCardNumber</text></g><!--MD5=[a5ad3856b0c65e07b10297b4477b22bb]
class SNSUserStore--><g id="elem_SNSUserStore"><rect codeLine="37" fill="#F1F1F1" height="128.0469" id="SNSUserStore" rx="2.5" ry="2.5" style="stroke:#181818;stroke-width:0.5;" width="258" x="1274" y="33.5"/><ellipse cx="1353.75" cy="49.5" fill="#ADD1B2" rx="11" ry="11" style="stroke:#181818;stroke-width:1.0;"/><path d="M1355.75,46 Q1355.9531,45.5 1356.1875,45.25 Q1356.4219,45 1356.6875,45 Q1357.1563,45 1357.4531,45.2813 Q1357.75,45.5625 1357.75,46.2188 L1357.75,47.7813 Q1357.75,48.4375 1357.4688,48.7188 Q1357.1875,49 1356.75,49 Q1356.3594,49 1356.1094,48.8281 Q1355.8594,48.6563 1355.75,48.2031 Q1355.7031,47.8906 1355.5313,47.7188 Q1355.2188,47.3906 1354.6563,47.2031 Q1354.0938,47 1353.5313,47 Q1352.8281,47 1352.2344,47.2813 Q1351.6563,47.5625 1351.2031,48.1875 Q1350.75,48.8125 1350.75,49.6719 L1350.75,50.5938 Q1350.75,51.625 1351.5938,52.3125 Q1352.4375,53 1353.9375,53 Q1354.8281,53 1355.4531,52.7969 Q1355.8125,52.6875 1356.2188,52.3281 Q1356.4844,52.125 1356.625,52.0625 Q1356.7656,52 1356.9375,52 Q1357.2656,52 1357.5,52.2656 Q1357.75,52.5156 1357.75,52.875 Q1357.75,53.2188 1357.4063,53.625 Q1356.9063,54.2188 1356.1094,54.5469 Q1355.0625,55 1353.7813,55 Q1352.2813,55 1351.0781,54.4063 Q1350.1094,53.9375 1349.4219,52.9219 Q1348.75,51.9063 1348.75,50.7031 L1348.75,49.6094 Q1348.75,48.3594 1349.3438,47.2656 Q1349.9531,46.1719 1351,45.5938 Q1352.0625,45 1353.25,45 Q1353.9688,45 1354.5938,45.25 Q1355.2188,45.5 1355.75,46 Z " fill="#000000"/><text fill="#000000" font-family="sans-serif" font-size="14" lengthAdjust="spacing" textLength="90" x="1374.25" y="55.2285">SNSUserStore</text><line style="stroke:#181818;stroke-width:0.5;" x1="1275" x2="1531" y1="65.5" y2="65.5"/><ellipse cx="1285" cy="76.5" fill="#84BE84" rx="3" ry="3" style="stroke:#038048;stroke-width:1.0;"/><text fill="#000000" font-family="sans-serif" font-size="14" lengthAdjust="spacing" textLength="205" x="1294" y="84.0332">validateSNSUser(SNSUser snsu)</text><ellipse cx="1285" cy="94.1094" fill="#84BE84" rx="3" ry="3" style="stroke:#038048;stroke-width:1.0;"/><text fill="#000000" font-family="sans-serif" font-size="14" lengthAdjust="spacing" textLength="180" x="1294" y="101.6426">addSNSUser(SNSUser snsu)</text><ellipse cx="1285" cy="111.7188" fill="#84BE84" rx="3" ry="3" style="stroke:#038048;stroke-width:1.0;"/><text fill="#000000" font-family="sans-serif" font-size="14" lengthAdjust="spacing" textLength="228" x="1294" y="119.252">createSNSUser(name, address, sex,</text><text fill="#000000" font-family="sans-serif" font-size="14" lengthAdjust="spacing" textLength="200" x="1298" y="136.8613">phoneNumber, email, birthDate,</text><text fill="#000000" font-family="sans-serif" font-size="14" lengthAdjust="spacing" textLength="208" x="1298" y="154.4707">SNSNumber, citizenCardNumber)</text></g><!--MD5=[8ae808d068a8995f06b9b3ec51357f0b]
class AuthFacade--><g id="elem_AuthFacade"><rect codeLine="43" fill="#F1F1F1" height="57.6094" id="AuthFacade" rx="2.5" ry="2.5" style="stroke:#181818;stroke-width:0.5;" width="334" x="1236" y="196.5"/><ellipse cx="1360.25" cy="212.5" fill="#ADD1B2" rx="11" ry="11" style="stroke:#181818;stroke-width:1.0;"/><path d="M1362.25,209 Q1362.4531,208.5 1362.6875,208.25 Q1362.9219,208 1363.1875,208 Q1363.6563,208 1363.9531,208.2813 Q1364.25,208.5625 1364.25,209.2188 L1364.25,210.7813 Q1364.25,211.4375 1363.9688,211.7188 Q1363.6875,212 1363.25,212 Q1362.8594,212 1362.6094,211.8281 Q1362.3594,211.6563 1362.25,211.2031 Q1362.2031,210.8906 1362.0313,210.7188 Q1361.7188,210.3906 1361.1563,210.2031 Q1360.5938,210 1360.0313,210 Q1359.3281,210 1358.7344,210.2813 Q1358.1563,210.5625 1357.7031,211.1875 Q1357.25,211.8125 1357.25,212.6719 L1357.25,213.5938 Q1357.25,214.625 1358.0938,215.3125 Q1358.9375,216 1360.4375,216 Q1361.3281,216 1361.9531,215.7969 Q1362.3125,215.6875 1362.7188,215.3281 Q1362.9844,215.125 1363.125,215.0625 Q1363.2656,215 1363.4375,215 Q1363.7656,215 1364,215.2656 Q1364.25,215.5156 1364.25,215.875 Q1364.25,216.2188 1363.9063,216.625 Q1363.4063,217.2188 1362.6094,217.5469 Q1361.5625,218 1360.2813,218 Q1358.7813,218 1357.5781,217.4063 Q1356.6094,216.9375 1355.9219,215.9219 Q1355.25,214.9063 1355.25,213.7031 L1355.25,212.6094 Q1355.25,211.3594 1355.8438,210.2656 Q1356.4531,209.1719 1357.5,208.5938 Q1358.5625,208 1359.75,208 Q1360.4688,208 1361.0938,208.25 Q1361.7188,208.5 1362.25,209 Z " fill="#000000"/><text fill="#000000" font-family="sans-serif" font-size="14" lengthAdjust="spacing" textLength="77" x="1380.75" y="218.2285">AuthFacade</text><line style="stroke:#181818;stroke-width:0.5;" x1="1237" x2="1569" y1="228.5" y2="228.5"/><ellipse cx="1247" cy="239.5" fill="#84BE84" rx="3" ry="3" style="stroke:#038048;stroke-width:1.0;"/><text fill="#000000" font-family="sans-serif" font-size="14" lengthAdjust="spacing" textLength="308" x="1256" y="247.0332">addUserWithRole(name,e-mail,pwd,"SNS USER")</text></g><!--MD5=[2cbf424a53c52becdbe85f421e73fefb]
link LoadSNSUserFromFileUI to LoadSNSUserFromFile--><g id="link_LoadSNSUserFromFileUI_LoadSNSUserFromFile"><path codeLine="47" d="M195.02,196.5 C212.92,196.5 231.92,196.5 250.62,196.5 " fill="none" id="LoadSNSUserFromFileUI-to-LoadSNSUserFromFile" style="stroke:#181818;stroke-width:1.0;stroke-dasharray:7.0,7.0;"/><polygon fill="#181818" points="255.88,196.5,246.88,192.5,250.88,196.5,246.88,200.5,255.88,196.5" style="stroke:#181818;stroke-width:1.0;"/></g><!--MD5=[4685ff294c1f8d027e79e51583c8639e]
link LoadSNSUserFromFile to RegisterSNSUserController--><g id="link_LoadSNSUserFromFile_RegisterSNSUserController"><path codeLine="48" d="M495.39,196.5 C513.54,196.5 532.37,196.5 550.81,196.5 " fill="none" id="LoadSNSUserFromFile-to-RegisterSNSUserController" style="stroke:#181818;stroke-width:1.0;stroke-dasharray:7.0,7.0;"/><polygon fill="#181818" points="556,196.5,547,192.5,551,196.5,547,200.5,556,196.5" style="stroke:#181818;stroke-width:1.0;"/></g><!--MD5=[438f3eafa26f7112fe5a933ad6336f95]
link RegisterSNSUserController to Company--><g id="link_RegisterSNSUserController_Company"><path codeLine="49" d="M814.21,196.5 C833.13,196.5 852.12,196.5 869.59,196.5 " fill="none" id="RegisterSNSUserController-to-Company" style="stroke:#181818;stroke-width:1.0;stroke-dasharray:7.0,7.0;"/><polygon fill="#181818" points="874.95,196.5,865.95,192.5,869.95,196.5,865.95,200.5,874.95,196.5" style="stroke:#181818;stroke-width:1.0;"/></g><!--MD5=[1bd9080c7e199931e49bc5a1616681ac]
link Company to SNSUserStore--><g id="link_Company_SNSUserStore"><path codeLine="50" d="M1021.03,180.76 C1087.35,166.26 1187.42,144.4 1268.35,126.71 " fill="none" id="Company-to-SNSUserStore" style="stroke:#181818;stroke-width:1.0;"/><polygon fill="#181818" points="1273.66,125.55,1264.0121,123.5707,1268.7761,126.621,1265.7257,131.385,1273.66,125.55" style="stroke:#181818;stroke-width:1.0;"/><polygon fill="#000000" points="1116.8847,130.6083,1107.4207,129.6683,1108.6757,135.4106,1116.8847,130.6083" style="stroke:#000000;stroke-width:1.0;"/><text fill="#000000" font-family="sans-serif" font-size="13" lengthAdjust="spacing" textLength="28" x="1121" y="136.9951">uses</text><text fill="#000000" font-family="sans-serif" font-size="13" lengthAdjust="spacing" textLength="7" x="1028.9222" y="193.4638">1</text><text fill="#000000" font-family="sans-serif" font-size="13" lengthAdjust="spacing" textLength="7" x="1258.9802" y="141.1381">1</text></g><!--MD5=[b01d27099955aced792f1ce85db49798]
link SNSUserStore to SNSUser--><g id="link_SNSUserStore_SNSUser"><path codeLine="51" d="M1532.46,97.5 C1575.66,97.5 1622.49,97.5 1660.47,97.5 " fill="none" id="SNSUserStore-to-SNSUser" style="stroke:#181818;stroke-width:1.0;"/><polygon fill="#181818" points="1665.53,97.5,1656.53,93.5,1660.53,97.5,1656.53,101.5,1665.53,97.5" style="stroke:#181818;stroke-width:1.0;"/><polygon fill="#000000" points="1610,88.6758,1600.9549,85.7369,1600.9549,91.6147,1610,88.6758" style="stroke:#000000;stroke-width:1.0;"/><text fill="#000000" font-family="sans-serif" font-size="13" lengthAdjust="spacing" textLength="21" x="1614" y="93.9951">has</text><text fill="#000000" font-family="sans-serif" font-size="13" lengthAdjust="spacing" textLength="7" x="1540.1468" y="111.4664">1</text><text fill="#000000" font-family="sans-serif" font-size="13" lengthAdjust="spacing" textLength="5" x="1653.1009" y="111.8061">*</text></g><!--MD5=[717d4b03d3c4372f4eafe5e342a0a7dd]
link Company to AuthFacade--><g id="link_Company_AuthFacade"><path codeLine="52" d="M1021.03,201.11 C1077.34,204.72 1157.99,209.88 1230.6,214.53 " fill="none" id="Company-to-AuthFacade" style="stroke:#181818;stroke-width:1.0;"/><polygon fill="#181818" points="1235.81,214.86,1227.0787,210.3033,1230.8198,214.5463,1226.5768,218.2875,1235.81,214.86" style="stroke:#181818;stroke-width:1.0;"/><polygon fill="#000000" points="1060.9898,194.9953,1052.151,191.4844,1051.7754,197.3502,1060.9898,194.9953" style="stroke:#000000;stroke-width:1.0;"/><text fill="#000000" font-family="sans-serif" font-size="13" lengthAdjust="spacing" textLength="140" x="1065" y="199.9951">registers SNSUsers into</text></g><!--MD5=[965ef85faf6cc2fceb1c3825c57eb4a4]
@startuml
'https://plantuml.com/class-diagram

hide empty members
left to right direction


class LoadSNSUserFromFileUI{
}

class LoadSNSUserFromFile{
+LoadOption(File file, String regex)
}

class Company {
- designation
+ getSNSUserStore()
}



class RegisterSNSUserController {
+ createSNSUser(name, address, sex, \n phoneNumber, email, birthDate, \n SNSNumber, citizenCardNumber)
+ saveSNSUser() 
}

class SNSUser {
-name
-address
-sex
-phoneNumber
-email
-birthDate
-SNSNumber
-citizenCardNumber
}

class SNSUserStore {
+ validateSNSUser(SNSUser snsu)
+ addSNSUser(SNSUser snsu)
+ createSNSUser(name, address, sex, \n phoneNumber, email, birthDate, \n SNSNumber, citizenCardNumber)
}

class AuthFacade{
+ addUserWithRole(name,e-mail,pwd,"SNS USER")
}

LoadSNSUserFromFileUI ..> LoadSNSUserFromFile
LoadSNSUserFromFile ..> RegisterSNSUserController
RegisterSNSUserController ..> Company
Company "1" - -> "1" SNSUserStore: uses >
SNSUserStore "1" - -> "*" SNSUser: has >
Company - -> AuthFacade : registers SNSUsers into >
@enduml

@startuml

hide empty members
left to right direction


class LoadSNSUserFromFileUI{
}

class LoadSNSUserFromFile{
+LoadOption(File file, String regex)
}

class Company {
- designation
+ getSNSUserStore()
}



class RegisterSNSUserController {
+ createSNSUser(name, address, sex, \n phoneNumber, email, birthDate, \n SNSNumber, citizenCardNumber)
+ saveSNSUser() 
}

class SNSUser {
-name
-address
-sex
-phoneNumber
-email
-birthDate
-SNSNumber
-citizenCardNumber
}

class SNSUserStore {
+ validateSNSUser(SNSUser snsu)
+ addSNSUser(SNSUser snsu)
+ createSNSUser(name, address, sex, \n phoneNumber, email, birthDate, \n SNSNumber, citizenCardNumber)
}

class AuthFacade{
+ addUserWithRole(name,e-mail,pwd,"SNS USER")
}

LoadSNSUserFromFileUI ..> LoadSNSUserFromFile
LoadSNSUserFromFile ..> RegisterSNSUserController
RegisterSNSUserController ..> Company
Company "1" - -> "1" SNSUserStore: uses >
SNSUserStore "1" - -> "*" SNSUser: has >
Company - -> AuthFacade : registers SNSUsers into >
@enduml

PlantUML version 1.2022.4(Sat Apr 09 14:29:17 BST 2022)
(GPL source distribution)
Java Runtime: OpenJDK Runtime Environment
JVM: OpenJDK 64-Bit Server VM
Default Encoding: Cp1252
Language: en
Country: US
--></g></svg>