<?xml version="1.0" encoding="UTF-8" standalone="no"?><svg xmlns="http://www.w3.org/2000/svg" xmlns:xlink="http://www.w3.org/1999/xlink" contentStyleType="text/css" height="206px" preserveAspectRatio="none" style="width:1037px;height:206px;background:#FFFFFF;" version="1.1" viewBox="0 0 1037 206" width="1037px" zoomAndPan="magnify"><defs/><g><!--MD5=[02e4b9b7573f1156f41e60aa5b4e25a4]
class Company--><g id="elem_Company"><rect codeLine="6" fill="#F1F1F1" height="57.6094" id="Company" rx="2.5" ry="2.5" style="stroke:#181818;stroke-width:0.5;" width="92" x="7" y="80.5"/><ellipse cx="22" cy="96.5" fill="#ADD1B2" rx="11" ry="11" style="stroke:#181818;stroke-width:1.0;"/><path d="M24,93 Q24.2031,92.5 24.4375,92.25 Q24.6719,92 24.9375,92 Q25.4063,92 25.7031,92.2813 Q26,92.5625 26,93.2188 L26,94.7813 Q26,95.4375 25.7188,95.7188 Q25.4375,96 25,96 Q24.6094,96 24.3594,95.8281 Q24.1094,95.6563 24,95.2031 Q23.9531,94.8906 23.7813,94.7188 Q23.4688,94.3906 22.9063,94.2031 Q22.3438,94 21.7813,94 Q21.0781,94 20.4844,94.2813 Q19.9063,94.5625 19.4531,95.1875 Q19,95.8125 19,96.6719 L19,97.5938 Q19,98.625 19.8438,99.3125 Q20.6875,100 22.1875,100 Q23.0781,100 23.7031,99.7969 Q24.0625,99.6875 24.4688,99.3281 Q24.7344,99.125 24.875,99.0625 Q25.0156,99 25.1875,99 Q25.5156,99 25.75,99.2656 Q26,99.5156 26,99.875 Q26,100.2188 25.6563,100.625 Q25.1563,101.2188 24.3594,101.5469 Q23.3125,102 22.0313,102 Q20.5313,102 19.3281,101.4063 Q18.3594,100.9375 17.6719,99.9219 Q17,98.9063 17,97.7031 L17,96.6094 Q17,95.3594 17.5938,94.2656 Q18.2031,93.1719 19.25,92.5938 Q20.3125,92 21.5,92 Q22.2188,92 22.8438,92.25 Q23.4688,92.5 24,93 Z " fill="#000000"/><text fill="#000000" font-family="sans-serif" font-size="14" lengthAdjust="spacing" textLength="60" x="36" y="102.2285">Company</text><line style="stroke:#181818;stroke-width:0.5;" x1="8" x2="98" y1="112.5" y2="112.5"/><text fill="#000000" font-family="sans-serif" font-size="14" lengthAdjust="spacing" textLength="78" x="13" y="131.0332">-designation</text></g><!--MD5=[72be06cc7ae02ccc98efe28a50e62246]
class SNSUser--><g id="elem_SNSUser"><rect codeLine="10" fill="#F1F1F1" height="180.875" id="SNSUser" rx="2.5" ry="2.5" style="stroke:#181818;stroke-width:0.5;" width="136" x="656" y="19"/><ellipse cx="692.6" cy="35" fill="#ADD1B2" rx="11" ry="11" style="stroke:#181818;stroke-width:1.0;"/><path d="M694.6,31.5 Q694.8031,31 695.0375,30.75 Q695.2719,30.5 695.5375,30.5 Q696.0063,30.5 696.3031,30.7813 Q696.6,31.0625 696.6,31.7188 L696.6,33.2813 Q696.6,33.9375 696.3188,34.2188 Q696.0375,34.5 695.6,34.5 Q695.2094,34.5 694.9594,34.3281 Q694.7094,34.1563 694.6,33.7031 Q694.5531,33.3906 694.3813,33.2188 Q694.0688,32.8906 693.5063,32.7031 Q692.9438,32.5 692.3813,32.5 Q691.6781,32.5 691.0844,32.7813 Q690.5063,33.0625 690.0531,33.6875 Q689.6,34.3125 689.6,35.1719 L689.6,36.0938 Q689.6,37.125 690.4438,37.8125 Q691.2875,38.5 692.7875,38.5 Q693.6781,38.5 694.3031,38.2969 Q694.6625,38.1875 695.0688,37.8281 Q695.3344,37.625 695.475,37.5625 Q695.6156,37.5 695.7875,37.5 Q696.1156,37.5 696.35,37.7656 Q696.6,38.0156 696.6,38.375 Q696.6,38.7188 696.2563,39.125 Q695.7563,39.7188 694.9594,40.0469 Q693.9125,40.5 692.6313,40.5 Q691.1313,40.5 689.9281,39.9063 Q688.9594,39.4375 688.2719,38.4219 Q687.6,37.4063 687.6,36.2031 L687.6,35.1094 Q687.6,33.8594 688.1938,32.7656 Q688.8031,31.6719 689.85,31.0938 Q690.9125,30.5 692.1,30.5 Q692.8188,30.5 693.4438,30.75 Q694.0688,31 694.6,31.5 Z " fill="#000000"/><text fill="#000000" font-family="sans-serif" font-size="14" lengthAdjust="spacing" textLength="56" x="711.4" y="40.7285">SNSUser</text><line style="stroke:#181818;stroke-width:0.5;" x1="657" x2="791" y1="51" y2="51"/><text fill="#000000" font-family="sans-serif" font-size="14" lengthAdjust="spacing" textLength="107" x="662" y="69.5332">-name/username</text><text fill="#000000" font-family="sans-serif" font-size="14" lengthAdjust="spacing" textLength="56" x="662" y="87.1426">-address</text><text fill="#000000" font-family="sans-serif" font-size="14" lengthAdjust="spacing" textLength="50" x="662" y="104.752">-gender</text><text fill="#000000" font-family="sans-serif" font-size="14" lengthAdjust="spacing" textLength="94" x="662" y="122.3613">-phoneNumber</text><text fill="#000000" font-family="sans-serif" font-size="14" lengthAdjust="spacing" textLength="38" x="662" y="139.9707">-email</text><text fill="#000000" font-family="sans-serif" font-size="14" lengthAdjust="spacing" textLength="63" x="662" y="157.5801">-birthDate</text><text fill="#000000" font-family="sans-serif" font-size="14" lengthAdjust="spacing" textLength="81" x="662" y="175.1895">-SNSNumber</text><text fill="#000000" font-family="sans-serif" font-size="14" lengthAdjust="spacing" textLength="124" x="662" y="192.7988">-citizenCardNumber</text></g><!--MD5=[db6d18d8099558415abc41d00477ab92]
class Admin--><g id="elem_Admin"><rect codeLine="21" fill="#F1F1F1" height="92.8281" id="Admin" rx="2.5" ry="2.5" style="stroke:#181818;stroke-width:0.5;" width="80" x="273" y="7"/><ellipse cx="292.05" cy="23" fill="#ADD1B2" rx="11" ry="11" style="stroke:#181818;stroke-width:1.0;"/><path d="M294.05,19.5 Q294.2531,19 294.4875,18.75 Q294.7219,18.5 294.9875,18.5 Q295.4563,18.5 295.7531,18.7813 Q296.05,19.0625 296.05,19.7188 L296.05,21.2813 Q296.05,21.9375 295.7688,22.2188 Q295.4875,22.5 295.05,22.5 Q294.6594,22.5 294.4094,22.3281 Q294.1594,22.1563 294.05,21.7031 Q294.0031,21.3906 293.8313,21.2188 Q293.5188,20.8906 292.9563,20.7031 Q292.3938,20.5 291.8313,20.5 Q291.1281,20.5 290.5344,20.7813 Q289.9563,21.0625 289.5031,21.6875 Q289.05,22.3125 289.05,23.1719 L289.05,24.0938 Q289.05,25.125 289.8938,25.8125 Q290.7375,26.5 292.2375,26.5 Q293.1281,26.5 293.7531,26.2969 Q294.1125,26.1875 294.5188,25.8281 Q294.7844,25.625 294.925,25.5625 Q295.0656,25.5 295.2375,25.5 Q295.5656,25.5 295.8,25.7656 Q296.05,26.0156 296.05,26.375 Q296.05,26.7188 295.7063,27.125 Q295.2063,27.7188 294.4094,28.0469 Q293.3625,28.5 292.0813,28.5 Q290.5813,28.5 289.3781,27.9063 Q288.4094,27.4375 287.7219,26.4219 Q287.05,25.4063 287.05,24.2031 L287.05,23.1094 Q287.05,21.8594 287.6438,20.7656 Q288.2531,19.6719 289.3,19.0938 Q290.3625,18.5 291.55,18.5 Q292.2688,18.5 292.8938,18.75 Q293.5188,19 294.05,19.5 Z " fill="#000000"/><text fill="#000000" font-family="sans-serif" font-size="14" lengthAdjust="spacing" textLength="39" x="306.95" y="28.7285">Admin</text><line style="stroke:#181818;stroke-width:0.5;" x1="274" x2="352" y1="39" y2="39"/><text fill="#000000" font-family="sans-serif" font-size="14" lengthAdjust="spacing" textLength="68" x="279" y="57.5332">-username</text><text fill="#000000" font-family="sans-serif" font-size="14" lengthAdjust="spacing" textLength="38" x="279" y="75.1426">-email</text><text fill="#000000" font-family="sans-serif" font-size="14" lengthAdjust="spacing" textLength="65" x="279" y="92.752">-password</text></g><!--MD5=[3fd616f346a44cd59a91eb10b19e157c]
class User--><g id="elem_User"><rect codeLine="27" fill="#F1F1F1" height="92.8281" id="User" rx="2.5" ry="2.5" style="stroke:#181818;stroke-width:0.5;" width="80" x="950" y="63"/><ellipse cx="973.55" cy="79" fill="#ADD1B2" rx="11" ry="11" style="stroke:#181818;stroke-width:1.0;"/><path d="M975.55,75.5 Q975.7531,75 975.9875,74.75 Q976.2219,74.5 976.4875,74.5 Q976.9563,74.5 977.2531,74.7813 Q977.55,75.0625 977.55,75.7188 L977.55,77.2813 Q977.55,77.9375 977.2688,78.2188 Q976.9875,78.5 976.55,78.5 Q976.1594,78.5 975.9094,78.3281 Q975.6594,78.1563 975.55,77.7031 Q975.5031,77.3906 975.3313,77.2188 Q975.0188,76.8906 974.4563,76.7031 Q973.8938,76.5 973.3313,76.5 Q972.6281,76.5 972.0344,76.7813 Q971.4563,77.0625 971.0031,77.6875 Q970.55,78.3125 970.55,79.1719 L970.55,80.0938 Q970.55,81.125 971.3938,81.8125 Q972.2375,82.5 973.7375,82.5 Q974.6281,82.5 975.2531,82.2969 Q975.6125,82.1875 976.0188,81.8281 Q976.2844,81.625 976.425,81.5625 Q976.5656,81.5 976.7375,81.5 Q977.0656,81.5 977.3,81.7656 Q977.55,82.0156 977.55,82.375 Q977.55,82.7188 977.2063,83.125 Q976.7063,83.7188 975.9094,84.0469 Q974.8625,84.5 973.5813,84.5 Q972.0813,84.5 970.8781,83.9063 Q969.9094,83.4375 969.2219,82.4219 Q968.55,81.4063 968.55,80.2031 L968.55,79.1094 Q968.55,77.8594 969.1438,76.7656 Q969.7531,75.6719 970.8,75.0938 Q971.8625,74.5 973.05,74.5 Q973.7688,74.5 974.3938,74.75 Q975.0188,75 975.55,75.5 Z " fill="#000000"/><text fill="#000000" font-family="sans-serif" font-size="14" lengthAdjust="spacing" textLength="29" x="989.45" y="84.7285">User</text><line style="stroke:#181818;stroke-width:0.5;" x1="951" x2="1029" y1="95" y2="95"/><text fill="#000000" font-family="sans-serif" font-size="14" lengthAdjust="spacing" textLength="68" x="956" y="113.5332">-username</text><text fill="#000000" font-family="sans-serif" font-size="14" lengthAdjust="spacing" textLength="65" x="956" y="131.1426">-password</text><text fill="#000000" font-family="sans-serif" font-size="14" lengthAdjust="spacing" textLength="38" x="956" y="148.752">-email</text></g><!--MD5=[3861bdece64e1cdd9c1d7c0b91465d40]
link SNSUser to Company--><g id="link_SNSUser_Company"><path codeLine="33" d="M655.62,130.34 C613.02,141.71 556.55,153.5 505.5,153.5 C185,153.5 185,153.5 185,153.5 C155.37,153.5 123.84,143.26 99.14,132.66 " fill="none" id="SNSUser-Company" style="stroke:#181818;stroke-width:1.0;"/><polygon fill="#000000" points="283,144.6966,292.0573,147.5978,292.0328,141.72,283,144.6966" style="stroke:#000000;stroke-width:1.0;"/><text fill="#000000" font-family="sans-serif" font-size="13" lengthAdjust="spacing" textLength="45" x="297" y="149.9951">is client</text><text fill="#000000" font-family="sans-serif" font-size="13" lengthAdjust="spacing" textLength="5" x="642.8675" y="147.0156">*</text><text fill="#000000" font-family="sans-serif" font-size="13" lengthAdjust="spacing" textLength="7" x="107.0514" y="151.1804">1</text></g><!--MD5=[f1c2b2c569abc5f56c317b9d8f3fddee]
link Company to Admin--><g id="link_Company_Admin"><path codeLine="34" d="M99.24,99.68 C148.37,89.02 226.07,72.15 272.73,62.02 " fill="none" id="Company-Admin" style="stroke:#181818;stroke-width:1.0;"/><polygon fill="#000000" points="169.8862,65.6151,160.4235,64.6618,161.6704,70.4059,169.8862,65.6151" style="stroke:#000000;stroke-width:1.0;"/><text fill="#000000" font-family="sans-serif" font-size="13" lengthAdjust="spacing" textLength="37" x="174" y="71.9951">knows</text><text fill="#000000" font-family="sans-serif" font-size="13" lengthAdjust="spacing" textLength="7" x="106.8564" y="112.9533">1</text><text fill="#000000" font-family="sans-serif" font-size="13" lengthAdjust="spacing" textLength="5" x="260.1116" y="78.5044">*</text></g><!--MD5=[3c9748a687fec00fab8b17b659b9c92a]
link Admin to SNSUser--><g id="link_Admin_SNSUser"><path codeLine="35" d="M353.22,58.87 C423,68.42 569.46,88.48 655.64,100.28 " fill="none" id="Admin-SNSUser" style="stroke:#181818;stroke-width:1.0;"/><polygon fill="#000000" points="423.9538,59.3541,415.391,55.2153,414.5936,61.0388,423.9538,59.3541" style="stroke:#000000;stroke-width:1.0;"/><text fill="#000000" font-family="sans-serif" font-size="13" lengthAdjust="spacing" textLength="166" x="428" y="63.9951">Loads a set through CSV file</text><text fill="#000000" font-family="sans-serif" font-size="13" lengthAdjust="spacing" textLength="5" x="361.0965" y="74.8785">*</text><text fill="#000000" font-family="sans-serif" font-size="13" lengthAdjust="spacing" textLength="5" x="642.8897" y="113.6677">*</text></g><!--MD5=[f51b69263ffc056cc84c9ec54d5aea1b]
link SNSUser to User--><g id="link_SNSUser_User"><path codeLine="36" d="M792.3,109.5 C842.1,109.5 908.23,109.5 949.7,109.5 " fill="none" id="SNSUser-User" style="stroke:#181818;stroke-width:1.0;"/><polygon fill="#000000" points="863,100.6758,853.9549,97.7369,853.9549,103.6147,863,100.6758" style="stroke:#000000;stroke-width:1.0;"/><text fill="#000000" font-family="sans-serif" font-size="13" lengthAdjust="spacing" textLength="21" x="867" y="105.9951">is a</text><text fill="#000000" font-family="sans-serif" font-size="13" lengthAdjust="spacing" textLength="5" x="800.0437" y="123.8962">*</text><text fill="#000000" font-family="sans-serif" font-size="13" lengthAdjust="spacing" textLength="7" x="934.8981" y="124.4667">1</text></g><!--MD5=[aaa69ca70d50fbeb72a9713d5d0507ed]
@startuml
hide methods
left to right direction
skinparam classAttributeIconSize 0


class Company {
  -designation
}

class SNSUser {
-name/username
-address
-gender
-phoneNumber
-email
-birthDate
-SNSNumber
-citizenCardNumber
}

class Admin {
-username
-email
-password
}

class User{
-username
-password
-email
}

SNSUser "*"- - -"1" Company : is client >
Company "1"- - -"*" Admin : knows >
Admin "*"- - -"*" SNSUser : Loads a set through CSV file >
SNSUser "*"- - -"1" User : is a >






@enduml

PlantUML version 1.2022.4(Sat Apr 09 14:29:17 BST 2022)
(GPL source distribution)
Java Runtime: OpenJDK Runtime Environment
JVM: OpenJDK 64-Bit Server VM
Default Encoding: Cp1252
Language: en
Country: US
--></g></svg>