<?xml version="1.0" encoding="UTF-8" standalone="no"?><svg xmlns="http://www.w3.org/2000/svg" xmlns:xlink="http://www.w3.org/1999/xlink" contentStyleType="text/css" height="366px" preserveAspectRatio="none" style="width:750px;height:366px;background:#FFFFFF;" version="1.1" viewBox="0 0 750 366" width="750px" zoomAndPan="magnify"><defs/><g><rect fill="#FFFFFF" height="183.1094" style="stroke:#181818;stroke-width:1.0;" width="10" x="42" y="92.6094"/><rect fill="#FFFFFF" height="30.3516" style="stroke:#181818;stroke-width:1.0;" width="10" x="707" y="114.9609"/><rect fill="#FFFFFF" height="30.3516" style="stroke:#181818;stroke-width:1.0;" width="10" x="707" y="175.6641"/><rect fill="#FFFFFF" height="30.3516" style="stroke:#181818;stroke-width:1.0;" width="10" x="707" y="236.3672"/><line style="stroke:#181818;stroke-width:0.5;stroke-dasharray:5.0,5.0;" x1="47" x2="47" y1="82.6094" y2="284.7188"/><line style="stroke:#181818;stroke-width:0.5;stroke-dasharray:5.0,5.0;" x1="712" x2="712" y1="82.6094" y2="284.7188"/><text fill="#000000" font-family="sans-serif" font-size="14" lengthAdjust="spacing" textLength="78" x="5" y="79.5332">Receptionist</text><ellipse cx="47" cy="13.5" fill="#E2E2F0" rx="8" ry="8" style="stroke:#181818;stroke-width:0.5;"/><path d="M47,21.5 L47,48.5 M34,29.5 L60,29.5 M47,48.5 L34,63.5 M47,48.5 L60,63.5 " fill="none" style="stroke:#181818;stroke-width:0.5;"/><text fill="#000000" font-family="sans-serif" font-size="14" lengthAdjust="spacing" textLength="78" x="5" y="298.252">Receptionist</text><ellipse cx="47" cy="309.8281" fill="#E2E2F0" rx="8" ry="8" style="stroke:#181818;stroke-width:0.5;"/><path d="M47,317.8281 L47,344.8281 M34,325.8281 L60,325.8281 M47,344.8281 L34,359.8281 M47,344.8281 L60,359.8281 " fill="none" style="stroke:#181818;stroke-width:0.5;"/><rect fill="#E2E2F0" height="31.6094" rx="2.5" ry="2.5" style="stroke:#181818;stroke-width:0.5;" width="64" x="680" y="50"/><text fill="#000000" font-family="sans-serif" font-size="14" lengthAdjust="spacing" textLength="50" x="687" y="71.5332">:System</text><rect fill="#E2E2F0" height="31.6094" rx="2.5" ry="2.5" style="stroke:#181818;stroke-width:0.5;" width="64" x="680" y="283.7188"/><text fill="#000000" font-family="sans-serif" font-size="14" lengthAdjust="spacing" textLength="50" x="687" y="305.252">:System</text><rect fill="#FFFFFF" height="183.1094" style="stroke:#181818;stroke-width:1.0;" width="10" x="42" y="92.6094"/><rect fill="#FFFFFF" height="30.3516" style="stroke:#181818;stroke-width:1.0;" width="10" x="707" y="114.9609"/><rect fill="#FFFFFF" height="30.3516" style="stroke:#181818;stroke-width:1.0;" width="10" x="707" y="175.6641"/><rect fill="#FFFFFF" height="30.3516" style="stroke:#181818;stroke-width:1.0;" width="10" x="707" y="236.3672"/><polygon fill="#181818" points="695,110.9609,705,114.9609,695,118.9609,699,114.9609" style="stroke:#181818;stroke-width:1.0;"/><line style="stroke:#181818;stroke-width:1.0;" x1="52" x2="701" y1="114.9609" y2="114.9609"/><text fill="#000000" font-family="sans-serif" font-size="13" font-weight="bold" lengthAdjust="spacing" textLength="7" x="59" y="110.1045">1</text><text fill="#000000" font-family="sans-serif" font-size="13" lengthAdjust="spacing" textLength="146" x="70" y="110.1045">starts vaccine scheduling</text><polygon fill="#181818" points="63,141.3125,53,145.3125,63,149.3125,59,145.3125" style="stroke:#181818;stroke-width:1.0;"/><line style="stroke:#181818;stroke-width:1.0;stroke-dasharray:2.0,2.0;" x1="57" x2="711" y1="145.3125" y2="145.3125"/><text fill="#000000" font-family="sans-serif" font-size="13" font-weight="bold" lengthAdjust="spacing" textLength="7" x="69" y="140.4561">2</text><text fill="#000000" font-family="sans-serif" font-size="13" lengthAdjust="spacing" textLength="620" x="80" y="140.4561">requests data (SNS user number, Vaccination center, Hour of vaccination, Type of Vaccine, Phone number)</text><polygon fill="#181818" points="695,171.6641,705,175.6641,695,179.6641,699,175.6641" style="stroke:#181818;stroke-width:1.0;"/><line style="stroke:#181818;stroke-width:1.0;" x1="52" x2="701" y1="175.6641" y2="175.6641"/><text fill="#000000" font-family="sans-serif" font-size="13" font-weight="bold" lengthAdjust="spacing" textLength="7" x="59" y="170.8076">3</text><text fill="#000000" font-family="sans-serif" font-size="13" lengthAdjust="spacing" textLength="122" x="70" y="170.8076">types requested data</text><polygon fill="#181818" points="63,202.0156,53,206.0156,63,210.0156,59,206.0156" style="stroke:#181818;stroke-width:1.0;"/><line style="stroke:#181818;stroke-width:1.0;stroke-dasharray:2.0,2.0;" x1="57" x2="711" y1="206.0156" y2="206.0156"/><text fill="#000000" font-family="sans-serif" font-size="13" font-weight="bold" lengthAdjust="spacing" textLength="7" x="69" y="201.1592">4</text><text fill="#000000" font-family="sans-serif" font-size="13" lengthAdjust="spacing" textLength="252" x="80" y="201.1592">shows the data and requests a confirmation</text><polygon fill="#181818" points="695,232.3672,705,236.3672,695,240.3672,699,236.3672" style="stroke:#181818;stroke-width:1.0;"/><line style="stroke:#181818;stroke-width:1.0;" x1="52" x2="701" y1="236.3672" y2="236.3672"/><text fill="#000000" font-family="sans-serif" font-size="13" font-weight="bold" lengthAdjust="spacing" textLength="7" x="59" y="231.5107">5</text><text fill="#000000" font-family="sans-serif" font-size="13" lengthAdjust="spacing" textLength="100" x="70" y="231.5107">confirms the data</text><polygon fill="#181818" points="63,262.7188,53,266.7188,63,270.7188,59,266.7188" style="stroke:#181818;stroke-width:1.0;"/><line style="stroke:#181818;stroke-width:1.0;stroke-dasharray:2.0,2.0;" x1="57" x2="711" y1="266.7188" y2="266.7188"/><text fill="#000000" font-family="sans-serif" font-size="13" font-weight="bold" lengthAdjust="spacing" textLength="7" x="69" y="261.8623">6</text><text fill="#000000" font-family="sans-serif" font-size="13" lengthAdjust="spacing" textLength="152" x="80" y="261.8623">informs operation success</text><!--MD5=[bc4771c25603ef15afe8ed43f3e10e1f]
@startuml
'https://plantuml.com/sequence-diagram

autonumber
actor "Receptionist" as USER

activate USER
USER -> ":System" : starts vaccine scheduling
activate ":System"

":System" - -> USER : requests data (SNS user number, Vaccination center, Hour of vaccination, Type of Vaccine, Phone number)
deactivate ":System"
USER -> ":System" : types requested data
activate ":System"
":System" - -> USER : shows the data and requests a confirmation
deactivate ":System"

USER -> ":System" : confirms the data
activate ":System"
":System" - -> USER : informs operation success
deactivate ":System"
@enduml

@startuml

autonumber
actor "Receptionist" as USER

activate USER
USER -> ":System" : starts vaccine scheduling
activate ":System"

":System" - -> USER : requests data (SNS user number, Vaccination center, Hour of vaccination, Type of Vaccine, Phone number)
deactivate ":System"
USER -> ":System" : types requested data
activate ":System"
":System" - -> USER : shows the data and requests a confirmation
deactivate ":System"

USER -> ":System" : confirms the data
activate ":System"
":System" - -> USER : informs operation success
deactivate ":System"
@enduml

PlantUML version 1.2022.4(Sat Apr 09 14:29:17 BST 2022)
(GPL source distribution)
Java Runtime: OpenJDK Runtime Environment
JVM: OpenJDK 64-Bit Server VM
Default Encoding: Cp1252
Language: pt
Country: PT
--></g></svg>