<?xml version="1.0" encoding="UTF-8" standalone="no"?><svg xmlns="http://www.w3.org/2000/svg" xmlns:xlink="http://www.w3.org/1999/xlink" contentStyleType="text/css" height="396px" preserveAspectRatio="none" style="width:1014px;height:396px;background:#FFFFFF;" version="1.1" viewBox="0 0 1014 396" width="1014px" zoomAndPan="magnify"><defs/><g><!--MD5=[02e4b9b7573f1156f41e60aa5b4e25a4]
class Company--><g id="elem_Company"><rect codeLine="6" fill="#F1F1F1" height="57.6094" id="Company" rx="2.5" ry="2.5" style="stroke:#181818;stroke-width:0.5;" width="92" x="7" y="296"/><ellipse cx="22" cy="312" fill="#ADD1B2" rx="11" ry="11" style="stroke:#181818;stroke-width:1.0;"/><path d="M24,308.5 Q24.2031,308 24.4375,307.75 Q24.6719,307.5 24.9375,307.5 Q25.4063,307.5 25.7031,307.7813 Q26,308.0625 26,308.7188 L26,310.2813 Q26,310.9375 25.7188,311.2188 Q25.4375,311.5 25,311.5 Q24.6094,311.5 24.3594,311.3281 Q24.1094,311.1563 24,310.7031 Q23.9531,310.3906 23.7813,310.2188 Q23.4688,309.8906 22.9063,309.7031 Q22.3438,309.5 21.7813,309.5 Q21.0781,309.5 20.4844,309.7813 Q19.9063,310.0625 19.4531,310.6875 Q19,311.3125 19,312.1719 L19,313.0938 Q19,314.125 19.8438,314.8125 Q20.6875,315.5 22.1875,315.5 Q23.0781,315.5 23.7031,315.2969 Q24.0625,315.1875 24.4688,314.8281 Q24.7344,314.625 24.875,314.5625 Q25.0156,314.5 25.1875,314.5 Q25.5156,314.5 25.75,314.7656 Q26,315.0156 26,315.375 Q26,315.7188 25.6563,316.125 Q25.1563,316.7188 24.3594,317.0469 Q23.3125,317.5 22.0313,317.5 Q20.5313,317.5 19.3281,316.9063 Q18.3594,316.4375 17.6719,315.4219 Q17,314.4063 17,313.2031 L17,312.1094 Q17,310.8594 17.5938,309.7656 Q18.2031,308.6719 19.25,308.0938 Q20.3125,307.5 21.5,307.5 Q22.2188,307.5 22.8438,307.75 Q23.4688,308 24,308.5 Z " fill="#000000"/><text fill="#000000" font-family="sans-serif" font-size="14" lengthAdjust="spacing" textLength="60" x="36" y="317.7285">Company</text><line style="stroke:#181818;stroke-width:0.5;" x1="8" x2="98" y1="328" y2="328"/><text fill="#000000" font-family="sans-serif" font-size="14" lengthAdjust="spacing" textLength="78" x="13" y="346.5332">-designation</text></g><!--MD5=[03960189e81aa2c066c762ffabbee709]
class Receptionist--><g id="elem_Receptionist"><rect codeLine="10" fill="#F1F1F1" height="75.2188" id="Receptionist" rx="2.5" ry="2.5" style="stroke:#181818;stroke-width:0.5;" width="110" x="273" y="205.5"/><ellipse cx="288" cy="221.5" fill="#ADD1B2" rx="11" ry="11" style="stroke:#181818;stroke-width:1.0;"/><path d="M290,218 Q290.2031,217.5 290.4375,217.25 Q290.6719,217 290.9375,217 Q291.4063,217 291.7031,217.2813 Q292,217.5625 292,218.2188 L292,219.7813 Q292,220.4375 291.7188,220.7188 Q291.4375,221 291,221 Q290.6094,221 290.3594,220.8281 Q290.1094,220.6563 290,220.2031 Q289.9531,219.8906 289.7813,219.7188 Q289.4688,219.3906 288.9063,219.2031 Q288.3438,219 287.7813,219 Q287.0781,219 286.4844,219.2813 Q285.9063,219.5625 285.4531,220.1875 Q285,220.8125 285,221.6719 L285,222.5938 Q285,223.625 285.8438,224.3125 Q286.6875,225 288.1875,225 Q289.0781,225 289.7031,224.7969 Q290.0625,224.6875 290.4688,224.3281 Q290.7344,224.125 290.875,224.0625 Q291.0156,224 291.1875,224 Q291.5156,224 291.75,224.2656 Q292,224.5156 292,224.875 Q292,225.2188 291.6563,225.625 Q291.1563,226.2188 290.3594,226.5469 Q289.3125,227 288.0313,227 Q286.5313,227 285.3281,226.4063 Q284.3594,225.9375 283.6719,224.9219 Q283,223.9063 283,222.7031 L283,221.6094 Q283,220.3594 283.5938,219.2656 Q284.2031,218.1719 285.25,217.5938 Q286.3125,217 287.5,217 Q288.2188,217 288.8438,217.25 Q289.4688,217.5 290,218 Z " fill="#000000"/><text fill="#000000" font-family="sans-serif" font-size="14" lengthAdjust="spacing" textLength="78" x="302" y="227.2285">Receptionist</text><line style="stroke:#181818;stroke-width:0.5;" x1="274" x2="382" y1="237.5" y2="237.5"/><text fill="#000000" font-family="sans-serif" font-size="14" lengthAdjust="spacing" textLength="68" x="279" y="256.0332">-username</text><text fill="#000000" font-family="sans-serif" font-size="14" lengthAdjust="spacing" textLength="65" x="279" y="273.6426">-password</text></g><!--MD5=[72be06cc7ae02ccc98efe28a50e62246]
class SNSUser--><g id="elem_SNSUser"><rect codeLine="15" fill="#F1F1F1" height="128.0469" id="SNSUser" rx="2.5" ry="2.5" style="stroke:#181818;stroke-width:0.5;" width="136" x="871" y="261"/><ellipse cx="907.6" cy="277" fill="#ADD1B2" rx="11" ry="11" style="stroke:#181818;stroke-width:1.0;"/><path d="M909.6,273.5 Q909.8031,273 910.0375,272.75 Q910.2719,272.5 910.5375,272.5 Q911.0063,272.5 911.3031,272.7813 Q911.6,273.0625 911.6,273.7188 L911.6,275.2813 Q911.6,275.9375 911.3188,276.2188 Q911.0375,276.5 910.6,276.5 Q910.2094,276.5 909.9594,276.3281 Q909.7094,276.1563 909.6,275.7031 Q909.5531,275.3906 909.3813,275.2188 Q909.0688,274.8906 908.5063,274.7031 Q907.9438,274.5 907.3813,274.5 Q906.6781,274.5 906.0844,274.7813 Q905.5063,275.0625 905.0531,275.6875 Q904.6,276.3125 904.6,277.1719 L904.6,278.0938 Q904.6,279.125 905.4438,279.8125 Q906.2875,280.5 907.7875,280.5 Q908.6781,280.5 909.3031,280.2969 Q909.6625,280.1875 910.0688,279.8281 Q910.3344,279.625 910.475,279.5625 Q910.6156,279.5 910.7875,279.5 Q911.1156,279.5 911.35,279.7656 Q911.6,280.0156 911.6,280.375 Q911.6,280.7188 911.2563,281.125 Q910.7563,281.7188 909.9594,282.0469 Q908.9125,282.5 907.6313,282.5 Q906.1313,282.5 904.9281,281.9063 Q903.9594,281.4375 903.2719,280.4219 Q902.6,279.4063 902.6,278.2031 L902.6,277.1094 Q902.6,275.8594 903.1938,274.7656 Q903.8031,273.6719 904.85,273.0938 Q905.9125,272.5 907.1,272.5 Q907.8188,272.5 908.4438,272.75 Q909.0688,273 909.6,273.5 Z " fill="#000000"/><text fill="#000000" font-family="sans-serif" font-size="14" lengthAdjust="spacing" textLength="56" x="926.4" y="282.7285">SNSUser</text><line style="stroke:#181818;stroke-width:0.5;" x1="872" x2="1006" y1="293" y2="293"/><text fill="#000000" font-family="sans-serif" font-size="14" lengthAdjust="spacing" textLength="94" x="877" y="311.5332">-phoneNumber</text><text fill="#000000" font-family="sans-serif" font-size="14" lengthAdjust="spacing" textLength="38" x="877" y="329.1426">-email</text><text fill="#000000" font-family="sans-serif" font-size="14" lengthAdjust="spacing" textLength="63" x="877" y="346.752">-birthDate</text><text fill="#000000" font-family="sans-serif" font-size="14" lengthAdjust="spacing" textLength="81" x="877" y="364.3613">-SNSNumber</text><text fill="#000000" font-family="sans-serif" font-size="14" lengthAdjust="spacing" textLength="124" x="877" y="381.9707">-citizenCardNumber</text></g><!--MD5=[8d21a970f1bd1e0e0584d0ecf91221be]
class ScheduleVaccine--><g id="elem_ScheduleVaccine"><rect codeLine="23" fill="#F1F1F1" height="128.0469" id="ScheduleVaccine" rx="2.5" ry="2.5" style="stroke:#181818;stroke-width:0.5;" width="141" x="579" y="7"/><ellipse cx="594" cy="23" fill="#ADD1B2" rx="11" ry="11" style="stroke:#181818;stroke-width:1.0;"/><path d="M596,19.5 Q596.2031,19 596.4375,18.75 Q596.6719,18.5 596.9375,18.5 Q597.4063,18.5 597.7031,18.7813 Q598,19.0625 598,19.7188 L598,21.2813 Q598,21.9375 597.7188,22.2188 Q597.4375,22.5 597,22.5 Q596.6094,22.5 596.3594,22.3281 Q596.1094,22.1563 596,21.7031 Q595.9531,21.3906 595.7813,21.2188 Q595.4688,20.8906 594.9063,20.7031 Q594.3438,20.5 593.7813,20.5 Q593.0781,20.5 592.4844,20.7813 Q591.9063,21.0625 591.4531,21.6875 Q591,22.3125 591,23.1719 L591,24.0938 Q591,25.125 591.8438,25.8125 Q592.6875,26.5 594.1875,26.5 Q595.0781,26.5 595.7031,26.2969 Q596.0625,26.1875 596.4688,25.8281 Q596.7344,25.625 596.875,25.5625 Q597.0156,25.5 597.1875,25.5 Q597.5156,25.5 597.75,25.7656 Q598,26.0156 598,26.375 Q598,26.7188 597.6563,27.125 Q597.1563,27.7188 596.3594,28.0469 Q595.3125,28.5 594.0313,28.5 Q592.5313,28.5 591.3281,27.9063 Q590.3594,27.4375 589.6719,26.4219 Q589,25.4063 589,24.2031 L589,23.1094 Q589,21.8594 589.5938,20.7656 Q590.2031,19.6719 591.25,19.0938 Q592.3125,18.5 593.5,18.5 Q594.2188,18.5 594.8438,18.75 Q595.4688,19 596,19.5 Z " fill="#000000"/><text fill="#000000" font-family="sans-serif" font-size="14" lengthAdjust="spacing" textLength="109" x="608" y="28.7285">ScheduleVaccine</text><line style="stroke:#181818;stroke-width:0.5;" x1="580" x2="719" y1="39" y2="39"/><text fill="#000000" font-family="sans-serif" font-size="14" lengthAdjust="spacing" textLength="81" x="585" y="57.5332">-SNSNumber</text><text fill="#000000" font-family="sans-serif" font-size="14" lengthAdjust="spacing" textLength="119" x="585" y="75.1426">-vaccinationCenter</text><text fill="#000000" font-family="sans-serif" font-size="14" lengthAdjust="spacing" textLength="33" x="585" y="92.752">-date</text><text fill="#000000" font-family="sans-serif" font-size="14" lengthAdjust="spacing" textLength="31" x="585" y="110.3613">-time</text><text fill="#000000" font-family="sans-serif" font-size="14" lengthAdjust="spacing" textLength="97" x="585" y="127.9707">-typeOfVaccine</text></g><!--MD5=[7421f545a0d8420c5bec41e74b387d9c]
class Employee--><g id="elem_Employee"><rect codeLine="30" fill="#F1F1F1" height="145.6563" id="Employee" rx="2.5" ry="2.5" style="stroke:#181818;stroke-width:0.5;" width="136" x="581.5" y="170"/><ellipse cx="615.4" cy="186" fill="#ADD1B2" rx="11" ry="11" style="stroke:#181818;stroke-width:1.0;"/><path d="M617.4,182.5 Q617.6031,182 617.8375,181.75 Q618.0719,181.5 618.3375,181.5 Q618.8063,181.5 619.1031,181.7813 Q619.4,182.0625 619.4,182.7188 L619.4,184.2813 Q619.4,184.9375 619.1188,185.2188 Q618.8375,185.5 618.4,185.5 Q618.0094,185.5 617.7594,185.3281 Q617.5094,185.1563 617.4,184.7031 Q617.3531,184.3906 617.1813,184.2188 Q616.8688,183.8906 616.3063,183.7031 Q615.7438,183.5 615.1813,183.5 Q614.4781,183.5 613.8844,183.7813 Q613.3063,184.0625 612.8531,184.6875 Q612.4,185.3125 612.4,186.1719 L612.4,187.0938 Q612.4,188.125 613.2438,188.8125 Q614.0875,189.5 615.5875,189.5 Q616.4781,189.5 617.1031,189.2969 Q617.4625,189.1875 617.8688,188.8281 Q618.1344,188.625 618.275,188.5625 Q618.4156,188.5 618.5875,188.5 Q618.9156,188.5 619.15,188.7656 Q619.4,189.0156 619.4,189.375 Q619.4,189.7188 619.0563,190.125 Q618.5563,190.7188 617.7594,191.0469 Q616.7125,191.5 615.4313,191.5 Q613.9313,191.5 612.7281,190.9063 Q611.7594,190.4375 611.0719,189.4219 Q610.4,188.4063 610.4,187.2031 L610.4,186.1094 Q610.4,184.8594 610.9938,183.7656 Q611.6031,182.6719 612.65,182.0938 Q613.7125,181.5 614.9,181.5 Q615.6188,181.5 616.2438,181.75 Q616.8688,182 617.4,182.5 Z " fill="#000000"/><text fill="#000000" font-family="sans-serif" font-size="14" lengthAdjust="spacing" textLength="62" x="633.6" y="191.7285">Employee</text><line style="stroke:#181818;stroke-width:0.5;" x1="582.5" x2="716.5" y1="202" y2="202"/><text fill="#000000" font-family="sans-serif" font-size="14" lengthAdjust="spacing" textLength="40" x="587.5" y="220.5332">-name</text><text fill="#000000" font-family="sans-serif" font-size="14" lengthAdjust="spacing" textLength="38" x="587.5" y="238.1426">-email</text><text fill="#000000" font-family="sans-serif" font-size="14" lengthAdjust="spacing" textLength="56" x="587.5" y="255.752">-address</text><text fill="#000000" font-family="sans-serif" font-size="14" lengthAdjust="spacing" textLength="94" x="587.5" y="273.3613">-phoneNumber</text><text fill="#000000" font-family="sans-serif" font-size="14" lengthAdjust="spacing" textLength="124" x="587.5" y="290.9707">-citizenCardNumber</text><text fill="#000000" font-family="sans-serif" font-size="14" lengthAdjust="spacing" textLength="29" x="587.5" y="308.5801">-role</text></g><!--MD5=[3861bdece64e1cdd9c1d7c0b91465d40]
link SNSUser to Company--><g id="link_SNSUser_Company"><path codeLine="38" d="M870.93,354.84 C847.81,362.68 821.45,369 796.5,369 C185,369 185,369 185,369 C155.37,369 123.84,358.76 99.14,348.16 " fill="none" id="SNSUser-Company" style="stroke:#181818;stroke-width:1.0;"/><polygon fill="#000000" points="451.0002,360.1325,460.0195,363.1496,460.0704,357.272,451.0002,360.1325" style="stroke:#000000;stroke-width:1.0;"/><text fill="#000000" font-family="sans-serif" font-size="13" lengthAdjust="spacing" textLength="45" x="465" y="365.4951">is client</text><text fill="#000000" font-family="sans-serif" font-size="13" lengthAdjust="spacing" textLength="5" x="858.2114" y="372.4905">*</text><text fill="#000000" font-family="sans-serif" font-size="13" lengthAdjust="spacing" textLength="7" x="107.0514" y="366.6804">1</text></g><!--MD5=[5448e79142bdfcbfebd9929e0faf45a6]
link Company to Receptionist--><g id="link_Company_Receptionist"><path codeLine="39" d="M99.08,311.46 C146.79,297.13 222.06,274.52 272.93,259.24 " fill="none" id="Company-Receptionist" style="stroke:#181818;stroke-width:1.0;"/><polygon fill="#000000" points="169.7886,266.7374,160.2805,266.5248,161.9714,272.1541,169.7886,266.7374" style="stroke:#000000;stroke-width:1.0;"/><text fill="#000000" font-family="sans-serif" font-size="13" lengthAdjust="spacing" textLength="37" x="174" y="273.4951">knows</text><text fill="#000000" font-family="sans-serif" font-size="13" lengthAdjust="spacing" textLength="7" x="106.9818" y="324.1313">1</text><text fill="#000000" font-family="sans-serif" font-size="13" lengthAdjust="spacing" textLength="5" x="259.8342" y="276.1532">*</text></g><!--MD5=[63360e778bc0d8ef58348331d609200a]
link ScheduleVaccine to SNSUser--><g id="link_ScheduleVaccine_SNSUser"><path codeLine="40" d="M720.1,132.49 C765.8,172.86 825.27,225.4 870.53,265.39 " fill="none" id="ScheduleVaccine-SNSUser" style="stroke:#181818;stroke-width:1.0;"/><polygon fill="#000000" points="789.7471,181.4862,784.9144,173.2951,781.0227,177.7001,789.7471,181.4862" style="stroke:#000000;stroke-width:1.0;"/><text fill="#000000" font-family="sans-serif" font-size="13" lengthAdjust="spacing" textLength="14" x="795" y="183.4951">for</text><text fill="#000000" font-family="sans-serif" font-size="13" lengthAdjust="spacing" textLength="7" x="728.2047" y="153.6022">1</text><text fill="#000000" font-family="sans-serif" font-size="13" lengthAdjust="spacing" textLength="5" x="858.2112" y="273.5785">*</text></g><!--MD5=[d7626ca624fb3224570ce4b41bf1056d]
link Receptionist to ScheduleVaccine--><g id="link_Receptionist_ScheduleVaccine"><path codeLine="41" d="M383.2,213.82 C437.14,184.78 520.15,140.09 578.94,108.45 " fill="none" id="Receptionist-ScheduleVaccine" style="stroke:#181818;stroke-width:1.0;"/><polygon fill="#000000" points="453.4026,130.8058,444.0452,132.5054,446.8313,137.681,453.4026,130.8058" style="stroke:#000000;stroke-width:1.0;"/><text fill="#000000" font-family="sans-serif" font-size="13" lengthAdjust="spacing" textLength="59" x="458" y="138.4951">schedules</text><text fill="#000000" font-family="sans-serif" font-size="13" lengthAdjust="spacing" textLength="7" x="391.0878" y="224.478">1</text><text fill="#000000" font-family="sans-serif" font-size="13" lengthAdjust="spacing" textLength="5" x="565.9491" y="126.9329">*</text></g><!--MD5=[06bb7d2a85a007b79d10922b2d5e4cdd]
link Receptionist to Employee--><g id="link_Receptionist_Employee"><path codeLine="42" d="M383.2,243 C437.86,243 522.35,243 581.25,243 " fill="none" id="Receptionist-Employee" style="stroke:#181818;stroke-width:1.0;"/><polygon fill="#000000" points="473,234.1758,463.9549,231.2369,463.9549,237.1147,473,234.1758" style="stroke:#000000;stroke-width:1.0;"/><text fill="#000000" font-family="sans-serif" font-size="13" lengthAdjust="spacing" textLength="21" x="477" y="239.4951">is a</text><text fill="#000000" font-family="sans-serif" font-size="13" lengthAdjust="spacing" textLength="7" x="391.0878" y="257.579">1</text><text fill="#000000" font-family="sans-serif" font-size="13" lengthAdjust="spacing" textLength="5" x="568.5117" y="257.4081">*</text></g><!--MD5=[68965f19680a4300fc2a69bbf9b63055]
@startuml
hide methods
left to right direction
skinparam classAttributeIconSize 0


class Company {
  -designation
}

class Receptionist {
  -username
  -password
}

class SNSUser {
  -phoneNumber
  -email
  -birthDate
  -SNSNumber
  -citizenCardNumber
}

class ScheduleVaccine{
- SNSNumber
- vaccinationCenter
- date
- time
- typeOfVaccine
}
class Employee {
-name
    -email
    -address
    -phoneNumber
    -citizenCardNumber
    -role
    }
SNSUser "*"- - -"1" Company : is client >
Company "1"- - -"*" Receptionist : knows >
ScheduleVaccine "1"- - -"*" SNSUser : for >
Receptionist "1"- - -"*" ScheduleVaccine : schedules >
Receptionist "1"- - -"*" Employee : is a >

@enduml

PlantUML version 1.2022.4(Sat Apr 09 14:29:17 BST 2022)
(GPL source distribution)
Java Runtime: OpenJDK Runtime Environment
JVM: OpenJDK 64-Bit Server VM
Default Encoding: Cp1252
Language: pt
Country: PT
--></g></svg>