<?xml version="1.0" encoding="UTF-8" standalone="no"?><svg xmlns="http://www.w3.org/2000/svg" xmlns:xlink="http://www.w3.org/1999/xlink" contentStyleType="text/css" height="366px" preserveAspectRatio="none" style="width:860px;height:366px;background:#FFFFFF;" version="1.1" viewBox="0 0 860 366" width="860px" zoomAndPan="magnify"><defs/><g><!--MD5=[02e4b9b7573f1156f41e60aa5b4e25a4]
class Company--><g id="elem_Company"><rect codeLine="6" fill="#F1F1F1" height="57.6094" id="Company" rx="2.5" ry="2.5" style="stroke:#181818;stroke-width:0.5;" width="92" x="7" y="193.5"/><ellipse cx="22" cy="209.5" fill="#ADD1B2" rx="11" ry="11" style="stroke:#181818;stroke-width:1.0;"/><path d="M24,206 Q24.2031,205.5 24.4375,205.25 Q24.6719,205 24.9375,205 Q25.4063,205 25.7031,205.2813 Q26,205.5625 26,206.2188 L26,207.7813 Q26,208.4375 25.7188,208.7188 Q25.4375,209 25,209 Q24.6094,209 24.3594,208.8281 Q24.1094,208.6563 24,208.2031 Q23.9531,207.8906 23.7813,207.7188 Q23.4688,207.3906 22.9063,207.2031 Q22.3438,207 21.7813,207 Q21.0781,207 20.4844,207.2813 Q19.9063,207.5625 19.4531,208.1875 Q19,208.8125 19,209.6719 L19,210.5938 Q19,211.625 19.8438,212.3125 Q20.6875,213 22.1875,213 Q23.0781,213 23.7031,212.7969 Q24.0625,212.6875 24.4688,212.3281 Q24.7344,212.125 24.875,212.0625 Q25.0156,212 25.1875,212 Q25.5156,212 25.75,212.2656 Q26,212.5156 26,212.875 Q26,213.2188 25.6563,213.625 Q25.1563,214.2188 24.3594,214.5469 Q23.3125,215 22.0313,215 Q20.5313,215 19.3281,214.4063 Q18.3594,213.9375 17.6719,212.9219 Q17,211.9063 17,210.7031 L17,209.6094 Q17,208.3594 17.5938,207.2656 Q18.2031,206.1719 19.25,205.5938 Q20.3125,205 21.5,205 Q22.2188,205 22.8438,205.25 Q23.4688,205.5 24,206 Z " fill="#000000"/><text fill="#000000" font-family="sans-serif" font-size="14" lengthAdjust="spacing" textLength="60" x="36" y="215.2285">Company</text><line style="stroke:#181818;stroke-width:0.5;" x1="8" x2="98" y1="225.5" y2="225.5"/><text fill="#000000" font-family="sans-serif" font-size="14" lengthAdjust="spacing" textLength="78" x="13" y="244.0332">-designation</text></g><!--MD5=[da547346deef918ea16944ba046651ef]
class Administrator--><g id="elem_Administrator"><rect codeLine="10" fill="#F1F1F1" height="75.2188" id="Administrator" rx="2.5" ry="2.5" style="stroke:#181818;stroke-width:0.5;" width="115" x="273" y="185"/><ellipse cx="288" cy="201" fill="#ADD1B2" rx="11" ry="11" style="stroke:#181818;stroke-width:1.0;"/><path d="M290,197.5 Q290.2031,197 290.4375,196.75 Q290.6719,196.5 290.9375,196.5 Q291.4063,196.5 291.7031,196.7813 Q292,197.0625 292,197.7188 L292,199.2813 Q292,199.9375 291.7188,200.2188 Q291.4375,200.5 291,200.5 Q290.6094,200.5 290.3594,200.3281 Q290.1094,200.1563 290,199.7031 Q289.9531,199.3906 289.7813,199.2188 Q289.4688,198.8906 288.9063,198.7031 Q288.3438,198.5 287.7813,198.5 Q287.0781,198.5 286.4844,198.7813 Q285.9063,199.0625 285.4531,199.6875 Q285,200.3125 285,201.1719 L285,202.0938 Q285,203.125 285.8438,203.8125 Q286.6875,204.5 288.1875,204.5 Q289.0781,204.5 289.7031,204.2969 Q290.0625,204.1875 290.4688,203.8281 Q290.7344,203.625 290.875,203.5625 Q291.0156,203.5 291.1875,203.5 Q291.5156,203.5 291.75,203.7656 Q292,204.0156 292,204.375 Q292,204.7188 291.6563,205.125 Q291.1563,205.7188 290.3594,206.0469 Q289.3125,206.5 288.0313,206.5 Q286.5313,206.5 285.3281,205.9063 Q284.3594,205.4375 283.6719,204.4219 Q283,203.4063 283,202.2031 L283,201.1094 Q283,199.8594 283.5938,198.7656 Q284.2031,197.6719 285.25,197.0938 Q286.3125,196.5 287.5,196.5 Q288.2188,196.5 288.8438,196.75 Q289.4688,197 290,197.5 Z " fill="#000000"/><text fill="#000000" font-family="sans-serif" font-size="14" lengthAdjust="spacing" textLength="83" x="302" y="206.7285">Administrator</text><line style="stroke:#181818;stroke-width:0.5;" x1="274" x2="387" y1="217" y2="217"/><text fill="#000000" font-family="sans-serif" font-size="14" lengthAdjust="spacing" textLength="68" x="279" y="235.5332">-username</text><text fill="#000000" font-family="sans-serif" font-size="14" lengthAdjust="spacing" textLength="65" x="279" y="253.1426">-password</text></g><!--MD5=[03960189e81aa2c066c762ffabbee709]
class Receptionist--><g id="elem_Receptionist"><rect codeLine="15" fill="#F1F1F1" height="75.2188" id="Receptionist" rx="2.5" ry="2.5" style="stroke:#181818;stroke-width:0.5;" width="110" x="533" y="7"/><ellipse cx="548" cy="23" fill="#ADD1B2" rx="11" ry="11" style="stroke:#181818;stroke-width:1.0;"/><path d="M550,19.5 Q550.2031,19 550.4375,18.75 Q550.6719,18.5 550.9375,18.5 Q551.4063,18.5 551.7031,18.7813 Q552,19.0625 552,19.7188 L552,21.2813 Q552,21.9375 551.7188,22.2188 Q551.4375,22.5 551,22.5 Q550.6094,22.5 550.3594,22.3281 Q550.1094,22.1563 550,21.7031 Q549.9531,21.3906 549.7813,21.2188 Q549.4688,20.8906 548.9063,20.7031 Q548.3438,20.5 547.7813,20.5 Q547.0781,20.5 546.4844,20.7813 Q545.9063,21.0625 545.4531,21.6875 Q545,22.3125 545,23.1719 L545,24.0938 Q545,25.125 545.8438,25.8125 Q546.6875,26.5 548.1875,26.5 Q549.0781,26.5 549.7031,26.2969 Q550.0625,26.1875 550.4688,25.8281 Q550.7344,25.625 550.875,25.5625 Q551.0156,25.5 551.1875,25.5 Q551.5156,25.5 551.75,25.7656 Q552,26.0156 552,26.375 Q552,26.7188 551.6563,27.125 Q551.1563,27.7188 550.3594,28.0469 Q549.3125,28.5 548.0313,28.5 Q546.5313,28.5 545.3281,27.9063 Q544.3594,27.4375 543.6719,26.4219 Q543,25.4063 543,24.2031 L543,23.1094 Q543,21.8594 543.5938,20.7656 Q544.2031,19.6719 545.25,19.0938 Q546.3125,18.5 547.5,18.5 Q548.2188,18.5 548.8438,18.75 Q549.4688,19 550,19.5 Z " fill="#000000"/><text fill="#000000" font-family="sans-serif" font-size="14" lengthAdjust="spacing" textLength="78" x="562" y="28.7285">Receptionist</text><line style="stroke:#181818;stroke-width:0.5;" x1="534" x2="642" y1="39" y2="39"/><text fill="#000000" font-family="sans-serif" font-size="14" lengthAdjust="spacing" textLength="68" x="539" y="57.5332">-username</text><text fill="#000000" font-family="sans-serif" font-size="14" lengthAdjust="spacing" textLength="65" x="539" y="75.1426">-password</text></g><!--MD5=[2d935fd2dd068a13da1ae531f9857c4f]
class CenterCoordinator--><g id="elem_CenterCoordinator"><rect codeLine="20" fill="#F1F1F1" height="75.2188" id="CenterCoordinator" rx="2.5" ry="2.5" style="stroke:#181818;stroke-width:0.5;" width="150" x="513" y="117"/><ellipse cx="528" cy="133" fill="#ADD1B2" rx="11" ry="11" style="stroke:#181818;stroke-width:1.0;"/><path d="M530,129.5 Q530.2031,129 530.4375,128.75 Q530.6719,128.5 530.9375,128.5 Q531.4063,128.5 531.7031,128.7813 Q532,129.0625 532,129.7188 L532,131.2813 Q532,131.9375 531.7188,132.2188 Q531.4375,132.5 531,132.5 Q530.6094,132.5 530.3594,132.3281 Q530.1094,132.1563 530,131.7031 Q529.9531,131.3906 529.7813,131.2188 Q529.4688,130.8906 528.9063,130.7031 Q528.3438,130.5 527.7813,130.5 Q527.0781,130.5 526.4844,130.7813 Q525.9063,131.0625 525.4531,131.6875 Q525,132.3125 525,133.1719 L525,134.0938 Q525,135.125 525.8438,135.8125 Q526.6875,136.5 528.1875,136.5 Q529.0781,136.5 529.7031,136.2969 Q530.0625,136.1875 530.4688,135.8281 Q530.7344,135.625 530.875,135.5625 Q531.0156,135.5 531.1875,135.5 Q531.5156,135.5 531.75,135.7656 Q532,136.0156 532,136.375 Q532,136.7188 531.6563,137.125 Q531.1563,137.7188 530.3594,138.0469 Q529.3125,138.5 528.0313,138.5 Q526.5313,138.5 525.3281,137.9063 Q524.3594,137.4375 523.6719,136.4219 Q523,135.4063 523,134.2031 L523,133.1094 Q523,131.8594 523.5938,130.7656 Q524.2031,129.6719 525.25,129.0938 Q526.3125,128.5 527.5,128.5 Q528.2188,128.5 528.8438,128.75 Q529.4688,129 530,129.5 Z " fill="#000000"/><text fill="#000000" font-family="sans-serif" font-size="14" lengthAdjust="spacing" textLength="118" x="542" y="138.7285">CenterCoordinator</text><line style="stroke:#181818;stroke-width:0.5;" x1="514" x2="662" y1="149" y2="149"/><text fill="#000000" font-family="sans-serif" font-size="14" lengthAdjust="spacing" textLength="68" x="519" y="167.5332">-username</text><text fill="#000000" font-family="sans-serif" font-size="14" lengthAdjust="spacing" textLength="65" x="519" y="185.1426">-password</text></g><!--MD5=[a059576e163b46f56762f12600c49258]
class Nurse--><g id="elem_Nurse"><rect codeLine="25" fill="#F1F1F1" height="75.2188" id="Nurse" rx="2.5" ry="2.5" style="stroke:#181818;stroke-width:0.5;" width="80" x="548" y="227"/><ellipse cx="567.95" cy="243" fill="#ADD1B2" rx="11" ry="11" style="stroke:#181818;stroke-width:1.0;"/><path d="M569.95,239.5 Q570.1531,239 570.3875,238.75 Q570.6219,238.5 570.8875,238.5 Q571.3563,238.5 571.6531,238.7813 Q571.95,239.0625 571.95,239.7188 L571.95,241.2813 Q571.95,241.9375 571.6688,242.2188 Q571.3875,242.5 570.95,242.5 Q570.5594,242.5 570.3094,242.3281 Q570.0594,242.1563 569.95,241.7031 Q569.9031,241.3906 569.7313,241.2188 Q569.4188,240.8906 568.8563,240.7031 Q568.2938,240.5 567.7313,240.5 Q567.0281,240.5 566.4344,240.7813 Q565.8563,241.0625 565.4031,241.6875 Q564.95,242.3125 564.95,243.1719 L564.95,244.0938 Q564.95,245.125 565.7938,245.8125 Q566.6375,246.5 568.1375,246.5 Q569.0281,246.5 569.6531,246.2969 Q570.0125,246.1875 570.4188,245.8281 Q570.6844,245.625 570.825,245.5625 Q570.9656,245.5 571.1375,245.5 Q571.4656,245.5 571.7,245.7656 Q571.95,246.0156 571.95,246.375 Q571.95,246.7188 571.6063,247.125 Q571.1063,247.7188 570.3094,248.0469 Q569.2625,248.5 567.9813,248.5 Q566.4813,248.5 565.2781,247.9063 Q564.3094,247.4375 563.6219,246.4219 Q562.95,245.4063 562.95,244.2031 L562.95,243.1094 Q562.95,241.8594 563.5438,240.7656 Q564.1531,239.6719 565.2,239.0938 Q566.2625,238.5 567.45,238.5 Q568.1688,238.5 568.7938,238.75 Q569.4188,239 569.95,239.5 Z " fill="#000000"/><text fill="#000000" font-family="sans-serif" font-size="14" lengthAdjust="spacing" textLength="37" x="583.05" y="248.7285">Nurse</text><line style="stroke:#181818;stroke-width:0.5;" x1="549" x2="627" y1="259" y2="259"/><text fill="#000000" font-family="sans-serif" font-size="14" lengthAdjust="spacing" textLength="68" x="554" y="277.5332">-username</text><text fill="#000000" font-family="sans-serif" font-size="14" lengthAdjust="spacing" textLength="65" x="554" y="295.1426">-password</text></g><!--MD5=[7421f545a0d8420c5bec41e74b387d9c]
class Employee--><g id="elem_Employee"><rect codeLine="30" fill="#F1F1F1" height="75.2188" id="Employee" rx="2.5" ry="2.5" style="stroke:#181818;stroke-width:0.5;" width="94" x="759" y="185"/><ellipse cx="774" cy="201" fill="#ADD1B2" rx="11" ry="11" style="stroke:#181818;stroke-width:1.0;"/><path d="M776,197.5 Q776.2031,197 776.4375,196.75 Q776.6719,196.5 776.9375,196.5 Q777.4063,196.5 777.7031,196.7813 Q778,197.0625 778,197.7188 L778,199.2813 Q778,199.9375 777.7188,200.2188 Q777.4375,200.5 777,200.5 Q776.6094,200.5 776.3594,200.3281 Q776.1094,200.1563 776,199.7031 Q775.9531,199.3906 775.7813,199.2188 Q775.4688,198.8906 774.9063,198.7031 Q774.3438,198.5 773.7813,198.5 Q773.0781,198.5 772.4844,198.7813 Q771.9063,199.0625 771.4531,199.6875 Q771,200.3125 771,201.1719 L771,202.0938 Q771,203.125 771.8438,203.8125 Q772.6875,204.5 774.1875,204.5 Q775.0781,204.5 775.7031,204.2969 Q776.0625,204.1875 776.4688,203.8281 Q776.7344,203.625 776.875,203.5625 Q777.0156,203.5 777.1875,203.5 Q777.5156,203.5 777.75,203.7656 Q778,204.0156 778,204.375 Q778,204.7188 777.6563,205.125 Q777.1563,205.7188 776.3594,206.0469 Q775.3125,206.5 774.0313,206.5 Q772.5313,206.5 771.3281,205.9063 Q770.3594,205.4375 769.6719,204.4219 Q769,203.4063 769,202.2031 L769,201.1094 Q769,199.8594 769.5938,198.7656 Q770.2031,197.6719 771.25,197.0938 Q772.3125,196.5 773.5,196.5 Q774.2188,196.5 774.8438,196.75 Q775.4688,197 776,197.5 Z " fill="#000000"/><text fill="#000000" font-family="sans-serif" font-size="14" lengthAdjust="spacing" textLength="62" x="788" y="206.7285">Employee</text><line style="stroke:#181818;stroke-width:0.5;" x1="760" x2="852" y1="217" y2="217"/><text fill="#000000" font-family="sans-serif" font-size="14" lengthAdjust="spacing" textLength="68" x="765" y="235.5332">-username</text><text fill="#000000" font-family="sans-serif" font-size="14" lengthAdjust="spacing" textLength="65" x="765" y="253.1426">-password</text></g><!--MD5=[eaea43e34e45c5b9d20b595fc78f1f20]
link Company to Administrator--><g id="link_Company_Administrator"><path codeLine="36" d="M99.18,222.5 C146.66,222.5 221.44,222.5 272.83,222.5 " fill="none" id="Company-Administrator" style="stroke:#181818;stroke-width:1.0;"/><polygon fill="#000000" points="170,213.6758,160.9549,210.7369,160.9549,216.6147,170,213.6758" style="stroke:#000000;stroke-width:1.0;"/><text fill="#000000" font-family="sans-serif" font-size="13" lengthAdjust="spacing" textLength="37" x="174" y="218.9951">knows</text><text fill="#000000" font-family="sans-serif" font-size="13" lengthAdjust="spacing" textLength="7" x="107.0978" y="237.3293">1</text><text fill="#000000" font-family="sans-serif" font-size="13" lengthAdjust="spacing" textLength="5" x="260.1207" y="237.0286">*</text></g><!--MD5=[64c52275ea9d22bde431e3436d41be0c]
link Administrator to Receptionist--><g id="link_Administrator_Receptionist"><path codeLine="37" d="M379.57,184.92 C391.97,175.48 405.38,165.48 418,156.5 C455.71,129.66 499.27,100.84 532.72,79.16 " fill="none" id="Administrator-Receptionist" style="stroke:#181818;stroke-width:1.0;"/><polygon fill="#000000" points="427.1143,100.8346,418.0014,103.556,421.3415,108.3927,427.1143,100.8346" style="stroke:#000000;stroke-width:1.0;"/><text fill="#000000" font-family="sans-serif" font-size="13" lengthAdjust="spacing" textLength="50" x="432" y="108.9951">registers</text><text fill="#000000" font-family="sans-serif" font-size="13" lengthAdjust="spacing" textLength="7" x="380.972" y="174.0235">1</text><text fill="#000000" font-family="sans-serif" font-size="13" lengthAdjust="spacing" textLength="5" x="519.9558" y="98.3965">*</text></g><!--MD5=[e7c2f1214fae8a9df196b8270f12b77f]
link Administrator to CenterCoordinator--><g id="link_Administrator_CenterCoordinator"><path codeLine="38" d="M388.2,207.41 C424.96,197.62 473.22,184.78 512.98,174.2 " fill="none" id="Administrator-CenterCoordinator" style="stroke:#181818;stroke-width:1.0;"/><polygon fill="#000000" points="427.8318,172.3898,418.3351,171.8761,419.8469,177.5562,427.8318,172.3898" style="stroke:#000000;stroke-width:1.0;"/><text fill="#000000" font-family="sans-serif" font-size="13" lengthAdjust="spacing" textLength="50" x="432" y="178.9951">registers</text><text fill="#000000" font-family="sans-serif" font-size="13" lengthAdjust="spacing" textLength="7" x="396.0413" y="220.0052">1</text><text fill="#000000" font-family="sans-serif" font-size="13" lengthAdjust="spacing" textLength="5" x="499.9858" y="190.5585">*</text></g><!--MD5=[e2ddcc32583ff1a2f6fdd8d9fe473f71]
link Administrator to Nurse--><g id="link_Administrator_Nurse"><path codeLine="39" d="M388.2,231.82 C436.72,239.79 505.28,251.06 547.89,258.07 " fill="none" id="Administrator-Nurse" style="stroke:#181818;stroke-width:1.0;"/><polygon fill="#000000" points="427.9338,229.4868,419.4852,225.1196,418.5318,230.9197,427.9338,229.4868" style="stroke:#000000;stroke-width:1.0;"/><text fill="#000000" font-family="sans-serif" font-size="13" lengthAdjust="spacing" textLength="50" x="432" y="233.9951">registers</text><text fill="#000000" font-family="sans-serif" font-size="13" lengthAdjust="spacing" textLength="7" x="396.0413" y="247.5428">1</text><text fill="#000000" font-family="sans-serif" font-size="13" lengthAdjust="spacing" textLength="5" x="535.0338" y="271.8668">*</text></g><!--MD5=[06bb7d2a85a007b79d10922b2d5e4cdd]
link Receptionist to Employee--><g id="link_Receptionist_Employee"><path codeLine="40" d="M640.73,82.18 C648.27,87.89 655.89,93.79 663,99.5 C697.46,127.17 735.22,160 763.14,184.79 " fill="none" id="Receptionist-Employee" style="stroke:#181818;stroke-width:1.0;"/><polygon fill="#000000" points="701.8318,120.8878,696.788,112.8249,693.012,117.3295,701.8318,120.8878" style="stroke:#000000;stroke-width:1.0;"/><text fill="#000000" font-family="sans-serif" font-size="13" lengthAdjust="spacing" textLength="21" x="707" y="122.9951">is a</text><text fill="#000000" font-family="sans-serif" font-size="13" lengthAdjust="spacing" textLength="7" x="642.4991" y="103.8237">1</text><text fill="#000000" font-family="sans-serif" font-size="13" lengthAdjust="spacing" textLength="7" x="747.8821" y="174.1549">1</text></g><!--MD5=[738a6f70211648d778fec4b79664b2f5]
link CenterCoordinator to Employee--><g id="link_CenterCoordinator_Employee"><path codeLine="41" d="M663.03,177.8 C694.79,187.8 730.9,199.17 758.76,207.94 " fill="none" id="CenterCoordinator-Employee" style="stroke:#181818;stroke-width:1.0;"/><polygon fill="#000000" points="702.7692,181.1773,695.0242,175.6577,693.259,181.2643,702.7692,181.1773" style="stroke:#000000;stroke-width:1.0;"/><text fill="#000000" font-family="sans-serif" font-size="13" lengthAdjust="spacing" textLength="21" x="707" y="184.9951">is a</text><text fill="#000000" font-family="sans-serif" font-size="13" lengthAdjust="spacing" textLength="7" x="671.1284" y="194.5298">1</text><text fill="#000000" font-family="sans-serif" font-size="13" lengthAdjust="spacing" textLength="7" x="743.9904" y="220.4408">1</text></g><!--MD5=[411632688047b95e932f260c55f2de54]
link Nurse to Employee--><g id="link_Nurse_Employee"><path codeLine="42" d="M628.12,256.89 C664.83,249.75 719.77,239.07 758.67,231.51 " fill="none" id="Nurse-Employee" style="stroke:#181818;stroke-width:1.0;"/><polygon fill="#000000" points="702.9081,227.7216,693.4684,226.5628,694.5901,232.3326,702.9081,227.7216" style="stroke:#000000;stroke-width:1.0;"/><text fill="#000000" font-family="sans-serif" font-size="13" lengthAdjust="spacing" textLength="21" x="707" y="233.9951">is a</text><text fill="#000000" font-family="sans-serif" font-size="13" lengthAdjust="spacing" textLength="7" x="635.8898" y="270.4664">1</text><text fill="#000000" font-family="sans-serif" font-size="13" lengthAdjust="spacing" textLength="7" x="743.8867" y="247.6199">1</text></g><!--MD5=[8f7dd94d56b58fc07b233ccd3dd98f8c]
link Administrator to Employee--><g id="link_Administrator_Employee"><path codeLine="43" d="M374.98,260.11 C409.72,287.53 461.05,322.43 513,337.5 C577.03,356.07 600.16,359.75 663,337.5 C706.21,322.2 745.88,287.53 772.24,260.23 " fill="none" id="Administrator-Employee" style="stroke:#181818;stroke-width:1.0;"/><polygon fill="#000000" points="560.5,328.6773,551.4558,325.7356,551.454,331.6135,560.5,328.6773" style="stroke:#000000;stroke-width:1.0;"/><text fill="#000000" font-family="sans-serif" font-size="13" lengthAdjust="spacing" textLength="60" x="564.5" y="333.9951">gets list of</text><text fill="#000000" font-family="sans-serif" font-size="13" lengthAdjust="spacing" textLength="7" x="375.2796" y="281.7412">1</text><text fill="#000000" font-family="sans-serif" font-size="13" lengthAdjust="spacing" textLength="5" x="761.0078" y="281.5964">*</text></g><!--MD5=[bb25d90455c8b3f91ea06b2c0175f5f2]
@startuml
hide methods
left to right direction
skinparam classAttributeIconSize 0


class Company {
  -designation
}

class Administrator {
  -username
  -password
}

class Receptionist {
  -username
  -password
}

class CenterCoordinator {
  -username
  -password
}

class Nurse {
  -username
  -password
}

class Employee {
  -username
  -password
}


Company "1"- - -"*" Administrator : knows >
Administrator "1"- -"*" Receptionist : registers >
Administrator "1"- -"*" CenterCoordinator : registers >
Administrator "1"- -"*" Nurse : registers >
Receptionist "1"- -"1" Employee : is a >
CenterCoordinator "1"- -"1" Employee : is a >
Nurse "1"- -"1" Employee : is a >
Administrator "1"- -"*" Employee : gets list of >






@enduml

PlantUML version 1.2022.4(Sat Apr 09 14:29:17 BST 2022)
(GPL source distribution)
Java Runtime: OpenJDK Runtime Environment
JVM: OpenJDK 64-Bit Server VM
Default Encoding: Cp1252
Language: en
Country: US
--></g></svg>