<?xml version="1.0" encoding="UTF-8" standalone="no"?><svg xmlns="http://www.w3.org/2000/svg" xmlns:xlink="http://www.w3.org/1999/xlink" contentStyleType="text/css" height="1529px" preserveAspectRatio="none" style="width:2601px;height:1529px;background:#FFFFFF;" version="1.1" viewBox="0 0 2601 1529" width="2601px" zoomAndPan="magnify"><defs/><g><rect fill="#FFFFFF" height="1345.3984" style="stroke:#181818;stroke-width:1.0;" width="10" x="17.5" y="92.6094"/><rect fill="#FFFFFF" height="395.6094" style="stroke:#181818;stroke-width:1.0;" width="10" x="403.5" y="114.9609"/><rect fill="#FFFFFF" height="318.9063" style="stroke:#181818;stroke-width:1.0;" width="10" x="403.5" y="540.9219"/><rect fill="#FFFFFF" height="76.7031" style="stroke:#181818;stroke-width:1.0;" width="10" x="403.5" y="890.1797"/><rect fill="#FFFFFF" height="103.3125" style="stroke:#181818;stroke-width:1.0;" width="10" x="403.5" y="997.2344"/><rect fill="#FFFFFF" height="307.1094" style="stroke:#181818;stroke-width:1.0;" width="10" x="403.5" y="1130.8984"/><rect fill="#FFFFFF" height="30" style="stroke:#181818;stroke-width:1.0;" width="10" x="707.5" y="145.3125"/><rect fill="#FFFFFF" height="258.2031" style="stroke:#181818;stroke-width:1.0;" width="10" x="707.5" y="205.6641"/><rect fill="#FFFFFF" height="258.2031" style="stroke:#181818;stroke-width:1.0;" width="10" x="707.5" y="571.2734"/><rect fill="#FFFFFF" height="30.3516" style="stroke:#181818;stroke-width:1.0;" width="10" x="707.5" y="1027.5859"/><rect fill="#FFFFFF" height="230.4063" style="stroke:#181818;stroke-width:1.0;" width="10" x="707.5" y="1161.25"/><rect fill="#FFFFFF" height="30" style="stroke:#181818;stroke-width:1.0;" width="10" x="993.5" y="236.0156"/><rect fill="#FFFFFF" height="30" style="stroke:#181818;stroke-width:1.0;" width="10" x="993.5" y="601.625"/><rect fill="#FFFFFF" height="30" style="stroke:#181818;stroke-width:1.0;" width="10" x="993.5" y="1191.6016"/><rect fill="#FFFFFF" height="30" style="stroke:#181818;stroke-width:1.0;" width="10" x="1353.5" y="296.3672"/><rect fill="#FFFFFF" height="76.7969" style="stroke:#181818;stroke-width:1.0;" width="10" x="1705.5" y="356.7188"/><rect fill="#FFFFFF" height="76.7969" style="stroke:#181818;stroke-width:1.0;" width="10" x="1860.5" y="722.3281"/><rect fill="#FFFFFF" height="186.0547" style="stroke:#181818;stroke-width:1.0;" width="10" x="2056.5" y="1251.9531"/><rect fill="#FFFFFF" height="28" style="stroke:#181818;stroke-width:1.0;" width="10" x="2061.5" y="1290.3047"/><rect fill="#FFFFFF" height="28" style="stroke:#181818;stroke-width:1.0;" width="10" x="2061.5" y="1363.6563"/><rect fill="#FFFFFF" height="30" style="stroke:#181818;stroke-width:1.0;" width="10" x="2494.5" y="661.9766"/><rect fill="#FFFFFF" height="30" style="stroke:#181818;stroke-width:1.0;" width="10" x="2494.5" y="890.1797"/><line style="stroke:#181818;stroke-width:0.5;stroke-dasharray:5.0,5.0;" x1="22" x2="22" y1="82.6094" y2="1447.0078"/><line style="stroke:#181818;stroke-width:0.5;stroke-dasharray:5.0,5.0;" x1="408.5" x2="408.5" y1="82.6094" y2="1447.0078"/><line style="stroke:#181818;stroke-width:0.5;stroke-dasharray:5.0,5.0;" x1="712.5" x2="712.5" y1="82.6094" y2="1447.0078"/><line style="stroke:#181818;stroke-width:0.5;stroke-dasharray:5.0,5.0;" x1="998.5" x2="998.5" y1="82.6094" y2="1447.0078"/><line style="stroke:#181818;stroke-width:0.5;stroke-dasharray:5.0,5.0;" x1="1134.5" x2="1134.5" y1="82.6094" y2="1447.0078"/><line style="stroke:#181818;stroke-width:0.5;stroke-dasharray:5.0,5.0;" x1="1358.5" x2="1358.5" y1="82.6094" y2="1447.0078"/><line style="stroke:#181818;stroke-width:0.5;stroke-dasharray:5.0,5.0;" x1="1552.5" x2="1552.5" y1="82.6094" y2="1447.0078"/><line style="stroke:#181818;stroke-width:0.5;stroke-dasharray:5.0,5.0;" x1="1710.5" x2="1710.5" y1="82.6094" y2="1447.0078"/><line style="stroke:#181818;stroke-width:0.5;stroke-dasharray:5.0,5.0;" x1="1865.5" x2="1865.5" y1="82.6094" y2="1447.0078"/><line style="stroke:#181818;stroke-width:0.5;stroke-dasharray:5.0,5.0;" x1="2061.5" x2="2061.5" y1="82.6094" y2="1447.0078"/><line style="stroke:#181818;stroke-width:0.5;stroke-dasharray:5.0,5.0;" x1="2297.5" x2="2297.5" y1="1066.8906" y2="1447.0078"/><line style="stroke:#181818;stroke-width:0.5;stroke-dasharray:5.0,5.0;" x1="2499.5" x2="2499.5" y1="82.6094" y2="1447.0078"/><text fill="#000000" font-family="sans-serif" font-size="14" lengthAdjust="spacing" textLength="29" x="5" y="79.5332">User</text><ellipse cx="22.5" cy="13.5" fill="#E2E2F0" rx="8" ry="8" style="stroke:#181818;stroke-width:0.5;"/><path d="M22.5,21.5 L22.5,48.5 M9.5,29.5 L35.5,29.5 M22.5,48.5 L9.5,63.5 M22.5,48.5 L35.5,63.5 " fill="none" style="stroke:#181818;stroke-width:0.5;"/><text fill="#000000" font-family="sans-serif" font-size="14" lengthAdjust="spacing" textLength="29" x="5" y="1460.541">User</text><ellipse cx="22.5" cy="1472.1172" fill="#E2E2F0" rx="8" ry="8" style="stroke:#181818;stroke-width:0.5;"/><path d="M22.5,1480.1172 L22.5,1507.1172 M9.5,1488.1172 L35.5,1488.1172 M22.5,1507.1172 L9.5,1522.1172 M22.5,1507.1172 L35.5,1522.1172 " fill="none" style="stroke:#181818;stroke-width:0.5;"/><rect fill="#E2E2F0" height="31.6094" rx="2.5" ry="2.5" style="stroke:#181818;stroke-width:0.5;" width="164" x="326.5" y="50"/><text fill="#000000" font-family="sans-serif" font-size="14" lengthAdjust="spacing" textLength="150" x="333.5" y="71.5332">UserScheduleVaccineUI</text><rect fill="#E2E2F0" height="31.6094" rx="2.5" ry="2.5" style="stroke:#181818;stroke-width:0.5;" width="164" x="326.5" y="1446.0078"/><text fill="#000000" font-family="sans-serif" font-size="14" lengthAdjust="spacing" textLength="150" x="333.5" y="1467.541">UserScheduleVaccineUI</text><rect fill="#E2E2F0" height="31.6094" rx="2.5" ry="2.5" style="stroke:#181818;stroke-width:0.5;" width="214" x="605.5" y="50"/><text fill="#000000" font-family="sans-serif" font-size="14" lengthAdjust="spacing" textLength="200" x="612.5" y="71.5332">UserScheduleVaccineController</text><rect fill="#E2E2F0" height="31.6094" rx="2.5" ry="2.5" style="stroke:#181818;stroke-width:0.5;" width="214" x="605.5" y="1446.0078"/><text fill="#000000" font-family="sans-serif" font-size="14" lengthAdjust="spacing" textLength="200" x="612.5" y="1467.541">UserScheduleVaccineController</text><rect fill="#E2E2F0" height="31.6094" rx="2.5" ry="2.5" style="stroke:#181818;stroke-width:0.5;" width="74" x="961.5" y="50"/><text fill="#000000" font-family="sans-serif" font-size="14" lengthAdjust="spacing" textLength="60" x="968.5" y="71.5332">Company</text><rect fill="#E2E2F0" height="31.6094" rx="2.5" ry="2.5" style="stroke:#181818;stroke-width:0.5;" width="74" x="961.5" y="1446.0078"/><text fill="#000000" font-family="sans-serif" font-size="14" lengthAdjust="spacing" textLength="60" x="968.5" y="1467.541">Company</text><rect fill="#E2E2F0" height="31.6094" rx="2.5" ry="2.5" style="stroke:#181818;stroke-width:0.5;" width="178" x="1045.5" y="50"/><text fill="#000000" font-family="sans-serif" font-size="14" lengthAdjust="spacing" textLength="164" x="1052.5" y="71.5332">userStore : SNSUserStore</text><rect fill="#E2E2F0" height="31.6094" rx="2.5" ry="2.5" style="stroke:#181818;stroke-width:0.5;" width="178" x="1045.5" y="1446.0078"/><text fill="#000000" font-family="sans-serif" font-size="14" lengthAdjust="spacing" textLength="164" x="1052.5" y="1467.541">userStore : SNSUserStore</text><rect fill="#E2E2F0" height="31.6094" rx="2.5" ry="2.5" style="stroke:#181818;stroke-width:0.5;" width="250" x="1233.5" y="50"/><text fill="#000000" font-family="sans-serif" font-size="14" lengthAdjust="spacing" textLength="236" x="1240.5" y="71.5332">centerStore : VaccinationCenterStore</text><rect fill="#E2E2F0" height="31.6094" rx="2.5" ry="2.5" style="stroke:#181818;stroke-width:0.5;" width="250" x="1233.5" y="1446.0078"/><text fill="#000000" font-family="sans-serif" font-size="14" lengthAdjust="spacing" textLength="236" x="1240.5" y="1467.541">centerStore : VaccinationCenterStore</text><rect fill="#E2E2F0" height="31.6094" rx="2.5" ry="2.5" style="stroke:#181818;stroke-width:0.5;" width="118" x="1493.5" y="50"/><text fill="#000000" font-family="sans-serif" font-size="14" lengthAdjust="spacing" textLength="104" x="1500.5" y="71.5332">SNSUserMapper</text><rect fill="#E2E2F0" height="31.6094" rx="2.5" ry="2.5" style="stroke:#181818;stroke-width:0.5;" width="118" x="1493.5" y="1446.0078"/><text fill="#000000" font-family="sans-serif" font-size="14" lengthAdjust="spacing" textLength="104" x="1500.5" y="1467.541">SNSUserMapper</text><rect fill="#E2E2F0" height="31.6094" rx="2.5" ry="2.5" style="stroke:#181818;stroke-width:0.5;" width="178" x="1621.5" y="50"/><text fill="#000000" font-family="sans-serif" font-size="14" lengthAdjust="spacing" textLength="164" x="1628.5" y="71.5332">VaccinationCenterMapper</text><rect fill="#E2E2F0" height="31.6094" rx="2.5" ry="2.5" style="stroke:#181818;stroke-width:0.5;" width="178" x="1621.5" y="1446.0078"/><text fill="#000000" font-family="sans-serif" font-size="14" lengthAdjust="spacing" textLength="164" x="1628.5" y="1467.541">VaccinationCenterMapper</text><rect fill="#E2E2F0" height="31.6094" rx="2.5" ry="2.5" style="stroke:#181818;stroke-width:0.5;" width="112" x="1809.5" y="50"/><text fill="#000000" font-family="sans-serif" font-size="14" lengthAdjust="spacing" textLength="98" x="1816.5" y="71.5332">VaccineMapper</text><rect fill="#E2E2F0" height="31.6094" rx="2.5" ry="2.5" style="stroke:#181818;stroke-width:0.5;" width="112" x="1809.5" y="1446.0078"/><text fill="#000000" font-family="sans-serif" font-size="14" lengthAdjust="spacing" textLength="98" x="1816.5" y="1467.541">VaccineMapper</text><rect fill="#E2E2F0" height="31.6094" rx="2.5" ry="2.5" style="stroke:#181818;stroke-width:0.5;" width="260" x="1931.5" y="50"/><text fill="#000000" font-family="sans-serif" font-size="14" lengthAdjust="spacing" textLength="246" x="1938.5" y="71.5332">scheduleStore : ScheduleVaccineStore</text><rect fill="#E2E2F0" height="31.6094" rx="2.5" ry="2.5" style="stroke:#181818;stroke-width:0.5;" width="260" x="1931.5" y="1446.0078"/><text fill="#000000" font-family="sans-serif" font-size="14" lengthAdjust="spacing" textLength="246" x="1938.5" y="1467.541">scheduleStore : ScheduleVaccineStore</text><rect fill="#E2E2F0" height="31.6094" rx="2.5" ry="2.5" style="stroke:#181818;stroke-width:0.5;" width="192" x="2201.5" y="1446.0078"/><text fill="#000000" font-family="sans-serif" font-size="14" lengthAdjust="spacing" textLength="178" x="2208.5" y="1467.541">schedule : ScheduleVaccine</text><rect fill="#E2E2F0" height="31.6094" rx="2.5" ry="2.5" style="stroke:#181818;stroke-width:0.5;" width="192" x="2403.5" y="50"/><text fill="#000000" font-family="sans-serif" font-size="14" lengthAdjust="spacing" textLength="178" x="2410.5" y="71.5332">vaccineStore : VaccineStore</text><rect fill="#E2E2F0" height="31.6094" rx="2.5" ry="2.5" style="stroke:#181818;stroke-width:0.5;" width="192" x="2403.5" y="1446.0078"/><text fill="#000000" font-family="sans-serif" font-size="14" lengthAdjust="spacing" textLength="178" x="2410.5" y="1467.541">vaccineStore : VaccineStore</text><rect fill="#FFFFFF" height="1345.3984" style="stroke:#181818;stroke-width:1.0;" width="10" x="17.5" y="92.6094"/><rect fill="#FFFFFF" height="395.6094" style="stroke:#181818;stroke-width:1.0;" width="10" x="403.5" y="114.9609"/><rect fill="#FFFFFF" height="318.9063" style="stroke:#181818;stroke-width:1.0;" width="10" x="403.5" y="540.9219"/><rect fill="#FFFFFF" height="76.7031" style="stroke:#181818;stroke-width:1.0;" width="10" x="403.5" y="890.1797"/><rect fill="#FFFFFF" height="103.3125" style="stroke:#181818;stroke-width:1.0;" width="10" x="403.5" y="997.2344"/><rect fill="#FFFFFF" height="307.1094" style="stroke:#181818;stroke-width:1.0;" width="10" x="403.5" y="1130.8984"/><rect fill="#FFFFFF" height="30" style="stroke:#181818;stroke-width:1.0;" width="10" x="707.5" y="145.3125"/><rect fill="#FFFFFF" height="258.2031" style="stroke:#181818;stroke-width:1.0;" width="10" x="707.5" y="205.6641"/><rect fill="#FFFFFF" height="258.2031" style="stroke:#181818;stroke-width:1.0;" width="10" x="707.5" y="571.2734"/><rect fill="#FFFFFF" height="30.3516" style="stroke:#181818;stroke-width:1.0;" width="10" x="707.5" y="1027.5859"/><rect fill="#FFFFFF" height="230.4063" style="stroke:#181818;stroke-width:1.0;" width="10" x="707.5" y="1161.25"/><rect fill="#FFFFFF" height="30" style="stroke:#181818;stroke-width:1.0;" width="10" x="993.5" y="236.0156"/><rect fill="#FFFFFF" height="30" style="stroke:#181818;stroke-width:1.0;" width="10" x="993.5" y="601.625"/><rect fill="#FFFFFF" height="30" style="stroke:#181818;stroke-width:1.0;" width="10" x="993.5" y="1191.6016"/><rect fill="#FFFFFF" height="30" style="stroke:#181818;stroke-width:1.0;" width="10" x="1353.5" y="296.3672"/><rect fill="#FFFFFF" height="76.7969" style="stroke:#181818;stroke-width:1.0;" width="10" x="1705.5" y="356.7188"/><rect fill="#FFFFFF" height="76.7969" style="stroke:#181818;stroke-width:1.0;" width="10" x="1860.5" y="722.3281"/><rect fill="#FFFFFF" height="186.0547" style="stroke:#181818;stroke-width:1.0;" width="10" x="2056.5" y="1251.9531"/><rect fill="#FFFFFF" height="28" style="stroke:#181818;stroke-width:1.0;" width="10" x="2061.5" y="1290.3047"/><rect fill="#FFFFFF" height="28" style="stroke:#181818;stroke-width:1.0;" width="10" x="2061.5" y="1363.6563"/><rect fill="#FFFFFF" height="30" style="stroke:#181818;stroke-width:1.0;" width="10" x="2494.5" y="661.9766"/><rect fill="#FFFFFF" height="30" style="stroke:#181818;stroke-width:1.0;" width="10" x="2494.5" y="890.1797"/><polygon fill="#181818" points="391.5,110.9609,401.5,114.9609,391.5,118.9609,395.5,114.9609" style="stroke:#181818;stroke-width:1.0;"/><line style="stroke:#181818;stroke-width:1.0;" x1="27.5" x2="397.5" y1="114.9609" y2="114.9609"/><text fill="#000000" font-family="sans-serif" font-size="13" font-weight="bold" lengthAdjust="spacing" textLength="7" x="34.5" y="110.1045">1</text><text fill="#000000" font-family="sans-serif" font-size="13" lengthAdjust="spacing" textLength="346" x="45.5" y="110.1045">wants to schedule a vaccination appointment for themselves</text><polygon fill="#181818" points="695.5,141.3125,705.5,145.3125,695.5,149.3125,699.5,145.3125" style="stroke:#181818;stroke-width:1.0;"/><line style="stroke:#181818;stroke-width:1.0;" x1="413.5" x2="701.5" y1="145.3125" y2="145.3125"/><text fill="#000000" font-family="sans-serif" font-size="13" font-weight="bold" lengthAdjust="spacing" textLength="7" x="420.5" y="140.4561">2</text><text fill="#000000" font-family="sans-serif" font-size="13" lengthAdjust="spacing" textLength="64" x="431.5" y="140.4561">userLogin()</text><polygon fill="#181818" points="695.5,201.6641,705.5,205.6641,695.5,209.6641,699.5,205.6641" style="stroke:#181818;stroke-width:1.0;"/><line style="stroke:#181818;stroke-width:1.0;" x1="413.5" x2="701.5" y1="205.6641" y2="205.6641"/><text fill="#000000" font-family="sans-serif" font-size="13" font-weight="bold" lengthAdjust="spacing" textLength="7" x="420.5" y="200.8076">3</text><text fill="#000000" font-family="sans-serif" font-size="13" lengthAdjust="spacing" textLength="264" x="431.5" y="200.8076">vaccinationCenterListDto = getCenterListDto()</text><polygon fill="#181818" points="981.5,232.0156,991.5,236.0156,981.5,240.0156,985.5,236.0156" style="stroke:#181818;stroke-width:1.0;"/><line style="stroke:#181818;stroke-width:1.0;" x1="717.5" x2="987.5" y1="236.0156" y2="236.0156"/><text fill="#000000" font-family="sans-serif" font-size="13" font-weight="bold" lengthAdjust="spacing" textLength="7" x="724.5" y="231.1592">4</text><text fill="#000000" font-family="sans-serif" font-size="13" lengthAdjust="spacing" textLength="246" x="735.5" y="231.1592">centerStore = getVaccinationCenterStore()</text><polygon fill="#181818" points="1341.5,292.3672,1351.5,296.3672,1341.5,300.3672,1345.5,296.3672" style="stroke:#181818;stroke-width:1.0;"/><line style="stroke:#181818;stroke-width:1.0;" x1="717.5" x2="1347.5" y1="296.3672" y2="296.3672"/><text fill="#000000" font-family="sans-serif" font-size="13" font-weight="bold" lengthAdjust="spacing" textLength="7" x="724.5" y="291.5107">5</text><text fill="#000000" font-family="sans-serif" font-size="13" lengthAdjust="spacing" textLength="224" x="735.5" y="291.5107">listCenter = getVaccinationCenterList()</text><polygon fill="#181818" points="1693.5,352.7188,1703.5,356.7188,1693.5,360.7188,1697.5,356.7188" style="stroke:#181818;stroke-width:1.0;"/><line style="stroke:#181818;stroke-width:1.0;" x1="717.5" x2="1699.5" y1="356.7188" y2="356.7188"/><text fill="#000000" font-family="sans-serif" font-size="13" font-weight="bold" lengthAdjust="spacing" textLength="7" x="724.5" y="351.8623">6</text><text fill="#000000" font-family="sans-serif" font-size="13" lengthAdjust="spacing" textLength="168" x="735.5" y="351.8623">toDTO(vaccinationCenterList)</text><rect height="41.4453" style="stroke:#000000;stroke-width:1.5;fill:none;" width="242" x="1618.5" y="364.7188"/><path d="M1618.5,364.7188 L1680.5,364.7188 L1680.5,372.7188 L1670.5,382.7188 L1618.5,382.7188 L1618.5,364.7188 " fill="#EEEEEE" style="stroke:#000000;stroke-width:2.0;"/><text fill="#000000" font-family="sans-serif" font-size="13" font-weight="bold" lengthAdjust="spacing" textLength="17" x="1631.5" y="380.2139">ref</text><text fill="#000000" font-family="sans-serif" font-size="12" lengthAdjust="spacing" textLength="234" x="1622.5" y="399.1758">SD_VaccinationCenterMapper_toDTO_List</text><polygon fill="#181818" points="728.5,429.5156,718.5,433.5156,728.5,437.5156,724.5,433.5156" style="stroke:#181818;stroke-width:1.0;"/><line style="stroke:#181818;stroke-width:1.0;stroke-dasharray:2.0,2.0;" x1="722.5" x2="1709.5" y1="433.5156" y2="433.5156"/><text fill="#000000" font-family="sans-serif" font-size="13" font-weight="bold" lengthAdjust="spacing" textLength="7" x="734.5" y="428.6592">7</text><text fill="#000000" font-family="sans-serif" font-size="13" lengthAdjust="spacing" textLength="75" x="745.5" y="428.6592">listCenterDto</text><polygon fill="#181818" points="424.5,459.8672,414.5,463.8672,424.5,467.8672,420.5,463.8672" style="stroke:#181818;stroke-width:1.0;"/><line style="stroke:#181818;stroke-width:1.0;stroke-dasharray:2.0,2.0;" x1="418.5" x2="711.5" y1="463.8672" y2="463.8672"/><text fill="#000000" font-family="sans-serif" font-size="13" font-weight="bold" lengthAdjust="spacing" textLength="7" x="430.5" y="459.0107">8</text><text fill="#000000" font-family="sans-serif" font-size="13" lengthAdjust="spacing" textLength="75" x="441.5" y="459.0107">listCenterDto</text><polygon fill="#181818" points="38.5,506.5703,28.5,510.5703,38.5,514.5703,34.5,510.5703" style="stroke:#181818;stroke-width:1.0;"/><line style="stroke:#181818;stroke-width:1.0;stroke-dasharray:2.0,2.0;" x1="32.5" x2="407.5" y1="510.5703" y2="510.5703"/><text fill="#000000" font-family="sans-serif" font-size="13" font-weight="bold" lengthAdjust="spacing" textLength="7" x="44.5" y="497.5381">9</text><text fill="#000000" font-family="sans-serif" font-size="13" lengthAdjust="spacing" textLength="295" x="55.5" y="489.3623">shows vaccination centers and asks to choose one</text><text fill="#000000" font-family="sans-serif" font-size="13" lengthAdjust="spacing" textLength="132" x="59.5" y="505.7139">from the available ones</text><polygon fill="#181818" points="391.5,536.9219,401.5,540.9219,391.5,544.9219,395.5,540.9219" style="stroke:#181818;stroke-width:1.0;"/><line style="stroke:#181818;stroke-width:1.0;" x1="27.5" x2="397.5" y1="540.9219" y2="540.9219"/><text fill="#000000" font-family="sans-serif" font-size="13" font-weight="bold" lengthAdjust="spacing" textLength="14" x="34.5" y="536.0654">10</text><text fill="#000000" font-family="sans-serif" font-size="13" lengthAdjust="spacing" textLength="161" x="52.5" y="536.0654">selects a vaccination center</text><polygon fill="#181818" points="695.5,567.2734,705.5,571.2734,695.5,575.2734,699.5,571.2734" style="stroke:#181818;stroke-width:1.0;"/><line style="stroke:#181818;stroke-width:1.0;" x1="413.5" x2="701.5" y1="571.2734" y2="571.2734"/><text fill="#000000" font-family="sans-serif" font-size="13" font-weight="bold" lengthAdjust="spacing" textLength="14" x="420.5" y="566.417">11</text><text fill="#000000" font-family="sans-serif" font-size="13" lengthAdjust="spacing" textLength="214" x="438.5" y="566.417">vaccineListDto = getVaccineListDto()</text><polygon fill="#181818" points="981.5,597.625,991.5,601.625,981.5,605.625,985.5,601.625" style="stroke:#181818;stroke-width:1.0;"/><line style="stroke:#181818;stroke-width:1.0;" x1="717.5" x2="987.5" y1="601.625" y2="601.625"/><text fill="#000000" font-family="sans-serif" font-size="13" font-weight="bold" lengthAdjust="spacing" textLength="14" x="724.5" y="596.7686">12</text><text fill="#000000" font-family="sans-serif" font-size="13" lengthAdjust="spacing" textLength="184" x="742.5" y="596.7686">vaccineList = getVaccineStore()</text><polygon fill="#181818" points="2482.5,657.9766,2492.5,661.9766,2482.5,665.9766,2486.5,661.9766" style="stroke:#181818;stroke-width:1.0;"/><line style="stroke:#181818;stroke-width:1.0;" x1="717.5" x2="2488.5" y1="661.9766" y2="661.9766"/><text fill="#000000" font-family="sans-serif" font-size="13" font-weight="bold" lengthAdjust="spacing" textLength="14" x="724.5" y="657.1201">13</text><text fill="#000000" font-family="sans-serif" font-size="13" lengthAdjust="spacing" textLength="153" x="742.5" y="657.1201">vaccine = getVaccineList()</text><polygon fill="#181818" points="1848.5,718.3281,1858.5,722.3281,1848.5,726.3281,1852.5,722.3281" style="stroke:#181818;stroke-width:1.0;"/><line style="stroke:#181818;stroke-width:1.0;" x1="717.5" x2="1854.5" y1="722.3281" y2="722.3281"/><text fill="#000000" font-family="sans-serif" font-size="13" font-weight="bold" lengthAdjust="spacing" textLength="14" x="724.5" y="717.4717">14</text><text fill="#000000" font-family="sans-serif" font-size="13" lengthAdjust="spacing" textLength="109" x="742.5" y="717.4717">toDTO(vaccineList)</text><rect height="41.4453" style="stroke:#000000;stroke-width:1.5;fill:none;" width="185" x="1806.5" y="730.3281"/><path d="M1806.5,730.3281 L1868.5,730.3281 L1868.5,738.3281 L1858.5,748.3281 L1806.5,748.3281 L1806.5,730.3281 " fill="#EEEEEE" style="stroke:#000000;stroke-width:2.0;"/><text fill="#000000" font-family="sans-serif" font-size="13" font-weight="bold" lengthAdjust="spacing" textLength="17" x="1819.5" y="745.8232">ref</text><text fill="#000000" font-family="sans-serif" font-size="12" lengthAdjust="spacing" textLength="177" x="1810.5" y="764.7852">SD_VaccineMapper_toDTO_List</text><polygon fill="#181818" points="728.5,795.125,718.5,799.125,728.5,803.125,724.5,799.125" style="stroke:#181818;stroke-width:1.0;"/><line style="stroke:#181818;stroke-width:1.0;stroke-dasharray:2.0,2.0;" x1="722.5" x2="1864.5" y1="799.125" y2="799.125"/><text fill="#000000" font-family="sans-serif" font-size="13" font-weight="bold" lengthAdjust="spacing" textLength="14" x="734.5" y="794.2686">15</text><text fill="#000000" font-family="sans-serif" font-size="13" lengthAdjust="spacing" textLength="84" x="752.5" y="794.2686">vaccineListDto</text><polygon fill="#181818" points="424.5,825.4766,414.5,829.4766,424.5,833.4766,420.5,829.4766" style="stroke:#181818;stroke-width:1.0;"/><line style="stroke:#181818;stroke-width:1.0;" x1="418.5" x2="711.5" y1="829.4766" y2="829.4766"/><text fill="#000000" font-family="sans-serif" font-size="13" font-weight="bold" lengthAdjust="spacing" textLength="14" x="430.5" y="824.6201">16</text><text fill="#000000" font-family="sans-serif" font-size="13" lengthAdjust="spacing" textLength="84" x="448.5" y="824.6201">vaccineListDto</text><polygon fill="#181818" points="38.5,855.8281,28.5,859.8281,38.5,863.8281,34.5,859.8281" style="stroke:#181818;stroke-width:1.0;"/><line style="stroke:#181818;stroke-width:1.0;stroke-dasharray:2.0,2.0;" x1="32.5" x2="407.5" y1="859.8281" y2="859.8281"/><text fill="#000000" font-family="sans-serif" font-size="13" font-weight="bold" lengthAdjust="spacing" textLength="14" x="44.5" y="854.9717">17</text><text fill="#000000" font-family="sans-serif" font-size="13" lengthAdjust="spacing" textLength="276" x="62.5" y="854.9717">asks to select a vaccine from the available ones</text><polygon fill="#181818" points="391.5,886.1797,401.5,890.1797,391.5,894.1797,395.5,890.1797" style="stroke:#181818;stroke-width:1.0;"/><line style="stroke:#181818;stroke-width:1.0;" x1="27.5" x2="397.5" y1="890.1797" y2="890.1797"/><text fill="#000000" font-family="sans-serif" font-size="13" font-weight="bold" lengthAdjust="spacing" textLength="14" x="34.5" y="885.3232">18</text><text fill="#000000" font-family="sans-serif" font-size="13" lengthAdjust="spacing" textLength="179" x="52.5" y="885.3232">chooses a vaccine from the list</text><polygon fill="#181818" points="38.5,962.8828,28.5,966.8828,38.5,970.8828,34.5,966.8828" style="stroke:#181818;stroke-width:1.0;"/><line style="stroke:#181818;stroke-width:1.0;" x1="32.5" x2="407.5" y1="966.8828" y2="966.8828"/><text fill="#000000" font-family="sans-serif" font-size="13" font-weight="bold" lengthAdjust="spacing" textLength="14" x="44.5" y="953.8506">19</text><text fill="#000000" font-family="sans-serif" font-size="13" lengthAdjust="spacing" textLength="274" x="62.5" y="945.6748">asks to enter the date and time to schedule the</text><text fill="#000000" font-family="sans-serif" font-size="13" lengthAdjust="spacing" textLength="113" x="66.5" y="962.0264">vaccine (date, hour)</text><polygon fill="#181818" points="391.5,993.2344,401.5,997.2344,391.5,1001.2344,395.5,997.2344" style="stroke:#181818;stroke-width:1.0;"/><line style="stroke:#181818;stroke-width:1.0;" x1="27.5" x2="397.5" y1="997.2344" y2="997.2344"/><text fill="#000000" font-family="sans-serif" font-size="13" font-weight="bold" lengthAdjust="spacing" textLength="14" x="34.5" y="992.3779">20</text><text fill="#000000" font-family="sans-serif" font-size="13" lengthAdjust="spacing" textLength="188" x="52.5" y="992.3779">inserts the requested data (date)</text><polygon fill="#181818" points="695.5,1023.5859,705.5,1027.5859,695.5,1031.5859,699.5,1027.5859" style="stroke:#181818;stroke-width:1.0;"/><line style="stroke:#181818;stroke-width:1.0;" x1="413.5" x2="701.5" y1="1027.5859" y2="1027.5859"/><text fill="#000000" font-family="sans-serif" font-size="13" font-weight="bold" lengthAdjust="spacing" textLength="14" x="420.5" y="1022.7295">21</text><text fill="#000000" font-family="sans-serif" font-size="13" lengthAdjust="spacing" textLength="111" x="438.5" y="1022.7295">scheduleVaccine ()</text><polygon fill="#181818" points="2189.5,1053.9375,2199.5,1057.9375,2189.5,1061.9375,2193.5,1057.9375" style="stroke:#181818;stroke-width:1.0;"/><line style="stroke:#181818;stroke-width:1.0;" x1="712.5" x2="2195.5" y1="1057.9375" y2="1057.9375"/><text fill="#000000" font-family="sans-serif" font-size="13" font-weight="bold" lengthAdjust="spacing" textLength="14" x="719.5" y="1053.0811">22</text><text fill="#000000" font-family="sans-serif" font-size="13" lengthAdjust="spacing" textLength="401" x="737.5" y="1053.0811">schedule = createScheduleVaccine(date, userNumber, vaccineName)</text><rect fill="#E2E2F0" height="31.6094" rx="2.5" ry="2.5" style="stroke:#181818;stroke-width:0.5;" width="192" x="2201.5" y="1035.5859"/><text fill="#000000" font-family="sans-serif" font-size="14" lengthAdjust="spacing" textLength="178" x="2208.5" y="1057.1191">schedule : ScheduleVaccine</text><polygon fill="#181818" points="38.5,1096.5469,28.5,1100.5469,38.5,1104.5469,34.5,1100.5469" style="stroke:#181818;stroke-width:1.0;"/><line style="stroke:#181818;stroke-width:1.0;stroke-dasharray:2.0,2.0;" x1="32.5" x2="407.5" y1="1100.5469" y2="1100.5469"/><text fill="#000000" font-family="sans-serif" font-size="13" font-weight="bold" lengthAdjust="spacing" textLength="14" x="44.5" y="1095.6904">23</text><text fill="#000000" font-family="sans-serif" font-size="13" lengthAdjust="spacing" textLength="244" x="62.5" y="1095.6904">shows the schedule and asks to confirm it</text><polygon fill="#181818" points="391.5,1126.8984,401.5,1130.8984,391.5,1134.8984,395.5,1130.8984" style="stroke:#181818;stroke-width:1.0;"/><line style="stroke:#181818;stroke-width:1.0;" x1="27.5" x2="397.5" y1="1130.8984" y2="1130.8984"/><text fill="#000000" font-family="sans-serif" font-size="13" font-weight="bold" lengthAdjust="spacing" textLength="14" x="34.5" y="1126.042">24</text><text fill="#000000" font-family="sans-serif" font-size="13" lengthAdjust="spacing" textLength="141" x="52.5" y="1126.042">confirms the shown data</text><polygon fill="#181818" points="695.5,1157.25,705.5,1161.25,695.5,1165.25,699.5,1161.25" style="stroke:#181818;stroke-width:1.0;"/><line style="stroke:#181818;stroke-width:1.0;" x1="413.5" x2="701.5" y1="1161.25" y2="1161.25"/><text fill="#000000" font-family="sans-serif" font-size="13" font-weight="bold" lengthAdjust="spacing" textLength="14" x="420.5" y="1156.3936">25</text><text fill="#000000" font-family="sans-serif" font-size="13" lengthAdjust="spacing" textLength="88" x="438.5" y="1156.3936">saveSchedule()</text><polygon fill="#181818" points="981.5,1187.6016,991.5,1191.6016,981.5,1195.6016,985.5,1191.6016" style="stroke:#181818;stroke-width:1.0;"/><line style="stroke:#181818;stroke-width:1.0;" x1="717.5" x2="987.5" y1="1191.6016" y2="1191.6016"/><text fill="#000000" font-family="sans-serif" font-size="13" font-weight="bold" lengthAdjust="spacing" textLength="14" x="724.5" y="1186.7451">26</text><text fill="#000000" font-family="sans-serif" font-size="13" lengthAdjust="spacing" textLength="210" x="742.5" y="1186.7451">scheduleStore = getScheduleStore()</text><polygon fill="#181818" points="2044.5,1247.9531,2054.5,1251.9531,2044.5,1255.9531,2048.5,1251.9531" style="stroke:#181818;stroke-width:1.0;"/><line style="stroke:#181818;stroke-width:1.0;" x1="717.5" x2="2050.5" y1="1251.9531" y2="1251.9531"/><text fill="#000000" font-family="sans-serif" font-size="13" font-weight="bold" lengthAdjust="spacing" textLength="14" x="724.5" y="1247.0967">27</text><text fill="#000000" font-family="sans-serif" font-size="13" lengthAdjust="spacing" textLength="140" x="742.5" y="1247.0967">saveSchedule(schedule)</text><line style="stroke:#181818;stroke-width:1.0;" x1="2071.5" x2="2113.5" y1="1282.3047" y2="1282.3047"/><line style="stroke:#181818;stroke-width:1.0;" x1="2113.5" x2="2113.5" y1="1282.3047" y2="1295.3047"/><line style="stroke:#181818;stroke-width:1.0;" x1="2072.5" x2="2113.5" y1="1295.3047" y2="1295.3047"/><polygon fill="#181818" points="2082.5,1291.3047,2072.5,1295.3047,2082.5,1299.3047,2078.5,1295.3047" style="stroke:#181818;stroke-width:1.0;"/><text fill="#000000" font-family="sans-serif" font-size="13" font-weight="bold" lengthAdjust="spacing" textLength="14" x="2078.5" y="1277.4482">28</text><text fill="#000000" font-family="sans-serif" font-size="13" lengthAdjust="spacing" textLength="157" x="2096.5" y="1277.4482">validateSchedule(schedule)</text><line style="stroke:#181818;stroke-width:1.0;" x1="2071.5" x2="2113.5" y1="1355.6563" y2="1355.6563"/><line style="stroke:#181818;stroke-width:1.0;" x1="2113.5" x2="2113.5" y1="1355.6563" y2="1368.6563"/><line style="stroke:#181818;stroke-width:1.0;" x1="2072.5" x2="2113.5" y1="1368.6563" y2="1368.6563"/><polygon fill="#181818" points="2082.5,1364.6563,2072.5,1368.6563,2082.5,1372.6563,2078.5,1368.6563" style="stroke:#181818;stroke-width:1.0;"/><text fill="#000000" font-family="sans-serif" font-size="13" font-weight="bold" lengthAdjust="spacing" textLength="14" x="2078.5" y="1350.7998">29</text><text fill="#000000" font-family="sans-serif" font-size="13" lengthAdjust="spacing" textLength="135" x="2096.5" y="1350.7998">addSchedule(schedule)</text><polygon fill="#181818" points="38.5,1425.0078,28.5,1429.0078,38.5,1433.0078,34.5,1429.0078" style="stroke:#181818;stroke-width:1.0;"/><line style="stroke:#181818;stroke-width:1.0;stroke-dasharray:2.0,2.0;" x1="32.5" x2="402.5" y1="1429.0078" y2="1429.0078"/><text fill="#000000" font-family="sans-serif" font-size="13" font-weight="bold" lengthAdjust="spacing" textLength="14" x="44.5" y="1424.1514">30</text><text fill="#000000" font-family="sans-serif" font-size="13" lengthAdjust="spacing" textLength="320" x="62.5" y="1424.1514">informs sucess of the operation and the scheduled date</text><!--MD5=[805a9a534f9a13be02eb0a80ba865e48]
@startuml
'https://plantuml.com/sequence-diagram

autonumber

actor User
activate User

participant "UserScheduleVaccineUI" as ui
participant "UserScheduleVaccineController" as controller
participant "Company" as company
participant "userStore : SNSUserStore" as userStore
participant "centerStore : VaccinationCenterStore" as centerStore
participant "SNSUserMapper" as userMapper
participant "VaccinationCenterMapper" as centerMapper
participant "VaccineMapper" as vaccineMapper
participant "scheduleStore : ScheduleVaccineStore" as scheduleStore
participant "schedule : ScheduleVaccine" as scheduleVaccine
participant "vaccineStore : VaccineStore" as vaccineStore


User -> ui : wants to schedule a vaccination appointment for themselves
activate ui
ui -> controller : userLogin()
activate controller
deactivate controller

ui -> controller : vaccinationCenterListDto = getCenterListDto()
activate controller
controller -> company : centerStore = getVaccinationCenterStore()
activate company
deactivate company
controller -> centerStore : listCenter = getVaccinationCenterList()
activate centerStore
deactivate centerStore
controller -> centerMapper : toDTO(vaccinationCenterList)
activate centerMapper
ref over centerMapper
SD_VaccinationCenterMapper_toDTO_List
end ref
centerMapper - -> controller : listCenterDto
deactivate centerMapper
controller - -> ui : listCenterDto
deactivate controller
ui - -> User : shows vaccination centers and asks to choose one \n from the available ones
deactivate ui





User -> ui : selects a vaccination center
activate ui
ui -> controller : vaccineListDto = getVaccineListDto()
activate controller
controller -> company : vaccineList = getVaccineStore()
activate company
deactivate company
controller -> vaccineStore : vaccine = getVaccineList()
activate vaccineStore
deactivate vaccineStore
controller -> vaccineMapper : toDTO(vaccineList)
activate vaccineMapper
ref over vaccineMapper
SD_VaccineMapper_toDTO_List
end ref
vaccineMapper - -> controller : vaccineListDto
deactivate vaccineMapper
controller -> ui : vaccineListDto
deactivate controller
ui - -> User : asks to select a vaccine from the available ones
deactivate ui

User -> ui : chooses a vaccine from the list
activate ui
activate vaccineStore
deactivate vaccineStore
deactivate controller

ui -> User : asks to enter the date and time to schedule the \n vaccine (date, hour)
deactivate ui


User -> ui : inserts the requested data (date)
activate ui
ui -> controller : scheduleVaccine ()
activate controller
controller -> scheduleVaccine** : schedule = createScheduleVaccine(date, userNumber, vaccineName)
deactivate controller
ui - -> User : shows the schedule and asks to confirm it
deactivate ui



User -> ui : confirms the shown data
activate ui
ui -> controller : saveSchedule()
activate controller
controller -> company : scheduleStore = getScheduleStore()
activate company
deactivate company
controller -> scheduleStore : saveSchedule(schedule)
activate scheduleStore
scheduleStore -> scheduleStore : validateSchedule(schedule)
activate scheduleStore
deactivate scheduleStore
scheduleStore -> scheduleStore : addSchedule(schedule)
activate scheduleStore
deactivate scheduleStore
deactivate controller
ui - -> User : informs sucess of the operation and the scheduled date

@enduml

@startuml

autonumber

actor User
activate User

participant "UserScheduleVaccineUI" as ui
participant "UserScheduleVaccineController" as controller
participant "Company" as company
participant "userStore : SNSUserStore" as userStore
participant "centerStore : VaccinationCenterStore" as centerStore
participant "SNSUserMapper" as userMapper
participant "VaccinationCenterMapper" as centerMapper
participant "VaccineMapper" as vaccineMapper
participant "scheduleStore : ScheduleVaccineStore" as scheduleStore
participant "schedule : ScheduleVaccine" as scheduleVaccine
participant "vaccineStore : VaccineStore" as vaccineStore


User -> ui : wants to schedule a vaccination appointment for themselves
activate ui
ui -> controller : userLogin()
activate controller
deactivate controller

ui -> controller : vaccinationCenterListDto = getCenterListDto()
activate controller
controller -> company : centerStore = getVaccinationCenterStore()
activate company
deactivate company
controller -> centerStore : listCenter = getVaccinationCenterList()
activate centerStore
deactivate centerStore
controller -> centerMapper : toDTO(vaccinationCenterList)
activate centerMapper
ref over centerMapper
SD_VaccinationCenterMapper_toDTO_List
end ref
centerMapper - -> controller : listCenterDto
deactivate centerMapper
controller - -> ui : listCenterDto
deactivate controller
ui - -> User : shows vaccination centers and asks to choose one \n from the available ones
deactivate ui





User -> ui : selects a vaccination center
activate ui
ui -> controller : vaccineListDto = getVaccineListDto()
activate controller
controller -> company : vaccineList = getVaccineStore()
activate company
deactivate company
controller -> vaccineStore : vaccine = getVaccineList()
activate vaccineStore
deactivate vaccineStore
controller -> vaccineMapper : toDTO(vaccineList)
activate vaccineMapper
ref over vaccineMapper
SD_VaccineMapper_toDTO_List
end ref
vaccineMapper - -> controller : vaccineListDto
deactivate vaccineMapper
controller -> ui : vaccineListDto
deactivate controller
ui - -> User : asks to select a vaccine from the available ones
deactivate ui

User -> ui : chooses a vaccine from the list
activate ui
activate vaccineStore
deactivate vaccineStore
deactivate controller

ui -> User : asks to enter the date and time to schedule the \n vaccine (date, hour)
deactivate ui


User -> ui : inserts the requested data (date)
activate ui
ui -> controller : scheduleVaccine ()
activate controller
controller -> scheduleVaccine** : schedule = createScheduleVaccine(date, userNumber, vaccineName)
deactivate controller
ui - -> User : shows the schedule and asks to confirm it
deactivate ui



User -> ui : confirms the shown data
activate ui
ui -> controller : saveSchedule()
activate controller
controller -> company : scheduleStore = getScheduleStore()
activate company
deactivate company
controller -> scheduleStore : saveSchedule(schedule)
activate scheduleStore
scheduleStore -> scheduleStore : validateSchedule(schedule)
activate scheduleStore
deactivate scheduleStore
scheduleStore -> scheduleStore : addSchedule(schedule)
activate scheduleStore
deactivate scheduleStore
deactivate controller
ui - -> User : informs sucess of the operation and the scheduled date

@enduml

PlantUML version 1.2022.4(Sat Apr 09 14:29:17 BST 2022)
(GPL source distribution)
Java Runtime: OpenJDK Runtime Environment
JVM: OpenJDK 64-Bit Server VM
Default Encoding: Cp1252
Language: pt
Country: PT
--></g></svg>