<?xml version="1.0" encoding="UTF-8" standalone="no"?><svg xmlns="http://www.w3.org/2000/svg" xmlns:xlink="http://www.w3.org/1999/xlink" contentStyleType="text/css" height="516px" preserveAspectRatio="none" style="width:1325px;height:516px;background:#FFFFFF;" version="1.1" viewBox="0 0 1325 516" width="1325px" zoomAndPan="magnify"><defs/><g><!--MD5=[02e4b9b7573f1156f41e60aa5b4e25a4]
class Company--><g id="elem_Company"><rect codeLine="6" fill="#F1F1F1" height="57.6094" id="Company" rx="2.5" ry="2.5" style="stroke:#181818;stroke-width:0.5;" width="92" x="7" y="137.3564"/><ellipse cx="22" cy="153.3564" fill="#ADD1B2" rx="11" ry="11" style="stroke:#181818;stroke-width:1.0;"/><path d="M24,149.8564 Q24.2031,149.3564 24.4375,149.1064 Q24.6719,148.8564 24.9375,148.8564 Q25.4063,148.8564 25.7031,149.1377 Q26,149.4189 26,150.0752 L26,151.6377 Q26,152.2939 25.7188,152.5752 Q25.4375,152.8564 25,152.8564 Q24.6094,152.8564 24.3594,152.6846 Q24.1094,152.5127 24,152.0596 Q23.9531,151.7471 23.7813,151.5752 Q23.4688,151.2471 22.9063,151.0596 Q22.3438,150.8564 21.7813,150.8564 Q21.0781,150.8564 20.4844,151.1377 Q19.9063,151.4189 19.4531,152.0439 Q19,152.6689 19,153.5283 L19,154.4502 Q19,155.4814 19.8438,156.1689 Q20.6875,156.8564 22.1875,156.8564 Q23.0781,156.8564 23.7031,156.6533 Q24.0625,156.5439 24.4688,156.1846 Q24.7344,155.9814 24.875,155.9189 Q25.0156,155.8564 25.1875,155.8564 Q25.5156,155.8564 25.75,156.1221 Q26,156.3721 26,156.7314 Q26,157.0752 25.6563,157.4814 Q25.1563,158.0752 24.3594,158.4033 Q23.3125,158.8564 22.0313,158.8564 Q20.5313,158.8564 19.3281,158.2627 Q18.3594,157.7939 17.6719,156.7783 Q17,155.7627 17,154.5596 L17,153.4658 Q17,152.2158 17.5938,151.1221 Q18.2031,150.0283 19.25,149.4502 Q20.3125,148.8564 21.5,148.8564 Q22.2188,148.8564 22.8438,149.1064 Q23.4688,149.3564 24,149.8564 Z " fill="#000000"/><text fill="#000000" font-family="sans-serif" font-size="14" lengthAdjust="spacing" textLength="60" x="36" y="159.085">Company</text><line style="stroke:#181818;stroke-width:0.5;" x1="8" x2="98" y1="169.3564" y2="169.3564"/><text fill="#000000" font-family="sans-serif" font-size="14" lengthAdjust="spacing" textLength="78" x="13" y="187.8896">-designation</text></g><!--MD5=[72be06cc7ae02ccc98efe28a50e62246]
class SNSUser--><g id="elem_SNSUser"><rect codeLine="11" fill="#F1F1F1" height="57.6094" id="SNSUser" rx="2.5" ry="2.5" style="stroke:#181818;stroke-width:0.5;" width="93" x="295" y="225.3564"/><ellipse cx="312.25" cy="241.3564" fill="#ADD1B2" rx="11" ry="11" style="stroke:#181818;stroke-width:1.0;"/><path d="M314.25,237.8564 Q314.4531,237.3564 314.6875,237.1064 Q314.9219,236.8564 315.1875,236.8564 Q315.6563,236.8564 315.9531,237.1377 Q316.25,237.4189 316.25,238.0752 L316.25,239.6377 Q316.25,240.2939 315.9688,240.5752 Q315.6875,240.8564 315.25,240.8564 Q314.8594,240.8564 314.6094,240.6846 Q314.3594,240.5127 314.25,240.0596 Q314.2031,239.7471 314.0313,239.5752 Q313.7188,239.2471 313.1563,239.0596 Q312.5938,238.8564 312.0313,238.8564 Q311.3281,238.8564 310.7344,239.1377 Q310.1563,239.4189 309.7031,240.0439 Q309.25,240.6689 309.25,241.5283 L309.25,242.4502 Q309.25,243.4814 310.0938,244.1689 Q310.9375,244.8564 312.4375,244.8564 Q313.3281,244.8564 313.9531,244.6533 Q314.3125,244.5439 314.7188,244.1846 Q314.9844,243.9814 315.125,243.9189 Q315.2656,243.8564 315.4375,243.8564 Q315.7656,243.8564 316,244.1221 Q316.25,244.3721 316.25,244.7314 Q316.25,245.0752 315.9063,245.4814 Q315.4063,246.0752 314.6094,246.4033 Q313.5625,246.8564 312.2813,246.8564 Q310.7813,246.8564 309.5781,246.2627 Q308.6094,245.7939 307.9219,244.7783 Q307.25,243.7627 307.25,242.5596 L307.25,241.4658 Q307.25,240.2158 307.8438,239.1221 Q308.4531,238.0283 309.5,237.4502 Q310.5625,236.8564 311.75,236.8564 Q312.4688,236.8564 313.0938,237.1064 Q313.7188,237.3564 314.25,237.8564 Z " fill="#000000"/><text fill="#000000" font-family="sans-serif" font-size="14" lengthAdjust="spacing" textLength="56" x="326.75" y="247.085">SNSUser</text><line style="stroke:#181818;stroke-width:0.5;" x1="296" x2="387" y1="257.3564" y2="257.3564"/><text fill="#000000" font-family="sans-serif" font-size="14" lengthAdjust="spacing" textLength="81" x="301" y="275.8896">-SNSNumber</text></g><!--MD5=[19e445fc4d3b48519cbe33da05496394]
class Vaccine--><g id="elem_Vaccine"><rect codeLine="15" fill="#F1F1F1" height="75.2188" id="Vaccine" rx="2.5" ry="2.5" style="stroke:#181818;stroke-width:0.5;" width="101" x="1217" y="163.8564"/><ellipse cx="1240.55" cy="179.8564" fill="#ADD1B2" rx="11" ry="11" style="stroke:#181818;stroke-width:1.0;"/><path d="M1242.55,176.3564 Q1242.7531,175.8564 1242.9875,175.6064 Q1243.2219,175.3564 1243.4875,175.3564 Q1243.9563,175.3564 1244.2531,175.6377 Q1244.55,175.9189 1244.55,176.5752 L1244.55,178.1377 Q1244.55,178.7939 1244.2688,179.0752 Q1243.9875,179.3564 1243.55,179.3564 Q1243.1594,179.3564 1242.9094,179.1846 Q1242.6594,179.0127 1242.55,178.5596 Q1242.5031,178.2471 1242.3313,178.0752 Q1242.0188,177.7471 1241.4563,177.5596 Q1240.8938,177.3564 1240.3313,177.3564 Q1239.6281,177.3564 1239.0344,177.6377 Q1238.4563,177.9189 1238.0031,178.5439 Q1237.55,179.1689 1237.55,180.0283 L1237.55,180.9502 Q1237.55,181.9814 1238.3938,182.6689 Q1239.2375,183.3564 1240.7375,183.3564 Q1241.6281,183.3564 1242.2531,183.1533 Q1242.6125,183.0439 1243.0188,182.6846 Q1243.2844,182.4814 1243.425,182.4189 Q1243.5656,182.3564 1243.7375,182.3564 Q1244.0656,182.3564 1244.3,182.6221 Q1244.55,182.8721 1244.55,183.2314 Q1244.55,183.5752 1244.2063,183.9814 Q1243.7063,184.5752 1242.9094,184.9033 Q1241.8625,185.3564 1240.5813,185.3564 Q1239.0813,185.3564 1237.8781,184.7627 Q1236.9094,184.2939 1236.2219,183.2783 Q1235.55,182.2627 1235.55,181.0596 L1235.55,179.9658 Q1235.55,178.7158 1236.1438,177.6221 Q1236.7531,176.5283 1237.8,175.9502 Q1238.8625,175.3564 1240.05,175.3564 Q1240.7688,175.3564 1241.3938,175.6064 Q1242.0188,175.8564 1242.55,176.3564 Z " fill="#000000"/><text fill="#000000" font-family="sans-serif" font-size="14" lengthAdjust="spacing" textLength="50" x="1256.45" y="185.585">Vaccine</text><line style="stroke:#181818;stroke-width:0.5;" x1="1218" x2="1317" y1="195.8564" y2="195.8564"/><text fill="#000000" font-family="sans-serif" font-size="14" lengthAdjust="spacing" textLength="89" x="1223" y="214.3896">-vaccineName</text><text fill="#000000" font-family="sans-serif" font-size="14" lengthAdjust="spacing" textLength="70" x="1223" y="231.999">-maxDoses</text></g><!--MD5=[8d21a970f1bd1e0e0584d0ecf91221be]
class ScheduleVaccine--><g id="elem_ScheduleVaccine"><rect codeLine="19" fill="#F1F1F1" height="128.0469" id="ScheduleVaccine" rx="2.5" ry="2.5" style="stroke:#181818;stroke-width:0.5;" width="141" x="584" y="110.3564"/><ellipse cx="599" cy="126.3564" fill="#ADD1B2" rx="11" ry="11" style="stroke:#181818;stroke-width:1.0;"/><path d="M601,122.8564 Q601.2031,122.3564 601.4375,122.1064 Q601.6719,121.8564 601.9375,121.8564 Q602.4063,121.8564 602.7031,122.1377 Q603,122.4189 603,123.0752 L603,124.6377 Q603,125.2939 602.7188,125.5752 Q602.4375,125.8564 602,125.8564 Q601.6094,125.8564 601.3594,125.6846 Q601.1094,125.5127 601,125.0596 Q600.9531,124.7471 600.7813,124.5752 Q600.4688,124.2471 599.9063,124.0596 Q599.3438,123.8564 598.7813,123.8564 Q598.0781,123.8564 597.4844,124.1377 Q596.9063,124.4189 596.4531,125.0439 Q596,125.6689 596,126.5283 L596,127.4502 Q596,128.4814 596.8438,129.1689 Q597.6875,129.8564 599.1875,129.8564 Q600.0781,129.8564 600.7031,129.6533 Q601.0625,129.5439 601.4688,129.1846 Q601.7344,128.9814 601.875,128.9189 Q602.0156,128.8564 602.1875,128.8564 Q602.5156,128.8564 602.75,129.1221 Q603,129.3721 603,129.7314 Q603,130.0752 602.6563,130.4814 Q602.1563,131.0752 601.3594,131.4033 Q600.3125,131.8564 599.0313,131.8564 Q597.5313,131.8564 596.3281,131.2627 Q595.3594,130.7939 594.6719,129.7783 Q594,128.7627 594,127.5596 L594,126.4658 Q594,125.2158 594.5938,124.1221 Q595.2031,123.0283 596.25,122.4502 Q597.3125,121.8564 598.5,121.8564 Q599.2188,121.8564 599.8438,122.1064 Q600.4688,122.3564 601,122.8564 Z " fill="#000000"/><text fill="#000000" font-family="sans-serif" font-size="14" lengthAdjust="spacing" textLength="109" x="613" y="132.085">ScheduleVaccine</text><line style="stroke:#181818;stroke-width:0.5;" x1="585" x2="724" y1="142.3564" y2="142.3564"/><text fill="#000000" font-family="sans-serif" font-size="14" lengthAdjust="spacing" textLength="92" x="590" y="160.8896">-scheduleDate</text><text fill="#000000" font-family="sans-serif" font-size="14" lengthAdjust="spacing" textLength="92" x="590" y="178.499">-scheduleHour</text><text fill="#000000" font-family="sans-serif" font-size="14" lengthAdjust="spacing" textLength="69" x="590" y="196.1084">-snsUserID</text><text fill="#000000" font-family="sans-serif" font-size="14" lengthAdjust="spacing" textLength="81" x="590" y="213.7178">-centerName</text><text fill="#000000" font-family="sans-serif" font-size="14" lengthAdjust="spacing" textLength="89" x="590" y="231.3271">-vaccineName</text></g><!--MD5=[de60e6d4f424ae4d0522096f76a59010]
class VaccinationCenter--><g id="elem_VaccinationCenter"><rect codeLine="27" fill="#F1F1F1" height="75.2188" id="VaccinationCenter" rx="2.5" ry="2.5" style="stroke:#181818;stroke-width:0.5;" width="148" x="911" y="268.8564"/><ellipse cx="926" cy="284.8564" fill="#ADD1B2" rx="11" ry="11" style="stroke:#181818;stroke-width:1.0;"/><path d="M928,281.3564 Q928.2031,280.8564 928.4375,280.6064 Q928.6719,280.3564 928.9375,280.3564 Q929.4063,280.3564 929.7031,280.6377 Q930,280.9189 930,281.5752 L930,283.1377 Q930,283.7939 929.7188,284.0752 Q929.4375,284.3564 929,284.3564 Q928.6094,284.3564 928.3594,284.1846 Q928.1094,284.0127 928,283.5596 Q927.9531,283.2471 927.7813,283.0752 Q927.4688,282.7471 926.9063,282.5596 Q926.3438,282.3564 925.7813,282.3564 Q925.0781,282.3564 924.4844,282.6377 Q923.9063,282.9189 923.4531,283.5439 Q923,284.1689 923,285.0283 L923,285.9502 Q923,286.9814 923.8438,287.6689 Q924.6875,288.3564 926.1875,288.3564 Q927.0781,288.3564 927.7031,288.1533 Q928.0625,288.0439 928.4688,287.6846 Q928.7344,287.4814 928.875,287.4189 Q929.0156,287.3564 929.1875,287.3564 Q929.5156,287.3564 929.75,287.6221 Q930,287.8721 930,288.2314 Q930,288.5752 929.6563,288.9814 Q929.1563,289.5752 928.3594,289.9033 Q927.3125,290.3564 926.0313,290.3564 Q924.5313,290.3564 923.3281,289.7627 Q922.3594,289.2939 921.6719,288.2783 Q921,287.2627 921,286.0596 L921,284.9658 Q921,283.7158 921.5938,282.6221 Q922.2031,281.5283 923.25,280.9502 Q924.3125,280.3564 925.5,280.3564 Q926.2188,280.3564 926.8438,280.6064 Q927.4688,280.8564 928,281.3564 Z " fill="#000000"/><text fill="#000000" font-family="sans-serif" font-size="14" lengthAdjust="spacing" textLength="116" x="940" y="290.585">VaccinationCenter</text><line style="stroke:#181818;stroke-width:0.5;" x1="912" x2="1058" y1="300.8564" y2="300.8564"/><text fill="#000000" font-family="sans-serif" font-size="14" lengthAdjust="spacing" textLength="56" x="917" y="319.3896">-address</text><text fill="#000000" font-family="sans-serif" font-size="14" lengthAdjust="spacing" textLength="55" x="917" y="336.999">-timeSlot</text></g><!--MD5=[1a8aa2b864b87f860d28abceaa28b7a5]
link Company to SNSUser--><g id="link_Company_SNSUser"><path codeLine="34" d="M99.05,178.9464 C141.89,191.0764 208.07,210.1964 265,228.3564 C274.64,231.4264 284.92,234.8664 294.7,238.2064 " fill="none" id="Company-SNSUser" style="stroke:#181818;stroke-width:1.0;"/><polygon fill="#000000" points="180.7853,189.9816,172.9805,184.5469,171.2767,190.1724,180.7853,189.9816" style="stroke:#000000;stroke-width:1.0;"/><text fill="#000000" font-family="sans-serif" font-size="13" lengthAdjust="spacing" textLength="37" x="185" y="193.8516">knows</text><text fill="#000000" font-family="sans-serif" font-size="13" lengthAdjust="spacing" textLength="7" x="106.947" y="195.7822">1</text><text fill="#000000" font-family="sans-serif" font-size="13" lengthAdjust="spacing" textLength="5" x="282.1509" y="250.5104">*</text></g><!--MD5=[3861bdece64e1cdd9c1d7c0b91465d40]
link SNSUser to Company--><g id="link_SNSUser_Company"><path codeLine="47" d="M294.94,259.2664 C257.56,261.6264 203.85,261.1164 160,245.3564 C130.84,234.8764 102.96,213.4764 83.12,195.5964 " fill="none" id="SNSUser-Company" style="stroke:#181818;stroke-width:1.0;"/><polygon fill="#000000" points="160.2116,235.0929,168.0279,240.5112,169.7199,234.8821,160.2116,235.0929" style="stroke:#000000;stroke-width:1.0;"/><text fill="#000000" font-family="sans-serif" font-size="13" lengthAdjust="spacing" textLength="59" x="174" y="241.8516">is client of</text><text fill="#000000" font-family="sans-serif" font-size="13" lengthAdjust="spacing" textLength="5" x="282.1211" y="274.8782">*</text><text fill="#000000" font-family="sans-serif" font-size="13" lengthAdjust="spacing" textLength="7" x="81.3608" y="216.4962">1</text></g><!--MD5=[c29c8d42883934cbaf5793c72a334947]
link Company to Vaccine--><g id="link_Company_Vaccine"><path codeLine="35" d="M67,137.2764 C87.79,95.7364 132.72,24.3564 196,24.3564 C196,24.3564 196,24.3564 1139,24.3564 C1207.17,24.3564 1242.51,111.8664 1257.48,163.8164 " fill="none" id="Company-Vaccine" style="stroke:#181818;stroke-width:1.0;"/><polygon fill="#000000" points="638.4988,15.6437,629.5214,12.5039,629.3904,18.3803,638.4988,15.6437" style="stroke:#000000;stroke-width:1.0;"/><text fill="#000000" font-family="sans-serif" font-size="13" lengthAdjust="spacing" textLength="37" x="642.5" y="20.8516">knows</text><text fill="#000000" font-family="sans-serif" font-size="13" lengthAdjust="spacing" textLength="7" x="62.4281" y="126.2826">1</text><text fill="#000000" font-family="sans-serif" font-size="13" lengthAdjust="spacing" textLength="5" x="1250.1716" y="152.9274">*</text></g><!--MD5=[eebe9b198877275d05dd12630ed9e401]
link Company to VaccinationCenter--><g id="link_Company_VaccinationCenter"><path codeLine="36" d="M59.55,195.5964 C76.13,278.5464 128.33,509.3564 196,509.3564 C196,509.3564 196,509.3564 819,509.3564 C903.25,509.3564 952.04,402.7664 972.52,344.0664 " fill="none" id="Company-VaccinationCenter" style="stroke:#181818;stroke-width:1.0;"/><polygon fill="#000000" points="469.9352,501.3348,461.4791,496.9821,460.5356,502.7838,469.9352,501.3348" style="stroke:#000000;stroke-width:1.0;"/><text fill="#000000" font-family="sans-serif" font-size="13" lengthAdjust="spacing" textLength="37" x="474" y="505.8516">knows</text><text fill="#000000" font-family="sans-serif" font-size="13" lengthAdjust="spacing" textLength="7" x="53.1505" y="216.4962">1</text><text fill="#000000" font-family="sans-serif" font-size="13" lengthAdjust="spacing" textLength="5" x="964.9453" y="365.4294">*</text></g><!--MD5=[957df399709e1a8a727dc05d0a64dd6d]
link Company to ScheduleVaccine--><g id="link_Company_ScheduleVaccine"><path codeLine="37" d="M89.25,137.2764 C116.62,117.6664 156.45,95.3564 196,95.3564 C196,95.3564 196,95.3564 487,95.3564 C520.91,95.3564 555.29,108.8964 583.93,124.7764 " fill="none" id="Company-ScheduleVaccine" style="stroke:#181818;stroke-width:1.0;"/><polygon fill="#000000" points="325.4984,86.4059,316.382,83.6964,316.5304,89.5724,325.4984,86.4059" style="stroke:#000000;stroke-width:1.0;"/><text fill="#000000" font-family="sans-serif" font-size="13" lengthAdjust="spacing" textLength="37" x="329.5" y="91.8516">knows</text><text fill="#000000" font-family="sans-serif" font-size="13" lengthAdjust="spacing" textLength="7" x="89.8234" y="126.2826">1</text><text fill="#000000" font-family="sans-serif" font-size="13" lengthAdjust="spacing" textLength="5" x="570.938" y="133.7404">*</text></g><!--MD5=[63360e778bc0d8ef58348331d609200a]
link ScheduleVaccine to SNSUser--><g id="link_ScheduleVaccine_SNSUser"><path codeLine="39" d="M583.78,206.2264 C564.42,214.0964 543.17,221.8364 523,227.3564 C478.07,239.6464 425.23,246.7264 388.37,250.5264 " fill="none" id="ScheduleVaccine-SNSUser" style="stroke:#181818;stroke-width:1.0;"/><polygon fill="#000000" points="471.6237,219.6377,481.0948,220.5041,479.7952,214.7717,471.6237,219.6377" style="stroke:#000000;stroke-width:1.0;"/><text fill="#000000" font-family="sans-serif" font-size="13" lengthAdjust="spacing" textLength="14" x="485.5" y="223.8516">for</text><text fill="#000000" font-family="sans-serif" font-size="13" lengthAdjust="spacing" textLength="7" x="569.1261" y="223.8489">1</text><text fill="#000000" font-family="sans-serif" font-size="13" lengthAdjust="spacing" textLength="5" x="395.9298" y="260.1044">*</text></g><!--MD5=[64d67b2370fffc59724a2aa203ca612d]
link SNSUser to ScheduleVaccine--><g id="link_SNSUser_ScheduleVaccine"><path codeLine="48" d="M388.06,229.9764 C406.52,221.0064 428.33,211.5464 449,205.3564 C492.86,192.2264 543.76,184.4864 583.8,180.0264 " fill="none" id="SNSUser-ScheduleVaccine" style="stroke:#181818;stroke-width:1.0;"/><polygon fill="#000000" points="458.8447,179.2959,449.3538,178.6848,450.8072,184.3801,458.8447,179.2959" style="stroke:#000000;stroke-width:1.0;"/><text fill="#000000" font-family="sans-serif" font-size="13" lengthAdjust="spacing" textLength="59" x="463" y="185.8516">schedules</text><text fill="#000000" font-family="sans-serif" font-size="13" lengthAdjust="spacing" textLength="7" x="396.0383" y="240.9201">1</text><text fill="#000000" font-family="sans-serif" font-size="13" lengthAdjust="spacing" textLength="5" x="570.7937" y="195.0334">*</text></g><!--MD5=[fbf6bd42d9db68b6db10d37fc00bacb0]
link ScheduleVaccine to VaccinationCenter--><g id="link_ScheduleVaccine_VaccinationCenter"><path codeLine="40" d="M725.17,202.3464 C779.69,224.2564 855.31,254.6464 910.73,276.9164 " fill="none" id="ScheduleVaccine-VaccinationCenter" style="stroke:#181818;stroke-width:1.0;"/><polygon fill="#000000" points="801.6394,220.3966,794.3425,214.2969,792.1508,219.7509,801.6394,220.3966" style="stroke:#000000;stroke-width:1.0;"/><text fill="#000000" font-family="sans-serif" font-size="13" lengthAdjust="spacing" textLength="37" x="806" y="223.8516">knows</text><text fill="#000000" font-family="sans-serif" font-size="13" lengthAdjust="spacing" textLength="7" x="732.8188" y="219.5687">1</text><text fill="#000000" font-family="sans-serif" font-size="13" lengthAdjust="spacing" textLength="5" x="897.8131" y="288.2074">*</text></g><!--MD5=[29e641abc0aeb90233f11c9e3c75cb2a]
link ScheduleVaccine to Vaccine--><g id="link_ScheduleVaccine_Vaccine"><path codeLine="41" d="M725.06,174.3564 C753.55,174.3564 786.86,174.3564 817,174.3564 C817,174.3564 817,174.3564 1139,174.3564 C1165.02,174.3564 1193.39,179.8064 1216.75,185.8064 " fill="none" id="ScheduleVaccine-Vaccine" style="stroke:#181818;stroke-width:1.0;"/><polygon fill="#000000" points="968.9986,165.6486,960.0244,162.4999,959.8876,168.3762,968.9986,165.6486" style="stroke:#000000;stroke-width:1.0;"/><text fill="#000000" font-family="sans-serif" font-size="13" lengthAdjust="spacing" textLength="37" x="973" y="170.8516">knows</text><text fill="#000000" font-family="sans-serif" font-size="13" lengthAdjust="spacing" textLength="7" x="733.1603" y="188.7432">1</text><text fill="#000000" font-family="sans-serif" font-size="13" lengthAdjust="spacing" textLength="5" x="1203.9289" y="198.2024">*</text></g><!--MD5=[759c7f6dbf62b13e16002bff783a0fa8]
link VaccinationCenter to Vaccine--><g id="link_VaccinationCenter_Vaccine"><path codeLine="43" d="M1059.33,278.9064 C1109,260.3164 1173.3,236.2464 1217,219.8864 " fill="none" id="VaccinationCenter-Vaccine" style="stroke:#181818;stroke-width:1.0;"/><polygon fill="#000000" points="1129.6827,232.7794,1120.1813,233.1979,1122.2419,238.7027,1129.6827,232.7794" style="stroke:#000000;stroke-width:1.0;"/><text fill="#000000" font-family="sans-serif" font-size="13" lengthAdjust="spacing" textLength="21" x="1134" y="239.8516">has</text><text fill="#000000" font-family="sans-serif" font-size="13" lengthAdjust="spacing" textLength="7" x="1066.9914" y="290.4935">1</text><text fill="#000000" font-family="sans-serif" font-size="13" lengthAdjust="spacing" textLength="5" x="1203.8844" y="237.4541">*</text></g><!--MD5=[000da5e9a47c4032254e77330cd40e63]
link SNSUser to VaccinationCenter--><g id="link_SNSUser_VaccinationCenter"><path codeLine="45" d="M388.34,258.1964 C436.92,262.2464 515.86,268.8064 584,274.3564 C698.05,283.6364 830.41,294.1864 910.64,300.5464 " fill="none" id="SNSUser-VaccinationCenter" style="stroke:#181818;stroke-width:1.0;"/><polygon fill="#000000" points="632.4836,265.9363,623.7057,262.276,623.2306,268.1346,632.4836,265.9363" style="stroke:#000000;stroke-width:1.0;"/><text fill="#000000" font-family="sans-serif" font-size="13" lengthAdjust="spacing" textLength="49" x="636.5" y="270.8516">chooses</text><text fill="#000000" font-family="sans-serif" font-size="13" lengthAdjust="spacing" textLength="7" x="396.0483" y="273.5614">1</text><text fill="#000000" font-family="sans-serif" font-size="13" lengthAdjust="spacing" textLength="5" x="898.0741" y="314.2637">*</text></g><!--MD5=[0e6b2441f6980354f17e2a2b41c9848d]
link SNSUser to Vaccine--><g id="link_SNSUser_Vaccine"><path codeLine="46" d="M352.15,283.4464 C370.08,331.2964 413.35,421.3564 485,421.3564 C485,421.3564 485,421.3564 1139,421.3564 C1222.21,421.3564 1252.01,302.0764 1261.94,239.1764 " fill="none" id="SNSUser-Vaccine" style="stroke:#181818;stroke-width:1.0;"/><polygon fill="#000000" points="795.9941,412.2892,786.8169,409.7934,787.1025,415.6643,795.9941,412.2892" style="stroke:#000000;stroke-width:1.0;"/><text fill="#000000" font-family="sans-serif" font-size="13" lengthAdjust="spacing" textLength="49" x="800" y="417.8516">chooses</text><text fill="#000000" font-family="sans-serif" font-size="13" lengthAdjust="spacing" textLength="7" x="346.6247" y="304.6679">1</text><text fill="#000000" font-family="sans-serif" font-size="13" lengthAdjust="spacing" textLength="5" x="1255.5547" y="260.5583">*</text></g><!--MD5=[721a94d6322b234a323752ac5f065aae]
@startuml
 hide methods
 left to right direction
 skinparam classAttributeIconSize 0


 class Company {
   -designation
 }


 class SNSUser {
   -SNSNumber
 }

class Vaccine{
    -vaccineName
    -maxDoses
}
 class ScheduleVaccine{
  -scheduleDate
  -scheduleHour
  -snsUserID
  -centerName
  -vaccineName

 }
 class VaccinationCenter{
 -address
 -timeSlot
 }



 Company "1"- - -"*" SNSUser : knows >
 Company "1"- - -"*" Vaccine : knows >
 Company "1"- - -"*" VaccinationCenter : knows >
 Company "1"- - -"*" ScheduleVaccine : knows >

 ScheduleVaccine "1"- - -"*" SNSUser : for >
 ScheduleVaccine "1"- - -"*" VaccinationCenter : knows >
 ScheduleVaccine "1"- - -"*" Vaccine: knows >

VaccinationCenter "1"- - -"*" Vaccine: has >

SNSUser "1"- -"*" VaccinationCenter : chooses >
SNSUser "1"- -"*" Vaccine : chooses >
SNSUser "*"- - -"1" Company : is client of >
 SNSUser "1"- - -"*" ScheduleVaccine : schedules >

@enduml

PlantUML version 1.2022.4(Sat Apr 09 14:29:17 BST 2022)
(GPL source distribution)
Java Runtime: OpenJDK Runtime Environment
JVM: OpenJDK 64-Bit Server VM
Default Encoding: Cp1252
Language: pt
Country: PT
--></g></svg>