<?xml version="1.0" encoding="UTF-8" standalone="no"?><svg xmlns="http://www.w3.org/2000/svg" xmlns:xlink="http://www.w3.org/1999/xlink" contentStyleType="text/css" height="417px" preserveAspectRatio="none" style="width:494px;height:417px;background:#FFFFFF;" version="1.1" viewBox="0 0 494 417" width="494px" zoomAndPan="magnify"><defs/><g><rect height="27.6094" style="stroke:#00000000;stroke-width:1.0;fill:none;" width="203" x="144.5" y="10"/><text fill="#000000" font-family="sans-serif" font-size="14" font-weight="bold" lengthAdjust="spacing" textLength="193" x="149.5" y="29.5332">SD_SNSUserMapper_toDTO</text><rect fill="#FFFFFF" height="285.3672" style="stroke:#181818;stroke-width:1.0;" width="10" x="94" y="86.2188"/><rect fill="#FFFFFF" height="30" style="stroke:#181818;stroke-width:1.0;" width="10" x="254" y="138.9219"/><rect fill="#FFFFFF" height="30" style="stroke:#181818;stroke-width:1.0;" width="10" x="254" y="199.2734"/><rect fill="#FFFFFF" height="30" style="stroke:#181818;stroke-width:1.0;" width="10" x="254" y="259.625"/><line style="stroke:#181818;stroke-width:0.5;stroke-dasharray:5.0,5.0;" x1="99" x2="99" y1="76.2188" y2="380.5859"/><line style="stroke:#181818;stroke-width:0.5;stroke-dasharray:5.0,5.0;" x1="259" x2="259" y1="76.2188" y2="380.5859"/><line style="stroke:#181818;stroke-width:0.5;stroke-dasharray:5.0,5.0;" x1="410" x2="410" y1="328.9297" y2="380.5859"/><rect fill="#E2E2F0" height="31.6094" rx="2.5" ry="2.5" style="stroke:#181818;stroke-width:0.5;" width="174" x="12" y="43.6094"/><text fill="#000000" font-family="sans-serif" font-size="14" lengthAdjust="spacing" textLength="160" x="19" y="65.1426">:AdverseReactionMapper</text><rect fill="#E2E2F0" height="31.6094" rx="2.5" ry="2.5" style="stroke:#181818;stroke-width:0.5;" width="174" x="12" y="379.5859"/><text fill="#000000" font-family="sans-serif" font-size="14" lengthAdjust="spacing" textLength="160" x="19" y="401.1191">:AdverseReactionMapper</text><rect fill="#E2E2F0" height="31.6094" rx="2.5" ry="2.5" style="stroke:#181818;stroke-width:0.5;" width="126" x="196" y="43.6094"/><text fill="#000000" font-family="sans-serif" font-size="14" lengthAdjust="spacing" textLength="112" x="203" y="65.1426">:AdverseReaction</text><rect fill="#E2E2F0" height="31.6094" rx="2.5" ry="2.5" style="stroke:#181818;stroke-width:0.5;" width="126" x="196" y="379.5859"/><text fill="#000000" font-family="sans-serif" font-size="14" lengthAdjust="spacing" textLength="112" x="203" y="401.1191">:AdverseReaction</text><rect fill="#E2E2F0" height="31.6094" rx="2.5" ry="2.5" style="stroke:#181818;stroke-width:0.5;" width="156" x="332" y="379.5859"/><text fill="#000000" font-family="sans-serif" font-size="14" lengthAdjust="spacing" textLength="142" x="339" y="401.1191">:AdverseReactionDTO</text><rect fill="#FFFFFF" height="285.3672" style="stroke:#181818;stroke-width:1.0;" width="10" x="94" y="86.2188"/><rect fill="#FFFFFF" height="30" style="stroke:#181818;stroke-width:1.0;" width="10" x="254" y="138.9219"/><rect fill="#FFFFFF" height="30" style="stroke:#181818;stroke-width:1.0;" width="10" x="254" y="199.2734"/><rect fill="#FFFFFF" height="30" style="stroke:#181818;stroke-width:1.0;" width="10" x="254" y="259.625"/><ellipse cx="7.5" cy="107.8203" fill="none" rx="4" ry="4" style="stroke:#181818;stroke-width:1.5;"/><polygon fill="#181818" points="82,104.5703,92,108.5703,82,112.5703,86,108.5703" style="stroke:#181818;stroke-width:1.0;"/><line style="stroke:#181818;stroke-width:1.0;" x1="12" x2="88" y1="108.5703" y2="108.5703"/><text fill="#000000" font-family="sans-serif" font-size="13" font-weight="bold" lengthAdjust="spacing" textLength="7" x="15" y="103.7139">1</text><text fill="#000000" font-family="sans-serif" font-size="13" lengthAdjust="spacing" textLength="56" x="26" y="103.7139">toDTO(ar)</text><polygon fill="#181818" points="242,134.9219,252,138.9219,242,142.9219,246,138.9219" style="stroke:#181818;stroke-width:1.0;"/><line style="stroke:#181818;stroke-width:1.0;" x1="104" x2="248" y1="138.9219" y2="138.9219"/><text fill="#000000" font-family="sans-serif" font-size="13" font-weight="bold" lengthAdjust="spacing" textLength="7" x="111" y="134.0654">2</text><text fill="#000000" font-family="sans-serif" font-size="13" lengthAdjust="spacing" textLength="80" x="122" y="134.0654">getSNSUser()</text><polygon fill="#181818" points="242,195.2734,252,199.2734,242,203.2734,246,199.2734" style="stroke:#181818;stroke-width:1.0;"/><line style="stroke:#181818;stroke-width:1.0;" x1="104" x2="248" y1="199.2734" y2="199.2734"/><text fill="#000000" font-family="sans-serif" font-size="13" font-weight="bold" lengthAdjust="spacing" textLength="7" x="111" y="194.417">3</text><text fill="#000000" font-family="sans-serif" font-size="13" lengthAdjust="spacing" textLength="64" x="122" y="194.417">getArText()</text><polygon fill="#181818" points="242,255.625,252,259.625,242,263.625,246,259.625" style="stroke:#181818;stroke-width:1.0;"/><line style="stroke:#181818;stroke-width:1.0;" x1="104" x2="248" y1="259.625" y2="259.625"/><text fill="#000000" font-family="sans-serif" font-size="13" font-weight="bold" lengthAdjust="spacing" textLength="7" x="111" y="254.7686">4</text><text fill="#000000" font-family="sans-serif" font-size="13" lengthAdjust="spacing" textLength="44" x="122" y="254.7686">getVC()</text><polygon fill="#181818" points="320,315.9766,330,319.9766,320,323.9766,324,319.9766" style="stroke:#181818;stroke-width:1.0;"/><line style="stroke:#181818;stroke-width:1.0;stroke-dasharray:2.0,2.0;" x1="104" x2="326" y1="319.9766" y2="319.9766"/><text fill="#000000" font-family="sans-serif" font-size="13" font-weight="bold" lengthAdjust="spacing" textLength="7" x="111" y="315.1201">5</text><text fill="#000000" font-family="sans-serif" font-size="13" lengthAdjust="spacing" textLength="136" x="122" y="315.1201">create(snsu, arText, vc)</text><rect fill="#E2E2F0" height="31.6094" rx="2.5" ry="2.5" style="stroke:#181818;stroke-width:0.5;" width="156" x="332" y="297.625"/><text fill="#000000" font-family="sans-serif" font-size="14" lengthAdjust="spacing" textLength="142" x="339" y="319.1582">:AdverseReactionDTO</text><polygon fill="#181818" points="11,358.5859,1,362.5859,11,366.5859,7,362.5859" style="stroke:#181818;stroke-width:1.0;"/><line style="stroke:#181818;stroke-width:1.0;stroke-dasharray:2.0,2.0;" x1="5" x2="93" y1="362.5859" y2="362.5859"/><text fill="#000000" font-family="sans-serif" font-size="13" font-weight="bold" lengthAdjust="spacing" textLength="7" x="17" y="357.7295">6</text><text fill="#000000" font-family="sans-serif" font-size="13" lengthAdjust="spacing" textLength="37" x="28" y="357.7295">arDTO</text><!--MD5=[5205fa71846ccb747913d236c0c4bc92]
@startuml
autonumber
title SD_SNSUserMapper_toDTO

participant ":AdverseReactionMapper" as mapper
participant ":AdverseReaction" as ar
participant ":AdverseReactionDTO" as dto

activate mapper
[o-> mapper : toDTO(ar)
mapper -> ar : getSNSUser()
activate ar
deactivate ar
mapper -> ar : getArText()
activate ar
deactivate ar
mapper -> ar : getVC()
activate ar
deactivate ar
mapper - -> dto** : create(snsu, arText, vc)
<- - mapper : arDTO











@enduml

PlantUML version 1.2022.5(Sat Apr 30 11:55:52 BST 2022)
(GPL source distribution)
Java Runtime: OpenJDK Runtime Environment
JVM: OpenJDK 64-Bit Server VM
Default Encoding: Cp1252
Language: en
Country: US
--></g></svg>