<?xml version="1.0" encoding="UTF-8" standalone="no"?><svg xmlns="http://www.w3.org/2000/svg" xmlns:xlink="http://www.w3.org/1999/xlink" contentStyleType="text/css" height="677px" preserveAspectRatio="none" style="width:991px;height:677px;background:#FFFFFF;" version="1.1" viewBox="0 0 991 677" width="991px" zoomAndPan="magnify"><defs/><g><!--MD5=[33084c7eb533d0525d379b113f3a0db8]
class RecordAdverseReactionUI--><g id="elem_RecordAdverseReactionUI"><rect codeLine="4" fill="#F1F1F1" height="32" id="RecordAdverseReactionUI" rx="2.5" ry="2.5" style="stroke:#181818;stroke-width:0.5;" width="198" x="641" y="7"/><ellipse cx="656" cy="23" fill="#ADD1B2" rx="11" ry="11" style="stroke:#181818;stroke-width:1.0;"/><path d="M658,19.5 Q658.2031,19 658.4375,18.75 Q658.6719,18.5 658.9375,18.5 Q659.4063,18.5 659.7031,18.7813 Q660,19.0625 660,19.7188 L660,21.2813 Q660,21.9375 659.7188,22.2188 Q659.4375,22.5 659,22.5 Q658.6094,22.5 658.3594,22.3281 Q658.1094,22.1563 658,21.7031 Q657.9531,21.3906 657.7813,21.2188 Q657.4688,20.8906 656.9063,20.7031 Q656.3438,20.5 655.7813,20.5 Q655.0781,20.5 654.4844,20.7813 Q653.9063,21.0625 653.4531,21.6875 Q653,22.3125 653,23.1719 L653,24.0938 Q653,25.125 653.8438,25.8125 Q654.6875,26.5 656.1875,26.5 Q657.0781,26.5 657.7031,26.2969 Q658.0625,26.1875 658.4688,25.8281 Q658.7344,25.625 658.875,25.5625 Q659.0156,25.5 659.1875,25.5 Q659.5156,25.5 659.75,25.7656 Q660,26.0156 660,26.375 Q660,26.7188 659.6563,27.125 Q659.1563,27.7188 658.3594,28.0469 Q657.3125,28.5 656.0313,28.5 Q654.5313,28.5 653.3281,27.9063 Q652.3594,27.4375 651.6719,26.4219 Q651,25.4063 651,24.2031 L651,23.1094 Q651,21.8594 651.5938,20.7656 Q652.2031,19.6719 653.25,19.0938 Q654.3125,18.5 655.5,18.5 Q656.2188,18.5 656.8438,18.75 Q657.4688,19 658,19.5 Z " fill="#000000"/><text fill="#000000" font-family="sans-serif" font-size="14" lengthAdjust="spacing" textLength="166" x="670" y="28.7285">RecordAdverseReactionUI</text></g><!--MD5=[07b3419626018d6e3d968e3f49665cd0]
class RecordAdverseReactionController--><g id="elem_RecordAdverseReactionController"><rect codeLine="7" fill="#F1F1F1" height="92.8281" id="RecordAdverseReactionController" rx="2.5" ry="2.5" style="stroke:#181818;stroke-width:0.5;" width="276" x="602" y="100"/><ellipse cx="629.6" cy="116" fill="#ADD1B2" rx="11" ry="11" style="stroke:#181818;stroke-width:1.0;"/><path d="M631.6,112.5 Q631.8031,112 632.0375,111.75 Q632.2719,111.5 632.5375,111.5 Q633.0063,111.5 633.3031,111.7813 Q633.6,112.0625 633.6,112.7188 L633.6,114.2813 Q633.6,114.9375 633.3188,115.2188 Q633.0375,115.5 632.6,115.5 Q632.2094,115.5 631.9594,115.3281 Q631.7094,115.1563 631.6,114.7031 Q631.5531,114.3906 631.3813,114.2188 Q631.0688,113.8906 630.5063,113.7031 Q629.9438,113.5 629.3813,113.5 Q628.6781,113.5 628.0844,113.7813 Q627.5063,114.0625 627.0531,114.6875 Q626.6,115.3125 626.6,116.1719 L626.6,117.0938 Q626.6,118.125 627.4438,118.8125 Q628.2875,119.5 629.7875,119.5 Q630.6781,119.5 631.3031,119.2969 Q631.6625,119.1875 632.0688,118.8281 Q632.3344,118.625 632.475,118.5625 Q632.6156,118.5 632.7875,118.5 Q633.1156,118.5 633.35,118.7656 Q633.6,119.0156 633.6,119.375 Q633.6,119.7188 633.2563,120.125 Q632.7563,120.7188 631.9594,121.0469 Q630.9125,121.5 629.6313,121.5 Q628.1313,121.5 626.9281,120.9063 Q625.9594,120.4375 625.2719,119.4219 Q624.6,118.4063 624.6,117.2031 L624.6,116.1094 Q624.6,114.8594 625.1938,113.7656 Q625.8031,112.6719 626.85,112.0938 Q627.9125,111.5 629.1,111.5 Q629.8188,111.5 630.4438,111.75 Q631.0688,112 631.6,112.5 Z " fill="#000000"/><text fill="#000000" font-family="sans-serif" font-size="14" lengthAdjust="spacing" textLength="216" x="646.4" y="121.7285">RecordAdverseReactionController</text><line style="stroke:#181818;stroke-width:0.5;" x1="603" x2="877" y1="132" y2="132"/><ellipse cx="613" cy="143" fill="#84BE84" rx="3" ry="3" style="stroke:#038048;stroke-width:1.0;"/><text fill="#000000" font-family="sans-serif" font-size="14" lengthAdjust="spacing" textLength="250" x="622" y="150.5332">createAdverseReaction(snsu,arText,vc)</text><ellipse cx="613" cy="160.6094" fill="#84BE84" rx="3" ry="3" style="stroke:#038048;stroke-width:1.0;"/><text fill="#000000" font-family="sans-serif" font-size="14" lengthAdjust="spacing" textLength="138" x="622" y="168.1426">getAdverseReaction()</text><ellipse cx="613" cy="178.2188" fill="#84BE84" rx="3" ry="3" style="stroke:#038048;stroke-width:1.0;"/><text fill="#000000" font-family="sans-serif" font-size="14" lengthAdjust="spacing" textLength="161" x="622" y="185.752">saveAdverseReaction(ar)</text></g><!--MD5=[02e4b9b7573f1156f41e60aa5b4e25a4]
class Company--><g id="elem_Company"><rect codeLine="13" fill="#F1F1F1" height="75.2188" id="Company" rx="2.5" ry="2.5" style="stroke:#181818;stroke-width:0.5;" width="198" x="376" y="254"/><ellipse cx="440.75" cy="270" fill="#ADD1B2" rx="11" ry="11" style="stroke:#181818;stroke-width:1.0;"/><path d="M442.75,266.5 Q442.9531,266 443.1875,265.75 Q443.4219,265.5 443.6875,265.5 Q444.1563,265.5 444.4531,265.7813 Q444.75,266.0625 444.75,266.7188 L444.75,268.2813 Q444.75,268.9375 444.4688,269.2188 Q444.1875,269.5 443.75,269.5 Q443.3594,269.5 443.1094,269.3281 Q442.8594,269.1563 442.75,268.7031 Q442.7031,268.3906 442.5313,268.2188 Q442.2188,267.8906 441.6563,267.7031 Q441.0938,267.5 440.5313,267.5 Q439.8281,267.5 439.2344,267.7813 Q438.6563,268.0625 438.2031,268.6875 Q437.75,269.3125 437.75,270.1719 L437.75,271.0938 Q437.75,272.125 438.5938,272.8125 Q439.4375,273.5 440.9375,273.5 Q441.8281,273.5 442.4531,273.2969 Q442.8125,273.1875 443.2188,272.8281 Q443.4844,272.625 443.625,272.5625 Q443.7656,272.5 443.9375,272.5 Q444.2656,272.5 444.5,272.7656 Q444.75,273.0156 444.75,273.375 Q444.75,273.7188 444.4063,274.125 Q443.9063,274.7188 443.1094,275.0469 Q442.0625,275.5 440.7813,275.5 Q439.2813,275.5 438.0781,274.9063 Q437.1094,274.4375 436.4219,273.4219 Q435.75,272.4063 435.75,271.2031 L435.75,270.1094 Q435.75,268.8594 436.3438,267.7656 Q436.9531,266.6719 438,266.0938 Q439.0625,265.5 440.25,265.5 Q440.9688,265.5 441.5938,265.75 Q442.2188,266 442.75,266.5 Z " fill="#000000"/><text fill="#000000" font-family="sans-serif" font-size="14" lengthAdjust="spacing" textLength="60" x="461.25" y="275.7285">Company</text><line style="stroke:#181818;stroke-width:0.5;" x1="377" x2="573" y1="286" y2="286"/><ellipse cx="387" cy="297" fill="#84BE84" rx="3" ry="3" style="stroke:#038048;stroke-width:1.0;"/><text fill="#000000" font-family="sans-serif" font-size="14" lengthAdjust="spacing" textLength="148" x="396" y="304.5332">getWaitingRoomStore()</text><ellipse cx="387" cy="314.6094" fill="#84BE84" rx="3" ry="3" style="stroke:#038048;stroke-width:1.0;"/><text fill="#000000" font-family="sans-serif" font-size="14" lengthAdjust="spacing" textLength="172" x="396" y="322.1426">getAdverseReactionStore()</text></g><!--MD5=[422542b60d42122dc397d8dec67d5558]
class AdverseReactionStore--><g id="elem_AdverseReactionStore"><rect codeLine="18" fill="#F1F1F1" height="92.8281" id="AdverseReactionStore" rx="2.5" ry="2.5" style="stroke:#181818;stroke-width:0.5;" width="276" x="7" y="407"/><ellipse cx="69.75" cy="423" fill="#ADD1B2" rx="11" ry="11" style="stroke:#181818;stroke-width:1.0;"/><path d="M71.75,419.5 Q71.9531,419 72.1875,418.75 Q72.4219,418.5 72.6875,418.5 Q73.1563,418.5 73.4531,418.7813 Q73.75,419.0625 73.75,419.7188 L73.75,421.2813 Q73.75,421.9375 73.4688,422.2188 Q73.1875,422.5 72.75,422.5 Q72.3594,422.5 72.1094,422.3281 Q71.8594,422.1563 71.75,421.7031 Q71.7031,421.3906 71.5313,421.2188 Q71.2188,420.8906 70.6563,420.7031 Q70.0938,420.5 69.5313,420.5 Q68.8281,420.5 68.2344,420.7813 Q67.6563,421.0625 67.2031,421.6875 Q66.75,422.3125 66.75,423.1719 L66.75,424.0938 Q66.75,425.125 67.5938,425.8125 Q68.4375,426.5 69.9375,426.5 Q70.8281,426.5 71.4531,426.2969 Q71.8125,426.1875 72.2188,425.8281 Q72.4844,425.625 72.625,425.5625 Q72.7656,425.5 72.9375,425.5 Q73.2656,425.5 73.5,425.7656 Q73.75,426.0156 73.75,426.375 Q73.75,426.7188 73.4063,427.125 Q72.9063,427.7188 72.1094,428.0469 Q71.0625,428.5 69.7813,428.5 Q68.2813,428.5 67.0781,427.9063 Q66.1094,427.4375 65.4219,426.4219 Q64.75,425.4063 64.75,424.2031 L64.75,423.1094 Q64.75,421.8594 65.3438,420.7656 Q65.9531,419.6719 67,419.0938 Q68.0625,418.5 69.25,418.5 Q69.9688,418.5 70.5938,418.75 Q71.2188,419 71.75,419.5 Z " fill="#000000"/><text fill="#000000" font-family="sans-serif" font-size="14" lengthAdjust="spacing" textLength="142" x="90.25" y="428.7285">AdverseReactionStore</text><line style="stroke:#181818;stroke-width:0.5;" x1="8" x2="282" y1="439" y2="439"/><ellipse cx="18" cy="450" fill="#84BE84" rx="3" ry="3" style="stroke:#038048;stroke-width:1.0;"/><text fill="#000000" font-family="sans-serif" font-size="14" lengthAdjust="spacing" textLength="250" x="27" y="457.5332">createAdverseReaction(snsu,arText,vc)</text><ellipse cx="18" cy="467.6094" fill="#84BE84" rx="3" ry="3" style="stroke:#038048;stroke-width:1.0;"/><text fill="#000000" font-family="sans-serif" font-size="14" lengthAdjust="spacing" textLength="180" x="27" y="475.1426">validateAdverseReaction(ar)</text><ellipse cx="18" cy="485.2188" fill="#84BE84" rx="3" ry="3" style="stroke:#038048;stroke-width:1.0;"/><text fill="#000000" font-family="sans-serif" font-size="14" lengthAdjust="spacing" textLength="155" x="27" y="492.752">addAdverseReaction(ar)</text></g><!--MD5=[d7a366fe1cc5060c824a64e7c3fcb40b]
class WaitingRoomStore--><g id="elem_WaitingRoomStore"><rect codeLine="24" fill="#F1F1F1" height="75.2188" id="WaitingRoomStore" rx="2.5" ry="2.5" style="stroke:#181818;stroke-width:0.5;" width="314" x="318" y="416"/><ellipse cx="411.75" cy="432" fill="#ADD1B2" rx="11" ry="11" style="stroke:#181818;stroke-width:1.0;"/><path d="M413.75,428.5 Q413.9531,428 414.1875,427.75 Q414.4219,427.5 414.6875,427.5 Q415.1563,427.5 415.4531,427.7813 Q415.75,428.0625 415.75,428.7188 L415.75,430.2813 Q415.75,430.9375 415.4688,431.2188 Q415.1875,431.5 414.75,431.5 Q414.3594,431.5 414.1094,431.3281 Q413.8594,431.1563 413.75,430.7031 Q413.7031,430.3906 413.5313,430.2188 Q413.2188,429.8906 412.6563,429.7031 Q412.0938,429.5 411.5313,429.5 Q410.8281,429.5 410.2344,429.7813 Q409.6563,430.0625 409.2031,430.6875 Q408.75,431.3125 408.75,432.1719 L408.75,433.0938 Q408.75,434.125 409.5938,434.8125 Q410.4375,435.5 411.9375,435.5 Q412.8281,435.5 413.4531,435.2969 Q413.8125,435.1875 414.2188,434.8281 Q414.4844,434.625 414.625,434.5625 Q414.7656,434.5 414.9375,434.5 Q415.2656,434.5 415.5,434.7656 Q415.75,435.0156 415.75,435.375 Q415.75,435.7188 415.4063,436.125 Q414.9063,436.7188 414.1094,437.0469 Q413.0625,437.5 411.7813,437.5 Q410.2813,437.5 409.0781,436.9063 Q408.1094,436.4375 407.4219,435.4219 Q406.75,434.4063 406.75,433.2031 L406.75,432.1094 Q406.75,430.8594 407.3438,429.7656 Q407.9531,428.6719 409,428.0938 Q410.0625,427.5 411.25,427.5 Q411.9688,427.5 412.5938,427.75 Q413.2188,428 413.75,428.5 Z " fill="#000000"/><text fill="#000000" font-family="sans-serif" font-size="14" lengthAdjust="spacing" textLength="118" x="432.25" y="437.7285">WaitingRoomStore</text><line style="stroke:#181818;stroke-width:0.5;" x1="319" x2="631" y1="448" y2="448"/><ellipse cx="329" cy="459" fill="#84BE84" rx="3" ry="3" style="stroke:#038048;stroke-width:1.0;"/><text fill="#000000" font-family="sans-serif" font-size="14" lengthAdjust="spacing" textLength="254" x="338" y="466.5332">getSNSUserAtWaitingRoom(snsNumber)</text><ellipse cx="329" cy="476.6094" fill="#84BE84" rx="3" ry="3" style="stroke:#038048;stroke-width:1.0;"/><text fill="#000000" font-family="sans-serif" font-size="14" lengthAdjust="spacing" textLength="288" x="338" y="484.1426">getVaccinationCenterOfSNSUser(snsNumber)</text></g><!--MD5=[310cfa00a18562dc20d25c75e40311ce]
class AdverseReactionDTO--><g id="elem_AdverseReactionDTO"><rect codeLine="29" fill="#F1F1F1" height="92.8281" id="AdverseReactionDTO" rx="2.5" ry="2.5" style="stroke:#181818;stroke-width:0.5;" width="170" x="667" y="407"/><ellipse cx="682" cy="423" fill="#ADD1B2" rx="11" ry="11" style="stroke:#181818;stroke-width:1.0;"/><path d="M684,419.5 Q684.2031,419 684.4375,418.75 Q684.6719,418.5 684.9375,418.5 Q685.4063,418.5 685.7031,418.7813 Q686,419.0625 686,419.7188 L686,421.2813 Q686,421.9375 685.7188,422.2188 Q685.4375,422.5 685,422.5 Q684.6094,422.5 684.3594,422.3281 Q684.1094,422.1563 684,421.7031 Q683.9531,421.3906 683.7813,421.2188 Q683.4688,420.8906 682.9063,420.7031 Q682.3438,420.5 681.7813,420.5 Q681.0781,420.5 680.4844,420.7813 Q679.9063,421.0625 679.4531,421.6875 Q679,422.3125 679,423.1719 L679,424.0938 Q679,425.125 679.8438,425.8125 Q680.6875,426.5 682.1875,426.5 Q683.0781,426.5 683.7031,426.2969 Q684.0625,426.1875 684.4688,425.8281 Q684.7344,425.625 684.875,425.5625 Q685.0156,425.5 685.1875,425.5 Q685.5156,425.5 685.75,425.7656 Q686,426.0156 686,426.375 Q686,426.7188 685.6563,427.125 Q685.1563,427.7188 684.3594,428.0469 Q683.3125,428.5 682.0313,428.5 Q680.5313,428.5 679.3281,427.9063 Q678.3594,427.4375 677.6719,426.4219 Q677,425.4063 677,424.2031 L677,423.1094 Q677,421.8594 677.5938,420.7656 Q678.2031,419.6719 679.25,419.0938 Q680.3125,418.5 681.5,418.5 Q682.2188,418.5 682.8438,418.75 Q683.4688,419 684,419.5 Z " fill="#000000"/><text fill="#000000" font-family="sans-serif" font-size="14" lengthAdjust="spacing" textLength="138" x="696" y="428.7285">AdverseReactionDTO</text><line style="stroke:#181818;stroke-width:0.5;" x1="668" x2="836" y1="439" y2="439"/><text fill="#000000" font-family="sans-serif" font-size="14" lengthAdjust="spacing" textLength="90" x="673" y="457.5332">SNSUser snsu</text><text fill="#000000" font-family="sans-serif" font-size="14" lengthAdjust="spacing" textLength="81" x="673" y="475.1426">String arText</text><text fill="#000000" font-family="sans-serif" font-size="14" lengthAdjust="spacing" textLength="134" x="673" y="492.752">VaccinationCenter vc</text></g><!--MD5=[94716bb5f77527793ee9167c37a6f331]
class AdverseReactionMapper--><g id="elem_AdverseReactionMapper"><rect codeLine="35" fill="#F1F1F1" height="57.6094" id="AdverseReactionMapper" rx="2.5" ry="2.5" style="stroke:#181818;stroke-width:0.5;" width="188" x="720" y="262.5"/><ellipse cx="735" cy="278.5" fill="#ADD1B2" rx="11" ry="11" style="stroke:#181818;stroke-width:1.0;"/><path d="M737,275 Q737.2031,274.5 737.4375,274.25 Q737.6719,274 737.9375,274 Q738.4063,274 738.7031,274.2813 Q739,274.5625 739,275.2188 L739,276.7813 Q739,277.4375 738.7188,277.7188 Q738.4375,278 738,278 Q737.6094,278 737.3594,277.8281 Q737.1094,277.6563 737,277.2031 Q736.9531,276.8906 736.7813,276.7188 Q736.4688,276.3906 735.9063,276.2031 Q735.3438,276 734.7813,276 Q734.0781,276 733.4844,276.2813 Q732.9063,276.5625 732.4531,277.1875 Q732,277.8125 732,278.6719 L732,279.5938 Q732,280.625 732.8438,281.3125 Q733.6875,282 735.1875,282 Q736.0781,282 736.7031,281.7969 Q737.0625,281.6875 737.4688,281.3281 Q737.7344,281.125 737.875,281.0625 Q738.0156,281 738.1875,281 Q738.5156,281 738.75,281.2656 Q739,281.5156 739,281.875 Q739,282.2188 738.6563,282.625 Q738.1563,283.2188 737.3594,283.5469 Q736.3125,284 735.0313,284 Q733.5313,284 732.3281,283.4063 Q731.3594,282.9375 730.6719,281.9219 Q730,280.9063 730,279.7031 L730,278.6094 Q730,277.3594 730.5938,276.2656 Q731.2031,275.1719 732.25,274.5938 Q733.3125,274 734.5,274 Q735.2188,274 735.8438,274.25 Q736.4688,274.5 737,275 Z " fill="#000000"/><text fill="#000000" font-family="sans-serif" font-size="14" lengthAdjust="spacing" textLength="156" x="749" y="284.2285">AdverseReactionMapper</text><line style="stroke:#181818;stroke-width:0.5;" x1="721" x2="907" y1="294.5" y2="294.5"/><ellipse cx="731" cy="305.5" fill="#84BE84" rx="3" ry="3" style="stroke:#038048;stroke-width:1.0;"/><text fill="#000000" font-family="sans-serif" font-size="14" lengthAdjust="spacing" textLength="65" x="740" y="313.0332">toDTO(ar)</text></g><!--MD5=[9bf9dadbffb7fbceed2ede59f1107d85]
class AdverseReaction--><g id="elem_AdverseReaction"><rect codeLine="39" fill="#F1F1F1" height="92.8281" id="AdverseReaction" rx="2.5" ry="2.5" style="stroke:#181818;stroke-width:0.5;" width="146" x="817" y="578"/><ellipse cx="834.7" cy="594" fill="#ADD1B2" rx="11" ry="11" style="stroke:#181818;stroke-width:1.0;"/><path d="M836.7,590.5 Q836.9031,590 837.1375,589.75 Q837.3719,589.5 837.6375,589.5 Q838.1063,589.5 838.4031,589.7813 Q838.7,590.0625 838.7,590.7188 L838.7,592.2813 Q838.7,592.9375 838.4188,593.2188 Q838.1375,593.5 837.7,593.5 Q837.3094,593.5 837.0594,593.3281 Q836.8094,593.1563 836.7,592.7031 Q836.6531,592.3906 836.4813,592.2188 Q836.1688,591.8906 835.6063,591.7031 Q835.0438,591.5 834.4813,591.5 Q833.7781,591.5 833.1844,591.7813 Q832.6063,592.0625 832.1531,592.6875 Q831.7,593.3125 831.7,594.1719 L831.7,595.0938 Q831.7,596.125 832.5438,596.8125 Q833.3875,597.5 834.8875,597.5 Q835.7781,597.5 836.4031,597.2969 Q836.7625,597.1875 837.1688,596.8281 Q837.4344,596.625 837.575,596.5625 Q837.7156,596.5 837.8875,596.5 Q838.2156,596.5 838.45,596.7656 Q838.7,597.0156 838.7,597.375 Q838.7,597.7188 838.3563,598.125 Q837.8563,598.7188 837.0594,599.0469 Q836.0125,599.5 834.7313,599.5 Q833.2313,599.5 832.0281,598.9063 Q831.0594,598.4375 830.3719,597.4219 Q829.7,596.4063 829.7,595.2031 L829.7,594.1094 Q829.7,592.8594 830.2938,591.7656 Q830.9031,590.6719 831.95,590.0938 Q833.0125,589.5 834.2,589.5 Q834.9188,589.5 835.5438,589.75 Q836.1688,590 836.7,590.5 Z " fill="#000000"/><text fill="#000000" font-family="sans-serif" font-size="14" lengthAdjust="spacing" textLength="108" x="849.3" y="599.7285">AdverseReaction</text><line style="stroke:#181818;stroke-width:0.5;" x1="818" x2="962" y1="610" y2="610"/><text fill="#000000" font-family="sans-serif" font-size="14" lengthAdjust="spacing" textLength="90" x="823" y="628.5332">SNSUser snsu</text><text fill="#000000" font-family="sans-serif" font-size="14" lengthAdjust="spacing" textLength="81" x="823" y="646.1426">String arText</text><text fill="#000000" font-family="sans-serif" font-size="14" lengthAdjust="spacing" textLength="134" x="823" y="663.752">VaccinationCenter vc</text></g><!--MD5=[0e024521649721a4d73c95f89564e183]
link RecordAdverseReactionUI to RecordAdverseReactionController--><g id="link_RecordAdverseReactionUI_RecordAdverseReactionController"><path codeLine="45" d="M740,39.39 C740,53.4 740,74.89 740,94.87 " fill="none" id="RecordAdverseReactionUI-to-RecordAdverseReactionController" style="stroke:#181818;stroke-width:1.0;stroke-dasharray:7.0,7.0;"/><polygon fill="#181818" points="740,99.91,744,90.91,740,94.91,736,90.91,740,99.91" style="stroke:#181818;stroke-width:1.0;"/></g><!--MD5=[24e69709ebbcfed57eef17a886bd2971]
link RecordAdverseReactionController to Company--><g id="link_RecordAdverseReactionController_Company"><path codeLine="46" d="M655.42,193.14 C620.63,211.91 580.75,233.44 547.34,251.46 " fill="none" id="RecordAdverseReactionController-to-Company" style="stroke:#181818;stroke-width:1.0;stroke-dasharray:7.0,7.0;"/><polygon fill="#181818" points="542.88,253.87,552.7004,253.1212,547.2814,251.4978,548.9048,246.0789,542.88,253.87" style="stroke:#181818;stroke-width:1.0;"/></g><!--MD5=[05962c0a9a70769946f1856d7942a74b]
link Company to WaitingRoomStore--><g id="link_Company_WaitingRoomStore"><path codeLine="47" d="M475,329.21 C475,353.5 475,385.41 475,410.68 " fill="none" id="Company-to-WaitingRoomStore" style="stroke:#181818;stroke-width:1.0;"/><polygon fill="#181818" points="475,415.96,479,406.96,475,410.96,471,406.96,475,415.96" style="stroke:#181818;stroke-width:1.0;"/><polygon fill="#000000" points="480,373.1758,482.9389,364.1307,477.0611,364.1307,480,373.1758" style="stroke:#000000;stroke-width:1.0;"/><text fill="#000000" font-family="sans-serif" font-size="13" lengthAdjust="spacing" textLength="28" x="489" y="373.4951">uses</text><text fill="#000000" font-family="sans-serif" font-size="13" lengthAdjust="spacing" textLength="7" x="467.3984" y="350.5729">1</text><text fill="#000000" font-family="sans-serif" font-size="13" lengthAdjust="spacing" textLength="7" x="467.3547" y="405.0709">1</text></g><!--MD5=[b2b46b71702a68afe9297325a03f1442]
link Company to AdverseReactionStore--><g id="link_Company_AdverseReactionStore"><path codeLine="48" d="M399.7,329.01 C353.36,351.48 293.44,380.53 243.37,404.81 " fill="none" id="Company-to-AdverseReactionStore" style="stroke:#181818;stroke-width:1.0;"/><polygon fill="#181818" points="238.86,406.99,248.704,406.6812,243.3631,404.8171,245.2273,399.4762,238.86,406.99" style="stroke:#181818;stroke-width:1.0;"/><polygon fill="#000000" points="330.501,370.3572,339.922,369.0554,337.3576,363.7665,330.501,370.3572" style="stroke:#000000;stroke-width:1.0;"/><text fill="#000000" font-family="sans-serif" font-size="13" lengthAdjust="spacing" textLength="28" x="344" y="373.4951">uses</text><text fill="#000000" font-family="sans-serif" font-size="13" lengthAdjust="spacing" textLength="7" x="378.6638" y="350.6234">1</text><text fill="#000000" font-family="sans-serif" font-size="13" lengthAdjust="spacing" textLength="7" x="245.6964" y="396.1783">1</text></g><!--MD5=[d010021550049d5648de2f19492cd488]
link AdverseReactionStore to AdverseReaction--><g id="link_AdverseReactionStore_AdverseReaction"><path codeLine="49" d="M283.02,495.62 C288.75,497.13 294.42,498.6 300,500 C482.03,545.69 698.56,587.97 811.92,609.2 " fill="none" id="AdverseReactionStore-to-AdverseReaction" style="stroke:#181818;stroke-width:1.0;"/><polygon fill="#181818" points="816.91,610.13,808.7935,604.5513,811.9943,609.2155,807.3302,612.4163,816.91,610.13" style="stroke:#181818;stroke-width:1.0;"/><polygon fill="#000000" points="502.8885,540.2256,494.6621,535.4531,493.428,541.1999,502.8885,540.2256" style="stroke:#000000;stroke-width:1.0;"/><text fill="#000000" font-family="sans-serif" font-size="13" lengthAdjust="spacing" textLength="37" x="507" y="544.4951">knows</text><text fill="#000000" font-family="sans-serif" font-size="13" lengthAdjust="spacing" textLength="7" x="291.2016" y="495.1028">1</text><text fill="#000000" font-family="sans-serif" font-size="13" lengthAdjust="spacing" textLength="5" x="804.1148" y="605.3452">*</text></g><!--MD5=[ff3f80a87f7a3f3f24394710776fd832]
link AdverseReactionMapper to AdverseReaction--><g id="link_AdverseReactionMapper_AdverseReaction"><path codeLine="50" d="M825.76,320.75 C834.89,343.65 847.26,376.94 855,407 C869.4,462.92 879.02,528.56 884.47,572.79 " fill="none" id="AdverseReactionMapper-to-AdverseReaction" style="stroke:#181818;stroke-width:1.0;stroke-dasharray:7.0,7.0;"/><polygon fill="#181818" points="885.09,577.8,887.9828,568.3856,884.4909,572.836,880.0404,569.3441,885.09,577.8" style="stroke:#181818;stroke-width:1.0;"/></g><!--MD5=[846bed664e8975807ed4b65c8166efc5]
link AdverseReactionMapper to AdverseReactionDTO--><g id="link_AdverseReactionMapper_AdverseReactionDTO"><path codeLine="51" d="M803.06,320.74 C794.39,343.12 782.04,374.97 771.67,401.75 " fill="none" id="AdverseReactionMapper-to-AdverseReactionDTO" style="stroke:#181818;stroke-width:1.0;stroke-dasharray:7.0,7.0;"/><polygon fill="#181818" points="769.75,406.69,776.7256,399.7373,771.5526,402.0262,769.2636,396.8532,769.75,406.69" style="stroke:#181818;stroke-width:1.0;"/></g><!--MD5=[4a0e95ad0b03fad927e2bb6bd740fb49]
link RecordAdverseReactionController to AdverseReactionMapper--><g id="link_RecordAdverseReactionController_AdverseReactionMapper"><path codeLine="52" d="M763.62,193.14 C774.46,214.09 787.07,238.46 796.96,257.58 " fill="none" id="RecordAdverseReactionController-to-AdverseReactionMapper" style="stroke:#181818;stroke-width:1.0;stroke-dasharray:7.0,7.0;"/><polygon fill="#181818" points="799.42,262.32,798.8346,252.4886,797.1213,257.8797,791.7302,256.1664,799.42,262.32" style="stroke:#181818;stroke-width:1.0;"/></g><!--MD5=[deedade5197bc36e0965cebd11de858f]
link RecordAdverseReactionController to AdverseReactionDTO--><g id="link_RecordAdverseReactionController_AdverseReactionDTO"><path codeLine="53" d="M720.43,193.01 C713.46,211.56 706.47,233.44 703,254 C697.45,286.87 696.74,296.26 703,329 C707.77,353.96 717.51,380.31 727.06,402.23 " fill="none" id="RecordAdverseReactionController-to-AdverseReactionDTO" style="stroke:#181818;stroke-width:1.0;stroke-dasharray:7.0,7.0;"/><polygon fill="#181818" points="729.09,406.84,729.0957,396.9911,727.062,402.2698,721.7833,400.236,729.09,406.84" style="stroke:#181818;stroke-width:1.0;"/></g><!--MD5=[3475f0c80d5406586ffa923ffba858ff]
link RecordAdverseReactionController to AdverseReaction--><g id="link_RecordAdverseReactionController_AdverseReaction"><path codeLine="54" d="M862.17,193.07 C887.6,208.44 911.16,228.41 926,254 C984.52,354.94 942.28,497.89 912.51,572.96 " fill="none" id="RecordAdverseReactionController-to-AdverseReaction" style="stroke:#181818;stroke-width:1.0;stroke-dasharray:7.0,7.0;"/><polygon fill="#181818" points="910.57,577.8,917.6264,570.9293,912.427,573.1576,910.1986,567.9581,910.57,577.8" style="stroke:#181818;stroke-width:1.0;"/></g><!--MD5=[8651d287a9af65a3a7a11e546ea107f6]
@startuml

hide empty members

class RecordAdverseReactionUI{
}

class RecordAdverseReactionController{
+createAdverseReaction(snsu,arText,vc)
+getAdverseReaction()
+saveAdverseReaction(ar)
}

class Company{
+getWaitingRoomStore()
+getAdverseReactionStore()
}

class AdverseReactionStore{
+createAdverseReaction(snsu,arText,vc)
+validateAdverseReaction(ar)
+addAdverseReaction(ar)
}

class WaitingRoomStore{
+getSNSUserAtWaitingRoom(snsNumber)
+getVaccinationCenterOfSNSUser(snsNumber)
}

class AdverseReactionDTO{
SNSUser snsu
String arText
VaccinationCenter vc
}

class AdverseReactionMapper{
+toDTO(ar)
}

class AdverseReaction{
SNSUser snsu
String arText
VaccinationCenter vc
}

RecordAdverseReactionUI ..> RecordAdverseReactionController
RecordAdverseReactionController ..> Company
Company "1" - -> "1" WaitingRoomStore: uses >
Company "1" - -> "1" AdverseReactionStore: uses >
AdverseReactionStore "1" - -> "*" AdverseReaction: knows >
AdverseReactionMapper ..> AdverseReaction
AdverseReactionMapper ..> AdverseReactionDTO
RecordAdverseReactionController ..> AdverseReactionMapper
RecordAdverseReactionController ..> AdverseReactionDTO
RecordAdverseReactionController ..> AdverseReaction

@enduml

PlantUML version 1.2022.5(Sat Apr 30 11:55:52 BST 2022)
(GPL source distribution)
Java Runtime: OpenJDK Runtime Environment
JVM: OpenJDK 64-Bit Server VM
Default Encoding: Cp1252
Language: en
Country: US
--></g></svg>