<?xml version="1.0" encoding="UTF-8" standalone="no"?><svg xmlns="http://www.w3.org/2000/svg" xmlns:xlink="http://www.w3.org/1999/xlink" contentStyleType="text/css" height="709.1px" preserveAspectRatio="none" style="width:1313px;height:709px;background:#FFFFFF;" version="1.1" viewBox="0 0 1313 709" width="1313.2px" zoomAndPan="magnify"><defs/><g><rect fill="#FFFFFF" height="574.3062" style="stroke:#181818;stroke-width:0.6999999999999998;" width="7" x="15.05" y="64.8266"/><rect fill="#FFFFFF" height="21.2461" style="stroke:#181818;stroke-width:0.6999999999999998;" width="7" x="265.65" y="80.4727"/><rect fill="#FFFFFF" height="328.4914" style="stroke:#181818;stroke-width:0.6999999999999998;" width="7" x="265.65" y="122.9648"/><rect fill="#FFFFFF" height="166.4305" style="stroke:#181818;stroke-width:0.6999999999999998;" width="7" x="265.65" y="472.7023"/><rect fill="#FFFFFF" height="274.5531" style="stroke:#181818;stroke-width:0.6999999999999998;" width="7" x="485.45" y="144.2109"/><rect fill="#FFFFFF" height="151.4844" style="stroke:#181818;stroke-width:0.6999999999999998;" width="7" x="485.45" y="493.9484"/><rect fill="#FFFFFF" height="21.2461" style="stroke:#181818;stroke-width:0.6999999999999998;" width="7" x="774.55" y="250.4414"/><rect fill="#FFFFFF" height="21" style="stroke:#181818;stroke-width:0.6999999999999998;" width="7" x="774.55" y="301.5141"/><rect fill="#FFFFFF" height="97.7922" style="stroke:#181818;stroke-width:0.6999999999999998;" width="7" x="774.55" y="515.1945"/><rect fill="#FFFFFF" height="19.6" style="stroke:#181818;stroke-width:0.6999999999999998;" width="7" x="778.05" y="542.0406"/><rect fill="#FFFFFF" height="19.6" style="stroke:#181818;stroke-width:0.6999999999999998;" width="7" x="778.05" y="593.3867"/><rect fill="#FFFFFF" height="53.7578" style="stroke:#181818;stroke-width:0.6999999999999998;" width="7" x="1040.55" y="343.7602"/><line style="stroke:#181818;stroke-width:0.3499999999999999;stroke-dasharray:5.0,5.0;" x1="18.2" x2="18.2" y1="57.8266" y2="651.7328"/><line style="stroke:#181818;stroke-width:0.3499999999999999;stroke-dasharray:5.0,5.0;" x1="269.15" x2="269.15" y1="57.8266" y2="651.7328"/><line style="stroke:#181818;stroke-width:0.3499999999999999;stroke-dasharray:5.0,5.0;" x1="488.95" x2="488.95" y1="57.8266" y2="651.7328"/><line style="stroke:#181818;stroke-width:0.3499999999999999;stroke-dasharray:5.0,5.0;" x1="684.95" x2="684.95" y1="57.8266" y2="651.7328"/><line style="stroke:#181818;stroke-width:0.3499999999999999;stroke-dasharray:5.0,5.0;" x1="778.05" x2="778.05" y1="57.8266" y2="651.7328"/><line style="stroke:#181818;stroke-width:0.3499999999999999;stroke-dasharray:5.0,5.0;" x1="918.75" x2="918.75" y1="57.8266" y2="651.7328"/><line style="stroke:#181818;stroke-width:0.3499999999999999;stroke-dasharray:5.0,5.0;" x1="1044.05" x2="1044.05" y1="57.8266" y2="651.7328"/><line style="stroke:#181818;stroke-width:0.3499999999999999;stroke-dasharray:5.0,5.0;" x1="1162.35" x2="1162.35" y1="57.8266" y2="651.7328"/><line style="stroke:#181818;stroke-width:0.3499999999999999;stroke-dasharray:5.0,5.0;" x1="1263.85" x2="1263.85" y1="277.9547" y2="651.7328"/><text fill="#000000" font-family="sans-serif" font-size="9.8" lengthAdjust="spacing" textLength="25.9" x="3.5" y="55.6732">Nurse</text><ellipse cx="18.55" cy="9.45" fill="#E2E2F0" rx="5.6" ry="5.6" style="stroke:#181818;stroke-width:0.3499999999999999;"/><path d="M18.55,15.05 L18.55,33.95 M9.45,20.65 L27.65,20.65 M18.55,33.95 L9.45,44.45 M18.55,33.95 L27.65,44.45 " fill="none" style="stroke:#181818;stroke-width:0.3499999999999999;"/><text fill="#000000" font-family="sans-serif" font-size="9.8" lengthAdjust="spacing" textLength="25.9" x="3.5" y="661.2061">Nurse</text><ellipse cx="18.55" cy="669.3094" fill="#E2E2F0" rx="5.6" ry="5.6" style="stroke:#181818;stroke-width:0.3499999999999999;"/><path d="M18.55,674.9094 L18.55,693.8094 M9.45,680.5094 L27.65,680.5094 M18.55,693.8094 L9.45,704.3094 M18.55,693.8094 L27.65,704.3094 " fill="none" style="stroke:#181818;stroke-width:0.3499999999999999;"/><rect fill="#E2E2F0" height="22.1266" rx="1.75" ry="1.75" style="stroke:#181818;stroke-width:0.3499999999999999;" width="131.6" x="203.35" y="35"/><text fill="#000000" font-family="sans-serif" font-size="9.8" lengthAdjust="spacing" textLength="121.8" x="208.25" y="50.0732">: RecordAdverseReactionUI</text><rect fill="#E2E2F0" height="22.1266" rx="1.75" ry="1.75" style="stroke:#181818;stroke-width:0.3499999999999999;" width="131.6" x="203.35" y="651.0328"/><text fill="#000000" font-family="sans-serif" font-size="9.8" lengthAdjust="spacing" textLength="121.8" x="208.25" y="666.1061">: RecordAdverseReactionUI</text><rect fill="#E2E2F0" height="22.1266" rx="1.75" ry="1.75" style="stroke:#181818;stroke-width:0.3499999999999999;" width="166.6" x="405.65" y="35"/><text fill="#000000" font-family="sans-serif" font-size="9.8" lengthAdjust="spacing" textLength="156.8" x="410.55" y="50.0732">: RecordAdverseReactionController</text><rect fill="#E2E2F0" height="22.1266" rx="1.75" ry="1.75" style="stroke:#181818;stroke-width:0.3499999999999999;" width="166.6" x="405.65" y="651.0328"/><text fill="#000000" font-family="sans-serif" font-size="9.8" lengthAdjust="spacing" textLength="156.8" x="410.55" y="666.1061">: RecordAdverseReactionController</text><rect fill="#E2E2F0" height="22.1266" rx="1.75" ry="1.75" style="stroke:#181818;stroke-width:0.3499999999999999;" width="57.4" x="656.25" y="35"/><text fill="#000000" font-family="sans-serif" font-size="9.8" lengthAdjust="spacing" textLength="47.6" x="661.15" y="50.0732">: Company</text><rect fill="#E2E2F0" height="22.1266" rx="1.75" ry="1.75" style="stroke:#181818;stroke-width:0.3499999999999999;" width="57.4" x="656.25" y="651.0328"/><text fill="#000000" font-family="sans-serif" font-size="9.8" lengthAdjust="spacing" textLength="47.6" x="661.15" y="666.1061">: Company</text><rect fill="#E2E2F0" height="22.1266" rx="1.75" ry="1.75" style="stroke:#181818;stroke-width:0.3499999999999999;" width="114.8" x="720.65" y="35"/><text fill="#000000" font-family="sans-serif" font-size="9.8" lengthAdjust="spacing" textLength="105" x="725.55" y="50.0732">: AdverseReactionStore</text><rect fill="#E2E2F0" height="22.1266" rx="1.75" ry="1.75" style="stroke:#181818;stroke-width:0.3499999999999999;" width="114.8" x="720.65" y="651.0328"/><text fill="#000000" font-family="sans-serif" font-size="9.8" lengthAdjust="spacing" textLength="105" x="725.55" y="666.1061">: AdverseReactionStore</text><rect fill="#E2E2F0" height="22.1266" rx="1.75" ry="1.75" style="stroke:#181818;stroke-width:0.3499999999999999;" width="112" x="862.75" y="35"/><text fill="#000000" font-family="sans-serif" font-size="9.8" lengthAdjust="spacing" textLength="102.2" x="867.65" y="50.0732">: AdverseReactionDTO</text><rect fill="#E2E2F0" height="22.1266" rx="1.75" ry="1.75" style="stroke:#181818;stroke-width:0.3499999999999999;" width="112" x="862.75" y="651.0328"/><text fill="#000000" font-family="sans-serif" font-size="9.8" lengthAdjust="spacing" textLength="102.2" x="867.65" y="666.1061">: AdverseReactionDTO</text><rect fill="#E2E2F0" height="22.1266" rx="1.75" ry="1.75" style="stroke:#181818;stroke-width:0.3499999999999999;" width="124.6" x="981.75" y="35"/><text fill="#000000" font-family="sans-serif" font-size="9.8" lengthAdjust="spacing" textLength="114.8" x="986.65" y="50.0732">: AdverseReactionMapper</text><rect fill="#E2E2F0" height="22.1266" rx="1.75" ry="1.75" style="stroke:#181818;stroke-width:0.3499999999999999;" width="124.6" x="981.75" y="651.0328"/><text fill="#000000" font-family="sans-serif" font-size="9.8" lengthAdjust="spacing" textLength="114.8" x="986.65" y="666.1061">: AdverseReactionMapper</text><rect fill="#E2E2F0" height="22.1266" rx="1.75" ry="1.75" style="stroke:#181818;stroke-width:0.3499999999999999;" width="98" x="1113.35" y="35"/><text fill="#000000" font-family="sans-serif" font-size="9.8" lengthAdjust="spacing" textLength="88.2" x="1118.25" y="50.0732">: WaitingRoomStore</text><rect fill="#E2E2F0" height="22.1266" rx="1.75" ry="1.75" style="stroke:#181818;stroke-width:0.3499999999999999;" width="98" x="1113.35" y="651.0328"/><text fill="#000000" font-family="sans-serif" font-size="9.8" lengthAdjust="spacing" textLength="88.2" x="1118.25" y="666.1061">: WaitingRoomStore</text><rect fill="#E2E2F0" height="22.1266" rx="1.75" ry="1.75" style="stroke:#181818;stroke-width:0.3499999999999999;" width="91" x="1218.35" y="651.0328"/><text fill="#000000" font-family="sans-serif" font-size="9.8" lengthAdjust="spacing" textLength="81.2" x="1223.25" y="666.1061">: AdverseReaction</text><rect fill="#FFFFFF" height="574.3062" style="stroke:#181818;stroke-width:0.6999999999999998;" width="7" x="15.05" y="64.8266"/><rect fill="#FFFFFF" height="21.2461" style="stroke:#181818;stroke-width:0.6999999999999998;" width="7" x="265.65" y="80.4727"/><rect fill="#FFFFFF" height="328.4914" style="stroke:#181818;stroke-width:0.6999999999999998;" width="7" x="265.65" y="122.9648"/><rect fill="#FFFFFF" height="166.4305" style="stroke:#181818;stroke-width:0.6999999999999998;" width="7" x="265.65" y="472.7023"/><rect fill="#FFFFFF" height="274.5531" style="stroke:#181818;stroke-width:0.6999999999999998;" width="7" x="485.45" y="144.2109"/><rect fill="#FFFFFF" height="151.4844" style="stroke:#181818;stroke-width:0.6999999999999998;" width="7" x="485.45" y="493.9484"/><rect fill="#FFFFFF" height="21.2461" style="stroke:#181818;stroke-width:0.6999999999999998;" width="7" x="774.55" y="250.4414"/><rect fill="#FFFFFF" height="21" style="stroke:#181818;stroke-width:0.6999999999999998;" width="7" x="774.55" y="301.5141"/><rect fill="#FFFFFF" height="97.7922" style="stroke:#181818;stroke-width:0.6999999999999998;" width="7" x="774.55" y="515.1945"/><rect fill="#FFFFFF" height="19.6" style="stroke:#181818;stroke-width:0.6999999999999998;" width="7" x="778.05" y="542.0406"/><rect fill="#FFFFFF" height="19.6" style="stroke:#181818;stroke-width:0.6999999999999998;" width="7" x="778.05" y="593.3867"/><rect fill="#FFFFFF" height="53.7578" style="stroke:#181818;stroke-width:0.6999999999999998;" width="7" x="1040.55" y="343.7602"/><polygon fill="#181818" points="257.25,77.6727,264.25,80.4727,257.25,83.2727,260.05,80.4727" style="stroke:#181818;stroke-width:0.6999999999999998;"/><line style="stroke:#181818;stroke-width:0.6999999999999998;" x1="22.05" x2="261.45" y1="80.4727" y2="80.4727"/><text fill="#000000" font-family="sans-serif" font-size="9.1" font-weight="bold" lengthAdjust="spacing" textLength="4.9" x="26.95" y="77.0731">1</text><text fill="#000000" font-family="sans-serif" font-size="9.1" lengthAdjust="spacing" textLength="133" x="34.65" y="77.0731">Starts recording adverse reaction</text><polygon fill="#181818" points="29.75,98.9187,22.75,101.7187,29.75,104.5187,26.95,101.7187" style="stroke:#181818;stroke-width:0.6999999999999998;"/><line style="stroke:#181818;stroke-width:0.6999999999999998;stroke-dasharray:2.0,2.0;" x1="25.55" x2="268.45" y1="101.7187" y2="101.7187"/><text fill="#000000" font-family="sans-serif" font-size="9.1" font-weight="bold" lengthAdjust="spacing" textLength="4.9" x="33.95" y="98.3192">2</text><text fill="#000000" font-family="sans-serif" font-size="9.1" lengthAdjust="spacing" textLength="207.9" x="41.65" y="98.3192">asks for data(SNS Number, Adverse Reaction Text)</text><polygon fill="#181818" points="257.25,120.1648,264.25,122.9648,257.25,125.7648,260.05,122.9648" style="stroke:#181818;stroke-width:0.6999999999999998;"/><line style="stroke:#181818;stroke-width:0.6999999999999998;" x1="22.05" x2="261.45" y1="122.9648" y2="122.9648"/><text fill="#000000" font-family="sans-serif" font-size="9.1" font-weight="bold" lengthAdjust="spacing" textLength="4.9" x="26.95" y="119.5653">3</text><text fill="#000000" font-family="sans-serif" font-size="9.1" lengthAdjust="spacing" textLength="85.4" x="34.65" y="119.5653">types requested data</text><polygon fill="#181818" points="477.05,141.4109,484.05,144.2109,477.05,147.0109,479.85,144.2109" style="stroke:#181818;stroke-width:0.6999999999999998;"/><line style="stroke:#181818;stroke-width:0.6999999999999998;" x1="272.65" x2="481.25" y1="144.2109" y2="144.2109"/><text fill="#000000" font-family="sans-serif" font-size="9.1" font-weight="bold" lengthAdjust="spacing" textLength="4.9" x="277.55" y="140.8114">4</text><text fill="#000000" font-family="sans-serif" font-size="9.1" lengthAdjust="spacing" textLength="191.8" x="285.25" y="140.8114">createAdverseReaction(SNSNumber, advReact)</text><polygon fill="#181818" points="676.55,162.657,683.55,165.457,676.55,168.257,679.35,165.457" style="stroke:#181818;stroke-width:0.6999999999999998;"/><line style="stroke:#181818;stroke-width:0.6999999999999998;" x1="492.45" x2="680.75" y1="165.457" y2="165.457"/><text fill="#000000" font-family="sans-serif" font-size="9.1" font-weight="bold" lengthAdjust="spacing" textLength="4.9" x="497.35" y="162.0575">5</text><text fill="#000000" font-family="sans-serif" font-size="9.1" lengthAdjust="spacing" textLength="132.3" x="505.05" y="162.0575">wstore = getWaitingRoomStore()</text><polygon fill="#181818" points="676.55,183.9031,683.55,186.7031,676.55,189.5031,679.35,186.7031" style="stroke:#181818;stroke-width:0.6999999999999998;"/><line style="stroke:#181818;stroke-width:0.6999999999999998;" x1="492.45" x2="680.75" y1="186.7031" y2="186.7031"/><text fill="#000000" font-family="sans-serif" font-size="9.1" font-weight="bold" lengthAdjust="spacing" textLength="4.9" x="497.35" y="183.3036">6</text><text fill="#000000" font-family="sans-serif" font-size="9.1" lengthAdjust="spacing" textLength="168" x="505.05" y="183.3036">store = getRecordAdverseReactionStore()</text><polygon fill="#181818" points="1153.95,205.1492,1160.95,207.9492,1153.95,210.7492,1156.75,207.9492" style="stroke:#181818;stroke-width:0.6999999999999998;"/><line style="stroke:#181818;stroke-width:0.6999999999999998;" x1="492.45" x2="1158.15" y1="207.9492" y2="207.9492"/><text fill="#000000" font-family="sans-serif" font-size="9.1" font-weight="bold" lengthAdjust="spacing" textLength="4.9" x="497.35" y="204.5497">7</text><text fill="#000000" font-family="sans-serif" font-size="9.1" lengthAdjust="spacing" textLength="298.2" x="505.05" y="204.5497">snsu = getSNSUserInTheWaitingRoomByItsSNSNumber(snsuserNumber)</text><polygon fill="#181818" points="1153.95,226.3953,1160.95,229.1953,1153.95,231.9953,1156.75,229.1953" style="stroke:#181818;stroke-width:0.6999999999999998;"/><line style="stroke:#181818;stroke-width:0.6999999999999998;" x1="492.45" x2="1158.15" y1="229.1953" y2="229.1953"/><text fill="#000000" font-family="sans-serif" font-size="9.1" font-weight="bold" lengthAdjust="spacing" textLength="4.9" x="497.35" y="225.7958">8</text><text fill="#000000" font-family="sans-serif" font-size="9.1" lengthAdjust="spacing" textLength="237.3" x="505.05" y="225.7958">vc = getVaccinationCenterBySNSNumber(snsuserNumber)</text><polygon fill="#181818" points="766.15,247.6414,773.15,250.4414,766.15,253.2414,768.95,250.4414" style="stroke:#181818;stroke-width:0.6999999999999998;"/><line style="stroke:#181818;stroke-width:0.6999999999999998;" x1="492.45" x2="770.35" y1="250.4414" y2="250.4414"/><text fill="#000000" font-family="sans-serif" font-size="9.1" font-weight="bold" lengthAdjust="spacing" textLength="4.9" x="497.35" y="247.0419">9</text><text fill="#000000" font-family="sans-serif" font-size="9.1" lengthAdjust="spacing" textLength="193.9" x="505.05" y="247.0419">ar = createAdverseReaction(snsu, advReact, vc)</text><polygon fill="#181818" points="1209.95,268.8875,1216.95,271.6875,1209.95,274.4875,1212.75,271.6875" style="stroke:#181818;stroke-width:0.6999999999999998;"/><line style="stroke:#181818;stroke-width:0.6999999999999998;" x1="778.05" x2="1214.15" y1="271.6875" y2="271.6875"/><text fill="#000000" font-family="sans-serif" font-size="9.1" font-weight="bold" lengthAdjust="spacing" textLength="9.8" x="782.95" y="268.288">10</text><text fill="#000000" font-family="sans-serif" font-size="9.1" lengthAdjust="spacing" textLength="101.5" x="795.55" y="268.288">create(snsu,advReact,vc)</text><rect fill="#E2E2F0" height="22.1266" rx="1.75" ry="1.75" style="stroke:#181818;stroke-width:0.3499999999999999;" width="91" x="1218.35" y="256.0414"/><text fill="#000000" font-family="sans-serif" font-size="9.8" lengthAdjust="spacing" textLength="81.2" x="1223.25" y="271.1146">: AdverseReaction</text><polygon fill="#181818" points="766.15,298.7141,773.15,301.5141,766.15,304.3141,768.95,301.5141" style="stroke:#181818;stroke-width:0.6999999999999998;"/><line style="stroke:#181818;stroke-width:0.6999999999999998;" x1="492.45" x2="770.35" y1="301.5141" y2="301.5141"/><text fill="#000000" font-family="sans-serif" font-size="9.1" font-weight="bold" lengthAdjust="spacing" textLength="9.8" x="497.35" y="298.1146">11</text><text fill="#000000" font-family="sans-serif" font-size="9.1" lengthAdjust="spacing" textLength="111.3" x="509.95" y="298.1146">validateAdverseReaction(ar)</text><polygon fill="#181818" points="1032.15,340.9602,1039.15,343.7602,1032.15,346.5602,1034.95,343.7602" style="stroke:#181818;stroke-width:0.6999999999999998;"/><line style="stroke:#181818;stroke-width:0.6999999999999998;" x1="492.45" x2="1036.35" y1="343.7602" y2="343.7602"/><text fill="#000000" font-family="sans-serif" font-size="9.1" font-weight="bold" lengthAdjust="spacing" textLength="9.8" x="497.35" y="340.3606">12</text><text fill="#000000" font-family="sans-serif" font-size="9.1" lengthAdjust="spacing" textLength="39.2" x="509.95" y="340.3606">toDTO(ar)</text><rect height="29.0117" style="stroke:#000000;stroke-width:1.0499999999999998;fill:none;" width="145.6" x="979.65" y="349.3602"/><path d="M979.65,349.3602 L1023.05,349.3602 L1023.05,354.9602 L1016.05,361.9602 L979.65,361.9602 L979.65,349.3602 " fill="#EEEEEE" style="stroke:#000000;stroke-width:1.3999999999999997;"/><text fill="#000000" font-family="sans-serif" font-size="9.1" font-weight="bold" lengthAdjust="spacing" textLength="11.9" x="988.75" y="360.2067">ref</text><text fill="#000000" font-family="sans-serif" font-size="8.4" lengthAdjust="spacing" textLength="140" x="982.45" y="373.4801">SD_AdverseReactionMapper_toDTO</text><polygon fill="#181818" points="500.15,394.718,493.15,397.518,500.15,400.318,497.35,397.518" style="stroke:#181818;stroke-width:0.6999999999999998;"/><line style="stroke:#181818;stroke-width:0.6999999999999998;stroke-dasharray:2.0,2.0;" x1="495.95" x2="1043.35" y1="397.518" y2="397.518"/><text fill="#000000" font-family="sans-serif" font-size="9.1" font-weight="bold" lengthAdjust="spacing" textLength="9.8" x="504.35" y="394.1185">13</text><text fill="#000000" font-family="sans-serif" font-size="9.1" lengthAdjust="spacing" textLength="25.9" x="516.95" y="394.1185">arDTO</text><polygon fill="#181818" points="280.35,415.9641,273.35,418.7641,280.35,421.5641,277.55,418.7641" style="stroke:#181818;stroke-width:0.6999999999999998;"/><line style="stroke:#181818;stroke-width:0.6999999999999998;stroke-dasharray:2.0,2.0;" x1="276.15" x2="488.25" y1="418.7641" y2="418.7641"/><text fill="#000000" font-family="sans-serif" font-size="9.1" font-weight="bold" lengthAdjust="spacing" textLength="9.8" x="284.55" y="415.3646">14</text><text fill="#000000" font-family="sans-serif" font-size="9.1" lengthAdjust="spacing" textLength="25.9" x="297.15" y="415.3646">arDTO</text><polygon fill="#181818" points="29.75,448.6562,22.75,451.4562,29.75,454.2562,26.95,451.4562" style="stroke:#181818;stroke-width:0.6999999999999998;"/><line style="stroke:#181818;stroke-width:0.6999999999999998;stroke-dasharray:2.0,2.0;" x1="25.55" x2="268.45" y1="451.4562" y2="451.4562"/><text fill="#000000" font-family="sans-serif" font-size="9.1" font-weight="bold" lengthAdjust="spacing" textLength="9.8" x="33.95" y="442.3337">15</text><text fill="#000000" font-family="sans-serif" font-size="9.1" lengthAdjust="spacing" textLength="211.4" x="46.55" y="436.6106">shows SNS User correspondent to the SNS Number</text><text fill="#000000" font-family="sans-serif" font-size="9.1" lengthAdjust="spacing" textLength="162.4" x="49.35" y="448.0567">and adverse reaction waiting for approval</text><polygon fill="#181818" points="257.25,469.9023,264.25,472.7023,257.25,475.5023,260.05,472.7023" style="stroke:#181818;stroke-width:0.6999999999999998;"/><line style="stroke:#181818;stroke-width:0.6999999999999998;" x1="22.05" x2="261.45" y1="472.7023" y2="472.7023"/><text fill="#000000" font-family="sans-serif" font-size="9.1" font-weight="bold" lengthAdjust="spacing" textLength="9.8" x="26.95" y="469.3028">16</text><text fill="#000000" font-family="sans-serif" font-size="9.1" lengthAdjust="spacing" textLength="61.6" x="39.55" y="469.3028">confirms action</text><polygon fill="#181818" points="477.05,491.1484,484.05,493.9484,477.05,496.7484,479.85,493.9484" style="stroke:#181818;stroke-width:0.6999999999999998;"/><line style="stroke:#181818;stroke-width:0.6999999999999998;" x1="272.65" x2="481.25" y1="493.9484" y2="493.9484"/><text fill="#000000" font-family="sans-serif" font-size="9.1" font-weight="bold" lengthAdjust="spacing" textLength="9.8" x="277.55" y="490.5489">17</text><text fill="#000000" font-family="sans-serif" font-size="9.1" lengthAdjust="spacing" textLength="91.7" x="290.15" y="490.5489">saveAdverseReaction()</text><polygon fill="#181818" points="766.15,512.3945,773.15,515.1945,766.15,517.9945,768.95,515.1945" style="stroke:#181818;stroke-width:0.6999999999999998;"/><line style="stroke:#181818;stroke-width:0.6999999999999998;" x1="492.45" x2="770.35" y1="515.1945" y2="515.1945"/><text fill="#000000" font-family="sans-serif" font-size="9.1" font-weight="bold" lengthAdjust="spacing" textLength="9.8" x="497.35" y="511.795">18</text><text fill="#000000" font-family="sans-serif" font-size="9.1" lengthAdjust="spacing" textLength="99.4" x="509.95" y="511.795">saveAdverseReaction(ar)</text><line style="stroke:#181818;stroke-width:0.6999999999999998;" x1="785.05" x2="814.45" y1="536.4406" y2="536.4406"/><line style="stroke:#181818;stroke-width:0.6999999999999998;" x1="814.45" x2="814.45" y1="536.4406" y2="545.5406"/><line style="stroke:#181818;stroke-width:0.6999999999999998;" x1="785.75" x2="814.45" y1="545.5406" y2="545.5406"/><polygon fill="#181818" points="792.75,542.7406,785.75,545.5406,792.75,548.3406,789.95,545.5406" style="stroke:#181818;stroke-width:0.6999999999999998;"/><text fill="#000000" font-family="sans-serif" font-size="9.1" font-weight="bold" lengthAdjust="spacing" textLength="9.8" x="789.95" y="533.0411">19</text><text fill="#000000" font-family="sans-serif" font-size="9.1" lengthAdjust="spacing" textLength="111.3" x="802.55" y="533.0411">validateAdverseReaction(ar)</text><line style="stroke:#181818;stroke-width:0.6999999999999998;" x1="785.05" x2="814.45" y1="587.7867" y2="587.7867"/><line style="stroke:#181818;stroke-width:0.6999999999999998;" x1="814.45" x2="814.45" y1="587.7867" y2="596.8867"/><line style="stroke:#181818;stroke-width:0.6999999999999998;" x1="785.75" x2="814.45" y1="596.8867" y2="596.8867"/><polygon fill="#181818" points="792.75,594.0867,785.75,596.8867,792.75,599.6867,789.95,596.8867" style="stroke:#181818;stroke-width:0.6999999999999998;"/><text fill="#000000" font-family="sans-serif" font-size="9.1" font-weight="bold" lengthAdjust="spacing" textLength="9.8" x="789.95" y="584.3872">20</text><text fill="#000000" font-family="sans-serif" font-size="9.1" lengthAdjust="spacing" textLength="95.9" x="802.55" y="584.3872">addAdverseReaction(ar)</text><polygon fill="#181818" points="26.25,636.3328,19.25,639.1328,26.25,641.9328,23.45,639.1328" style="stroke:#181818;stroke-width:0.6999999999999998;"/><line style="stroke:#181818;stroke-width:0.6999999999999998;stroke-dasharray:2.0,2.0;" x1="22.05" x2="268.45" y1="639.1328" y2="639.1328"/><text fill="#000000" font-family="sans-serif" font-size="9.1" font-weight="bold" lengthAdjust="spacing" textLength="9.8" x="30.45" y="635.7333">21</text><text fill="#000000" font-family="sans-serif" font-size="9.1" lengthAdjust="spacing" textLength="106.4" x="43.05" y="635.7333">informs oppertion success</text><!--MD5=[16f81e5b253a2cbc71cad400809b4521]
@startuml
autonumber
actor "Nurse" as nur

participant ": RecordAdverseReactionUI" as UI
participant ": RecordAdverseReactionController" as ctrl
participant ": Company" as comp
participant ": AdverseReactionStore" as store
participant ": AdverseReactionDTO" as dto
participant ": AdverseReactionMapper" as mapper
participant ": WaitingRoomStore" as wstore
participant ": AdverseReaction" as adverse


activate nur
nur -> UI : Starts recording adverse reaction
activate UI
UI - -> nur : asks for data(SNS Number, Adverse Reaction Text)
deactivate UI
nur -> UI : types requested data
activate UI
UI -> ctrl : createAdverseReaction(SNSNumber, advReact)

activate ctrl
ctrl -> comp : wstore = getWaitingRoomStore()
ctrl -> comp : store = getRecordAdverseReactionStore()
ctrl -> wstore : snsu = getSNSUserInTheWaitingRoomByItsSNSNumber(snsuserNumber)
ctrl -> wstore : vc = getVaccinationCenterBySNSNumber(snsuserNumber)
ctrl -> store : ar = createAdverseReaction(snsu, advReact, vc)
activate store
store -> adverse** : create(snsu,advReact,vc)
deactivate store
ctrl -> store : validateAdverseReaction(ar)
activate store
deactivate store
ctrl -> mapper : toDTO(ar)
activate mapper
ref over mapper
SD_AdverseReactionMapper_toDTO
endref
mapper - -> ctrl : arDTO
deactivate mapper
ctrl - -> UI : arDTO
deactivate ctrl
UI - -> nur : shows SNS User correspondent to the SNS Number \n and adverse reaction waiting for approval
deactivate UI
nur -> UI : confirms action
activate UI
UI -> ctrl : saveAdverseReaction()
activate ctrl
ctrl -> store : saveAdverseReaction(ar)
activate store
store -> store : validateAdverseReaction(ar)
activate store
deactivate store
store -> store : addAdverseReaction(ar)
activate store
deactivate store

deactivate store
UI - -> nur : informs oppertion success
deactivate UI


deactivate nur


@enduml

PlantUML version 1.2022.5(Sat Apr 30 11:55:52 BST 2022)
(GPL source distribution)
Java Runtime: OpenJDK Runtime Environment
JVM: OpenJDK 64-Bit Server VM
Default Encoding: Cp1252
Language: en
Country: US
--></g></svg>