<?xml version="1.0" encoding="UTF-8" standalone="no"?><svg xmlns="http://www.w3.org/2000/svg" xmlns:xlink="http://www.w3.org/1999/xlink" contentStyleType="text/css" height="229px" preserveAspectRatio="none" style="width:1172px;height:229px;background:#FFFFFF;" version="1.1" viewBox="0 0 1172 229" width="1172px" zoomAndPan="magnify"><defs/><g><!--MD5=[a059576e163b46f56762f12600c49258]
class Nurse--><g id="elem_Nurse"><rect codeLine="5" fill="#F1F1F1" height="40" id="Nurse" rx="2.5" ry="2.5" style="stroke:#181818;stroke-width:0.5;" width="69" x="7" y="123.3564"/><ellipse cx="22" cy="139.3564" fill="#ADD1B2" rx="11" ry="11" style="stroke:#181818;stroke-width:1.0;"/><path d="M24,135.8564 Q24.2031,135.3564 24.4375,135.1064 Q24.6719,134.8564 24.9375,134.8564 Q25.4063,134.8564 25.7031,135.1377 Q26,135.4189 26,136.0752 L26,137.6377 Q26,138.2939 25.7188,138.5752 Q25.4375,138.8564 25,138.8564 Q24.6094,138.8564 24.3594,138.6846 Q24.1094,138.5127 24,138.0596 Q23.9531,137.7471 23.7813,137.5752 Q23.4688,137.2471 22.9063,137.0596 Q22.3438,136.8564 21.7813,136.8564 Q21.0781,136.8564 20.4844,137.1377 Q19.9063,137.4189 19.4531,138.0439 Q19,138.6689 19,139.5283 L19,140.4502 Q19,141.4814 19.8438,142.1689 Q20.6875,142.8564 22.1875,142.8564 Q23.0781,142.8564 23.7031,142.6533 Q24.0625,142.5439 24.4688,142.1846 Q24.7344,141.9814 24.875,141.9189 Q25.0156,141.8564 25.1875,141.8564 Q25.5156,141.8564 25.75,142.1221 Q26,142.3721 26,142.7314 Q26,143.0752 25.6563,143.4814 Q25.1563,144.0752 24.3594,144.4033 Q23.3125,144.8564 22.0313,144.8564 Q20.5313,144.8564 19.3281,144.2627 Q18.3594,143.7939 17.6719,142.7783 Q17,141.7627 17,140.5596 L17,139.4658 Q17,138.2158 17.5938,137.1221 Q18.2031,136.0283 19.25,135.4502 Q20.3125,134.8564 21.5,134.8564 Q22.2188,134.8564 22.8438,135.1064 Q23.4688,135.3564 24,135.8564 Z " fill="#000000"/><text fill="#000000" font-family="sans-serif" font-size="14" lengthAdjust="spacing" textLength="37" x="36" y="145.085">Nurse</text><line style="stroke:#181818;stroke-width:0.5;" x1="8" x2="75" y1="155.3564" y2="155.3564"/></g><!--MD5=[9bf9dadbffb7fbceed2ede59f1107d85]
class AdverseReaction--><g id="elem_AdverseReaction"><rect codeLine="8" fill="#F1F1F1" height="40" id="AdverseReaction" rx="2.5" ry="2.5" style="stroke:#181818;stroke-width:0.5;" width="140" x="273" y="50.3564"/><ellipse cx="288" cy="66.3564" fill="#ADD1B2" rx="11" ry="11" style="stroke:#181818;stroke-width:1.0;"/><path d="M290,62.8564 Q290.2031,62.3564 290.4375,62.1064 Q290.6719,61.8564 290.9375,61.8564 Q291.4063,61.8564 291.7031,62.1377 Q292,62.4189 292,63.0752 L292,64.6377 Q292,65.2939 291.7188,65.5752 Q291.4375,65.8564 291,65.8564 Q290.6094,65.8564 290.3594,65.6846 Q290.1094,65.5127 290,65.0596 Q289.9531,64.7471 289.7813,64.5752 Q289.4688,64.2471 288.9063,64.0596 Q288.3438,63.8564 287.7813,63.8564 Q287.0781,63.8564 286.4844,64.1377 Q285.9063,64.4189 285.4531,65.0439 Q285,65.6689 285,66.5283 L285,67.4502 Q285,68.4814 285.8438,69.1689 Q286.6875,69.8564 288.1875,69.8564 Q289.0781,69.8564 289.7031,69.6533 Q290.0625,69.5439 290.4688,69.1846 Q290.7344,68.9814 290.875,68.9189 Q291.0156,68.8564 291.1875,68.8564 Q291.5156,68.8564 291.75,69.1221 Q292,69.3721 292,69.7314 Q292,70.0752 291.6563,70.4814 Q291.1563,71.0752 290.3594,71.4033 Q289.3125,71.8564 288.0313,71.8564 Q286.5313,71.8564 285.3281,71.2627 Q284.3594,70.7939 283.6719,69.7783 Q283,68.7627 283,67.5596 L283,66.4658 Q283,65.2158 283.5938,64.1221 Q284.2031,63.0283 285.25,62.4502 Q286.3125,61.8564 287.5,61.8564 Q288.2188,61.8564 288.8438,62.1064 Q289.4688,62.3564 290,62.8564 Z " fill="#000000"/><text fill="#000000" font-family="sans-serif" font-size="14" lengthAdjust="spacing" textLength="108" x="302" y="72.085">AdverseReaction</text><line style="stroke:#181818;stroke-width:0.5;" x1="274" x2="412" y1="82.3564" y2="82.3564"/></g><!--MD5=[72be06cc7ae02ccc98efe28a50e62246]
class SNSUser--><g id="elem_SNSUser"><rect codeLine="11" fill="#F1F1F1" height="40" id="SNSUser" rx="2.5" ry="2.5" style="stroke:#181818;stroke-width:0.5;" width="88" x="581" y="50.3564"/><ellipse cx="596" cy="66.3564" fill="#ADD1B2" rx="11" ry="11" style="stroke:#181818;stroke-width:1.0;"/><path d="M598,62.8564 Q598.2031,62.3564 598.4375,62.1064 Q598.6719,61.8564 598.9375,61.8564 Q599.4063,61.8564 599.7031,62.1377 Q600,62.4189 600,63.0752 L600,64.6377 Q600,65.2939 599.7188,65.5752 Q599.4375,65.8564 599,65.8564 Q598.6094,65.8564 598.3594,65.6846 Q598.1094,65.5127 598,65.0596 Q597.9531,64.7471 597.7813,64.5752 Q597.4688,64.2471 596.9063,64.0596 Q596.3438,63.8564 595.7813,63.8564 Q595.0781,63.8564 594.4844,64.1377 Q593.9063,64.4189 593.4531,65.0439 Q593,65.6689 593,66.5283 L593,67.4502 Q593,68.4814 593.8438,69.1689 Q594.6875,69.8564 596.1875,69.8564 Q597.0781,69.8564 597.7031,69.6533 Q598.0625,69.5439 598.4688,69.1846 Q598.7344,68.9814 598.875,68.9189 Q599.0156,68.8564 599.1875,68.8564 Q599.5156,68.8564 599.75,69.1221 Q600,69.3721 600,69.7314 Q600,70.0752 599.6563,70.4814 Q599.1563,71.0752 598.3594,71.4033 Q597.3125,71.8564 596.0313,71.8564 Q594.5313,71.8564 593.3281,71.2627 Q592.3594,70.7939 591.6719,69.7783 Q591,68.7627 591,67.5596 L591,66.4658 Q591,65.2158 591.5938,64.1221 Q592.2031,63.0283 593.25,62.4502 Q594.3125,61.8564 595.5,61.8564 Q596.2188,61.8564 596.8438,62.1064 Q597.4688,62.3564 598,62.8564 Z " fill="#000000"/><text fill="#000000" font-family="sans-serif" font-size="14" lengthAdjust="spacing" textLength="56" x="610" y="72.085">SNSUser</text><line style="stroke:#181818;stroke-width:0.5;" x1="582" x2="668" y1="82.3564" y2="82.3564"/></g><!--MD5=[de60e6d4f424ae4d0522096f76a59010]
class VaccinationCenter--><g id="elem_VaccinationCenter"><rect codeLine="14" fill="#F1F1F1" height="40" id="VaccinationCenter" rx="2.5" ry="2.5" style="stroke:#181818;stroke-width:0.5;" width="148" x="1017" y="50.3564"/><ellipse cx="1032" cy="66.3564" fill="#ADD1B2" rx="11" ry="11" style="stroke:#181818;stroke-width:1.0;"/><path d="M1034,62.8564 Q1034.2031,62.3564 1034.4375,62.1064 Q1034.6719,61.8564 1034.9375,61.8564 Q1035.4063,61.8564 1035.7031,62.1377 Q1036,62.4189 1036,63.0752 L1036,64.6377 Q1036,65.2939 1035.7188,65.5752 Q1035.4375,65.8564 1035,65.8564 Q1034.6094,65.8564 1034.3594,65.6846 Q1034.1094,65.5127 1034,65.0596 Q1033.9531,64.7471 1033.7813,64.5752 Q1033.4688,64.2471 1032.9063,64.0596 Q1032.3438,63.8564 1031.7813,63.8564 Q1031.0781,63.8564 1030.4844,64.1377 Q1029.9063,64.4189 1029.4531,65.0439 Q1029,65.6689 1029,66.5283 L1029,67.4502 Q1029,68.4814 1029.8438,69.1689 Q1030.6875,69.8564 1032.1875,69.8564 Q1033.0781,69.8564 1033.7031,69.6533 Q1034.0625,69.5439 1034.4688,69.1846 Q1034.7344,68.9814 1034.875,68.9189 Q1035.0156,68.8564 1035.1875,68.8564 Q1035.5156,68.8564 1035.75,69.1221 Q1036,69.3721 1036,69.7314 Q1036,70.0752 1035.6563,70.4814 Q1035.1563,71.0752 1034.3594,71.4033 Q1033.3125,71.8564 1032.0313,71.8564 Q1030.5313,71.8564 1029.3281,71.2627 Q1028.3594,70.7939 1027.6719,69.7783 Q1027,68.7627 1027,67.5596 L1027,66.4658 Q1027,65.2158 1027.5938,64.1221 Q1028.2031,63.0283 1029.25,62.4502 Q1030.3125,61.8564 1031.5,61.8564 Q1032.2188,61.8564 1032.8438,62.1064 Q1033.4688,62.3564 1034,62.8564 Z " fill="#000000"/><text fill="#000000" font-family="sans-serif" font-size="14" lengthAdjust="spacing" textLength="116" x="1046" y="72.085">VaccinationCenter</text><line style="stroke:#181818;stroke-width:0.5;" x1="1018" x2="1164" y1="82.3564" y2="82.3564"/></g><!--MD5=[aaa7e27c4ec43917c82a021675d2c87a]
class WaitingRoom--><g id="elem_WaitingRoom"><rect codeLine="17" fill="#F1F1F1" height="40" id="WaitingRoom" rx="2.5" ry="2.5" style="stroke:#181818;stroke-width:0.5;" width="116" x="776" y="50.3564"/><ellipse cx="791" cy="66.3564" fill="#ADD1B2" rx="11" ry="11" style="stroke:#181818;stroke-width:1.0;"/><path d="M793,62.8564 Q793.2031,62.3564 793.4375,62.1064 Q793.6719,61.8564 793.9375,61.8564 Q794.4063,61.8564 794.7031,62.1377 Q795,62.4189 795,63.0752 L795,64.6377 Q795,65.2939 794.7188,65.5752 Q794.4375,65.8564 794,65.8564 Q793.6094,65.8564 793.3594,65.6846 Q793.1094,65.5127 793,65.0596 Q792.9531,64.7471 792.7813,64.5752 Q792.4688,64.2471 791.9063,64.0596 Q791.3438,63.8564 790.7813,63.8564 Q790.0781,63.8564 789.4844,64.1377 Q788.9063,64.4189 788.4531,65.0439 Q788,65.6689 788,66.5283 L788,67.4502 Q788,68.4814 788.8438,69.1689 Q789.6875,69.8564 791.1875,69.8564 Q792.0781,69.8564 792.7031,69.6533 Q793.0625,69.5439 793.4688,69.1846 Q793.7344,68.9814 793.875,68.9189 Q794.0156,68.8564 794.1875,68.8564 Q794.5156,68.8564 794.75,69.1221 Q795,69.3721 795,69.7314 Q795,70.0752 794.6563,70.4814 Q794.1563,71.0752 793.3594,71.4033 Q792.3125,71.8564 791.0313,71.8564 Q789.5313,71.8564 788.3281,71.2627 Q787.3594,70.7939 786.6719,69.7783 Q786,68.7627 786,67.5596 L786,66.4658 Q786,65.2158 786.5938,64.1221 Q787.2031,63.0283 788.25,62.4502 Q789.3125,61.8564 790.5,61.8564 Q791.2188,61.8564 791.8438,62.1064 Q792.4688,62.3564 793,62.8564 Z " fill="#000000"/><text fill="#000000" font-family="sans-serif" font-size="14" lengthAdjust="spacing" textLength="84" x="805" y="72.085">WaitingRoom</text><line style="stroke:#181818;stroke-width:0.5;" x1="777" x2="891" y1="82.3564" y2="82.3564"/></g><g id="elem_N1"><path d="M194,196.3564 L194,222.708 L492,222.708 L492,206.3564 L482,196.3564 L194,196.3564 " fill="#FEFFDD" style="stroke:#181818;stroke-width:0.5;"/><path d="M482,196.3564 L482,206.3564 L492,206.3564 L482,196.3564 " fill="#FEFFDD" style="stroke:#181818;stroke-width:1.0;"/><text fill="#000000" font-family="sans-serif" font-size="13" lengthAdjust="spacing" textLength="277" x="200" y="214.8516">Specifications Document(where Nurse works at)</text></g><!--MD5=[e061032a880d751bf0fb6ebc2f277ecf]
link Nurse to AdverseReaction--><g id="link_Nurse_AdverseReaction"><path codeLine="24" d="M76.01,128.2364 C85.56,124.3064 96.08,120.3464 106,117.3564 C161.2,100.7264 225.47,88.3664 272.98,80.5064 " fill="none" id="Nurse-AdverseReaction" style="stroke:#181818;stroke-width:1.0;"/><polygon fill="#000000" points="115.8594,92.3547,106.3766,91.6286,107.7608,97.3411,115.8594,92.3547" style="stroke:#000000;stroke-width:1.0;"/><text fill="#000000" font-family="sans-serif" font-size="13" lengthAdjust="spacing" textLength="43" x="120" y="98.8516">records</text><text fill="#000000" font-family="sans-serif" font-size="13" lengthAdjust="spacing" textLength="7" x="83.8496" y="120.9993">1</text><text fill="#000000" font-family="sans-serif" font-size="13" lengthAdjust="spacing" textLength="5" x="260.0481" y="96.0059">*</text></g><!--MD5=[537805e34dd8768bd00a6033c7c707ed]
link AdverseReaction to SNSUser--><g id="link_AdverseReaction_SNSUser"><path codeLine="25" d="M413.21,70.3564 C465.68,70.3564 536.16,70.3564 580.83,70.3564 " fill="none" id="AdverseReaction-SNSUser" style="stroke:#181818;stroke-width:1.0;"/><polygon fill="#000000" points="532,61.5322,522.9549,58.5933,522.9549,64.4712,532,61.5322" style="stroke:#000000;stroke-width:1.0;"/><text fill="#000000" font-family="sans-serif" font-size="13" lengthAdjust="spacing" textLength="14" x="536" y="66.8516">for</text><text fill="#000000" font-family="sans-serif" font-size="13" lengthAdjust="spacing" textLength="5" x="421.1627" y="84.7458">*</text><text fill="#000000" font-family="sans-serif" font-size="13" lengthAdjust="spacing" textLength="7" x="565.9347" y="85.2057">1</text></g><!--MD5=[000da5e9a47c4032254e77330cd40e63]
link SNSUser to VaccinationCenter--><g id="link_SNSUser_VaccinationCenter"><path codeLine="26" d="M669.21,53.4664 C678.9,50.0964 689.22,46.8364 699,44.3564 C823.07,12.8864 861.22,20.6264 987,44.3564 C996.7,46.1864 1006.84,48.3864 1016.82,50.7264 " fill="none" id="SNSUser-VaccinationCenter" style="stroke:#181818;stroke-width:1.0;"/><polygon fill="#000000" points="825.4998,15.4928,816.4319,12.6253,816.4782,18.5029,825.4998,15.4928" style="stroke:#000000;stroke-width:1.0;"/><text fill="#000000" font-family="sans-serif" font-size="13" lengthAdjust="spacing" textLength="22" x="829.5" y="20.8516">at a</text><text fill="#000000" font-family="sans-serif" font-size="13" lengthAdjust="spacing" textLength="7" x="677.112" y="65.5183">1</text><text fill="#000000" font-family="sans-serif" font-size="13" lengthAdjust="spacing" textLength="7" x="1001.8093" y="63.0403">1</text></g><!--MD5=[5a65fdea6fc2ed701157a1143872ce6a]
link SNSUser to WaitingRoom--><g id="link_SNSUser_WaitingRoom"><path codeLine="27" d="M669.14,70.3564 C700.07,70.3564 742.04,70.3564 775.77,70.3564 " fill="none" id="SNSUser-WaitingRoom" style="stroke:#181818;stroke-width:1.0;"/><polygon fill="#000000" points="709,61.5322,699.9549,58.5933,699.9549,64.4712,709,61.5322" style="stroke:#000000;stroke-width:1.0;"/><text fill="#000000" font-family="sans-serif" font-size="13" lengthAdjust="spacing" textLength="32" x="713" y="66.8516">in the</text><text fill="#000000" font-family="sans-serif" font-size="13" lengthAdjust="spacing" textLength="7" x="677.0304" y="85.2057">1</text><text fill="#000000" font-family="sans-serif" font-size="13" lengthAdjust="spacing" textLength="7" x="760.8608" y="84.8991">1</text></g><!--MD5=[acb5d1129714769191577de0c65a7622]
link WaitingRoom to VaccinationCenter--><g id="link_WaitingRoom_VaccinationCenter"><path codeLine="28" d="M892.23,70.3564 C929.08,70.3564 977.33,70.3564 1016.95,70.3564 " fill="none" id="WaitingRoom-VaccinationCenter" style="stroke:#181818;stroke-width:1.0;"/><polygon fill="#000000" points="932,61.5322,922.9549,58.5933,922.9549,64.4712,932,61.5322" style="stroke:#000000;stroke-width:1.0;"/><text fill="#000000" font-family="sans-serif" font-size="13" lengthAdjust="spacing" textLength="50" x="936" y="66.8516">is part of</text><text fill="#000000" font-family="sans-serif" font-size="13" lengthAdjust="spacing" textLength="7" x="900.1392" y="84.8991">1</text><text fill="#000000" font-family="sans-serif" font-size="13" lengthAdjust="spacing" textLength="7" x="1001.9527" y="84.6947">1</text></g><!--MD5=[03efd8c9f90c050219bacdb83332548b]
link Nurse to VaccinationCenter--><g id="link_Nurse_VaccinationCenter"><path codeLine="29" d="M76.19,143.3564 C131.62,143.3564 245.55,143.3564 342,143.3564 C342,143.3564 342,143.3564 835,143.3564 C912.13,143.3564 997.5,112.1064 1047.3,90.4964 " fill="none" id="Nurse-VaccinationCenter" style="stroke:#181818;stroke-width:1.0;"/><polygon fill="#000000" points="602.9926,134.2605,593.8012,131.8175,594.1206,137.6867,602.9926,134.2605" style="stroke:#000000;stroke-width:1.0;"/><text fill="#000000" font-family="sans-serif" font-size="13" lengthAdjust="spacing" textLength="49" x="607" y="139.8516">works at</text><text fill="#000000" font-family="sans-serif" font-size="13" lengthAdjust="spacing" textLength="7" x="84.0667" y="158.5378">1</text><text fill="#000000" font-family="sans-serif" font-size="13" lengthAdjust="spacing" textLength="5" x="1029.3063" y="111.9554">*</text></g><!--MD5=[695115723955ef36cb2256ce575b60b4]
link Nurse to N1--><g id="link_Nurse_N1"><path codeLine="32" d="M76.28,158.8064 C85.75,162.6864 96.15,166.5464 106,169.3564 C147.56,181.2264 194.3,190.0564 235.15,196.3564 " fill="none" id="Nurse-N1" style="stroke:#181818;stroke-width:1.0;stroke-dasharray:7.0,7.0;"/></g><!--MD5=[7031b32c4de34ee87c0e070dd3671492]
@startuml
hide methods
left to right direction


class Nurse {
}

class AdverseReaction{
}

class SNSUser{
}

class VaccinationCenter {
}

class WaitingRoom {

}




Nurse "1" - - "*" AdverseReaction : records >
AdverseReaction "*" - - "1" SNSUser : for >
SNSUser "1" - - "1" VaccinationCenter : at a >
SNSUser "1" - - "1" WaitingRoom : in the >
WaitingRoom "1" - - "1" VaccinationCenter : is part of >
Nurse "1" - - "*" VaccinationCenter : works at >

note "Specifications Document(where Nurse works at)" as N1
Nurse .. N1

@enduml

PlantUML version 1.2022.5(Sat Apr 30 11:55:52 BST 2022)
(GPL source distribution)
Java Runtime: OpenJDK Runtime Environment
JVM: OpenJDK 64-Bit Server VM
Default Encoding: Cp1252
Language: en
Country: US
--></g></svg>