<?xml version="1.0" encoding="UTF-8" standalone="no"?><svg xmlns="http://www.w3.org/2000/svg" xmlns:xlink="http://www.w3.org/1999/xlink" contentStyleType="text/css" height="383px" preserveAspectRatio="none" style="width:415px;height:383px;background:#FFFFFF;" version="1.1" viewBox="0 0 415 383" width="415px" zoomAndPan="magnify"><defs/><g><rect fill="#FFFFFF" height="190.4609" style="stroke:#181818;stroke-width:1.0;" width="10" x="21.5" y="92.6094"/><rect fill="#FFFFFF" height="30.3516" style="stroke:#181818;stroke-width:1.0;" width="10" x="372.5" y="114.9609"/><rect fill="#FFFFFF" height="46.7031" style="stroke:#181818;stroke-width:1.0;" width="10" x="372.5" y="175.6641"/><rect fill="#FFFFFF" height="30.3516" style="stroke:#181818;stroke-width:1.0;" width="10" x="372.5" y="252.7188"/><line style="stroke:#181818;stroke-width:0.5;stroke-dasharray:5.0,5.0;" x1="26" x2="26" y1="82.6094" y2="301.0703"/><line style="stroke:#181818;stroke-width:0.5;stroke-dasharray:5.0,5.0;" x1="377.5" x2="377.5" y1="82.6094" y2="301.0703"/><text fill="#000000" font-family="sans-serif" font-size="14" lengthAdjust="spacing" textLength="37" x="5" y="79.5332">Nurse</text><ellipse cx="26.5" cy="13.5" fill="#E2E2F0" rx="8" ry="8" style="stroke:#181818;stroke-width:0.5;"/><path d="M26.5,21.5 L26.5,48.5 M13.5,29.5 L39.5,29.5 M26.5,48.5 L13.5,63.5 M26.5,48.5 L39.5,63.5 " fill="none" style="stroke:#181818;stroke-width:0.5;"/><text fill="#000000" font-family="sans-serif" font-size="14" lengthAdjust="spacing" textLength="37" x="5" y="314.6035">Nurse</text><ellipse cx="26.5" cy="326.1797" fill="#E2E2F0" rx="8" ry="8" style="stroke:#181818;stroke-width:0.5;"/><path d="M26.5,334.1797 L26.5,361.1797 M13.5,342.1797 L39.5,342.1797 M26.5,361.1797 L13.5,376.1797 M26.5,361.1797 L39.5,376.1797 " fill="none" style="stroke:#181818;stroke-width:0.5;"/><rect fill="#E2E2F0" height="31.6094" rx="2.5" ry="2.5" style="stroke:#181818;stroke-width:0.5;" width="64" x="345.5" y="50"/><text fill="#000000" font-family="sans-serif" font-size="14" lengthAdjust="spacing" textLength="50" x="352.5" y="71.5332">:System</text><rect fill="#E2E2F0" height="31.6094" rx="2.5" ry="2.5" style="stroke:#181818;stroke-width:0.5;" width="64" x="345.5" y="300.0703"/><text fill="#000000" font-family="sans-serif" font-size="14" lengthAdjust="spacing" textLength="50" x="352.5" y="321.6035">:System</text><rect fill="#FFFFFF" height="190.4609" style="stroke:#181818;stroke-width:1.0;" width="10" x="21.5" y="92.6094"/><rect fill="#FFFFFF" height="30.3516" style="stroke:#181818;stroke-width:1.0;" width="10" x="372.5" y="114.9609"/><rect fill="#FFFFFF" height="46.7031" style="stroke:#181818;stroke-width:1.0;" width="10" x="372.5" y="175.6641"/><rect fill="#FFFFFF" height="30.3516" style="stroke:#181818;stroke-width:1.0;" width="10" x="372.5" y="252.7188"/><polygon fill="#181818" points="360.5,110.9609,370.5,114.9609,360.5,118.9609,364.5,114.9609" style="stroke:#181818;stroke-width:1.0;"/><line style="stroke:#181818;stroke-width:1.0;" x1="31.5" x2="366.5" y1="114.9609" y2="114.9609"/><text fill="#000000" font-family="sans-serif" font-size="13" font-weight="bold" lengthAdjust="spacing" textLength="7" x="38.5" y="110.1045">1</text><text fill="#000000" font-family="sans-serif" font-size="13" lengthAdjust="spacing" textLength="190" x="49.5" y="110.1045">Starts recording adverse reaction</text><polygon fill="#181818" points="42.5,141.3125,32.5,145.3125,42.5,149.3125,38.5,145.3125" style="stroke:#181818;stroke-width:1.0;"/><line style="stroke:#181818;stroke-width:1.0;stroke-dasharray:2.0,2.0;" x1="36.5" x2="376.5" y1="145.3125" y2="145.3125"/><text fill="#000000" font-family="sans-serif" font-size="13" font-weight="bold" lengthAdjust="spacing" textLength="7" x="48.5" y="140.4561">2</text><text fill="#000000" font-family="sans-serif" font-size="13" lengthAdjust="spacing" textLength="297" x="59.5" y="140.4561">asks for data(SNS Number, Adverse Reaction Text)</text><polygon fill="#181818" points="360.5,171.6641,370.5,175.6641,360.5,179.6641,364.5,175.6641" style="stroke:#181818;stroke-width:1.0;"/><line style="stroke:#181818;stroke-width:1.0;" x1="31.5" x2="366.5" y1="175.6641" y2="175.6641"/><text fill="#000000" font-family="sans-serif" font-size="13" font-weight="bold" lengthAdjust="spacing" textLength="7" x="38.5" y="170.8076">3</text><text fill="#000000" font-family="sans-serif" font-size="13" lengthAdjust="spacing" textLength="122" x="49.5" y="170.8076">types requested data</text><polygon fill="#181818" points="42.5,218.3672,32.5,222.3672,42.5,226.3672,38.5,222.3672" style="stroke:#181818;stroke-width:1.0;"/><line style="stroke:#181818;stroke-width:1.0;stroke-dasharray:2.0,2.0;" x1="36.5" x2="376.5" y1="222.3672" y2="222.3672"/><text fill="#000000" font-family="sans-serif" font-size="13" font-weight="bold" lengthAdjust="spacing" textLength="7" x="48.5" y="209.335">4</text><text fill="#000000" font-family="sans-serif" font-size="13" lengthAdjust="spacing" textLength="302" x="59.5" y="201.1592">shows SNS User correspondent to the SNS Number</text><text fill="#000000" font-family="sans-serif" font-size="13" lengthAdjust="spacing" textLength="232" x="63.5" y="217.5107">and adverse reaction waiting for approval</text><polygon fill="#181818" points="360.5,248.7188,370.5,252.7188,360.5,256.7188,364.5,252.7188" style="stroke:#181818;stroke-width:1.0;"/><line style="stroke:#181818;stroke-width:1.0;" x1="31.5" x2="366.5" y1="252.7188" y2="252.7188"/><text fill="#000000" font-family="sans-serif" font-size="13" font-weight="bold" lengthAdjust="spacing" textLength="7" x="38.5" y="247.8623">5</text><text fill="#000000" font-family="sans-serif" font-size="13" lengthAdjust="spacing" textLength="88" x="49.5" y="247.8623">confirms action</text><polygon fill="#181818" points="37.5,279.0703,27.5,283.0703,37.5,287.0703,33.5,283.0703" style="stroke:#181818;stroke-width:1.0;"/><line style="stroke:#181818;stroke-width:1.0;stroke-dasharray:2.0,2.0;" x1="31.5" x2="376.5" y1="283.0703" y2="283.0703"/><text fill="#000000" font-family="sans-serif" font-size="13" font-weight="bold" lengthAdjust="spacing" textLength="7" x="43.5" y="278.2139">6</text><text fill="#000000" font-family="sans-serif" font-size="13" lengthAdjust="spacing" textLength="152" x="54.5" y="278.2139">informs oppertion success</text><!--MD5=[3363cae13bb27ee61863138dc547a3e5]
@startuml
autonumber
actor "Nurse" as nur

activate nur
nur -> ":System" : Starts recording adverse reaction
activate ":System"
":System" - -> nur : asks for data(SNS Number, Adverse Reaction Text)
deactivate ":System"
nur -> ":System" : types requested data
activate ":System"
":System" - -> nur : shows SNS User correspondent to the SNS Number \n and adverse reaction waiting for approval
deactivate ":System"
nur -> ":System" : confirms action
activate ":System"
":System" - -> nur : informs oppertion success
deactivate ":System"

deactivate nur

@enduml

PlantUML version 1.2022.5(Sat Apr 30 11:55:52 BST 2022)
(GPL source distribution)
Java Runtime: OpenJDK Runtime Environment
JVM: OpenJDK 64-Bit Server VM
Default Encoding: Cp1252
Language: en
Country: US
--></g></svg>