<?xml version="1.0" encoding="UTF-8" standalone="no"?><svg xmlns="http://www.w3.org/2000/svg" xmlns:xlink="http://www.w3.org/1999/xlink" contentScriptType="application/ecmascript" contentStyleType="text/css" height="467px" preserveAspectRatio="none" style="width:642px;height:467px;background:#FFFFFF;" version="1.1" viewBox="0 0 642 467" width="642px" zoomAndPan="magnify"><defs><filter height="300%" id="f1uwe1ftbzdqi7" width="300%" x="-1" y="-1"><feGaussianBlur result="blurOut" stdDeviation="2.0"/><feColorMatrix in="blurOut" result="blurOut2" type="matrix" values="0 0 0 0 0 0 0 0 0 0 0 0 0 0 0 0 0 0 .4 0"/><feOffset dx="4.0" dy="4.0" in="blurOut2" result="blurOut3"/><feBlend in="SourceGraphic" in2="blurOut3" mode="normal"/></filter></defs><g><!--MD5=[02e4b9b7573f1156f41e60aa5b4e25a4]
class Company--><rect codeLine="6" fill="#FEFECE" filter="url(#f1uwe1ftbzdqi7)" height="53.8359" id="Company" style="stroke:#A80036;stroke-width:1.5;" width="85" x="7" y="197"/><ellipse cx="22" cy="213" fill="#ADD1B2" rx="11" ry="11" style="stroke:#A80036;stroke-width:1.0;"/><path d="M24,209.5 Q24.2031,209 24.4375,208.75 Q24.6719,208.5 24.9375,208.5 Q25.4063,208.5 25.7031,208.7813 Q26,209.0625 26,209.7188 L26,211.2813 Q26,211.9375 25.7188,212.2188 Q25.4375,212.5 25,212.5 Q24.6094,212.5 24.3594,212.3281 Q24.1094,212.1563 24,211.7031 Q23.9531,211.3906 23.7813,211.2188 Q23.4688,210.8906 22.9063,210.7031 Q22.3438,210.5 21.7813,210.5 Q21.0781,210.5 20.4844,210.7813 Q19.9063,211.0625 19.4531,211.6875 Q19,212.3125 19,213.1719 L19,214.0938 Q19,215.125 19.8438,215.8125 Q20.6875,216.5 22.1875,216.5 Q23.0781,216.5 23.7031,216.2969 Q24.0625,216.1875 24.4688,215.8281 Q24.7344,215.625 24.875,215.5625 Q25.0156,215.5 25.1875,215.5 Q25.5156,215.5 25.75,215.7656 Q26,216.0156 26,216.375 Q26,216.7188 25.6563,217.125 Q25.1563,217.7188 24.3594,218.0469 Q23.3125,218.5 22.0313,218.5 Q20.5313,218.5 19.3281,217.9063 Q18.3594,217.4375 17.6719,216.4219 Q17,215.4063 17,214.2031 L17,213.1094 Q17,211.8594 17.5938,210.7656 Q18.2031,209.6719 19.25,209.0938 Q20.3125,208.5 21.5,208.5 Q22.2188,208.5 22.8438,208.75 Q23.4688,209 24,209.5 Z " fill="#000000"/><text fill="#000000" font-family="sans-serif" font-size="12" lengthAdjust="spacing" textLength="53" x="36" y="217.9102">Company</text><line style="stroke:#A80036;stroke-width:1.5;" x1="8" x2="91" y1="229" y2="229"/><text fill="#000000" font-family="sans-serif" font-size="11" lengthAdjust="spacing" textLength="59" x="13" y="244.4189">-designation</text><!--MD5=[de60e6d4f424ae4d0522096f76a59010]
class VaccinationCenter--><rect codeLine="10" fill="#FEFECE" filter="url(#f1uwe1ftbzdqi7)" height="192.1953" id="VaccinationCenter" style="stroke:#A80036;stroke-width:1.5;" width="132" x="496" y="7"/><ellipse cx="511" cy="23" fill="#ADD1B2" rx="11" ry="11" style="stroke:#A80036;stroke-width:1.0;"/><path d="M513,19.5 Q513.2031,19 513.4375,18.75 Q513.6719,18.5 513.9375,18.5 Q514.4063,18.5 514.7031,18.7813 Q515,19.0625 515,19.7188 L515,21.2813 Q515,21.9375 514.7188,22.2188 Q514.4375,22.5 514,22.5 Q513.6094,22.5 513.3594,22.3281 Q513.1094,22.1563 513,21.7031 Q512.9531,21.3906 512.7813,21.2188 Q512.4688,20.8906 511.9063,20.7031 Q511.3438,20.5 510.7813,20.5 Q510.0781,20.5 509.4844,20.7813 Q508.9063,21.0625 508.4531,21.6875 Q508,22.3125 508,23.1719 L508,24.0938 Q508,25.125 508.8438,25.8125 Q509.6875,26.5 511.1875,26.5 Q512.0781,26.5 512.7031,26.2969 Q513.0625,26.1875 513.4688,25.8281 Q513.7344,25.625 513.875,25.5625 Q514.0156,25.5 514.1875,25.5 Q514.5156,25.5 514.75,25.7656 Q515,26.0156 515,26.375 Q515,26.7188 514.6563,27.125 Q514.1563,27.7188 513.3594,28.0469 Q512.3125,28.5 511.0313,28.5 Q509.5313,28.5 508.3281,27.9063 Q507.3594,27.4375 506.6719,26.4219 Q506,25.4063 506,24.2031 L506,23.1094 Q506,21.8594 506.5938,20.7656 Q507.2031,19.6719 508.25,19.0938 Q509.3125,18.5 510.5,18.5 Q511.2188,18.5 511.8438,18.75 Q512.4688,19 513,19.5 Z " fill="#000000"/><text fill="#000000" font-family="sans-serif" font-size="12" lengthAdjust="spacing" textLength="100" x="525" y="27.9102">VaccinationCenter</text><line style="stroke:#A80036;stroke-width:1.5;" x1="497" x2="627" y1="39" y2="39"/><text fill="#000000" font-family="sans-serif" font-size="11" lengthAdjust="spacing" textLength="30" x="502" y="54.4189">-name</text><text fill="#000000" font-family="sans-serif" font-size="11" lengthAdjust="spacing" textLength="44" x="502" y="68.2549">-address</text><text fill="#000000" font-family="sans-serif" font-size="11" lengthAdjust="spacing" textLength="70" x="502" y="82.0908">-emailAddress</text><text fill="#000000" font-family="sans-serif" font-size="11" lengthAdjust="spacing" textLength="71" x="502" y="95.9268">-phoneNumber</text><text fill="#000000" font-family="sans-serif" font-size="11" lengthAdjust="spacing" textLength="57" x="502" y="109.7627">-faxNumber</text><text fill="#000000" font-family="sans-serif" font-size="11" lengthAdjust="spacing" textLength="85" x="502" y="123.5986">-websiteAddress</text><text fill="#000000" font-family="sans-serif" font-size="11" lengthAdjust="spacing" textLength="71" x="502" y="137.4346">-openingHours</text><text fill="#000000" font-family="sans-serif" font-size="11" lengthAdjust="spacing" textLength="67" x="502" y="151.2705">-closingHours</text><text fill="#000000" font-family="sans-serif" font-size="11" lengthAdjust="spacing" textLength="61" x="502" y="165.1064">-slotDuration</text><text fill="#000000" font-family="sans-serif" font-size="11" lengthAdjust="spacing" textLength="70" x="502" y="178.9424">-maxVaccines</text><text fill="#000000" font-family="sans-serif" font-size="11" lengthAdjust="spacing" textLength="59" x="502" y="192.7783">-coordinator</text><!--MD5=[1db03e903fe0a044a2ca0dcbef10799a]
class HealthCareCenter--><rect codeLine="24" fill="#FEFECE" filter="url(#f1uwe1ftbzdqi7)" height="219.8672" id="HealthCareCenter" style="stroke:#A80036;stroke-width:1.5;" width="132" x="496" y="234"/><ellipse cx="511" cy="250" fill="#ADD1B2" rx="11" ry="11" style="stroke:#A80036;stroke-width:1.0;"/><path d="M513,246.5 Q513.2031,246 513.4375,245.75 Q513.6719,245.5 513.9375,245.5 Q514.4063,245.5 514.7031,245.7813 Q515,246.0625 515,246.7188 L515,248.2813 Q515,248.9375 514.7188,249.2188 Q514.4375,249.5 514,249.5 Q513.6094,249.5 513.3594,249.3281 Q513.1094,249.1563 513,248.7031 Q512.9531,248.3906 512.7813,248.2188 Q512.4688,247.8906 511.9063,247.7031 Q511.3438,247.5 510.7813,247.5 Q510.0781,247.5 509.4844,247.7813 Q508.9063,248.0625 508.4531,248.6875 Q508,249.3125 508,250.1719 L508,251.0938 Q508,252.125 508.8438,252.8125 Q509.6875,253.5 511.1875,253.5 Q512.0781,253.5 512.7031,253.2969 Q513.0625,253.1875 513.4688,252.8281 Q513.7344,252.625 513.875,252.5625 Q514.0156,252.5 514.1875,252.5 Q514.5156,252.5 514.75,252.7656 Q515,253.0156 515,253.375 Q515,253.7188 514.6563,254.125 Q514.1563,254.7188 513.3594,255.0469 Q512.3125,255.5 511.0313,255.5 Q509.5313,255.5 508.3281,254.9063 Q507.3594,254.4375 506.6719,253.4219 Q506,252.4063 506,251.2031 L506,250.1094 Q506,248.8594 506.5938,247.7656 Q507.2031,246.6719 508.25,246.0938 Q509.3125,245.5 510.5,245.5 Q511.2188,245.5 511.8438,245.75 Q512.4688,246 513,246.5 Z " fill="#000000"/><text fill="#000000" font-family="sans-serif" font-size="12" lengthAdjust="spacing" textLength="100" x="525" y="254.9102">HealthCareCenter</text><line style="stroke:#A80036;stroke-width:1.5;" x1="497" x2="627" y1="266" y2="266"/><text fill="#000000" font-family="sans-serif" font-size="11" lengthAdjust="spacing" textLength="30" x="502" y="281.4189">-name</text><text fill="#000000" font-family="sans-serif" font-size="11" lengthAdjust="spacing" textLength="44" x="502" y="295.2549">-address</text><text fill="#000000" font-family="sans-serif" font-size="11" lengthAdjust="spacing" textLength="70" x="502" y="309.0908">-emailAddress</text><text fill="#000000" font-family="sans-serif" font-size="11" lengthAdjust="spacing" textLength="71" x="502" y="322.9268">-phoneNumber</text><text fill="#000000" font-family="sans-serif" font-size="11" lengthAdjust="spacing" textLength="57" x="502" y="336.7627">-faxNumber</text><text fill="#000000" font-family="sans-serif" font-size="11" lengthAdjust="spacing" textLength="85" x="502" y="350.5986">-websiteAddress</text><text fill="#000000" font-family="sans-serif" font-size="11" lengthAdjust="spacing" textLength="71" x="502" y="364.4346">-openingHours</text><text fill="#000000" font-family="sans-serif" font-size="11" lengthAdjust="spacing" textLength="67" x="502" y="378.2705">-closingHours</text><text fill="#000000" font-family="sans-serif" font-size="11" lengthAdjust="spacing" textLength="61" x="502" y="392.1064">-slotDuration</text><text fill="#000000" font-family="sans-serif" font-size="11" lengthAdjust="spacing" textLength="70" x="502" y="405.9424">-maxVaccines</text><text fill="#000000" font-family="sans-serif" font-size="11" lengthAdjust="spacing" textLength="59" x="502" y="419.7783">-coordinator</text><text fill="#000000" font-family="sans-serif" font-size="11" lengthAdjust="spacing" textLength="33" x="502" y="433.6143">-AGES</text><text fill="#000000" font-family="sans-serif" font-size="11" lengthAdjust="spacing" textLength="26" x="502" y="447.4502">-ARS</text><!--MD5=[da547346deef918ea16944ba046651ef]
class Administrator--><rect codeLine="41" fill="#FEFECE" filter="url(#f1uwe1ftbzdqi7)" height="67.6719" id="Administrator" style="stroke:#A80036;stroke-width:1.5;" width="105" x="266" y="190"/><ellipse cx="281" cy="206" fill="#ADD1B2" rx="11" ry="11" style="stroke:#A80036;stroke-width:1.0;"/><path d="M283,202.5 Q283.2031,202 283.4375,201.75 Q283.6719,201.5 283.9375,201.5 Q284.4063,201.5 284.7031,201.7813 Q285,202.0625 285,202.7188 L285,204.2813 Q285,204.9375 284.7188,205.2188 Q284.4375,205.5 284,205.5 Q283.6094,205.5 283.3594,205.3281 Q283.1094,205.1563 283,204.7031 Q282.9531,204.3906 282.7813,204.2188 Q282.4688,203.8906 281.9063,203.7031 Q281.3438,203.5 280.7813,203.5 Q280.0781,203.5 279.4844,203.7813 Q278.9063,204.0625 278.4531,204.6875 Q278,205.3125 278,206.1719 L278,207.0938 Q278,208.125 278.8438,208.8125 Q279.6875,209.5 281.1875,209.5 Q282.0781,209.5 282.7031,209.2969 Q283.0625,209.1875 283.4688,208.8281 Q283.7344,208.625 283.875,208.5625 Q284.0156,208.5 284.1875,208.5 Q284.5156,208.5 284.75,208.7656 Q285,209.0156 285,209.375 Q285,209.7188 284.6563,210.125 Q284.1563,210.7188 283.3594,211.0469 Q282.3125,211.5 281.0313,211.5 Q279.5313,211.5 278.3281,210.9063 Q277.3594,210.4375 276.6719,209.4219 Q276,208.4063 276,207.2031 L276,206.1094 Q276,204.8594 276.5938,203.7656 Q277.2031,202.6719 278.25,202.0938 Q279.3125,201.5 280.5,201.5 Q281.2188,201.5 281.8438,201.75 Q282.4688,202 283,202.5 Z " fill="#000000"/><text fill="#000000" font-family="sans-serif" font-size="12" lengthAdjust="spacing" textLength="73" x="295" y="210.9102">Administrator</text><line style="stroke:#A80036;stroke-width:1.5;" x1="267" x2="370" y1="222" y2="222"/><text fill="#000000" font-family="sans-serif" font-size="11" lengthAdjust="spacing" textLength="52" x="272" y="237.4189">-username</text><text fill="#000000" font-family="sans-serif" font-size="11" lengthAdjust="spacing" textLength="54" x="272" y="251.2549">-password</text><!--MD5=[eaea43e34e45c5b9d20b595fc78f1f20]
link Company to Administrator--><path codeLine="46" d="M92.22,224 C139.01,224 214.94,224 265.54,224 " fill="none" id="Company-Administrator" style="stroke:#A80036;stroke-width:1.0;"/><polygon fill="#000000" points="163,215.1758,153.9549,212.2369,153.9549,218.1147,163,215.1758" style="stroke:#000000;stroke-width:1.0;"/><text fill="#000000" font-family="sans-serif" font-size="13" lengthAdjust="spacing" textLength="37" x="167" y="220.4951">knows</text><text fill="#000000" font-family="sans-serif" font-size="13" lengthAdjust="spacing" textLength="7" x="99.8752" y="238.8628">1</text><text fill="#000000" font-family="sans-serif" font-size="13" lengthAdjust="spacing" textLength="5" x="253.0876" y="238.6158">*</text><!--MD5=[d497e8607f1e7b3d570c70d67196006d]
link Administrator to VaccinationCenter--><path codeLine="47" d="M371.01,198.19 C407.44,179.94 456.58,155.32 495.75,135.69 " fill="none" id="Administrator-VaccinationCenter" style="stroke:#A80036;stroke-width:1.0;"/><polygon fill="#000000" points="410.4703,141.936,401.067,143.3603,403.7,148.6154,410.4703,141.936" style="stroke:#000000;stroke-width:1.0;"/><text fill="#000000" font-family="sans-serif" font-size="13" lengthAdjust="spacing" textLength="50" x="415" y="149.4951">registers</text><text fill="#000000" font-family="sans-serif" font-size="13" lengthAdjust="spacing" textLength="7" x="378.8864" y="209.2284">1</text><text fill="#000000" font-family="sans-serif" font-size="13" lengthAdjust="spacing" textLength="5" x="482.8008" y="153.8989">*</text><!--MD5=[9ea8b573625e56d0f43533b021429bfd]
link Administrator to HealthCareCenter--><path codeLine="48" d="M371.01,249.6 C407.44,267.7 456.58,292.11 495.75,311.58 " fill="none" id="Administrator-HealthCareCenter" style="stroke:#A80036;stroke-width:1.0;"/><polygon fill="#000000" points="410.4777,260.4006,403.6852,253.7439,401.0697,259.0078,410.4777,260.4006" style="stroke:#000000;stroke-width:1.0;"/><text fill="#000000" font-family="sans-serif" font-size="13" lengthAdjust="spacing" textLength="50" x="415" y="263.4951">registers</text><text fill="#000000" font-family="sans-serif" font-size="13" lengthAdjust="spacing" textLength="7" x="378.8864" y="267.8679">1</text><text fill="#000000" font-family="sans-serif" font-size="13" lengthAdjust="spacing" textLength="5" x="482.8008" y="322.2796">*</text><!--MD5=[7343f099900ec2c3928ad82b03a72b2f]
@startuml
hide methods
left to right direction
skinparam classAttributeIconSize 0


class Company {
  -designation
}

class VaccinationCenter {
  - name
  - address
  - emailAddress
  - phoneNumber
  - faxNumber
  - websiteAddress
  - openingHours
  - closingHours
  - slotDuration
  - maxVaccines
  - coordinator
}

class HealthCareCenter {
  - name
    - address
    - emailAddress
    - phoneNumber
    - faxNumber
    - websiteAddress
    - openingHours
    - closingHours
    - slotDuration
    - maxVaccines
    - coordinator
    -AGES
    -ARS
  }


class Administrator {
-username
-password
}

Company "1"- - -"*" Administrator : knows >
Administrator "1"- -"*" VaccinationCenter : registers >
Administrator "1"- -"*" HealthCareCenter : registers >





@enduml

PlantUML version 1.2022.1(Tue Feb 01 18:19:58 GMT 2022)
(GPL source distribution)
Java Runtime: OpenJDK Runtime Environment
JVM: OpenJDK 64-Bit Server VM
Default Encoding: Cp1252
Language: pt
Country: PT
--></g></svg>