<?xml version="1.0" encoding="UTF-8" standalone="no"?><svg xmlns="http://www.w3.org/2000/svg" xmlns:xlink="http://www.w3.org/1999/xlink" contentStyleType="text/css" height="131px" preserveAspectRatio="none" style="width:1241px;height:131px;background:#FFFFFF;" version="1.1" viewBox="0 0 1241 131" width="1241px" zoomAndPan="magnify"><defs/><g><!--MD5=[0949c93bb2ceac2c9377da7237d80f71]
class VaccinationCenterUI--><g id="elem_VaccinationCenterUI"><rect codeLine="4" fill="#F1F1F1" height="48" id="VaccinationCenterUI" rx="2.5" ry="2.5" style="stroke:#181818;stroke-width:0.5;" width="160" x="7" y="28.2"/><ellipse cx="22" cy="44.2" fill="#ADD1B2" rx="11" ry="11" style="stroke:#181818;stroke-width:1.0;"/><path d="M24,40.7 Q24.2031,40.2 24.4375,39.95 Q24.6719,39.7 24.9375,39.7 Q25.4063,39.7 25.7031,39.9813 Q26,40.2625 26,40.9188 L26,42.4813 Q26,43.1375 25.7188,43.4188 Q25.4375,43.7 25,43.7 Q24.6094,43.7 24.3594,43.5281 Q24.1094,43.3563 24,42.9031 Q23.9531,42.5906 23.7813,42.4188 Q23.4688,42.0906 22.9063,41.9031 Q22.3438,41.7 21.7813,41.7 Q21.0781,41.7 20.4844,41.9813 Q19.9063,42.2625 19.4531,42.8875 Q19,43.5125 19,44.3719 L19,45.2938 Q19,46.325 19.8438,47.0125 Q20.6875,47.7 22.1875,47.7 Q23.0781,47.7 23.7031,47.4969 Q24.0625,47.3875 24.4688,47.0281 Q24.7344,46.825 24.875,46.7625 Q25.0156,46.7 25.1875,46.7 Q25.5156,46.7 25.75,46.9656 Q26,47.2156 26,47.575 Q26,47.9188 25.6563,48.325 Q25.1563,48.9188 24.3594,49.2469 Q23.3125,49.7 22.0313,49.7 Q20.5313,49.7 19.3281,49.1063 Q18.3594,48.6375 17.6719,47.6219 Q17,46.6063 17,45.4031 L17,44.3094 Q17,43.0594 17.5938,41.9656 Q18.2031,40.8719 19.25,40.2938 Q20.3125,39.7 21.5,39.7 Q22.2188,39.7 22.8438,39.95 Q23.4688,40.2 24,40.7 Z " fill="#000000"/><text fill="#000000" font-family="sans-serif" font-size="14" lengthAdjust="spacing" textLength="128" x="36" y="49.9285">VaccinationCenterUI</text><line style="stroke:#181818;stroke-width:0.5;" x1="8" x2="166" y1="60.2" y2="60.2"/><line style="stroke:#181818;stroke-width:0.5;" x1="8" x2="166" y1="68.2" y2="68.2"/></g><!--MD5=[437d6bc2c1df33360273bc3b5a48347c]
class SpecifyNewVaccinationCenterController--><g id="elem_SpecifyNewVaccinationCenterController"><rect codeLine="5" fill="#F1F1F1" height="48" id="SpecifyNewVaccinationCenterController" rx="2.5" ry="2.5" style="stroke:#181818;stroke-width:0.5;" width="282" x="228" y="28.2"/><ellipse cx="243" cy="44.2" fill="#ADD1B2" rx="11" ry="11" style="stroke:#181818;stroke-width:1.0;"/><path d="M245,40.7 Q245.2031,40.2 245.4375,39.95 Q245.6719,39.7 245.9375,39.7 Q246.4063,39.7 246.7031,39.9813 Q247,40.2625 247,40.9188 L247,42.4813 Q247,43.1375 246.7188,43.4188 Q246.4375,43.7 246,43.7 Q245.6094,43.7 245.3594,43.5281 Q245.1094,43.3563 245,42.9031 Q244.9531,42.5906 244.7813,42.4188 Q244.4688,42.0906 243.9063,41.9031 Q243.3438,41.7 242.7813,41.7 Q242.0781,41.7 241.4844,41.9813 Q240.9063,42.2625 240.4531,42.8875 Q240,43.5125 240,44.3719 L240,45.2938 Q240,46.325 240.8438,47.0125 Q241.6875,47.7 243.1875,47.7 Q244.0781,47.7 244.7031,47.4969 Q245.0625,47.3875 245.4688,47.0281 Q245.7344,46.825 245.875,46.7625 Q246.0156,46.7 246.1875,46.7 Q246.5156,46.7 246.75,46.9656 Q247,47.2156 247,47.575 Q247,47.9188 246.6563,48.325 Q246.1563,48.9188 245.3594,49.2469 Q244.3125,49.7 243.0313,49.7 Q241.5313,49.7 240.3281,49.1063 Q239.3594,48.6375 238.6719,47.6219 Q238,46.6063 238,45.4031 L238,44.3094 Q238,43.0594 238.5938,41.9656 Q239.2031,40.8719 240.25,40.2938 Q241.3125,39.7 242.5,39.7 Q243.2188,39.7 243.8438,39.95 Q244.4688,40.2 245,40.7 Z " fill="#000000"/><text fill="#000000" font-family="sans-serif" font-size="14" lengthAdjust="spacing" textLength="250" x="257" y="49.9285">SpecifyNewVaccinationCenterController</text><line style="stroke:#181818;stroke-width:0.5;" x1="229" x2="509" y1="60.2" y2="60.2"/><line style="stroke:#181818;stroke-width:0.5;" x1="229" x2="509" y1="68.2" y2="68.2"/></g><!--MD5=[a29876ea2f21a6ca48ea477740122fd8]
class VaccinationCenterStore--><g id="elem_VaccinationCenterStore"><rect codeLine="6" fill="#F1F1F1" height="48" id="VaccinationCenterStore" rx="2.5" ry="2.5" style="stroke:#181818;stroke-width:0.5;" width="182" x="770" y="28.2"/><ellipse cx="785" cy="44.2" fill="#ADD1B2" rx="11" ry="11" style="stroke:#181818;stroke-width:1.0;"/><path d="M787,40.7 Q787.2031,40.2 787.4375,39.95 Q787.6719,39.7 787.9375,39.7 Q788.4063,39.7 788.7031,39.9813 Q789,40.2625 789,40.9188 L789,42.4813 Q789,43.1375 788.7188,43.4188 Q788.4375,43.7 788,43.7 Q787.6094,43.7 787.3594,43.5281 Q787.1094,43.3563 787,42.9031 Q786.9531,42.5906 786.7813,42.4188 Q786.4688,42.0906 785.9063,41.9031 Q785.3438,41.7 784.7813,41.7 Q784.0781,41.7 783.4844,41.9813 Q782.9063,42.2625 782.4531,42.8875 Q782,43.5125 782,44.3719 L782,45.2938 Q782,46.325 782.8438,47.0125 Q783.6875,47.7 785.1875,47.7 Q786.0781,47.7 786.7031,47.4969 Q787.0625,47.3875 787.4688,47.0281 Q787.7344,46.825 787.875,46.7625 Q788.0156,46.7 788.1875,46.7 Q788.5156,46.7 788.75,46.9656 Q789,47.2156 789,47.575 Q789,47.9188 788.6563,48.325 Q788.1563,48.9188 787.3594,49.2469 Q786.3125,49.7 785.0313,49.7 Q783.5313,49.7 782.3281,49.1063 Q781.3594,48.6375 780.6719,47.6219 Q780,46.6063 780,45.4031 L780,44.3094 Q780,43.0594 780.5938,41.9656 Q781.2031,40.8719 782.25,40.2938 Q783.3125,39.7 784.5,39.7 Q785.2188,39.7 785.8438,39.95 Q786.4688,40.2 787,40.7 Z " fill="#000000"/><text fill="#000000" font-family="sans-serif" font-size="14" lengthAdjust="spacing" textLength="150" x="799" y="49.9285">VaccinationCenterStore</text><line style="stroke:#181818;stroke-width:0.5;" x1="771" x2="951" y1="60.2" y2="60.2"/><line style="stroke:#181818;stroke-width:0.5;" x1="771" x2="951" y1="68.2" y2="68.2"/></g><!--MD5=[02e4b9b7573f1156f41e60aa5b4e25a4]
class Company--><g id="elem_Company"><rect codeLine="7" fill="#F1F1F1" height="48" id="Company" rx="2.5" ry="2.5" style="stroke:#181818;stroke-width:0.5;" width="92" x="571" y="28.2"/><ellipse cx="586" cy="44.2" fill="#ADD1B2" rx="11" ry="11" style="stroke:#181818;stroke-width:1.0;"/><path d="M588,40.7 Q588.2031,40.2 588.4375,39.95 Q588.6719,39.7 588.9375,39.7 Q589.4063,39.7 589.7031,39.9813 Q590,40.2625 590,40.9188 L590,42.4813 Q590,43.1375 589.7188,43.4188 Q589.4375,43.7 589,43.7 Q588.6094,43.7 588.3594,43.5281 Q588.1094,43.3563 588,42.9031 Q587.9531,42.5906 587.7813,42.4188 Q587.4688,42.0906 586.9063,41.9031 Q586.3438,41.7 585.7813,41.7 Q585.0781,41.7 584.4844,41.9813 Q583.9063,42.2625 583.4531,42.8875 Q583,43.5125 583,44.3719 L583,45.2938 Q583,46.325 583.8438,47.0125 Q584.6875,47.7 586.1875,47.7 Q587.0781,47.7 587.7031,47.4969 Q588.0625,47.3875 588.4688,47.0281 Q588.7344,46.825 588.875,46.7625 Q589.0156,46.7 589.1875,46.7 Q589.5156,46.7 589.75,46.9656 Q590,47.2156 590,47.575 Q590,47.9188 589.6563,48.325 Q589.1563,48.9188 588.3594,49.2469 Q587.3125,49.7 586.0313,49.7 Q584.5313,49.7 583.3281,49.1063 Q582.3594,48.6375 581.6719,47.6219 Q581,46.6063 581,45.4031 L581,44.3094 Q581,43.0594 581.5938,41.9656 Q582.2031,40.8719 583.25,40.2938 Q584.3125,39.7 585.5,39.7 Q586.2188,39.7 586.8438,39.95 Q587.4688,40.2 588,40.7 Z " fill="#000000"/><text fill="#000000" font-family="sans-serif" font-size="14" lengthAdjust="spacing" textLength="60" x="600" y="49.9285">Company</text><line style="stroke:#181818;stroke-width:0.5;" x1="572" x2="662" y1="60.2" y2="60.2"/><line style="stroke:#181818;stroke-width:0.5;" x1="572" x2="662" y1="68.2" y2="68.2"/></g><!--MD5=[de60e6d4f424ae4d0522096f76a59010]
class VaccinationCenter--><g id="elem_VaccinationCenter"><rect fill="#F1F1F1" height="48" id="VaccinationCenter" rx="2.5" ry="2.5" style="stroke:#181818;stroke-width:0.5;" width="148" x="1086" y="76.2"/><ellipse cx="1101" cy="92.2" fill="#ADD1B2" rx="11" ry="11" style="stroke:#181818;stroke-width:1.0;"/><path d="M1103,88.7 Q1103.2031,88.2 1103.4375,87.95 Q1103.6719,87.7 1103.9375,87.7 Q1104.4063,87.7 1104.7031,87.9813 Q1105,88.2625 1105,88.9188 L1105,90.4813 Q1105,91.1375 1104.7188,91.4188 Q1104.4375,91.7 1104,91.7 Q1103.6094,91.7 1103.3594,91.5281 Q1103.1094,91.3563 1103,90.9031 Q1102.9531,90.5906 1102.7813,90.4188 Q1102.4688,90.0906 1101.9063,89.9031 Q1101.3438,89.7 1100.7813,89.7 Q1100.0781,89.7 1099.4844,89.9813 Q1098.9063,90.2625 1098.4531,90.8875 Q1098,91.5125 1098,92.3719 L1098,93.2938 Q1098,94.325 1098.8438,95.0125 Q1099.6875,95.7 1101.1875,95.7 Q1102.0781,95.7 1102.7031,95.4969 Q1103.0625,95.3875 1103.4688,95.0281 Q1103.7344,94.825 1103.875,94.7625 Q1104.0156,94.7 1104.1875,94.7 Q1104.5156,94.7 1104.75,94.9656 Q1105,95.2156 1105,95.575 Q1105,95.9188 1104.6563,96.325 Q1104.1563,96.9188 1103.3594,97.2469 Q1102.3125,97.7 1101.0313,97.7 Q1099.5313,97.7 1098.3281,97.1063 Q1097.3594,96.6375 1096.6719,95.6219 Q1096,94.6063 1096,93.4031 L1096,92.3094 Q1096,91.0594 1096.5938,89.9656 Q1097.2031,88.8719 1098.25,88.2938 Q1099.3125,87.7 1100.5,87.7 Q1101.2188,87.7 1101.8438,87.95 Q1102.4688,88.2 1103,88.7 Z " fill="#000000"/><text fill="#000000" font-family="sans-serif" font-size="14" lengthAdjust="spacing" textLength="116" x="1115" y="97.9285">VaccinationCenter</text><line style="stroke:#181818;stroke-width:0.5;" x1="1087" x2="1233" y1="108.2" y2="108.2"/><line style="stroke:#181818;stroke-width:0.5;" x1="1087" x2="1233" y1="116.2" y2="116.2"/></g><!--MD5=[2005b08bfacbc48c4580277156edaa2f]
link VaccinationCenterUI to SpecifyNewVaccinationCenterController--><g id="link_VaccinationCenterUI_SpecifyNewVaccinationCenterController"><path codeLine="11" d="M167.11,52.2 C184.48,52.2 203.4,52.2 222.46,52.2 " fill="none" id="VaccinationCenterUI-to-SpecifyNewVaccinationCenterController" style="stroke:#181818;stroke-width:1.0;stroke-dasharray:7.0,7.0;"/><polygon fill="#181818" points="227.84,52.2,218.84,48.2,222.84,52.2,218.84,56.2,227.84,52.2" style="stroke:#181818;stroke-width:1.0;"/></g><!--MD5=[bc0d5b4bfe6e1bf0a8fced13bc4bdd47]
link Company to VaccinationCenterStore--><g id="link_Company_VaccinationCenterStore"><path codeLine="12" d="M663.23,52.2 C691.79,52.2 729.77,52.2 764.74,52.2 " fill="none" id="Company-to-VaccinationCenterStore" style="stroke:#181818;stroke-width:1.0;"/><polygon fill="#181818" points="769.87,52.2,760.87,48.2,764.87,52.2,760.87,56.2,769.87,52.2" style="stroke:#181818;stroke-width:1.0;"/><polygon fill="#000000" points="703,43.3758,693.9549,40.4369,693.9549,46.3147,703,43.3758" style="stroke:#000000;stroke-width:1.0;"/><text fill="#000000" font-family="sans-serif" font-size="13" lengthAdjust="spacing" textLength="32" x="707" y="48.6951">has a</text><text fill="#000000" font-family="sans-serif" font-size="13" lengthAdjust="spacing" textLength="7" x="670.8449" y="66.947">1</text><text fill="#000000" font-family="sans-serif" font-size="13" lengthAdjust="spacing" textLength="5" x="757.1163" y="66.3722">*</text></g><!--MD5=[8c304936b446fd8cea914e03fbadd4b7]
link VaccinationCenterStore to VaccinationCenter--><g id="link_VaccinationCenterStore_VaccinationCenter"><path codeLine="13" d="M952.32,66.8 C993.15,73.4 1040.95,81.12 1080.3,87.48 " fill="none" id="VaccinationCenterStore-to-VaccinationCenter" style="stroke:#181818;stroke-width:1.0;"/><polygon fill="#181818" points="1085.54,88.33,1077.2947,82.9434,1080.6042,87.5311,1076.0165,90.8407,1085.54,88.33" style="stroke:#181818;stroke-width:1.0;"/><polygon fill="#000000" points="991.936,64.1734,983.4755,59.8292,982.5379,65.6318,991.936,64.1734" style="stroke:#000000;stroke-width:1.0;"/><text fill="#000000" font-family="sans-serif" font-size="13" lengthAdjust="spacing" textLength="59" x="996" y="68.6951">keeps info</text><text fill="#000000" font-family="sans-serif" font-size="13" lengthAdjust="spacing" textLength="7" x="959.876" y="82.1101">1</text><text fill="#000000" font-family="sans-serif" font-size="13" lengthAdjust="spacing" textLength="5" x="1072.9643" y="101.4615">*</text></g><!--MD5=[87f97915b1a05852f6a9f6b1338455e4]
link SpecifyNewVaccinationCenterController to Company--><g id="link_SpecifyNewVaccinationCenterController_Company"><path codeLine="14" d="M510.25,52.2 C530.1,52.2 549.34,52.2 565.84,52.2 " fill="none" id="SpecifyNewVaccinationCenterController-to-Company" style="stroke:#181818;stroke-width:1.0;stroke-dasharray:7.0,7.0;"/><polygon fill="#181818" points="570.87,52.2,561.87,48.2,565.87,52.2,561.87,56.2,570.87,52.2" style="stroke:#181818;stroke-width:1.0;"/></g><!--MD5=[58cadca031087cfafbefc26382ef21ad]
link SpecifyNewVaccinationCenterController to VaccinationCenterStore--><g id="link_SpecifyNewVaccinationCenterController_VaccinationCenterStore"><path codeLine="15" d="M464.97,28.17 C498.26,20.86 536.07,13.81 571,10.2 C611.67,6 622.33,6.02 663,10.2 C697.77,13.77 705.81,18.94 740,26.2 C748.03,27.9 756.36,29.68 764.72,31.48 " fill="none" id="SpecifyNewVaccinationCenterController-to-VaccinationCenterStore" style="stroke:#181818;stroke-width:1.0;stroke-dasharray:7.0,7.0;"/><polygon fill="#181818" points="769.92,32.6,761.966,26.7919,765.0325,31.5455,760.2788,34.612,769.92,32.6" style="stroke:#181818;stroke-width:1.0;"/></g><!--MD5=[8cd5bf80725ebbb3ddf698c536e77172]
link SpecifyNewVaccinationCenterController to VaccinationCenter--><g id="link_SpecifyNewVaccinationCenterController_VaccinationCenter"><path codeLine="16" d="M466,76.25 C499.05,83.46 536.44,90.45 571,94.2 C752.58,113.91 967.55,109 1080.55,104.26 " fill="none" id="SpecifyNewVaccinationCenterController-to-VaccinationCenter" style="stroke:#181818;stroke-width:1.0;stroke-dasharray:7.0,7.0;"/><polygon fill="#181818" points="1085.85,104.03,1076.687,100.419,1080.8546,104.2441,1077.0295,108.4117,1085.85,104.03" style="stroke:#181818;stroke-width:1.0;"/></g><!--MD5=[036025bb5235cbabe81b300b134b3bba]
@startuml
skinparam classAttributeIconSize 0
left to right direction

class VaccinationCenterUI{}
class SpecifyNewVaccinationCenterController{}
class VaccinationCenterStore{}
class Company{}



VaccinationCenterUI ..> SpecifyNewVaccinationCenterController
Company "1"- ->"*" VaccinationCenterStore : has a >
VaccinationCenterStore "1"- ->"*" VaccinationCenter : keeps info >
SpecifyNewVaccinationCenterController ..> Company
SpecifyNewVaccinationCenterController ..> VaccinationCenterStore
SpecifyNewVaccinationCenterController ..> VaccinationCenter


@enduml

PlantUML version 1.2022.4(Sat Apr 09 14:29:17 BST 2022)
(GPL source distribution)
Java Runtime: OpenJDK Runtime Environment
JVM: OpenJDK 64-Bit Server VM
Default Encoding: Cp1252
Language: pt
Country: PT
--></g></svg>