<?xml version="1.0" encoding="UTF-8" standalone="no"?><svg xmlns="http://www.w3.org/2000/svg" xmlns:xlink="http://www.w3.org/1999/xlink" contentStyleType="text/css" height="652px" preserveAspectRatio="none" style="width:2052px;height:652px;background:#FFFFFF;" version="1.1" viewBox="0 0 2052 652" width="2052px" zoomAndPan="magnify"><defs/><g><rect fill="#FFFFFF" height="460.2734" style="stroke:#181818;stroke-width:1.0;" width="10" x="44.5" y="92.6094"/><rect fill="#FFFFFF" height="121.4063" style="stroke:#181818;stroke-width:1.0;" width="10" x="669.5" y="114.9609"/><rect fill="#FFFFFF" height="134.4063" style="stroke:#181818;stroke-width:1.0;" width="10" x="669.5" y="266.7188"/><rect fill="#FFFFFF" height="121.4063" style="stroke:#181818;stroke-width:1.0;" width="10" x="669.5" y="431.4766"/><rect fill="#FFFFFF" height="30.3516" style="stroke:#181818;stroke-width:1.0;" width="10" x="1242.5" y="145.3125"/><rect fill="#FFFFFF" height="104.0547" style="stroke:#181818;stroke-width:1.0;" width="10" x="1242.5" y="297.0703"/><rect fill="#FFFFFF" height="30.3516" style="stroke:#181818;stroke-width:1.0;" width="10" x="1242.5" y="461.8281"/><rect fill="#FFFFFF" height="30.3516" style="stroke:#181818;stroke-width:1.0;" width="10" x="1404.5" y="175.6641"/><rect fill="#FFFFFF" height="30.3516" style="stroke:#181818;stroke-width:1.0;" width="10" x="1404.5" y="492.1797"/><rect fill="#FFFFFF" height="39.3516" style="stroke:#181818;stroke-width:1.0;" width="10" x="1546.5" y="522.5313"/><rect fill="#FFFFFF" height="36.3516" style="stroke:#181818;stroke-width:1.0;" width="10" x="1841.5" y="327.4219"/><line style="stroke:#181818;stroke-width:0.5;stroke-dasharray:5.0,5.0;" x1="49" x2="49" y1="82.6094" y2="570.8828"/><line style="stroke:#181818;stroke-width:0.5;stroke-dasharray:5.0,5.0;" x1="674.5" x2="674.5" y1="82.6094" y2="570.8828"/><line style="stroke:#181818;stroke-width:0.5;stroke-dasharray:5.0,5.0;" x1="1247.5" x2="1247.5" y1="82.6094" y2="570.8828"/><line style="stroke:#181818;stroke-width:0.5;stroke-dasharray:5.0,5.0;" x1="1409.5" x2="1409.5" y1="82.6094" y2="570.8828"/><line style="stroke:#181818;stroke-width:0.5;stroke-dasharray:5.0,5.0;" x1="1551.5" x2="1551.5" y1="82.6094" y2="570.8828"/><line style="stroke:#181818;stroke-width:0.5;stroke-dasharray:5.0,5.0;" x1="1846.5" x2="1846.5" y1="82.6094" y2="570.8828"/><line style="stroke:#181818;stroke-width:0.5;stroke-dasharray:5.0,5.0;" x1="1979.5" x2="1979.5" y1="82.6094" y2="570.8828"/><text fill="#000000" font-family="sans-serif" font-size="14" lengthAdjust="spacing" textLength="83" x="5" y="79.5332">Administrator</text><ellipse cx="49.5" cy="13.5" fill="#E2E2F0" rx="8" ry="8" style="stroke:#181818;stroke-width:0.5;"/><path d="M49.5,21.5 L49.5,48.5 M36.5,29.5 L62.5,29.5 M49.5,48.5 L36.5,63.5 M49.5,48.5 L62.5,63.5 " fill="none" style="stroke:#181818;stroke-width:0.5;"/><text fill="#000000" font-family="sans-serif" font-size="14" lengthAdjust="spacing" textLength="83" x="5" y="584.416">Administrator</text><ellipse cx="49.5" cy="595.9922" fill="#E2E2F0" rx="8" ry="8" style="stroke:#181818;stroke-width:0.5;"/><path d="M49.5,603.9922 L49.5,630.9922 M36.5,611.9922 L62.5,611.9922 M49.5,630.9922 L36.5,645.9922 M49.5,630.9922 L62.5,645.9922 " fill="none" style="stroke:#181818;stroke-width:0.5;"/><rect fill="#E2E2F0" height="31.6094" rx="2.5" ry="2.5" style="stroke:#181818;stroke-width:0.5;" width="106" x="621.5" y="50"/><text fill="#000000" font-family="sans-serif" font-size="14" lengthAdjust="spacing" textLength="92" x="628.5" y="71.5332">:NewVaccineUI</text><rect fill="#E2E2F0" height="31.6094" rx="2.5" ry="2.5" style="stroke:#181818;stroke-width:0.5;" width="106" x="621.5" y="569.8828"/><text fill="#000000" font-family="sans-serif" font-size="14" lengthAdjust="spacing" textLength="92" x="628.5" y="591.416">:NewVaccineUI</text><rect fill="#E2E2F0" height="31.6094" rx="2.5" ry="2.5" style="stroke:#181818;stroke-width:0.5;" width="156" x="1169.5" y="50"/><text fill="#000000" font-family="sans-serif" font-size="14" lengthAdjust="spacing" textLength="142" x="1176.5" y="71.5332">:NewVaccineController</text><rect fill="#E2E2F0" height="31.6094" rx="2.5" ry="2.5" style="stroke:#181818;stroke-width:0.5;" width="156" x="1169.5" y="569.8828"/><text fill="#000000" font-family="sans-serif" font-size="14" lengthAdjust="spacing" textLength="142" x="1176.5" y="591.416">:NewVaccineController</text><rect fill="#E2E2F0" height="31.6094" rx="2.5" ry="2.5" style="stroke:#181818;stroke-width:0.5;" width="78" x="1370.5" y="50"/><text fill="#000000" font-family="sans-serif" font-size="14" lengthAdjust="spacing" textLength="64" x="1377.5" y="71.5332">:Company</text><rect fill="#E2E2F0" height="31.6094" rx="2.5" ry="2.5" style="stroke:#181818;stroke-width:0.5;" width="78" x="1370.5" y="569.8828"/><text fill="#000000" font-family="sans-serif" font-size="14" lengthAdjust="spacing" textLength="64" x="1377.5" y="591.416">:Company</text><rect fill="#E2E2F0" height="31.6094" rx="2.5" ry="2.5" style="stroke:#181818;stroke-width:0.5;" width="102" x="1500.5" y="50"/><text fill="#000000" font-family="sans-serif" font-size="14" lengthAdjust="spacing" textLength="88" x="1507.5" y="71.5332">:VaccineStore</text><rect fill="#E2E2F0" height="31.6094" rx="2.5" ry="2.5" style="stroke:#181818;stroke-width:0.5;" width="102" x="1500.5" y="569.8828"/><text fill="#000000" font-family="sans-serif" font-size="14" lengthAdjust="spacing" textLength="88" x="1507.5" y="591.416">:VaccineStore</text><rect fill="#E2E2F0" height="31.6094" rx="2.5" ry="2.5" style="stroke:#181818;stroke-width:0.5;" width="64" x="1814.5" y="50"/><text fill="#000000" font-family="sans-serif" font-size="14" lengthAdjust="spacing" textLength="50" x="1821.5" y="71.5332">Vaccine</text><rect fill="#E2E2F0" height="31.6094" rx="2.5" ry="2.5" style="stroke:#181818;stroke-width:0.5;" width="64" x="1814.5" y="569.8828"/><text fill="#000000" font-family="sans-serif" font-size="14" lengthAdjust="spacing" textLength="50" x="1821.5" y="591.416">Vaccine</text><rect fill="#E2E2F0" height="31.6094" rx="2.5" ry="2.5" style="stroke:#181818;stroke-width:0.5;" width="134" x="1912.5" y="50"/><text fill="#000000" font-family="sans-serif" font-size="14" lengthAdjust="spacing" textLength="120" x="1919.5" y="71.5332">:VaccineTypeStore</text><rect fill="#E2E2F0" height="31.6094" rx="2.5" ry="2.5" style="stroke:#181818;stroke-width:0.5;" width="134" x="1912.5" y="569.8828"/><text fill="#000000" font-family="sans-serif" font-size="14" lengthAdjust="spacing" textLength="120" x="1919.5" y="591.416">:VaccineTypeStore</text><rect fill="#FFFFFF" height="460.2734" style="stroke:#181818;stroke-width:1.0;" width="10" x="44.5" y="92.6094"/><rect fill="#FFFFFF" height="121.4063" style="stroke:#181818;stroke-width:1.0;" width="10" x="669.5" y="114.9609"/><rect fill="#FFFFFF" height="134.4063" style="stroke:#181818;stroke-width:1.0;" width="10" x="669.5" y="266.7188"/><rect fill="#FFFFFF" height="121.4063" style="stroke:#181818;stroke-width:1.0;" width="10" x="669.5" y="431.4766"/><rect fill="#FFFFFF" height="30.3516" style="stroke:#181818;stroke-width:1.0;" width="10" x="1242.5" y="145.3125"/><rect fill="#FFFFFF" height="104.0547" style="stroke:#181818;stroke-width:1.0;" width="10" x="1242.5" y="297.0703"/><rect fill="#FFFFFF" height="30.3516" style="stroke:#181818;stroke-width:1.0;" width="10" x="1242.5" y="461.8281"/><rect fill="#FFFFFF" height="30.3516" style="stroke:#181818;stroke-width:1.0;" width="10" x="1404.5" y="175.6641"/><rect fill="#FFFFFF" height="30.3516" style="stroke:#181818;stroke-width:1.0;" width="10" x="1404.5" y="492.1797"/><rect fill="#FFFFFF" height="39.3516" style="stroke:#181818;stroke-width:1.0;" width="10" x="1546.5" y="522.5313"/><rect fill="#FFFFFF" height="36.3516" style="stroke:#181818;stroke-width:1.0;" width="10" x="1841.5" y="327.4219"/><polygon fill="#181818" points="657.5,110.9609,667.5,114.9609,657.5,118.9609,661.5,114.9609" style="stroke:#181818;stroke-width:1.0;"/><line style="stroke:#181818;stroke-width:1.0;" x1="54.5" x2="663.5" y1="114.9609" y2="114.9609"/><text fill="#000000" font-family="sans-serif" font-size="13" font-weight="bold" lengthAdjust="spacing" textLength="7" x="61.5" y="110.1045">1</text><text fill="#000000" font-family="sans-serif" font-size="13" lengthAdjust="spacing" textLength="168" x="72.5" y="110.1045">asks to create a new vaccine</text><polygon fill="#181818" points="1230.5,141.3125,1240.5,145.3125,1230.5,149.3125,1234.5,145.3125" style="stroke:#181818;stroke-width:1.0;"/><line style="stroke:#181818;stroke-width:1.0;" x1="679.5" x2="1236.5" y1="145.3125" y2="145.3125"/><text fill="#000000" font-family="sans-serif" font-size="13" font-weight="bold" lengthAdjust="spacing" textLength="7" x="686.5" y="140.4561">2</text><text fill="#000000" font-family="sans-serif" font-size="13" lengthAdjust="spacing" textLength="122" x="697.5" y="140.4561">getVaccineTypeList()</text><polygon fill="#181818" points="1392.5,171.6641,1402.5,175.6641,1392.5,179.6641,1396.5,175.6641" style="stroke:#181818;stroke-width:1.0;"/><line style="stroke:#181818;stroke-width:1.0;" x1="1247.5" x2="1398.5" y1="175.6641" y2="175.6641"/><text fill="#000000" font-family="sans-serif" font-size="13" font-weight="bold" lengthAdjust="spacing" textLength="7" x="1254.5" y="170.8076">3</text><text fill="#000000" font-family="sans-serif" font-size="13" lengthAdjust="spacing" textLength="122" x="1265.5" y="170.8076">getVaccineTypeList()</text><polygon fill="#181818" points="1967.5,202.0156,1977.5,206.0156,1967.5,210.0156,1971.5,206.0156" style="stroke:#181818;stroke-width:1.0;"/><line style="stroke:#181818;stroke-width:1.0;" x1="1409.5" x2="1973.5" y1="206.0156" y2="206.0156"/><text fill="#000000" font-family="sans-serif" font-size="13" font-weight="bold" lengthAdjust="spacing" textLength="7" x="1416.5" y="201.1592">4</text><text fill="#000000" font-family="sans-serif" font-size="13" lengthAdjust="spacing" textLength="122" x="1427.5" y="201.1592">getVaccineTypeList()</text><polygon fill="#181818" points="65.5,232.3672,55.5,236.3672,65.5,240.3672,61.5,236.3672" style="stroke:#181818;stroke-width:1.0;"/><line style="stroke:#181818;stroke-width:1.0;stroke-dasharray:2.0,2.0;" x1="59.5" x2="673.5" y1="236.3672" y2="236.3672"/><text fill="#000000" font-family="sans-serif" font-size="13" font-weight="bold" lengthAdjust="spacing" textLength="7" x="71.5" y="231.5107">5</text><text fill="#000000" font-family="sans-serif" font-size="13" lengthAdjust="spacing" textLength="580" x="82.5" y="231.5107">requests data (name, id, brand, numDoses, dosage, recoveryPeriod, doseInterval) and type selection</text><polygon fill="#181818" points="657.5,262.7188,667.5,266.7188,657.5,270.7188,661.5,266.7188" style="stroke:#181818;stroke-width:1.0;"/><line style="stroke:#181818;stroke-width:1.0;" x1="54.5" x2="663.5" y1="266.7188" y2="266.7188"/><text fill="#000000" font-family="sans-serif" font-size="13" font-weight="bold" lengthAdjust="spacing" textLength="7" x="61.5" y="261.8623">6</text><text fill="#000000" font-family="sans-serif" font-size="13" lengthAdjust="spacing" textLength="193" x="72.5" y="261.8623">selects and types requested data</text><polygon fill="#181818" points="1230.5,293.0703,1240.5,297.0703,1230.5,301.0703,1234.5,297.0703" style="stroke:#181818;stroke-width:1.0;"/><line style="stroke:#181818;stroke-width:1.0;" x1="679.5" x2="1236.5" y1="297.0703" y2="297.0703"/><text fill="#000000" font-family="sans-serif" font-size="13" font-weight="bold" lengthAdjust="spacing" textLength="7" x="686.5" y="292.2139">7</text><text fill="#000000" font-family="sans-serif" font-size="13" lengthAdjust="spacing" textLength="533" x="697.5" y="292.2139">createVaccine(name, id, brand, numDoses, dosage, recoveryPeriod, doseInterval, typeCode)</text><polygon fill="#181818" points="1829.5,323.4219,1839.5,327.4219,1829.5,331.4219,1833.5,327.4219" style="stroke:#181818;stroke-width:1.0;"/><line style="stroke:#181818;stroke-width:1.0;" x1="1252.5" x2="1835.5" y1="327.4219" y2="327.4219"/><text fill="#000000" font-family="sans-serif" font-size="13" font-weight="bold" lengthAdjust="spacing" textLength="7" x="1259.5" y="322.5654">8</text><text fill="#000000" font-family="sans-serif" font-size="13" lengthAdjust="spacing" textLength="559" x="1270.5" y="322.5654">vcc = new Vaccine(name, id, brand, numDoses, dosage, recoveryPeriod, doseInterval, typeCode)</text><line style="stroke:#181818;stroke-width:1.0;" x1="1851.5" x2="1893.5" y1="362.7734" y2="362.7734"/><line style="stroke:#181818;stroke-width:1.0;" x1="1893.5" x2="1893.5" y1="362.7734" y2="375.7734"/><line style="stroke:#181818;stroke-width:1.0;" x1="1846.5" x2="1893.5" y1="375.7734" y2="375.7734"/><polygon fill="#181818" points="1856.5,371.7734,1846.5,375.7734,1856.5,379.7734,1852.5,375.7734" style="stroke:#181818;stroke-width:1.0;"/><text fill="#000000" font-family="sans-serif" font-size="13" font-weight="bold" lengthAdjust="spacing" textLength="7" x="1858.5" y="357.917">9</text><text fill="#000000" font-family="sans-serif" font-size="13" lengthAdjust="spacing" textLength="98" x="1869.5" y="357.917">validateVaccine()</text><polygon fill="#181818" points="65.5,397.125,55.5,401.125,65.5,405.125,61.5,401.125" style="stroke:#181818;stroke-width:1.0;"/><line style="stroke:#181818;stroke-width:1.0;stroke-dasharray:2.0,2.0;" x1="59.5" x2="673.5" y1="401.125" y2="401.125"/><text fill="#000000" font-family="sans-serif" font-size="13" font-weight="bold" lengthAdjust="spacing" textLength="14" x="71.5" y="396.2686">10</text><text fill="#000000" font-family="sans-serif" font-size="13" lengthAdjust="spacing" textLength="213" x="89.5" y="396.2686">displays data waiting for confirmation</text><polygon fill="#181818" points="657.5,427.4766,667.5,431.4766,657.5,435.4766,661.5,431.4766" style="stroke:#181818;stroke-width:1.0;"/><line style="stroke:#181818;stroke-width:1.0;" x1="54.5" x2="663.5" y1="431.4766" y2="431.4766"/><text fill="#000000" font-family="sans-serif" font-size="13" font-weight="bold" lengthAdjust="spacing" textLength="14" x="61.5" y="426.6201">11</text><text fill="#000000" font-family="sans-serif" font-size="13" lengthAdjust="spacing" textLength="235" x="79.5" y="426.6201">confirms vaccine and administration data</text><polygon fill="#181818" points="1230.5,457.8281,1240.5,461.8281,1230.5,465.8281,1234.5,461.8281" style="stroke:#181818;stroke-width:1.0;"/><line style="stroke:#181818;stroke-width:1.0;" x1="679.5" x2="1236.5" y1="461.8281" y2="461.8281"/><text fill="#000000" font-family="sans-serif" font-size="13" font-weight="bold" lengthAdjust="spacing" textLength="14" x="686.5" y="456.9717">12</text><text fill="#000000" font-family="sans-serif" font-size="13" lengthAdjust="spacing" textLength="76" x="704.5" y="456.9717">addVaccine()</text><polygon fill="#181818" points="1392.5,488.1797,1402.5,492.1797,1392.5,496.1797,1396.5,492.1797" style="stroke:#181818;stroke-width:1.0;"/><line style="stroke:#181818;stroke-width:1.0;" x1="1247.5" x2="1398.5" y1="492.1797" y2="492.1797"/><text fill="#000000" font-family="sans-serif" font-size="13" font-weight="bold" lengthAdjust="spacing" textLength="14" x="1254.5" y="487.3232">13</text><text fill="#000000" font-family="sans-serif" font-size="13" lengthAdjust="spacing" textLength="95" x="1272.5" y="487.3232">addVaccine(vcc)</text><polygon fill="#181818" points="1534.5,518.5313,1544.5,522.5313,1534.5,526.5313,1538.5,522.5313" style="stroke:#181818;stroke-width:1.0;"/><line style="stroke:#181818;stroke-width:1.0;" x1="1409.5" x2="1540.5" y1="522.5313" y2="522.5313"/><text fill="#000000" font-family="sans-serif" font-size="13" font-weight="bold" lengthAdjust="spacing" textLength="14" x="1416.5" y="517.6748">14</text><text fill="#000000" font-family="sans-serif" font-size="13" lengthAdjust="spacing" textLength="95" x="1434.5" y="517.6748">addVaccine(vcc)</text><polygon fill="#181818" points="60.5,548.8828,50.5,552.8828,60.5,556.8828,56.5,552.8828" style="stroke:#181818;stroke-width:1.0;"/><line style="stroke:#181818;stroke-width:1.0;stroke-dasharray:2.0,2.0;" x1="54.5" x2="673.5" y1="552.8828" y2="552.8828"/><text fill="#000000" font-family="sans-serif" font-size="13" font-weight="bold" lengthAdjust="spacing" textLength="14" x="66.5" y="548.0264">15</text><text fill="#000000" font-family="sans-serif" font-size="13" lengthAdjust="spacing" textLength="95" x="84.5" y="548.0264">informs success</text><!--MD5=[d9c3c1bec0e5a07f35f35505558a59da]
@startuml
autonumber
'hide footbox
actor "Administrator" as ADM

participant ":NewVaccineUI" as UI
participant ":NewVaccineController" as CTRL
participant ":Company" as COMP
participant ":VaccineStore" as STORE
participant "Vaccine" as VCC
participant ":VaccineTypeStore" as TYPES



activate ADM
ADM -> UI : asks to create a new vaccine
activate UI
UI -> CTRL : getVaccineTypeList()
activate CTRL
CTRL -> COMP : getVaccineTypeList()
deactivate CTRL

activate COMP
COMP -> TYPES : getVaccineTypeList()
deactivate COMP

UI - -> ADM :  requests data (name, id, brand, numDoses, dosage, recoveryPeriod, doseInterval) and type selection

deactivate UI



ADM -> UI : selects and types requested data
activate UI

UI -> CTRL : createVaccine(name, id, brand, numDoses, dosage, recoveryPeriod, doseInterval, typeCode)

activate CTRL
CTRL -> VCC : vcc = new Vaccine(name, id, brand, numDoses, dosage, recoveryPeriod, doseInterval, typeCode)
activate VCC
VCC -> VCC : validateVaccine()
deactivate VCC

UI - -> ADM : displays data waiting for confirmation
deactivate CTRL
deactivate UI

ADM -> UI : confirms vaccine and administration data
activate UI

UI -> CTRL : addVaccine()
activate CTRL
CTRL -> COMP : addVaccine(vcc)
deactivate CTRL


activate COMP
COMP -> STORE : addVaccine(vcc)
deactivate COMP

activate STORE
deactivate STORE

UI - -> ADM : informs success
deactivate UI
deactivate ADM

@enduml

@startuml
autonumber
actor "Administrator" as ADM

participant ":NewVaccineUI" as UI
participant ":NewVaccineController" as CTRL
participant ":Company" as COMP
participant ":VaccineStore" as STORE
participant "Vaccine" as VCC
participant ":VaccineTypeStore" as TYPES



activate ADM
ADM -> UI : asks to create a new vaccine
activate UI
UI -> CTRL : getVaccineTypeList()
activate CTRL
CTRL -> COMP : getVaccineTypeList()
deactivate CTRL

activate COMP
COMP -> TYPES : getVaccineTypeList()
deactivate COMP

UI - -> ADM :  requests data (name, id, brand, numDoses, dosage, recoveryPeriod, doseInterval) and type selection

deactivate UI



ADM -> UI : selects and types requested data
activate UI

UI -> CTRL : createVaccine(name, id, brand, numDoses, dosage, recoveryPeriod, doseInterval, typeCode)

activate CTRL
CTRL -> VCC : vcc = new Vaccine(name, id, brand, numDoses, dosage, recoveryPeriod, doseInterval, typeCode)
activate VCC
VCC -> VCC : validateVaccine()
deactivate VCC

UI - -> ADM : displays data waiting for confirmation
deactivate CTRL
deactivate UI

ADM -> UI : confirms vaccine and administration data
activate UI

UI -> CTRL : addVaccine()
activate CTRL
CTRL -> COMP : addVaccine(vcc)
deactivate CTRL


activate COMP
COMP -> STORE : addVaccine(vcc)
deactivate COMP

activate STORE
deactivate STORE

UI - -> ADM : informs success
deactivate UI
deactivate ADM

@enduml

PlantUML version 1.2022.4(Sat Apr 09 14:29:17 BST 2022)
(GPL source distribution)
Java Runtime: OpenJDK Runtime Environment
JVM: OpenJDK 64-Bit Server VM
Default Encoding: Cp1252
Language: pt
Country: PT
--></g></svg>