<?xml version="1.0" encoding="UTF-8" standalone="no"?><svg xmlns="http://www.w3.org/2000/svg" xmlns:xlink="http://www.w3.org/1999/xlink" contentStyleType="text/css" height="521.6px" preserveAspectRatio="none" style="width:894px;height:521px;background:#FFFFFF;" version="1.1" viewBox="0 0 894 521" width="894.4px" zoomAndPan="magnify"><defs/><g><rect fill="#FFFFFF" height="368.2188" style="stroke:#181818;stroke-width:0.8000000000000002;" width="8" x="50" y="74.0875"/><rect fill="#FFFFFF" height="72.8438" style="stroke:#181818;stroke-width:0.8000000000000002;" width="8" x="290" y="91.9688"/><rect fill="#FFFFFF" height="24.2813" style="stroke:#181818;stroke-width:0.8000000000000002;" width="8" x="290" y="189.0938"/><rect fill="#FFFFFF" height="72.8438" style="stroke:#181818;stroke-width:0.8000000000000002;" width="8" x="290" y="237.6563"/><rect fill="#FFFFFF" height="24.2813" style="stroke:#181818;stroke-width:0.8000000000000002;" width="8" x="290" y="334.7813"/><rect fill="#FFFFFF" height="24.2813" style="stroke:#181818;stroke-width:0.8000000000000002;" width="8" x="290" y="418.025"/><rect fill="#FFFFFF" height="24.2813" style="stroke:#181818;stroke-width:0.8000000000000002;" width="8" x="480.4" y="116.25"/><rect fill="#FFFFFF" height="24.2813" style="stroke:#181818;stroke-width:0.8000000000000002;" width="8" x="480.4" y="261.9375"/><rect fill="#FFFFFF" height="58.9625" style="stroke:#181818;stroke-width:0.8000000000000002;" width="8" x="480.4" y="359.0625"/><line style="stroke:#181818;stroke-width:0.4000000000000001;stroke-dasharray:5.0,5.0;" x1="53.6" x2="53.6" y1="66.0875" y2="456.7063"/><line style="stroke:#181818;stroke-width:0.4000000000000001;stroke-dasharray:5.0,5.0;" x1="293.6" x2="293.6" y1="66.0875" y2="456.7063"/><line style="stroke:#181818;stroke-width:0.4000000000000001;stroke-dasharray:5.0,5.0;" x1="484" x2="484" y1="66.0875" y2="456.7063"/><line style="stroke:#181818;stroke-width:0.4000000000000001;stroke-dasharray:5.0,5.0;" x1="662.4" x2="662.4" y1="66.0875" y2="456.7063"/><line style="stroke:#181818;stroke-width:0.4000000000000001;stroke-dasharray:5.0,5.0;" x1="790.4" x2="790.4" y1="66.0875" y2="456.7063"/><line style="stroke:#181818;stroke-width:0.4000000000000001;stroke-dasharray:5.0,5.0;" x1="872" x2="872" y1="66.0875" y2="456.7063"/><text fill="#000000" font-family="sans-serif" font-size="11.2" lengthAdjust="spacing" textLength="95.2" x="4" y="63.6266">Center coordinator</text><ellipse cx="54" cy="10.8" fill="#E2E2F0" rx="6.4" ry="6.4" style="stroke:#181818;stroke-width:0.4000000000000001;"/><path d="M54,17.2 L54,38.8 M43.6,23.6 L64.4,23.6 M54,38.8 L43.6,50.8 M54,38.8 L64.4,50.8 " fill="none" style="stroke:#181818;stroke-width:0.4000000000000001;"/><text fill="#000000" font-family="sans-serif" font-size="11.2" lengthAdjust="spacing" textLength="95.2" x="4" y="467.5328">Center coordinator</text><ellipse cx="54" cy="476.7938" fill="#E2E2F0" rx="6.4" ry="6.4" style="stroke:#181818;stroke-width:0.4000000000000001;"/><path d="M54,483.1938 L54,504.7938 M43.6,489.5938 L64.4,489.5938 M54,504.7938 L43.6,516.7938 M54,504.7938 L64.4,516.7938 " fill="none" style="stroke:#181818;stroke-width:0.4000000000000001;"/><rect fill="#E2E2F0" height="25.2875" rx="2" ry="2" style="stroke:#181818;stroke-width:0.4000000000000001;" width="162.4" x="212.8" y="40"/><text fill="#000000" font-family="sans-serif" font-size="11.2" lengthAdjust="spacing" textLength="151.2" x="218.4" y="57.2266">: CheckVaccinationStatisticsUI</text><rect fill="#E2E2F0" height="25.2875" rx="2" ry="2" style="stroke:#181818;stroke-width:0.4000000000000001;" width="162.4" x="212.8" y="455.9063"/><text fill="#000000" font-family="sans-serif" font-size="11.2" lengthAdjust="spacing" textLength="151.2" x="218.4" y="473.1328">: CheckVaccinationStatisticsUI</text><rect fill="#E2E2F0" height="25.2875" rx="2" ry="2" style="stroke:#181818;stroke-width:0.4000000000000001;" width="202.4" x="383.2" y="40"/><text fill="#000000" font-family="sans-serif" font-size="11.2" lengthAdjust="spacing" textLength="191.2" x="388.8" y="57.2266">: CheckVaccinationStatisticsController</text><rect fill="#E2E2F0" height="25.2875" rx="2" ry="2" style="stroke:#181818;stroke-width:0.4000000000000001;" width="202.4" x="383.2" y="455.9063"/><text fill="#000000" font-family="sans-serif" font-size="11.2" lengthAdjust="spacing" textLength="191.2" x="388.8" y="473.1328">: CheckVaccinationStatisticsController</text><rect fill="#E2E2F0" height="25.2875" rx="2" ry="2" style="stroke:#181818;stroke-width:0.4000000000000001;" width="137.6" x="593.6" y="40"/><text fill="#000000" font-family="sans-serif" font-size="11.2" lengthAdjust="spacing" textLength="126.4" x="599.2" y="57.2266">: VaccinationCenterStore</text><rect fill="#E2E2F0" height="25.2875" rx="2" ry="2" style="stroke:#181818;stroke-width:0.4000000000000001;" width="137.6" x="593.6" y="455.9063"/><text fill="#000000" font-family="sans-serif" font-size="11.2" lengthAdjust="spacing" textLength="126.4" x="599.2" y="473.1328">: VaccinationCenterStore</text><rect fill="#E2E2F0" height="25.2875" rx="2" ry="2" style="stroke:#181818;stroke-width:0.4000000000000001;" width="103.2" x="739.2" y="40"/><text fill="#000000" font-family="sans-serif" font-size="11.2" lengthAdjust="spacing" textLength="92" x="744.8" y="57.2266">: VaccinationStore</text><rect fill="#E2E2F0" height="25.2875" rx="2" ry="2" style="stroke:#181818;stroke-width:0.4000000000000001;" width="103.2" x="739.2" y="455.9063"/><text fill="#000000" font-family="sans-serif" font-size="11.2" lengthAdjust="spacing" textLength="92" x="744.8" y="473.1328">: VaccinationStore</text><text fill="#000000" font-family="sans-serif" font-size="11.2" lengthAdjust="spacing" textLength="38.4" x="850.4" y="63.6266">??????</text><ellipse cx="872" cy="10.8" fill="#E2E2F0" rx="6.4" ry="6.4" style="stroke:#181818;stroke-width:0.4000000000000001;"/><path d="M872,17.2 L872,38.8 M861.6,23.6 L882.4,23.6 M872,38.8 L861.6,50.8 M872,38.8 L882.4,50.8 " fill="none" style="stroke:#181818;stroke-width:0.4000000000000001;"/><text fill="#000000" font-family="sans-serif" font-size="11.2" lengthAdjust="spacing" textLength="38.4" x="850.4" y="467.5328">??????</text><ellipse cx="872" cy="476.7938" fill="#E2E2F0" rx="6.4" ry="6.4" style="stroke:#181818;stroke-width:0.4000000000000001;"/><path d="M872,483.1938 L872,504.7938 M861.6,489.5938 L882.4,489.5938 M872,504.7938 L861.6,516.7938 M872,504.7938 L882.4,516.7938 " fill="none" style="stroke:#181818;stroke-width:0.4000000000000001;"/><rect fill="#FFFFFF" height="368.2188" style="stroke:#181818;stroke-width:0.8000000000000002;" width="8" x="50" y="74.0875"/><rect fill="#FFFFFF" height="72.8438" style="stroke:#181818;stroke-width:0.8000000000000002;" width="8" x="290" y="91.9688"/><rect fill="#FFFFFF" height="24.2813" style="stroke:#181818;stroke-width:0.8000000000000002;" width="8" x="290" y="189.0938"/><rect fill="#FFFFFF" height="72.8438" style="stroke:#181818;stroke-width:0.8000000000000002;" width="8" x="290" y="237.6563"/><rect fill="#FFFFFF" height="24.2813" style="stroke:#181818;stroke-width:0.8000000000000002;" width="8" x="290" y="334.7813"/><rect fill="#FFFFFF" height="24.2813" style="stroke:#181818;stroke-width:0.8000000000000002;" width="8" x="290" y="418.025"/><rect fill="#FFFFFF" height="24.2813" style="stroke:#181818;stroke-width:0.8000000000000002;" width="8" x="480.4" y="116.25"/><rect fill="#FFFFFF" height="24.2813" style="stroke:#181818;stroke-width:0.8000000000000002;" width="8" x="480.4" y="261.9375"/><rect fill="#FFFFFF" height="58.9625" style="stroke:#181818;stroke-width:0.8000000000000002;" width="8" x="480.4" y="359.0625"/><polygon fill="#181818" points="280.4,88.7688,288.4,91.9688,280.4,95.1688,283.6,91.9688" style="stroke:#181818;stroke-width:0.8000000000000002;"/><line style="stroke:#181818;stroke-width:0.8000000000000002;" x1="58" x2="285.2" y1="91.9688" y2="91.9688"/><text fill="#000000" font-family="sans-serif" font-size="10.4" font-weight="bold" lengthAdjust="spacing" textLength="5.6" x="63.6" y="88.0836">1</text><text fill="#000000" font-family="sans-serif" font-size="10.4" lengthAdjust="spacing" textLength="167.2" x="72.4" y="88.0836">Asks to check vaccination statistics</text><polygon fill="#181818" points="470.8,113.05,478.8,116.25,470.8,119.45,474,116.25" style="stroke:#181818;stroke-width:0.8000000000000002;"/><line style="stroke:#181818;stroke-width:0.8000000000000002;" x1="298" x2="475.6" y1="116.25" y2="116.25"/><text fill="#000000" font-family="sans-serif" font-size="10.4" font-weight="bold" lengthAdjust="spacing" textLength="5.6" x="303.6" y="112.3648">2</text><text fill="#000000" font-family="sans-serif" font-size="10.4" lengthAdjust="spacing" textLength="68" x="312.4" y="112.3648">getCenterList()</text><polygon fill="#181818" points="652.8,137.3313,660.8,140.5313,652.8,143.7313,656,140.5313" style="stroke:#181818;stroke-width:0.8000000000000002;"/><line style="stroke:#181818;stroke-width:0.8000000000000002;" x1="484.4" x2="657.6" y1="140.5313" y2="140.5313"/><text fill="#000000" font-family="sans-serif" font-size="10.4" font-weight="bold" lengthAdjust="spacing" textLength="5.6" x="490" y="136.6461">3</text><text fill="#000000" font-family="sans-serif" font-size="10.4" lengthAdjust="spacing" textLength="68" x="498.8" y="136.6461">getCenterList()</text><polygon fill="#181818" points="66.8,161.6125,58.8,164.8125,66.8,168.0125,63.6,164.8125" style="stroke:#181818;stroke-width:0.8000000000000002;"/><line style="stroke:#181818;stroke-width:0.8000000000000002;stroke-dasharray:2.0,2.0;" x1="62" x2="293.2" y1="164.8125" y2="164.8125"/><text fill="#000000" font-family="sans-serif" font-size="10.4" font-weight="bold" lengthAdjust="spacing" textLength="5.6" x="71.6" y="160.9273">4</text><text fill="#000000" font-family="sans-serif" font-size="10.4" lengthAdjust="spacing" textLength="204" x="80.4" y="160.9273">shows list of centers and asks to select one</text><polygon fill="#181818" points="280.4,185.8938,288.4,189.0938,280.4,192.2938,283.6,189.0938" style="stroke:#181818;stroke-width:0.8000000000000002;"/><line style="stroke:#181818;stroke-width:0.8000000000000002;" x1="58" x2="285.2" y1="189.0938" y2="189.0938"/><text fill="#000000" font-family="sans-serif" font-size="10.4" font-weight="bold" lengthAdjust="spacing" textLength="5.6" x="63.6" y="185.2086">5</text><text fill="#000000" font-family="sans-serif" font-size="10.4" lengthAdjust="spacing" textLength="65.6" x="72.4" y="185.2086">selects center</text><polygon fill="#181818" points="66.8,210.175,58.8,213.375,66.8,216.575,63.6,213.375" style="stroke:#181818;stroke-width:0.8000000000000002;"/><line style="stroke:#181818;stroke-width:0.8000000000000002;stroke-dasharray:2.0,2.0;" x1="62" x2="293.2" y1="213.375" y2="213.375"/><text fill="#000000" font-family="sans-serif" font-size="10.4" font-weight="bold" lengthAdjust="spacing" textLength="5.6" x="71.6" y="209.4898">6</text><text fill="#000000" font-family="sans-serif" font-size="10.4" lengthAdjust="spacing" textLength="91.2" x="80.4" y="209.4898">asks for time period</text><polygon fill="#181818" points="280.4,234.4563,288.4,237.6563,280.4,240.8563,283.6,237.6563" style="stroke:#181818;stroke-width:0.8000000000000002;"/><line style="stroke:#181818;stroke-width:0.8000000000000002;stroke-dasharray:2.0,2.0;" x1="58" x2="285.2" y1="237.6563" y2="237.6563"/><text fill="#000000" font-family="sans-serif" font-size="10.4" font-weight="bold" lengthAdjust="spacing" textLength="5.6" x="63.6" y="233.7711">7</text><text fill="#000000" font-family="sans-serif" font-size="10.4" lengthAdjust="spacing" textLength="80" x="72.4" y="233.7711">types time period</text><polygon fill="#181818" points="470.8,258.7375,478.8,261.9375,470.8,265.1375,474,261.9375" style="stroke:#181818;stroke-width:0.8000000000000002;"/><line style="stroke:#181818;stroke-width:0.8000000000000002;" x1="298" x2="475.6" y1="261.9375" y2="261.9375"/><text fill="#000000" font-family="sans-serif" font-size="10.4" font-weight="bold" lengthAdjust="spacing" textLength="5.6" x="303.6" y="258.0523">8</text><text fill="#000000" font-family="sans-serif" font-size="10.4" lengthAdjust="spacing" textLength="109.6" x="312.4" y="258.0523">getDataForTimePeriod()</text><polygon fill="#181818" points="781.2,283.0188,789.2,286.2188,781.2,289.4188,784.4,286.2188" style="stroke:#181818;stroke-width:0.8000000000000002;"/><line style="stroke:#181818;stroke-width:0.8000000000000002;" x1="484.4" x2="786" y1="286.2188" y2="286.2188"/><text fill="#000000" font-family="sans-serif" font-size="10.4" font-weight="bold" lengthAdjust="spacing" textLength="5.6" x="490" y="282.3336">9</text><text fill="#000000" font-family="sans-serif" font-size="10.4" lengthAdjust="spacing" textLength="150.4" x="498.8" y="282.3336">getCompletedVaccinations(time)</text><polygon fill="#181818" points="66.8,307.3,58.8,310.5,66.8,313.7,63.6,310.5" style="stroke:#181818;stroke-width:0.8000000000000002;"/><line style="stroke:#181818;stroke-width:0.8000000000000002;stroke-dasharray:2.0,2.0;" x1="62" x2="293.2" y1="310.5" y2="310.5"/><text fill="#000000" font-family="sans-serif" font-size="10.4" font-weight="bold" lengthAdjust="spacing" textLength="11.2" x="71.6" y="306.6148">10</text><text fill="#000000" font-family="sans-serif" font-size="10.4" lengthAdjust="spacing" textLength="168" x="86" y="306.6148">Shows data and gives option to save</text><polygon fill="#181818" points="280.4,331.5813,288.4,334.7813,280.4,337.9813,283.6,334.7813" style="stroke:#181818;stroke-width:0.8000000000000002;"/><line style="stroke:#181818;stroke-width:0.8000000000000002;" x1="58" x2="285.2" y1="334.7813" y2="334.7813"/><text fill="#000000" font-family="sans-serif" font-size="10.4" font-weight="bold" lengthAdjust="spacing" textLength="11.2" x="63.6" y="330.8961">11</text><text fill="#000000" font-family="sans-serif" font-size="10.4" lengthAdjust="spacing" textLength="75.2" x="78" y="330.8961">chooses to save</text><polygon fill="#181818" points="470.8,355.8625,478.8,359.0625,470.8,362.2625,474,359.0625" style="stroke:#181818;stroke-width:0.8000000000000002;"/><line style="stroke:#181818;stroke-width:0.8000000000000002;" x1="294" x2="475.6" y1="359.0625" y2="359.0625"/><text fill="#000000" font-family="sans-serif" font-size="10.4" font-weight="bold" lengthAdjust="spacing" textLength="11.2" x="299.6" y="355.1773">12</text><text fill="#000000" font-family="sans-serif" font-size="10.4" lengthAdjust="spacing" textLength="55.2" x="314" y="355.1773">saveToFile()</text><line style="stroke:#181818;stroke-width:0.8000000000000002;" x1="488.4" x2="522" y1="383.3438" y2="383.3438"/><line style="stroke:#181818;stroke-width:0.8000000000000002;" x1="522" x2="522" y1="383.3438" y2="393.7438"/><line style="stroke:#181818;stroke-width:0.8000000000000002;" x1="489.2" x2="522" y1="393.7438" y2="393.7438"/><polygon fill="#181818" points="497.2,390.5438,489.2,393.7438,497.2,396.9438,494,393.7438" style="stroke:#181818;stroke-width:0.8000000000000002;"/><text fill="#000000" font-family="sans-serif" font-size="10.4" font-weight="bold" lengthAdjust="spacing" textLength="11.2" x="494" y="379.4586">13</text><text fill="#000000" font-family="sans-serif" font-size="10.4" lengthAdjust="spacing" textLength="52" x="508.4" y="379.4586">createFile()</text><polygon fill="#181818" points="862.4,414.825,870.4,418.025,862.4,421.225,865.6,418.025" style="stroke:#181818;stroke-width:0.8000000000000002;"/><line style="stroke:#181818;stroke-width:0.8000000000000002;" x1="484.4" x2="867.2" y1="418.025" y2="418.025"/><text fill="#000000" font-family="sans-serif" font-size="10.4" font-weight="bold" lengthAdjust="spacing" textLength="11.2" x="490" y="414.1398">14</text><text fill="#000000" font-family="sans-serif" font-size="10.4" lengthAdjust="spacing" textLength="37.6" x="504.4" y="414.1398">saveFile</text><polygon fill="#181818" points="62.8,439.1063,54.8,442.3063,62.8,445.5063,59.6,442.3063" style="stroke:#181818;stroke-width:0.8000000000000002;"/><line style="stroke:#181818;stroke-width:0.8000000000000002;stroke-dasharray:2.0,2.0;" x1="58" x2="293.2" y1="442.3063" y2="442.3063"/><text fill="#000000" font-family="sans-serif" font-size="10.4" font-weight="bold" lengthAdjust="spacing" textLength="11.2" x="67.6" y="438.4211">15</text><text fill="#000000" font-family="sans-serif" font-size="10.4" lengthAdjust="spacing" textLength="196.8" x="82" y="438.4211">informs data was successfully saved to file</text><!--MD5=[c35fb04672aeeb5b1cbb156dca448695]
@startuml
'https://plantuml.com/sequence-diagram

autonumber
actor "Center coordinator" as cc
participant  ": CheckVaccinationStatisticsUI" as ui
participant ": CheckVaccinationStatisticsController" as con
participant ": VaccinationCenterStore" as vcs
participant ": VaccinationStore" as store
actor "??????" as c
activate cc
cc -> ui: Asks to check vaccination statistics

activate ui
ui->con: getCenterList()
activate con
con->vcs:getCenterList()
deactivate con
ui- -> cc: shows list of centers and asks to select one
deactivate ui

cc->ui: selects center

activate ui
ui - -> cc: asks for time period
deactivate ui

cc - -> ui: types time period

activate ui
ui -> con: getDataForTimePeriod()
activate con
con -> store: getCompletedVaccinations(time)
deactivate con
ui - -> cc: Shows data and gives option to save
deactivate ui

cc -> ui: chooses to save
activate ui
ui->con:saveToFile()
deactivate ui
activate con
con->con:createFile()
con->c: saveFile
deactivate con

activate ui
ui- ->cc : informs data was successfully saved to file
deactivate ui
deactivate cc

@enduml

@startuml

autonumber
actor "Center coordinator" as cc
participant  ": CheckVaccinationStatisticsUI" as ui
participant ": CheckVaccinationStatisticsController" as con
participant ": VaccinationCenterStore" as vcs
participant ": VaccinationStore" as store
actor "??????" as c
activate cc
cc -> ui: Asks to check vaccination statistics

activate ui
ui->con: getCenterList()
activate con
con->vcs:getCenterList()
deactivate con
ui- -> cc: shows list of centers and asks to select one
deactivate ui

cc->ui: selects center

activate ui
ui - -> cc: asks for time period
deactivate ui

cc - -> ui: types time period

activate ui
ui -> con: getDataForTimePeriod()
activate con
con -> store: getCompletedVaccinations(time)
deactivate con
ui - -> cc: Shows data and gives option to save
deactivate ui

cc -> ui: chooses to save
activate ui
ui->con:saveToFile()
deactivate ui
activate con
con->con:createFile()
con->c: saveFile
deactivate con

activate ui
ui- ->cc : informs data was successfully saved to file
deactivate ui
deactivate cc

@enduml

PlantUML version 1.2022.5(Sat Apr 30 11:55:52 BST 2022)
(GPL source distribution)
Java Runtime: OpenJDK Runtime Environment
JVM: OpenJDK 64-Bit Server VM
Default Encoding: Cp1252
Language: en
Country: US
--></g></svg>