<?xml version="1.0" encoding="UTF-8" standalone="no"?><svg xmlns="http://www.w3.org/2000/svg" xmlns:xlink="http://www.w3.org/1999/xlink" contentStyleType="text/css" height="806px" preserveAspectRatio="none" style="width:1214px;height:806px;background:#FFFFFF;" version="1.1" viewBox="0 0 1214 806" width="1214px" zoomAndPan="magnify"><defs/><g><rect fill="#FFFFFF" height="614.0313" style="stroke:#181818;stroke-width:1.0;" width="10" x="62.5" y="92.6094"/><rect fill="#FFFFFF" height="121.4063" style="stroke:#181818;stroke-width:1.0;" width="10" x="362.5" y="114.9609"/><rect fill="#FFFFFF" height="30.3516" style="stroke:#181818;stroke-width:1.0;" width="10" x="362.5" y="266.7188"/><rect fill="#FFFFFF" height="153.7578" style="stroke:#181818;stroke-width:1.0;" width="10" x="362.5" y="327.4219"/><rect fill="#FFFFFF" height="30.3516" style="stroke:#181818;stroke-width:1.0;" width="10" x="362.5" y="511.5313"/><rect fill="#FFFFFF" height="30.3516" style="stroke:#181818;stroke-width:1.0;" width="10" x="362.5" y="676.2891"/><rect fill="#FFFFFF" height="60.7031" style="stroke:#181818;stroke-width:1.0;" width="10" x="600.5" y="145.3125"/><rect fill="#FFFFFF" height="101.0547" style="stroke:#181818;stroke-width:1.0;" width="10" x="600.5" y="357.7734"/><rect fill="#FFFFFF" height="134.4063" style="stroke:#181818;stroke-width:1.0;" width="10" x="600.5" y="541.8828"/><rect fill="#FFFFFF" height="30.3516" style="stroke:#181818;stroke-width:1.0;" width="10" x="1189" y="615.5859"/><rect height="48.7031" style="stroke:#000000;stroke-width:1.5;fill:none;" width="711.5" x="469" y="403.125"/><line style="stroke:#181818;stroke-width:0.5;fill:none;stroke-dasharray:5.0,5.0;" x1="67" x2="67" y1="82.6094" y2="724.6406"/><line style="stroke:#181818;stroke-width:0.5;fill:none;stroke-dasharray:5.0,5.0;" x1="367" x2="367" y1="82.6094" y2="724.6406"/><line style="stroke:#181818;stroke-width:0.5;fill:none;stroke-dasharray:5.0,5.0;" x1="605" x2="605" y1="82.6094" y2="724.6406"/><line style="stroke:#181818;stroke-width:0.5;fill:none;stroke-dasharray:5.0,5.0;" x1="808.5" x2="808.5" y1="82.6094" y2="724.6406"/><line style="stroke:#181818;stroke-width:0.5;fill:none;stroke-dasharray:5.0,5.0;" x1="945.5" x2="945.5" y1="82.6094" y2="724.6406"/><line style="stroke:#181818;stroke-width:0.5;fill:none;stroke-dasharray:5.0,5.0;" x1="1105.5" x2="1105.5" y1="82.6094" y2="724.6406"/><line style="stroke:#181818;stroke-width:0.5;fill:none;stroke-dasharray:5.0,5.0;" x1="1193.5" x2="1193.5" y1="82.6094" y2="724.6406"/><text fill="#000000" font-family="sans-serif" font-size="14" lengthAdjust="spacing" textLength="119" x="5" y="79.5332">Center coordinator</text><ellipse cx="67.5" cy="13.5" fill="#E2E2F0" rx="8" ry="8" style="stroke:#181818;stroke-width:0.5;"/><path d="M67.5,21.5 L67.5,48.5 M54.5,29.5 L80.5,29.5 M67.5,48.5 L54.5,63.5 M67.5,48.5 L80.5,63.5 " fill="none" style="stroke:#181818;stroke-width:0.5;"/><text fill="#000000" font-family="sans-serif" font-size="14" lengthAdjust="spacing" textLength="119" x="5" y="738.1738">Center coordinator</text><ellipse cx="67.5" cy="749.75" fill="#E2E2F0" rx="8" ry="8" style="stroke:#181818;stroke-width:0.5;"/><path d="M67.5,757.75 L67.5,784.75 M54.5,765.75 L80.5,765.75 M67.5,784.75 L54.5,799.75 M67.5,784.75 L80.5,799.75 " fill="none" style="stroke:#181818;stroke-width:0.5;"/><rect fill="#E2E2F0" height="31.6094" rx="2.5" ry="2.5" style="stroke:#181818;stroke-width:0.5;" width="203" x="266" y="50"/><text fill="#000000" font-family="sans-serif" font-size="14" lengthAdjust="spacing" textLength="189" x="273" y="71.5332">: CheckVaccinationStatisticsUI</text><rect fill="#E2E2F0" height="31.6094" rx="2.5" ry="2.5" style="stroke:#181818;stroke-width:0.5;" width="203" x="266" y="723.6406"/><text fill="#000000" font-family="sans-serif" font-size="14" lengthAdjust="spacing" textLength="189" x="273" y="745.1738">: CheckVaccinationStatisticsUI</text><rect fill="#E2E2F0" height="31.6094" rx="2.5" ry="2.5" style="stroke:#181818;stroke-width:0.5;" width="253" x="479" y="50"/><text fill="#000000" font-family="sans-serif" font-size="14" lengthAdjust="spacing" textLength="239" x="486" y="71.5332">: CheckVaccinationStatisticsController</text><rect fill="#E2E2F0" height="31.6094" rx="2.5" ry="2.5" style="stroke:#181818;stroke-width:0.5;" width="253" x="479" y="723.6406"/><text fill="#000000" font-family="sans-serif" font-size="14" lengthAdjust="spacing" textLength="239" x="486" y="745.1738">: CheckVaccinationStatisticsController</text><rect fill="#E2E2F0" height="31.6094" rx="2.5" ry="2.5" style="stroke:#181818;stroke-width:0.5;" width="82" x="767.5" y="50"/><text fill="#000000" font-family="sans-serif" font-size="14" lengthAdjust="spacing" textLength="68" x="774.5" y="71.5332">: Company</text><rect fill="#E2E2F0" height="31.6094" rx="2.5" ry="2.5" style="stroke:#181818;stroke-width:0.5;" width="82" x="767.5" y="723.6406"/><text fill="#000000" font-family="sans-serif" font-size="14" lengthAdjust="spacing" textLength="68" x="774.5" y="745.1738">: Company</text><rect fill="#E2E2F0" height="31.6094" rx="2.5" ry="2.5" style="stroke:#181818;stroke-width:0.5;" width="172" x="859.5" y="50"/><text fill="#000000" font-family="sans-serif" font-size="14" lengthAdjust="spacing" textLength="158" x="866.5" y="71.5332">: VaccinationCenterStore</text><rect fill="#E2E2F0" height="31.6094" rx="2.5" ry="2.5" style="stroke:#181818;stroke-width:0.5;" width="172" x="859.5" y="723.6406"/><text fill="#000000" font-family="sans-serif" font-size="14" lengthAdjust="spacing" textLength="158" x="866.5" y="745.1738">: VaccinationCenterStore</text><rect fill="#E2E2F0" height="31.6094" rx="2.5" ry="2.5" style="stroke:#181818;stroke-width:0.5;" width="129" x="1041.5" y="50"/><text fill="#000000" font-family="sans-serif" font-size="14" lengthAdjust="spacing" textLength="115" x="1048.5" y="71.5332">: VaccinationStore</text><rect fill="#E2E2F0" height="31.6094" rx="2.5" ry="2.5" style="stroke:#181818;stroke-width:0.5;" width="129" x="1041.5" y="723.6406"/><text fill="#000000" font-family="sans-serif" font-size="14" lengthAdjust="spacing" textLength="115" x="1048.5" y="745.1738">: VaccinationStore</text><text fill="#000000" font-family="sans-serif" font-size="14" lengthAdjust="spacing" textLength="19" x="1181.5" y="79.5332">pm</text><ellipse cx="1194" cy="13.5" fill="#E2E2F0" rx="8" ry="8" style="stroke:#181818;stroke-width:0.5;"/><path d="M1194,21.5 L1194,48.5 M1181,29.5 L1207,29.5 M1194,48.5 L1181,63.5 M1194,48.5 L1207,63.5 " fill="none" style="stroke:#181818;stroke-width:0.5;"/><text fill="#000000" font-family="sans-serif" font-size="14" lengthAdjust="spacing" textLength="19" x="1181.5" y="738.1738">pm</text><ellipse cx="1194" cy="749.75" fill="#E2E2F0" rx="8" ry="8" style="stroke:#181818;stroke-width:0.5;"/><path d="M1194,757.75 L1194,784.75 M1181,765.75 L1207,765.75 M1194,784.75 L1181,799.75 M1194,784.75 L1207,799.75 " fill="none" style="stroke:#181818;stroke-width:0.5;"/><rect fill="#FFFFFF" height="614.0313" style="stroke:#181818;stroke-width:1.0;" width="10" x="62.5" y="92.6094"/><rect fill="#FFFFFF" height="121.4063" style="stroke:#181818;stroke-width:1.0;" width="10" x="362.5" y="114.9609"/><rect fill="#FFFFFF" height="30.3516" style="stroke:#181818;stroke-width:1.0;" width="10" x="362.5" y="266.7188"/><rect fill="#FFFFFF" height="153.7578" style="stroke:#181818;stroke-width:1.0;" width="10" x="362.5" y="327.4219"/><rect fill="#FFFFFF" height="30.3516" style="stroke:#181818;stroke-width:1.0;" width="10" x="362.5" y="511.5313"/><rect fill="#FFFFFF" height="30.3516" style="stroke:#181818;stroke-width:1.0;" width="10" x="362.5" y="676.2891"/><rect fill="#FFFFFF" height="60.7031" style="stroke:#181818;stroke-width:1.0;" width="10" x="600.5" y="145.3125"/><rect fill="#FFFFFF" height="101.0547" style="stroke:#181818;stroke-width:1.0;" width="10" x="600.5" y="357.7734"/><rect fill="#FFFFFF" height="134.4063" style="stroke:#181818;stroke-width:1.0;" width="10" x="600.5" y="541.8828"/><rect fill="#FFFFFF" height="30.3516" style="stroke:#181818;stroke-width:1.0;" width="10" x="1189" y="615.5859"/><polygon fill="#181818" points="350.5,110.9609,360.5,114.9609,350.5,118.9609,354.5,114.9609" style="stroke:#181818;stroke-width:1.0;"/><line style="stroke:#181818;stroke-width:1.0;" x1="72.5" x2="356.5" y1="114.9609" y2="114.9609"/><text fill="#000000" font-family="sans-serif" font-size="13" font-weight="bold" lengthAdjust="spacing" textLength="7" x="79.5" y="110.1045">1</text><text fill="#000000" font-family="sans-serif" font-size="13" lengthAdjust="spacing" textLength="209" x="90.5" y="110.1045">Asks to check vaccination statistics</text><polygon fill="#181818" points="588.5,141.3125,598.5,145.3125,588.5,149.3125,592.5,145.3125" style="stroke:#181818;stroke-width:1.0;"/><line style="stroke:#181818;stroke-width:1.0;" x1="372.5" x2="594.5" y1="145.3125" y2="145.3125"/><text fill="#000000" font-family="sans-serif" font-size="13" font-weight="bold" lengthAdjust="spacing" textLength="7" x="379.5" y="140.4561">2</text><text fill="#000000" font-family="sans-serif" font-size="13" lengthAdjust="spacing" textLength="85" x="390.5" y="140.4561">getCenterList()</text><polygon fill="#181818" points="796.5,171.6641,806.5,175.6641,796.5,179.6641,800.5,175.6641" style="stroke:#181818;stroke-width:1.0;"/><line style="stroke:#181818;stroke-width:1.0;" x1="610.5" x2="802.5" y1="175.6641" y2="175.6641"/><text fill="#000000" font-family="sans-serif" font-size="13" font-weight="bold" lengthAdjust="spacing" textLength="7" x="617.5" y="170.8076">3</text><text fill="#000000" font-family="sans-serif" font-size="13" lengthAdjust="spacing" textLength="163" x="628.5" y="170.8076">getVaccinationCenterStore()</text><polygon fill="#181818" points="933.5,202.0156,943.5,206.0156,933.5,210.0156,937.5,206.0156" style="stroke:#181818;stroke-width:1.0;"/><line style="stroke:#181818;stroke-width:1.0;" x1="605.5" x2="939.5" y1="206.0156" y2="206.0156"/><text fill="#000000" font-family="sans-serif" font-size="13" font-weight="bold" lengthAdjust="spacing" textLength="7" x="612.5" y="201.1592">4</text><text fill="#000000" font-family="sans-serif" font-size="13" lengthAdjust="spacing" textLength="85" x="623.5" y="201.1592">getCenterList()</text><polygon fill="#181818" points="83.5,232.3672,73.5,236.3672,83.5,240.3672,79.5,236.3672" style="stroke:#181818;stroke-width:1.0;"/><line style="stroke:#181818;stroke-width:1.0;stroke-dasharray:2.0,2.0;" x1="77.5" x2="366.5" y1="236.3672" y2="236.3672"/><text fill="#000000" font-family="sans-serif" font-size="13" font-weight="bold" lengthAdjust="spacing" textLength="7" x="89.5" y="231.5107">5</text><text fill="#000000" font-family="sans-serif" font-size="13" lengthAdjust="spacing" textLength="255" x="100.5" y="231.5107">shows list of centers and asks to select one</text><polygon fill="#181818" points="350.5,262.7188,360.5,266.7188,350.5,270.7188,354.5,266.7188" style="stroke:#181818;stroke-width:1.0;"/><line style="stroke:#181818;stroke-width:1.0;" x1="72.5" x2="356.5" y1="266.7188" y2="266.7188"/><text fill="#000000" font-family="sans-serif" font-size="13" font-weight="bold" lengthAdjust="spacing" textLength="7" x="79.5" y="261.8623">6</text><text fill="#000000" font-family="sans-serif" font-size="13" lengthAdjust="spacing" textLength="82" x="90.5" y="261.8623">selects center</text><polygon fill="#181818" points="83.5,293.0703,73.5,297.0703,83.5,301.0703,79.5,297.0703" style="stroke:#181818;stroke-width:1.0;"/><line style="stroke:#181818;stroke-width:1.0;stroke-dasharray:2.0,2.0;" x1="77.5" x2="366.5" y1="297.0703" y2="297.0703"/><text fill="#000000" font-family="sans-serif" font-size="13" font-weight="bold" lengthAdjust="spacing" textLength="7" x="89.5" y="292.2139">7</text><text fill="#000000" font-family="sans-serif" font-size="13" lengthAdjust="spacing" textLength="194" x="100.5" y="292.2139">asks for time period start and end</text><polygon fill="#181818" points="350.5,323.4219,360.5,327.4219,350.5,331.4219,354.5,327.4219" style="stroke:#181818;stroke-width:1.0;"/><line style="stroke:#181818;stroke-width:1.0;stroke-dasharray:2.0,2.0;" x1="72.5" x2="356.5" y1="327.4219" y2="327.4219"/><text fill="#000000" font-family="sans-serif" font-size="13" font-weight="bold" lengthAdjust="spacing" textLength="7" x="79.5" y="322.5654">8</text><text fill="#000000" font-family="sans-serif" font-size="13" lengthAdjust="spacing" textLength="100" x="90.5" y="322.5654">types time period</text><polygon fill="#181818" points="588.5,353.7734,598.5,357.7734,588.5,361.7734,592.5,357.7734" style="stroke:#181818;stroke-width:1.0;"/><line style="stroke:#181818;stroke-width:1.0;" x1="372.5" x2="594.5" y1="357.7734" y2="357.7734"/><text fill="#000000" font-family="sans-serif" font-size="13" font-weight="bold" lengthAdjust="spacing" textLength="7" x="379.5" y="352.917">9</text><text fill="#000000" font-family="sans-serif" font-size="13" lengthAdjust="spacing" textLength="192" x="390.5" y="352.917">getDataForTimePeriod(start, end)</text><polygon fill="#181818" points="796.5,384.125,806.5,388.125,796.5,392.125,800.5,388.125" style="stroke:#181818;stroke-width:1.0;"/><line style="stroke:#181818;stroke-width:1.0;" x1="610.5" x2="802.5" y1="388.125" y2="388.125"/><text fill="#000000" font-family="sans-serif" font-size="13" font-weight="bold" lengthAdjust="spacing" textLength="14" x="617.5" y="383.2686">10</text><text fill="#000000" font-family="sans-serif" font-size="13" lengthAdjust="spacing" textLength="125" x="635.5" y="383.2686">getVaccinationStore()</text><path d="M469,403.125 L542,403.125 L542,411.4766 L532,421.4766 L469,421.4766 L469,403.125 " fill="#EEEEEE" style="stroke:#000000;stroke-width:1.5;"/><rect fill="none" height="48.7031" style="stroke:#000000;stroke-width:1.5;" width="711.5" x="469" y="403.125"/><text fill="#000000" font-family="sans-serif" font-size="13" font-weight="bold" lengthAdjust="spacing" textLength="28" x="484" y="417.6201">loop</text><text fill="#000000" font-family="sans-serif" font-size="11" font-weight="bold" lengthAdjust="spacing" textLength="75" x="557" y="416.5439">[for each day]</text><polygon fill="#181818" points="1094,439.8281,1104,443.8281,1094,447.8281,1098,443.8281" style="stroke:#181818;stroke-width:1.0;"/><line style="stroke:#181818;stroke-width:1.0;" x1="610.5" x2="1100" y1="443.8281" y2="443.8281"/><text fill="#000000" font-family="sans-serif" font-size="13" font-weight="bold" lengthAdjust="spacing" textLength="14" x="617.5" y="438.9717">11</text><text fill="#000000" font-family="sans-serif" font-size="13" lengthAdjust="spacing" textLength="229" x="635.5" y="438.9717">getNumberCompletedVaccinations(day)</text><polygon fill="#181818" points="83.5,477.1797,73.5,481.1797,83.5,485.1797,79.5,481.1797" style="stroke:#181818;stroke-width:1.0;"/><line style="stroke:#181818;stroke-width:1.0;stroke-dasharray:2.0,2.0;" x1="77.5" x2="366.5" y1="481.1797" y2="481.1797"/><text fill="#000000" font-family="sans-serif" font-size="13" font-weight="bold" lengthAdjust="spacing" textLength="14" x="89.5" y="476.3232">12</text><text fill="#000000" font-family="sans-serif" font-size="13" lengthAdjust="spacing" textLength="210" x="107.5" y="476.3232">Shows data and gives option to save</text><polygon fill="#181818" points="350.5,507.5313,360.5,511.5313,350.5,515.5313,354.5,511.5313" style="stroke:#181818;stroke-width:1.0;"/><line style="stroke:#181818;stroke-width:1.0;" x1="72.5" x2="356.5" y1="511.5313" y2="511.5313"/><text fill="#000000" font-family="sans-serif" font-size="13" font-weight="bold" lengthAdjust="spacing" textLength="14" x="79.5" y="506.6748">13</text><text fill="#000000" font-family="sans-serif" font-size="13" lengthAdjust="spacing" textLength="94" x="97.5" y="506.6748">chooses to save</text><polygon fill="#181818" points="588.5,537.8828,598.5,541.8828,588.5,545.8828,592.5,541.8828" style="stroke:#181818;stroke-width:1.0;"/><line style="stroke:#181818;stroke-width:1.0;" x1="367.5" x2="594.5" y1="541.8828" y2="541.8828"/><text fill="#000000" font-family="sans-serif" font-size="13" font-weight="bold" lengthAdjust="spacing" textLength="14" x="374.5" y="537.0264">14</text><text fill="#000000" font-family="sans-serif" font-size="13" lengthAdjust="spacing" textLength="69" x="392.5" y="537.0264">saveToFile()</text><line style="stroke:#181818;stroke-width:1.0;" x1="610.5" x2="652.5" y1="572.2344" y2="572.2344"/><line style="stroke:#181818;stroke-width:1.0;" x1="652.5" x2="652.5" y1="572.2344" y2="585.2344"/><line style="stroke:#181818;stroke-width:1.0;" x1="611.5" x2="652.5" y1="585.2344" y2="585.2344"/><polygon fill="#181818" points="621.5,581.2344,611.5,585.2344,621.5,589.2344,617.5,585.2344" style="stroke:#181818;stroke-width:1.0;"/><text fill="#000000" font-family="sans-serif" font-size="13" font-weight="bold" lengthAdjust="spacing" textLength="14" x="617.5" y="567.3779">15</text><text fill="#000000" font-family="sans-serif" font-size="13" lengthAdjust="spacing" textLength="65" x="635.5" y="567.3779">createFile()</text><polygon fill="#181818" points="1177,611.5859,1187,615.5859,1177,619.5859,1181,615.5859" style="stroke:#181818;stroke-width:1.0;"/><line style="stroke:#181818;stroke-width:1.0;" x1="610.5" x2="1183" y1="615.5859" y2="615.5859"/><text fill="#000000" font-family="sans-serif" font-size="13" font-weight="bold" lengthAdjust="spacing" textLength="14" x="617.5" y="610.7295">16</text><text fill="#000000" font-family="sans-serif" font-size="13" lengthAdjust="spacing" textLength="47" x="635.5" y="610.7295">saveFile</text><polygon fill="#181818" points="621.5,641.9375,611.5,645.9375,621.5,649.9375,617.5,645.9375" style="stroke:#181818;stroke-width:1.0;"/><line style="stroke:#181818;stroke-width:1.0;stroke-dasharray:2.0,2.0;" x1="615.5" x2="1193" y1="645.9375" y2="645.9375"/><text fill="#000000" font-family="sans-serif" font-size="13" font-weight="bold" lengthAdjust="spacing" textLength="14" x="627.5" y="641.0811">17</text><text fill="#000000" font-family="sans-serif" font-size="13" lengthAdjust="spacing" textLength="14" x="645.5" y="641.0811">ok</text><polygon fill="#181818" points="383.5,672.2891,373.5,676.2891,383.5,680.2891,379.5,676.2891" style="stroke:#181818;stroke-width:1.0;"/><line style="stroke:#181818;stroke-width:1.0;stroke-dasharray:2.0,2.0;" x1="377.5" x2="604.5" y1="676.2891" y2="676.2891"/><text fill="#000000" font-family="sans-serif" font-size="13" font-weight="bold" lengthAdjust="spacing" textLength="14" x="389.5" y="671.4326">18</text><text fill="#000000" font-family="sans-serif" font-size="13" lengthAdjust="spacing" textLength="14" x="407.5" y="671.4326">ok</text><polygon fill="#181818" points="78.5,702.6406,68.5,706.6406,78.5,710.6406,74.5,706.6406" style="stroke:#181818;stroke-width:1.0;"/><line style="stroke:#181818;stroke-width:1.0;stroke-dasharray:2.0,2.0;" x1="72.5" x2="366.5" y1="706.6406" y2="706.6406"/><text fill="#000000" font-family="sans-serif" font-size="13" font-weight="bold" lengthAdjust="spacing" textLength="14" x="84.5" y="701.7842">19</text><text fill="#000000" font-family="sans-serif" font-size="13" lengthAdjust="spacing" textLength="246" x="102.5" y="701.7842">informs data was successfully saved to file</text><!--MD5=[e426f819eaa9bad1e7cf14d3640954ad]
@startuml
'https://plantuml.com/sequence-diagram

autonumber
actor "Center coordinator" as cc
participant  ": CheckVaccinationStatisticsUI" as ui
participant ": CheckVaccinationStatisticsController" as con
participant ": Company" as com
participant ": VaccinationCenterStore" as vcs
participant ": VaccinationStore" as store
actor "pm" as c
activate cc
cc -> ui: Asks to check vaccination statistics

activate ui
ui->con: getCenterList()
activate con
con->com: getVaccinationCenterStore()
con->vcs:getCenterList()
deactivate con
ui- -> cc: shows list of centers and asks to select one
deactivate ui

cc->ui: selects center

activate ui
ui - -> cc: asks for time period start and end
deactivate ui

cc - -> ui: types time period

activate ui
ui -> con: getDataForTimePeriod(start, end)
activate con
con->com: getVaccinationStore()
loop for each day
 con -> store: getNumberCompletedVaccinations(day)
end
deactivate con

ui - -> cc: Shows data and gives option to save
deactivate ui

cc -> ui: chooses to save
activate ui
ui->con:saveToFile()
deactivate ui
activate con
con->con:createFile()
con->c: saveFile
activate c
c- ->con:  ok
deactivate c
con- ->ui:  ok
deactivate con

activate ui
ui- ->cc : informs data was successfully saved to file
deactivate ui
deactivate cc

@enduml

@startuml

autonumber
actor "Center coordinator" as cc
participant  ": CheckVaccinationStatisticsUI" as ui
participant ": CheckVaccinationStatisticsController" as con
participant ": Company" as com
participant ": VaccinationCenterStore" as vcs
participant ": VaccinationStore" as store
actor "pm" as c
activate cc
cc -> ui: Asks to check vaccination statistics

activate ui
ui->con: getCenterList()
activate con
con->com: getVaccinationCenterStore()
con->vcs:getCenterList()
deactivate con
ui- -> cc: shows list of centers and asks to select one
deactivate ui

cc->ui: selects center

activate ui
ui - -> cc: asks for time period start and end
deactivate ui

cc - -> ui: types time period

activate ui
ui -> con: getDataForTimePeriod(start, end)
activate con
con->com: getVaccinationStore()
loop for each day
 con -> store: getNumberCompletedVaccinations(day)
end
deactivate con

ui - -> cc: Shows data and gives option to save
deactivate ui

cc -> ui: chooses to save
activate ui
ui->con:saveToFile()
deactivate ui
activate con
con->con:createFile()
con->c: saveFile
activate c
c- ->con:  ok
deactivate c
con- ->ui:  ok
deactivate con

activate ui
ui- ->cc : informs data was successfully saved to file
deactivate ui
deactivate cc

@enduml

PlantUML version 1.2022.5(Sat Apr 30 11:55:52 BST 2022)
(GPL source distribution)
Java Runtime: OpenJDK Runtime Environment
JVM: OpenJDK 64-Bit Server VM
Default Encoding: Cp1252
Language: en
Country: US
--></g></svg>