<?xml version="1.0" encoding="UTF-8" standalone="no"?><svg xmlns="http://www.w3.org/2000/svg" xmlns:xlink="http://www.w3.org/1999/xlink" contentStyleType="text/css" height="62px" preserveAspectRatio="none" style="width:742px;height:62px;background:#FFFFFF;" version="1.1" viewBox="0 0 742 62" width="742px" zoomAndPan="magnify"><defs/><g><!--MD5=[2d935fd2dd068a13da1ae531f9857c4f]
class CenterCoordinator--><g id="elem_CenterCoordinator"><rect codeLine="4" fill="#F1F1F1" height="48" id="CenterCoordinator" rx="2.5" ry="2.5" style="stroke:#181818;stroke-width:0.5;" width="150" x="585" y="7"/><ellipse cx="600" cy="23" fill="#ADD1B2" rx="11" ry="11" style="stroke:#181818;stroke-width:1.0;"/><path d="M602,19.5 Q602.2031,19 602.4375,18.75 Q602.6719,18.5 602.9375,18.5 Q603.4063,18.5 603.7031,18.7813 Q604,19.0625 604,19.7188 L604,21.2813 Q604,21.9375 603.7188,22.2188 Q603.4375,22.5 603,22.5 Q602.6094,22.5 602.3594,22.3281 Q602.1094,22.1563 602,21.7031 Q601.9531,21.3906 601.7813,21.2188 Q601.4688,20.8906 600.9063,20.7031 Q600.3438,20.5 599.7813,20.5 Q599.0781,20.5 598.4844,20.7813 Q597.9063,21.0625 597.4531,21.6875 Q597,22.3125 597,23.1719 L597,24.0938 Q597,25.125 597.8438,25.8125 Q598.6875,26.5 600.1875,26.5 Q601.0781,26.5 601.7031,26.2969 Q602.0625,26.1875 602.4688,25.8281 Q602.7344,25.625 602.875,25.5625 Q603.0156,25.5 603.1875,25.5 Q603.5156,25.5 603.75,25.7656 Q604,26.0156 604,26.375 Q604,26.7188 603.6563,27.125 Q603.1563,27.7188 602.3594,28.0469 Q601.3125,28.5 600.0313,28.5 Q598.5313,28.5 597.3281,27.9063 Q596.3594,27.4375 595.6719,26.4219 Q595,25.4063 595,24.2031 L595,23.1094 Q595,21.8594 595.5938,20.7656 Q596.2031,19.6719 597.25,19.0938 Q598.3125,18.5 599.5,18.5 Q600.2188,18.5 600.8438,18.75 Q601.4688,19 602,19.5 Z " fill="#000000"/><text fill="#000000" font-family="sans-serif" font-size="14" lengthAdjust="spacing" textLength="118" x="614" y="28.7285">CenterCoordinator</text><line style="stroke:#181818;stroke-width:0.5;" x1="586" x2="734" y1="39" y2="39"/><line style="stroke:#181818;stroke-width:0.5;" x1="586" x2="734" y1="47" y2="47"/></g><!--MD5=[de60e6d4f424ae4d0522096f76a59010]
class VaccinationCenter--><g id="elem_VaccinationCenter"><rect codeLine="7" fill="#F1F1F1" height="48" id="VaccinationCenter" rx="2.5" ry="2.5" style="stroke:#181818;stroke-width:0.5;" width="148" x="268" y="7"/><ellipse cx="283" cy="23" fill="#ADD1B2" rx="11" ry="11" style="stroke:#181818;stroke-width:1.0;"/><path d="M285,19.5 Q285.2031,19 285.4375,18.75 Q285.6719,18.5 285.9375,18.5 Q286.4063,18.5 286.7031,18.7813 Q287,19.0625 287,19.7188 L287,21.2813 Q287,21.9375 286.7188,22.2188 Q286.4375,22.5 286,22.5 Q285.6094,22.5 285.3594,22.3281 Q285.1094,22.1563 285,21.7031 Q284.9531,21.3906 284.7813,21.2188 Q284.4688,20.8906 283.9063,20.7031 Q283.3438,20.5 282.7813,20.5 Q282.0781,20.5 281.4844,20.7813 Q280.9063,21.0625 280.4531,21.6875 Q280,22.3125 280,23.1719 L280,24.0938 Q280,25.125 280.8438,25.8125 Q281.6875,26.5 283.1875,26.5 Q284.0781,26.5 284.7031,26.2969 Q285.0625,26.1875 285.4688,25.8281 Q285.7344,25.625 285.875,25.5625 Q286.0156,25.5 286.1875,25.5 Q286.5156,25.5 286.75,25.7656 Q287,26.0156 287,26.375 Q287,26.7188 286.6563,27.125 Q286.1563,27.7188 285.3594,28.0469 Q284.3125,28.5 283.0313,28.5 Q281.5313,28.5 280.3281,27.9063 Q279.3594,27.4375 278.6719,26.4219 Q278,25.4063 278,24.2031 L278,23.1094 Q278,21.8594 278.5938,20.7656 Q279.2031,19.6719 280.25,19.0938 Q281.3125,18.5 282.5,18.5 Q283.2188,18.5 283.8438,18.75 Q284.4688,19 285,19.5 Z " fill="#000000"/><text fill="#000000" font-family="sans-serif" font-size="14" lengthAdjust="spacing" textLength="116" x="297" y="28.7285">VaccinationCenter</text><line style="stroke:#181818;stroke-width:0.5;" x1="269" x2="415" y1="39" y2="39"/><line style="stroke:#181818;stroke-width:0.5;" x1="269" x2="415" y1="47" y2="47"/></g><!--MD5=[53d58b469dab931cbea506cdf5ebe602]
class Vaccination--><g id="elem_Vaccination"><rect codeLine="10" fill="#F1F1F1" height="48" id="Vaccination" rx="2.5" ry="2.5" style="stroke:#181818;stroke-width:0.5;" width="105" x="7" y="7"/><ellipse cx="22" cy="23" fill="#ADD1B2" rx="11" ry="11" style="stroke:#181818;stroke-width:1.0;"/><path d="M24,19.5 Q24.2031,19 24.4375,18.75 Q24.6719,18.5 24.9375,18.5 Q25.4063,18.5 25.7031,18.7813 Q26,19.0625 26,19.7188 L26,21.2813 Q26,21.9375 25.7188,22.2188 Q25.4375,22.5 25,22.5 Q24.6094,22.5 24.3594,22.3281 Q24.1094,22.1563 24,21.7031 Q23.9531,21.3906 23.7813,21.2188 Q23.4688,20.8906 22.9063,20.7031 Q22.3438,20.5 21.7813,20.5 Q21.0781,20.5 20.4844,20.7813 Q19.9063,21.0625 19.4531,21.6875 Q19,22.3125 19,23.1719 L19,24.0938 Q19,25.125 19.8438,25.8125 Q20.6875,26.5 22.1875,26.5 Q23.0781,26.5 23.7031,26.2969 Q24.0625,26.1875 24.4688,25.8281 Q24.7344,25.625 24.875,25.5625 Q25.0156,25.5 25.1875,25.5 Q25.5156,25.5 25.75,25.7656 Q26,26.0156 26,26.375 Q26,26.7188 25.6563,27.125 Q25.1563,27.7188 24.3594,28.0469 Q23.3125,28.5 22.0313,28.5 Q20.5313,28.5 19.3281,27.9063 Q18.3594,27.4375 17.6719,26.4219 Q17,25.4063 17,24.2031 L17,23.1094 Q17,21.8594 17.5938,20.7656 Q18.2031,19.6719 19.25,19.0938 Q20.3125,18.5 21.5,18.5 Q22.2188,18.5 22.8438,18.75 Q23.4688,19 24,19.5 Z " fill="#000000"/><text fill="#000000" font-family="sans-serif" font-size="14" lengthAdjust="spacing" textLength="73" x="36" y="28.7285">Vaccination</text><line style="stroke:#181818;stroke-width:0.5;" x1="8" x2="111" y1="39" y2="39"/><line style="stroke:#181818;stroke-width:0.5;" x1="8" x2="111" y1="47" y2="47"/></g><!--MD5=[8d58cf1c2119791001cf5144e9295faa]
link VaccinationCenter to CenterCoordinator--><g id="link_VaccinationCenter_CenterCoordinator"><path codeLine="13" d="M416.29,31 C466.89,31 533.93,31 584.74,31 " fill="none" id="VaccinationCenter-CenterCoordinator" style="stroke:#181818;stroke-width:1.0;"/><polygon fill="#000000" points="487,22.1758,477.9549,19.2369,477.9549,25.1147,487,22.1758" style="stroke:#000000;stroke-width:1.0;"/><text fill="#000000" font-family="sans-serif" font-size="13" lengthAdjust="spacing" textLength="32" x="491" y="27.4951">has a</text><text fill="#000000" font-family="sans-serif" font-size="13" lengthAdjust="spacing" textLength="5" x="424.209" y="45.3382">*</text><text fill="#000000" font-family="sans-serif" font-size="13" lengthAdjust="spacing" textLength="7" x="569.9871" y="45.2999">1</text></g><!--MD5=[6c41891d8b332771fbdd5d1a1e619ad3]
link Vaccination to VaccinationCenter--><g id="link_Vaccination_VaccinationCenter"><path codeLine="14" d="M112.27,31 C155.97,31 219.02,31 267.86,31 " fill="none" id="Vaccination-VaccinationCenter" style="stroke:#181818;stroke-width:1.0;"/><polygon fill="#000000" points="152,22.1758,142.9549,19.2369,142.9549,25.1147,152,22.1758" style="stroke:#000000;stroke-width:1.0;"/><text fill="#000000" font-family="sans-serif" font-size="13" lengthAdjust="spacing" textLength="81" x="156" y="27.4951">takes place in</text><text fill="#000000" font-family="sans-serif" font-size="13" lengthAdjust="spacing" textLength="5" x="120.0423" y="45.6448">*</text><text fill="#000000" font-family="sans-serif" font-size="13" lengthAdjust="spacing" textLength="7" x="252.8534" y="45.3382">1</text></g><!--MD5=[faea29980df087673824a497c58bca24]
@startuml
'https://plantuml.com/class-diagram
left to right direction

class CenterCoordinator{
}

class VaccinationCenter{
}

class Vaccination{
}

VaccinationCenter "*"- - -"1" CenterCoordinator : has a >
Vaccination "*" - - "1" VaccinationCenter : takes place in >

@enduml

@startuml
left to right direction

class CenterCoordinator{
}

class VaccinationCenter{
}

class Vaccination{
}

VaccinationCenter "*"- - -"1" CenterCoordinator : has a >
Vaccination "*" - - "1" VaccinationCenter : takes place in >

@enduml

PlantUML version 1.2022.5(Sat Apr 30 11:55:52 BST 2022)
(GPL source distribution)
Java Runtime: OpenJDK Runtime Environment
JVM: OpenJDK 64-Bit Server VM
Default Encoding: Cp1252
Language: en
Country: US
--></g></svg>