<?xml version="1.0" encoding="UTF-8" standalone="no"?><svg xmlns="http://www.w3.org/2000/svg" xmlns:xlink="http://www.w3.org/1999/xlink" contentStyleType="text/css" height="427px" preserveAspectRatio="none" style="width:384px;height:427px;background:#FFFFFF;" version="1.1" viewBox="0 0 384 427" width="384px" zoomAndPan="magnify"><defs/><g><line style="stroke:#181818;stroke-width:0.5;stroke-dasharray:5.0,5.0;" x1="67" x2="67" y1="82.6094" y2="345.4219"/><line style="stroke:#181818;stroke-width:0.5;stroke-dasharray:5.0,5.0;" x1="348.5" x2="348.5" y1="82.6094" y2="345.4219"/><text fill="#000000" font-family="sans-serif" font-size="14" lengthAdjust="spacing" textLength="119" x="5" y="79.5332">Center coordinator</text><ellipse cx="67.5" cy="13.5" fill="#E2E2F0" rx="8" ry="8" style="stroke:#181818;stroke-width:0.5;"/><path d="M67.5,21.5 L67.5,48.5 M54.5,29.5 L80.5,29.5 M67.5,48.5 L54.5,63.5 M67.5,48.5 L80.5,63.5 " fill="none" style="stroke:#181818;stroke-width:0.5;"/><text fill="#000000" font-family="sans-serif" font-size="14" lengthAdjust="spacing" textLength="119" x="5" y="358.9551">Center coordinator</text><ellipse cx="67.5" cy="370.5313" fill="#E2E2F0" rx="8" ry="8" style="stroke:#181818;stroke-width:0.5;"/><path d="M67.5,378.5313 L67.5,405.5313 M54.5,386.5313 L80.5,386.5313 M67.5,405.5313 L54.5,420.5313 M67.5,405.5313 L80.5,420.5313 " fill="none" style="stroke:#181818;stroke-width:0.5;"/><rect fill="#E2E2F0" height="31.6094" rx="2.5" ry="2.5" style="stroke:#181818;stroke-width:0.5;" width="60" x="318.5" y="50"/><text fill="#000000" font-family="sans-serif" font-size="14" lengthAdjust="spacing" textLength="46" x="325.5" y="71.5332">System</text><rect fill="#E2E2F0" height="31.6094" rx="2.5" ry="2.5" style="stroke:#181818;stroke-width:0.5;" width="60" x="318.5" y="344.4219"/><text fill="#000000" font-family="sans-serif" font-size="14" lengthAdjust="spacing" textLength="46" x="325.5" y="365.9551">System</text><polygon fill="#181818" points="336.5,110.9609,346.5,114.9609,336.5,118.9609,340.5,114.9609" style="stroke:#181818;stroke-width:1.0;"/><line style="stroke:#181818;stroke-width:1.0;" x1="67.5" x2="342.5" y1="114.9609" y2="114.9609"/><text fill="#000000" font-family="sans-serif" font-size="13" font-weight="bold" lengthAdjust="spacing" textLength="7" x="74.5" y="110.1045">1</text><text fill="#000000" font-family="sans-serif" font-size="13" lengthAdjust="spacing" textLength="209" x="85.5" y="110.1045">Asks to check vaccination statistics</text><polygon fill="#181818" points="78.5,141.3125,68.5,145.3125,78.5,149.3125,74.5,145.3125" style="stroke:#181818;stroke-width:1.0;"/><line style="stroke:#181818;stroke-width:1.0;stroke-dasharray:2.0,2.0;" x1="72.5" x2="347.5" y1="145.3125" y2="145.3125"/><text fill="#000000" font-family="sans-serif" font-size="13" font-weight="bold" lengthAdjust="spacing" textLength="7" x="84.5" y="140.4561">2</text><text fill="#000000" font-family="sans-serif" font-size="13" lengthAdjust="spacing" textLength="193" x="95.5" y="140.4561">shows list of centers for selection</text><polygon fill="#181818" points="336.5,171.6641,346.5,175.6641,336.5,179.6641,340.5,175.6641" style="stroke:#181818;stroke-width:1.0;"/><line style="stroke:#181818;stroke-width:1.0;" x1="67.5" x2="342.5" y1="175.6641" y2="175.6641"/><text fill="#000000" font-family="sans-serif" font-size="13" font-weight="bold" lengthAdjust="spacing" textLength="7" x="74.5" y="170.8076">3</text><text fill="#000000" font-family="sans-serif" font-size="13" lengthAdjust="spacing" textLength="95" x="85.5" y="170.8076">makes selection</text><polygon fill="#181818" points="78.5,202.0156,68.5,206.0156,78.5,210.0156,74.5,206.0156" style="stroke:#181818;stroke-width:1.0;"/><line style="stroke:#181818;stroke-width:1.0;stroke-dasharray:2.0,2.0;" x1="72.5" x2="347.5" y1="206.0156" y2="206.0156"/><text fill="#000000" font-family="sans-serif" font-size="13" font-weight="bold" lengthAdjust="spacing" textLength="7" x="84.5" y="201.1592">4</text><text fill="#000000" font-family="sans-serif" font-size="13" lengthAdjust="spacing" textLength="114" x="95.5" y="201.1592">asks for time period</text><polygon fill="#181818" points="336.5,232.3672,346.5,236.3672,336.5,240.3672,340.5,236.3672" style="stroke:#181818;stroke-width:1.0;"/><line style="stroke:#181818;stroke-width:1.0;stroke-dasharray:2.0,2.0;" x1="67.5" x2="342.5" y1="236.3672" y2="236.3672"/><text fill="#000000" font-family="sans-serif" font-size="13" font-weight="bold" lengthAdjust="spacing" textLength="7" x="74.5" y="231.5107">5</text><text fill="#000000" font-family="sans-serif" font-size="13" lengthAdjust="spacing" textLength="100" x="85.5" y="231.5107">types time period</text><polygon fill="#181818" points="78.5,262.7188,68.5,266.7188,78.5,270.7188,74.5,266.7188" style="stroke:#181818;stroke-width:1.0;"/><line style="stroke:#181818;stroke-width:1.0;stroke-dasharray:2.0,2.0;" x1="72.5" x2="347.5" y1="266.7188" y2="266.7188"/><text fill="#000000" font-family="sans-serif" font-size="13" font-weight="bold" lengthAdjust="spacing" textLength="7" x="84.5" y="261.8623">6</text><text fill="#000000" font-family="sans-serif" font-size="13" lengthAdjust="spacing" textLength="210" x="95.5" y="261.8623">Shows data and gives option to save</text><polygon fill="#181818" points="336.5,293.0703,346.5,297.0703,336.5,301.0703,340.5,297.0703" style="stroke:#181818;stroke-width:1.0;"/><line style="stroke:#181818;stroke-width:1.0;" x1="67.5" x2="342.5" y1="297.0703" y2="297.0703"/><text fill="#000000" font-family="sans-serif" font-size="13" font-weight="bold" lengthAdjust="spacing" textLength="7" x="74.5" y="292.2139">7</text><text fill="#000000" font-family="sans-serif" font-size="13" lengthAdjust="spacing" textLength="94" x="85.5" y="292.2139">chooses to save</text><polygon fill="#181818" points="78.5,323.4219,68.5,327.4219,78.5,331.4219,74.5,327.4219" style="stroke:#181818;stroke-width:1.0;"/><line style="stroke:#181818;stroke-width:1.0;stroke-dasharray:2.0,2.0;" x1="72.5" x2="347.5" y1="327.4219" y2="327.4219"/><text fill="#000000" font-family="sans-serif" font-size="13" font-weight="bold" lengthAdjust="spacing" textLength="7" x="84.5" y="322.5654">8</text><text fill="#000000" font-family="sans-serif" font-size="13" lengthAdjust="spacing" textLength="246" x="95.5" y="322.5654">informs data was successfully saved to file</text><!--MD5=[1ca14b004bdab25fb629241e3080bbec]
@startuml
'https://plantuml.com/sequence-diagram

autonumber
actor "Center coordinator" as cc

cc -> System: Asks to check vaccination statistics
System - -> cc: shows list of centers for selection

cc -> System: makes selection
System - -> cc: asks for time period

cc - -> System: types time period
System - -> cc: Shows data and gives option to save

cc -> System: chooses to save
cc <- - System: informs data was successfully saved to file
@enduml

@startuml

autonumber
actor "Center coordinator" as cc

cc -> System: Asks to check vaccination statistics
System - -> cc: shows list of centers for selection

cc -> System: makes selection
System - -> cc: asks for time period

cc - -> System: types time period
System - -> cc: Shows data and gives option to save

cc -> System: chooses to save
cc <- - System: informs data was successfully saved to file
@enduml

PlantUML version 1.2022.5(Sat Apr 30 11:55:52 BST 2022)
(GPL source distribution)
Java Runtime: OpenJDK Runtime Environment
JVM: OpenJDK 64-Bit Server VM
Default Encoding: Cp1252
Language: en
Country: US
--></g></svg>