<?xml version="1.0" encoding="UTF-8" standalone="no"?><svg xmlns="http://www.w3.org/2000/svg" xmlns:xlink="http://www.w3.org/1999/xlink" contentStyleType="text/css" height="528px" preserveAspectRatio="none" style="width:507px;height:528px;background:#FFFFFF;" version="1.1" viewBox="0 0 507 528" width="507px" zoomAndPan="magnify"><defs/><g><!--MD5=[5c8170874a0b3f1cbbc9b6e1ff4551bf]
class CheckVaccinationStatisticsUI--><g id="elem_CheckVaccinationStatisticsUI"><rect codeLine="3" fill="#F1F1F1" height="48" id="CheckVaccinationStatisticsUI" rx="2.5" ry="2.5" style="stroke:#181818;stroke-width:0.5;" width="213" x="123.5" y="7"/><ellipse cx="138.5" cy="23" fill="#ADD1B2" rx="11" ry="11" style="stroke:#181818;stroke-width:1.0;"/><path d="M140.5,19.5 Q140.7031,19 140.9375,18.75 Q141.1719,18.5 141.4375,18.5 Q141.9063,18.5 142.2031,18.7813 Q142.5,19.0625 142.5,19.7188 L142.5,21.2813 Q142.5,21.9375 142.2188,22.2188 Q141.9375,22.5 141.5,22.5 Q141.1094,22.5 140.8594,22.3281 Q140.6094,22.1563 140.5,21.7031 Q140.4531,21.3906 140.2813,21.2188 Q139.9688,20.8906 139.4063,20.7031 Q138.8438,20.5 138.2813,20.5 Q137.5781,20.5 136.9844,20.7813 Q136.4063,21.0625 135.9531,21.6875 Q135.5,22.3125 135.5,23.1719 L135.5,24.0938 Q135.5,25.125 136.3438,25.8125 Q137.1875,26.5 138.6875,26.5 Q139.5781,26.5 140.2031,26.2969 Q140.5625,26.1875 140.9688,25.8281 Q141.2344,25.625 141.375,25.5625 Q141.5156,25.5 141.6875,25.5 Q142.0156,25.5 142.25,25.7656 Q142.5,26.0156 142.5,26.375 Q142.5,26.7188 142.1563,27.125 Q141.6563,27.7188 140.8594,28.0469 Q139.8125,28.5 138.5313,28.5 Q137.0313,28.5 135.8281,27.9063 Q134.8594,27.4375 134.1719,26.4219 Q133.5,25.4063 133.5,24.2031 L133.5,23.1094 Q133.5,21.8594 134.0938,20.7656 Q134.7031,19.6719 135.75,19.0938 Q136.8125,18.5 138,18.5 Q138.7188,18.5 139.3438,18.75 Q139.9688,19 140.5,19.5 Z " fill="#000000"/><text fill="#000000" font-family="sans-serif" font-size="14" lengthAdjust="spacing" textLength="181" x="152.5" y="28.7285">CheckVaccinationStatisticsUI</text><line style="stroke:#181818;stroke-width:0.5;" x1="124.5" x2="335.5" y1="39" y2="39"/><line style="stroke:#181818;stroke-width:0.5;" x1="124.5" x2="335.5" y1="47" y2="47"/></g><!--MD5=[6825b5000de271f097ae3702c750b17d]
class CheckVaccinationStatisticsController--><g id="elem_CheckVaccinationStatisticsController"><rect codeLine="5" fill="#F1F1F1" height="118.4375" id="CheckVaccinationStatisticsController" rx="2.5" ry="2.5" style="stroke:#181818;stroke-width:0.5;" width="263" x="98.5" y="116"/><ellipse cx="113.5" cy="132" fill="#ADD1B2" rx="11" ry="11" style="stroke:#181818;stroke-width:1.0;"/><path d="M115.5,128.5 Q115.7031,128 115.9375,127.75 Q116.1719,127.5 116.4375,127.5 Q116.9063,127.5 117.2031,127.7813 Q117.5,128.0625 117.5,128.7188 L117.5,130.2813 Q117.5,130.9375 117.2188,131.2188 Q116.9375,131.5 116.5,131.5 Q116.1094,131.5 115.8594,131.3281 Q115.6094,131.1563 115.5,130.7031 Q115.4531,130.3906 115.2813,130.2188 Q114.9688,129.8906 114.4063,129.7031 Q113.8438,129.5 113.2813,129.5 Q112.5781,129.5 111.9844,129.7813 Q111.4063,130.0625 110.9531,130.6875 Q110.5,131.3125 110.5,132.1719 L110.5,133.0938 Q110.5,134.125 111.3438,134.8125 Q112.1875,135.5 113.6875,135.5 Q114.5781,135.5 115.2031,135.2969 Q115.5625,135.1875 115.9688,134.8281 Q116.2344,134.625 116.375,134.5625 Q116.5156,134.5 116.6875,134.5 Q117.0156,134.5 117.25,134.7656 Q117.5,135.0156 117.5,135.375 Q117.5,135.7188 117.1563,136.125 Q116.6563,136.7188 115.8594,137.0469 Q114.8125,137.5 113.5313,137.5 Q112.0313,137.5 110.8281,136.9063 Q109.8594,136.4375 109.1719,135.4219 Q108.5,134.4063 108.5,133.2031 L108.5,132.1094 Q108.5,130.8594 109.0938,129.7656 Q109.7031,128.6719 110.75,128.0938 Q111.8125,127.5 113,127.5 Q113.7188,127.5 114.3438,127.75 Q114.9688,128 115.5,128.5 Z " fill="#000000"/><text fill="#000000" font-family="sans-serif" font-size="14" lengthAdjust="spacing" textLength="231" x="127.5" y="137.7285">CheckVaccinationStatisticsController</text><line style="stroke:#181818;stroke-width:0.5;" x1="99.5" x2="360.5" y1="148" y2="148"/><line style="stroke:#181818;stroke-width:0.5;" x1="99.5" x2="360.5" y1="156" y2="156"/><ellipse cx="109.5" cy="167" fill="#84BE84" rx="3" ry="3" style="stroke:#038048;stroke-width:1.0;"/><text fill="#000000" font-family="sans-serif" font-size="14" lengthAdjust="spacing" textLength="95" x="118.5" y="174.5332">getCenterList()</text><ellipse cx="109.5" cy="184.6094" fill="#84BE84" rx="3" ry="3" style="stroke:#038048;stroke-width:1.0;"/><text fill="#000000" font-family="sans-serif" font-size="14" lengthAdjust="spacing" textLength="214" x="118.5" y="192.1426">getDataForTimePeriod(start, end)</text><ellipse cx="109.5" cy="202.2188" fill="#84BE84" rx="3" ry="3" style="stroke:#038048;stroke-width:1.0;"/><text fill="#000000" font-family="sans-serif" font-size="14" lengthAdjust="spacing" textLength="80" x="118.5" y="209.752">saveToFile()</text><ellipse cx="109.5" cy="219.8281" fill="#84BE84" rx="3" ry="3" style="stroke:#038048;stroke-width:1.0;"/><text fill="#000000" font-family="sans-serif" font-size="14" lengthAdjust="spacing" textLength="73" x="118.5" y="227.3613">createFile()</text></g><!--MD5=[02e4b9b7573f1156f41e60aa5b4e25a4]
class Company--><g id="elem_Company"><rect codeLine="11" fill="#F1F1F1" height="83.2188" id="Company" rx="2.5" ry="2.5" style="stroke:#181818;stroke-width:0.5;" width="206" x="127" y="295"/><ellipse cx="195.75" cy="311" fill="#ADD1B2" rx="11" ry="11" style="stroke:#181818;stroke-width:1.0;"/><path d="M197.75,307.5 Q197.9531,307 198.1875,306.75 Q198.4219,306.5 198.6875,306.5 Q199.1563,306.5 199.4531,306.7813 Q199.75,307.0625 199.75,307.7188 L199.75,309.2813 Q199.75,309.9375 199.4688,310.2188 Q199.1875,310.5 198.75,310.5 Q198.3594,310.5 198.1094,310.3281 Q197.8594,310.1563 197.75,309.7031 Q197.7031,309.3906 197.5313,309.2188 Q197.2188,308.8906 196.6563,308.7031 Q196.0938,308.5 195.5313,308.5 Q194.8281,308.5 194.2344,308.7813 Q193.6563,309.0625 193.2031,309.6875 Q192.75,310.3125 192.75,311.1719 L192.75,312.0938 Q192.75,313.125 193.5938,313.8125 Q194.4375,314.5 195.9375,314.5 Q196.8281,314.5 197.4531,314.2969 Q197.8125,314.1875 198.2188,313.8281 Q198.4844,313.625 198.625,313.5625 Q198.7656,313.5 198.9375,313.5 Q199.2656,313.5 199.5,313.7656 Q199.75,314.0156 199.75,314.375 Q199.75,314.7188 199.4063,315.125 Q198.9063,315.7188 198.1094,316.0469 Q197.0625,316.5 195.7813,316.5 Q194.2813,316.5 193.0781,315.9063 Q192.1094,315.4375 191.4219,314.4219 Q190.75,313.4063 190.75,312.2031 L190.75,311.1094 Q190.75,309.8594 191.3438,308.7656 Q191.9531,307.6719 193,307.0938 Q194.0625,306.5 195.25,306.5 Q195.9688,306.5 196.5938,306.75 Q197.2188,307 197.75,307.5 Z " fill="#000000"/><text fill="#000000" font-family="sans-serif" font-size="14" lengthAdjust="spacing" textLength="60" x="216.25" y="316.7285">Company</text><line style="stroke:#181818;stroke-width:0.5;" x1="128" x2="332" y1="327" y2="327"/><line style="stroke:#181818;stroke-width:0.5;" x1="128" x2="332" y1="335" y2="335"/><ellipse cx="138" cy="346" fill="#84BE84" rx="3" ry="3" style="stroke:#038048;stroke-width:1.0;"/><text fill="#000000" font-family="sans-serif" font-size="14" lengthAdjust="spacing" textLength="180" x="147" y="353.5332">getVaccinationCenterStore()</text><ellipse cx="138" cy="363.6094" fill="#84BE84" rx="3" ry="3" style="stroke:#038048;stroke-width:1.0;"/><text fill="#000000" font-family="sans-serif" font-size="14" lengthAdjust="spacing" textLength="137" x="147" y="371.1426">getVaccinationStore()</text></g><!--MD5=[a29876ea2f21a6ca48ea477740122fd8]
class VaccinationCenterStore--><g id="elem_VaccinationCenterStore"><rect codeLine="15" fill="#F1F1F1" height="65.6094" id="VaccinationCenterStore" rx="2.5" ry="2.5" style="stroke:#181818;stroke-width:0.5;" width="182" x="7" y="456"/><ellipse cx="22" cy="472" fill="#ADD1B2" rx="11" ry="11" style="stroke:#181818;stroke-width:1.0;"/><path d="M24,468.5 Q24.2031,468 24.4375,467.75 Q24.6719,467.5 24.9375,467.5 Q25.4063,467.5 25.7031,467.7813 Q26,468.0625 26,468.7188 L26,470.2813 Q26,470.9375 25.7188,471.2188 Q25.4375,471.5 25,471.5 Q24.6094,471.5 24.3594,471.3281 Q24.1094,471.1563 24,470.7031 Q23.9531,470.3906 23.7813,470.2188 Q23.4688,469.8906 22.9063,469.7031 Q22.3438,469.5 21.7813,469.5 Q21.0781,469.5 20.4844,469.7813 Q19.9063,470.0625 19.4531,470.6875 Q19,471.3125 19,472.1719 L19,473.0938 Q19,474.125 19.8438,474.8125 Q20.6875,475.5 22.1875,475.5 Q23.0781,475.5 23.7031,475.2969 Q24.0625,475.1875 24.4688,474.8281 Q24.7344,474.625 24.875,474.5625 Q25.0156,474.5 25.1875,474.5 Q25.5156,474.5 25.75,474.7656 Q26,475.0156 26,475.375 Q26,475.7188 25.6563,476.125 Q25.1563,476.7188 24.3594,477.0469 Q23.3125,477.5 22.0313,477.5 Q20.5313,477.5 19.3281,476.9063 Q18.3594,476.4375 17.6719,475.4219 Q17,474.4063 17,473.2031 L17,472.1094 Q17,470.8594 17.5938,469.7656 Q18.2031,468.6719 19.25,468.0938 Q20.3125,467.5 21.5,467.5 Q22.2188,467.5 22.8438,467.75 Q23.4688,468 24,468.5 Z " fill="#000000"/><text fill="#000000" font-family="sans-serif" font-size="14" lengthAdjust="spacing" textLength="150" x="36" y="477.7285">VaccinationCenterStore</text><line style="stroke:#181818;stroke-width:0.5;" x1="8" x2="188" y1="488" y2="488"/><line style="stroke:#181818;stroke-width:0.5;" x1="8" x2="188" y1="496" y2="496"/><ellipse cx="18" cy="507" fill="#84BE84" rx="3" ry="3" style="stroke:#038048;stroke-width:1.0;"/><text fill="#000000" font-family="sans-serif" font-size="14" lengthAdjust="spacing" textLength="95" x="27" y="514.5332">getCenterList()</text></g><!--MD5=[41cc02520145af74c81949934476670c]
class VaccinationStore--><g id="elem_VaccinationStore"><rect codeLine="18" fill="#F1F1F1" height="65.6094" id="VaccinationStore" rx="2.5" ry="2.5" style="stroke:#181818;stroke-width:0.5;" width="276" x="224" y="456"/><ellipse cx="304.25" cy="472" fill="#ADD1B2" rx="11" ry="11" style="stroke:#181818;stroke-width:1.0;"/><path d="M306.25,468.5 Q306.4531,468 306.6875,467.75 Q306.9219,467.5 307.1875,467.5 Q307.6563,467.5 307.9531,467.7813 Q308.25,468.0625 308.25,468.7188 L308.25,470.2813 Q308.25,470.9375 307.9688,471.2188 Q307.6875,471.5 307.25,471.5 Q306.8594,471.5 306.6094,471.3281 Q306.3594,471.1563 306.25,470.7031 Q306.2031,470.3906 306.0313,470.2188 Q305.7188,469.8906 305.1563,469.7031 Q304.5938,469.5 304.0313,469.5 Q303.3281,469.5 302.7344,469.7813 Q302.1563,470.0625 301.7031,470.6875 Q301.25,471.3125 301.25,472.1719 L301.25,473.0938 Q301.25,474.125 302.0938,474.8125 Q302.9375,475.5 304.4375,475.5 Q305.3281,475.5 305.9531,475.2969 Q306.3125,475.1875 306.7188,474.8281 Q306.9844,474.625 307.125,474.5625 Q307.2656,474.5 307.4375,474.5 Q307.7656,474.5 308,474.7656 Q308.25,475.0156 308.25,475.375 Q308.25,475.7188 307.9063,476.125 Q307.4063,476.7188 306.6094,477.0469 Q305.5625,477.5 304.2813,477.5 Q302.7813,477.5 301.5781,476.9063 Q300.6094,476.4375 299.9219,475.4219 Q299.25,474.4063 299.25,473.2031 L299.25,472.1094 Q299.25,470.8594 299.8438,469.7656 Q300.4531,468.6719 301.5,468.0938 Q302.5625,467.5 303.75,467.5 Q304.4688,467.5 305.0938,467.75 Q305.7188,468 306.25,468.5 Z " fill="#000000"/><text fill="#000000" font-family="sans-serif" font-size="14" lengthAdjust="spacing" textLength="107" x="324.75" y="477.7285">VaccinationStore</text><line style="stroke:#181818;stroke-width:0.5;" x1="225" x2="499" y1="488" y2="488"/><line style="stroke:#181818;stroke-width:0.5;" x1="225" x2="499" y1="496" y2="496"/><ellipse cx="235" cy="507" fill="#84BE84" rx="3" ry="3" style="stroke:#038048;stroke-width:1.0;"/><text fill="#000000" font-family="sans-serif" font-size="14" lengthAdjust="spacing" textLength="250" x="244" y="514.5332">getNumberCompletedVaccinations(day)</text></g><!--MD5=[805b39566d79862fc94f7bc5258f3315]
link CheckVaccinationStatisticsUI to CheckVaccinationStatisticsController--><g id="link_CheckVaccinationStatisticsUI_CheckVaccinationStatisticsController"><path codeLine="22" d="M230,55.13 C230,70.35 230,91.05 230,110.92 " fill="none" id="CheckVaccinationStatisticsUI-to-CheckVaccinationStatisticsController" style="stroke:#181818;stroke-width:1.0;stroke-dasharray:7.0,7.0;"/><polygon fill="#181818" points="230,115.94,234,106.94,230,110.94,226,106.94,230,115.94" style="stroke:#181818;stroke-width:1.0;"/></g><!--MD5=[55eb0abcd6fe92c14391b28464069194]
link CheckVaccinationStatisticsController to Company--><g id="link_CheckVaccinationStatisticsController_Company"><path codeLine="23" d="M230,234.03 C230,252.28 230,272.16 230,289.45 " fill="none" id="CheckVaccinationStatisticsController-to-Company" style="stroke:#181818;stroke-width:1.0;stroke-dasharray:7.0,7.0;"/><polygon fill="#181818" points="230,294.73,234,285.73,230,289.73,226,285.73,230,294.73" style="stroke:#181818;stroke-width:1.0;"/></g><!--MD5=[bc0d5b4bfe6e1bf0a8fced13bc4bdd47]
link Company to VaccinationCenterStore--><g id="link_Company_VaccinationCenterStore"><path codeLine="24" d="M194.28,378.23 C174.07,401.27 149.02,429.82 129.54,452.03 " fill="none" id="Company-to-VaccinationCenterStore" style="stroke:#181818;stroke-width:1.0;"/><polygon fill="#181818" points="126.22,455.82,135.1646,451.6976,129.5196,452.0633,129.1539,446.4183,126.22,455.82" style="stroke:#181818;stroke-width:1.0;"/><text fill="#000000" font-family="sans-serif" font-size="13" lengthAdjust="spacing" textLength="28" x="169" y="422.4951">uses</text><text fill="#000000" font-family="sans-serif" font-size="13" lengthAdjust="spacing" textLength="7" x="181.0293" y="399.6614">1</text><text fill="#000000" font-family="sans-serif" font-size="13" lengthAdjust="spacing" textLength="7" x="124.3185" y="444.8983">1</text></g><!--MD5=[ad44ecd33d7f3df75ce92dd0dbdc0b45]
link Company to VaccinationStore--><g id="link_Company_VaccinationStore"><path codeLine="25" d="M265.72,378.23 C285.93,401.27 310.98,429.82 330.46,452.03 " fill="none" id="Company-to-VaccinationStore" style="stroke:#181818;stroke-width:1.0;"/><polygon fill="#181818" points="333.78,455.82,330.8461,446.4183,330.4804,452.0633,324.8354,451.6976,333.78,455.82" style="stroke:#181818;stroke-width:1.0;"/><text fill="#000000" font-family="sans-serif" font-size="13" lengthAdjust="spacing" textLength="28" x="304" y="422.4951">uses</text><text fill="#000000" font-family="sans-serif" font-size="13" lengthAdjust="spacing" textLength="7" x="263.8551" y="399.6614">1</text><text fill="#000000" font-family="sans-serif" font-size="13" lengthAdjust="spacing" textLength="7" x="320.2377" y="444.8983">1</text></g><!--MD5=[3273ab87492c741b7d54121e8b6deaca]
@startuml
'https://plantuml.com/class-diagram

class CheckVaccinationStatisticsUI{
}
class CheckVaccinationStatisticsController{
+getCenterList()
+getDataForTimePeriod(start, end)
+saveToFile()
+createFile()
}
class Company{
+getVaccinationCenterStore()
+getVaccinationStore()
}
class VaccinationCenterStore{
+getCenterList()
}
class VaccinationStore{
+getNumberCompletedVaccinations(day)
}

CheckVaccinationStatisticsUI..>CheckVaccinationStatisticsController
CheckVaccinationStatisticsController..>Company
Company "1" - -> "1" VaccinationCenterStore: uses
Company "1" - -> "1" VaccinationStore: uses





@enduml

@startuml

class CheckVaccinationStatisticsUI{
}
class CheckVaccinationStatisticsController{
+getCenterList()
+getDataForTimePeriod(start, end)
+saveToFile()
+createFile()
}
class Company{
+getVaccinationCenterStore()
+getVaccinationStore()
}
class VaccinationCenterStore{
+getCenterList()
}
class VaccinationStore{
+getNumberCompletedVaccinations(day)
}

CheckVaccinationStatisticsUI..>CheckVaccinationStatisticsController
CheckVaccinationStatisticsController..>Company
Company "1" - -> "1" VaccinationCenterStore: uses
Company "1" - -> "1" VaccinationStore: uses





@enduml

PlantUML version 1.2022.5(Sat Apr 30 11:55:52 BST 2022)
(GPL source distribution)
Java Runtime: OpenJDK Runtime Environment
JVM: OpenJDK 64-Bit Server VM
Default Encoding: Cp1252
Language: en
Country: US
--></g></svg>