<?xml version="1.0" encoding="UTF-8" standalone="no"?><svg xmlns="http://www.w3.org/2000/svg" xmlns:xlink="http://www.w3.org/1999/xlink" contentStyleType="text/css" height="252px" preserveAspectRatio="none" style="width:2059px;height:252px;background:#FFFFFF;" version="1.1" viewBox="0 0 2059 252" width="2059px" zoomAndPan="magnify"><defs/><g><!--MD5=[a11a6a69c864ffe7dba2aa18a4a172e6]
class RegisterEmployeeTypeUI--><g id="elem_RegisterEmployeeTypeUI"><rect codeLine="4" fill="#F1F1F1" height="65.6094" id="RegisterEmployeeTypeUI" rx="2.5" ry="2.5" style="stroke:#181818;stroke-width:0.5;" width="231" x="7" y="75.54"/><ellipse cx="40" cy="91.54" fill="#ADD1B2" rx="11" ry="11" style="stroke:#181818;stroke-width:1.0;"/><path d="M42,88.04 Q42.2031,87.54 42.4375,87.29 Q42.6719,87.04 42.9375,87.04 Q43.4063,87.04 43.7031,87.3212 Q44,87.6025 44,88.2587 L44,89.8212 Q44,90.4775 43.7188,90.7587 Q43.4375,91.04 43,91.04 Q42.6094,91.04 42.3594,90.8681 Q42.1094,90.6962 42,90.2431 Q41.9531,89.9306 41.7813,89.7587 Q41.4688,89.4306 40.9063,89.2431 Q40.3438,89.04 39.7813,89.04 Q39.0781,89.04 38.4844,89.3212 Q37.9063,89.6025 37.4531,90.2275 Q37,90.8525 37,91.7119 L37,92.6337 Q37,93.665 37.8438,94.3525 Q38.6875,95.04 40.1875,95.04 Q41.0781,95.04 41.7031,94.8369 Q42.0625,94.7275 42.4688,94.3681 Q42.7344,94.165 42.875,94.1025 Q43.0156,94.04 43.1875,94.04 Q43.5156,94.04 43.75,94.3056 Q44,94.5556 44,94.915 Q44,95.2587 43.6563,95.665 Q43.1563,96.2587 42.3594,96.5869 Q41.3125,97.04 40.0313,97.04 Q38.5313,97.04 37.3281,96.4462 Q36.3594,95.9775 35.6719,94.9619 Q35,93.9462 35,92.7431 L35,91.6494 Q35,90.3994 35.5938,89.3056 Q36.2031,88.2119 37.25,87.6337 Q38.3125,87.04 39.5,87.04 Q40.2188,87.04 40.8438,87.29 Q41.4688,87.54 42,88.04 Z " fill="#000000"/><text fill="#000000" font-family="sans-serif" font-size="14" lengthAdjust="spacing" textLength="159" x="58" y="97.2685">RegisterEmployeeTypeUI</text><line style="stroke:#181818;stroke-width:0.5;" x1="8" x2="237" y1="107.54" y2="107.54"/><text fill="#000000" font-family="sans-serif" font-size="14" lengthAdjust="spacing" textLength="219" x="13" y="126.0732">SpecifyNewEmployeeController ctrl</text><line style="stroke:#181818;stroke-width:0.5;" x1="8" x2="237" y1="133.1494" y2="133.1494"/></g><!--MD5=[48ba75c4824eb2956ec44760cf823b64]
class SpecifyNewEmployeeController--><g id="elem_SpecifyNewEmployeeController"><rect codeLine="8" fill="#F1F1F1" height="118.4375" id="SpecifyNewEmployeeController" rx="2.5" ry="2.5" style="stroke:#181818;stroke-width:0.5;" width="736" x="299" y="49.54"/><ellipse cx="564.75" cy="65.54" fill="#ADD1B2" rx="11" ry="11" style="stroke:#181818;stroke-width:1.0;"/><path d="M566.75,62.04 Q566.9531,61.54 567.1875,61.29 Q567.4219,61.04 567.6875,61.04 Q568.1563,61.04 568.4531,61.3212 Q568.75,61.6025 568.75,62.2587 L568.75,63.8212 Q568.75,64.4775 568.4688,64.7587 Q568.1875,65.04 567.75,65.04 Q567.3594,65.04 567.1094,64.8681 Q566.8594,64.6962 566.75,64.2431 Q566.7031,63.9306 566.5313,63.7587 Q566.2188,63.4306 565.6563,63.2431 Q565.0938,63.04 564.5313,63.04 Q563.8281,63.04 563.2344,63.3212 Q562.6563,63.6025 562.2031,64.2275 Q561.75,64.8525 561.75,65.7119 L561.75,66.6337 Q561.75,67.665 562.5938,68.3525 Q563.4375,69.04 564.9375,69.04 Q565.8281,69.04 566.4531,68.8369 Q566.8125,68.7275 567.2188,68.3681 Q567.4844,68.165 567.625,68.1025 Q567.7656,68.04 567.9375,68.04 Q568.2656,68.04 568.5,68.3056 Q568.75,68.5556 568.75,68.915 Q568.75,69.2587 568.4063,69.665 Q567.9063,70.2587 567.1094,70.5869 Q566.0625,71.04 564.7813,71.04 Q563.2813,71.04 562.0781,70.4462 Q561.1094,69.9775 560.4219,68.9619 Q559.75,67.9462 559.75,66.7431 L559.75,65.6494 Q559.75,64.3994 560.3438,63.3056 Q560.9531,62.2119 562,61.6337 Q563.0625,61.04 564.25,61.04 Q564.9688,61.04 565.5938,61.29 Q566.2188,61.54 566.75,62.04 Z " fill="#000000"/><text fill="#000000" font-family="sans-serif" font-size="14" lengthAdjust="spacing" textLength="196" x="585.25" y="71.2685">SpecifyNewEmployeeController</text><line style="stroke:#181818;stroke-width:0.5;" x1="300" x2="1034" y1="81.54" y2="81.54"/><text fill="#000000" font-family="sans-serif" font-size="14" lengthAdjust="spacing" textLength="121" x="305" y="100.0732">Company company</text><text fill="#000000" font-family="sans-serif" font-size="14" lengthAdjust="spacing" textLength="74" x="305" y="117.6826">Employee e</text><line style="stroke:#181818;stroke-width:0.5;" x1="300" x2="1034" y1="124.7587" y2="124.7587"/><text fill="#000000" font-family="sans-serif" font-size="14" lengthAdjust="spacing" textLength="724" x="305" y="143.292">+createEmployee(askName(), askEmail(),askAddress(),askPhoneNumber(),askCitizenCard(),askEmployeeID(),role)</text><text fill="#000000" font-family="sans-serif" font-size="14" lengthAdjust="spacing" textLength="137" x="305" y="160.9013">+validateEmployee(e)</text></g><!--MD5=[7421f545a0d8420c5bec41e74b387d9c]
class Employee--><g id="elem_Employee"><rect codeLine="15" fill="#F1F1F1" height="171.2656" id="Employee" rx="2.5" ry="2.5" style="stroke:#181818;stroke-width:0.5;" width="136" x="1916" y="20.04"/><ellipse cx="1949.9" cy="36.04" fill="#ADD1B2" rx="11" ry="11" style="stroke:#181818;stroke-width:1.0;"/><path d="M1951.9,32.54 Q1952.1031,32.04 1952.3375,31.79 Q1952.5719,31.54 1952.8375,31.54 Q1953.3063,31.54 1953.6031,31.8212 Q1953.9,32.1025 1953.9,32.7587 L1953.9,34.3212 Q1953.9,34.9775 1953.6188,35.2587 Q1953.3375,35.54 1952.9,35.54 Q1952.5094,35.54 1952.2594,35.3681 Q1952.0094,35.1962 1951.9,34.7431 Q1951.8531,34.4306 1951.6813,34.2587 Q1951.3688,33.9306 1950.8063,33.7431 Q1950.2438,33.54 1949.6813,33.54 Q1948.9781,33.54 1948.3844,33.8212 Q1947.8063,34.1025 1947.3531,34.7275 Q1946.9,35.3525 1946.9,36.2119 L1946.9,37.1337 Q1946.9,38.165 1947.7438,38.8525 Q1948.5875,39.54 1950.0875,39.54 Q1950.9781,39.54 1951.6031,39.3369 Q1951.9625,39.2275 1952.3688,38.8681 Q1952.6344,38.665 1952.775,38.6025 Q1952.9156,38.54 1953.0875,38.54 Q1953.4156,38.54 1953.65,38.8056 Q1953.9,39.0556 1953.9,39.415 Q1953.9,39.7587 1953.5563,40.165 Q1953.0563,40.7587 1952.2594,41.0869 Q1951.2125,41.54 1949.9313,41.54 Q1948.4313,41.54 1947.2281,40.9462 Q1946.2594,40.4775 1945.5719,39.4619 Q1944.9,38.4462 1944.9,37.2431 L1944.9,36.1494 Q1944.9,34.8994 1945.4938,33.8056 Q1946.1031,32.7119 1947.15,32.1337 Q1948.2125,31.54 1949.4,31.54 Q1950.1188,31.54 1950.7438,31.79 Q1951.3688,32.04 1951.9,32.54 Z " fill="#000000"/><text fill="#000000" font-family="sans-serif" font-size="14" lengthAdjust="spacing" textLength="62" x="1968.1" y="41.7685">Employee</text><line style="stroke:#181818;stroke-width:0.5;" x1="1917" x2="2051" y1="52.04" y2="52.04"/><text fill="#000000" font-family="sans-serif" font-size="14" lengthAdjust="spacing" textLength="40" x="1922" y="70.5732">-name</text><text fill="#000000" font-family="sans-serif" font-size="14" lengthAdjust="spacing" textLength="38" x="1922" y="88.1826">-email</text><text fill="#000000" font-family="sans-serif" font-size="14" lengthAdjust="spacing" textLength="56" x="1922" y="105.792">-address</text><text fill="#000000" font-family="sans-serif" font-size="14" lengthAdjust="spacing" textLength="94" x="1922" y="123.4013">-phoneNumber</text><text fill="#000000" font-family="sans-serif" font-size="14" lengthAdjust="spacing" textLength="124" x="1922" y="141.0107">-citizenCardNumber</text><text fill="#000000" font-family="sans-serif" font-size="14" lengthAdjust="spacing" textLength="79" x="1922" y="158.6201">-employeeID</text><text fill="#000000" font-family="sans-serif" font-size="14" lengthAdjust="spacing" textLength="29" x="1922" y="176.2295">-role</text><line style="stroke:#181818;stroke-width:0.5;" x1="1917" x2="2051" y1="183.3056" y2="183.3056"/></g><!--MD5=[02e4b9b7573f1156f41e60aa5b4e25a4]
class Company--><g id="elem_Company"><rect codeLine="25" fill="#F1F1F1" height="83.2188" id="Company" rx="2.5" ry="2.5" style="stroke:#181818;stroke-width:0.5;" width="207" x="1096" y="67.04"/><ellipse cx="1165.25" cy="83.04" fill="#ADD1B2" rx="11" ry="11" style="stroke:#181818;stroke-width:1.0;"/><path d="M1167.25,79.54 Q1167.4531,79.04 1167.6875,78.79 Q1167.9219,78.54 1168.1875,78.54 Q1168.6563,78.54 1168.9531,78.8212 Q1169.25,79.1025 1169.25,79.7587 L1169.25,81.3212 Q1169.25,81.9775 1168.9688,82.2587 Q1168.6875,82.54 1168.25,82.54 Q1167.8594,82.54 1167.6094,82.3681 Q1167.3594,82.1962 1167.25,81.7431 Q1167.2031,81.4306 1167.0313,81.2587 Q1166.7188,80.9306 1166.1563,80.7431 Q1165.5938,80.54 1165.0313,80.54 Q1164.3281,80.54 1163.7344,80.8212 Q1163.1563,81.1025 1162.7031,81.7275 Q1162.25,82.3525 1162.25,83.2119 L1162.25,84.1337 Q1162.25,85.165 1163.0938,85.8525 Q1163.9375,86.54 1165.4375,86.54 Q1166.3281,86.54 1166.9531,86.3369 Q1167.3125,86.2275 1167.7188,85.8681 Q1167.9844,85.665 1168.125,85.6025 Q1168.2656,85.54 1168.4375,85.54 Q1168.7656,85.54 1169,85.8056 Q1169.25,86.0556 1169.25,86.415 Q1169.25,86.7587 1168.9063,87.165 Q1168.4063,87.7587 1167.6094,88.0869 Q1166.5625,88.54 1165.2813,88.54 Q1163.7813,88.54 1162.5781,87.9462 Q1161.6094,87.4775 1160.9219,86.4619 Q1160.25,85.4462 1160.25,84.2431 L1160.25,83.1494 Q1160.25,81.8994 1160.8438,80.8056 Q1161.4531,79.7119 1162.5,79.1337 Q1163.5625,78.54 1164.75,78.54 Q1165.4688,78.54 1166.0938,78.79 Q1166.7188,79.04 1167.25,79.54 Z " fill="#000000"/><text fill="#000000" font-family="sans-serif" font-size="14" lengthAdjust="spacing" textLength="60" x="1185.75" y="88.7685">Company</text><line style="stroke:#181818;stroke-width:0.5;" x1="1097" x2="1302" y1="99.04" y2="99.04"/><text fill="#000000" font-family="sans-serif" font-size="14" lengthAdjust="spacing" textLength="195" x="1102" y="117.5732">EmployeeStore employeeStore</text><line style="stroke:#181818;stroke-width:0.5;" x1="1097" x2="1302" y1="124.6494" y2="124.6494"/><text fill="#000000" font-family="sans-serif" font-size="14" lengthAdjust="spacing" textLength="112" x="1102" y="143.1826">+addEmployee(e)</text></g><!--MD5=[829fb52c07ade3ad64ef85b99d1fca10]
class EmployeeStore--><g id="elem_EmployeeStore"><rect codeLine="30" fill="#F1F1F1" height="83.2188" id="EmployeeStore" rx="2.5" ry="2.5" style="stroke:#181818;stroke-width:0.5;" width="199" x="1536.5" y="162.04"/><ellipse cx="1583.75" cy="178.04" fill="#ADD1B2" rx="11" ry="11" style="stroke:#181818;stroke-width:1.0;"/><path d="M1585.75,174.54 Q1585.9531,174.04 1586.1875,173.79 Q1586.4219,173.54 1586.6875,173.54 Q1587.1563,173.54 1587.4531,173.8213 Q1587.75,174.1025 1587.75,174.7588 L1587.75,176.3213 Q1587.75,176.9775 1587.4688,177.2588 Q1587.1875,177.54 1586.75,177.54 Q1586.3594,177.54 1586.1094,177.3681 Q1585.8594,177.1963 1585.75,176.7431 Q1585.7031,176.4306 1585.5313,176.2588 Q1585.2188,175.9306 1584.6563,175.7431 Q1584.0938,175.54 1583.5313,175.54 Q1582.8281,175.54 1582.2344,175.8213 Q1581.6563,176.1025 1581.2031,176.7275 Q1580.75,177.3525 1580.75,178.2119 L1580.75,179.1338 Q1580.75,180.165 1581.5938,180.8525 Q1582.4375,181.54 1583.9375,181.54 Q1584.8281,181.54 1585.4531,181.3369 Q1585.8125,181.2275 1586.2188,180.8681 Q1586.4844,180.665 1586.625,180.6025 Q1586.7656,180.54 1586.9375,180.54 Q1587.2656,180.54 1587.5,180.8056 Q1587.75,181.0556 1587.75,181.415 Q1587.75,181.7588 1587.4063,182.165 Q1586.9063,182.7588 1586.1094,183.0869 Q1585.0625,183.54 1583.7813,183.54 Q1582.2813,183.54 1581.0781,182.9463 Q1580.1094,182.4775 1579.4219,181.4619 Q1578.75,180.4463 1578.75,179.2431 L1578.75,178.1494 Q1578.75,176.8994 1579.3438,175.8056 Q1579.9531,174.7119 1581,174.1338 Q1582.0625,173.54 1583.25,173.54 Q1583.9688,173.54 1584.5938,173.79 Q1585.2188,174.04 1585.75,174.54 Z " fill="#000000"/><text fill="#000000" font-family="sans-serif" font-size="14" lengthAdjust="spacing" textLength="96" x="1604.25" y="183.7685">EmployeeStore</text><line style="stroke:#181818;stroke-width:0.5;" x1="1537.5" x2="1734.5" y1="194.04" y2="194.04"/><text fill="#000000" font-family="sans-serif" font-size="14" lengthAdjust="spacing" textLength="187" x="1542.5" y="212.5732">List&lt;Employee&gt; employeeList</text><line style="stroke:#181818;stroke-width:0.5;" x1="1537.5" x2="1734.5" y1="219.6494" y2="219.6494"/><text fill="#000000" font-family="sans-serif" font-size="14" lengthAdjust="spacing" textLength="112" x="1542.5" y="238.1826">+addEmployee(e)</text></g><!--MD5=[8ae808d068a8995f06b9b3ec51357f0b]
class AuthFacade--><g id="elem_AuthFacade"><rect codeLine="35" fill="#F1F1F1" height="65.6094" id="AuthFacade" rx="2.5" ry="2.5" style="stroke:#181818;stroke-width:0.5;" width="292" x="1490" y="60.54"/><ellipse cx="1593.25" cy="76.54" fill="#ADD1B2" rx="11" ry="11" style="stroke:#181818;stroke-width:1.0;"/><path d="M1595.25,73.04 Q1595.4531,72.54 1595.6875,72.29 Q1595.9219,72.04 1596.1875,72.04 Q1596.6563,72.04 1596.9531,72.3212 Q1597.25,72.6025 1597.25,73.2587 L1597.25,74.8212 Q1597.25,75.4775 1596.9688,75.7587 Q1596.6875,76.04 1596.25,76.04 Q1595.8594,76.04 1595.6094,75.8681 Q1595.3594,75.6962 1595.25,75.2431 Q1595.2031,74.9306 1595.0313,74.7587 Q1594.7188,74.4306 1594.1563,74.2431 Q1593.5938,74.04 1593.0313,74.04 Q1592.3281,74.04 1591.7344,74.3212 Q1591.1563,74.6025 1590.7031,75.2275 Q1590.25,75.8525 1590.25,76.7119 L1590.25,77.6337 Q1590.25,78.665 1591.0938,79.3525 Q1591.9375,80.04 1593.4375,80.04 Q1594.3281,80.04 1594.9531,79.8369 Q1595.3125,79.7275 1595.7188,79.3681 Q1595.9844,79.165 1596.125,79.1025 Q1596.2656,79.04 1596.4375,79.04 Q1596.7656,79.04 1597,79.3056 Q1597.25,79.5556 1597.25,79.915 Q1597.25,80.2587 1596.9063,80.665 Q1596.4063,81.2587 1595.6094,81.5869 Q1594.5625,82.04 1593.2813,82.04 Q1591.7813,82.04 1590.5781,81.4462 Q1589.6094,80.9775 1588.9219,79.9619 Q1588.25,78.9462 1588.25,77.7431 L1588.25,76.6494 Q1588.25,75.3994 1588.8438,74.3056 Q1589.4531,73.2119 1590.5,72.6337 Q1591.5625,72.04 1592.75,72.04 Q1593.4688,72.04 1594.0938,72.29 Q1594.7188,72.54 1595.25,73.04 Z " fill="#000000"/><text fill="#000000" font-family="sans-serif" font-size="14" lengthAdjust="spacing" textLength="77" x="1613.75" y="82.2685">AuthFacade</text><line style="stroke:#181818;stroke-width:0.5;" x1="1491" x2="1781" y1="92.54" y2="92.54"/><line style="stroke:#181818;stroke-width:0.5;" x1="1491" x2="1781" y1="100.54" y2="100.54"/><text fill="#000000" font-family="sans-serif" font-size="14" lengthAdjust="spacing" textLength="280" x="1496" y="119.0732">+addUserWithRole(name, email, pwd, roleId)</text></g><!--MD5=[eb0b0f857d5f3e8b79d074ada6e60e01]
link RegisterEmployeeTypeUI to SpecifyNewEmployeeController--><g id="link_RegisterEmployeeTypeUI_SpecifyNewEmployeeController"><path codeLine="39" d="M238.22,108.54 C255.49,108.54 274.04,108.54 293.4,108.54 " fill="none" id="RegisterEmployeeTypeUI-to-SpecifyNewEmployeeController" style="stroke:#181818;stroke-width:1.0;stroke-dasharray:7.0,7.0;"/><polygon fill="#181818" points="298.88,108.54,289.88,104.54,293.88,108.54,289.88,112.54,298.88,108.54" style="stroke:#181818;stroke-width:1.0;"/></g><!--MD5=[ce859576cba61219b3cb4d2d23fdcd81]
link Company to EmployeeStore--><g id="link_Company_EmployeeStore"><path codeLine="40" d="M1303.2,130.99 C1373.7,146.41 1466.76,166.76 1536.38,181.98 " fill="none" id="Company-EmployeeStore" style="stroke:#181818;stroke-width:1.0;"/><polygon fill="#000000" points="1382.8846,130.7839,1374.6761,125.9806,1373.4205,131.7227,1382.8846,130.7839" style="stroke:#000000;stroke-width:1.0;"/><text fill="#000000" font-family="sans-serif" font-size="13" lengthAdjust="spacing" textLength="32" x="1387" y="135.0351">has a</text><text fill="#000000" font-family="sans-serif" font-size="13" lengthAdjust="spacing" textLength="7" x="1311.0725" y="146.7262">1</text><text fill="#000000" font-family="sans-serif" font-size="13" lengthAdjust="spacing" textLength="5" x="1523.5614" y="194.442">*</text></g><!--MD5=[2f3bac1bdf76f0b867b8cadb6fadb6bc]
link EmployeeStore to Employee--><g id="link_EmployeeStore_Employee"><path codeLine="41" d="M1735.69,175.59 C1793.41,159.24 1864.77,139.03 1915.97,124.52 " fill="none" id="EmployeeStore-Employee" style="stroke:#181818;stroke-width:1.0;"/><polygon fill="#000000" points="1821.8107,123.353,1812.307,122.9906,1813.9091,128.646,1821.8107,123.353" style="stroke:#000000;stroke-width:1.0;"/><text fill="#000000" font-family="sans-serif" font-size="13" lengthAdjust="spacing" textLength="59" x="1826" y="130.0351">keeps info</text><text fill="#000000" font-family="sans-serif" font-size="13" lengthAdjust="spacing" textLength="7" x="1743.5905" y="187.5628">1</text><text fill="#000000" font-family="sans-serif" font-size="13" lengthAdjust="spacing" textLength="5" x="1902.815" y="141.1396">*</text></g><!--MD5=[f7b8f66441771accfca54426cc31d01d]
link SpecifyNewEmployeeController to Company--><g id="link_SpecifyNewEmployeeController_Company"><path codeLine="42" d="M1035,108.54 C1054.54,108.54 1073.2,108.54 1090.48,108.54 " fill="none" id="SpecifyNewEmployeeController-to-Company" style="stroke:#181818;stroke-width:1.0;stroke-dasharray:7.0,7.0;"/><polygon fill="#181818" points="1095.79,108.54,1086.79,104.54,1090.79,108.54,1086.79,112.54,1095.79,108.54" style="stroke:#181818;stroke-width:1.0;"/></g><!--MD5=[8828f78dec089ebd4bfe0564b82f84d4]
link SpecifyNewEmployeeController to EmployeeStore--><g id="link_SpecifyNewEmployeeController_EmployeeStore"><path codeLine="43" d="M1035.22,160.87 C1055.77,163.26 1076.13,165.51 1096,167.54 C1247.08,182.98 1422.69,193.29 1531.35,198.78 " fill="none" id="SpecifyNewEmployeeController-to-EmployeeStore" style="stroke:#181818;stroke-width:1.0;stroke-dasharray:7.0,7.0;"/><polygon fill="#181818" points="1536.47,199.04,1527.6747,194.6081,1531.4759,198.7974,1527.2865,202.5987,1536.47,199.04" style="stroke:#181818;stroke-width:1.0;"/></g><!--MD5=[5aa714540d32497d9605f5feda4d44c8]
link SpecifyNewEmployeeController to Employee--><g id="link_SpecifyNewEmployeeController_Employee"><path codeLine="44" d="M1030.96,49.52 C1249.58,23.35 1532.96,6 1782,43.54 C1825.72,50.13 1873.04,64.35 1910.78,77.51 " fill="none" id="SpecifyNewEmployeeController-to-Employee" style="stroke:#181818;stroke-width:1.0;stroke-dasharray:7.0,7.0;"/><polygon fill="#181818" points="1915.8,79.28,1908.6358,72.5217,1911.0829,77.6219,1905.9828,80.069,1915.8,79.28" style="stroke:#181818;stroke-width:1.0;"/></g><!--MD5=[717d4b03d3c4372f4eafe5e342a0a7dd]
link Company to AuthFacade--><g id="link_Company_AuthFacade"><path codeLine="45" d="M1303.2,104.99 C1358.9,103.07 1428.68,100.66 1489.85,98.55 " fill="none" id="Company-AuthFacade" style="stroke:#181818;stroke-width:1.0;"/><polygon fill="#000000" points="1342.997,90.5434,1333.856,87.9181,1334.0587,93.7924,1342.997,90.5434" style="stroke:#000000;stroke-width:1.0;"/><text fill="#000000" font-family="sans-serif" font-size="13" lengthAdjust="spacing" textLength="112" x="1347" y="96.0351">registers Employee</text></g><!--MD5=[155ece1fa6fc3ac79f6b1e2cfb05e779]
@startuml
skinparam classAttributeIconSize 0
left to right direction

class RegisterEmployeeTypeUI{
SpecifyNewEmployeeController ctrl
}

class SpecifyNewEmployeeController{
Company company
Employee e
+createEmployee(askName(), askEmail(),askAddress(),askPhoneNumber(),askCitizenCard(),askEmployeeID(),role)
+validateEmployee(e)
}

class Employee{
 - name
 - email
 - address
 - phoneNumber
 - citizenCardNumber
 - employeeID
 - role
}

class Company{
EmployeeStore employeeStore
+addEmployee(e)
}

class EmployeeStore{
List<Employee> employeeList
+addEmployee(e)
}

class AuthFacade{
+addUserWithRole(name, email, pwd, roleId)
}

RegisterEmployeeTypeUI ..> SpecifyNewEmployeeController
Company "1"- -"*" EmployeeStore : has a >
EmployeeStore "1"- -"*"Employee : keeps info >
SpecifyNewEmployeeController ..> Company
SpecifyNewEmployeeController ..> EmployeeStore
SpecifyNewEmployeeController ..> Employee
Company - - AuthFacade : registers Employee >



@enduml

PlantUML version 1.2022.4(Sat Apr 09 14:29:17 BST 2022)
(GPL source distribution)
Java Runtime: OpenJDK Runtime Environment
JVM: OpenJDK 64-Bit Server VM
Default Encoding: Cp1252
Language: pt
Country: PT
--></g></svg>