<?xml version="1.0" encoding="UTF-8" standalone="no"?><svg xmlns="http://www.w3.org/2000/svg" xmlns:xlink="http://www.w3.org/1999/xlink" contentScriptType="application/ecmascript" contentStyleType="text/css" height="460px" preserveAspectRatio="none" style="width:385px;height:460px;background:#FFFFFF;" version="1.1" viewBox="0 0 385 460" width="385px" zoomAndPan="magnify"><defs><filter height="300%" id="f1ebduxff71eqp" width="300%" x="-1" y="-1"><feGaussianBlur result="blurOut" stdDeviation="2.0"/><feColorMatrix in="blurOut" result="blurOut2" type="matrix" values="0 0 0 0 0 0 0 0 0 0 0 0 0 0 0 0 0 0 .4 0"/><feOffset dx="4.0" dy="4.0" in="blurOut2" result="blurOut3"/><feBlend in="SourceGraphic" in2="blurOut3" mode="normal"/></filter></defs><g><!--MD5=[da547346deef918ea16944ba046651ef]
class Administrator--><rect codeLine="5" fill="#FEFECE" filter="url(#f1ebduxff71eqp)" height="40" id="Administrator" style="stroke:#A80036;stroke-width:1.5;" width="105" x="7" y="206.5"/><ellipse cx="22" cy="222.5" fill="#ADD1B2" rx="11" ry="11" style="stroke:#A80036;stroke-width:1.0;"/><path d="M24,219 Q24.2031,218.5 24.4375,218.25 Q24.6719,218 24.9375,218 Q25.4063,218 25.7031,218.2813 Q26,218.5625 26,219.2188 L26,220.7813 Q26,221.4375 25.7188,221.7188 Q25.4375,222 25,222 Q24.6094,222 24.3594,221.8281 Q24.1094,221.6563 24,221.2031 Q23.9531,220.8906 23.7813,220.7188 Q23.4688,220.3906 22.9063,220.2031 Q22.3438,220 21.7813,220 Q21.0781,220 20.4844,220.2813 Q19.9063,220.5625 19.4531,221.1875 Q19,221.8125 19,222.6719 L19,223.5938 Q19,224.625 19.8438,225.3125 Q20.6875,226 22.1875,226 Q23.0781,226 23.7031,225.7969 Q24.0625,225.6875 24.4688,225.3281 Q24.7344,225.125 24.875,225.0625 Q25.0156,225 25.1875,225 Q25.5156,225 25.75,225.2656 Q26,225.5156 26,225.875 Q26,226.2188 25.6563,226.625 Q25.1563,227.2188 24.3594,227.5469 Q23.3125,228 22.0313,228 Q20.5313,228 19.3281,227.4063 Q18.3594,226.9375 17.6719,225.9219 Q17,224.9063 17,223.7031 L17,222.6094 Q17,221.3594 17.5938,220.2656 Q18.2031,219.1719 19.25,218.5938 Q20.3125,218 21.5,218 Q22.2188,218 22.8438,218.25 Q23.4688,218.5 24,219 Z " fill="#000000"/><text fill="#000000" font-family="sans-serif" font-size="12" lengthAdjust="spacing" textLength="73" x="36" y="227.4102">Administrator</text><line style="stroke:#A80036;stroke-width:1.5;" x1="8" x2="111" y1="238.5" y2="238.5"/><!--MD5=[03960189e81aa2c066c762ffabbee709]
class Receptionist--><rect codeLine="8" fill="#FEFECE" filter="url(#f1ebduxff71eqp)" height="123.0156" id="Receptionist" style="stroke:#A80036;stroke-width:1.5;" width="107" x="250.5" y="7"/><ellipse cx="268.2" cy="23" fill="#ADD1B2" rx="11" ry="11" style="stroke:#A80036;stroke-width:1.0;"/><path d="M270.2,19.5 Q270.4031,19 270.6375,18.75 Q270.8719,18.5 271.1375,18.5 Q271.6063,18.5 271.9031,18.7813 Q272.2,19.0625 272.2,19.7188 L272.2,21.2813 Q272.2,21.9375 271.9188,22.2188 Q271.6375,22.5 271.2,22.5 Q270.8094,22.5 270.5594,22.3281 Q270.3094,22.1563 270.2,21.7031 Q270.1531,21.3906 269.9813,21.2188 Q269.6688,20.8906 269.1063,20.7031 Q268.5438,20.5 267.9813,20.5 Q267.2781,20.5 266.6844,20.7813 Q266.1063,21.0625 265.6531,21.6875 Q265.2,22.3125 265.2,23.1719 L265.2,24.0938 Q265.2,25.125 266.0438,25.8125 Q266.8875,26.5 268.3875,26.5 Q269.2781,26.5 269.9031,26.2969 Q270.2625,26.1875 270.6688,25.8281 Q270.9344,25.625 271.075,25.5625 Q271.2156,25.5 271.3875,25.5 Q271.7156,25.5 271.95,25.7656 Q272.2,26.0156 272.2,26.375 Q272.2,26.7188 271.8563,27.125 Q271.3563,27.7188 270.5594,28.0469 Q269.5125,28.5 268.2313,28.5 Q266.7313,28.5 265.5281,27.9063 Q264.5594,27.4375 263.8719,26.4219 Q263.2,25.4063 263.2,24.2031 L263.2,23.1094 Q263.2,21.8594 263.7938,20.7656 Q264.4031,19.6719 265.45,19.0938 Q266.5125,18.5 267.7,18.5 Q268.4188,18.5 269.0438,18.75 Q269.6688,19 270.2,19.5 Z " fill="#000000"/><text fill="#000000" font-family="sans-serif" font-size="12" lengthAdjust="spacing" textLength="69" x="282.8" y="27.9102">Receptionist</text><line style="stroke:#A80036;stroke-width:1.5;" x1="251.5" x2="356.5" y1="39" y2="39"/><text fill="#000000" font-family="sans-serif" font-size="11" lengthAdjust="spacing" textLength="13" x="256.5" y="54.4189">-ID</text><text fill="#000000" font-family="sans-serif" font-size="11" lengthAdjust="spacing" textLength="30" x="256.5" y="68.2549">-name</text><text fill="#000000" font-family="sans-serif" font-size="11" lengthAdjust="spacing" textLength="95" x="256.5" y="82.0908">-citizenCardNumber</text><text fill="#000000" font-family="sans-serif" font-size="11" lengthAdjust="spacing" textLength="71" x="256.5" y="95.9268">-phoneNumber</text><text fill="#000000" font-family="sans-serif" font-size="11" lengthAdjust="spacing" textLength="40" x="256.5" y="109.7627">-Adress</text><text fill="#000000" font-family="sans-serif" font-size="11" lengthAdjust="spacing" textLength="32" x="256.5" y="123.5986">-E-mail</text><!--MD5=[a059576e163b46f56762f12600c49258]
class Nurse--><rect codeLine="16" fill="#FEFECE" filter="url(#f1ebduxff71eqp)" height="123.0156" id="Nurse" style="stroke:#A80036;stroke-width:1.5;" width="107" x="250.5" y="165"/><ellipse cx="283.95" cy="181" fill="#ADD1B2" rx="11" ry="11" style="stroke:#A80036;stroke-width:1.0;"/><path d="M285.95,177.5 Q286.1531,177 286.3875,176.75 Q286.6219,176.5 286.8875,176.5 Q287.3563,176.5 287.6531,176.7813 Q287.95,177.0625 287.95,177.7188 L287.95,179.2813 Q287.95,179.9375 287.6688,180.2188 Q287.3875,180.5 286.95,180.5 Q286.5594,180.5 286.3094,180.3281 Q286.0594,180.1563 285.95,179.7031 Q285.9031,179.3906 285.7313,179.2188 Q285.4188,178.8906 284.8563,178.7031 Q284.2938,178.5 283.7313,178.5 Q283.0281,178.5 282.4344,178.7813 Q281.8563,179.0625 281.4031,179.6875 Q280.95,180.3125 280.95,181.1719 L280.95,182.0938 Q280.95,183.125 281.7938,183.8125 Q282.6375,184.5 284.1375,184.5 Q285.0281,184.5 285.6531,184.2969 Q286.0125,184.1875 286.4188,183.8281 Q286.6844,183.625 286.825,183.5625 Q286.9656,183.5 287.1375,183.5 Q287.4656,183.5 287.7,183.7656 Q287.95,184.0156 287.95,184.375 Q287.95,184.7188 287.6063,185.125 Q287.1063,185.7188 286.3094,186.0469 Q285.2625,186.5 283.9813,186.5 Q282.4813,186.5 281.2781,185.9063 Q280.3094,185.4375 279.6219,184.4219 Q278.95,183.4063 278.95,182.2031 L278.95,181.1094 Q278.95,179.8594 279.5438,178.7656 Q280.1531,177.6719 281.2,177.0938 Q282.2625,176.5 283.45,176.5 Q284.1688,176.5 284.7938,176.75 Q285.4188,177 285.95,177.5 Z " fill="#000000"/><text fill="#000000" font-family="sans-serif" font-size="12" lengthAdjust="spacing" textLength="34" x="302.05" y="185.9102">Nurse</text><line style="stroke:#A80036;stroke-width:1.5;" x1="251.5" x2="356.5" y1="197" y2="197"/><text fill="#000000" font-family="sans-serif" font-size="11" lengthAdjust="spacing" textLength="13" x="256.5" y="212.4189">-ID</text><text fill="#000000" font-family="sans-serif" font-size="11" lengthAdjust="spacing" textLength="30" x="256.5" y="226.2549">-name</text><text fill="#000000" font-family="sans-serif" font-size="11" lengthAdjust="spacing" textLength="95" x="256.5" y="240.0908">-citizenCardNumber</text><text fill="#000000" font-family="sans-serif" font-size="11" lengthAdjust="spacing" textLength="71" x="256.5" y="253.9268">-phoneNumber</text><text fill="#000000" font-family="sans-serif" font-size="11" lengthAdjust="spacing" textLength="40" x="256.5" y="267.7627">-Adress</text><text fill="#000000" font-family="sans-serif" font-size="11" lengthAdjust="spacing" textLength="32" x="256.5" y="281.5986">-E-mail</text><!--MD5=[2d935fd2dd068a13da1ae531f9857c4f]
class CenterCoordinator--><rect codeLine="24" fill="#FEFECE" filter="url(#f1ebduxff71eqp)" height="123.0156" id="CenterCoordinator" style="stroke:#A80036;stroke-width:1.5;" width="134" x="237" y="323"/><ellipse cx="252" cy="339" fill="#ADD1B2" rx="11" ry="11" style="stroke:#A80036;stroke-width:1.0;"/><path d="M254,335.5 Q254.2031,335 254.4375,334.75 Q254.6719,334.5 254.9375,334.5 Q255.4063,334.5 255.7031,334.7813 Q256,335.0625 256,335.7188 L256,337.2813 Q256,337.9375 255.7188,338.2188 Q255.4375,338.5 255,338.5 Q254.6094,338.5 254.3594,338.3281 Q254.1094,338.1563 254,337.7031 Q253.9531,337.3906 253.7813,337.2188 Q253.4688,336.8906 252.9063,336.7031 Q252.3438,336.5 251.7813,336.5 Q251.0781,336.5 250.4844,336.7813 Q249.9063,337.0625 249.4531,337.6875 Q249,338.3125 249,339.1719 L249,340.0938 Q249,341.125 249.8438,341.8125 Q250.6875,342.5 252.1875,342.5 Q253.0781,342.5 253.7031,342.2969 Q254.0625,342.1875 254.4688,341.8281 Q254.7344,341.625 254.875,341.5625 Q255.0156,341.5 255.1875,341.5 Q255.5156,341.5 255.75,341.7656 Q256,342.0156 256,342.375 Q256,342.7188 255.6563,343.125 Q255.1563,343.7188 254.3594,344.0469 Q253.3125,344.5 252.0313,344.5 Q250.5313,344.5 249.3281,343.9063 Q248.3594,343.4375 247.6719,342.4219 Q247,341.4063 247,340.2031 L247,339.1094 Q247,337.8594 247.5938,336.7656 Q248.2031,335.6719 249.25,335.0938 Q250.3125,334.5 251.5,334.5 Q252.2188,334.5 252.8438,334.75 Q253.4688,335 254,335.5 Z " fill="#000000"/><text fill="#000000" font-family="sans-serif" font-size="12" lengthAdjust="spacing" textLength="102" x="266" y="343.9102">CenterCoordinator</text><line style="stroke:#A80036;stroke-width:1.5;" x1="238" x2="370" y1="355" y2="355"/><text fill="#000000" font-family="sans-serif" font-size="11" lengthAdjust="spacing" textLength="13" x="243" y="370.4189">-ID</text><text fill="#000000" font-family="sans-serif" font-size="11" lengthAdjust="spacing" textLength="30" x="243" y="384.2549">-name</text><text fill="#000000" font-family="sans-serif" font-size="11" lengthAdjust="spacing" textLength="95" x="243" y="398.0908">-citizenCardNumber</text><text fill="#000000" font-family="sans-serif" font-size="11" lengthAdjust="spacing" textLength="71" x="243" y="411.9268">-phoneNumber</text><text fill="#000000" font-family="sans-serif" font-size="11" lengthAdjust="spacing" textLength="40" x="243" y="425.7627">-Adress</text><text fill="#000000" font-family="sans-serif" font-size="11" lengthAdjust="spacing" textLength="32" x="243" y="439.5986">-E-mail</text><!--MD5=[64c52275ea9d22bde431e3436d41be0c]
link Administrator to Receptionist--><path codeLine="35" d="M91.21,206.49 C131.23,180.42 201.82,134.42 250.43,102.75 " fill="none" id="Administrator-Receptionist" style="stroke:#A80036;stroke-width:1.0;"/><polygon fill="#000000" points="151.1892,121.9463,142.0065,124.4216,145.2152,129.3464,151.1892,121.9463" style="stroke:#000000;stroke-width:1.0;"/><text fill="#000000" font-family="sans-serif" font-size="13" lengthAdjust="spacing" textLength="50" x="156" y="129.9951">registers</text><text fill="#000000" font-family="sans-serif" font-size="13" lengthAdjust="spacing" textLength="7" x="92.4967" y="195.8088">1</text><text fill="#000000" font-family="sans-serif" font-size="13" lengthAdjust="spacing" textLength="5" x="237.5452" y="122.2101">*</text><!--MD5=[e2ddcc32583ff1a2f6fdd8d9fe473f71]
link Administrator to Nurse--><path codeLine="36" d="M112.22,226.5 C152.84,226.5 209.18,226.5 250.1,226.5 " fill="none" id="Administrator-Nurse" style="stroke:#A80036;stroke-width:1.0;"/><polygon fill="#000000" points="152,217.6758,142.9549,214.7369,142.9549,220.6147,152,217.6758" style="stroke:#000000;stroke-width:1.0;"/><text fill="#000000" font-family="sans-serif" font-size="13" lengthAdjust="spacing" textLength="50" x="156" y="222.9951">registers</text><text fill="#000000" font-family="sans-serif" font-size="13" lengthAdjust="spacing" textLength="7" x="120.1259" y="241.1448">1</text><text fill="#000000" font-family="sans-serif" font-size="13" lengthAdjust="spacing" textLength="5" x="237.5212" y="241.0927">*</text><!--MD5=[e7c2f1214fae8a9df196b8270f12b77f]
link Administrator to CenterCoordinator--><path codeLine="37" d="M91.21,246.51 C127.66,270.26 189.47,310.53 236.94,341.46 " fill="none" id="Administrator-CenterCoordinator" style="stroke:#A80036;stroke-width:1.0;"/><polygon fill="#000000" points="151.1893,276.4053,145.2152,269.0052,142.0065,273.93,151.1893,276.4053" style="stroke:#000000;stroke-width:1.0;"/><text fill="#000000" font-family="sans-serif" font-size="13" lengthAdjust="spacing" textLength="50" x="156" y="278.9951">registers</text><text fill="#000000" font-family="sans-serif" font-size="13" lengthAdjust="spacing" textLength="7" x="92.1441" y="267.9324">1</text><text fill="#000000" font-family="sans-serif" font-size="13" lengthAdjust="spacing" textLength="5" x="223.8971" y="350.923">*</text><!--MD5=[07b12c446837dfc1007dcf3b87f0be1b]
@startuml
hide methods
left to right direction
skinparam classAttributeIconSize 0

class Administrator{
}

class Receptionist{
-ID
-name
-citizenCardNumber
-phoneNumber
-Adress
-E-mail
}
class Nurse{
-ID
-name
-citizenCardNumber
-phoneNumber
-Adress
-E-mail
}
class CenterCoordinator{
-ID
-name
-citizenCardNumber
-phoneNumber
-Adress
-E-mail
}



Administrator "1"- -"*" Receptionist : registers >
Administrator "1"- -"*" Nurse : registers >
Administrator "1"- -"*" CenterCoordinator : registers >

@enduml

PlantUML version 1.2022.1(Tue Feb 01 18:19:58 GMT 2022)
(GPL source distribution)
Java Runtime: OpenJDK Runtime Environment
JVM: OpenJDK 64-Bit Server VM
Default Encoding: Cp1252
Language: pt
Country: PT
--></g></svg>