<?xml version="1.0" encoding="UTF-8" standalone="no"?><svg xmlns="http://www.w3.org/2000/svg" xmlns:xlink="http://www.w3.org/1999/xlink" contentStyleType="text/css" height="188px" preserveAspectRatio="none" style="width:1384px;height:188px;background:#FFFFFF;" version="1.1" viewBox="0 0 1384 188" width="1384px" zoomAndPan="magnify"><defs/><g><!--MD5=[a11a6a69c864ffe7dba2aa18a4a172e6]
class RegisterEmployeeTypeUI--><g id="elem_RegisterEmployeeTypeUI"><rect codeLine="4" fill="#F1F1F1" height="65.6094" id="RegisterEmployeeTypeUI" rx="2.5" ry="2.5" style="stroke:#181818;stroke-width:0.5;" width="231" x="7" y="71.5"/><ellipse cx="40" cy="87.5" fill="#ADD1B2" rx="11" ry="11" style="stroke:#181818;stroke-width:1.0;"/><path d="M42,84 Q42.2031,83.5 42.4375,83.25 Q42.6719,83 42.9375,83 Q43.4063,83 43.7031,83.2813 Q44,83.5625 44,84.2188 L44,85.7813 Q44,86.4375 43.7188,86.7188 Q43.4375,87 43,87 Q42.6094,87 42.3594,86.8281 Q42.1094,86.6563 42,86.2031 Q41.9531,85.8906 41.7813,85.7188 Q41.4688,85.3906 40.9063,85.2031 Q40.3438,85 39.7813,85 Q39.0781,85 38.4844,85.2813 Q37.9063,85.5625 37.4531,86.1875 Q37,86.8125 37,87.6719 L37,88.5938 Q37,89.625 37.8438,90.3125 Q38.6875,91 40.1875,91 Q41.0781,91 41.7031,90.7969 Q42.0625,90.6875 42.4688,90.3281 Q42.7344,90.125 42.875,90.0625 Q43.0156,90 43.1875,90 Q43.5156,90 43.75,90.2656 Q44,90.5156 44,90.875 Q44,91.2188 43.6563,91.625 Q43.1563,92.2188 42.3594,92.5469 Q41.3125,93 40.0313,93 Q38.5313,93 37.3281,92.4063 Q36.3594,91.9375 35.6719,90.9219 Q35,89.9063 35,88.7031 L35,87.6094 Q35,86.3594 35.5938,85.2656 Q36.2031,84.1719 37.25,83.5938 Q38.3125,83 39.5,83 Q40.2188,83 40.8438,83.25 Q41.4688,83.5 42,84 Z " fill="#000000"/><text fill="#000000" font-family="sans-serif" font-size="14" lengthAdjust="spacing" textLength="159" x="58" y="93.2285">RegisterEmployeeTypeUI</text><line style="stroke:#181818;stroke-width:0.5;" x1="8" x2="237" y1="103.5" y2="103.5"/><text fill="#000000" font-family="sans-serif" font-size="14" lengthAdjust="spacing" textLength="219" x="13" y="122.0332">SpecifyNewEmployeeController ctrl</text><line style="stroke:#181818;stroke-width:0.5;" x1="8" x2="237" y1="129.1094" y2="129.1094"/></g><!--MD5=[48ba75c4824eb2956ec44760cf823b64]
class SpecifyNewEmployeeController--><g id="elem_SpecifyNewEmployeeController"><rect codeLine="8" fill="#F1F1F1" height="118.4375" id="SpecifyNewEmployeeController" rx="2.5" ry="2.5" style="stroke:#181818;stroke-width:0.5;" width="308" x="299" y="45.5"/><ellipse cx="350.75" cy="61.5" fill="#ADD1B2" rx="11" ry="11" style="stroke:#181818;stroke-width:1.0;"/><path d="M352.75,58 Q352.9531,57.5 353.1875,57.25 Q353.4219,57 353.6875,57 Q354.1563,57 354.4531,57.2813 Q354.75,57.5625 354.75,58.2188 L354.75,59.7813 Q354.75,60.4375 354.4688,60.7188 Q354.1875,61 353.75,61 Q353.3594,61 353.1094,60.8281 Q352.8594,60.6563 352.75,60.2031 Q352.7031,59.8906 352.5313,59.7188 Q352.2188,59.3906 351.6563,59.2031 Q351.0938,59 350.5313,59 Q349.8281,59 349.2344,59.2813 Q348.6563,59.5625 348.2031,60.1875 Q347.75,60.8125 347.75,61.6719 L347.75,62.5938 Q347.75,63.625 348.5938,64.3125 Q349.4375,65 350.9375,65 Q351.8281,65 352.4531,64.7969 Q352.8125,64.6875 353.2188,64.3281 Q353.4844,64.125 353.625,64.0625 Q353.7656,64 353.9375,64 Q354.2656,64 354.5,64.2656 Q354.75,64.5156 354.75,64.875 Q354.75,65.2188 354.4063,65.625 Q353.9063,66.2188 353.1094,66.5469 Q352.0625,67 350.7813,67 Q349.2813,67 348.0781,66.4063 Q347.1094,65.9375 346.4219,64.9219 Q345.75,63.9063 345.75,62.7031 L345.75,61.6094 Q345.75,60.3594 346.3438,59.2656 Q346.9531,58.1719 348,57.5938 Q349.0625,57 350.25,57 Q350.9688,57 351.5938,57.25 Q352.2188,57.5 352.75,58 Z " fill="#000000"/><text fill="#000000" font-family="sans-serif" font-size="14" lengthAdjust="spacing" textLength="196" x="371.25" y="67.2285">SpecifyNewEmployeeController</text><line style="stroke:#181818;stroke-width:0.5;" x1="300" x2="606" y1="77.5" y2="77.5"/><text fill="#000000" font-family="sans-serif" font-size="14" lengthAdjust="spacing" textLength="121" x="305" y="96.0332">Company company</text><text fill="#000000" font-family="sans-serif" font-size="14" lengthAdjust="spacing" textLength="97" x="305" y="113.6426">VaccineType vt</text><line style="stroke:#181818;stroke-width:0.5;" x1="300" x2="606" y1="120.7188" y2="120.7188"/><text fill="#000000" font-family="sans-serif" font-size="14" lengthAdjust="spacing" textLength="296" x="305" y="139.252">+createVaccineType(code, designation, whoId)</text><text fill="#000000" font-family="sans-serif" font-size="14" lengthAdjust="spacing" textLength="160" x="305" y="156.8613">+validateVaccineType(vt)</text></g><!--MD5=[7421f545a0d8420c5bec41e74b387d9c]
class Employee--><g id="elem_Employee"><rect codeLine="15" fill="#F1F1F1" height="100.8281" id="Employee" rx="2.5" ry="2.5" style="stroke:#181818;stroke-width:0.5;" width="94" x="1283" y="7"/><ellipse cx="1298" cy="23" fill="#ADD1B2" rx="11" ry="11" style="stroke:#181818;stroke-width:1.0;"/><path d="M1300,19.5 Q1300.2031,19 1300.4375,18.75 Q1300.6719,18.5 1300.9375,18.5 Q1301.4063,18.5 1301.7031,18.7813 Q1302,19.0625 1302,19.7188 L1302,21.2813 Q1302,21.9375 1301.7188,22.2188 Q1301.4375,22.5 1301,22.5 Q1300.6094,22.5 1300.3594,22.3281 Q1300.1094,22.1563 1300,21.7031 Q1299.9531,21.3906 1299.7813,21.2188 Q1299.4688,20.8906 1298.9063,20.7031 Q1298.3438,20.5 1297.7813,20.5 Q1297.0781,20.5 1296.4844,20.7813 Q1295.9063,21.0625 1295.4531,21.6875 Q1295,22.3125 1295,23.1719 L1295,24.0938 Q1295,25.125 1295.8438,25.8125 Q1296.6875,26.5 1298.1875,26.5 Q1299.0781,26.5 1299.7031,26.2969 Q1300.0625,26.1875 1300.4688,25.8281 Q1300.7344,25.625 1300.875,25.5625 Q1301.0156,25.5 1301.1875,25.5 Q1301.5156,25.5 1301.75,25.7656 Q1302,26.0156 1302,26.375 Q1302,26.7188 1301.6563,27.125 Q1301.1563,27.7188 1300.3594,28.0469 Q1299.3125,28.5 1298.0313,28.5 Q1296.5313,28.5 1295.3281,27.9063 Q1294.3594,27.4375 1293.6719,26.4219 Q1293,25.4063 1293,24.2031 L1293,23.1094 Q1293,21.8594 1293.5938,20.7656 Q1294.2031,19.6719 1295.25,19.0938 Q1296.3125,18.5 1297.5,18.5 Q1298.2188,18.5 1298.8438,18.75 Q1299.4688,19 1300,19.5 Z " fill="#000000"/><text fill="#000000" font-family="sans-serif" font-size="14" lengthAdjust="spacing" textLength="62" x="1312" y="28.7285">Employee</text><line style="stroke:#181818;stroke-width:0.5;" x1="1284" x2="1376" y1="39" y2="39"/><text fill="#000000" font-family="sans-serif" font-size="14" lengthAdjust="spacing" textLength="36" x="1289" y="57.5332">-code</text><text fill="#000000" font-family="sans-serif" font-size="14" lengthAdjust="spacing" textLength="78" x="1289" y="75.1426">-designation</text><text fill="#000000" font-family="sans-serif" font-size="14" lengthAdjust="spacing" textLength="41" x="1289" y="92.752">-whoId</text><line style="stroke:#181818;stroke-width:0.5;" x1="1284" x2="1376" y1="99.8281" y2="99.8281"/></g><!--MD5=[02e4b9b7573f1156f41e60aa5b4e25a4]
class Company--><g id="elem_Company"><rect codeLine="21" fill="#F1F1F1" height="83.2188" id="Company" rx="2.5" ry="2.5" style="stroke:#181818;stroke-width:0.5;" width="246" x="668" y="63"/><ellipse cx="756.75" cy="79" fill="#ADD1B2" rx="11" ry="11" style="stroke:#181818;stroke-width:1.0;"/><path d="M758.75,75.5 Q758.9531,75 759.1875,74.75 Q759.4219,74.5 759.6875,74.5 Q760.1563,74.5 760.4531,74.7813 Q760.75,75.0625 760.75,75.7188 L760.75,77.2813 Q760.75,77.9375 760.4688,78.2188 Q760.1875,78.5 759.75,78.5 Q759.3594,78.5 759.1094,78.3281 Q758.8594,78.1563 758.75,77.7031 Q758.7031,77.3906 758.5313,77.2188 Q758.2188,76.8906 757.6563,76.7031 Q757.0938,76.5 756.5313,76.5 Q755.8281,76.5 755.2344,76.7813 Q754.6563,77.0625 754.2031,77.6875 Q753.75,78.3125 753.75,79.1719 L753.75,80.0938 Q753.75,81.125 754.5938,81.8125 Q755.4375,82.5 756.9375,82.5 Q757.8281,82.5 758.4531,82.2969 Q758.8125,82.1875 759.2188,81.8281 Q759.4844,81.625 759.625,81.5625 Q759.7656,81.5 759.9375,81.5 Q760.2656,81.5 760.5,81.7656 Q760.75,82.0156 760.75,82.375 Q760.75,82.7188 760.4063,83.125 Q759.9063,83.7188 759.1094,84.0469 Q758.0625,84.5 756.7813,84.5 Q755.2813,84.5 754.0781,83.9063 Q753.1094,83.4375 752.4219,82.4219 Q751.75,81.4063 751.75,80.2031 L751.75,79.1094 Q751.75,77.8594 752.3438,76.7656 Q752.9531,75.6719 754,75.0938 Q755.0625,74.5 756.25,74.5 Q756.9688,74.5 757.5938,74.75 Q758.2188,75 758.75,75.5 Z " fill="#000000"/><text fill="#000000" font-family="sans-serif" font-size="14" lengthAdjust="spacing" textLength="60" x="777.25" y="84.7285">Company</text><line style="stroke:#181818;stroke-width:0.5;" x1="669" x2="913" y1="95" y2="95"/><text fill="#000000" font-family="sans-serif" font-size="14" lengthAdjust="spacing" textLength="234" x="674" y="113.5332">VaccineTypeStore vaccineTypeStore</text><line style="stroke:#181818;stroke-width:0.5;" x1="669" x2="913" y1="120.6094" y2="120.6094"/><text fill="#000000" font-family="sans-serif" font-size="14" lengthAdjust="spacing" textLength="135" x="674" y="139.1426">+addVaccineType(vt)</text></g><!--MD5=[829fb52c07ade3ad64ef85b99d1fca10]
class EmployeeStore--><g id="elem_EmployeeStore"><rect codeLine="26" fill="#F1F1F1" height="48" id="EmployeeStore" rx="2.5" ry="2.5" style="stroke:#181818;stroke-width:0.5;" width="128" x="1021" y="80.5"/><ellipse cx="1036" cy="96.5" fill="#ADD1B2" rx="11" ry="11" style="stroke:#181818;stroke-width:1.0;"/><path d="M1038,93 Q1038.2031,92.5 1038.4375,92.25 Q1038.6719,92 1038.9375,92 Q1039.4063,92 1039.7031,92.2813 Q1040,92.5625 1040,93.2188 L1040,94.7813 Q1040,95.4375 1039.7188,95.7188 Q1039.4375,96 1039,96 Q1038.6094,96 1038.3594,95.8281 Q1038.1094,95.6563 1038,95.2031 Q1037.9531,94.8906 1037.7813,94.7188 Q1037.4688,94.3906 1036.9063,94.2031 Q1036.3438,94 1035.7813,94 Q1035.0781,94 1034.4844,94.2813 Q1033.9063,94.5625 1033.4531,95.1875 Q1033,95.8125 1033,96.6719 L1033,97.5938 Q1033,98.625 1033.8438,99.3125 Q1034.6875,100 1036.1875,100 Q1037.0781,100 1037.7031,99.7969 Q1038.0625,99.6875 1038.4688,99.3281 Q1038.7344,99.125 1038.875,99.0625 Q1039.0156,99 1039.1875,99 Q1039.5156,99 1039.75,99.2656 Q1040,99.5156 1040,99.875 Q1040,100.2188 1039.6563,100.625 Q1039.1563,101.2188 1038.3594,101.5469 Q1037.3125,102 1036.0313,102 Q1034.5313,102 1033.3281,101.4063 Q1032.3594,100.9375 1031.6719,99.9219 Q1031,98.9063 1031,97.7031 L1031,96.6094 Q1031,95.3594 1031.5938,94.2656 Q1032.2031,93.1719 1033.25,92.5938 Q1034.3125,92 1035.5,92 Q1036.2188,92 1036.8438,92.25 Q1037.4688,92.5 1038,93 Z " fill="#000000"/><text fill="#000000" font-family="sans-serif" font-size="14" lengthAdjust="spacing" textLength="96" x="1050" y="102.2285">EmployeeStore</text><line style="stroke:#181818;stroke-width:0.5;" x1="1022" x2="1148" y1="112.5" y2="112.5"/><line style="stroke:#181818;stroke-width:0.5;" x1="1022" x2="1148" y1="120.5" y2="120.5"/></g><!--MD5=[eb0b0f857d5f3e8b79d074ada6e60e01]
link RegisterEmployeeTypeUI to SpecifyNewEmployeeController--><g id="link_RegisterEmployeeTypeUI_SpecifyNewEmployeeController"><path codeLine="28" d="M238.39,104.5 C256.24,104.5 274.93,104.5 293.53,104.5 " fill="none" id="RegisterEmployeeTypeUI-to-SpecifyNewEmployeeController" style="stroke:#181818;stroke-width:1.0;stroke-dasharray:7.0,7.0;"/><polygon fill="#181818" points="298.78,104.5,289.78,100.5,293.78,104.5,289.78,108.5,298.78,104.5" style="stroke:#181818;stroke-width:1.0;"/></g><!--MD5=[ce859576cba61219b3cb4d2d23fdcd81]
link Company to EmployeeStore--><g id="link_Company_EmployeeStore"><path codeLine="29" d="M914.14,104.5 C950.87,104.5 989.66,104.5 1020.89,104.5 " fill="none" id="Company-EmployeeStore" style="stroke:#181818;stroke-width:1.0;"/><polygon fill="#000000" points="954,95.6758,944.9549,92.7369,944.9549,98.6147,954,95.6758" style="stroke:#000000;stroke-width:1.0;"/><text fill="#000000" font-family="sans-serif" font-size="13" lengthAdjust="spacing" textLength="32" x="958" y="100.9951">has a</text><text fill="#000000" font-family="sans-serif" font-size="13" lengthAdjust="spacing" textLength="7" x="921.8571" y="118.4867">1</text><text fill="#000000" font-family="sans-serif" font-size="13" lengthAdjust="spacing" textLength="5" x="1008.1882" y="118.9404">*</text></g><!--MD5=[2f3bac1bdf76f0b867b8cadb6fadb6bc]
link EmployeeStore to Employee--><g id="link_EmployeeStore_Employee"><path codeLine="30" d="M1149.21,92.27 C1191.12,84.16 1245.15,73.71 1282.99,66.39 " fill="none" id="EmployeeStore-Employee" style="stroke:#181818;stroke-width:1.0;"/><polygon fill="#000000" points="1188.909,63.7261,1179.4704,62.5586,1180.5867,68.3295,1188.909,63.7261" style="stroke:#000000;stroke-width:1.0;"/><text fill="#000000" font-family="sans-serif" font-size="13" lengthAdjust="spacing" textLength="59" x="1193" y="69.9951">keeps info</text><text fill="#000000" font-family="sans-serif" font-size="13" lengthAdjust="spacing" textLength="7" x="1157.039" y="105.2963">1</text><text fill="#000000" font-family="sans-serif" font-size="13" lengthAdjust="spacing" textLength="5" x="1270.0993" y="82.6187">*</text></g><!--MD5=[f7b8f66441771accfca54426cc31d01d]
link SpecifyNewEmployeeController to Company--><g id="link_SpecifyNewEmployeeController_Company"><path codeLine="31" d="M607.25,104.5 C625.84,104.5 644.67,104.5 662.83,104.5 " fill="none" id="SpecifyNewEmployeeController-to-Company" style="stroke:#181818;stroke-width:1.0;stroke-dasharray:7.0,7.0;"/><polygon fill="#181818" points="667.93,104.5,658.93,100.5,662.93,104.5,658.93,108.5,667.93,104.5" style="stroke:#181818;stroke-width:1.0;"/></g><!--MD5=[8828f78dec089ebd4bfe0564b82f84d4]
link SpecifyNewEmployeeController to EmployeeStore--><g id="link_SpecifyNewEmployeeController_EmployeeStore"><path codeLine="32" d="M607.27,152.06 C627.52,156.78 648.14,160.81 668,163.5 C776.35,178.16 806.19,181.67 914,163.5 C952.02,157.09 992.9,143.14 1025.04,130.42 " fill="none" id="SpecifyNewEmployeeController-to-EmployeeStore" style="stroke:#181818;stroke-width:1.0;stroke-dasharray:7.0,7.0;"/><polygon fill="#181818" points="1029.72,128.55,1019.8781,128.1786,1025.0776,130.407,1022.8493,135.6064,1029.72,128.55" style="stroke:#181818;stroke-width:1.0;"/></g><!--MD5=[5aa714540d32497d9605f5feda4d44c8]
link SpecifyNewEmployeeController to Employee--><g id="link_SpecifyNewEmployeeController_Employee"><path codeLine="33" d="M607.27,56.93 C627.52,52.21 648.14,48.18 668,45.5 C703.76,40.66 1203.97,44.14 1253,47.5 C1261.03,48.05 1269.5,48.89 1277.76,49.87 " fill="none" id="SpecifyNewEmployeeController-to-Employee" style="stroke:#181818;stroke-width:1.0;stroke-dasharray:7.0,7.0;"/><polygon fill="#181818" points="1282.87,50.49,1274.4159,45.4375,1277.9062,49.8892,1273.4546,53.3796,1282.87,50.49" style="stroke:#181818;stroke-width:1.0;"/></g><!--MD5=[2fef8b1ed075bebcc2b4c35b1a4b31a2]
@startuml
skinparam classAttributeIconSize 0
left to right direction

class RegisterEmployeeTypeUI{
SpecifyNewEmployeeController ctrl
}

class SpecifyNewEmployeeController{
Company company
VaccineType vt
+createVaccineType(code, designation, whoId)
+validateVaccineType(vt)
}

class Employee{
 - code
 - designation
 - whoId
}

class Company{
VaccineTypeStore vaccineTypeStore
+addVaccineType(vt)
}

class EmployeeStore{}

RegisterEmployeeTypeUI ..> SpecifyNewEmployeeController
Company "1"- -"*" EmployeeStore : has a >
EmployeeStore "1"- -"*"Employee : keeps info >
SpecifyNewEmployeeController ..> Company
SpecifyNewEmployeeController ..> EmployeeStore
SpecifyNewEmployeeController ..> Employee



@enduml

PlantUML version 1.2022.4(Sat Apr 09 14:29:17 BST 2022)
(GPL source distribution)
Java Runtime: OpenJDK Runtime Environment
JVM: OpenJDK 64-Bit Server VM
Default Encoding: Cp1252
Language: pt
Country: PT
--></g></svg>