<?xml version="1.0" encoding="UTF-8" standalone="no"?><svg xmlns="http://www.w3.org/2000/svg" xmlns:xlink="http://www.w3.org/1999/xlink" contentStyleType="text/css" height="681px" preserveAspectRatio="none" style="width:1959px;height:681px;background:#FFFFFF;" version="1.1" viewBox="0 0 1959 681" width="1959px" zoomAndPan="magnify"><defs/><g><rect fill="#FFFFFF" height="489.2188" style="stroke:#181818;stroke-width:1.0;" width="10" x="44.5" y="92.6094"/><rect fill="#FFFFFF" height="30.3516" style="stroke:#181818;stroke-width:1.0;" width="10" x="653.5" y="114.9609"/><rect fill="#FFFFFF" height="164.4063" style="stroke:#181818;stroke-width:1.0;" width="10" x="653.5" y="175.6641"/><rect fill="#FFFFFF" height="211.4063" style="stroke:#181818;stroke-width:1.0;" width="10" x="653.5" y="370.4219"/><rect fill="#FFFFFF" height="134.0547" style="stroke:#181818;stroke-width:1.0;" width="10" x="1365.5" y="206.0156"/><rect fill="#FFFFFF" height="30" style="stroke:#181818;stroke-width:1.0;" width="10" x="1365.5" y="400.7734"/><rect fill="#FFFFFF" height="30" style="stroke:#181818;stroke-width:1.0;" width="10" x="1558.5" y="461.125"/><rect fill="#FFFFFF" height="30" style="stroke:#181818;stroke-width:1.0;" width="10" x="1805.5" y="521.4766"/><rect fill="#FFFFFF" height="30" style="stroke:#181818;stroke-width:1.0;" width="10" x="1910.5" y="236.3672"/><line style="stroke:#181818;stroke-width:0.5;stroke-dasharray:5.0,5.0;" x1="49" x2="49" y1="82.6094" y2="599.8281"/><line style="stroke:#181818;stroke-width:0.5;stroke-dasharray:5.0,5.0;" x1="658.5" x2="658.5" y1="82.6094" y2="599.8281"/><line style="stroke:#181818;stroke-width:0.5;stroke-dasharray:5.0,5.0;" x1="1370.5" x2="1370.5" y1="82.6094" y2="599.8281"/><line style="stroke:#181818;stroke-width:0.5;stroke-dasharray:5.0,5.0;" x1="1563.5" x2="1563.5" y1="82.6094" y2="599.8281"/><line style="stroke:#181818;stroke-width:0.5;stroke-dasharray:5.0,5.0;" x1="1810.5" x2="1810.5" y1="82.6094" y2="599.8281"/><line style="stroke:#181818;stroke-width:0.5;stroke-dasharray:5.0,5.0;" x1="1915.5" x2="1915.5" y1="82.6094" y2="599.8281"/><text fill="#000000" font-family="sans-serif" font-size="14" lengthAdjust="spacing" textLength="83" x="5" y="79.5332">Administrator</text><ellipse cx="49.5" cy="13.5" fill="#E2E2F0" rx="8" ry="8" style="stroke:#181818;stroke-width:0.5;"/><path d="M49.5,21.5 L49.5,48.5 M36.5,29.5 L62.5,29.5 M49.5,48.5 L36.5,63.5 M49.5,48.5 L62.5,63.5 " fill="none" style="stroke:#181818;stroke-width:0.5;"/><text fill="#000000" font-family="sans-serif" font-size="14" lengthAdjust="spacing" textLength="83" x="5" y="613.3613">Administrator</text><ellipse cx="49.5" cy="624.9375" fill="#E2E2F0" rx="8" ry="8" style="stroke:#181818;stroke-width:0.5;"/><path d="M49.5,632.9375 L49.5,659.9375 M36.5,640.9375 L62.5,640.9375 M49.5,659.9375 L36.5,674.9375 M49.5,659.9375 L62.5,674.9375 " fill="none" style="stroke:#181818;stroke-width:0.5;"/><rect fill="#E2E2F0" height="31.6094" rx="2.5" ry="2.5" style="stroke:#181818;stroke-width:0.5;" width="92" x="612.5" y="50"/><text fill="#000000" font-family="sans-serif" font-size="14" lengthAdjust="spacing" textLength="78" x="619.5" y="71.5332">:EmployeeUI</text><rect fill="#E2E2F0" height="31.6094" rx="2.5" ry="2.5" style="stroke:#181818;stroke-width:0.5;" width="92" x="612.5" y="598.8281"/><text fill="#000000" font-family="sans-serif" font-size="14" lengthAdjust="spacing" textLength="78" x="619.5" y="620.3613">:EmployeeUI</text><rect fill="#E2E2F0" height="31.6094" rx="2.5" ry="2.5" style="stroke:#181818;stroke-width:0.5;" width="214" x="1263.5" y="50"/><text fill="#000000" font-family="sans-serif" font-size="14" lengthAdjust="spacing" textLength="200" x="1270.5" y="71.5332">:SpecifyNewEmployeeController</text><rect fill="#E2E2F0" height="31.6094" rx="2.5" ry="2.5" style="stroke:#181818;stroke-width:0.5;" width="214" x="1263.5" y="598.8281"/><text fill="#000000" font-family="sans-serif" font-size="14" lengthAdjust="spacing" textLength="200" x="1270.5" y="620.3613">:SpecifyNewEmployeeController</text><rect fill="#E2E2F0" height="31.6094" rx="2.5" ry="2.5" style="stroke:#181818;stroke-width:0.5;" width="78" x="1524.5" y="50"/><text fill="#000000" font-family="sans-serif" font-size="14" lengthAdjust="spacing" textLength="64" x="1531.5" y="71.5332">:Company</text><rect fill="#E2E2F0" height="31.6094" rx="2.5" ry="2.5" style="stroke:#181818;stroke-width:0.5;" width="78" x="1524.5" y="598.8281"/><text fill="#000000" font-family="sans-serif" font-size="14" lengthAdjust="spacing" textLength="64" x="1531.5" y="620.3613">:Company</text><rect fill="#E2E2F0" height="31.6094" rx="2.5" ry="2.5" style="stroke:#181818;stroke-width:0.5;" width="114" x="1753.5" y="50"/><text fill="#000000" font-family="sans-serif" font-size="14" lengthAdjust="spacing" textLength="100" x="1760.5" y="71.5332">:EmployeeStore</text><rect fill="#E2E2F0" height="31.6094" rx="2.5" ry="2.5" style="stroke:#181818;stroke-width:0.5;" width="114" x="1753.5" y="598.8281"/><text fill="#000000" font-family="sans-serif" font-size="14" lengthAdjust="spacing" textLength="100" x="1760.5" y="620.3613">:EmployeeStore</text><rect fill="#E2E2F0" height="31.6094" rx="2.5" ry="2.5" style="stroke:#181818;stroke-width:0.5;" width="76" x="1877.5" y="50"/><text fill="#000000" font-family="sans-serif" font-size="14" lengthAdjust="spacing" textLength="62" x="1884.5" y="71.5332">Employee</text><rect fill="#E2E2F0" height="31.6094" rx="2.5" ry="2.5" style="stroke:#181818;stroke-width:0.5;" width="76" x="1877.5" y="598.8281"/><text fill="#000000" font-family="sans-serif" font-size="14" lengthAdjust="spacing" textLength="62" x="1884.5" y="620.3613">Employee</text><rect fill="#FFFFFF" height="489.2188" style="stroke:#181818;stroke-width:1.0;" width="10" x="44.5" y="92.6094"/><rect fill="#FFFFFF" height="30.3516" style="stroke:#181818;stroke-width:1.0;" width="10" x="653.5" y="114.9609"/><rect fill="#FFFFFF" height="164.4063" style="stroke:#181818;stroke-width:1.0;" width="10" x="653.5" y="175.6641"/><rect fill="#FFFFFF" height="211.4063" style="stroke:#181818;stroke-width:1.0;" width="10" x="653.5" y="370.4219"/><rect fill="#FFFFFF" height="134.0547" style="stroke:#181818;stroke-width:1.0;" width="10" x="1365.5" y="206.0156"/><rect fill="#FFFFFF" height="30" style="stroke:#181818;stroke-width:1.0;" width="10" x="1365.5" y="400.7734"/><rect fill="#FFFFFF" height="30" style="stroke:#181818;stroke-width:1.0;" width="10" x="1558.5" y="461.125"/><rect fill="#FFFFFF" height="30" style="stroke:#181818;stroke-width:1.0;" width="10" x="1805.5" y="521.4766"/><rect fill="#FFFFFF" height="30" style="stroke:#181818;stroke-width:1.0;" width="10" x="1910.5" y="236.3672"/><polygon fill="#181818" points="641.5,110.9609,651.5,114.9609,641.5,118.9609,645.5,114.9609" style="stroke:#181818;stroke-width:1.0;"/><line style="stroke:#181818;stroke-width:1.0;" x1="54.5" x2="647.5" y1="114.9609" y2="114.9609"/><text fill="#000000" font-family="sans-serif" font-size="13" font-weight="bold" lengthAdjust="spacing" textLength="7" x="61.5" y="110.1045">1</text><text fill="#000000" font-family="sans-serif" font-size="13" lengthAdjust="spacing" textLength="150" x="72.5" y="110.1045">asks to create a new task</text><polygon fill="#181818" points="65.5,141.3125,55.5,145.3125,65.5,149.3125,61.5,145.3125" style="stroke:#181818;stroke-width:1.0;"/><line style="stroke:#181818;stroke-width:1.0;stroke-dasharray:2.0,2.0;" x1="59.5" x2="657.5" y1="145.3125" y2="145.3125"/><text fill="#000000" font-family="sans-serif" font-size="13" font-weight="bold" lengthAdjust="spacing" textLength="7" x="71.5" y="140.4561">2</text><text fill="#000000" font-family="sans-serif" font-size="13" lengthAdjust="spacing" textLength="564" x="82.5" y="140.4561">requests data ( Name, E-mail, Address, Phone Number, Citizen Card Numbe, Employee ID, Role)</text><polygon fill="#181818" points="641.5,171.6641,651.5,175.6641,641.5,179.6641,645.5,175.6641" style="stroke:#181818;stroke-width:1.0;"/><line style="stroke:#181818;stroke-width:1.0;" x1="54.5" x2="647.5" y1="175.6641" y2="175.6641"/><text fill="#000000" font-family="sans-serif" font-size="13" font-weight="bold" lengthAdjust="spacing" textLength="7" x="61.5" y="170.8076">3</text><text fill="#000000" font-family="sans-serif" font-size="13" lengthAdjust="spacing" textLength="122" x="72.5" y="170.8076">types requested data</text><polygon fill="#181818" points="1353.5,202.0156,1363.5,206.0156,1353.5,210.0156,1357.5,206.0156" style="stroke:#181818;stroke-width:1.0;"/><line style="stroke:#181818;stroke-width:1.0;" x1="663.5" x2="1359.5" y1="206.0156" y2="206.0156"/><text fill="#000000" font-family="sans-serif" font-size="13" font-weight="bold" lengthAdjust="spacing" textLength="7" x="670.5" y="201.1592">4</text><text fill="#000000" font-family="sans-serif" font-size="13" lengthAdjust="spacing" textLength="672" x="681.5" y="201.1592">ctrl.createEmployee(askName(), askEmail(), askAddress(), askPhoneNumber(), askCitizenCard(), askEmployeeID())</text><polygon fill="#181818" points="1898.5,232.3672,1908.5,236.3672,1898.5,240.3672,1902.5,236.3672" style="stroke:#181818;stroke-width:1.0;"/><line style="stroke:#181818;stroke-width:1.0;" x1="1375.5" x2="1904.5" y1="236.3672" y2="236.3672"/><text fill="#000000" font-family="sans-serif" font-size="13" font-weight="bold" lengthAdjust="spacing" textLength="7" x="1382.5" y="231.5107">5</text><text fill="#000000" font-family="sans-serif" font-size="13" lengthAdjust="spacing" textLength="481" x="1393.5" y="231.5107">emp = name, email, address, phoneNumber, citizenCardNumber, employeeID, role)</text><line style="stroke:#181818;stroke-width:1.0;" x1="1375.5" x2="1417.5" y1="296.7188" y2="296.7188"/><line style="stroke:#181818;stroke-width:1.0;" x1="1417.5" x2="1417.5" y1="296.7188" y2="309.7188"/><line style="stroke:#181818;stroke-width:1.0;" x1="1376.5" x2="1417.5" y1="309.7188" y2="309.7188"/><polygon fill="#181818" points="1386.5,305.7188,1376.5,309.7188,1386.5,313.7188,1382.5,309.7188" style="stroke:#181818;stroke-width:1.0;"/><text fill="#000000" font-family="sans-serif" font-size="13" font-weight="bold" lengthAdjust="spacing" textLength="7" x="1382.5" y="291.8623">6</text><text fill="#000000" font-family="sans-serif" font-size="13" lengthAdjust="spacing" textLength="134" x="1393.5" y="291.8623">validateEmployee(emp)</text><polygon fill="#181818" points="65.5,336.0703,55.5,340.0703,65.5,344.0703,61.5,340.0703" style="stroke:#181818;stroke-width:1.0;"/><line style="stroke:#181818;stroke-width:1.0;stroke-dasharray:2.0,2.0;" x1="59.5" x2="657.5" y1="340.0703" y2="340.0703"/><text fill="#000000" font-family="sans-serif" font-size="13" font-weight="bold" lengthAdjust="spacing" textLength="7" x="71.5" y="335.2139">7</text><text fill="#000000" font-family="sans-serif" font-size="13" lengthAdjust="spacing" textLength="213" x="82.5" y="335.2139">displays data waiting for confirmation</text><polygon fill="#181818" points="641.5,366.4219,651.5,370.4219,641.5,374.4219,645.5,370.4219" style="stroke:#181818;stroke-width:1.0;"/><line style="stroke:#181818;stroke-width:1.0;" x1="54.5" x2="647.5" y1="370.4219" y2="370.4219"/><text fill="#000000" font-family="sans-serif" font-size="13" font-weight="bold" lengthAdjust="spacing" textLength="7" x="61.5" y="365.5654">8</text><text fill="#000000" font-family="sans-serif" font-size="13" lengthAdjust="spacing" textLength="171" x="72.5" y="365.5654">confirms data of VaccineType</text><polygon fill="#181818" points="1353.5,396.7734,1363.5,400.7734,1353.5,404.7734,1357.5,400.7734" style="stroke:#181818;stroke-width:1.0;"/><line style="stroke:#181818;stroke-width:1.0;" x1="663.5" x2="1359.5" y1="400.7734" y2="400.7734"/><text fill="#000000" font-family="sans-serif" font-size="13" font-weight="bold" lengthAdjust="spacing" textLength="7" x="670.5" y="395.917">9</text><text fill="#000000" font-family="sans-serif" font-size="13" lengthAdjust="spacing" textLength="109" x="681.5" y="395.917">ctrl.addEmployee()</text><polygon fill="#181818" points="1546.5,457.125,1556.5,461.125,1546.5,465.125,1550.5,461.125" style="stroke:#181818;stroke-width:1.0;"/><line style="stroke:#181818;stroke-width:1.0;" x1="1370.5" x2="1552.5" y1="461.125" y2="461.125"/><text fill="#000000" font-family="sans-serif" font-size="13" font-weight="bold" lengthAdjust="spacing" textLength="14" x="1377.5" y="456.2686">10</text><text fill="#000000" font-family="sans-serif" font-size="13" lengthAdjust="spacing" textLength="151" x="1395.5" y="456.2686">company.addEmployee(e)</text><polygon fill="#181818" points="1793.5,517.4766,1803.5,521.4766,1793.5,525.4766,1797.5,521.4766" style="stroke:#181818;stroke-width:1.0;"/><line style="stroke:#181818;stroke-width:1.0;" x1="1563.5" x2="1799.5" y1="521.4766" y2="521.4766"/><text fill="#000000" font-family="sans-serif" font-size="13" font-weight="bold" lengthAdjust="spacing" textLength="14" x="1570.5" y="516.6201">11</text><text fill="#000000" font-family="sans-serif" font-size="13" lengthAdjust="spacing" textLength="205" x="1588.5" y="516.6201">EmployeeStore.addEmployee(emp)</text><polygon fill="#181818" points="60.5,577.8281,50.5,581.8281,60.5,585.8281,56.5,581.8281" style="stroke:#181818;stroke-width:1.0;"/><line style="stroke:#181818;stroke-width:1.0;stroke-dasharray:2.0,2.0;" x1="54.5" x2="657.5" y1="581.8281" y2="581.8281"/><text fill="#000000" font-family="sans-serif" font-size="13" font-weight="bold" lengthAdjust="spacing" textLength="14" x="66.5" y="576.9717">12</text><text fill="#000000" font-family="sans-serif" font-size="13" lengthAdjust="spacing" textLength="95" x="84.5" y="576.9717">informs success</text><!--MD5=[2336ece7fe7c195b182419d5d46bd8b1]
@startuml
autonumber
'hide footbox
actor "Administrator" as ADM

participant ":EmployeeUI" as UI
participant ":SpecifyNewEmployeeController" as CTRL
participant ":Company" as COMP
participant ":EmployeeStore" as STORE
participant "Employee" as EMP



activate ADM
ADM -> UI : asks to create a new task
activate UI
UI - -> ADM : requests data ( Name, E-mail, Address, Phone Number, Citizen Card Numbe, Employee ID, Role)
deactivate UI

ADM -> UI : types requested data
activate UI

UI -> CTRL : ctrl.createEmployee(askName(), askEmail(), askAddress(), askPhoneNumber(), askCitizenCard(), askEmployeeID())

activate CTRL
CTRL -> EMP : emp = name, email, address, phoneNumber, citizenCardNumber, employeeID, role)
activate EMP
deactivate EMP

CTRL -> CTRL : validateEmployee(emp)




UI - -> ADM : displays data waiting for confirmation
deactivate CTRL
deactivate UI

ADM -> UI : confirms data of VaccineType
activate UI

UI -> CTRL : ctrl.addEmployee()
activate CTRL
deactivate CTRL

CTRL -> COMP : company.addEmployee(e)
activate COMP
deactivate COMP


COMP -> STORE : EmployeeStore.addEmployee(emp)
activate STORE
deactivate STORE

UI - -> ADM : informs success
deactivate UI
deactivate ADM

@enduml

@startuml
autonumber
actor "Administrator" as ADM

participant ":EmployeeUI" as UI
participant ":SpecifyNewEmployeeController" as CTRL
participant ":Company" as COMP
participant ":EmployeeStore" as STORE
participant "Employee" as EMP



activate ADM
ADM -> UI : asks to create a new task
activate UI
UI - -> ADM : requests data ( Name, E-mail, Address, Phone Number, Citizen Card Numbe, Employee ID, Role)
deactivate UI

ADM -> UI : types requested data
activate UI

UI -> CTRL : ctrl.createEmployee(askName(), askEmail(), askAddress(), askPhoneNumber(), askCitizenCard(), askEmployeeID())

activate CTRL
CTRL -> EMP : emp = name, email, address, phoneNumber, citizenCardNumber, employeeID, role)
activate EMP
deactivate EMP

CTRL -> CTRL : validateEmployee(emp)




UI - -> ADM : displays data waiting for confirmation
deactivate CTRL
deactivate UI

ADM -> UI : confirms data of VaccineType
activate UI

UI -> CTRL : ctrl.addEmployee()
activate CTRL
deactivate CTRL

CTRL -> COMP : company.addEmployee(e)
activate COMP
deactivate COMP


COMP -> STORE : EmployeeStore.addEmployee(emp)
activate STORE
deactivate STORE

UI - -> ADM : informs success
deactivate UI
deactivate ADM

@enduml

PlantUML version 1.2022.4(Sat Apr 09 14:29:17 BST 2022)
(GPL source distribution)
Java Runtime: OpenJDK Runtime Environment
JVM: OpenJDK 64-Bit Server VM
Default Encoding: Cp1252
Language: pt
Country: PT
--></g></svg>